<?xml version="1.0" standalone="no"?>
<!DOCTYPE svg PUBLIC "-//W3C//DTD SVG 1.1//EN" "http://www.w3.org/Graphics/SVG/1.1/DTD/svg11.dtd" >
<svg xmlns="http://www.w3.org/2000/svg" xmlns:xlink="http://www.w3.org/1999/xlink" version="1.1">
<metadata></metadata>
<defs>
<font id="expert_sanslight" horiz-adv-x="1140" >
<font-face units-per-em="2048" ascent="1638" descent="-410" />
<missing-glyph horiz-adv-x="501" />
<glyph horiz-adv-x="0" />
<glyph unicode="&#xd;" horiz-adv-x="501" />
<glyph horiz-adv-x="0" />
<glyph horiz-adv-x="0" />
<glyph unicode=" "  horiz-adv-x="501" />
<glyph unicode="&#x09;" horiz-adv-x="501" />
<glyph unicode="&#xa0;" horiz-adv-x="501" />
<glyph unicode="!" horiz-adv-x="464" d="M47 61q0 37 25.5 61.5t60.5 24.5t60.5 -24.5t25.5 -61.5q0 -35 -25.5 -60.5t-60.5 -25.5t-60.5 26t-25.5 60zM135 356l227 1061l119 29l-223 -1061z" />
<glyph unicode="&#x22;" horiz-adv-x="665" d="M195 954l86 492h122l-122 -492h-86zM492 954l86 492h122l-122 -492h-86z" />
<glyph unicode="#" horiz-adv-x="1302" d="M131 408v104h221l90 418h-309v102h324l90 414h108l-90 -414h373l86 414h109l-91 -414h205v-102h-221l-86 -418h305v-104h-325l-86 -408h-111l90 408h-375l-86 -408h-108l86 408h-199zM461 512h370l87 418h-371z" />
<glyph unicode="$" d="M35 117l47 104q68 -35 152.5 -57.5t185.5 -24.5l4 2l121 570q-63 27 -118.5 56.5t-97.5 66t-66.5 84t-24.5 108.5q0 92 38.5 157.5t102 109.5t144.5 67.5t167 30.5l33 151h104l-30 -147q98 -2 187 -20.5t149 -45.5l-46 -100q-72 29 -152.5 47t-158.5 20l-108 -510 q51 -25 109.5 -54.5t105.5 -70t78.5 -96t31.5 -133.5q0 -96 -40 -167.5t-106.5 -119t-154.5 -73t-182 -31.5l-41 -184h-104l38 182q-111 4 -205 24.5t-163 53.5zM358 1038q0 -45 20.5 -77.5t51.5 -56t69 -42t72 -35.5l99 463q-59 -6 -115.5 -22.5t-99.5 -47t-70 -75.5 t-27 -107zM530 145q66 6 127.5 24.5t108.5 52.5t75.5 83t28.5 119q0 47 -19.5 84t-51 66.5t-72.5 52t-86 41.5z" />
<glyph unicode="%" horiz-adv-x="1851" d="M197 979q0 92 26.5 181t77.5 157.5t127 110.5t174 42q129 0 204 -79.5t75 -214.5q0 -92 -27 -180.5t-78 -157t-127 -110.5t-174 -42q-129 0 -203.5 79t-74.5 214zM297 987q0 -92 47 -155.5t148 -63.5q72 0 126 37t89.5 95t54 129.5t18.5 139.5q0 96 -47 158t-147 62 q-74 0 -128.5 -38t-90 -96.5t-53 -129t-17.5 -138.5zM330 -25l1159 1495h110l-1159 -1495h-110zM1047 268q0 92 26.5 181.5t77.5 158t127 110.5t174 42q129 0 203 -80t74 -215q0 -92 -27 -180t-78 -157t-127 -111t-174 -42q-129 0 -202.5 79t-73.5 214zM1147 276 q0 -92 46 -155.5t146 -63.5q72 0 126.5 37t90 95.5t54 130t18.5 139.5q0 96 -47 157.5t-145 61.5q-74 0 -128.5 -38t-90 -96.5t-53 -129t-17.5 -138.5z" />
<glyph unicode="&#x26;" horiz-adv-x="1333" d="M72 297q0 92 33.5 162.5t93 128t139.5 107.5t174 100q-59 86 -97 169t-38 162q0 80 30.5 143.5t85 108.5t129 68.5t160.5 23.5t147.5 -21.5t101.5 -56t59.5 -78.5t19.5 -89q0 -72 -30.5 -130.5t-85 -108.5t-127 -96t-156.5 -95l-47 -25l309 -469q88 92 131 193.5 t43 207.5l102 23v-29q-4 -137 -64.5 -260t-156.5 -217l146 -219h-134l-96 143q-94 -78 -211 -123t-252 -45q-90 0 -165.5 21.5t-130 63.5t-84 101.5t-29.5 135.5zM197 309q0 -111 78.5 -174t220.5 -63q115 0 216 43t179 110l-326 490q-94 -53 -163.5 -98.5t-114.5 -92.5 t-67.5 -99t-22.5 -116zM492 1133q0 -70 32.5 -134.5t89.5 -150.5q4 2 24.5 14t45.5 26.5t45.5 27t24.5 14.5q106 66 174.5 133.5t68.5 153.5q0 68 -57 113.5t-164 45.5q-59 0 -110.5 -16.5t-90 -47t-61 -76.5t-22.5 -103z" />
<glyph unicode="'" horiz-adv-x="368" d="M195 954l86 492h122l-122 -492h-86z" />
<glyph unicode="(" horiz-adv-x="753" d="M129 262q0 139 25 275q27 143 82 282t131.5 268.5t172 248t203.5 223.5h97q-125 -143 -231.5 -296t-185.5 -316t-123 -337t-44 -364q0 -174 39 -344t119 -353h-92q-94 164 -143.5 348.5t-49.5 364.5z" />
<glyph unicode=")" horiz-adv-x="753" d="M-66 -451q125 143 231.5 295t184.5 315t122 338t44 365q0 338 -158 697h93q96 -164 145 -348.5t49 -364.5q0 -72 -7 -139.5t-20 -135.5q-27 -145 -81 -283t-130.5 -267.5t-172 -248t-203.5 -223.5h-97z" />
<glyph unicode="*" horiz-adv-x="1001" d="M246 1010l295 149l-293 158l53 90l274 -182l-10 334h103l-15 -332l279 176l51 -90l-291 -150l291 -155l-53 -90l-277 178l13 -332h-105l19 323l-281 -167z" />
<glyph unicode="+" horiz-adv-x="987" d="M113 674v98h374v375h97v-375h377v-98h-377v-375h-97v375h-374z" />
<glyph unicode="," horiz-adv-x="471" d="M-16 -236q86 61 123.5 114.5t48.5 107.5q-35 4 -58.5 27.5t-23.5 62.5t26.5 63.5t61.5 24.5q45 0 70.5 -30t25.5 -83q0 -96 -61.5 -177t-173.5 -153z" />
<glyph unicode="-" horiz-adv-x="729" d="M90 461l25 117h524l-25 -117h-524z" />
<glyph unicode="." horiz-adv-x="471" d="M78 74q0 39 26.5 64.5t63.5 25.5t63.5 -25.5t26.5 -64.5q0 -37 -26.5 -63.5t-63.5 -26.5t-63.5 26.5t-26.5 63.5z" />
<glyph unicode="/" horiz-adv-x="935" d="M-41 -25l1038 1584h119l-1040 -1584h-117z" />
<glyph unicode="0" d="M100 479q0 94 16.5 205t50.5 220.5t86 212t124 181t164 125.5t204 47q96 0 167 -35.5t117 -102t67.5 -159.5t21.5 -206q0 -96 -16.5 -208t-51 -221.5t-87 -211t-124 -180t-162.5 -125t-204 -46.5q-98 0 -167.5 37t-116 102.5t-68 159t-21.5 205.5zM219 471 q0 -106 19.5 -181t54.5 -122t84 -68.5t108 -21.5q90 0 164 44t131.5 116.5t98.5 167t67.5 193.5t39.5 196.5t13 179.5q0 106 -20.5 181t-55 122t-85 68.5t-107.5 21.5q-92 0 -164.5 -44t-130 -117.5t-98.5 -168t-67.5 -194t-39 -196.5t-12.5 -177z" />
<glyph unicode="1" d="M406 1219l8 106l393 145h53l-313 -1470h-119l283 1331z" />
<glyph unicode="2" d="M-10 0l12 61q12 10 38 35t57.5 54.5t62 58.5t53.5 47q111 100 202 182t164.5 150.5t130 126t97.5 108.5q66 80 113 163t47 188q0 86 -62.5 141t-189.5 55q-104 0 -209 -43t-184 -96l-48 94q94 66 212 105.5t241 39.5q178 0 270.5 -78.5t92.5 -217.5q0 -61 -16.5 -117 t-44.5 -108t-63.5 -101t-74.5 -96q-82 -94 -201 -205t-282 -256q-12 -10 -40 -35t-61 -53.5t-61.5 -55t-42.5 -38.5h721l-23 -109h-911z" />
<glyph unicode="3" d="M10 53l45 101q33 -14 76 -27.5t89 -24t92 -16.5t87 -6q100 0 186.5 26.5t150 76.5t99 123t35.5 163q0 68 -27.5 115t-77.5 74.5t-122 40t-158 12.5h-163l51 100h162q74 0 150.5 21.5t139 64.5t102.5 107.5t40 150.5q0 92 -63.5 152.5t-198.5 60.5q-86 0 -178.5 -26.5 t-190.5 -79.5l-43 92q111 61 218 88.5t208 27.5q182 0 274 -86t92 -217q0 -154 -89 -253t-230 -152q43 -10 83 -31.5t71.5 -55.5t51 -83t19.5 -113q0 -123 -50 -217t-133 -157.5t-191.5 -96.5t-227.5 -33q-47 0 -98 6.5t-102.5 16.5t-97.5 24.5t-81 30.5z" />
<glyph unicode="4" d="M27 463l22 104l903 903h76l-192 -905h219l-23 -102h-219l-98 -463h-115l98 463h-671zM186 565h533l147 682z" />
<glyph unicode="5" d="M16 55l45 101q61 -27 156.5 -51.5t196.5 -24.5q119 0 206 36t143 96t83.5 138t27.5 164q0 137 -79.5 211t-253.5 74q-66 0 -144 -12.5t-145 -32.5l180 692h727l-55 -107h-588l-117 -462q43 10 95.5 15t103.5 5q90 0 164 -26.5t126 -76t80.5 -120t28.5 -156.5 q0 -109 -36.5 -206t-111.5 -173t-188.5 -120t-267.5 -44q-43 0 -95 6.5t-104.5 17.5t-99.5 25.5t-78 30.5z" />
<glyph unicode="6" d="M109 471q0 111 23.5 226.5t68.5 227t111.5 211t152.5 173t189.5 117.5t224.5 44q86 0 143 -10t111 -28l-37 -101q-41 14 -98.5 24.5t-129.5 10.5q-123 0 -224 -59.5t-179 -154.5t-130 -214t-79 -238q100 80 200.5 127t223.5 47q86 0 155.5 -26.5t119 -72.5t76 -109.5 t26.5 -137.5q0 -115 -36 -215t-103.5 -175t-164 -119t-216.5 -44q-209 0 -318.5 132.5t-109.5 363.5zM225 455q0 -80 20.5 -148.5t60.5 -120t99.5 -80t139.5 -28.5q94 0 166.5 34.5t123 95t76 141.5t25.5 173q0 115 -75 182.5t-210 67.5q-104 0 -214.5 -59.5t-200.5 -141.5 q-4 -29 -7.5 -55.5t-3.5 -60.5z" />
<glyph unicode="7" d="M197 0l882 1339h-776l57 107h875l-18 -82l-883 -1364h-137z" />
<glyph unicode="8" d="M78 324q0 96 34.5 165.5t95 123t141.5 94.5t171 79q-41 25 -84 56.5t-77.5 72.5t-57 92.5t-22.5 112.5q0 86 36.5 151.5t99 109.5t145.5 66.5t175 22.5q76 0 143.5 -19t120 -55t83 -88t30.5 -118q0 -86 -32.5 -148.5t-86 -110.5t-122 -84t-142.5 -69q141 -88 216 -172 t75 -198q0 -113 -46 -194t-119 -134t-165 -79t-184 -26t-170 26t-135.5 72t-90 110.5t-32.5 140.5zM201 328q0 -59 25.5 -106.5t69.5 -80t102.5 -50t123.5 -17.5q76 0 143.5 21.5t119 63.5t81 101t29.5 135q0 63 -26.5 112.5t-68.5 88.5t-93.5 69.5t-98.5 59.5 q-74 -35 -146.5 -69.5t-131 -80t-94 -105.5t-35.5 -142zM397 1122q0 -45 16.5 -80.5t47.5 -68.5t76 -64.5t102 -68.5q63 27 125.5 57.5t114 68.5t83 89t31.5 121q0 49 -21.5 85.5t-59.5 61.5t-89 37t-108 12q-68 0 -126.5 -17.5t-100.5 -49t-66.5 -78.5t-24.5 -105z" />
<glyph unicode="9" d="M61 18l35 103q47 -16 112.5 -28.5t141.5 -12.5q129 0 231.5 60.5t178.5 155.5t126 214t75 235q-100 -78 -201 -126t-223 -48q-82 0 -152 25t-120 71t-78.5 110.5t-28.5 146.5q0 111 36.5 210t104.5 173.5t165 118.5t218 44q90 0 168 -30.5t134 -92t89 -154.5t33 -218 q0 -168 -49 -345t-146.5 -322.5t-240 -239t-328.5 -93.5q-94 0 -160.5 12.5t-120.5 30.5zM279 928q0 -117 74.5 -185.5t209.5 -68.5q94 0 200.5 53t215.5 147q4 29 7 57.5t3 59.5q0 174 -85 275.5t-234 101.5q-96 0 -169 -35t-122 -95t-74.5 -140t-25.5 -170z" />
<glyph unicode=":" horiz-adv-x="471" d="M78 74q0 39 26.5 64.5t63.5 25.5t63.5 -25.5t26.5 -64.5q-2 -37 -27.5 -63.5t-62.5 -26.5t-63.5 26.5t-26.5 63.5zM227 784q0 37 27 63.5t63 26.5q39 0 65 -26.5t26 -63.5q0 -39 -26 -64.5t-65 -25.5q-37 0 -63.5 25.5t-26.5 64.5z" />
<glyph unicode=";" horiz-adv-x="471" d="M-16 -236q86 61 123.5 114.5t48.5 107.5q-35 4 -58.5 27.5t-23.5 62.5t26.5 63.5t61.5 24.5q45 0 70.5 -30t25.5 -83q0 -96 -61.5 -177t-173.5 -153zM229 784q0 37 27 63.5t63 26.5q37 0 64 -26.5t27 -63.5q0 -39 -27 -64.5t-64 -25.5t-63.5 25.5t-26.5 64.5z" />
<glyph unicode="&#x3c;" horiz-adv-x="987" d="M102 655v138l848 352v-105l-768 -317l768 -320v-102z" />
<glyph unicode="=" horiz-adv-x="987" d="M113 498v96h848v-96h-848zM113 854v96h848v-96h-848z" />
<glyph unicode="&#x3e;" horiz-adv-x="987" d="M113 299v104l768 320l-768 317v103l848 -352v-138z" />
<glyph unicode="?" horiz-adv-x="882" d="M152 74q0 39 25.5 64.5t62.5 25.5q39 0 64.5 -25.5t25.5 -64.5q0 -37 -25.5 -63.5t-64.5 -26.5q-37 0 -62.5 26.5t-25.5 63.5zM225 1368q72 39 165 70.5t202 31.5q164 0 264 -85.5t100 -237.5q0 -119 -42 -210t-115.5 -154.5t-176 -100.5t-223.5 -45l-51 -238l-121 -26 l80 368h49q96 0 184.5 25t155 74t106.5 123.5t40 175.5q0 104 -67.5 167.5t-196.5 63.5q-82 0 -164 -28.5t-146 -65.5z" />
<glyph unicode="@" horiz-adv-x="1918" d="M88 332q0 233 78 440t220 361.5t342 245.5t441 91q147 0 271.5 -42t215.5 -121.5t142 -197t51 -267.5q0 -104 -25.5 -220t-68.5 -214q-35 -78 -85 -152t-115.5 -130t-144.5 -91t-169 -35q-33 0 -62.5 5t-53 19.5t-38 39t-14.5 63.5q-66 -55 -148.5 -91t-168.5 -36 q-80 0 -138.5 25.5t-96.5 71.5t-57.5 109.5t-19.5 137.5q0 123 44 249t123 228.5t190.5 167t247.5 64.5q59 0 117.5 -12.5t107.5 -41.5l127 37l-197 -825q-4 -12 -6 -24.5t-2 -24.5q0 -39 25.5 -49.5t58.5 -10.5q74 0 138.5 41t115.5 101.5t89 131t60 132.5 q29 76 44.5 155.5t15.5 159.5q0 135 -42 236.5t-119 171t-184.5 104.5t-238.5 35q-221 0 -399 -83t-304 -224t-193.5 -328.5t-67.5 -396.5q0 -160 53 -288t148.5 -217t226.5 -137t284 -48q231 0 422 99t342 271l70 -63q-164 -195 -381 -300.5t-473 -105.5 q-174 0 -320.5 56.5t-253 159t-166 247t-59.5 320.5zM569 354q0 -109 49.5 -181.5t163.5 -72.5q51 0 105.5 19.5t102.5 53.5t84 79t48 96l131 549q-45 31 -100 45t-109 14q-109 0 -196.5 -57t-149 -146t-95.5 -195.5t-34 -203.5z" />
<glyph unicode="A" horiz-adv-x="1239" d="M-78 0l856 1450l92 20l226 -1470h-121l-80 518h-541l-303 -518h-129zM416 618h463l-95 633z" />
<glyph unicode="B" horiz-adv-x="1132" d="M59 0l308 1446q57 4 146 8t171 4q74 0 137.5 -8t116.5 -31q86 -37 132 -99t46 -144q0 -74 -25.5 -135.5t-70.5 -109.5t-106.5 -83t-135.5 -55q123 -16 199 -91t76 -198q0 -141 -54.5 -239.5t-147.5 -160t-217 -89t-261 -27.5q-29 0 -70 1t-85 2t-86 3t-73 6zM205 96 q41 -4 94 -7t94 -3q104 0 199.5 21.5t169.5 70.5t117 127t43 191q0 111 -82 175t-262 64q-29 0 -63 -2t-66.5 -5t-62.5 -7t-50 -6zM356 813q119 4 232.5 18.5t203 51.5t142.5 104t53 176q0 39 -16.5 75t-53 63.5t-96 44t-143.5 16.5q-53 0 -108.5 -3t-98.5 -11z" />
<glyph unicode="C" horiz-adv-x="1273" d="M117 549q0 178 57 344t166 294t268.5 205.5t366.5 77.5q96 0 193.5 -18t166.5 -55l-47 -103q-70 35 -153.5 53.5t-176.5 18.5q-182 0 -316 -72.5t-221 -188.5t-130 -262.5t-43 -293.5q0 -100 25.5 -186.5t76.5 -148.5t128 -97t179 -35q94 0 200 31.5t202 87.5l47 -101 q-104 -59 -223 -92t-246 -33q-131 0 -228.5 47.5t-162 126t-97 182t-32.5 218.5z" />
<glyph unicode="D" horiz-adv-x="1376" d="M59 0l308 1446q74 6 165 9t170 3q178 0 299 -47t195 -126t104.5 -180t30.5 -210q0 -227 -70.5 -397t-200.5 -284t-313.5 -170t-408.5 -56q-51 0 -129 3t-150 9zM205 100q45 -4 86 -6t82 -2q166 0 316.5 47t264 145.5t181 249t67.5 357.5q0 106 -30.5 192t-94 147.5 t-161 94.5t-232.5 33q-47 0 -104.5 -2t-108.5 -8z" />
<glyph unicode="E" horiz-adv-x="1069" d="M59 0l308 1446h794l-55 -105h-635l-113 -520h553l-53 -102h-520l-131 -613h684l-23 -106h-809z" />
<glyph unicode="F" horiz-adv-x="1042" d="M59 0l308 1446h804l-55 -105h-647l-111 -520h557l-51 -100h-526l-154 -721h-125z" />
<glyph unicode="G" horiz-adv-x="1382" d="M117 547q0 186 58 354t170 294t275.5 200.5t372.5 74.5q100 0 193.5 -19t163.5 -54l-47 -103q-66 33 -151 52.5t-175 19.5q-180 0 -316.5 -67.5t-228.5 -181t-138 -262t-46 -308.5q0 -106 28.5 -193.5t83 -149t134 -94t184.5 -32.5q53 0 104.5 10t97.5 25.5t85 34 t65 34.5l94 443l131 28l-114 -528q-92 -59 -216 -104.5t-272 -45.5q-131 0 -231 45.5t-168 122t-102.5 181t-34.5 223.5z" />
<glyph unicode="H" horiz-adv-x="1390" d="M59 0l308 1446h125l-134 -629h797l133 629h125l-307 -1446h-125l152 713h-797l-152 -713h-125z" />
<glyph unicode="I" horiz-adv-x="473" d="M61 0l308 1446h125l-308 -1446h-125z" />
<glyph unicode="J" horiz-adv-x="471" d="M-186 -156q74 33 122 64t80.5 71.5t52 97t37.5 140.5l263 1229h125l-265 -1245q-18 -82 -40.5 -146.5t-63.5 -119t-105.5 -99.5t-166.5 -88z" />
<glyph unicode="K" horiz-adv-x="1105" d="M59 0l308 1446h125l-130 -612l728 612h170l-781 -653l490 -793h-144l-475 778l-166 -778h-125z" />
<glyph unicode="L" horiz-adv-x="1040" d="M59 0l308 1446h125l-283 -1337h684l-25 -109h-809z" />
<glyph unicode="M" horiz-adv-x="1785" d="M31 0l422 1430l180 40l166 -1312l725 1269l194 43l-186 -1470h-119l164 1311l-737 -1295l-133 -28l-170 1323l-392 -1311h-114z" />
<glyph unicode="N" horiz-adv-x="1361" d="M55 0l305 1434l154 36l483 -1327l277 1303h112l-305 -1438l-143 -33l-487 1344l-281 -1319h-115z" />
<glyph unicode="O" horiz-adv-x="1488" d="M113 551q0 184 52 350t151.5 293t245 201.5t333.5 74.5q131 0 232.5 -47t171 -126.5t105.5 -184t36 -217.5q0 -180 -51.5 -346t-149.5 -294t-243.5 -204t-333.5 -76q-131 0 -233.5 47.5t-172.5 126t-106.5 183t-36.5 219.5zM244 549q0 -92 27.5 -177t82 -150.5 t135 -104.5t189.5 -39q158 0 276.5 73.5t197.5 190.5t119 262.5t40 290.5q0 92 -28 177t-82 151.5t-136 105.5t-188 39q-160 0 -279 -72.5t-197.5 -189.5t-117.5 -263.5t-39 -293.5z" />
<glyph unicode="P" horiz-adv-x="1146" d="M59 0l308 1448q90 6 165.5 8t149.5 2q61 0 120.5 -7t117.5 -24q53 -16 101 -42.5t84 -65.5t57.5 -91t21.5 -118q0 -111 -39 -190.5t-105.5 -134t-154.5 -88t-184.5 -51t-195.5 -25t-190 -7.5l-131 -614h-125zM336 713q74 0 155.5 5t161.5 18.5t153 40t128 68.5t88 104.5 t33 148.5q0 117 -90.5 190.5t-274.5 73.5q-47 0 -102.5 -2t-114.5 -6z" />
<glyph unicode="Q" horiz-adv-x="1488" d="M113 551q0 182 52 349t151.5 294t245 201.5t333.5 74.5q131 0 232.5 -47t171 -126.5t105.5 -184t36 -217.5q0 -152 -36 -293t-104.5 -259t-171 -204t-233.5 -129q63 -59 131 -90t168 -31q16 0 48 1t50 6l-18 -99q-25 -4 -59.5 -7t-65.5 -3q-125 0 -219 53.5t-180 139.5 q-23 -2 -44.5 -3.5t-43.5 -1.5q-131 0 -233.5 47.5t-172.5 126t-106.5 183t-36.5 219.5zM244 549q0 -92 27.5 -177t82 -150.5t135 -104.5t189.5 -39q158 0 276.5 73.5t197.5 190.5t119 262.5t40 290.5q0 92 -28 177t-82 151.5t-136 105.5t-188 39q-160 0 -279 -73.5 t-197.5 -190.5t-117.5 -263.5t-39 -291.5z" />
<glyph unicode="R" horiz-adv-x="1163" d="M59 0l308 1446q90 6 167.5 9t153.5 3q57 0 117.5 -4t116.5 -18q100 -29 170.5 -94.5t70.5 -182.5q0 -104 -36.5 -180t-100 -130t-148.5 -87t-182 -49l344 -713h-137l-330 696q-72 -8 -142.5 -10t-100.5 -2l-146 -684h-125zM350 780q70 0 146.5 4t153.5 16.5t146.5 37 t122 65.5t84 100.5t31.5 143.5q0 100 -78.5 157.5t-250.5 57.5q-23 0 -56 -1t-66.5 -3t-63.5 -3t-46 -3z" />
<glyph unicode="S" horiz-adv-x="1122" d="M29 59l51 111q72 -39 161 -63.5t189 -24.5q80 0 158 17.5t140.5 55.5t101 99t38.5 152q0 63 -25.5 107t-66.5 77t-91 57.5t-97 46.5q-63 31 -126 62.5t-113 73.5t-81.5 96.5t-31.5 132.5q0 104 43 181t115.5 128t171 76.5t208.5 25.5q106 0 202.5 -20t156.5 -49l-46 -107 q-72 33 -157.5 52.5t-171.5 19.5q-74 0 -145.5 -16.5t-128 -51t-92.5 -90t-36 -135.5q0 -53 26 -92t65.5 -69.5t90 -55.5t101.5 -49q66 -33 129 -66.5t112.5 -78t80 -103.5t30.5 -145q0 -115 -43 -198t-117.5 -136t-175 -79t-213.5 -26q-123 0 -228 21.5t-185 62.5z" />
<glyph unicode="T" horiz-adv-x="1161" d="M205 1341l55 105h1073l-55 -105h-463l-285 -1341h-124l284 1341h-485z" />
<glyph unicode="U" horiz-adv-x="1357" d="M154 346q0 43 8 103.5t20 123.5l187 873h125l-185 -873q-28 -129 -28 -209v-6q0 -133 71.5 -206.5t243.5 -73.5q121 0 204 33.5t138 97t90 156t59 206.5l185 875h121l-189 -887q-35 -160 -83 -271.5t-121.5 -181t-175 -100.5t-240.5 -31q-96 0 -176 20.5t-136.5 64.5 t-87 115t-30.5 171z" />
<glyph unicode="V" horiz-adv-x="1232" d="M242 1446h120l168 -1323l738 1323h127l-813 -1436l-150 -35z" />
<glyph unicode="W" horiz-adv-x="1888" d="M244 1446h114l74 -1321l655 1323l99 22l63 -1345l697 1321h120l-757 -1434l-162 -37l-60 1233l-591 -1194l-168 -39z" />
<glyph unicode="X" horiz-adv-x="1280" d="M-43 0l678 766l-303 680h129l262 -582l512 582h145l-608 -688l340 -758h-131l-297 659l-584 -659h-143z" />
<glyph unicode="Y" horiz-adv-x="1157" d="M260 1446h123l248 -678l557 678h139l-661 -795l-140 -651h-125l142 664z" />
<glyph unicode="Z" horiz-adv-x="1193" d="M14 0l19 84l1063 1257h-791l55 105h930l-12 -64l-1075 -1276h823l-55 -106h-957z" />
<glyph unicode="[" horiz-adv-x="823" d="M31 -426l415 1958h451l-20 -92h-328l-377 -1774h328l-19 -92h-450z" />
<glyph unicode="\" horiz-adv-x="935" d="M254 1559h106l365 -1584h-107z" />
<glyph unicode="]" horiz-adv-x="823" d="M-61 -426l20 92h328l377 1774h-328l18 92h449l-416 -1958h-448z" />
<glyph unicode="^" horiz-adv-x="980" d="M84 725l401 721h72l401 -721h-96l-340 612l-342 -612h-96z" />
<glyph unicode="_" horiz-adv-x="1024" d="M-129 -248l12 86h1049l-12 -86h-1049z" />
<glyph unicode="`" horiz-adv-x="798" d="M422 1481h162l213 -285h-105z" />
<glyph unicode="a" horiz-adv-x="1097" d="M78 391q0 127 39 248t112.5 215t181 151.5t242.5 57.5q78 0 151 -13.5t128 -39.5l125 28l-170 -802q-12 -49 -13 -99q0 -33 5.5 -70.5t15.5 -66.5l-107 -25q-20 49 -22 144q-59 -57 -138 -100.5t-190 -43.5q-86 0 -153.5 33t-113.5 90.5t-69.5 132t-23.5 160.5zM201 391 q0 -137 65.5 -226t190.5 -89q61 0 117.5 23.5t101.5 59.5t74.5 79t40.5 84l122 581q-59 29 -126.5 45.5t-139.5 16.5q-109 0 -192.5 -51.5t-140 -132.5t-85 -183t-28.5 -207z" />
<glyph unicode="b" horiz-adv-x="1124" d="M45 0l326 1530l123 29l-138 -635q98 78 181.5 108.5t169.5 30.5q168 0 254 -111.5t86 -289.5q0 -139 -41 -261t-118 -214.5t-190.5 -145.5t-257.5 -53q-80 0 -152.5 11t-125.5 30zM188 129q47 -18 109.5 -30.5t136.5 -12.5q121 0 213 45t153.5 122t93.5 179t32 219 q0 66 -13.5 123t-42 99t-73.5 67t-111 25q-98 0 -187 -52.5t-169 -119.5z" />
<glyph unicode="c" horiz-adv-x="974" d="M78 403q0 135 41 256t118.5 210t190.5 141.5t256 52.5q90 0 159.5 -16.5t135.5 -49.5l-49 -96q-47 27 -113.5 45.5t-140.5 18.5q-121 0 -210 -48.5t-147.5 -128t-88 -181t-29.5 -208.5q0 -68 17.5 -126t53 -102t88 -69.5t119.5 -25.5q78 0 159 26.5t138 61.5l47 -98 q-88 -47 -177 -69t-181 -22q-90 0 -162 33t-122 89.5t-76.5 135t-26.5 170.5z" />
<glyph unicode="d" horiz-adv-x="1134" d="M78 391q0 125 38 246t111.5 215t182 152.5t249.5 58.5q104 0 175 -37t112 -78l123 582l123 29l-279 -1301q-6 -31 -10 -59.5t-4 -61.5t4 -72.5t15 -64.5l-105 -25q-6 12 -10 33t-7 41.5t-5.5 40t0.5 29.5q-86 -78 -166 -111t-174 -33q-86 0 -156 31t-118 86t-73.5 131 t-25.5 168zM201 391q0 -68 16 -125t49 -100t84 -66.5t119 -23.5q63 0 121.5 21.5t104.5 57t77 80t41 89.5l109 518q-47 55 -112 89t-157 34q-115 0 -199.5 -53.5t-141 -136.5t-84 -185.5t-27.5 -198.5z" />
<glyph unicode="e" horiz-adv-x="1030" d="M78 389q0 135 39 257t112.5 215t180 147.5t241.5 54.5q84 0 143.5 -26.5t98.5 -69.5t56.5 -97.5t17.5 -111.5q0 -55 -8.5 -120t-20.5 -118h-727q-6 -35 -8 -71.5t-2 -57.5q0 -59 16 -116.5t51 -102.5t89.5 -71.5t131.5 -26.5q33 0 73 8t79 20.5t74 28.5t61 33l47 -98 q-86 -47 -174 -69t-180 -22q-98 0 -172 35t-122 93.5t-72.5 133t-24.5 152.5zM231 614h609q6 33 9 71t3 65q0 90 -53.5 152.5t-165.5 62.5q-133 0 -241.5 -90.5t-160.5 -260.5z" />
<glyph unicode="f" horiz-adv-x="634" d="M68 -279l260 1223h-178l49 94h149l27 131q45 207 138 298.5t251 91.5q47 0 87 -6.5t85 -18.5l-45 -94q-35 10 -67.5 16t-71.5 6q-53 0 -95.5 -16t-74 -54t-55 -98.5t-42.5 -148.5l-22 -107h248l-49 -94h-220l-254 -1194z" />
<glyph unicode="g" horiz-adv-x="1122" d="M-18 -373l12 109q78 -41 166 -64.5t190 -23.5q156 0 255.5 103.5t137.5 287.5l17 72q-68 -57 -139.5 -90t-176.5 -33q-92 0 -161.5 32.5t-116.5 89t-70.5 131t-23.5 158.5q0 125 39 245t113.5 213t185 149.5t252.5 56.5q88 0 157.5 -13.5t126.5 -39.5l127 28l-209 -975 q-55 -266 -184 -390t-336 -124q-92 0 -190.5 21.5t-171.5 56.5zM195 399q0 -68 16 -124t50 -98t84 -65.5t118 -23.5q94 0 168 42t121 97q43 49 55 105l123 571q-59 29 -129 45.5t-150 16.5q-115 0 -199.5 -50.5t-142 -131.5t-86 -182t-28.5 -202z" />
<glyph unicode="h" horiz-adv-x="1124" d="M41 0l326 1530l120 29l-141 -672q82 72 180.5 124t214.5 52q152 0 218.5 -69.5t66.5 -180.5q0 -31 -5 -76t-15 -86l-140 -651h-114l139 653q10 45 15 86t5 64q0 162 -186 162q-53 0 -110.5 -20.5t-113 -53.5t-103.5 -72t-85 -78l-157 -741h-115z" />
<glyph unicode="i" horiz-adv-x="432" d="M47 0l221 1034l121 29l-225 -1063h-117zM305 1305q0 33 23.5 55t56.5 22t54.5 -22t21.5 -55t-22.5 -55.5t-55.5 -22.5q-31 0 -54.5 22.5t-23.5 55.5z" />
<glyph unicode="j" horiz-adv-x="432" d="M-193 -358q55 27 93.5 53t65 65t45 95.5t36.5 142.5l221 1036l121 29l-229 -1079q-18 -84 -40 -148.5t-56.5 -115t-87 -89.5t-130.5 -73zM305 1305q0 33 23.5 55t56.5 22t54.5 -22t21.5 -55t-22.5 -55.5t-55.5 -22.5q-31 0 -54.5 22.5t-23.5 55.5z" />
<glyph unicode="k" horiz-adv-x="958" d="M41 0l326 1530l120 29l-198 -938l557 417h170l-604 -446l389 -592h-135l-383 590l-127 -590h-115z" />
<glyph unicode="l" horiz-adv-x="432" d="M47 0l326 1530l123 29l-332 -1559h-117z" />
<glyph unicode="m" horiz-adv-x="1753" d="M41 0l221 1036l119 27l-37 -176q33 31 76 62.5t92 57t103.5 41t109.5 15.5q123 0 186.5 -58.5t73.5 -148.5q37 41 85 79t101.5 66.5t109.5 45t114 16.5q72 0 122 -20.5t80.5 -54.5t45 -79t14.5 -96q0 -29 -6 -76t-15 -86l-139 -651h-117l140 655q12 53 16 90t4 58 q0 66 -36 114t-128 48q-53 0 -119.5 -27t-127 -70t-106.5 -98t-58 -113l-140 -657h-114l141 657q8 41 13 82t5 64q0 66 -35.5 114t-127.5 48q-51 0 -117 -26t-127.5 -69t-108.5 -98t-59 -115l-139 -657h-115z" />
<glyph unicode="n" horiz-adv-x="1124" d="M41 0l221 1036l119 27l-37 -176q78 68 177.5 122t219.5 54q145 0 215 -66.5t70 -183.5q0 -29 -6 -76t-14 -86l-140 -651h-114l139 653q10 53 15 91t5 59q0 162 -186 162q-51 0 -119.5 -25t-133 -65.5t-114 -97t-63.5 -120.5l-139 -657h-115z" />
<glyph unicode="o" horiz-adv-x="1095" d="M78 395q0 125 32.5 245t100.5 214t172 151.5t248 57.5q88 0 158.5 -31t121 -87t78 -133t27.5 -169q0 -127 -34 -248t-102.5 -214t-172 -149.5t-242.5 -56.5q-90 0 -162 32t-122 88.5t-76.5 133t-26.5 166.5zM201 395q0 -68 18.5 -127t54 -102t87 -67.5t118.5 -24.5 q106 0 185 51t130.5 133t76 183.5t24.5 199.5q0 70 -18.5 129t-54.5 102t-87 68t-119 25q-109 0 -187.5 -52.5t-128.5 -134.5t-74.5 -183t-24.5 -200z" />
<glyph unicode="p" horiz-adv-x="1132" d="M-43 -451l268 1266q6 29 8.5 59.5t2.5 59.5q0 23 -3.5 52.5t-11.5 51.5l107 25q8 -23 13 -50.5t5 -56.5q0 -10 1 -17t-1 -17q57 53 145.5 97t192.5 44q92 0 160.5 -33t116 -89t71 -133t23.5 -163q0 -133 -38 -254t-113 -213t-184.5 -147.5t-252.5 -55.5q-88 0 -164 36 t-115 89l-110 -522zM233 268q0 -49 19.5 -85t53.5 -60.5t79 -36.5t94 -12q115 0 201 50t142.5 131t84 183.5t27.5 206.5q0 141 -67.5 229.5t-196.5 88.5q-96 0 -181.5 -49.5t-150.5 -114.5l-98 -463q-4 -14 -5.5 -32.5t-1.5 -35.5z" />
<glyph unicode="q" horiz-adv-x="1126" d="M78 391q0 127 39 248t112.5 215t182 151.5t250.5 57.5q170 0 290 -53l125 28l-311 -1460l-121 -29l119 551q-49 -45 -124 -85t-191 -40q-92 0 -162 34t-116 90.5t-69.5 132t-23.5 159.5zM201 391q0 -135 66.5 -225t199.5 -90q66 0 124 23.5t104 60.5t76 82t40 88l123 573 q-66 33 -135.5 47.5t-147.5 14.5q-115 0 -198.5 -51.5t-140 -133.5t-84 -184t-27.5 -205z" />
<glyph unicode="r" horiz-adv-x="679" d="M41 0l221 1036l115 27l-47 -213q76 92 162 152.5t210 60.5q35 0 64 -6l-41 -105q-16 4 -27.5 5t-27.5 1q-43 0 -88 -17t-88 -48t-81 -74t-69 -92q-51 -84 -70 -174l-118 -553h-115z" />
<glyph unicode="s" horiz-adv-x="905" d="M18 43l45 96q59 -29 130 -48t155 -19q53 0 107.5 10t97.5 34.5t69.5 66.5t26.5 108q0 72 -58.5 118t-160.5 91q-53 25 -100 51.5t-82 58t-54.5 70.5t-19.5 86q0 82 34 138.5t89 91t129 51t154 16.5q76 0 151.5 -17.5t126.5 -46.5l-47 -94q-51 29 -118.5 46.5t-127.5 17.5 q-57 0 -107 -10.5t-88 -34t-60.5 -59.5t-22.5 -85q0 -57 47 -96t151 -84q55 -25 106.5 -53.5t89.5 -63t60.5 -79t22.5 -101.5q0 -92 -36 -155.5t-95.5 -101.5t-136 -54.5t-158.5 -16.5t-168 16.5t-152 51.5z" />
<glyph unicode="t" horiz-adv-x="710" d="M145 944l48 94h169l58 273l121 26l-64 -299h264l-49 -94h-235l-146 -688q-6 -29 -11 -59.5t-5 -46.5q0 -45 25.5 -61.5t66.5 -16.5q35 0 80 11t80 26l24 -91q-47 -18 -107.5 -30.5t-105.5 -12.5q-80 0 -129 39t-49 131q0 25 6.5 63t12.5 66l143 670h-197z" />
<glyph unicode="u" horiz-adv-x="1136" d="M92 225q0 29 7 78t16 84l137 647l121 29l-144 -678q-12 -55 -16 -92t-4 -57q0 -86 48 -124t140 -38q51 0 119 24.5t132.5 66.5t113.5 97t61 119l140 653l120 29l-170 -803q-8 -35 -12 -64.5t-4 -56.5q0 -33 4 -70.5t14 -68.5l-104 -25q-29 66 -29 179 q-72 -70 -173 -124.5t-230 -54.5q-143 0 -215 67t-72 183z" />
<glyph unicode="v" horiz-adv-x="985" d="M158 1038h116l138 -915l530 915h119l-610 -1034l-123 -29z" />
<glyph unicode="w" horiz-adv-x="1544" d="M158 1038h112l103 -901l438 834l115 26l71 -864l512 905h117l-586 -1034l-129 -29l-69 850l-439 -823l-116 -27z" />
<glyph unicode="x" horiz-adv-x="995" d="M-63 0l503 539l-241 499h123l198 -415l387 415h135l-475 -508l258 -530h-125l-215 446l-415 -446h-133z" />
<glyph unicode="y" horiz-adv-x="968" d="M-111 -365q57 27 111.5 61t110 84t114 120.5t123.5 173.5l-186 964h119l151 -825l504 825h121l-621 -1005q-68 -111 -133 -191t-127.5 -136t-123 -93t-120.5 -62z" />
<glyph unicode="z" horiz-adv-x="851" d="M-41 0l21 90l763 852h-561l51 96h691l-13 -61l-788 -877h635l-53 -100h-746z" />
<glyph unicode="{" horiz-adv-x="591" d="M31 -186q0 82 28.5 153.5t64.5 139t64.5 138t28.5 154.5q0 86 -53 154q80 66 117.5 156t37.5 190q0 51 -8 100.5t-8 104.5q0 145 71.5 259t186.5 196h131q-129 -98 -195.5 -203t-66.5 -242q0 -55 9.5 -105.5t9.5 -103.5q0 -102 -40 -194.5t-120 -157.5q51 -63 51 -158 q0 -92 -29.5 -163.5t-65.5 -138t-65.5 -133t-29.5 -148.5q0 -143 102 -265h-111q-49 53 -79.5 123t-30.5 144z" />
<glyph unicode="|" horiz-adv-x="458" d="M211 -512v2048h108v-2048h-108z" />
<glyph unicode="}" horiz-adv-x="591" d="M-84 -453q129 98 195.5 203t66.5 244q0 53 -9 103t-9 104q0 102 40 194t117 158q-51 68 -51 158q0 92 30 163.5t66.5 138t66.5 134t30 149.5q0 143 -105 263h113q47 -53 79 -123t32 -142q0 -84 -29 -154.5t-64.5 -139t-64.5 -139t-29 -154.5t51 -154q-78 -66 -115.5 -156 t-37.5 -190q0 -51 8 -100.5t8 -104.5q0 -145 -71.5 -258t-188.5 -197h-129z" />
<glyph unicode="~" horiz-adv-x="1019" d="M70 623v114q53 59 119.5 81t125.5 22q68 0 128.5 -19.5t113.5 -42.5q55 -25 106.5 -45t104.5 -20q39 0 74 12t63.5 29.5t52 37t37.5 33.5v-114q-41 -37 -96 -69t-145 -32q-61 0 -120 20.5t-112 43.5q-55 25 -108.5 44t-112.5 19q-78 0 -134 -36.5t-97 -77.5z" />
<glyph unicode="&#xa1;" horiz-adv-x="464" d="M-29 -408l226 1061l122 29l-227 -1061zM233 977q0 35 27 60.5t62 25.5t59.5 -25.5t24.5 -60.5q0 -37 -25 -61.5t-59 -24.5q-41 0 -65 25.5t-24 60.5z" />
<glyph unicode="&#xa2;" horiz-adv-x="974" d="M78 403q0 135 41 256t118.5 210t190.5 141.5t256 52.5h33.5t34.5 -2l100 229h100l-108 -243q37 -10 69.5 -21.5t65.5 -28.5l-49 -96q-27 14 -59.5 26.5t-69.5 20.5l-381 -868q14 -4 28.5 -4h30.5q78 0 159 26.5t138 61.5l47 -98q-88 -47 -177 -69t-181 -22q-49 0 -88 9 l-101 -232h-100l115 260q-102 49 -157.5 152.5t-55.5 238.5zM201 399q0 -92 33.5 -167.5t101.5 -116.5l373 848q-10 2 -21.5 2h-21.5q-117 -2 -205 -51.5t-145.5 -128t-86 -180t-28.5 -206.5z" />
<glyph unicode="&#xa3;" d="M63 0l23 98q98 16 176 84t117 191q23 72 31 152.5t8 158.5h-230l52 98h178q-2 43 -10.5 103.5t-8.5 111.5q0 221 126 347t378 126q78 0 154 -14t160 -49l-43 -98q-53 25 -132 43t-153 18q-104 0 -175 -27.5t-114 -76.5t-62.5 -117t-19.5 -148q0 -47 8.5 -109.5 t10.5 -109.5h378l-51 -98h-325q0 -55 -3.5 -109.5t-13.5 -105.5q-23 -117 -73 -207t-144 -156h682l-55 -106h-869z" />
<glyph unicode="&#xa4;" d="M123 315l184 185q-39 51 -57.5 109.5t-18.5 117.5t18.5 117.5t57.5 109.5l-184 185l74 75l184 -184q102 76 227 76q59 0 117.5 -18.5t112.5 -57.5l184 184l74 -75l-185 -185q76 -102 76 -227t-76 -227l185 -185l-74 -75l-184 184q-53 -39 -111.5 -56.5t-118.5 -17.5 q-59 0 -116.5 17.5t-110.5 56.5l-184 -184zM340 727q0 -55 20.5 -104.5t56.5 -86t85 -58t106 -21.5t106.5 20.5t86.5 57t58.5 86t21.5 106.5q0 53 -19.5 101.5t-60.5 89.5t-90 61t-103 20q-57 0 -106 -21.5t-85 -58t-56.5 -87t-20.5 -105.5z" />
<glyph unicode="&#xa5;" d="M160 332l18 92h316l32 158h-313l20 92h310l-267 772h123l234 -678l545 678h137l-631 -772h309l-20 -92h-320l-35 -158h320l-18 -92h-320l-70 -332h-127l70 332h-313z" />
<glyph unicode="&#xa6;" horiz-adv-x="458" d="M211 -358v716h108v-716h-108zM211 666v716h108v-716h-108z" />
<glyph unicode="&#xa7;" horiz-adv-x="1011" d="M-14 -229l45 96q59 -27 126.5 -48.5t153.5 -21.5q59 0 123 12.5t115 42t84 77.5t33 120q0 39 -19.5 70t-57.5 59.5t-96.5 58t-134.5 66.5q-125 61 -182 121.5t-57 155.5q0 111 68.5 192.5t179.5 122.5q-61 41 -94 97.5t-33 144.5q0 80 33.5 141t94 104t144.5 65.5 t186 22.5q90 0 180.5 -16t157.5 -49l-41 -96q-59 29 -138 47t-165 18q-66 0 -126 -13t-106 -42t-74 -72t-28 -104q0 -45 17.5 -79t54.5 -63.5t92.5 -59.5t130.5 -67q125 -61 189.5 -124.5t64.5 -159.5q0 -113 -67.5 -188.5t-184.5 -122.5q53 -31 92 -86.5t39 -135.5 q0 -100 -45 -168.5t-114.5 -110.5t-155.5 -60.5t-166 -18.5q-88 0 -173 21.5t-146 50.5zM236 592q0 -63 50 -104.5t134 -81.5l147 -74q102 45 161.5 97.5t59.5 148.5q0 63 -55 106t-153 94l-123 62q-100 -41 -160.5 -96.5t-60.5 -151.5z" />
<glyph unicode="&#xa8;" horiz-adv-x="798" d="M375 1303q0 33 22.5 55t55.5 22t55 -22t22 -55t-22.5 -55.5t-54.5 -22.5q-33 0 -55.5 22.5t-22.5 55.5zM770 1303q0 33 22.5 55t55.5 22t54.5 -22t21.5 -55t-21.5 -55.5t-54.5 -22.5t-55.5 22.5t-22.5 55.5z" />
<glyph unicode="&#xa9;" horiz-adv-x="1687" d="M129 713q0 156 59.5 294t163 241.5t240.5 162.5t295 59q156 0 294 -59t241.5 -162.5t163 -241.5t59.5 -294q0 -158 -59.5 -295t-163 -240.5t-242 -163t-293.5 -59.5q-158 0 -295 59.5t-240.5 163t-163 240.5t-59.5 295zM229 713q0 -135 52.5 -255t141.5 -209t209 -141.5 t255 -52.5t255 52.5t209 141.5t141 209t52 255t-52 254.5t-141 209t-209 141.5t-255 52t-255 -52t-209 -141.5t-141.5 -209t-52.5 -254.5zM522 690q0 115 31 198t86 136t130 78.5t163 25.5q53 0 113.5 -13t121.5 -44l-41 -88q-59 29 -110 39t-92 10q-63 0 -116.5 -18.5 t-92.5 -57t-60.5 -102t-21.5 -152.5q0 -162 72.5 -240.5t205.5 -78.5q49 0 101.5 15.5t120.5 56.5l49 -82q-76 -47 -141.5 -65.5t-137.5 -18.5q-96 0 -166.5 30.5t-119 85t-72 127t-23.5 158.5z" />
<glyph unicode="&#xaa;" horiz-adv-x="735" d="M168 1051q0 78 25.5 153.5t74.5 135t121 95t164 35.5q51 0 98 -7t84 -23l94 20l-114 -506q-8 -27 -8 -59q0 -23 3 -45.5t13 -46.5l-88 -19q-8 16 -11 37t-6 43q-39 -31 -89 -54.5t-115 -23.5q-59 0 -105.5 21.5t-77 57.5t-47 84t-16.5 102zM266 1049q0 -82 41 -132.5 t117 -50.5q51 0 90 20.5t66.5 54.5t46 77t28.5 88l56 252q-76 33 -164 33q-68 0 -120 -30t-88 -78t-54.5 -109.5t-18.5 -124.5z" />
<glyph unicode="&#xab;" horiz-adv-x="1202" d="M25 518l581 520h156l-598 -528l371 -510h-134zM477 518l582 520h155l-598 -528l371 -510h-133z" />
<glyph unicode="&#xac;" horiz-adv-x="987" d="M113 854v96h848v-452h-97v356h-751z" />
<glyph unicode="&#xad;" horiz-adv-x="729" d="M90 461l25 117h524l-25 -117h-524z" />
<glyph unicode="&#xae;" horiz-adv-x="1687" d="M129 713q0 156 59.5 294t163 241.5t240.5 162.5t295 59q156 0 294 -59t241.5 -162.5t163 -241.5t59.5 -294q0 -158 -59.5 -295t-163 -240.5t-242 -163t-293.5 -59.5q-158 0 -295 59.5t-240.5 163t-163 240.5t-59.5 295zM229 713q0 -135 52.5 -255t141.5 -209t209 -141.5 t255 -52.5t255 52.5t209 141.5t141 209t52 255t-52 254.5t-141 209t-209 141.5t-255 52t-255 -52t-209 -141.5t-141.5 -209t-52.5 -254.5zM618 295v811q51 4 104.5 7t108.5 3q51 0 108.5 -6t106 -26.5t79 -60.5t30.5 -108q0 -96 -57.5 -150t-139.5 -81l259 -389h-121 l-240 369q-25 -4 -65.5 -6.5t-69.5 -2.5v-360h-103zM721 739q53 2 111.5 8.5t107.5 23.5t81 50t32 88q0 39 -18.5 62.5t-50.5 37t-74 17.5t-87 4q-31 0 -55.5 -1t-46.5 -3v-287z" />
<glyph unicode="&#xaf;" horiz-adv-x="798" d="M295 1288l20 101h701l-21 -101h-700z" />
<glyph unicode="&#xb0;" horiz-adv-x="821" d="M231 1198q0 57 21.5 106.5t58.5 86t87.5 58t107.5 21.5t106.5 -21.5t86 -58t58 -86t21.5 -106.5t-21.5 -107.5t-58 -87t-86 -58t-106.5 -21.5t-107.5 21.5t-87.5 58t-58.5 87t-21.5 107.5zM330 1198q0 -37 14 -68.5t38 -55t55.5 -38t68.5 -14.5t68.5 14.5t56 38t38 55 t13.5 68.5q0 72 -51 123t-125 51q-37 0 -68.5 -13t-55.5 -37t-38 -55.5t-14 -68.5z" />
<glyph unicode="&#xb1;" horiz-adv-x="987" d="M113 18v103h848v-103h-848zM113 678v100h372v369h103v-369h373v-100h-373v-369h-103v369h-372z" />
<glyph unicode="&#xb2;" horiz-adv-x="864" d="M152 700l12 52q2 0 10 6t19.5 14t19.5 14.5t10 8.5q135 100 233.5 170.5t164.5 128.5q72 59 110.5 106t38.5 105q0 37 -35 62.5t-112 25.5q-59 0 -129 -22.5t-132 -55.5l-34 71q72 41 149.5 62.5t155.5 21.5q111 0 175 -42.5t64 -120.5t-53 -140.5t-131 -128.5 q-53 -45 -124.5 -99t-170.5 -122l-49 -37h428l-18 -80h-602z" />
<glyph unicode="&#xb3;" horiz-adv-x="864" d="M156 727l30 78q49 -16 111.5 -27.5t112.5 -11.5q125 0 203.5 48t78.5 132q0 61 -58.5 86t-168.5 25h-119l39 76h109q47 0 92 11t80.5 31.5t58.5 50t23 68.5t-36 68t-118 29q-53 0 -114.5 -13.5t-131.5 -44.5l-31 72q76 35 149 50t138 15q117 0 180.5 -47.5t63.5 -119.5 q0 -76 -51.5 -127.5t-132.5 -77.5q57 -18 95 -52t38 -94q0 -68 -33 -118t-88 -82.5t-126 -49t-147 -16.5q-59 0 -128.5 12.5t-118.5 28.5z" />
<glyph unicode="&#xb4;" horiz-adv-x="798" d="M459 1196l329 285h179l-387 -285h-121z" />
<glyph unicode="&#xb5;" horiz-adv-x="1155" d="M-43 -451l315 1485l121 29l-143 -680q-10 -41 -15.5 -79t-5.5 -66q0 -90 47.5 -127t141.5 -37q53 0 121.5 24.5t131 67.5t111.5 98t62 117l139 653l121 29l-176 -827q-8 -35 -9 -62t-1 -57q0 -29 6 -64t12 -53l-105 -25q-16 41 -22 79t-6 98q-86 -78 -188.5 -127.5 t-227.5 -49.5q-72 0 -125 24t-82 58l-102 -479z" />
<glyph unicode="&#xb6;" d="M121 1024q0 137 58.5 231.5t162.5 141.5q61 29 123.5 39t128.5 10h543v-119h-144v-1737h-123v1737h-223v-1737h-123v1026q-104 6 -180 42t-125 91.5t-73.5 126t-24.5 148.5z" />
<glyph unicode="&#xb7;" horiz-adv-x="471" d="M188 723q0 39 26 64.5t65 25.5q37 0 63.5 -25.5t26.5 -62.5q0 -39 -27 -64.5t-63 -25.5q-39 0 -65 25.5t-26 62.5z" />
<glyph unicode="&#xb8;" horiz-adv-x="798" d="M115 -424l24 82q31 -10 75 -18.5t89 -8.5q29 0 57.5 5.5t51 17.5t37 33.5t14.5 52.5q0 47 -52.5 68.5t-129.5 21.5l75 182h93l-48 -116q63 -10 116.5 -46t53.5 -108q0 -51 -22.5 -88t-60 -60.5t-89 -35t-106.5 -11.5q-47 0 -95 8.5t-83 20.5z" />
<glyph unicode="&#xb9;" horiz-adv-x="864" d="M342 1313l6 84l246 73h68l-164 -772h-99l146 676z" />
<glyph unicode="&#xba;" horiz-adv-x="714" d="M168 1051q0 78 21.5 152.5t66.5 134t114.5 96t166.5 36.5q121 0 191.5 -74.5t70.5 -191.5q0 -80 -22.5 -154.5t-68.5 -133t-115 -94.5t-163 -36q-123 0 -192.5 76t-69.5 189zM266 1053q0 -80 45 -134.5t127 -54.5q68 0 118 31t82 79t48 108.5t16 119.5q0 84 -46 136.5 t-128 52.5q-68 0 -117 -31t-81.5 -79t-48 -108.5t-15.5 -119.5z" />
<glyph unicode="&#xbb;" horiz-adv-x="1202" d="M-23 0l598 528l-370 510h133l377 -518l-582 -520h-156zM430 0l598 528l-371 510h134l376 -518l-581 -520h-156z" />
<glyph unicode="&#xbc;" horiz-adv-x="1851" d="M254 -25l1159 1495h111l-1159 -1495h-111zM383 1313l6 84l246 73h67l-163 -772h-99l146 676zM897 197l16 79l541 496h82l-104 -496h147l-18 -79h-148l-41 -197h-96l41 197h-420zM1024 276h311l74 355z" />
<glyph unicode="&#xbd;" horiz-adv-x="1851" d="M162 -25l1159 1495h111l-1160 -1495h-110zM291 1313l6 84l246 73h67l-164 -772h-98l146 676zM891 0l10 51q2 0 10.5 6t19.5 14.5t19 14.5t11 8q135 100 233 171t166 128q70 59 108.5 106.5t38.5 104.5q0 37 -34.5 62.5t-110.5 25.5q-59 0 -130 -22.5t-130 -55.5l-35 74 q72 39 148.5 60.5t154.5 21.5q113 0 177.5 -42t64.5 -120t-53.5 -141.5t-131.5 -128.5q-53 -45 -124.5 -98.5t-169.5 -122.5l-52 -37h428l-16 -80h-602z" />
<glyph unicode="&#xbe;" horiz-adv-x="1851" d="M233 727l33 78q47 -16 109.5 -27.5t111.5 -11.5q125 0 204 48t79 132q0 61 -58.5 86t-168.5 25h-119l39 76h108q47 0 92.5 11t81 31.5t58 50t22.5 68.5t-34.5 68t-118.5 29q-53 0 -114.5 -13.5t-131.5 -44.5l-31 72q76 35 148.5 50t138.5 15q117 0 180.5 -47.5 t63.5 -119.5q0 -76 -51.5 -127.5t-133.5 -77.5q59 -18 96 -52t37 -94q0 -68 -32.5 -118t-88 -82.5t-126 -49t-146.5 -16.5q-59 0 -128.5 12.5t-119.5 28.5zM365 -25l1159 1495h110l-1159 -1495h-110zM1006 197l16 79l541 496h82l-105 -496h148l-19 -79h-147l-41 -197h-97 l41 197h-419zM1133 276h311l74 355z" />
<glyph unicode="&#xbf;" horiz-adv-x="882" d="M-70 -100q0 119 42 210t117 154.5t177.5 99t222.5 46.5l52 237l118 29l-77 -371h-52q-96 0 -183 -24.5t-153.5 -73.5t-106.5 -124t-40 -175q0 -104 66.5 -168t195.5 -64q84 0 166 30t146 65l41 -93q-68 -37 -162 -69.5t-205 -32.5q-82 0 -148.5 22.5t-114.5 64.5 t-75 102.5t-27 134.5zM557 973q0 37 26.5 63.5t63.5 26.5t63.5 -26.5t26.5 -63.5t-26.5 -63.5t-63.5 -26.5t-63.5 26.5t-26.5 63.5z" />
<glyph unicode="&#xc0;" horiz-adv-x="1239" d="M-78 0l856 1450l92 20l226 -1470h-121l-80 518h-541l-303 -518h-129zM416 618h463l-95 633zM578 1831h161l213 -285h-104z" />
<glyph unicode="&#xc1;" horiz-adv-x="1239" d="M-78 0l856 1450l92 20l226 -1470h-121l-80 518h-541l-303 -518h-129zM416 618h463l-95 633zM664 1546l329 285h178l-387 -285h-120z" />
<glyph unicode="&#xc2;" horiz-adv-x="1239" d="M-78 0l856 1450l92 20l226 -1470h-121l-80 518h-541l-303 -518h-129zM416 618h463l-95 633zM442 1546l340 285h158l217 -285h-113l-192 213l-285 -213h-125z" />
<glyph unicode="&#xc3;" horiz-adv-x="1239" d="M-78 0l856 1450l92 20l226 -1470h-121l-80 518h-541l-303 -518h-129zM416 618h463l-95 633zM446 1546q12 66 37 111t56.5 72.5t68.5 39t74 11.5q55 0 93 -23.5t69 -52.5t59.5 -50.5t65.5 -21.5q47 0 81.5 34t51.5 110h92q-16 -72 -42 -117t-58 -72q-33 -25 -67 -35 t-64 -10q-59 0 -97.5 24.5t-70.5 53.5q-29 29 -58.5 50.5t-70.5 21.5q-47 0 -79 -38t-48 -108h-93z" />
<glyph unicode="&#xc4;" horiz-adv-x="1239" d="M-78 0l856 1450l92 20l226 -1470h-121l-80 518h-541l-303 -518h-129zM416 618h463l-95 633zM543 1653q0 33 22.5 55.5t55.5 22.5t55 -22.5t22 -55.5t-22.5 -55.5t-54.5 -22.5q-33 0 -55.5 22.5t-22.5 55.5zM938 1653q0 33 22.5 55.5t55.5 22.5t55.5 -22.5t22.5 -55.5 t-22.5 -55.5t-55.5 -22.5t-55.5 22.5t-22.5 55.5z" />
<glyph unicode="&#xc5;" horiz-adv-x="1239" d="M-78 0l856 1450l92 20l226 -1470h-121l-80 518h-541l-303 -518h-129zM416 618h463l-95 633zM621 1747q0 43 16 82t46 68.5t69 46t84 16.5t85 -16.5t69.5 -46t47 -68.5t17.5 -82q0 -45 -17.5 -84t-47 -68.5t-69.5 -46t-85 -16.5t-84 16.5t-69 46t-46 68.5t-16 84z M705 1747q0 -53 37.5 -92t93.5 -39q55 0 95 39t40 92t-40 92t-95 39t-93 -39t-38 -92z" />
<glyph unicode="&#xc6;" horiz-adv-x="1746" d="M-88 0l1112 1446h813l-53 -105h-637l-113 -520h553l-53 -102h-520l-129 -613h684l-25 -106h-809l101 473h-420l-365 -473h-139zM494 575h364l137 656z" />
<glyph unicode="&#xc7;" horiz-adv-x="1273" d="M117 549q0 178 57 344t166 294t268.5 205.5t366.5 77.5q96 0 193.5 -18t166.5 -55l-47 -103q-70 35 -153.5 53.5t-176.5 18.5q-182 0 -316 -72.5t-221 -188.5t-130 -262.5t-43 -293.5q0 -100 25.5 -186.5t76.5 -148.5t128 -97t179 -35q94 0 200 31.5t202 87.5l47 -101 q-100 -57 -225 -92t-246 -35l-31 -77q63 -10 115.5 -46t52.5 -108q0 -51 -22.5 -88t-60.5 -60.5t-88 -35t-105 -11.5q-47 0 -95.5 8.5t-83.5 20.5l23 82q31 -10 76 -18.5t88 -8.5q31 0 59.5 5.5t51 17.5t37 33.5t14.5 52.5q0 47 -52.5 68.5t-130.5 21.5l62 152 q-106 16 -186 67t-134.5 128t-81 172t-26.5 200z" />
<glyph unicode="&#xc8;" horiz-adv-x="1069" d="M59 0l308 1446h794l-55 -105h-635l-113 -520h553l-53 -102h-520l-131 -613h684l-23 -106h-809zM512 1831h162l215 -285h-105z" />
<glyph unicode="&#xc9;" horiz-adv-x="1075" d="M59 0l308 1446h794l-55 -105h-635l-113 -520h553l-53 -102h-520l-131 -613h684l-23 -106h-809zM608 1546l332 285h176l-387 -285h-121z" />
<glyph unicode="&#xca;" horiz-adv-x="1069" d="M59 0l308 1446h794l-55 -105h-635l-113 -520h553l-53 -102h-520l-131 -613h684l-23 -106h-809zM406 1546l339 285h158l217 -285h-112l-193 213l-285 -213h-124z" />
<glyph unicode="&#xcb;" horiz-adv-x="1069" d="M59 0l308 1446h794l-55 -105h-635l-113 -520h553l-53 -102h-520l-131 -613h684l-23 -106h-809zM504 1655q0 33 22.5 55.5t55.5 22.5t55 -22.5t22 -55.5t-22.5 -55.5t-54.5 -22.5q-33 0 -55.5 22.5t-22.5 55.5zM899 1655q0 33 22.5 55.5t55.5 22.5t55.5 -22.5t22.5 -55.5 t-22.5 -55.5t-55.5 -22.5t-55.5 22.5t-22.5 55.5z" />
<glyph unicode="&#xcc;" horiz-adv-x="473" d="M61 0l308 1446h125l-308 -1446h-125zM193 1831h161l213 -285h-104z" />
<glyph unicode="&#xcd;" horiz-adv-x="473" d="M61 0l308 1446h125l-308 -1446h-125zM289 1546l332 285h176l-387 -285h-121z" />
<glyph unicode="&#xce;" horiz-adv-x="473" d="M61 0l308 1446h125l-308 -1446h-125zM63 1546l340 285h156l217 -285h-110l-193 213l-285 -213h-125z" />
<glyph unicode="&#xcf;" horiz-adv-x="473" d="M61 0l308 1446h125l-308 -1446h-125zM174 1655q0 33 22.5 55.5t55.5 22.5t55.5 -22.5t22.5 -55.5t-22.5 -55.5t-55.5 -22.5t-55.5 22.5t-22.5 55.5zM569 1655q0 33 22.5 55.5t55.5 22.5t55.5 -22.5t22.5 -55.5t-22.5 -55.5t-55.5 -22.5t-55.5 22.5t-22.5 55.5z" />
<glyph unicode="&#xd0;" horiz-adv-x="1376" d="M37 702l20 105h172l138 639q35 2 76.5 5t86.5 4t89.5 2t82.5 1q178 0 299 -47t195 -126t104.5 -180t30.5 -210q0 -227 -70.5 -397t-200.5 -284t-313.5 -170t-408.5 -56q-51 0 -129 3t-150 9l150 702h-172zM205 100q45 -4 86 -6t82 -2q166 0 316.5 47t264 145.5t181 249 t67.5 357.5q0 106 -30.5 192t-94 147.5t-161 94.5t-232.5 33q-47 0 -103.5 -2t-109.5 -8l-117 -541h434l-20 -105h-434z" />
<glyph unicode="&#xd1;" horiz-adv-x="1361" d="M55 0l305 1434l154 36l483 -1327l277 1303h112l-305 -1438l-143 -33l-487 1344l-281 -1319h-115zM522 1546q12 66 37 111t56.5 72.5t68.5 39t74 11.5q55 0 93 -23.5t71 -52.5q31 -29 59.5 -50.5t65.5 -21.5q47 0 80.5 34t50.5 110h94q-16 -72 -42 -117t-61 -72 q-31 -25 -64.5 -35t-64.5 -10q-59 0 -98 24.5t-70 53.5t-59.5 50.5t-69.5 21.5q-47 0 -79.5 -38t-47.5 -108h-94z" />
<glyph unicode="&#xd2;" horiz-adv-x="1488" d="M113 551q0 184 52 350t151.5 293t245 201.5t333.5 74.5q131 0 232.5 -47t171 -126.5t105.5 -184t36 -217.5q0 -180 -51.5 -346t-149.5 -294t-243.5 -204t-333.5 -76q-131 0 -233.5 47.5t-172.5 126t-106.5 183t-36.5 219.5zM244 549q0 -92 27.5 -177t82 -150.5 t135 -104.5t189.5 -39q158 0 276.5 73.5t197.5 190.5t119 262.5t40 290.5q0 92 -28 177t-82 151.5t-136 105.5t-188 39q-160 0 -279 -72.5t-197.5 -189.5t-117.5 -263.5t-39 -293.5zM678 1831h162l213 -285h-105z" />
<glyph unicode="&#xd3;" horiz-adv-x="1488" d="M113 551q0 184 52 350t151.5 293t245 201.5t333.5 74.5q131 0 232.5 -47t171 -126.5t105.5 -184t36 -217.5q0 -180 -51.5 -346t-149.5 -294t-243.5 -204t-333.5 -76q-131 0 -233.5 47.5t-172.5 126t-106.5 183t-36.5 219.5zM244 549q0 -92 27.5 -177t82 -150.5 t135 -104.5t189.5 -39q158 0 276.5 73.5t197.5 190.5t119 262.5t40 290.5q0 92 -28 177t-82 151.5t-136 105.5t-188 39q-160 0 -279 -72.5t-197.5 -189.5t-117.5 -263.5t-39 -293.5zM750 1546l329 285h178l-389 -285h-118z" />
<glyph unicode="&#xd4;" horiz-adv-x="1488" d="M113 551q0 184 52 350t151.5 293t245 201.5t333.5 74.5q131 0 232.5 -47t171 -126.5t105.5 -184t36 -217.5q0 -180 -51.5 -346t-149.5 -294t-243.5 -204t-333.5 -76q-131 0 -233.5 47.5t-172.5 126t-106.5 183t-36.5 219.5zM244 549q0 -92 27.5 -177t82 -150.5 t135 -104.5t189.5 -39q158 0 276.5 73.5t197.5 190.5t119 262.5t40 290.5q0 92 -28 177t-82 151.5t-136 105.5t-188 39q-160 0 -279 -72.5t-197.5 -189.5t-117.5 -263.5t-39 -293.5zM532 1546l340 285h156l217 -285h-112l-193 213l-285 -213h-123z" />
<glyph unicode="&#xd5;" horiz-adv-x="1488" d="M113 551q0 184 52 350t151.5 293t245 201.5t333.5 74.5q131 0 232.5 -47t171 -126.5t105.5 -184t36 -217.5q0 -180 -51.5 -346t-149.5 -294t-243.5 -204t-333.5 -76q-131 0 -233.5 47.5t-172.5 126t-106.5 183t-36.5 219.5zM244 549q0 -92 27.5 -177t82 -150.5 t135 -104.5t189.5 -39q158 0 276.5 73.5t197.5 190.5t119 262.5t40 290.5q0 92 -28 177t-82 151.5t-136 105.5t-188 39q-160 0 -279 -72.5t-197.5 -189.5t-117.5 -263.5t-39 -293.5zM557 1546q12 66 36.5 111t56.5 72.5t69 39t74 11.5q55 0 93 -23.5t70 -52.5 q31 -29 59.5 -50.5t65.5 -21.5q47 0 81 34t50 110h95q-16 -72 -43 -116t-60 -71t-65.5 -37t-63.5 -10q-59 0 -98 24.5t-70 53.5t-59.5 50.5t-69.5 21.5q-47 0 -79.5 -38t-47.5 -108h-94z" />
<glyph unicode="&#xd6;" horiz-adv-x="1488" d="M113 551q0 184 52 350t151.5 293t245 201.5t333.5 74.5q131 0 232.5 -47t171 -126.5t105.5 -184t36 -217.5q0 -180 -51.5 -346t-149.5 -294t-243.5 -204t-333.5 -76q-131 0 -233.5 47.5t-172.5 126t-106.5 183t-36.5 219.5zM244 549q0 -92 27.5 -177t82 -150.5 t135 -104.5t189.5 -39q158 0 276.5 73.5t197.5 190.5t119 262.5t40 290.5q0 92 -28 177t-82 151.5t-136 105.5t-188 39q-160 0 -279 -72.5t-197.5 -189.5t-117.5 -263.5t-39 -293.5zM643 1653q0 33 22.5 55.5t55.5 22.5t55.5 -22.5t22.5 -55.5t-22.5 -55.5t-55.5 -22.5 t-55.5 22.5t-22.5 55.5zM1038 1653q0 33 22.5 55.5t55.5 22.5t55.5 -22.5t22.5 -55.5t-22.5 -55.5t-55.5 -22.5t-55.5 22.5t-22.5 55.5z" />
<glyph unicode="&#xd7;" horiz-adv-x="987" d="M162 1030l69 70l308 -307l305 309l69 -72l-307 -305l309 -305l-69 -70l-307 307l-306 -309l-69 70l307 307z" />
<glyph unicode="&#xd8;" horiz-adv-x="1488" d="M-25 43l215 199q-78 139 -77 309q0 184 52 350t151.5 293t245 201.5t333.5 74.5q137 0 241.5 -52t176.5 -138l205 190l61 -67l-215 -199q76 -141 76 -309q0 -180 -51.5 -346t-149.5 -294t-243.5 -204t-333.5 -76q-139 0 -244 51.5t-176 139.5l-205 -191zM244 549 q0 -119 43 -217l934 864q-53 78 -139.5 125t-204.5 47q-160 0 -279 -72.5t-197.5 -189.5t-117.5 -263.5t-39 -293.5zM332 250q55 -78 141 -125t205 -47q158 0 276.5 73.5t197.5 190.5t119 262.5t40 290.5q0 117 -43 219z" />
<glyph unicode="&#xd9;" horiz-adv-x="1357" d="M154 346q0 43 8 103.5t20 123.5l187 873h125l-185 -873q-29 -133 -28 -215q0 -133 71.5 -206.5t243.5 -73.5q121 0 204 33.5t138 97t90 156t59 206.5l185 875h121l-189 -887q-35 -160 -83 -271.5t-121.5 -181t-175 -100.5t-240.5 -31q-96 0 -176 20.5t-136.5 64.5 t-87 115t-30.5 171zM649 1831h162l213 -285h-104z" />
<glyph unicode="&#xda;" horiz-adv-x="1357" d="M154 346q0 43 8 103.5t20 123.5l187 873h125l-185 -873q-29 -133 -28 -215q0 -133 71.5 -206.5t243.5 -73.5q121 0 204 33.5t138 97t90 156t59 206.5l185 875h121l-189 -887q-35 -160 -83 -271.5t-121.5 -181t-175 -100.5t-240.5 -31q-96 0 -176 20.5t-136.5 64.5 t-87 115t-30.5 171zM745 1546l330 285h178l-389 -285h-119z" />
<glyph unicode="&#xdb;" horiz-adv-x="1357" d="M154 346q0 43 8 103.5t20 123.5l187 873h125l-185 -873q-29 -133 -28 -215q0 -133 71.5 -206.5t243.5 -73.5q121 0 204 33.5t138 97t90 156t59 206.5l185 875h121l-189 -887q-35 -160 -83 -271.5t-121.5 -181t-175 -100.5t-240.5 -31q-96 0 -176 20.5t-136.5 64.5 t-87 115t-30.5 171zM535 1546l339 285h156l217 -285h-110l-195 213l-285 -213h-122z" />
<glyph unicode="&#xdc;" horiz-adv-x="1357" d="M154 346q0 43 8 103.5t20 123.5l187 873h125l-185 -873q-29 -133 -28 -215q0 -133 71.5 -206.5t243.5 -73.5q121 0 204 33.5t138 97t90 156t59 206.5l185 875h121l-189 -887q-35 -160 -83 -271.5t-121.5 -181t-175 -100.5t-240.5 -31q-96 0 -176 20.5t-136.5 64.5 t-87 115t-30.5 171zM631 1653q0 33 22.5 55.5t55.5 22.5t55 -22.5t22 -55.5t-22.5 -55.5t-54.5 -22.5q-33 0 -55.5 22.5t-22.5 55.5zM1026 1653q0 33 21.5 55.5t56.5 22.5q33 0 54.5 -22.5t21.5 -55.5t-21.5 -55.5t-54.5 -22.5q-35 0 -56.5 22.5t-21.5 55.5z" />
<glyph unicode="&#xdd;" horiz-adv-x="1157" d="M260 1446h123l248 -678l557 678h139l-661 -795l-140 -651h-125l142 664zM651 1546l330 285h178l-387 -285h-121z" />
<glyph unicode="&#xde;" horiz-adv-x="1122" d="M59 0l308 1446h125l-68 -318q53 2 97 3.5t91 1.5q61 0 121 -7.5t117 -23.5q53 -16 101 -43t85 -66t58.5 -91.5t21.5 -115.5q0 -113 -39 -192.5t-104.5 -133.5t-152.5 -88t-184 -51.5t-197.5 -24.5t-192.5 -7l-62 -289h-125zM266 387q115 0 242 12.5t232.5 52.5t175 116.5 t69.5 205.5q0 113 -90 187.5t-274 74.5q-47 0 -102.5 -2t-117.5 -6z" />
<glyph unicode="&#xdf;" horiz-adv-x="1255" d="M123 0l201 944h-179l50 94h149l29 127q41 193 146.5 293.5t291.5 100.5q137 0 214 -59.5t77 -156.5q0 -49 -15.5 -91t-41 -79.5t-59.5 -72.5t-71 -70q-80 -78 -122.5 -134t-42.5 -118q0 -59 52 -98t161 -90q223 -109 223 -271q0 -88 -33 -152.5t-88 -107.5t-130 -63.5 t-157 -20.5t-166 15.5t-153 48.5l43 96q66 -33 138.5 -48t145.5 -15q59 0 111.5 15t91.5 46t61.5 75t22.5 103q0 68 -50 110t-140 83q-137 63 -191.5 122.5t-54.5 133.5q0 51 15.5 93t41 80t61.5 72.5t76 75.5q72 70 117 124.5t45 127.5q0 61 -53 98t-139 37 q-135 0 -210 -81.5t-108 -235.5l-243 -1151h-117z" />
<glyph unicode="&#xe0;" horiz-adv-x="1097" d="M78 391q0 127 39 248t112.5 215t181 151.5t242.5 57.5q78 0 151 -13.5t128 -39.5l125 28l-170 -802q-12 -49 -13 -99q0 -33 5.5 -70.5t15.5 -66.5l-107 -25q-20 49 -22 144q-59 -57 -138 -100.5t-190 -43.5q-86 0 -153.5 33t-113.5 90.5t-69.5 132t-23.5 160.5zM201 391 q0 -137 65.5 -226t190.5 -89q61 0 117.5 23.5t101.5 59.5t74.5 79t40.5 84l124 581q-59 29 -127.5 45.5t-140.5 16.5q-109 0 -192.5 -51.5t-140 -132.5t-85 -183t-28.5 -207zM522 1481h164l213 -285h-104z" />
<glyph unicode="&#xe1;" horiz-adv-x="1097" d="M78 391q0 127 39 248t112.5 215t181 151.5t242.5 57.5q78 0 151 -13.5t128 -39.5l125 28l-170 -802q-12 -49 -13 -99q0 -33 5.5 -70.5t15.5 -66.5l-107 -25q-20 49 -22 144q-59 -57 -138 -100.5t-190 -43.5q-86 0 -153.5 33t-113.5 90.5t-69.5 132t-23.5 160.5zM201 391 q0 -137 65.5 -226t190.5 -89q61 0 117.5 23.5t101.5 59.5t74.5 79t40.5 84l124 581q-59 29 -127.5 45.5t-140.5 16.5q-109 0 -192.5 -51.5t-140 -132.5t-85 -183t-28.5 -207zM590 1196l330 285h178l-389 -285h-119z" />
<glyph unicode="&#xe2;" horiz-adv-x="1097" d="M80 391q0 127 39 248t112.5 215t180 151.5t241.5 57.5q78 0 152 -13.5t127 -39.5l127 28l-172 -802q-6 -25 -8 -49.5t-2 -49.5q0 -33 4 -70.5t14 -66.5l-104 -25q-23 49 -23 144q-61 -57 -140 -100.5t-190 -43.5q-86 0 -152.5 33t-112.5 90.5t-69.5 132t-23.5 160.5z M201 391q0 -137 65.5 -226t190.5 -89q61 0 117.5 23.5t101.5 59.5t75.5 79t39.5 84l124 581q-59 29 -127.5 45.5t-140.5 16.5q-109 0 -192.5 -51.5t-140 -132.5t-85 -183t-28.5 -207zM344 1196l340 285h156l217 -285h-113l-192 213l-285 -213h-123z" />
<glyph unicode="&#xe3;" horiz-adv-x="1097" d="M78 391q0 127 39 248t112.5 215t181 151.5t242.5 57.5q78 0 151 -13.5t128 -39.5l125 28l-170 -802q-12 -49 -13 -99q0 -33 5.5 -70.5t15.5 -66.5l-107 -25q-20 49 -22 144q-59 -57 -138 -100.5t-190 -43.5q-86 0 -153.5 33t-113.5 90.5t-69.5 132t-23.5 160.5zM201 391 q0 -137 65.5 -226t190.5 -89q61 0 117.5 23.5t101.5 59.5t74.5 79t40.5 84l124 581q-59 29 -127.5 45.5t-140.5 16.5q-109 0 -192.5 -51.5t-140 -132.5t-85 -183t-28.5 -207zM362 1196q12 66 37 111t56.5 71.5t68.5 37.5t74 11q55 0 93 -22.5t69 -50.5q31 -29 60.5 -50.5 t66.5 -21.5q47 0 80.5 34t50.5 109h92q-16 -72 -42 -116.5t-58 -71.5q-33 -25 -67 -35t-62 -10q-59 0 -98.5 24.5t-71.5 53.5q-29 27 -57.5 48t-69.5 21q-47 0 -80 -36.5t-47 -106.5h-95z" />
<glyph unicode="&#xe4;" horiz-adv-x="1097" d="M80 391q0 127 39 248t112.5 215t180 151.5t241.5 57.5q78 0 152 -13.5t127 -39.5l127 28l-172 -802q-6 -25 -8 -49.5t-2 -49.5q0 -33 4 -70.5t14 -66.5l-104 -25q-23 49 -23 144q-61 -57 -140 -100.5t-190 -43.5q-86 0 -152.5 33t-112.5 90.5t-69.5 132t-23.5 160.5z M201 391q0 -137 65.5 -226t190.5 -89q61 0 117.5 23.5t101.5 59.5t75.5 79t39.5 84l124 581q-59 29 -127.5 45.5t-140.5 16.5q-109 0 -192.5 -51.5t-140 -132.5t-85 -183t-28.5 -207zM461 1303q0 33 22.5 55t55.5 22t55 -22t22 -55t-22.5 -55.5t-54.5 -22.5 q-33 0 -55.5 22.5t-22.5 55.5zM856 1303q0 33 22.5 55t55.5 22t55.5 -22t22.5 -55t-22.5 -55.5t-55.5 -22.5t-55.5 22.5t-22.5 55.5z" />
<glyph unicode="&#xe5;" horiz-adv-x="1097" d="M78 391q0 127 39 248t112.5 215t181 151.5t242.5 57.5q78 0 151 -13.5t128 -39.5l125 28l-170 -802q-12 -49 -13 -99q0 -33 5.5 -70.5t15.5 -66.5l-107 -25q-20 49 -22 144q-59 -57 -138 -100.5t-190 -43.5q-86 0 -153.5 33t-113.5 90.5t-69.5 132t-23.5 160.5zM201 391 q0 -137 65.5 -226t190.5 -89q61 0 117.5 23.5t101.5 59.5t74.5 79t40.5 84l124 581q-59 29 -127.5 45.5t-140.5 16.5q-109 0 -192.5 -51.5t-140 -132.5t-85 -183t-28.5 -207zM532 1376q0 45 17.5 84t46.5 67.5t69 45t85 16.5t84.5 -16.5t69.5 -45t47.5 -67.5t17.5 -84 q0 -43 -17.5 -82t-47.5 -68.5t-69.5 -46t-84.5 -16.5t-85 16.5t-69 46t-46.5 68.5t-17.5 82zM616 1376q0 -53 39 -91t95 -38q55 0 94 38t39 91t-39 92t-94 39t-94.5 -38.5t-39.5 -92.5z" />
<glyph unicode="&#xe6;" horiz-adv-x="1767" d="M78 391q0 127 39 248t112.5 215t181 151.5t242.5 57.5q84 0 157 -13.5t124 -35.5l106 24l-32 -149q84 92 177 133t204 41q84 0 144 -26.5t98 -69.5t55.5 -98.5t17.5 -112.5q0 -55 -8 -119t-21 -117h-727q-6 -35 -8 -71.5t-2 -57.5q0 -59 16.5 -116.5t51 -102.5t89 -71.5 t132.5 -26.5q33 0 71.5 8t77.5 20.5t75 28.5t62 33l48 -98q-86 -47 -176.5 -69t-178.5 -22q-72 0 -127 18.5t-97 52.5t-71.5 78t-50.5 97q-72 -104 -180.5 -175t-241.5 -71q-86 0 -153.5 33t-113.5 90.5t-69.5 132t-23.5 160.5zM201 391q0 -137 65.5 -226t190.5 -89 q61 0 117.5 23.5t101.5 59.5t75.5 79t39.5 81l122 584q-57 29 -125.5 45.5t-140.5 16.5q-109 0 -192.5 -51.5t-140 -132.5t-85 -183t-28.5 -207zM969 614h608q6 35 9 72t3 64q0 90 -52 152.5t-167 62.5q-68 0 -131 -25t-115.5 -70t-93.5 -109.5t-61 -146.5z" />
<glyph unicode="&#xe7;" horiz-adv-x="974" d="M78 403q0 135 41 256t118.5 210t190.5 141.5t256 52.5q90 0 159.5 -16.5t135.5 -49.5l-49 -96q-47 27 -113.5 45.5t-140.5 18.5q-121 0 -210 -48.5t-147.5 -128t-88 -181t-29.5 -208.5q0 -68 17.5 -126t53 -102t88 -69.5t119.5 -25.5q78 0 159 26.5t138 61.5l47 -98 q-84 -47 -168 -68t-174 -23l-32 -79q66 -10 117.5 -46t51.5 -108q0 -51 -22.5 -88t-60 -60.5t-88 -35t-107.5 -11.5q-45 0 -93 8.5t-85 20.5l24 82q31 -10 76 -18.5t88 -8.5q29 0 57.5 5.5t52 17.5t38 33.5t14.5 52.5q0 47 -52 68.5t-132 21.5l63 152q-147 25 -230 140.5 t-83 280.5z" />
<glyph unicode="&#xe8;" horiz-adv-x="1030" d="M78 389q0 135 39 257t112.5 215t180 147.5t241.5 54.5q84 0 143.5 -26.5t98.5 -69.5t56.5 -97.5t17.5 -111.5q0 -55 -8.5 -120t-20.5 -118h-727q-6 -35 -8 -71.5t-2 -57.5q0 -59 16 -116.5t51 -102.5t89.5 -71.5t131.5 -26.5q33 0 73 8t79 20.5t74 28.5t61 33l47 -98 q-86 -47 -174 -69t-180 -22q-98 0 -172 35t-122 93.5t-72.5 133t-24.5 152.5zM231 614h609q6 33 9 71t3 65q0 90 -53.5 152.5t-165.5 62.5q-133 0 -241.5 -90.5t-160.5 -260.5zM459 1481h162l215 -285h-105z" />
<glyph unicode="&#xe9;" horiz-adv-x="1030" d="M78 389q0 135 39 257t112.5 215t180 147.5t241.5 54.5q84 0 143.5 -26.5t98.5 -69.5t56.5 -97.5t17.5 -111.5q0 -55 -8.5 -120t-20.5 -118h-727q-6 -35 -8 -71.5t-2 -57.5q0 -59 16 -116.5t51 -102.5t89.5 -71.5t131.5 -26.5q33 0 73 8t79 20.5t74 28.5t61 33l47 -98 q-86 -47 -174 -69t-180 -22q-98 0 -172 35t-122 93.5t-72.5 133t-24.5 152.5zM231 614h609q6 33 9 71t3 65q0 90 -53.5 152.5t-165.5 62.5q-133 0 -241.5 -90.5t-160.5 -260.5zM530 1196l330 285h178l-387 -285h-121z" />
<glyph unicode="&#xea;" horiz-adv-x="1030" d="M78 389q0 135 39 257t112.5 215t180 147.5t241.5 54.5q84 0 143.5 -26.5t98.5 -69.5t56.5 -97.5t17.5 -111.5q0 -55 -8.5 -120t-20.5 -118h-727q-6 -35 -8 -71.5t-2 -57.5q0 -59 16 -116.5t51 -102.5t89.5 -71.5t131.5 -26.5q33 0 73 8t79 20.5t74 28.5t61 33l47 -98 q-86 -47 -174 -69t-180 -22q-98 0 -172 35t-122 93.5t-72.5 133t-24.5 152.5zM231 614h609q6 33 9 71t3 65q0 90 -53.5 152.5t-165.5 62.5q-133 0 -241.5 -90.5t-160.5 -260.5zM317 1196l340 285h156l217 -285h-110l-195 213l-285 -213h-123z" />
<glyph unicode="&#xeb;" horiz-adv-x="1030" d="M78 389q0 135 39 257t112.5 215t180 147.5t241.5 54.5q84 0 143.5 -26.5t98.5 -69.5t56.5 -97.5t17.5 -111.5q0 -55 -8.5 -120t-20.5 -118h-727q-6 -35 -8 -71.5t-2 -57.5q0 -59 16 -116.5t51 -102.5t89.5 -71.5t131.5 -26.5q33 0 73 8t79 20.5t74 28.5t61 33l47 -98 q-86 -47 -174 -69t-180 -22q-98 0 -172 35t-122 93.5t-72.5 133t-24.5 152.5zM231 614h609q6 33 9 71t3 65q0 90 -53.5 152.5t-165.5 62.5q-133 0 -241.5 -90.5t-160.5 -260.5zM428 1303q0 33 22.5 55t55.5 22t55.5 -22t22.5 -55t-22.5 -55.5t-55.5 -22.5t-55.5 22.5 t-22.5 55.5zM823 1303q0 33 22.5 55t55.5 22t55.5 -22t22.5 -55t-22.5 -55.5t-55.5 -22.5t-55.5 22.5t-22.5 55.5z" />
<glyph unicode="&#xec;" horiz-adv-x="432" d="M47 0l221 1034l121 29l-225 -1063h-117zM123 1481h164l213 -285h-105z" />
<glyph unicode="&#xed;" horiz-adv-x="432" d="M47 0l221 1034l121 29l-225 -1063h-117zM223 1196l330 285h178l-387 -285h-121z" />
<glyph unicode="&#xee;" horiz-adv-x="432" d="M-12 1196l340 285h155l217 -285h-110l-193 213l-284 -213h-125zM47 0l221 1034l121 29l-225 -1063h-117z" />
<glyph unicode="&#xef;" horiz-adv-x="432" d="M47 0l221 1034l121 29l-225 -1063h-117zM82 1303q0 33 22.5 55t55.5 22t55.5 -22t22.5 -55t-22.5 -55.5t-55.5 -22.5t-55.5 22.5t-22.5 55.5zM477 1303q0 33 22.5 55t55.5 22t55.5 -22t22.5 -55t-22.5 -55.5t-55.5 -22.5t-55.5 22.5t-22.5 55.5z" />
<glyph unicode="&#xf0;" horiz-adv-x="1095" d="M78 393q0 133 36 255t105.5 214t168.5 146.5t226 54.5q98 0 172 -39t119 -104q-14 106 -53 211.5t-100 199.5l-205 -119l-41 68l199 117q-29 41 -70 84t-84 78h108q12 -8 30 -22.5t35 -32t32.5 -34t25.5 -28.5l187 108l41 -69l-176 -103q94 -135 141 -290.5t47 -364.5 q0 -141 -28.5 -275.5t-94 -239t-173.5 -169t-263 -64.5q-86 0 -156.5 31t-122 86t-79 132t-27.5 169zM201 401q0 -63 15 -122.5t49 -104.5t87.5 -72.5t126.5 -27.5q109 0 187.5 52t129 135t75 183.5t24.5 196.5q0 70 -18.5 129t-54.5 102t-87 68t-119 25q-106 0 -185 -51.5 t-130 -133.5t-75.5 -181t-24.5 -198z" />
<glyph unicode="&#xf1;" horiz-adv-x="1124" d="M41 0l221 1036l119 27l-37 -176q78 68 177.5 122t219.5 54q145 0 215 -66.5t70 -183.5q0 -29 -6 -76t-14 -86l-140 -651h-114l139 653q10 53 15 91t5 59q0 162 -186 162q-51 0 -119.5 -25t-133 -65.5t-114 -97t-63.5 -120.5l-139 -657h-115zM352 1196q12 66 37 111 t55.5 71.5t67.5 37.5t74 11q55 0 93 -22.5t71 -50.5q31 -29 59.5 -50.5t64.5 -21.5q47 0 81 34t51 109h94q-16 -72 -42 -116.5t-61 -71.5q-31 -25 -64.5 -35t-64.5 -10q-59 0 -98 24.5t-70 53.5q-31 27 -59.5 48t-69.5 21q-94 0 -127 -143h-92z" />
<glyph unicode="&#xf2;" horiz-adv-x="1095" d="M78 395q0 125 32.5 245t100.5 214t172 151.5t248 57.5q88 0 158.5 -31t121 -87t78 -133t27.5 -169q0 -127 -34 -248t-102.5 -214t-172 -149.5t-242.5 -56.5q-90 0 -162 32t-122 88.5t-76.5 133t-26.5 166.5zM201 395q0 -68 18.5 -127t54 -102t87 -67.5t118.5 -24.5 q106 0 185 51t130.5 133t76 183.5t24.5 199.5q0 70 -18.5 129t-54.5 102t-87 68t-119 25q-109 0 -187.5 -52.5t-128.5 -134.5t-74.5 -183t-24.5 -200zM446 1481h164l213 -285h-104z" />
<glyph unicode="&#xf3;" horiz-adv-x="1095" d="M78 395q0 125 32.5 245t100.5 214t172 151.5t248 57.5q88 0 158.5 -31t121 -87t78 -133t27.5 -169q0 -127 -34 -248t-102.5 -214t-172 -149.5t-242.5 -56.5q-90 0 -162 32t-122 88.5t-76.5 133t-26.5 166.5zM201 395q0 -68 18.5 -127t54 -102t87 -67.5t118.5 -24.5 q106 0 185 51t130.5 133t76 183.5t24.5 199.5q0 70 -18.5 129t-54.5 102t-87 68t-119 25q-109 0 -187.5 -52.5t-128.5 -134.5t-74.5 -183t-24.5 -200zM530 1196l330 285h178l-389 -285h-119z" />
<glyph unicode="&#xf4;" horiz-adv-x="1095" d="M78 395q0 125 32.5 245t100.5 214t172 151.5t248 57.5q88 0 158.5 -31t121 -87t78 -133t27.5 -169q0 -127 -34 -248t-102.5 -214t-172 -149.5t-242.5 -56.5q-90 0 -162 32t-122 88.5t-76.5 133t-26.5 166.5zM201 395q0 -68 18.5 -127t54 -102t87 -67.5t118.5 -24.5 q106 0 185 51t130.5 133t76 183.5t24.5 199.5q0 70 -18.5 129t-54.5 102t-87 68t-119 25q-109 0 -187.5 -52.5t-128.5 -134.5t-74.5 -183t-24.5 -200zM299 1196l340 285h156l217 -285h-111l-194 213l-285 -213h-123z" />
<glyph unicode="&#xf5;" horiz-adv-x="1095" d="M78 395q0 125 32.5 245t100.5 214t172 151.5t248 57.5q88 0 158.5 -31t121 -87t78 -133t27.5 -169q0 -127 -34 -248t-102.5 -214t-172 -149.5t-242.5 -56.5q-90 0 -162 32t-122 88.5t-76.5 133t-26.5 166.5zM201 395q0 -68 18.5 -127t54 -102t87 -67.5t118.5 -24.5 q106 0 185 51t130.5 133t76 183.5t24.5 199.5q0 70 -18.5 129t-54.5 102t-87 68t-119 25q-109 0 -187.5 -52.5t-128.5 -134.5t-74.5 -183t-24.5 -200zM315 1196q12 66 37 111t56.5 71.5t68.5 37.5t74 11q53 0 91 -22.5t71 -50.5q31 -29 59.5 -50.5t65.5 -21.5q47 0 80.5 34 t50.5 109h94q-16 -72 -42 -116.5t-58 -71.5q-33 -25 -67 -35t-65 -10q-59 0 -98 24.5t-69 53.5q-31 27 -60 48t-69 21q-94 0 -127 -143h-93z" />
<glyph unicode="&#xf6;" horiz-adv-x="1095" d="M78 395q0 125 32.5 245t100.5 214t172 151.5t248 57.5q88 0 158.5 -31t121 -87t78 -133t27.5 -169q0 -127 -34 -248t-102.5 -214t-172 -149.5t-242.5 -56.5q-90 0 -162 32t-122 88.5t-76.5 133t-26.5 166.5zM201 395q0 -68 18.5 -127t54 -102t87 -67.5t118.5 -24.5 q106 0 185 51t130.5 133t76 183.5t24.5 199.5q0 70 -18.5 129t-54.5 102t-87 68t-119 25q-109 0 -187.5 -52.5t-128.5 -134.5t-74.5 -183t-24.5 -200zM395 1303q0 33 22.5 55t55.5 22t55.5 -22t22.5 -55t-22.5 -55.5t-55.5 -22.5t-55.5 22.5t-22.5 55.5zM791 1303 q0 33 22.5 55t54.5 22q33 0 55.5 -22t22.5 -55t-22.5 -55.5t-55.5 -22.5t-55 22.5t-22 55.5z" />
<glyph unicode="&#xf7;" horiz-adv-x="987" d="M113 672v102h848v-102h-848zM451 410q0 35 25.5 60.5t60.5 25.5t60.5 -25.5t25.5 -60.5t-26 -60.5t-60 -25.5q-35 0 -60.5 25.5t-25.5 60.5zM451 1036q0 35 25.5 60.5t60.5 25.5t60.5 -25.5t25.5 -60.5t-26 -60.5t-60 -25.5q-35 0 -60.5 25.5t-25.5 60.5z" />
<glyph unicode="&#xf8;" horiz-adv-x="1095" d="M-43 37l166 149q-45 96 -45 209q0 125 32.5 245t100.5 214t172 151.5t248 57.5q98 0 173 -38t126 -103l155 141l54 -64l-164 -149q41 -92 41 -207q0 -127 -34 -248t-102.5 -214t-172 -149.5t-242.5 -56.5q-98 0 -173 37t-126 103l-156 -142zM201 395q0 -33 3 -63.5 t13 -59.5l627 572q-35 55 -92.5 88t-135.5 33q-109 0 -187.5 -52.5t-128.5 -134.5t-74.5 -183t-24.5 -200zM252 195q35 -55 92 -88t135 -33q106 0 185 51t130.5 133t76 183.5t24.5 199.5q0 63 -16 123z" />
<glyph unicode="&#xf9;" horiz-adv-x="1136" d="M92 225q0 29 7 78t16 84l137 647l121 29l-144 -678q-12 -55 -16 -92t-4 -57q0 -86 48 -124t140 -38q51 0 119 24.5t132.5 66.5t113.5 97t61 119l140 653l120 29l-170 -803q-8 -35 -12 -64.5t-4 -56.5q0 -33 4 -70.5t14 -68.5l-104 -25q-29 66 -29 179 q-72 -70 -173 -124.5t-230 -54.5q-143 0 -215 67t-72 183zM465 1481h162l213 -285h-105z" />
<glyph unicode="&#xfa;" horiz-adv-x="1136" d="M92 225q0 29 7 78t16 84l137 647l121 29l-144 -678q-12 -55 -16 -92t-4 -57q0 -86 48 -124t140 -38q51 0 119 24.5t132.5 66.5t113.5 97t61 119l140 653l120 29l-170 -803q-8 -35 -12 -64.5t-4 -56.5q0 -33 4 -70.5t14 -68.5l-104 -25q-29 66 -29 179 q-72 -70 -173 -124.5t-230 -54.5q-143 0 -215 67t-72 183zM557 1196l330 285h178l-387 -285h-121z" />
<glyph unicode="&#xfb;" horiz-adv-x="1136" d="M92 225q0 29 7 78t16 84l137 647l121 29l-144 -678q-12 -55 -16 -92t-4 -57q0 -86 48 -124t140 -38q51 0 119 24.5t132.5 66.5t113.5 97t61 119l140 653l120 29l-170 -803q-8 -35 -12 -64.5t-4 -56.5q0 -33 4 -70.5t14 -68.5l-104 -25q-29 66 -29 179 q-72 -70 -173 -124.5t-230 -54.5q-143 0 -215 67t-72 183zM334 1196l340 285h155l218 -285h-111l-195 213l-284 -213h-123z" />
<glyph unicode="&#xfc;" horiz-adv-x="1136" d="M92 225q0 29 7 78t16 84l137 647l121 29l-144 -678q-12 -55 -16 -92t-4 -57q0 -86 48 -124t140 -38q51 0 119 24.5t132.5 66.5t113.5 97t61 119l140 653l120 29l-170 -803q-8 -35 -12 -64.5t-4 -56.5q0 -33 4 -70.5t14 -68.5l-104 -25q-29 66 -29 179 q-72 -70 -173 -124.5t-230 -54.5q-143 0 -215 67t-72 183zM426 1303q0 33 22.5 55t55.5 22t54.5 -22t21.5 -55t-21.5 -55.5t-54.5 -22.5t-55.5 22.5t-22.5 55.5zM821 1303q0 33 21.5 55t54.5 22q35 0 56.5 -22t21.5 -55t-21.5 -55.5t-56.5 -22.5q-33 0 -54.5 22.5 t-21.5 55.5z" />
<glyph unicode="&#xfd;" horiz-adv-x="968" d="M-111 -365q57 27 111.5 61t110 84t114 120.5t123.5 173.5l-186 964h119l151 -825l506 825h119l-621 -1005q-68 -111 -133 -191t-127.5 -136t-123 -93t-120.5 -62zM516 1196l332 285h176l-387 -285h-121z" />
<glyph unicode="&#xfe;" horiz-adv-x="1122" d="M-55 -451q6 31 28.5 133.5t53 248t68.5 320.5t75 353q88 416 197 926l120 29l-131 -617q51 41 132 81t184 40q92 0 160.5 -33t115.5 -89t70.5 -133t23.5 -163q0 -133 -37.5 -254t-112.5 -213t-184.5 -147.5t-252.5 -55.5q-88 0 -164 36t-113 89l-112 -522zM221 268 q0 -49 19.5 -85t53.5 -60.5t79 -36.5t94 -12q115 0 201 50t142 131t84 183.5t28 206.5q0 141 -68 229.5t-197 88.5q-45 0 -90 -14.5t-88 -38t-82 -52.5t-71 -59l-99 -463q-4 -14 -5 -32.5t-1 -35.5z" />
<glyph unicode="&#xff;" horiz-adv-x="968" d="M-111 -365q57 27 111.5 61t110 84t114 120.5t123.5 173.5l-186 964h119l151 -825l506 825h119l-619 -1005q-70 -111 -135 -191t-127.5 -136t-123 -93t-120.5 -62zM348 1303q0 33 21.5 55t54.5 22t55.5 -22t22.5 -55t-22.5 -55.5t-55.5 -22.5t-54.5 22.5t-21.5 55.5z M741 1303q0 33 22.5 55t55.5 22t55.5 -22t22.5 -55t-22.5 -55.5t-55.5 -22.5t-55.5 22.5t-22.5 55.5z" />
<glyph unicode="&#x152;" horiz-adv-x="2154" d="M113 551q0 184 52 350t151.5 293t245 201.5t333.5 74.5q186 0 311 -90t183 -227l63 293h795l-56 -105h-637l-110 -520h553l-53 -102h-521l-131 -613h684l-22 -106h-809l45 219q-98 -117 -230.5 -180.5t-297.5 -63.5q-131 0 -233.5 47.5t-172.5 126t-106.5 183 t-36.5 219.5zM244 551q0 -92 27.5 -177t82 -151.5t135 -105.5t189.5 -39q158 0 276.5 72.5t197.5 189.5t119 263.5t40 291.5q0 98 -25.5 184t-79 150.5t-135.5 101.5t-194 37q-158 0 -277 -72.5t-197.5 -189.5t-118.5 -263.5t-40 -291.5z" />
<glyph unicode="&#x153;" horiz-adv-x="1818" d="M78 395q0 125 32.5 245t100.5 214t172 151.5t248 57.5q133 0 226 -77t126 -200q78 135 191.5 206t267.5 71q84 0 143.5 -26.5t98 -69.5t56 -97.5t17.5 -111.5q0 -55 -8 -120t-20 -118h-728q-6 -35 -9 -70.5t-3 -58.5q0 -59 16.5 -116.5t52.5 -102.5t90 -71.5t132 -26.5 q33 0 72 8t77.5 20.5t73.5 28.5t62 33l47 -98q-84 -47 -172 -69t-180 -22q-72 0 -130.5 21.5t-103.5 57.5t-75.5 85t-45.5 105q-63 -113 -176 -191t-264 -78q-90 0 -162 32t-122 88.5t-76.5 133t-26.5 166.5zM201 395q0 -68 18.5 -127t54 -102t87 -67.5t118.5 -24.5 q106 0 185 52t130.5 133t76 182.5t24.5 199.5q0 141 -72.5 232.5t-206.5 91.5q-109 0 -187.5 -52.5t-128.5 -134.5t-74.5 -183t-24.5 -200zM1020 614h610q6 33 9 71t3 65q0 90 -53 152.5t-166 62.5q-135 0 -243.5 -90.5t-159.5 -260.5z" />
<glyph unicode="&#x178;" horiz-adv-x="1157" d="M260 1446h123l248 -678l557 678h139l-661 -795l-140 -651h-125l142 664zM528 1655q0 33 22.5 55.5t55.5 22.5t55.5 -22.5t22.5 -55.5t-22.5 -55.5t-55.5 -22.5t-55.5 22.5t-22.5 55.5zM924 1655q0 33 22.5 55.5t54.5 22.5q33 0 55.5 -22.5t22.5 -55.5t-22.5 -55.5 t-55.5 -22.5t-55 22.5t-22 55.5z" />
<glyph unicode="&#x2c6;" horiz-adv-x="798" d="M266 1196l340 285h156l217 -285h-113l-192 213l-285 -213h-123z" />
<glyph unicode="&#x2dc;" horiz-adv-x="798" d="M281 1196q12 66 36.5 111t56.5 71.5t68.5 37.5t73.5 11q53 0 92 -22.5t70 -50.5q31 -29 59.5 -50.5t65.5 -21.5q47 0 81 34t50 109h94q-8 -45 -26.5 -87t-47 -74.5t-67.5 -52t-90 -19.5q-59 0 -98.5 24.5t-69.5 53.5q-29 27 -58.5 48t-70.5 21q-94 0 -127 -143h-92z" />
<glyph unicode="&#x2000;" horiz-adv-x="980" />
<glyph unicode="&#x2001;" horiz-adv-x="1960" />
<glyph unicode="&#x2002;" horiz-adv-x="980" />
<glyph unicode="&#x2003;" horiz-adv-x="1960" />
<glyph unicode="&#x2004;" horiz-adv-x="653" />
<glyph unicode="&#x2005;" horiz-adv-x="490" />
<glyph unicode="&#x2006;" horiz-adv-x="326" />
<glyph unicode="&#x2007;" horiz-adv-x="326" />
<glyph unicode="&#x2008;" horiz-adv-x="245" />
<glyph unicode="&#x2009;" horiz-adv-x="392" />
<glyph unicode="&#x200a;" horiz-adv-x="108" />
<glyph unicode="&#x2010;" horiz-adv-x="729" d="M90 461l25 117h524l-25 -117h-524z" />
<glyph unicode="&#x2011;" horiz-adv-x="729" d="M90 461l25 117h524l-25 -117h-524z" />
<glyph unicode="&#x2012;" horiz-adv-x="729" d="M90 461l25 117h524l-25 -117h-524z" />
<glyph unicode="&#x2013;" horiz-adv-x="1024" d="M-18 473l12 92h1048l-12 -92h-1048z" />
<glyph unicode="&#x2014;" horiz-adv-x="2048" d="M-20 473l12 92h2076l-12 -92h-2076z" />
<glyph unicode="&#x2018;" horiz-adv-x="471" d="M291 1231q0 98 60.5 178t172.5 152l39 -43q-86 -61 -124 -114.5t-48 -107.5q35 -4 58.5 -27.5t23.5 -62.5q0 -37 -25.5 -62.5t-62.5 -25.5q-43 0 -68.5 30t-25.5 83z" />
<glyph unicode="&#x2019;" horiz-adv-x="471" d="M248 1159q84 61 122 114.5t48 106.5q-35 4 -58.5 28t-23.5 62q0 39 26.5 64t61.5 25q45 0 70.5 -30t25.5 -83q0 -98 -61.5 -178t-173.5 -152z" />
<glyph unicode="&#x201a;" horiz-adv-x="471" d="M-16 -236q86 61 123.5 114.5t48.5 107.5q-35 4 -58.5 27.5t-23.5 62.5t26.5 63.5t61.5 24.5q45 0 70.5 -30t25.5 -83q0 -96 -61.5 -177t-173.5 -153z" />
<glyph unicode="&#x201c;" horiz-adv-x="831" d="M291 1231q0 98 60.5 178t172.5 152l39 -43q-86 -61 -124 -114.5t-48 -107.5q35 -4 58.5 -27.5t23.5 -62.5q0 -37 -25.5 -62.5t-62.5 -25.5q-43 0 -68.5 30t-25.5 83zM649 1231q0 98 61.5 178t174.5 152l39 -43q-86 -61 -124 -114.5t-48 -107.5q35 -4 58.5 -27.5 t23.5 -62.5q0 -37 -27 -62.5t-62 -25.5q-45 0 -70.5 30t-25.5 83z" />
<glyph unicode="&#x201d;" horiz-adv-x="831" d="M248 1159q84 61 122 114.5t48 106.5q-35 4 -58.5 28t-23.5 62q0 39 26.5 64t61.5 25q45 0 70.5 -30t25.5 -83q0 -98 -61.5 -178t-173.5 -152zM606 1159q86 61 124 114.5t48 106.5q-35 4 -58.5 28t-23.5 62q0 39 26 64t62 25q45 0 71 -30t26 -83q0 -98 -61.5 -178 t-174.5 -152z" />
<glyph unicode="&#x201e;" horiz-adv-x="831" d="M-16 -236q86 61 123.5 114.5t48.5 107.5q-35 4 -58.5 27.5t-23.5 62.5t26.5 63.5t61.5 24.5q45 0 70.5 -30t25.5 -83q0 -96 -61.5 -177t-173.5 -153zM344 -236q86 61 124 114.5t48 107.5q-35 4 -58.5 27.5t-23.5 62.5t25.5 63.5t62.5 24.5q43 0 68.5 -30t25.5 -83 q0 -96 -60 -177t-173 -153z" />
<glyph unicode="&#x2022;" horiz-adv-x="716" d="M141 713q0 57 20.5 104t55.5 80t80 50.5t92 17.5q51 0 96 -19.5t79 -53.5t53.5 -79t19.5 -96t-19.5 -96.5t-53.5 -79t-79 -53t-96 -19.5q-55 0 -100 21.5t-78 55.5t-51.5 78t-18.5 89z" />
<glyph unicode="&#x2026;" horiz-adv-x="1794" d="M123 76q0 39 25.5 64.5t64.5 25.5t65.5 -25.5t26.5 -64.5t-26.5 -65.5t-65.5 -26.5t-64.5 26.5t-25.5 65.5zM754 76q0 39 26.5 64.5t65.5 25.5q37 0 63.5 -25.5t26.5 -64.5t-26.5 -65.5t-63.5 -26.5q-39 0 -65.5 26.5t-26.5 65.5zM1386 76q0 39 27 64.5t64 25.5 q39 0 65.5 -25.5t26.5 -64.5t-26.5 -65.5t-65.5 -26.5q-37 0 -64 26.5t-27 65.5z" />
<glyph unicode="&#x202f;" horiz-adv-x="392" />
<glyph unicode="&#x2039;" horiz-adv-x="747" d="M25 518l581 520h156l-598 -528l371 -510h-134z" />
<glyph unicode="&#x203a;" horiz-adv-x="747" d="M-23 0l598 528l-370 510h133l377 -518l-582 -520h-156z" />
<glyph unicode="&#x205f;" horiz-adv-x="490" />
<glyph unicode="&#x20ac;" d="M29 555l49 98h119q6 74 22 150h-131l49 98h107q35 117 94 221.5t143 181t191.5 121.5t238.5 45q88 0 170 -15t142 -50l-47 -98q-59 31 -132 45t-145 14q-104 0 -190 -37t-154 -99.5t-116 -147.5t-79 -181h613l-47 -98h-590q-8 -37 -13.5 -75t-9.5 -75h549l-49 -98h-506 v-37q0 -86 19.5 -165t60.5 -139t105.5 -97t154.5 -37q78 0 164 27.5t168 76.5l49 -94q-88 -55 -186.5 -85t-208.5 -30q-111 0 -194 43t-138 116t-83 169t-28 201v25.5t3 25.5h-164z" />
<glyph unicode="&#x2122;" horiz-adv-x="1802" d="M186 1362l29 84h668l-29 -84h-266v-729h-105v729h-297zM918 633l69 792l123 33l248 -674l252 639l131 35l74 -825h-101l-57 659l-256 -645l-84 -22l-246 659l-59 -651h-94z" />
<glyph unicode="&#x25fc;" horiz-adv-x="1034" d="M0 0v1034h1034v-1034h-1034z" />
<glyph unicode="&#xfb01;" horiz-adv-x="1042" d="M68 -279l260 1223h-178l49 94h149l27 131q45 209 149.5 299.5t272.5 90.5q78 0 137 -12.5t102 -26.5l-41 -99q-35 14 -90 27.5t-121 13.5q-119 0 -190.5 -70.5t-108.5 -246.5l-22 -107h430l106 25l-225 -1063h-117l203 944h-418l-254 -1194z" />
<glyph unicode="&#xfb02;" horiz-adv-x="1042" d="M68 -279l260 1223h-178l49 94h149l27 131q23 109 59.5 182.5t87.5 120t115.5 67t144.5 20.5q45 0 97.5 -6.5t107.5 -20.5l119 27l-332 -1559h-115l304 1430q-45 16 -96.5 24t-92.5 8q-55 0 -99 -14t-80 -49t-62.5 -94.5t-45.5 -149.5l-24 -117h248l-49 -94h-220 l-254 -1194z" />
</font>
</defs>
</svg>
