<?xml version="1.0" standalone="no"?>
<!DOCTYPE svg PUBLIC "-//W3C//DTD SVG 1.1//EN" "http://www.w3.org/Graphics/SVG/1.1/DTD/svg11.dtd" >
<svg xmlns="http://www.w3.org/2000/svg">
<metadata>
This is a custom SVG webfont generated by Font Squirrel.
Copyright   : Digitised data c copyright Agfa Monotype Ltd 2004 All Rights Reserved
</metadata>
<defs>
<font id="ExpertSansRegularItalic" horiz-adv-x="1141" >
<font-face units-per-em="2048" ascent="1638" descent="-410" />
<missing-glyph horiz-adv-x="502" />
<glyph unicode=" "  horiz-adv-x="502" />
<glyph unicode="&#x09;" horiz-adv-x="502" />
<glyph unicode="&#xa0;" horiz-adv-x="502" />
<glyph unicode="!" horiz-adv-x="496" d="M43 98q0 52 36 88.5t87 36.5q52 0 88.5 -36.5t36.5 -88.5q0 -50 -36.5 -86.5t-86.5 -36.5q-52 0 -88.5 36.5t-36.5 86.5zM123 354l225 1055l170 37l-221 -1047z" />
<glyph unicode="&#x22;" horiz-adv-x="666" d="M170 954l84 492h172l-125 -492h-131zM467 954l84 492h172l-125 -492h-131z" />
<glyph unicode="#" horiz-adv-x="1303" d="M135 397v148h219l74 352h-293v145h320l86 404h143l-86 -404h320l83 404h144l-86 -404h190v-145h-217l-71 -352h288v-148h-317l-84 -397h-146l86 397h-321l-82 -397h-143l82 397h-189zM498 545h319l72 352h-320z" />
<glyph unicode="$" d="M27 123l61 135q160 -76 338 -80l109 508q-185 93 -252.5 170.5t-67.5 179.5q0 157 125 250t344 105l31 151h127l-31 -151q149 0 322 -72l-64 -131q-139 72 -287 72l-96 -455q161 -83 241.5 -168.5t80.5 -220.5q0 -153 -132 -252.5t-352 -116.5l-39 -190h-127l39 188 q-186 0 -370 78zM393 1067q0 -57 44.5 -108t133.5 -95l84 396q-262 -16 -262 -193zM553 178q272 35 272 219q0 79 -42.5 131t-135.5 101z" />
<glyph unicode="%" horiz-adv-x="1853" d="M164 981q0 206 121.5 347.5t308.5 141.5q138 0 220.5 -81t82.5 -215q0 -206 -122 -347t-306 -141q-139 0 -222 80.5t-83 214.5zM309 989q0 -86 48.5 -141t131.5 -55q116 0 189.5 115t73.5 261q0 87 -48.5 141t-132.5 54q-114 0 -188 -115.5t-74 -259.5zM319 -25 l1160 1495h137l-1159 -1495h-138zM1038 270q0 206 122 348t308 142q139 0 221.5 -81.5t82.5 -215.5q0 -204 -121 -346t-308 -142q-138 0 -221.5 81t-83.5 214zM1184 279q0 -87 48.5 -142t131.5 -55q116 0 189 115t73 262q0 87 -48 140.5t-132 53.5q-115 0 -188.5 -115 t-73.5 -259z" />
<glyph unicode="&#x26;" horiz-adv-x="1288" d="M35 309q0 120 53.5 203t123 132t243.5 149q-113 180 -113 321q0 146 108 251t312 105q146 0 234.5 -72t88.5 -184q0 -109 -90.5 -209.5t-324.5 -232.5l272 -418q135 166 141 312l142 30q2 -7 2 -26q0 -91 -58.5 -218.5t-148.5 -213.5l154 -238h-201l-84 129 q-95 -75 -211 -115.5t-223 -40.5q-186 0 -303 90.5t-117 245.5zM227 324q0 -98 71 -156.5t177 -58.5q77 0 177.5 37t164.5 94l-293 446q-167 -94 -232 -173.5t-65 -188.5zM506 1130q0 -104 94 -251q176 100 250 175t74 148q0 59 -46.5 98t-134.5 39q-109 0 -173 -58.5 t-64 -150.5z" />
<glyph unicode="'" horiz-adv-x="369" d="M170 954l84 492h172l-125 -492h-131z" />
<glyph unicode="(" horiz-adv-x="745" d="M147 285q0 349 188.5 690t461.5 584h102q-565 -685 -565 -1344q0 -318 135 -666h-100q-106 146 -164 345t-58 391z" />
<glyph unicode=")" horiz-adv-x="745" d="M-127 -451q565 685 565 1342q0 315 -137 668h100q107 -145 165.5 -345t58.5 -393q0 -349 -188 -688.5t-462 -583.5h-102z" />
<glyph unicode="*" horiz-adv-x="1001" d="M236 1024l278 137l-276 142l67 118l256 -172l-14 310h135l-18 -310l260 168l67 -119l-276 -135l276 -141l-69 -119l-258 172l16 -311h-137l20 305l-260 -164z" />
<glyph unicode="+" horiz-adv-x="987" d="M111 653v140h354v354h139v-354h354v-140h-354v-354h-139v354h-354z" />
<glyph unicode="," horiz-adv-x="463" d="M-18 -231q135 103 170 215q-51 0 -80 33t-29 85q0 53 35.5 87t85.5 34q57 0 92 -40t35 -109q0 -93 -68 -188t-190 -173z" />
<glyph unicode="-" horiz-adv-x="791" d="M115 434l37 170h524l-37 -170h-524z" />
<glyph unicode="." horiz-adv-x="463" d="M43 98q0 52 36 88.5t87 36.5q52 0 88.5 -36t36.5 -87t-36 -88t-87 -37q-52 0 -88.5 36.5t-36.5 86.5z" />
<glyph unicode="/" horiz-adv-x="1026" d="M-8 -25l1038 1584h162l-1038 -1584h-162z" />
<glyph unicode="0" d="M94 481q0 222 82.5 465.5t230.5 383.5t343 140q187 0 285 -129t98 -376q0 -228 -83.5 -470t-232 -381t-340.5 -139q-187 0 -285 129.5t-98 376.5zM274 467q0 -175 51 -264.5t169 -89.5q129 0 233 125t164.5 340t60.5 401q0 114 -21.5 192.5t-68.5 120t-129 41.5 q-130 0 -234 -126.5t-164.5 -342.5t-60.5 -397z" />
<glyph unicode="1" d="M373 1169l14 152l404 149h83l-311 -1470h-172l271 1276z" />
<glyph unicode="2" d="M-8 0l18 94l421 399q307 295 393.5 426t86.5 252q0 69 -50 114.5t-148 45.5q-161 0 -375 -131l-66 127q231 143 451 143q170 0 269.5 -78t99.5 -216q0 -162 -116 -328t-708 -694h664l-33 -154h-907z" />
<glyph unicode="3" d="M-6 51l59 135q110 -36 189 -52.5t149 -16.5q190 0 301 99.5t111 252.5q0 123 -96.5 174t-241.5 51h-176l65 131h160q146 0 265.5 94.5t119.5 227.5q0 86 -56 135t-163 49q-179 0 -348 -112l-60 133q228 118 433 118q170 0 270 -86.5t100 -218.5q0 -137 -84 -241.5 t-241 -159.5q111 -25 172 -100t61 -183q0 -228 -173.5 -367t-434.5 -139q-176 0 -381 76z" />
<glyph unicode="4" d="M37 461l29 139l866 870h117l-187 -872h209l-29 -137h-208l-99 -461h-160l99 461h-637zM252 598h450l123 576z" />
<glyph unicode="5" d="M14 57l60 136q174 -76 346 -76q189 0 296 120t107 277q0 127 -73.5 195.5t-212.5 68.5q-125 0 -285 -57l174 725h745l-75 -154h-559l-95 -395q82 16 172 16q169 0 279.5 -106t110.5 -281q0 -224 -161.5 -387.5t-445.5 -163.5q-195 0 -383 82z" />
<glyph unicode="6" d="M111 473q0 218 104 462t276 389.5t373 145.5q152 0 271 -36l-52 -140q-124 31 -233 31q-165 0 -298.5 -148t-215.5 -415q184 127 364 127q172 0 266.5 -100.5t94.5 -247.5q0 -245 -145 -405.5t-377 -160.5q-203 0 -315.5 131.5t-112.5 366.5zM287 418q0 -121 74 -212 t184 -91q146 0 241 116.5t95 288.5q0 105 -61 168.5t-169 63.5q-79 0 -174 -44t-174 -116q-16 -58 -16 -174z" />
<glyph unicode="7" d="M154 0l852 1292h-746l76 154h872l-28 -135l-820 -1311h-206z" />
<glyph unicode="8" d="M80 322q0 149 91 258t300 200q-86 62 -139 148.5t-53 171.5q0 166 124.5 268t339.5 102q163 0 273 -79.5t110 -198.5q0 -132 -81.5 -230t-266.5 -178q146 -100 200 -178t54 -184q0 -133 -66.5 -234t-187 -157t-258.5 -56q-186 0 -313 102t-127 245zM256 334 q0 -102 80.5 -165t193.5 -63q142 0 235 77t93 204q0 59 -31 112.5t-92 95.5l-149 103q-179 -74 -254.5 -161t-75.5 -203zM446 1124q0 -60 45 -115t175 -145q170 71 230 140.5t60 164.5q0 86 -71.5 129t-163.5 43q-126 0 -200.5 -59t-74.5 -158z" />
<glyph unicode="9" d="M70 14l49 144q113 -37 252 -37q173 0 316.5 160t199.5 403q-185 -127 -357 -127t-271 100t-99 269q0 229 151 386.5t385 157.5q179 0 296.5 -125.5t117.5 -371.5q0 -231 -100.5 -473t-272.5 -383.5t-381 -141.5q-175 0 -286 39zM340 946q0 -115 60.5 -183.5t168.5 -68.5 q80 0 175 44t174 116q16 58 16 174q0 151 -79 227t-179 76q-149 0 -242.5 -112t-93.5 -273z" />
<glyph unicode=":" horiz-adv-x="463" d="M43 98q0 52 36 88.5t87 36.5q52 0 88.5 -36.5t36.5 -88.5q0 -50 -36.5 -86.5t-86.5 -36.5q-52 0 -88.5 36.5t-36.5 86.5zM184 764q0 51 36.5 88t86.5 37q52 0 88.5 -37t36.5 -88t-36 -88t-87 -37t-88 37t-37 88z" />
<glyph unicode=";" horiz-adv-x="463" d="M-18 -231q135 103 170 215q-51 0 -80 33t-29 85q0 53 35.5 87t85.5 34q57 0 92 -40t35 -109q0 -93 -68 -188t-190 -173zM184 764q0 51 36.5 88t86.5 37q52 0 88.5 -37t36.5 -88t-36 -88t-87 -37t-88 37t-37 88z" />
<glyph unicode="&#x3c;" horiz-adv-x="987" d="M70 657v138l848 352v-139l-680 -283l680 -287v-139z" />
<glyph unicode="=" horiz-adv-x="987" d="M111 475v139h847v-139h-847zM111 834v139h847v-139h-847z" />
<glyph unicode="&#x3e;" horiz-adv-x="987" d="M111 297v139l680 287l-680 283v139l847 -352v-138z" />
<glyph unicode="?" horiz-adv-x="840" d="M78 100q0 50 37 86.5t88 36.5q50 0 86.5 -36t36.5 -87q0 -50 -36.5 -87.5t-86.5 -37.5q-51 0 -88 37.5t-37 87.5zM160 354l86 412h76q176 0 296.5 99.5t120.5 258.5q0 94 -59.5 149.5t-153.5 55.5q-143 0 -307 -88l-57 129q213 100 395 100q152 0 251 -91.5t99 -235.5 q0 -218 -137 -353t-389 -161l-49 -230z" />
<glyph unicode="@" horiz-adv-x="1919" d="M90 334q0 305 142 570t391 415.5t551 150.5q297 0 480 -170t183 -452q0 -199 -85.5 -404t-232 -324.5t-325.5 -119.5q-147 0 -147 106q-142 -106 -281 -106q-152 0 -239 92t-87 248q0 283 174 499t439 216q130 0 225 -56l139 39l-194 -815q-9 -28 -9 -41q0 -41 56 -41 q142 0 284 218.5t142 459.5q0 249 -140 382.5t-399 133.5q-401 0 -663.5 -288t-262.5 -701q0 -304 182 -482.5t486 -178.5q227 0 407.5 86t364.5 280l94 -88q-355 -414 -880 -414q-352 0 -573.5 218t-221.5 567zM612 369q0 -234 205 -234q85 0 176.5 64.5t108.5 138.5 l123 526q-86 60 -189 60q-184 0 -304 -171t-120 -384z" />
<glyph unicode="A" horiz-adv-x="1366" d="M-74 0l891 1442l151 28l263 -1470h-172l-94 504h-555l-312 -504h-172zM494 639h446l-100 557z" />
<glyph unicode="B" horiz-adv-x="1143" d="M51 0l307 1446q151 12 299 12q255 0 364 -81t109 -203q0 -272 -325 -379q122 -18 193 -96.5t71 -188.5q0 -256 -186.5 -389t-517.5 -133q-173 0 -314 12zM256 129q68 -8 143 -8q224 0 351 97t127 280q0 223 -342 223q-72 0 -156 -16zM408 840q281 5 408.5 83t127.5 232 q0 76 -68.5 123t-205.5 47q-83 0 -160 -10z" />
<glyph unicode="C" horiz-adv-x="1262" d="M102 547q0 399 243 661t640 262q232 0 365 -71q-30 -74 -72 -148q-150 76 -328 76q-300 0 -477.5 -220.5t-177.5 -555.5q0 -196 100.5 -311t274.5 -115q163 0 387 112l63 -141q-235 -121 -481 -121q-248 0 -392.5 158t-144.5 414z" />
<glyph unicode="D" horiz-adv-x="1389" d="M51 0l307 1446q163 12 402 12q292 0 450 -158.5t158 -402.5q0 -434 -268.5 -671.5t-747.5 -237.5q-165 0 -301 12zM260 137q77 -10 156 -10q324 0 542 193t218 571q0 211 -121.5 322.5t-349.5 111.5q-107 0 -197 -10z" />
<glyph unicode="E" horiz-adv-x="1049" d="M51 0l307 1446h809l-69 -141h-590l-96 -455h518l-68 -133h-479l-123 -574h668l-31 -143h-846z" />
<glyph unicode="F" horiz-adv-x="1026" d="M51 0l307 1446h850l-71 -141h-631l-96 -453h538l-61 -133h-504l-154 -719h-178z" />
<glyph unicode="G" horiz-adv-x="1343" d="M102 547q0 398 242.5 660.5t640.5 262.5q227 0 365 -71q-42 -99 -72 -148q-143 76 -328 76q-300 0 -477.5 -221t-177.5 -557q0 -199 101.5 -316.5t281.5 -117.5q159 0 301 80l90 428l184 39l-114 -539q-104 -68 -242.5 -108t-259.5 -40q-246 0 -390.5 158.5t-144.5 413.5 z" />
<glyph unicode="H" horiz-adv-x="1405" d="M51 0l307 1446h179l-129 -608h720l129 608h179l-308 -1446h-178l148 692h-721l-148 -692h-178z" />
<glyph unicode="I" horiz-adv-x="528" d="M61 0l308 1446h180l-309 -1446h-179z" />
<glyph unicode="J" horiz-adv-x="518" d="M-162 -137q131 58 181.5 119t78.5 192l271 1272h180l-277 -1294q-33 -157 -125 -252t-260 -160z" />
<glyph unicode="K" horiz-adv-x="1165" d="M51 0l307 1446h179l-123 -584l684 584h233l-774 -655l496 -791h-199l-467 741l-158 -741h-178z" />
<glyph unicode="L" horiz-adv-x="1042" d="M51 0l307 1446h179l-273 -1288h666l-33 -158h-846z" />
<glyph unicode="M" horiz-adv-x="1817" d="M10 0l424 1427l207 43l199 -1191l704 1146l219 45l-182 -1470h-166l148 1178l-713 -1164l-129 -26l-195 1216l-360 -1204h-156z" />
<glyph unicode="N" horiz-adv-x="1372" d="M41 0l305 1436l162 34l506 -1167l241 1143h158l-305 -1442l-135 -29l-520 1217l-254 -1192h-158z" />
<glyph unicode="O" horiz-adv-x="1479" d="M92 559q0 392 216.5 651.5t572.5 259.5q252 0 409.5 -162.5t157.5 -420.5q0 -391 -216 -651.5t-570 -260.5q-254 0 -412 162.5t-158 421.5zM285 551q0 -193 109.5 -314.5t285.5 -121.5q260 0 417.5 229.5t157.5 546.5q0 196 -108 318t-287 122q-261 0 -418 -230 t-157 -550z" />
<glyph unicode="P" horiz-adv-x="1145" d="M51 0l307 1446q134 12 324 12q253 0 387.5 -95.5t134.5 -256.5q0 -251 -211.5 -377.5t-634.5 -128.5l-129 -600h-178zM385 733q313 0 470 89.5t157 269.5q0 107 -79 170t-235 63q-110 0 -188 -8z" />
<glyph unicode="Q" horiz-adv-x="1479" d="M92 559q0 391 216.5 651t572.5 260q252 0 409.5 -162t157.5 -421q0 -307 -139.5 -544t-388.5 -325q58 -52 123.5 -77t168.5 -25q55 0 101 10l-31 -141q-62 -18 -164 -18q-90 0 -179.5 44.5t-217.5 165.5q-15 -2 -62 -2q-252 0 -409.5 162.5t-157.5 421.5zM285 551 q0 -193 109 -314.5t286 -121.5q260 0 417.5 229.5t157.5 546.5q0 195 -107.5 317.5t-287.5 122.5q-262 0 -418.5 -230.5t-156.5 -549.5z" />
<glyph unicode="R" horiz-adv-x="1208" d="M51 0l307 1446q182 12 351 12q233 0 346.5 -83t113.5 -224q0 -362 -442 -451l363 -700h-193l-348 676q-89 -10 -178 -10l-142 -666h-178zM399 801q303 0 443.5 83.5t140.5 250.5q0 192 -283 192q-85 0 -190 -10z" />
<glyph unicode="S" horiz-adv-x="1071" d="M2 57l70 150q88 -40 196.5 -64t192.5 -24q143 0 244.5 75t101.5 197q0 88 -47 144t-197 131q-207 103 -283.5 195.5t-76.5 199.5q0 183 145 296t410 113q205 0 370 -69q-18 -54 -63 -144q-161 70 -336 70q-152 0 -248 -63.5t-96 -173.5q0 -73 56 -129t210 -134 q197 -98 268.5 -190t71.5 -229q0 -204 -150 -318.5t-415 -114.5q-232 0 -424 82z" />
<glyph unicode="T" horiz-adv-x="1159" d="M174 1303l72 143h1102l-72 -143h-440l-279 -1303h-178l276 1303h-481z" />
<glyph unicode="U" horiz-adv-x="1356" d="M133 338q0 99 35 262l180 846h178l-174 -821q-35 -166 -35 -252q0 -138 69.5 -198t229.5 -60q152 0 242 62t135.5 167.5t81.5 276.5l174 825h158l-180 -850q-83 -391 -232 -506t-407 -115q-228 0 -341.5 90.5t-113.5 272.5z" />
<glyph unicode="V" horiz-adv-x="1262" d="M199 1446h170l188 -1178l705 1178h174l-863 -1440l-139 -31z" />
<glyph unicode="W" horiz-adv-x="1884" d="M223 1446h162l74 -1170l608 1170l117 24l92 -1189l612 1165h168l-756 -1436l-157 -35l-92 1123l-566 -1088l-166 -35z" />
<glyph unicode="X" horiz-adv-x="1298" d="M-80 0l688 762l-325 684h186l262 -547l490 547h200l-622 -690l362 -756h-188l-295 618l-561 -618h-197z" />
<glyph unicode="Y" horiz-adv-x="1143" d="M201 1446h180l229 -633l533 633h192l-667 -795l-140 -651h-178l139 659z" />
<glyph unicode="Z" horiz-adv-x="1204" d="M-20 0l22 111l1038 1194h-776l72 141h975l-17 -90l-1054 -1213h811l-72 -143h-999z" />
<glyph unicode="[" horiz-adv-x="811" d="M57 -426l416 1958h492l-23 -113h-328l-368 -1732h327l-24 -113h-492z" />
<glyph unicode="\" horiz-adv-x="1026" d="M281 1559h145l367 -1584h-146z" />
<glyph unicode="]" horiz-adv-x="811" d="M-147 -426l24 113h328l368 1732h-327l22 113h492l-416 -1958h-491z" />
<glyph unicode="^" horiz-adv-x="961" d="M37 725l405 721h78l404 -721h-111l-332 592l-334 -592h-110z" />
<glyph unicode="_" horiz-adv-x="1024" d="M-12 -154h1048v-102h-1048v102z" />
<glyph unicode="`" horiz-adv-x="799" d="M272 1481h269l190 -285h-127z" />
<glyph unicode="a" horiz-adv-x="1112" d="M63 391q0 278 170.5 475t419.5 197q146 0 269 -53l155 28l-170 -794q-12 -53 -12 -109q0 -71 20 -115l-159 -45q-23 48 -23 129q-143 -129 -305 -129q-160 0 -262.5 119.5t-102.5 296.5zM244 393q0 -126 57 -202t160 -76q82 0 181 61t116 137l119 553q-109 62 -228 62 q-178 0 -291.5 -155.5t-113.5 -379.5z" />
<glyph unicode="b" horiz-adv-x="1133" d="M35 0l325 1522l170 37l-127 -605q154 109 310 109q166 0 261 -108t95 -296q0 -289 -170.5 -480t-443.5 -191q-35 0 -68.5 2.5t-67 7.5t-65.5 13l-66 18zM236 172q112 -49 213 -49q201 0 320.5 143.5t119.5 370.5q0 144 -54.5 216.5t-162.5 72.5q-130 0 -310 -156z" />
<glyph unicode="c" horiz-adv-x="975" d="M63 403q0 288 173 474t448 186q176 0 311 -64l-65 -135q-117 64 -254 64q-201 0 -316.5 -149t-115.5 -378q0 -126 70 -207t186 -81q113 0 274 80l64 -132q-104 -51 -180 -68.5t-183 -17.5q-179 0 -295.5 122t-116.5 306z" />
<glyph unicode="d" horiz-adv-x="1133" d="M63 391q0 273 165 472.5t415 199.5q174 0 272 -100l121 559l170 37l-278 -1315q-13 -53 -13 -109q0 -71 21 -115l-160 -45q-22 48 -22 129q-145 -129 -314 -129q-166 0 -271.5 119.5t-105.5 296.5zM244 393q0 -126 60.5 -202t168.5 -76q84 0 186.5 61.5t118.5 136.5 l107 500q-87 115 -240 115q-177 0 -289 -164.5t-112 -370.5z" />
<glyph unicode="e" horiz-adv-x="1038" d="M63 389q0 287 167 480.5t421 193.5q151 0 240.5 -87.5t89.5 -215.5q0 -127 -31 -258h-696q-10 -60 -10 -109q0 -127 67 -203.5t191 -76.5q118 0 270 76l66 -128q-170 -86 -369 -86q-179 0 -292.5 115.5t-113.5 298.5zM281 627h520q12 58 12 121q0 83 -50 133.5t-132 50.5 q-122 0 -216 -82t-134 -223z" />
<glyph unicode="f" horiz-adv-x="598" d="M10 -279l254 1194h-188l59 123h156q40 187 66.5 262.5t75 136t121 91.5t175.5 31t186 -27l-61 -131q-70 22 -135 22q-95 0 -153.5 -61.5t-112.5 -323.5h241l-59 -123h-209l-246 -1159z" />
<glyph unicode="g" horiz-adv-x="1124" d="M-31 -375l17 148q173 -88 374 -88q132 0 229.5 96t139.5 315q-136 -108 -289 -108q-166 0 -271.5 118t-105.5 295q0 281 173 471.5t442 190.5q137 0 260 -53l156 28l-199 -940q-62 -296 -191.5 -422.5t-351.5 -126.5q-208 0 -383 76zM244 414q0 -133 61 -210t176 -77 q81 0 181 62.5t116 138.5l115 538q-114 62 -227 62q-187 0 -304.5 -146.5t-117.5 -367.5z" />
<glyph unicode="h" horiz-adv-x="1139" d="M35 0l323 1522l172 37l-141 -668q89 79 193.5 125.5t193.5 46.5q136 0 205.5 -61.5t69.5 -174.5q0 -63 -17 -142l-145 -685h-164l104 490q42 201 49 247t7 62q0 56 -31.5 87.5t-118.5 31.5q-166 0 -387 -218l-149 -700h-164z" />
<glyph unicode="i" horiz-adv-x="471" d="M45 0l221 1026l172 37l-227 -1063h-166zM301 1305q0 41 30.5 70.5t71.5 29.5q42 0 71.5 -29.5t29.5 -70.5q0 -42 -29.5 -72.5t-71.5 -30.5q-41 0 -71.5 30.5t-30.5 72.5z" />
<glyph unicode="j" horiz-adv-x="471" d="M-186 -338q121 58 162.5 125t62.5 176l229 1073l170 27l-235 -1094q-43 -184 -114 -271.5t-222 -148.5zM301 1305q0 41 30.5 70.5t71.5 29.5q42 0 71.5 -29.5t29.5 -70.5q0 -42 -29.5 -72.5t-71.5 -30.5q-41 0 -71.5 30.5t-30.5 72.5z" />
<glyph unicode="k" horiz-adv-x="1032" d="M35 0l325 1522l170 37l-192 -906l539 385h227l-610 -432l419 -606h-188l-401 582l-125 -582h-164z" />
<glyph unicode="l" horiz-adv-x="471" d="M45 0l324 1522l172 37l-332 -1559h-164z" />
<glyph unicode="m" horiz-adv-x="1755" d="M35 0l219 1028l170 35l-35 -172q89 79 190.5 125.5t182.5 46.5q238 0 250 -201q92 91 202.5 146t200.5 55q126 0 189 -59t63 -177q0 -65 -14 -131l-148 -696h-164l104 489q44 205 50 248.5t6 61.5q0 59 -33 89t-98 30q-30 0 -68.5 -13t-81 -35.5t-82.5 -52t-73.5 -63 t-53.5 -65t-33 -93.5l-126 -596h-164l107 503q41 195 47 237t6 59q0 59 -33 89t-98 30q-30 0 -69 -13t-81 -35.5t-82.5 -52t-73.5 -63t-53 -65t-34 -93.5l-125 -596h-164z" />
<glyph unicode="n" horiz-adv-x="1139" d="M35 0l219 1028l170 35l-35 -172q89 79 193.5 125.5t193.5 46.5q136 0 205.5 -61.5t69.5 -174.5q0 -63 -16 -137l-146 -690h-164l104 488q42 201 49 247t7 64q0 56 -31.5 87.5t-118.5 31.5q-43 0 -100 -21t-115 -56.5t-104 -79.5t-69 -89q-11 -22 -43 -176l-105 -496h-164 z" />
<glyph unicode="o" horiz-adv-x="1128" d="M63 399q0 281 158.5 472.5t419.5 191.5q195 0 309.5 -118t114.5 -306q0 -280 -158.5 -472t-417.5 -192q-196 0 -311 118t-115 306zM244 397q0 -125 67.5 -205.5t182.5 -80.5q176 0 283.5 155.5t107.5 372.5q0 125 -68 207t-182 82q-177 0 -284 -156t-107 -375z" />
<glyph unicode="p" horiz-adv-x="1130" d="M-61 -451l264 1242q12 55 12 112q0 82 -16 127l155 33q23 -46 23 -129q147 129 313 129t271.5 -119t105.5 -297q0 -286 -161.5 -479t-418.5 -193q-71 0 -150.5 28.5t-121.5 72.5l-106 -490zM266 289q0 -85 59.5 -131.5t159.5 -46.5q181 0 291.5 156.5t110.5 377.5 q0 126 -61 202.5t-169 76.5q-134 0 -292 -142q-82 -390 -90.5 -425.5t-8.5 -67.5z" />
<glyph unicode="q" horiz-adv-x="1133" d="M63 391q0 281 172 476.5t431 195.5q149 0 274 -53l158 28l-314 -1452l-170 -37l113 533q-141 -107 -287 -107q-166 0 -271.5 119.5t-105.5 296.5zM244 393q0 -127 60 -202.5t169 -75.5q83 0 185.5 60.5t119.5 139.5l119 551q-109 62 -235 62q-187 0 -302.5 -153.5 t-115.5 -381.5z" />
<glyph unicode="r" horiz-adv-x="721" d="M35 0l227 1032l141 31l-41 -199q173 199 328 199q71 0 113 -8l-66 -158q-32 10 -90 10q-86 0 -193 -100t-139 -257l-116 -550h-164z" />
<glyph unicode="s" horiz-adv-x="897" d="M4 43l59 137q129 -65 295 -65q106 0 177 44.5t71 125.5q0 57 -45 96.5t-137 83.5q-172 82 -223 147t-51 140q0 100 51 169.5t149.5 105.5t229.5 36q151 0 280 -64l-65 -133q-46 27 -118.5 45.5t-125.5 18.5q-238 0 -238 -146q0 -43 39.5 -79.5t149.5 -88.5 q152 -70 211 -141t59 -158q0 -168 -112.5 -255t-323.5 -87q-188 0 -332 68z" />
<glyph unicode="t" horiz-adv-x="684" d="M85 915l59 123h163l60 273l170 35l-66 -308h250l-59 -123h-218l-129 -615q-16 -77 -16 -114q0 -49 17 -61t57 -12q25 0 70 8t83 20l25 -131q-112 -35 -229 -35q-195 0 -195 179q0 37 21 135l133 626h-196z" />
<glyph unicode="u" horiz-adv-x="1139" d="M84 211q0 65 18 149l142 666l172 37l-136 -636q-21 -95 -25.5 -132t-4.5 -55q0 -65 38 -92t118 -27q89 0 233.5 91t173.5 237l121 577l172 37l-170 -801q-14 -72 -14 -125q0 -72 18 -117l-160 -45q-24 52 -24 181q-205 -181 -391 -181q-139 0 -210 63.5t-71 172.5z" />
<glyph unicode="v" horiz-adv-x="954" d="M119 1038h164l131 -815l477 815h160l-615 -1036l-133 -27z" />
<glyph unicode="w" horiz-adv-x="1571" d="M113 1038h151l117 -798l446 749l91 19l116 -775l488 805h159l-630 -1036l-127 -27l-113 730l-422 -705l-117 -25z" />
<glyph unicode="x" horiz-adv-x="967" d="M-119 0l510 539l-254 499h174l193 -381l360 381h189l-484 -510l271 -528h-174l-209 410l-389 -410h-187z" />
<glyph unicode="y" horiz-adv-x="948" d="M-150 -334q155 64 262.5 173t209.5 284l-207 915h166l157 -729l461 729h168l-633 -1001q-123 -193 -239 -305.5t-287 -182.5z" />
<glyph unicode="z" horiz-adv-x="852" d="M-66 0l25 117l719 790h-524l65 131h707l-17 -80l-749 -823h608l-66 -135h-768z" />
<glyph unicode="{" horiz-adv-x="580" d="M4 -166q0 51 15 109t73 165q61 111 76.5 173t15.5 116q0 104 -53 158q76 51 118 149t42 201q0 31 -9 92q-10 62 -10 93q0 268 263 469h174q-119 -90 -188.5 -207t-69.5 -230q0 -31 9 -93q9 -64 9 -97q0 -249 -184 -377q69 -80 69 -176q0 -55 -16 -118t-78 -178 q-57 -105 -71.5 -158.5t-14.5 -98.5q0 -157 98 -277h-153q-52 57 -83.5 136t-31.5 149z" />
<glyph unicode="|" horiz-adv-x="459" d="M199 -512v2048h151v-2048h-151z" />
<glyph unicode="}" horiz-adv-x="580" d="M-109 -451q119 90 189 207t70 230q0 31 -10 93q-9 64 -9 97q0 249 184 377q-69 80 -69 176q0 55 16 118t78 178q57 105 71.5 158.5t14.5 98.5q0 157 -98 277h153q52 -57 83.5 -136t31.5 -149q0 -51 -15 -109t-73 -165q-61 -111 -76.5 -173t-15.5 -116q0 -104 53 -158 q-76 -51 -118 -149t-42 -201q0 -31 9 -92q10 -62 10 -93q0 -268 -262 -469h-175z" />
<glyph unicode="~" horiz-adv-x="1116" d="M59 588v172q101 112 265 112q109 0 260 -67q160 -68 227 -68q120 0 246 119v-174q-114 -109 -264 -109q-86 0 -246 68q-151 66 -240 66q-127 0 -248 -119z" />
<glyph unicode="&#xa1;" horiz-adv-x="496" d="M-27 -408l224 1047l172 45l-226 -1055zM201 938q0 52 36.5 88.5t88.5 36.5q50 0 86.5 -36.5t36.5 -86.5q0 -52 -36.5 -88.5t-86.5 -36.5q-52 0 -88.5 36t-36.5 87z" />
<glyph unicode="&#xa2;" horiz-adv-x="975" d="M63 403q0 281 169 470.5t450 189.5q36 0 51 -2l101 229h127l-107 -241q91 -19 143 -45l-71 -142q-56 35 -129 53l-353 -796q22 -6 52 -6q119 0 278 80l64 -132q-94 -46 -172.5 -66t-190.5 -20q-39 0 -88 9l-102 -232h-127l118 271q-213 121 -213 380zM244 401 q0 -154 96 -233l334 760q-201 -2 -315.5 -150.5t-114.5 -376.5z" />
<glyph unicode="&#xa3;" d="M61 0l33 154h23q119 0 193.5 120.5t74.5 395.5h-205l58 118h147q0 39 -8 105q-8 76 -8 113q0 220 144 342t394 122q166 0 314 -60l-62 -138q-130 61 -272 61q-172 0 -258 -78.5t-86 -234.5q0 -33 10 -123q10 -77 10 -109h363l-58 -118h-305q-6 -101 -11 -154.5t-30 -125 t-68 -130t-106 -106.5h668l-76 -154h-879z" />
<glyph unicode="&#xa4;" d="M84 315l184 185q-75 101 -75 227q0 127 75 227l-184 185l74 75l184 -184q103 76 227 76q126 0 230 -76l184 184l74 -75l-185 -185q76 -103 76 -227t-76 -227l185 -185l-74 -75l-184 184q-101 -74 -230 -74q-126 0 -227 74l-184 -184zM301 727q0 -112 78 -191t190 -79 q114 0 193.5 78.5t79.5 191.5q0 114 -83 193t-190 79q-112 0 -190 -79.5t-78 -192.5z" />
<glyph unicode="&#xa5;" d="M141 322l27 120h289l24 123h-288l26 121h275l-232 760h184l185 -631l479 631h178l-590 -760h281l-27 -121h-301l-24 -123h301l-27 -120h-301l-68 -322h-170l68 322h-289z" />
<glyph unicode="&#xa6;" horiz-adv-x="459" d="M199 -358v716h151v-716h-151zM199 666v716h151v-716h-151z" />
<glyph unicode="&#xa7;" horiz-adv-x="1012" d="M-23 -238l64 138q132 -62 268 -62q140 0 226 56t86 152q0 61 -53.5 100t-211.5 116q-160 78 -216.5 145.5t-56.5 152.5q0 198 236 323q-103 68 -103 196q0 156 135.5 273.5t379.5 117.5q166 0 303 -63l-65 -137q-122 61 -267 61q-139 0 -225 -56t-86 -153q0 -59 53 -98.5 t211 -116.5q160 -76 217 -143.5t57 -153.5q0 -202 -237 -323q104 -71 104 -196q0 -155 -134 -273.5t-381 -118.5q-167 0 -304 63zM256 605q0 -66 79 -117.5t240 -125.5q180 80 180 202q0 66 -81 119t-238 124q-180 -77 -180 -202z" />
<glyph unicode="&#xa8;" horiz-adv-x="799" d="M250 1303q0 44 31 75t75 31q45 0 76 -31t31 -75q0 -45 -31 -76t-76 -31q-44 0 -75 31t-31 76zM674 1303q0 44 31 75t75 31q45 0 76 -31t31 -75q0 -45 -31 -76t-76 -31q-44 0 -75 31t-31 76z" />
<glyph unicode="&#xa9;" horiz-adv-x="1688" d="M121 713q0 311 223 534t535 223q311 0 534 -223t223 -534q0 -312 -223 -535t-534 -223q-312 0 -535 223t-223 535zM276 715q0 -251 176 -427.5t427 -176.5q248 0 425 177t177 427q0 249 -176.5 424.5t-425.5 175.5q-250 0 -426.5 -175.5t-176.5 -424.5zM500 682 q0 204 118.5 321t325.5 117q101 0 213 -49q-21 -63 -41 -104q-99 47 -190 47q-133 0 -208 -84.5t-75 -235.5q0 -144 64.5 -222.5t183.5 -78.5q93 0 223 66l55 -103q-131 -75 -286 -75q-178 0 -280.5 110t-102.5 291z" />
<glyph unicode="&#xaa;" horiz-adv-x="721" d="M158 1051q0 174 107 296.5t274 122.5q91 0 172 -32l108 20l-85 -393q-32 -144 -32 -172q0 -41 17 -76l-117 -33q-14 30 -18 70q-88 -68 -185 -68q-106 0 -173.5 76t-67.5 189zM289 1051q0 -72 33 -116t98 -44q49 0 109 36t69 79l72 329q-62 33 -133 33 q-111 0 -179.5 -90.5t-68.5 -226.5z" />
<glyph unicode="&#xab;" horiz-adv-x="1210" d="M6 518l561 520h209l-579 -528l374 -510h-188zM471 518l561 520h209l-579 -528l374 -510h-188z" />
<glyph unicode="&#xac;" horiz-adv-x="987" d="M111 836v139h847v-500h-139v361h-708z" />
<glyph unicode="&#xad;" horiz-adv-x="791" d="M115 434l37 170h524l-37 -170h-524z" />
<glyph unicode="&#xae;" horiz-adv-x="1688" d="M121 713q0 311 223 534t535 223q311 0 534 -223t223 -534q0 -312 -223 -535t-534 -223q-312 0 -535 223t-223 535zM276 715q0 -251 176 -427.5t427 -176.5q248 0 425 177t177 427q0 249 -176.5 424.5t-425.5 175.5q-250 0 -426.5 -175.5t-176.5 -424.5zM602 295v813 q108 8 227 8q169 0 239.5 -51t70.5 -145q0 -178 -185 -233q219 -286 293 -392h-157l-267 371l-88 -6v-365h-133zM735 760q269 16 269 153q0 55 -41 78t-132 23q-67 0 -96 -2v-252z" />
<glyph unicode="&#xaf;" horiz-adv-x="1024" d="M-12 1542v103h1048v-103h-1048z" />
<glyph unicode="&#xb0;" horiz-adv-x="821" d="M233 1198q0 113 80 192.5t193 79.5t193.5 -80t80.5 -192q0 -114 -80.5 -194t-193.5 -80q-112 0 -192.5 80t-80.5 194zM369 1198q0 -57 41 -98t98 -41q56 0 96.5 41t40.5 98t-40 97t-97 40t-98 -40.5t-41 -96.5z" />
<glyph unicode="&#xb1;" horiz-adv-x="987" d="M111 18v140h847v-140h-847zM111 653v140h354v354h139v-354h354v-140h-354v-354h-139v354h-354z" />
<glyph unicode="&#xb2;" horiz-adv-x="864" d="M129 698l16 68q417 302 506.5 382t89.5 146q0 76 -127 76q-109 0 -260 -74l-43 95q161 79 320 79q116 0 184 -42t68 -119q0 -86 -75.5 -172t-436.5 -332h407l-22 -107h-627z" />
<glyph unicode="&#xb3;" horiz-adv-x="864" d="M168 723l35 96q105 -33 227 -33q125 0 194.5 41.5t69.5 110.5q0 61 -56 82.5t-159 21.5h-125l45 93h113q90 0 154.5 44t64.5 105q0 38 -36 62t-103 24q-122 0 -266 -63l-39 94q161 69 321 69q120 0 190 -50.5t70 -127.5q0 -134 -176 -196q144 -42 144 -150 q0 -126 -121.5 -193t-294.5 -67q-104 0 -252 37z" />
<glyph unicode="&#xb4;" horiz-adv-x="799" d="M362 1196l314 285h274l-454 -285h-134z" />
<glyph unicode="&#xb5;" horiz-adv-x="1161" d="M-20 -451l315 1489h164l-102 -477q-38 -177 -42 -210t-4 -63q0 -173 158 -173q99 0 241 86t172 240l126 597h163l-221 -1038h-162l33 147q-199 -172 -383 -172q-121 0 -192 50l-90 -428z" />
<glyph unicode="&#xb6;" horiz-adv-x="1243" d="M135 1024q0 183 115 302.5t358 119.5h633v-174h-143v-1682h-168v1682h-223v-1682h-168v1026q-195 13 -299.5 126.5t-104.5 281.5z" />
<glyph unicode="&#xb7;" horiz-adv-x="463" d="M154 723q0 52 36 88.5t86 36.5q52 0 88.5 -36t36.5 -87q0 -52 -36 -88.5t-86 -36.5q-52 0 -88.5 36t-36.5 87z" />
<glyph unicode="&#xb8;" horiz-adv-x="799" d="M231 -426l11 111q78 -27 145 -27q58 0 94.5 20t36.5 58q0 46 -49.5 70t-124.5 24l64 182h120l-45 -114q179 -28 179 -172q0 -84 -70 -130.5t-201 -46.5q-72 0 -160 25z" />
<glyph unicode="&#xb9;" horiz-adv-x="864" d="M330 1284l12 109l266 77h74l-164 -772h-137l137 641z" />
<glyph unicode="&#xba;" horiz-adv-x="715" d="M168 1018q0 170 113 310t281 140q117 0 182 -60t65 -171q0 -171 -111.5 -312t-280.5 -141q-117 0 -183 61t-66 173zM305 1044q0 -157 132 -157q109 0 173 102.5t64 220.5q0 156 -133 156q-111 0 -173.5 -102.5t-62.5 -219.5z" />
<glyph unicode="&#xbb;" horiz-adv-x="1210" d="M-43 0l580 528l-375 510h188l377 -518l-561 -520h-209zM422 0l579 528l-374 510h188l377 -518l-561 -520h-209z" />
<glyph unicode="&#xbc;" horiz-adv-x="1853" d="M242 1284l12 109l266 77h74l-164 -772h-137l137 641zM204 -25l1159 1495h138l-1160 -1495h-137zM1018 195l21 94l533 483h123l-100 -481h141l-22 -96h-142l-38 -195h-133l43 195h-426zM1176 291h284l70 321z" />
<glyph unicode="&#xbd;" horiz-adv-x="1853" d="M265 1284l12 109l266 77h74l-164 -772h-137l137 641zM209 -25l1159 1495h138l-1160 -1495h-137zM935 0l16 68q417 302 506.5 382t89.5 146q0 76 -127 76q-109 0 -260 -74l-43 95q161 79 320 79q116 0 184 -42t68 -119q0 -86 -75.5 -172t-436.5 -332h407l-22 -107h-627z " />
<glyph unicode="&#xbe;" horiz-adv-x="1853" d="M143 723l35 96q105 -33 227 -33q125 0 194.5 41.5t69.5 110.5q0 61 -56 82.5t-159 21.5h-125l45 93h113q90 0 154.5 44t64.5 105q0 38 -36 62t-103 24q-122 0 -266 -63l-39 94q161 69 321 69q120 0 190 -50.5t70 -127.5q0 -134 -176 -196q144 -42 144 -150 q0 -126 -121.5 -193t-294.5 -67q-104 0 -252 37zM334 -25l1159 1495h138l-1160 -1495h-137zM1002 195l21 94l533 483h123l-100 -481h141l-22 -96h-142l-38 -195h-133l43 195h-426zM1160 291h284l70 321z" />
<glyph unicode="&#xbf;" horiz-adv-x="840" d="M-63 -104q0 218 136.5 352.5t389.5 161.5l49 229l172 45l-86 -412h-76q-176 0 -297 -99.5t-121 -258.5q0 -93 59.5 -149t153.5 -56q144 0 308 88l57 -129q-213 -100 -395 -100q-152 0 -251 92t-99 236zM518 938q0 51 36.5 88t86.5 37t87.5 -37.5t37.5 -87.5 q0 -51 -37 -87t-88 -36q-50 0 -86.5 36.5t-36.5 86.5z" />
<glyph unicode="&#xc0;" horiz-adv-x="1366" d="M-74 0l891 1442l151 28l263 -1470h-172l-94 504h-555l-312 -504h-172zM494 639h446l-100 557zM598 1831h269l190 -285h-127z" />
<glyph unicode="&#xc1;" horiz-adv-x="1366" d="M-74 0l891 1442l151 28l263 -1470h-172l-94 504h-555l-312 -504h-172zM494 639h446l-100 557zM688 1546l314 285h274l-454 -285h-134z" />
<glyph unicode="&#xc2;" horiz-adv-x="1366" d="M-74 0l891 1442l151 28l263 -1470h-172l-94 504h-555l-312 -504h-172zM494 639h446l-100 557zM501 1546l334 285h199l211 -285h-150l-182 190l-262 -190h-150z" />
<glyph unicode="&#xc3;" horiz-adv-x="1366" d="M-74 0l891 1442l151 28l263 -1470h-172l-94 504h-555l-312 -504h-172zM494 639h446l-100 557zM529 1547q26 116 96 172.5t150 56.5q77 0 151 -49q77 -51 117 -51q33 0 60.5 28.5t37.5 71.5h131q-28 -122 -101.5 -175.5t-144.5 -53.5q-80 0 -151 51q-68 49 -117 49 q-33 0 -60.5 -28.5t-37.5 -71.5h-131z" />
<glyph unicode="&#xc4;" horiz-adv-x="1366" d="M-74 0l891 1442l151 28l263 -1470h-172l-94 504h-555l-312 -504h-172zM494 639h446l-100 557zM575 1653q0 44 31 75t75 31q45 0 76 -31t31 -75q0 -45 -31 -76t-76 -31q-44 0 -75 31t-31 76zM999 1653q0 44 31 75t75 31q45 0 76 -31t31 -75q0 -45 -31 -76t-76 -31 q-44 0 -75 31t-31 76z" />
<glyph unicode="&#xc5;" horiz-adv-x="1366" d="M-74 0l891 1442l151 28l263 -1470h-172l-94 504h-555l-312 -504h-172zM494 639h446l-100 557zM670 1763q0 98 69.5 168t168.5 70q97 0 167 -70t70 -168t-70 -167.5t-167 -69.5q-98 0 -168 69.5t-70 167.5zM789 1763q0 -49 34.5 -84t84.5 -35q49 0 83.5 35t34.5 84 t-34.5 84t-83.5 35t-84 -35t-35 -84z" />
<glyph unicode="&#xc6;" horiz-adv-x="1698" d="M-106 0l1052 1446h871l-70 -141h-590l-96 -455h518l-68 -133h-479l-121 -574h666l-31 -143h-846l95 440h-394l-313 -440h-194zM489 573h332l135 635z" />
<glyph unicode="&#xc7;" horiz-adv-x="1262" d="M102 547q0 399 243 661t640 262q232 0 365 -71q-30 -74 -72 -148q-150 76 -328 76q-300 0 -477.5 -220.5t-177.5 -555.5q0 -196 100.5 -311t274.5 -115q163 0 387 111l63 -140q-193 -98 -424 -119l-30 -79q178 -28 178 -172q0 -84 -70 -130.5t-201 -46.5q-72 0 -159 25 l10 111q78 -27 145 -27q58 0 94.5 20t36.5 58q0 44 -47.5 69t-126.5 25l52 147q-227 23 -351.5 178.5t-124.5 391.5z" />
<glyph unicode="&#xc8;" horiz-adv-x="1049" d="M51 0l307 1446h809l-69 -141h-590l-96 -455h518l-68 -133h-479l-123 -574h668l-31 -143h-846zM438 1831h269l190 -285h-127z" />
<glyph unicode="&#xc9;" horiz-adv-x="1049" d="M51 0l307 1446h809l-69 -141h-590l-96 -455h518l-68 -133h-479l-123 -574h668l-31 -143h-846zM559 1546l314 285h274l-454 -285h-134z" />
<glyph unicode="&#xca;" horiz-adv-x="1049" d="M51 0l307 1446h809l-69 -141h-590l-96 -455h518l-68 -133h-479l-123 -574h668l-31 -143h-846zM372 1546l334 285h199l211 -285h-150l-182 190l-262 -190h-150z" />
<glyph unicode="&#xcb;" horiz-adv-x="1049" d="M51 0l307 1446h809l-69 -141h-590l-96 -455h518l-68 -133h-479l-123 -574h668l-31 -143h-846zM446 1653q0 44 31 75t75 31q45 0 76 -31t31 -75q0 -45 -31 -76t-76 -31q-44 0 -75 31t-31 76zM870 1653q0 44 31 75t75 31q45 0 76 -31t31 -75q0 -45 -31 -76t-76 -31 q-44 0 -75 31t-31 76z" />
<glyph unicode="&#xcc;" horiz-adv-x="528" d="M61 0l308 1446h180l-309 -1446h-179zM178 1831h269l190 -285h-127z" />
<glyph unicode="&#xcd;" horiz-adv-x="528" d="M61 0l308 1446h180l-309 -1446h-179zM268 1546l314 285h274l-454 -285h-134z" />
<glyph unicode="&#xce;" horiz-adv-x="528" d="M61 0l308 1446h180l-309 -1446h-179zM81 1546l334 285h199l211 -285h-150l-182 190l-262 -190h-150z" />
<glyph unicode="&#xcf;" horiz-adv-x="528" d="M61 0l308 1446h180l-309 -1446h-179zM156 1653q0 44 31 75t75 31q45 0 76 -31t31 -75q0 -45 -31 -76t-76 -31q-44 0 -75 31t-31 76zM580 1653q0 44 31 75t75 31q45 0 76 -31t31 -75q0 -45 -31 -76t-76 -31q-44 0 -75 31t-31 76z" />
<glyph unicode="&#xd0;" horiz-adv-x="1389" d="M27 653l28 140h164l139 653q163 12 402 12q292 0 450 -158.5t158 -402.5q0 -434 -268.5 -671.5t-747.5 -237.5q-165 0 -301 12l139 653h-163zM260 137q77 -10 156 -10q324 0 542 193t218 571q0 211 -121.5 322.5t-349.5 111.5q-107 0 -197 -10l-111 -522h373l-29 -140 h-372z" />
<glyph unicode="&#xd1;" horiz-adv-x="1372" d="M41 0l305 1436l162 34l506 -1167l241 1143h158l-305 -1442l-135 -29l-520 1217l-254 -1192h-158zM531 1547q26 116 96 172.5t150 56.5q77 0 151 -49q77 -51 117 -51q33 0 60.5 28.5t37.5 71.5h131q-28 -122 -101.5 -175.5t-144.5 -53.5q-80 0 -151 51q-68 49 -117 49 q-33 0 -60.5 -28.5t-37.5 -71.5h-131z" />
<glyph unicode="&#xd2;" horiz-adv-x="1479" d="M92 559q0 392 216.5 651.5t572.5 259.5q252 0 409.5 -162.5t157.5 -420.5q0 -391 -216 -651.5t-570 -260.5q-254 0 -412 162.5t-158 421.5zM285 551q0 -193 109.5 -314.5t285.5 -121.5q260 0 417.5 229.5t157.5 546.5q0 196 -108 318t-287 122q-261 0 -418 -230 t-157 -550zM653 1831h269l190 -285h-127z" />
<glyph unicode="&#xd3;" horiz-adv-x="1479" d="M92 559q0 392 216.5 651.5t572.5 259.5q252 0 409.5 -162.5t157.5 -420.5q0 -391 -216 -651.5t-570 -260.5q-254 0 -412 162.5t-158 421.5zM285 551q0 -193 109.5 -314.5t285.5 -121.5q260 0 417.5 229.5t157.5 546.5q0 196 -108 318t-287 122q-261 0 -418 -230 t-157 -550zM723 1546l314 285h274l-454 -285h-134z" />
<glyph unicode="&#xd4;" horiz-adv-x="1479" d="M92 559q0 392 216.5 651.5t572.5 259.5q252 0 409.5 -162.5t157.5 -420.5q0 -391 -216 -651.5t-570 -260.5q-254 0 -412 162.5t-158 421.5zM285 551q0 -193 109.5 -314.5t285.5 -121.5q260 0 417.5 229.5t157.5 546.5q0 196 -108 318t-287 122q-261 0 -418 -230 t-157 -550zM536 1546l334 285h199l211 -285h-150l-182 190l-262 -190h-150z" />
<glyph unicode="&#xd5;" horiz-adv-x="1479" d="M92 559q0 392 216.5 651.5t572.5 259.5q252 0 409.5 -162.5t157.5 -420.5q0 -391 -216 -651.5t-570 -260.5q-254 0 -412 162.5t-158 421.5zM285 551q0 -193 109.5 -314.5t285.5 -121.5q260 0 417.5 229.5t157.5 546.5q0 196 -108 318t-287 122q-261 0 -418 -230 t-157 -550zM543 1547q26 116 96 172.5t150 56.5q77 0 151 -49q77 -51 117 -51q33 0 60.5 28.5t37.5 71.5h131q-28 -122 -101.5 -175.5t-144.5 -53.5q-80 0 -151 51q-68 49 -117 49q-33 0 -60.5 -28.5t-37.5 -71.5h-131z" />
<glyph unicode="&#xd6;" horiz-adv-x="1479" d="M92 559q0 392 216.5 651.5t572.5 259.5q252 0 409.5 -162.5t157.5 -420.5q0 -391 -216 -651.5t-570 -260.5q-254 0 -412 162.5t-158 421.5zM285 551q0 -193 109.5 -314.5t285.5 -121.5q260 0 417.5 229.5t157.5 546.5q0 196 -108 318t-287 122q-261 0 -418 -230 t-157 -550zM610 1653q0 44 31 75t75 31q45 0 76 -31t31 -75q0 -45 -31 -76t-76 -31q-44 0 -75 31t-31 76zM1034 1653q0 44 31 75t75 31q45 0 76 -31t31 -75q0 -45 -31 -76t-76 -31q-44 0 -75 31t-31 76z" />
<glyph unicode="&#xd7;" horiz-adv-x="987" d="M113 1049l98 98l328 -324l323 328l101 -100l-326 -326l328 -326l-99 -98l-327 324l-324 -328l-100 100l325 326z" />
<glyph unicode="&#xd8;" horiz-adv-x="1479" d="M-47 39l219 201q-80 141 -80 319q0 392 216.5 651.5t572.5 259.5q272 0 434 -188l209 188l59 -63l-217 -199q82 -139 82 -321q0 -391 -216 -651.5t-570 -260.5q-275 0 -437 189l-209 -189zM285 551q0 -99 30 -182l869 792q-112 170 -324 170q-261 0 -418 -230t-157 -550z M356 285q110 -170 324 -170q260 0 417.5 229.5t157.5 546.5q0 105 -30 188z" />
<glyph unicode="&#xd9;" horiz-adv-x="1356" d="M133 338q0 99 35 262l180 846h178l-174 -821q-35 -166 -35 -252q0 -138 69.5 -198t229.5 -60q152 0 242 62t135.5 167.5t81.5 276.5l174 825h158l-180 -850q-83 -391 -232 -506t-407 -115q-228 0 -341.5 90.5t-113.5 272.5zM592 1831h269l190 -285h-127z" />
<glyph unicode="&#xda;" horiz-adv-x="1356" d="M133 338q0 99 35 262l180 846h178l-174 -821q-35 -166 -35 -252q0 -138 69.5 -198t229.5 -60q152 0 242 62t135.5 167.5t81.5 276.5l174 825h158l-180 -850q-83 -391 -232 -506t-407 -115q-228 0 -341.5 90.5t-113.5 272.5zM682 1546l314 285h274l-454 -285h-134z" />
<glyph unicode="&#xdb;" horiz-adv-x="1356" d="M133 338q0 99 35 262l180 846h178l-174 -821q-35 -166 -35 -252q0 -138 69.5 -198t229.5 -60q152 0 242 62t135.5 167.5t81.5 276.5l174 825h158l-180 -850q-83 -391 -232 -506t-407 -115q-228 0 -341.5 90.5t-113.5 272.5zM495 1546l334 285h199l211 -285h-150l-182 190 l-262 -190h-150z" />
<glyph unicode="&#xdc;" horiz-adv-x="1356" d="M133 338q0 99 35 262l180 846h178l-174 -821q-35 -166 -35 -252q0 -138 69.5 -198t229.5 -60q152 0 242 62t135.5 167.5t81.5 276.5l174 825h158l-180 -850q-83 -391 -232 -506t-407 -115q-228 0 -341.5 90.5t-113.5 272.5zM569 1653q0 44 31 75t75 31q45 0 76 -31 t31 -75q0 -45 -31 -76t-76 -31q-44 0 -75 31t-31 76zM993 1653q0 44 31 75t75 31q45 0 76 -31t31 -75q0 -45 -31 -76t-76 -31q-44 0 -75 31t-31 76z" />
<glyph unicode="&#xdd;" horiz-adv-x="1143" d="M201 1446h180l229 -633l533 633h192l-667 -795l-140 -651h-178l139 659zM575 1546l314 285h274l-454 -285h-134z" />
<glyph unicode="&#xde;" horiz-adv-x="1159" d="M51 0l307 1446h179l-66 -305q46 2 143 2q266 0 394.5 -98t128.5 -254q0 -251 -203 -376.5t-643 -129.5l-62 -285h-178zM317 418q324 2 475.5 90t151.5 268q0 108 -78.5 171t-234.5 63q-111 0 -189 -9z" />
<glyph unicode="&#xdf;" horiz-adv-x="1212" d="M55 0l195 915h-189l60 123h155q52 261 125 355.5t166 130t199 35.5q146 0 227.5 -58t81.5 -164q0 -140 -172 -299q-105 -98 -141.5 -155.5t-36.5 -100.5q0 -49 46.5 -88t164.5 -96q223 -108 223 -279q0 -170 -111.5 -257t-324.5 -87q-89 0 -172 17t-160 51l62 137 q68 -33 140 -49t148 -16q113 0 183.5 45t70.5 127q0 97 -157 170q-158 73 -218.5 138.5t-60.5 156.5q0 60 27 121t137 165q114 107 151 166.5t37 116.5q0 46 -44.5 77.5t-118.5 31.5q-119 0 -187 -69.5t-98 -211.5l-244 -1149h-164z" />
<glyph unicode="&#xe0;" horiz-adv-x="1112" d="M63 391q0 278 170.5 475t419.5 197q146 0 269 -53l155 28l-170 -794q-12 -53 -12 -109q0 -71 20 -115l-159 -45q-23 48 -23 129q-143 -129 -305 -129q-160 0 -262.5 119.5t-102.5 296.5zM244 393q0 -126 57 -202t160 -76q82 0 181 61t116 137l119 553q-109 62 -228 62 q-178 0 -291.5 -155.5t-113.5 -379.5zM430 1481h269l190 -285h-127z" />
<glyph unicode="&#xe1;" horiz-adv-x="1112" d="M63 391q0 278 170.5 475t419.5 197q146 0 269 -53l155 28l-170 -794q-12 -53 -12 -109q0 -71 20 -115l-159 -45q-23 48 -23 129q-143 -129 -305 -129q-160 0 -262.5 119.5t-102.5 296.5zM244 393q0 -126 57 -202t160 -76q82 0 181 61t116 137l119 553q-109 62 -228 62 q-178 0 -291.5 -155.5t-113.5 -379.5zM520 1196l314 285h274l-454 -285h-134z" />
<glyph unicode="&#xe2;" horiz-adv-x="1112" d="M63 391q0 278 170.5 475t419.5 197q146 0 269 -53l155 28l-170 -794q-12 -53 -12 -109q0 -71 20 -115l-159 -45q-23 48 -23 129q-143 -129 -305 -129q-160 0 -262.5 119.5t-102.5 296.5zM244 393q0 -126 57 -202t160 -76q82 0 181 61t116 137l119 553q-109 62 -228 62 q-178 0 -291.5 -155.5t-113.5 -379.5zM333 1196l334 285h199l211 -285h-150l-182 190l-262 -190h-150z" />
<glyph unicode="&#xe3;" horiz-adv-x="1112" d="M63 391q0 278 170.5 475t419.5 197q146 0 269 -53l155 28l-170 -794q-12 -53 -12 -109q0 -71 20 -115l-159 -45q-23 48 -23 129q-143 -129 -305 -129q-160 0 -262.5 119.5t-102.5 296.5zM244 393q0 -126 57 -202t160 -76q82 0 181 61t116 137l119 553q-109 62 -228 62 q-178 0 -291.5 -155.5t-113.5 -379.5zM361 1196q26 116 96 172.5t150 56.5q77 0 151 -49q77 -51 117 -51q33 0 60.5 28.5t37.5 71.5h131q-28 -122 -101.5 -175.5t-144.5 -53.5q-80 0 -151 51q-68 49 -117 49q-33 0 -60.5 -28.5t-37.5 -71.5h-131z" />
<glyph unicode="&#xe4;" horiz-adv-x="1112" d="M63 391q0 278 170.5 475t419.5 197q146 0 269 -53l155 28l-170 -794q-12 -53 -12 -109q0 -71 20 -115l-159 -45q-23 48 -23 129q-143 -129 -305 -129q-160 0 -262.5 119.5t-102.5 296.5zM244 393q0 -126 57 -202t160 -76q82 0 181 61t116 137l119 553q-109 62 -228 62 q-178 0 -291.5 -155.5t-113.5 -379.5zM408 1303q0 44 31 75t75 31q45 0 76 -31t31 -75q0 -45 -31 -76t-76 -31q-44 0 -75 31t-31 76zM832 1303q0 44 31 75t75 31q45 0 76 -31t31 -75q0 -45 -31 -76t-76 -31q-44 0 -75 31t-31 76z" />
<glyph unicode="&#xe5;" horiz-adv-x="1112" d="M63 391q0 278 170.5 475t419.5 197q146 0 269 -53l155 28l-170 -794q-12 -53 -12 -109q0 -71 20 -115l-159 -45q-23 48 -23 129q-143 -129 -305 -129q-160 0 -262.5 119.5t-102.5 296.5zM244 393q0 -126 57 -202t160 -76q82 0 181 61t116 137l119 553q-109 62 -228 62 q-178 0 -291.5 -155.5t-113.5 -379.5zM502 1413q0 98 69.5 168t168.5 70q97 0 167 -70t70 -168t-70 -167.5t-167 -69.5q-98 0 -168 69.5t-70 167.5zM621 1413q0 -49 34.5 -84t84.5 -35q49 0 83.5 35t34.5 84t-34.5 84t-83.5 35t-84 -35t-35 -84z" />
<glyph unicode="&#xe6;" horiz-adv-x="1747" d="M63 391q0 278 170.5 475t419.5 197q141 0 269 -53l125 28l-27 -123q159 148 340 148q152 0 241 -88t89 -219q0 -124 -31 -254h-696q-11 -60 -11 -109q0 -129 68.5 -204.5t189.5 -75.5t273 76l63 -128q-163 -86 -368 -86q-120 0 -210 58t-134 162q-211 -220 -406 -220 q-160 0 -262.5 119.5t-102.5 296.5zM244 393q0 -126 57 -202t160 -76q85 0 183 62t114 134l119 555q-107 62 -228 62q-178 0 -291.5 -155.5t-113.5 -379.5zM989 627h520q13 83 13 118q0 87 -52 137t-143 50q-113 0 -208.5 -88t-129.5 -217z" />
<glyph unicode="&#xe7;" horiz-adv-x="975" d="M63 403q0 288 173 474t448 186q176 0 311 -64l-65 -135q-117 64 -254 64q-201 0 -316.5 -149t-115.5 -378q0 -126 70 -207t186 -81q113 0 274 80l64 -132q-163 -78 -303 -84l-31 -79q178 -28 178 -172q0 -84 -70 -130.5t-200 -46.5q-73 0 -160 25l10 111q78 -27 146 -27 q58 0 94.5 20t36.5 58q0 44 -48 69t-126 25l51 150q-162 22 -257.5 140.5t-95.5 282.5z" />
<glyph unicode="&#xe8;" horiz-adv-x="1038" d="M63 389q0 287 167 480.5t421 193.5q151 0 240.5 -87.5t89.5 -215.5q0 -127 -31 -258h-696q-10 -60 -10 -109q0 -127 67 -203.5t191 -76.5q118 0 270 76l66 -128q-170 -86 -369 -86q-179 0 -292.5 115.5t-113.5 298.5zM281 627h520q12 58 12 121q0 83 -50 133.5t-132 50.5 q-122 0 -216 -82t-134 -223zM393 1481h269l190 -285h-127z" />
<glyph unicode="&#xe9;" horiz-adv-x="1038" d="M63 389q0 287 167 480.5t421 193.5q151 0 240.5 -87.5t89.5 -215.5q0 -127 -31 -258h-696q-10 -60 -10 -109q0 -127 67 -203.5t191 -76.5q118 0 270 76l66 -128q-170 -86 -369 -86q-179 0 -292.5 115.5t-113.5 298.5zM281 627h520q12 58 12 121q0 83 -50 133.5t-132 50.5 q-122 0 -216 -82t-134 -223zM483 1196l314 285h274l-454 -285h-134z" />
<glyph unicode="&#xea;" horiz-adv-x="1038" d="M63 389q0 287 167 480.5t421 193.5q151 0 240.5 -87.5t89.5 -215.5q0 -127 -31 -258h-696q-10 -60 -10 -109q0 -127 67 -203.5t191 -76.5q118 0 270 76l66 -128q-170 -86 -369 -86q-179 0 -292.5 115.5t-113.5 298.5zM281 627h520q12 58 12 121q0 83 -50 133.5t-132 50.5 q-122 0 -216 -82t-134 -223zM296 1196l334 285h199l211 -285h-150l-182 190l-262 -190h-150z" />
<glyph unicode="&#xeb;" horiz-adv-x="1038" d="M63 389q0 287 167 480.5t421 193.5q151 0 240.5 -87.5t89.5 -215.5q0 -127 -31 -258h-696q-10 -60 -10 -109q0 -127 67 -203.5t191 -76.5q118 0 270 76l66 -128q-170 -86 -369 -86q-179 0 -292.5 115.5t-113.5 298.5zM281 627h520q12 58 12 121q0 83 -50 133.5t-132 50.5 q-122 0 -216 -82t-134 -223zM371 1303q0 44 31 75t75 31q45 0 76 -31t31 -75q0 -45 -31 -76t-76 -31q-44 0 -75 31t-31 76zM795 1303q0 44 31 75t75 31q45 0 76 -31t31 -75q0 -45 -31 -76t-76 -31q-44 0 -75 31t-31 76z" />
<glyph unicode="&#xec;" horiz-adv-x="471" d="M43 0l221 1038h164l-221 -1038h-164zM109 1481h269l190 -285h-127z" />
<glyph unicode="&#xed;" horiz-adv-x="471" d="M43 0l221 1038h164l-221 -1038h-164zM198 1196l314 285h274l-454 -285h-134z" />
<glyph unicode="&#xee;" horiz-adv-x="471" d="M43 0l221 1038h164l-221 -1038h-164zM12 1196l334 285h199l211 -285h-150l-182 190l-262 -190h-150z" />
<glyph unicode="&#xef;" horiz-adv-x="471" d="M43 0l221 1038h164l-221 -1038h-164zM86 1303q0 44 31 75t75 31q45 0 76 -31t31 -75q0 -45 -31 -76t-76 -31q-44 0 -75 31t-31 76zM510 1303q0 44 31 75t75 31q45 0 76 -31t31 -75q0 -45 -31 -76t-76 -31q-44 0 -75 31t-31 76z" />
<glyph unicode="&#xf0;" horiz-adv-x="1128" d="M63 391q0 300 164 486t412 186q55 0 127.5 -23.5t114.5 -66.5q-38 208 -127 346l-185 -105l-51 86l180 101q-67 87 -151 158h153q53 -27 109 -97l172 97l51 -89l-160 -88q193 -309 193 -706q0 -304 -153.5 -502.5t-434.5 -198.5q-180 0 -297 116t-117 300zM244 422 q0 -143 65 -227t187 -84q171 0 280 152t109 355q0 142 -67 226t-185 84q-171 0 -280 -152.5t-109 -353.5z" />
<glyph unicode="&#xf1;" horiz-adv-x="1139" d="M35 0l219 1028l170 35l-35 -172q89 79 193.5 125.5t193.5 46.5q136 0 205.5 -61.5t69.5 -174.5q0 -63 -16 -137l-146 -690h-164l104 488q42 201 49 247t7 64q0 56 -31.5 87.5t-118.5 31.5q-43 0 -100 -21t-115 -56.5t-104 -79.5t-69 -89q-11 -22 -43 -176l-105 -496h-164 zM332 1196q26 116 96 172.5t150 56.5q77 0 151 -49q77 -51 117 -51q33 0 60.5 28.5t37.5 71.5h131q-28 -122 -101.5 -175.5t-144.5 -53.5q-80 0 -151 51q-68 49 -117 49q-33 0 -60.5 -28.5t-37.5 -71.5h-131z" />
<glyph unicode="&#xf2;" horiz-adv-x="1128" d="M63 399q0 281 158.5 472.5t419.5 191.5q195 0 309.5 -118t114.5 -306q0 -280 -158.5 -472t-417.5 -192q-196 0 -311 118t-115 306zM244 397q0 -125 67.5 -205.5t182.5 -80.5q176 0 283.5 155.5t107.5 372.5q0 125 -68 207t-182 82q-177 0 -284 -156t-107 -375zM438 1481 h269l190 -285h-127z" />
<glyph unicode="&#xf3;" horiz-adv-x="1128" d="M63 399q0 281 158.5 472.5t419.5 191.5q195 0 309.5 -118t114.5 -306q0 -280 -158.5 -472t-417.5 -192q-196 0 -311 118t-115 306zM244 397q0 -125 67.5 -205.5t182.5 -80.5q176 0 283.5 155.5t107.5 372.5q0 125 -68 207t-182 82q-177 0 -284 -156t-107 -375zM497 1196 l314 285h274l-454 -285h-134z" />
<glyph unicode="&#xf4;" horiz-adv-x="1128" d="M63 399q0 281 158.5 472.5t419.5 191.5q195 0 309.5 -118t114.5 -306q0 -280 -158.5 -472t-417.5 -192q-196 0 -311 118t-115 306zM244 397q0 -125 67.5 -205.5t182.5 -80.5q176 0 283.5 155.5t107.5 372.5q0 125 -68 207t-182 82q-177 0 -284 -156t-107 -375zM311 1196 l334 285h199l211 -285h-150l-182 190l-262 -190h-150z" />
<glyph unicode="&#xf5;" horiz-adv-x="1128" d="M63 399q0 281 158.5 472.5t419.5 191.5q195 0 309.5 -118t114.5 -306q0 -280 -158.5 -472t-417.5 -192q-196 0 -311 118t-115 306zM244 397q0 -125 67.5 -205.5t182.5 -80.5q176 0 283.5 155.5t107.5 372.5q0 125 -68 207t-182 82q-177 0 -284 -156t-107 -375zM328 1196 q26 116 96 172.5t150 56.5q77 0 151 -49q77 -51 117 -51q33 0 60.5 28.5t37.5 71.5h131q-28 -122 -101.5 -175.5t-144.5 -53.5q-80 0 -151 51q-68 49 -117 49q-33 0 -60.5 -28.5t-37.5 -71.5h-131z" />
<glyph unicode="&#xf6;" horiz-adv-x="1128" d="M63 399q0 281 158.5 472.5t419.5 191.5q195 0 309.5 -118t114.5 -306q0 -280 -158.5 -472t-417.5 -192q-196 0 -311 118t-115 306zM244 397q0 -125 67.5 -205.5t182.5 -80.5q176 0 283.5 155.5t107.5 372.5q0 125 -68 207t-182 82q-177 0 -284 -156t-107 -375zM385 1303 q0 44 31 75t75 31q45 0 76 -31t31 -75q0 -45 -31 -76t-76 -31q-44 0 -75 31t-31 76zM809 1303q0 44 31 75t75 31q45 0 76 -31t31 -75q0 -45 -31 -76t-76 -31q-44 0 -75 31t-31 76z" />
<glyph unicode="&#xf7;" horiz-adv-x="987" d="M111 653v140h847v-140h-847zM426 410q0 44 32 76t77 32q44 0 76 -32t32 -76q0 -45 -32 -77t-76 -32q-45 0 -77 32t-32 77zM426 1036q0 45 32 77t77 32q44 0 76 -32t32 -77q0 -44 -32 -76t-76 -32q-45 0 -77 32t-32 76z" />
<glyph unicode="&#xf8;" horiz-adv-x="1128" d="M-31 37l150 135q-56 99 -56 227q0 281 158.5 472.5t419.5 191.5q204 0 322 -129l143 129l59 -66l-151 -137q51 -94 51 -221q0 -280 -158.5 -472t-417.5 -192q-199 0 -317 123l-139 -125zM244 397q0 -46 14 -100l578 522q-69 109 -201 109q-177 0 -284 -156t-107 -375z M297 211q68 -100 197 -100q176 0 283.5 155.5t107.5 372.5q0 48 -13 94z" />
<glyph unicode="&#xf9;" horiz-adv-x="1139" d="M84 211q0 65 18 149l142 666l172 37l-136 -636q-21 -95 -25.5 -132t-4.5 -55q0 -65 38 -92t118 -27q89 0 233.5 91t173.5 237l121 577l172 37l-170 -801q-14 -72 -14 -125q0 -72 18 -117l-160 -45q-24 52 -24 181q-205 -181 -391 -181q-139 0 -210 63.5t-71 172.5z M442 1481h269l190 -285h-127z" />
<glyph unicode="&#xfa;" horiz-adv-x="1139" d="M84 211q0 65 18 149l142 666l172 37l-136 -636q-21 -95 -25.5 -132t-4.5 -55q0 -65 38 -92t118 -27q89 0 233.5 91t173.5 237l121 577l172 37l-170 -801q-14 -72 -14 -125q0 -72 18 -117l-160 -45q-24 52 -24 181q-205 -181 -391 -181q-139 0 -210 63.5t-71 172.5z M532 1196l314 285h274l-454 -285h-134z" />
<glyph unicode="&#xfb;" horiz-adv-x="1139" d="M84 211q0 65 18 149l142 666l172 37l-136 -636q-21 -95 -25.5 -132t-4.5 -55q0 -65 38 -92t118 -27q89 0 233.5 91t173.5 237l121 577l172 37l-170 -801q-14 -72 -14 -125q0 -72 18 -117l-160 -45q-24 52 -24 181q-205 -181 -391 -181q-139 0 -210 63.5t-71 172.5z M346 1196l334 285h199l211 -285h-150l-182 190l-262 -190h-150z" />
<glyph unicode="&#xfc;" horiz-adv-x="1139" d="M84 211q0 65 18 149l142 666l172 37l-136 -636q-21 -95 -25.5 -132t-4.5 -55q0 -65 38 -92t118 -27q89 0 233.5 91t173.5 237l121 577l172 37l-170 -801q-14 -72 -14 -125q0 -72 18 -117l-160 -45q-24 52 -24 181q-205 -181 -391 -181q-139 0 -210 63.5t-71 172.5z M420 1303q0 44 31 75t75 31q45 0 76 -31t31 -75q0 -45 -31 -76t-76 -31q-44 0 -75 31t-31 76zM844 1303q0 44 31 75t75 31q45 0 76 -31t31 -75q0 -45 -31 -76t-76 -31q-44 0 -75 31t-31 76z" />
<glyph unicode="&#xfd;" horiz-adv-x="948" d="M-150 -334q155 64 262.5 173t209.5 284l-207 915h166l157 -729l461 729h168l-633 -1001q-123 -193 -239 -305.5t-287 -182.5zM438 1196l314 285h274l-454 -285h-134z" />
<glyph unicode="&#xfe;" horiz-adv-x="1130" d="M-61 -451l419 1973l172 37l-122 -601q130 105 282 105q166 0 271.5 -119t105.5 -297q0 -286 -161.5 -479t-418.5 -193q-71 0 -150.5 28.5t-121.5 72.5l-106 -490zM266 289q0 -85 59.5 -131.5t159.5 -46.5q181 0 291.5 156.5t110.5 377.5q0 126 -61 202.5t-169 76.5 q-134 0 -292 -142q-82 -390 -90.5 -425.5t-8.5 -67.5z" />
<glyph unicode="&#xff;" horiz-adv-x="948" d="M-150 -334q155 64 262.5 173t209.5 284l-207 915h166l157 -729l461 729h168l-633 -1001q-123 -193 -239 -305.5t-287 -182.5zM326 1303q0 44 31 75t75 31q45 0 76 -31t31 -75q0 -45 -31 -76t-76 -31q-44 0 -75 31t-31 76zM750 1303q0 44 31 75t75 31q45 0 76 -31t31 -75 q0 -45 -31 -76t-76 -31q-44 0 -75 31t-31 76z" />
<glyph unicode="&#x131;" horiz-adv-x="471" d="M43 0l221 1038h164l-221 -1038h-164z" />
<glyph unicode="&#x152;" horiz-adv-x="2087" d="M92 557q0 393 216.5 653t572.5 260q139 0 266 -68t201 -188l49 232h809l-70 -141h-590l-96 -455h518l-67 -133h-480l-121 -574h668l-31 -143h-845l30 152q-199 -177 -460 -177q-254 0 -412 162t-158 420zM285 553q0 -194 108.5 -316t286.5 -122q259 0 417 229.5 t158 546.5q0 196 -108 318t-287 122q-260 0 -417.5 -230.5t-157.5 -547.5z" />
<glyph unicode="&#x153;" horiz-adv-x="1821" d="M63 399q0 281 158.5 472.5t419.5 191.5q121 0 217.5 -57.5t147.5 -159.5q171 217 428 217q150 0 239.5 -87.5t89.5 -215.5q0 -127 -30 -258h-695q-12 -52 -12 -109q0 -129 68.5 -204.5t189.5 -75.5q119 0 271 76l65 -128q-170 -86 -369 -86q-112 0 -205 56t-139 153 q-174 -209 -418 -209q-196 0 -311 118t-115 306zM244 397q0 -125 67.5 -205.5t182.5 -80.5q176 0 283.5 157t107.5 371q0 125 -69.5 207t-180.5 82q-177 0 -284 -156t-107 -375zM1063 627h520q12 58 12 121q0 83 -50 133.5t-132 50.5q-121 0 -215.5 -82t-134.5 -223z" />
<glyph unicode="&#x178;" horiz-adv-x="1143" d="M201 1446h180l229 -633l533 633h192l-667 -795l-140 -651h-178l139 659zM463 1653q0 44 31 75t75 31q45 0 76 -31t31 -75q0 -45 -31 -76t-76 -31q-44 0 -75 31t-31 76zM887 1653q0 44 31 75t75 31q45 0 76 -31t31 -75q0 -45 -31 -76t-76 -31q-44 0 -75 31t-31 76z" />
<glyph unicode="&#x2c6;" horiz-adv-x="799" d="M176 1196l334 285h199l211 -285h-150l-182 190l-262 -190h-150z" />
<glyph unicode="&#x2da;" horiz-adv-x="799" d="M344 1413q0 98 69.5 168t168.5 70q97 0 167 -70t70 -168t-70 -167.5t-167 -69.5q-98 0 -168 69.5t-70 167.5zM463 1413q0 -49 34.5 -84t84.5 -35q49 0 83.5 35t34.5 84t-34.5 84t-83.5 35t-84 -35t-35 -84z" />
<glyph unicode="&#x2dc;" horiz-adv-x="799" d="M203 1196q26 116 96 172.5t150 56.5q77 0 151 -49q77 -51 117 -51q33 0 60.5 28.5t37.5 71.5h131q-28 -122 -101.5 -175.5t-144.5 -53.5q-80 0 -151 51q-68 49 -117 49q-33 0 -60.5 -28.5t-37.5 -71.5h-131z" />
<glyph unicode="&#x2000;" horiz-adv-x="1000" />
<glyph unicode="&#x2001;" horiz-adv-x="2001" />
<glyph unicode="&#x2002;" horiz-adv-x="1000" />
<glyph unicode="&#x2003;" horiz-adv-x="2001" />
<glyph unicode="&#x2004;" horiz-adv-x="667" />
<glyph unicode="&#x2005;" horiz-adv-x="500" />
<glyph unicode="&#x2006;" horiz-adv-x="333" />
<glyph unicode="&#x2007;" horiz-adv-x="333" />
<glyph unicode="&#x2008;" horiz-adv-x="250" />
<glyph unicode="&#x2009;" horiz-adv-x="400" />
<glyph unicode="&#x200a;" horiz-adv-x="111" />
<glyph unicode="&#x2010;" horiz-adv-x="791" d="M115 434l37 170h524l-37 -170h-524z" />
<glyph unicode="&#x2011;" horiz-adv-x="791" d="M115 434l37 170h524l-37 -170h-524z" />
<glyph unicode="&#x2012;" horiz-adv-x="791" d="M115 434l37 170h524l-37 -170h-524z" />
<glyph unicode="&#x2013;" horiz-adv-x="1024" d="M-12 453v133h1048v-133h-1048z" />
<glyph unicode="&#x2014;" horiz-adv-x="2048" d="M-18 453v133h2084v-133h-2084z" />
<glyph unicode="&#x2018;" horiz-adv-x="463" d="M258 1198q0 93 67.5 188t190.5 173l51 -56q-135 -104 -170 -215q51 0 80 -33t29 -86q0 -52 -35.5 -86t-85.5 -34q-57 0 -92 39.5t-35 109.5z" />
<glyph unicode="&#x2019;" horiz-adv-x="463" d="M199 1104q135 104 170 215q-51 0 -80 33t-29 86q0 52 35.5 86.5t85.5 34.5q57 0 92 -40t35 -110q0 -93 -68 -188t-190 -172z" />
<glyph unicode="&#x201a;" horiz-adv-x="463" d="M-18 -231q135 103 170 215q-51 0 -80 33t-29 85q0 53 35.5 87t85.5 34q57 0 92 -40t35 -109q0 -93 -68 -188t-190 -173z" />
<glyph unicode="&#x201c;" horiz-adv-x="856" d="M258 1198q0 93 67.5 188t190.5 173l51 -56q-135 -104 -170 -215q51 0 80 -33t29 -86q0 -52 -35.5 -86t-85.5 -34q-57 0 -92 39.5t-35 109.5zM651 1198q0 93 68 188t190 173l52 -56q-136 -104 -170 -215q50 0 79 -33t29 -86t-35.5 -86.5t-85.5 -33.5q-57 0 -92 39.5 t-35 109.5z" />
<glyph unicode="&#x201d;" horiz-adv-x="856" d="M199 1104q135 104 170 215q-51 0 -80 33t-29 86q0 52 35.5 86.5t85.5 34.5q57 0 92 -40t35 -110q0 -93 -68 -188t-190 -172zM592 1104q135 104 170 215q-51 0 -80 33t-29 86q0 52 35.5 86.5t85.5 34.5q57 0 92 -40t35 -110q0 -93 -67.5 -188t-190.5 -172z" />
<glyph unicode="&#x201e;" horiz-adv-x="856" d="M-18 -231q135 103 170 215q-51 0 -80 33t-29 85q0 53 35.5 87t85.5 34q57 0 92 -40t35 -109q0 -93 -68 -188t-190 -173zM375 -231q135 103 170 215q-51 0 -80 33t-29 85q0 53 35.5 87t85.5 34q57 0 92 -40t35 -109q0 -93 -67.5 -188t-190.5 -173z" />
<glyph unicode="&#x2022;" horiz-adv-x="717" d="M104 713q0 114 76.5 186t177.5 72q105 0 179.5 -74.5t74.5 -179.5q0 -106 -74.5 -180t-179.5 -74q-106 0 -180 75.5t-74 174.5z" />
<glyph unicode="&#x2026;" horiz-adv-x="2048" d="M213 104q0 54 38 91.5t91 37.5q54 0 91.5 -37.5t37.5 -91.5q0 -53 -37.5 -91t-91.5 -38q-53 0 -91 38t-38 91zM895 104q0 54 37.5 91.5t91.5 37.5t91.5 -37.5t37.5 -91.5q0 -53 -37.5 -91t-91.5 -38t-91.5 38t-37.5 91zM1577 104q0 54 37.5 91.5t91.5 37.5q53 0 91 -37.5 t38 -91.5q0 -53 -37.5 -91t-91.5 -38t-91.5 38t-37.5 91z" />
<glyph unicode="&#x202f;" horiz-adv-x="400" />
<glyph unicode="&#x2039;" horiz-adv-x="745" d="M6 518l561 520h209l-579 -528l374 -510h-188z" />
<glyph unicode="&#x203a;" horiz-adv-x="745" d="M-43 0l580 528l-375 510h188l377 -518l-561 -520h-209z" />
<glyph unicode="&#x205f;" horiz-adv-x="500" />
<glyph unicode="&#x20ac;" d="M55 547l58 121h92q9 81 18 116h-114l57 121h82q84 273 260.5 419t423.5 146q188 0 321 -71l-67 -142q-116 70 -283 70q-161 0 -288 -111t-191 -311h582l-54 -121h-555q-9 -38 -16 -116h516l-55 -121h-471q-2 -15 -2 -53q0 -155 79 -264t220 -109q148 0 325 108l72 -139 q-178 -115 -399 -115q-225 0 -348 148.5t-123 372.5v51h-140z" />
<glyph unicode="&#x2122;" horiz-adv-x="1802" d="M152 1341l34 105h691l-35 -105h-262v-708h-131v708h-297zM874 633l70 786l141 39l248 -610l248 565l156 45l75 -825h-129l-55 604l-258 -594l-80 -22l-246 604l-53 -592h-117z" />
<glyph unicode="&#x2215;" horiz-adv-x="125" d="M-586 -25l1159 1495h138l-1160 -1495h-137z" />
<glyph unicode="&#xe000;" horiz-adv-x="1040" d="M0 1040h1040v-1040h-1040v1040z" />
<glyph unicode="&#xfb01;" horiz-adv-x="1036" d="M10 -279l254 1194h-188l59 123h156q40 189 71.5 268.5t87 137.5t135.5 86.5t193 28.5q140 0 264 -52l-63 -137q-113 53 -215 53q-69 0 -118.5 -18t-86.5 -62t-55 -98.5t-51 -206.5h432l119 25l-228 -1063h-166l197 915h-381l-246 -1159z" />
<glyph unicode="&#xfb02;" horiz-adv-x="1051" d="M10 -279l256 1194h-190l59 123h158q41 193 74 274t87 138t126 83t165 26q118 0 203 -37l172 37l-332 -1559h-163l290 1368q-83 62 -182 62q-106 0 -165.5 -66t-112.5 -326h241l-59 -123h-209l-248 -1159z" />
<glyph unicode="&#xfb03;" horiz-adv-x="1667" d="M1241 0l221 1026l172 37l-227 -1063h-166zM1497 1305q0 41 30.5 70.5t71.5 29.5q42 0 71.5 -29.5t29.5 -70.5q0 -42 -29.5 -72.5t-71.5 -30.5q-41 0 -71.5 30.5t-30.5 72.5zM608 -279l254 1194h-188l59 123h156q40 187 66.5 262.5t75 136t121 91.5t175.5 31t186 -27 l-61 -131q-70 22 -135 22q-95 0 -153.5 -61.5t-112.5 -323.5h241l-59 -123h-209l-246 -1159zM10 -279l254 1194h-188l59 123h156q40 187 66.5 262.5t75 136t121 91.5t175.5 31t186 -27l-61 -131q-70 22 -135 22q-95 0 -153.5 -61.5t-112.5 -323.5h241l-59 -123h-209 l-246 -1159z" />
<glyph unicode="&#xfb04;" horiz-adv-x="1667" d="M1241 0l324 1522l172 37l-332 -1559h-164zM608 -279l254 1194h-188l59 123h156q40 187 66.5 262.5t75 136t121 91.5t175.5 31t186 -27l-61 -131q-70 22 -135 22q-95 0 -153.5 -61.5t-112.5 -323.5h241l-59 -123h-209l-246 -1159zM10 -279l254 1194h-188l59 123h156 q40 187 66.5 262.5t75 136t121 91.5t175.5 31t186 -27l-61 -131q-70 22 -135 22q-95 0 -153.5 -61.5t-112.5 -323.5h241l-59 -123h-209l-246 -1159z" />
<glyph horiz-adv-x="864" d="M162 893l21 94l533 483h123l-100 -481h141l-22 -96h-142l-38 -195h-133l43 195h-426zM320 989h284l70 321z" />
</font>
</defs>
</svg>
