<svg xmlns="http://www.w3.org/2000/svg" viewBox="0 0 236.33 30.82"><defs><style>.cls-1{fill:#fff;}</style></defs><title>Deadspin</title><g id="Layer_2" data-name="Layer 2"><g id="Home"><g id="g10"><g id="g12"><path id="path14" class="cls-1" d="M30.14,10.32H2.48V.44H22.21c2.89,0,5.05.85,6.41,2.51,2.16,2.66,1.65,6.58,1.52,7.37"/><path id="path16" class="cls-1" d="M28.61,22.13c0,.07-1.5,8.69-9.75,8.69H1.06a1.17,1.17,0,0,1-.79-.4A1.46,1.46,0,0,1,0,29.21c.18-1.3,1.56-11.95,2.29-17.58H12.6L11.15,21.3H19l1.44-9.67H30l-1.35,10.5"/><path id="path18" class="cls-1" d="M180.39,20.22h-8.2l-.06.58c0,.43-.12,1.22-.31,2.59-1.26,7.22-9.49,7.43-10.42,7.43h0l2.44-20.3h26.63c-.64,5-4.12,9.7-10.06,9.7"/><path id="path20" class="cls-1" d="M164,9.3l1.1-9.14h17.87a7,7,0,0,1,5.75,2.64,9.8,9.8,0,0,1,1.88,6.05c0,.15,0,.3,0,.45H164"/><path id="path22" class="cls-1" d="M58.35,9.28H35.27V.13H63.38c0,5.32-2.71,7.9-5,9.15"/><path id="path24" class="cls-1" d="M42.43,20.21v1.23H53.5l.24.08a7.74,7.74,0,0,1,3.34,2.19A7.73,7.73,0,0,1,58.63,30c-.08.48-.88.84-1.93.84H39.36a6.8,6.8,0,0,1-4.31-2.59c-1.49-2-1.94-4.77-1.34-8.34.73-5,1.44-8.77,1.54-9.31H60.71a.6.6,0,0,1,.27.23,2.09,2.09,0,0,1,.1,1.48c-.14.64-1.47,6.23-7,7.91H42.43"/><path id="path26" class="cls-1" d="M203.88,9.14H198.8a4.46,4.46,0,0,1-3.54-1.41C193.18,4.93,193.8.66,193.91,0h11.34l-1.37,9.13"/><path id="path28" class="cls-1" d="M200.64,30.75a11.7,11.7,0,0,1-1.29.07c-1.52,0-4.3-.28-5.95-2.18-1.17-1.36-1.59-3.33-1.22-5.86,1.23-8.58,1.68-11.81,1.76-12.38h4.87l0,0h4.93l-3.06,20.38"/><path id="path30" class="cls-1" d="M208.47,9.26V.13h19.81c2.9,0,5.06.85,6.41,2.52,1.73,2.14,1.73,5.06,1.58,6.61h-27.8"/><path id="path32" class="cls-1" d="M214.87,30.77h-9.33l2.91-20.28h9.36l-2.94,20.28"/><path id="path34" class="cls-1" d="M233,30.74a10.32,10.32,0,0,1-1.36.08c-1.48,0-4.22-.29-5.88-2.21-1.29-1.5-1.73-3.72-1.3-6.6,1.06-7.19,1.5-10,1.67-11l.07-.49h9.87L233,30.74"/><path id="path36" class="cls-1" d="M154.54,9.76h-21C133.86.46,143.06,0,143.45,0h18c0,6.53-4,8.9-6.86,9.76"/><path id="path38" class="cls-1" d="M158,20.83v.11c-.91,9.4-9.71,9.88-11.46,9.88H130.65c0-6.47,4.38-8.81,7.48-9.66h11.28V19.93h-9.9l-.43-.19c-2.41-1-5.32-3.42-5.56-8.75H153l.47.22c2.43,1.14,5.19,3.73,4.57,9.62"/><path id="path40" class="cls-1" d="M100.46,9.93V.72h19.86c2.93,0,5.11.85,6.48,2.53,1.8,2.22,1.72,5.31,1.57,6.68H100.46"/><path id="path42" class="cls-1" d="M126.76,22.21c-.05.33-1.51,8.61-9.81,8.61H99a1.21,1.21,0,0,1-.8-.4A1.45,1.45,0,0,1,98,29.23c.2-1.34,1.69-12.71,2.39-18h10.35l-1.54,10.17h7.91l1.53-10.17h9.57l-1.44,11"/><path id="path44" class="cls-1" d="M73.76,30.81H64.15l1.4-9h9.36l-1.15,9"/><path id="path46" class="cls-1" d="M67.28,9.65C68.14.91,77.3.32,77.71.29h8.05c3.56,0,6.18,1,7.76,3a9.26,9.26,0,0,1,1.72,6.39h-28"/><path id="path48" class="cls-1" d="M95.07,10.94v0l-1,10c0,.39-1.18,9.8-9.84,9.8-.4,0-.82,0-1.25-.06l1.21-9,.08-.6.08-.6H65.74L67.21,11V11s0-.07,0-.1H95.09a.51.51,0,0,0,0,.09"/></g></g></g></g></svg>