<svg xmlns="http://www.w3.org/2000/svg" viewBox="0 0 134.88 50.83"><defs><style>.cls-1,.cls-2{fill:#fff;}.cls-2{font-size:15px;font-family:HelveticaNeueLTStd-BdExO, Helvetica Neue LT Std;font-weight:700;}</style></defs><title>ESPN</title><g id="Layer_2" data-name="Layer 2"><g id="Home"><path class="cls-1" d="M47,0c-4.86,0-8.08,2.56-8.53,6.39C38.26,7.8,38.1,9,38.1,9h63.23s.12-.93.22-1.68C102,3.5,100.38,0,94.42,0H47ZM8.37,0,7.26,9H35.93L37,0H8.37Zm96.26,0-1.11,9h31.09s0-.33.18-1.39C135.54,1.72,131.71,0,128,0Zm-1.54,12.48-2.42,19.73H111.4l2.42-19.72Zm20.38,0L121,32.21h10.73l2.42-19.72Zm-116.63,0L4.41,32.21H33.09l1-8.56H16.19L16.64,20h18l.92-7.47Zm30.84,0C36.89,17.63,39.47,20,43.12,20H57.63l-.45,3.69H36.31l-1.05,8.56H58.9c.76-.05,6.07-.2,7.88-4.54.59-1.42,1.11-6.48,1.25-7.54.84-6.17-3.43-7.64-6.8-7.64Zm33.38,0L68.64,32.21H79.36L80.87,20H94.33c3.82,0,5.87-2.05,6.26-4.81.19-1.39.33-2.66.33-2.66Z"/><text class="cls-2" transform="translate(0 46.72)">TALLAHASSEE</text></g></g></svg>