<svg xmlns="http://www.w3.org/2000/svg" viewBox="0 0 122.67 30.8"><defs><style>.cls-1{fill:#fff;}</style></defs><title>Forbes</title><g id="Layer_2" data-name="Layer 2"><g id="Home"><path class="cls-1" d="M71.43,29.3a10.52,10.52,0,0,1-1.61-.15c-.15-2-.24-10.38-.23-17.67a6.24,6.24,0,0,1,2.2-.36c3.1,0,4.84,3.57,4.84,8.08,0,5.75-2.13,10.1-5.2,10.1M74.71,8.78A11,11,0,0,0,69.6,10.1c0-4.59.07-8.59.18-10.1L60.35,1.82v.85l.92.12c1.32.18,1.82,1,2,2.7.29,3.36.25,21.41,0,24.3a36.92,36.92,0,0,0,8,1c7.48,0,12-4.62,12-11.94,0-5.86-3.65-10.08-8.55-10.08"/><path class="cls-1" d="M24.79.67H0V1.86L1.32,2c1.89.27,2.62,1.44,2.84,4.11a148.82,148.82,0,0,1,0,18.66c-.22,2.67-1,3.84-2.84,4.12L0,29.11V30.3H15.93V29.11l-1.67-.18c-1.89-.28-2.62-1.45-2.84-4.12-.15-1.82-.25-4.88-.29-8.48l3.29.11c2.19.07,3.11,1.69,3.63,4.1h1.23v-10H18.05c-.52,2.41-1.44,4-3.63,4.1l-3.3.11c0-4.74.07-9.29.3-12h4.89c3.82,0,5.86,2.42,7.14,6.71L24.93,9Z"/><path class="cls-1" d="M32.48,9.91c-3.12,0-4,4.21-4,9.76s1.38,9.77,4.27,9.77c3.11,0,4-4.21,4-9.77,0-5.4-1.38-9.76-4.27-9.76m.36-1.37c7,0,10.55,4.78,10.55,11.08,0,6.14-4,11.18-11,11.18S21.85,26,21.85,19.73c0-6.15,3.95-11.19,11-11.19"/><path class="cls-1" d="M91.56,17.18l6.6-.14c0-2.92-.43-7.1-2.81-7.1s-3.73,4-3.79,7.24M85,19.87C85,14,88.67,8.55,95.93,8.55c5.91,0,8.73,4.39,8.76,10.12H91.51c-.15,5.2,2.49,9,7.52,9a6.93,6.93,0,0,0,4.76-1.57l.62.74a10.57,10.57,0,0,1-8.57,3.95C89.49,30.8,85,26.3,85,19.87"/><path class="cls-1" d="M121.39,9.69A16.16,16.16,0,0,0,115,8.54c-5.3,0-8.51,3.11-8.51,6.73s2.42,5.2,5.75,6.4c3.6,1.28,4.55,2.28,4.55,3.94a3.3,3.3,0,0,1-3.51,3.32c-2.66,0-4.67-1.57-6.21-5.88l-1.08.28.19,6.17a22.1,22.1,0,0,0,7.44,1.3c5.62,0,9-2.74,9-7.19,0-3-1.46-4.62-5.14-6.05-4-1.54-5.36-2.51-5.36-4.35a2.92,2.92,0,0,1,2.93-3.14c2.56,0,4.3,1.59,5.45,5.31l1.08-.28Z"/><path class="cls-1" d="M61.78,9.14c-2.38-1.42-6.71-.75-8.91,4.3L53,8.52l-9.4,1.83v.84l.92.12c1.31.18,1.82.95,2,2.71a92.81,92.81,0,0,1,0,12.26c-.16,1.76-.67,2.53-2,2.71l-.92.12V30.3H56.66V29.11L55,29c-1.32-.18-1.82-.95-2-2.71a95.05,95.05,0,0,1-.06-11.39c.63-1,3.7-1.88,6.55,0Z"/></g></g></svg>