<svg xmlns="http://www.w3.org/2000/svg" viewBox="0 0 229.2 32.89"><defs><style>.cls-1{fill:#fff;}</style></defs><title>Gizmodo</title><g id="Layer_2" data-name="Layer 2"><g id="Home"><g id="g10"><g id="g12"><path id="path14" class="cls-1" d="M37.56,29V3.9A4.21,4.21,0,0,1,38.45,1a3,3,0,0,1,2.3-1,3.06,3.06,0,0,1,2.36,1A4.16,4.16,0,0,1,44,3.9V29a4.22,4.22,0,0,1-.9,2.95,3.07,3.07,0,0,1-2.36,1,3,3,0,0,1-2.29-1,4.24,4.24,0,0,1-.9-2.94"/><path id="path16" class="cls-1" d="M212.77,6.67a9.79,9.79,0,1,0,9.78,9.78,9.8,9.8,0,0,0-9.78-9.78m0,26.22A16.44,16.44,0,1,1,229.2,16.45a16.45,16.45,0,0,1-16.43,16.44"/><path id="path18" class="cls-1" d="M139,6.67a9.79,9.79,0,1,0,9.78,9.78A9.79,9.79,0,0,0,139,6.67m0,26.22a16.44,16.44,0,1,1,16.44-16.44A16.45,16.45,0,0,1,139,32.89"/><path id="path20" class="cls-1" d="M175.8,26.15c-.8.06-1.65.07-2.57.07h-4.32V6.67h4.32c.92,0,1.77,0,2.57.06a9.75,9.75,0,0,1,6.88,4.17,9.64,9.64,0,0,1,1.73,5.52v0h0a9.79,9.79,0,0,1-8.61,9.69m15.27-9.71h0A16.46,16.46,0,0,0,175.12,0h-8.74a4.16,4.16,0,0,0-3.06,1,4.32,4.32,0,0,0-.95,3.11V28.8a4.35,4.35,0,0,0,.95,3.12,4.16,4.16,0,0,0,3.06,1h8.74a16.46,16.46,0,0,0,15.95-16.43h0"/><path id="path22" class="cls-1" d="M113.25.15a2.82,2.82,0,0,0-3.2,1.16l-9.9,15.09L90.24,1.31A2.82,2.82,0,0,0,87,.15a2.9,2.9,0,0,0-2,2.78V29.76a2.85,2.85,0,1,0,5.7,0V12.51l7,10.71v0h0l0,0,.14.19.06.07.12.14.12.11.09.08.17.13,0,0h0l.19.12,0,0,.16.07a2.58,2.58,0,0,0,.89.25h.57a2.63,2.63,0,0,0,.9-.25l.15-.07,0,0,.2-.12h0l0,0,.18-.13.08-.08.12-.11.12-.14.07-.07.14-.19,0,0h0l0,0,7-10.71V29.76a2.85,2.85,0,1,0,5.7,0V2.93a2.9,2.9,0,0,0-2-2.78"/><path id="path24" class="cls-1" d="M75.32,31.89H54a3.17,3.17,0,0,1-2.83-1.79,3.58,3.58,0,0,1,.44-3.76L69.05,6.11H54.65a3,3,0,0,1-2.85-3A2.66,2.66,0,0,1,54.65.36H74.07a4,4,0,0,1,3.29,1.29,3.82,3.82,0,0,1-.15,4.51L60.37,25.8H75.32a2.85,2.85,0,0,1,2.72,3,2.86,2.86,0,0,1-2.72,3.05"/><path id="path26" class="cls-1" d="M16.31,32.89A16,16,0,0,1,4.24,27.61,16.45,16.45,0,0,1,0,16.76C0,4.55,10.15,0,16.55,0A21.47,21.47,0,0,1,27.66,3.22a3.16,3.16,0,0,1,.84,4.34,3.06,3.06,0,0,1-4.27.86,15.44,15.44,0,0,0-7.68-2.16C12.54,6.26,7,8.9,7,16.76c0,4.48,3.33,9.75,9.42,9.75a13.46,13.46,0,0,0,7.25-1.81V20.05H18.93a3.13,3.13,0,0,1,0-6.25h7.84a3.11,3.11,0,0,1,3.09,3.13v9.3a3.13,3.13,0,0,1-.94,2.24c-2.07,2-6.61,4.42-12.61,4.42"/></g></g></g></g></svg>