<svg xmlns="http://www.w3.org/2000/svg" viewBox="0 0 104.76 58.52"><defs><style>.cls-1{fill:#414142;}</style></defs><title>IC-35</title><g id="Layer_2" data-name="Layer 2"><g id="NSD_-_Product_-_iSocial" data-name="NSD - Product - iSocial"><path class="cls-1" d="M12.66,24.41h6.41c2.71,0,4.71-.7,6-2.12a8.41,8.41,0,0,0,2-5.92,7.68,7.68,0,0,0-2-5.51,7.41,7.41,0,0,0-5.66-2.07A8,8,0,0,0,14,10.66a6.17,6.17,0,0,0-2.19,4.93H.79l-.08-.24a12.92,12.92,0,0,1,5.12-11A20.4,20.4,0,0,1,19.11,0q8.82,0,14.08,4.22t5.25,12A12.1,12.1,0,0,1,36.1,23.3a15.53,15.53,0,0,1-6.45,5.22,14.49,14.49,0,0,1,7.21,5.15,13.54,13.54,0,0,1,2.48,8.09q0,7.82-5.68,12.28T19.11,58.52a22.28,22.28,0,0,1-13.62-4.2Q-.18,50.12,0,42.46l.07-.23H11.14a6.94,6.94,0,0,0,2.34,5.38,8.54,8.54,0,0,0,5.94,2.12,8.62,8.62,0,0,0,6.23-2.19,7.8,7.8,0,0,0,2.29-5.92c0-3-.75-5.17-2.25-6.57S22,33,19.07,33H12.66Z"/><path class="cls-1" d="M58.2,57.7H46.8v-10H58.2Z"/><path class="cls-1" d="M67.76,32.5,71.05.82h31.71V10H80.38L78.82,23.09a13.36,13.36,0,0,1,3.79-1.94,15.85,15.85,0,0,1,4.92-.8q8.2-.12,12.71,5t4.52,14.14a19.52,19.52,0,0,1-4.94,13.64q-4.95,5.43-14.24,5.43a21.4,21.4,0,0,1-13.44-4.3,13.57,13.57,0,0,1-5.39-11.8l.08-.19,11-.55A8,8,0,0,0,80,47.6a7.65,7.65,0,0,0,5.63,2.13,6.59,6.59,0,0,0,5.88-2.83,13.06,13.06,0,0,0,1.89-7.39,13.76,13.76,0,0,0-2-7.88,6.84,6.84,0,0,0-6-3,8.82,8.82,0,0,0-5,1.21,6.68,6.68,0,0,0-2.48,3.28Z"/></g></g></svg>