<svg xmlns="http://www.w3.org/2000/svg" viewBox="0 0 139.91 58.52"><defs><style>.cls-1{fill:#414142;}</style></defs><title>IC-80</title><g id="Layer_2" data-name="Layer 2"><g id="NSD_-_Product_-_iSocial" data-name="NSD - Product - iSocial"><path class="cls-1" d="M37.46,15.9a13,13,0,0,1-2.25,7.54A14.91,14.91,0,0,1,29,28.55,16.73,16.73,0,0,1,36.17,34a13.33,13.33,0,0,1,2.62,8.13q0,7.89-5.35,12.13t-14,4.24q-8.7,0-14.08-4.24T0,42.15A13.43,13.43,0,0,1,2.6,34a16.88,16.88,0,0,1,7.17-5.48,15,15,0,0,1-6.22-5.1A13.05,13.05,0,0,1,1.33,15.9q0-7.58,5-11.74T19.38,0q8.09,0,13.08,4.16T37.46,15.9ZM27.38,41.35a8.43,8.43,0,0,0-2.22-6.12,7.72,7.72,0,0,0-5.78-2.3,7.58,7.58,0,0,0-5.77,2.3,8.57,8.57,0,0,0-2.16,6.12,8.41,8.41,0,0,0,2.18,6.14,7.78,7.78,0,0,0,5.82,2.24,7.67,7.67,0,0,0,5.75-2.26A8.47,8.47,0,0,0,27.38,41.35ZM26.09,16.41a8.13,8.13,0,0,0-1.81-5.53,6.18,6.18,0,0,0-4.9-2.09,6.08,6.08,0,0,0-4.89,2.05,8.28,8.28,0,0,0-1.76,5.57,8.43,8.43,0,0,0,1.78,5.64,6.12,6.12,0,0,0,4.94,2.09,6,6,0,0,0,4.87-2.09A8.43,8.43,0,0,0,26.09,16.41Z"/><path class="cls-1" d="M82.53,35.55q0,11.28-5.17,17.13t-14,5.84q-8.91,0-14.1-5.84t-5.2-17.13V23q0-11.25,5.18-17.13T63.27,0q8.83,0,14,5.88T82.53,23ZM71.16,21.82c0-4.5-.67-7.79-2-9.89a7.05,7.05,0,0,0-11.72,0c-1.32,2.08-2,5.39-2,9.91V36.61q0,6.87,2,10a6.6,6.6,0,0,0,5.92,3.12,6.48,6.48,0,0,0,5.82-3.12q2-3.13,2-10Z"/><path class="cls-1" d="M88,11.76a11.6,11.6,0,0,1,3.26-8.4Q94.48,0,100.3,0t9.14,3.34a11.6,11.6,0,0,1,3.24,8.42v3a11.47,11.47,0,0,1-3.24,8.35c-2.16,2.22-5.19,3.33-9.06,3.33s-7-1.11-9.15-3.33A11.42,11.42,0,0,1,88,14.77Zm7.58,3a5.83,5.83,0,0,0,1.25,3.8,4.36,4.36,0,0,0,3.6,1.55,4.22,4.22,0,0,0,3.49-1.55,5.88,5.88,0,0,0,1.23-3.8v-3a6,6,0,0,0-1.25-3.85,4.27,4.27,0,0,0-3.55-1.58,4.23,4.23,0,0,0-3.54,1.58,6.08,6.08,0,0,0-1.23,3.85Zm6.72,38.67L96.7,50.51,124.48,6.05,130,9Zm12.89-9.69a11.49,11.49,0,0,1,3.28-8.36q3.28-3.36,9.1-3.36t9.12,3.34a11.5,11.5,0,0,1,3.27,8.38v3a11.52,11.52,0,0,1-3.25,8.4q-3.24,3.31-9.06,3.32t-9.16-3.34a11.44,11.44,0,0,1-3.3-8.38Zm7.58,3a5.69,5.69,0,0,0,1.35,3.81,4.41,4.41,0,0,0,3.53,1.58,4.23,4.23,0,0,0,3.63-1.47,6.38,6.38,0,0,0,1.1-3.92v-3a6,6,0,0,0-1.25-3.81,4.81,4.81,0,0,0-7.13,0,6,6,0,0,0-1.23,3.81Z"/></g></g></svg>