<svg xmlns="http://www.w3.org/2000/svg" viewBox="0 0 64 64"><defs><style>.cls-1{fill:#fff;}</style></defs><title>IC-Binders</title><g id="Layer_2" data-name="Layer 2"><g id="NSD_-_Product_-_iSocial" data-name="NSD - Product - iSocial"><g id="Archive"><path class="cls-1" d="M16,44a6,6,0,1,0,6,6A6,6,0,0,0,16,44Zm0,8a2,2,0,1,1,2-2A2,2,0,0,1,16,52ZM21.41,8.59A2,2,0,0,0,20,8H12a2,2,0,0,0-1.41.59l-2,2A2,2,0,0,0,8,12V34a2,2,0,0,0,.59,1.41l2,2A2,2,0,0,0,12,38h8a2,2,0,0,0,1.41-.59l2-2A2,2,0,0,0,24,34V12a2,2,0,0,0-.59-1.41ZM20,33.17l-.83.83H12.83L12,33.17V12.83l.83-.83H14v8l2-2,2,2V12h1.17l.83.83ZM48,44a6,6,0,1,0,6,6A6,6,0,0,0,48,44Zm0,8a2,2,0,1,1,2-2A2,2,0,0,1,48,52ZM60,0H36a4,4,0,0,0-4,4,4,4,0,0,0-4-4H4A4,4,0,0,0,0,4V60a4,4,0,0,0,4,4H28a4,4,0,0,0,4-4,4,4,0,0,0,4,4H60a4,4,0,0,0,4-4V4A4,4,0,0,0,60,0ZM4,60V4H28V60Zm32,0V4H60V60ZM53.41,8.59A2,2,0,0,0,52,8H44a2,2,0,0,0-1.41.59l-2,2A2,2,0,0,0,40,12V34a2,2,0,0,0,.59,1.41l2,2A2,2,0,0,0,44,38h8a2,2,0,0,0,1.41-.59l2-2A2,2,0,0,0,56,34V12a2,2,0,0,0-.59-1.41ZM52,33.17l-.83.83H44.83L44,33.17V12.83l.83-.83H46v8l2-2,2,2V12h1.17l.83.83Z"/></g></g></g></svg>