<svg xmlns="http://www.w3.org/2000/svg" viewBox="0 0 68.75 62.38"><defs><style>.cls-1,.cls-2{fill:none;stroke:#fff;stroke-linecap:round;stroke-linejoin:round;}.cls-1{stroke-width:2.21px;}.cls-2{stroke-width:2.42px;}</style></defs><title>ic-Cancel</title><g id="Layer_2" data-name="Layer 2"><g id="Home"><path class="cls-1" d="M29.83,54.3h21A14.67,14.67,0,0,0,65.18,39.94V31.1c0-15.78-11-18.78-16.57-18.78H39.77c-2.7,0-5.52,1.63-5.52,4.42V19c0,2.78,2.74,4.42,5.52,4.42H45.3s3.26,8.84,8.84,8.84"/><path class="cls-1" d="M37.56,36.62H18.78a4.42,4.42,0,0,0,0,8.84h11"/><path class="cls-1" d="M37.56,45.46H30.21c-2.3,0-3.69,2.11-3.69,4.42s1.39,4.42,3.69,4.42h4"/><line class="cls-1" x1="1.1" y1="14.53" x2="34.95" y2="14.53"/><path class="cls-1" d="M49.72,12.32V7.27a3.64,3.64,0,0,0-3.9-3.79H5.52A4.61,4.61,0,0,0,1.1,7.9V32.21a4.6,4.6,0,0,0,4.42,4.41H45.3a4.6,4.6,0,0,0,4.42-4.41v-2"/><line class="cls-1" x1="7.73" y1="21.16" x2="16.57" y2="21.16"/><line class="cls-2" x1="67.54" y1="1.21" x2="7.59" y2="61.17"/></g></g></svg>