<svg xmlns="http://www.w3.org/2000/svg" viewBox="0 0 103.43 102.05"><defs><style>.cls-1{fill:#e76b55;}.cls-2{fill:#fff;}</style></defs><title>IC-Doctor</title><g id="NSD_-_Partners" data-name="NSD - Partners"><circle class="cls-1" cx="49.34" cy="51.03" r="35.5"/><circle class="cls-2" cx="40.34" cy="63.42" r="2"/><path class="cls-2" d="M60.37,54.26l0,3.19c3.41.18,4,1.37,4,3.91v3.2a3.13,3.13,0,0,1-3,2.86,1,1,0,0,1,0-2,1.19,1.19,0,0,0,1-.86v-3.2c0-1.72,0-1.94-3-1.94s-3,.22-3,1.94v3.2a1.19,1.19,0,0,0,1,.86,1,1,0,0,1,0,2,3.12,3.12,0,0,1-3-2.86v-3.2c0-2.54.59-3.73,4-3.91l0-3.32a.7.7,0,0,1,0-.14l-1.58-.22a10.44,10.44,0,0,0,3.48-6.5,3.84,3.84,0,0,0,2.29-3.85,5.4,5.4,0,0,0-.23-1.54l1-7.36a9.9,9.9,0,0,0-2.49-7.1c-2.4-2.65-6.27-4-11.51-4s-9.1,1.35-11.5,4a9.88,9.88,0,0,0-2.49,7.13l1,7.33a5.35,5.35,0,0,0-.23,1.54,3.84,3.84,0,0,0,2.29,3.85,10.37,10.37,0,0,0,3.46,6.49l-.52.07s0,.06,0,.09v5.64a4,4,0,1,1-2,0V54.11c-7,1-14,2.12-14,9.8v7.51h23v-12a1,1,0,0,1,2,0v12h23V63.91C73.34,56.57,67.23,55.23,60.37,54.26Zm-11,1.16c-2.69,0-9-3.8-9-9a1,1,0,0,0-1-1c-1,0-1.25-1.31-1.25-2s.26-2,1.25-2a1,1,0,0,0,1-.8l.84-4.21c5.26-.14,7.11-1.64,8.19-3.2,1.07,1.56,2.92,3.06,8.17,3.2l.84,4.21a1,1,0,0,0,1,.8c1,0,1.25,1.31,1.25,2s-.26,2-1.25,2a1,1,0,0,0-1,1C58.34,51.62,52,55.42,49.34,55.42Z"/><path class="cls-2" d="M45.6,40.42h-.52a2.91,2.91,0,0,0-2.21.58,1.94,1.94,0,0,0-.53,1.43,1,1,0,0,0,2,0c.19,0,.5,0,.73,0h.54c.23,0,.54,0,.73,0a1,1,0,0,0,2,0A1.94,1.94,0,0,0,47.81,41,2.93,2.93,0,0,0,45.6,40.42Z"/><path class="cls-2" d="M56.34,42.43A1.94,1.94,0,0,0,55.81,41a2.93,2.93,0,0,0-2.21-.58h-.52a2.91,2.91,0,0,0-2.21.58,1.94,1.94,0,0,0-.53,1.43,1,1,0,0,0,2,0c.19,0,.5,0,.73,0h.54c.23,0,.54,0,.73,0a1,1,0,0,0,2,0Z"/></g></svg>
