<svg xmlns="http://www.w3.org/2000/svg" viewBox="0 0 103.43 102.05"><defs><style>.cls-1{fill:#fff;}</style></defs><title>IC-Document</title><g id="NSD_-_Partners" data-name="NSD - Partners"><g id="Paper"><path class="cls-1" d="M77.42,23.24h-7a2.28,2.28,0,0,1-2.08-2.43V14.56a7.83,7.83,0,0,0-7.64-8H26a7.82,7.82,0,0,0-7.64,8V87.49a7.82,7.82,0,0,0,7.64,8h51.4a7.83,7.83,0,0,0,7.64-8V31.23A7.83,7.83,0,0,0,77.42,23.24ZM79.5,87.49a2.28,2.28,0,0,1-2.08,2.43H26a2.28,2.28,0,0,1-2.09-2.43V14.56A2.28,2.28,0,0,1,26,12.13H60.75a2.28,2.28,0,0,1,2.08,2.43v6.25a7.83,7.83,0,0,0,7.64,8h7a2.28,2.28,0,0,1,2.08,2.43ZM32.27,34.36H54.49a2.78,2.78,0,1,0,0-5.56H32.27a2.78,2.78,0,0,0,0,5.56Zm38.89,5.55H32.27a2.78,2.78,0,0,0,0,5.56H71.16a2.78,2.78,0,0,0,0-5.56Zm0,11.12H32.27a2.78,2.78,0,1,0,0,5.55H71.16a2.78,2.78,0,1,0,0-5.55Zm0,11.11H32.27a2.78,2.78,0,0,0,0,5.56H71.16a2.78,2.78,0,0,0,0-5.56Zm0,11.11H32.27a2.78,2.78,0,0,0,0,5.56H71.16a2.78,2.78,0,0,0,0-5.56Z"/></g></g></svg>