<svg xmlns="http://www.w3.org/2000/svg" viewBox="0 0 48 64"><defs><style>.cls-1{fill:#fff;}</style></defs><title>IC-Doc</title><g id="Layer_2" data-name="Layer 2"><g id="NSD_-_Product_-_iSocial" data-name="NSD - Product - iSocial"><g id="Paper"><path class="cls-1" d="M42.5,12h-5A1.64,1.64,0,0,1,36,10.25V5.75A5.64,5.64,0,0,0,30.5,0H5.5A5.64,5.64,0,0,0,0,5.75v52.5A5.64,5.64,0,0,0,5.5,64h37A5.64,5.64,0,0,0,48,58.25V17.75A5.64,5.64,0,0,0,42.5,12ZM44,20V58.25A1.64,1.64,0,0,1,42.5,60H5.5A1.64,1.64,0,0,1,4,58.25V5.75A1.64,1.64,0,0,1,5.5,4h25A1.64,1.64,0,0,1,32,5.75v4.5A5.64,5.64,0,0,0,37.5,16h5A1.64,1.64,0,0,1,44,17.75ZM10,20H26a2,2,0,0,0,0-4H10a2,2,0,0,0,0,4Zm28,4H10a2,2,0,0,0,0,4H38a2,2,0,0,0,0-4Zm0,8H10a2,2,0,0,0,0,4H38a2,2,0,0,0,0-4Zm0,8H10a2,2,0,0,0,0,4H38a2,2,0,0,0,0-4Zm0,8H10a2,2,0,0,0,0,4H38a2,2,0,0,0,0-4Z"/></g></g></g></svg>