<svg xmlns="http://www.w3.org/2000/svg" viewBox="0 0 64 84"><defs><style>.cls-1{fill:#fff;}</style></defs><title>IC-Docs</title><g id="Layer_2" data-name="Layer 2"><g id="NSD_-_Product_-_iSocial" data-name="NSD - Product - iSocial"><g id="Paper"><path class="cls-1" d="M58.5,32h-5A1.64,1.64,0,0,1,52,30.25v-4.5A5.64,5.64,0,0,0,46.5,20h-25A5.64,5.64,0,0,0,16,25.75v52.5A5.64,5.64,0,0,0,21.5,84h37A5.64,5.64,0,0,0,64,78.25V37.75A5.64,5.64,0,0,0,58.5,32ZM60,78.25A1.64,1.64,0,0,1,58.5,80h-37A1.64,1.64,0,0,1,20,78.25V25.75A1.64,1.64,0,0,1,21.5,24h25A1.64,1.64,0,0,1,48,25.75v4.5A5.64,5.64,0,0,0,53.5,36h5A1.64,1.64,0,0,1,60,37.75ZM26,40H42a2,2,0,0,0,0-4H26a2,2,0,0,0,0,4Zm28,4H26a2,2,0,0,0,0,4H54a2,2,0,0,0,0-4Zm0,8H26a2,2,0,0,0,0,4H54a2,2,0,0,0,0-4Zm0,8H26a2,2,0,0,0,0,4H54a2,2,0,0,0,0-4Zm0,8H26a2,2,0,0,0,0,4H54a2,2,0,0,0,0-4Z"/></g><path class="cls-1" d="M14,63.09V60H5.5A1.64,1.64,0,0,1,4,58.25V5.75A1.64,1.64,0,0,1,5.5,4h25A1.64,1.64,0,0,1,32,5.75v4.5A5.64,5.64,0,0,0,37.5,16h5A1.64,1.64,0,0,1,44,17.75V18h2.37a6.23,6.23,0,0,1,1.63.23v-.52A5.64,5.64,0,0,0,42.5,12h-5A1.64,1.64,0,0,1,36,10.25V5.75A5.64,5.64,0,0,0,30.5,0H5.5A5.64,5.64,0,0,0,0,5.75v52.5A5.64,5.64,0,0,0,5.5,64h8.56A5.5,5.5,0,0,1,14,63.09Z"/><path class="cls-1" d="M19.89,18H28v0a2,2,0,0,0-2-2H10a2,2,0,0,0,0,4h5.5A5.92,5.92,0,0,1,19.89,18Z"/><path class="cls-1" d="M14,24H10a2,2,0,0,0,0,4h4Z"/><path class="cls-1" d="M14,32H10a2,2,0,0,0,0,4h4Z"/><path class="cls-1" d="M14,40H10a2,2,0,0,0,0,4h4Z"/><path class="cls-1" d="M14,48.09H10a2,2,0,0,0,0,4h4Z"/></g></g></svg>