<svg xmlns="http://www.w3.org/2000/svg" viewBox="0 0 176.31 102.05"><defs><style>.cls-1,.cls-2{fill:none;stroke:#fff;stroke-linecap:round;stroke-linejoin:round;}.cls-1{stroke-width:6.03px;}.cls-2{stroke-width:7.75px;}</style></defs><title>IC-Eye</title><g id="NSD_-_Partners" data-name="NSD - Partners"><path class="cls-1" d="M100.87,88.32A60.69,60.69,0,0,1,86,90.23C47.68,90.23,16.63,51,16.63,51S47.68,11.82,86,11.82a60.58,60.58,0,0,1,14,1.69"/><path class="cls-1" d="M100.87,70a24.13,24.13,0,1,1-1.39-39"/><path class="cls-1" d="M86,39A12.07,12.07,0,1,1,73.93,51"/><path class="cls-2" d="M129.57,14.11a65.86,65.86,0,0,0,0,73.09"/><path class="cls-2" d="M142.47,22.71a50.32,50.32,0,0,0,0,55.88"/><path class="cls-2" d="M155.36,31.3a34.88,34.88,0,0,0,0,38.7"/></g></svg>