<svg xmlns="http://www.w3.org/2000/svg" viewBox="0 0 32 32"><defs><style>.cls-1{fill:#414142;}</style></defs><title>IC-Graph</title><g id="Layer_2" data-name="Layer 2"><g id="NSD_-_Product_-_iSocial" data-name="NSD - Product - iSocial"><g id="Statics"><path class="cls-1" d="M31.83,1.55A1,1,0,1,0,30.17.45l-3.7,5.6A2.5,2.5,0,0,0,26,6a3,3,0,0,0-3,3,3,3,0,0,0,.15.91l-3.57,4.55A3,3,0,0,0,18,14a3,3,0,0,0-3,2.88L9.36,20.17A3,3,0,0,0,4,22a2.92,2.92,0,0,0,.57,1.74L.16,30.45a1,1,0,0,0,.29,1.39,1,1,0,0,0,1.39-.29l4.37-6.67A3,3,0,0,0,7,25a3,3,0,0,0,3-2.88l5.65-3.29A3,3,0,0,0,21,17a2.76,2.76,0,0,0-.16-.91l3.58-4.55A3,3,0,0,0,26,12a3,3,0,0,0,2.23-5ZM7,23a1,1,0,1,1,1-1A1,1,0,0,1,7,23Zm11-5a1,1,0,1,1,1-1A1,1,0,0,1,18,18Zm8-8a1,1,0,1,1,1-1A1,1,0,0,1,26,10ZM6,30a1,1,0,1,0,1,1A1,1,0,0,0,6,30Zm5,0a1,1,0,1,0,1,1A1,1,0,0,0,11,30Zm5,0a1,1,0,1,0,1,1A1,1,0,0,0,16,30Zm5,0a1,1,0,1,0,1,1A1,1,0,0,0,21,30Zm5,0a1,1,0,1,0,1,1A1,1,0,0,0,26,30Zm5,0a1,1,0,1,0,1,1A1,1,0,0,0,31,30ZM1,27a1,1,0,1,0-1-1A1,1,0,0,0,1,27Zm0-5a1,1,0,1,0-1-1A1,1,0,0,0,1,22Zm0-5a1,1,0,1,0-1-1A1,1,0,0,0,1,17Zm0-5a1,1,0,1,0-1-1A1,1,0,0,0,1,12ZM1,7A1,1,0,1,0,0,6,1,1,0,0,0,1,7ZM1,2A1,1,0,1,0,0,1,1,1,0,0,0,1,2Z"/></g></g></g></svg>