<svg xmlns="http://www.w3.org/2000/svg" viewBox="0 0 78.45 78.45"><defs><style>.cls-1{fill:#fff;stroke:#fff;stroke-miterlimit:10;}</style></defs><title>ic-Money</title><g id="Layer_2" data-name="Layer 2"><g id="Home"><path class="cls-1" d="M50.61,78A27.2,27.2,0,0,1,25.29,60.8a1.31,1.31,0,0,1,2.42-1A24.7,24.7,0,1,0,59.82,27.71,1.3,1.3,0,0,1,59.1,26a1.31,1.31,0,0,1,1.69-.73A27.31,27.31,0,0,1,50.61,78Z"/><path class="cls-1" d="M50.61,71.44a20.78,20.78,0,0,1-18.28-11,1.3,1.3,0,1,1,2.29-1.23A18.18,18.18,0,1,0,59.24,34.62a1.3,1.3,0,1,1,1.23-2.29,20.79,20.79,0,0,1-9.86,39.11Z"/><path class="cls-1" d="M26.21,51.91a25.71,25.71,0,1,1,25.7-25.7A25.73,25.73,0,0,1,26.21,51.91Zm0-48.81a23.11,23.11,0,1,0,23.1,23.11A23.14,23.14,0,0,0,26.21,3.1Z"/><path class="cls-1" d="M26.21,43.78A17.57,17.57,0,1,1,43.78,26.21,17.59,17.59,0,0,1,26.21,43.78Zm0-32.54a15,15,0,1,0,15,15A15,15,0,0,0,26.21,11.24Z"/><path class="cls-1" d="M26.34,35C23.13,35,21,33.07,21,30.27a1.3,1.3,0,1,1,2.6,0c0,1.88,1.93,2.08,2.76,2.08s2.76-.2,2.76-2.08c0-1.17-.34-1.42-2.69-2.58l-1.31-.64C22.8,25.91,21,25,21,22.15s2.21-4.72,5.36-4.72,5.31,1.9,5.31,4.72a1.31,1.31,0,0,1-2.61,0c0-1.91-1.89-2.11-2.7-2.11-.65,0-2.76.15-2.76,2.11,0,1.17.34,1.41,2.68,2.56l1.3.65c2.31,1.14,4.14,2,4.14,4.91S29.55,35,26.34,35Z"/><path class="cls-1" d="M26.21,19.37a1.3,1.3,0,0,1-1.3-1.3V16.44a1.3,1.3,0,1,1,2.6,0v1.63A1.3,1.3,0,0,1,26.21,19.37Z"/><path class="cls-1" d="M26.21,37.27a1.3,1.3,0,0,1-1.3-1.3V33.65a1.3,1.3,0,0,1,2.6,0V36A1.3,1.3,0,0,1,26.21,37.27Z"/></g></g></svg>