<svg xmlns="http://www.w3.org/2000/svg" viewBox="0 0 103.43 102.05"><defs><style>.cls-1{fill:#e76b55;}.cls-2{fill:#fff;}</style></defs><title>IC-Pharm</title><g id="NSD_-_Partners" data-name="NSD - Partners"><circle class="cls-1" cx="49.34" cy="51.03" r="35.5"/><path class="cls-2" d="M66.34,36h-34a1,1,0,0,0-1,1V68a7,7,0,0,0,7,7h22a7,7,0,0,0,7-7V37A1,1,0,0,0,66.34,36Zm-3,30a1,1,0,0,1-1,1h-26a1,1,0,0,1-1-1V40a1,1,0,0,1,1-1h26a1,1,0,0,1,1,1Z"/><path class="cls-2" d="M65.34,27h-32a4,4,0,0,0-4,4v2a1,1,0,0,0,1,1h38a1,1,0,0,0,1-1V31A4,4,0,0,0,65.34,27Z"/><path class="cls-2" d="M58.34,49h-5V44a1,1,0,0,0-1-1h-6a1,1,0,0,0-1,1v5h-5a1,1,0,0,0-1,1v6a1,1,0,0,0,1,1h5v5a1,1,0,0,0,1,1h6a1,1,0,0,0,1-1V57h5a1,1,0,0,0,1-1V50A1,1,0,0,0,58.34,49Z"/></g></svg>
