<svg xmlns="http://www.w3.org/2000/svg" viewBox="0 0 76.01 71"><defs><style>.cls-1{fill:#414142;}.cls-2,.cls-4{fill:none;stroke-linecap:round;}.cls-2{stroke:#fff;stroke-miterlimit:10;stroke-width:1.36px;}.cls-3{fill:#fff;}.cls-4{stroke:#de4344;stroke-linejoin:round;stroke-width:3px;}</style></defs><title>IC-RS-B</title><g id="Layer_2" data-name="Layer 2"><g id="NSD_-_Product_-_Routine_Success" data-name="NSD - Product - Routine Success"><circle class="cls-1" cx="35.5" cy="35.5" r="35.5"/><rect class="cls-2" x="25.27" y="21.05" width="20.45" height="31.36" rx="2.73"/><path class="cls-3" d="M32.77,22.41a1.37,1.37,0,1,0,1.37,1.36,1.36,1.36,0,0,0-1.37-1.36Z"/><line class="cls-2" x1="36.08" y1="23.77" x2="38.91" y2="23.77"/><line class="cls-2" x1="39.56" y1="19.35" x2="42.38" y2="19.35"/><line class="cls-4" x1="57.06" y1="18.21" x2="17.22" y2="58.05"/><path class="cls-3" d="M64.81,5.76A11.21,11.21,0,1,0,76,17,11.2,11.2,0,0,0,64.81,5.76Zm5.6,5,2,2-9,9L58.59,17l2-2,2.8,2.81Z"/></g></g></svg>