<svg xmlns="http://www.w3.org/2000/svg" viewBox="0 0 75.17 71"><defs><style>.cls-1{fill:#414142;}.cls-2{fill:#fff;}</style></defs><title>IC-RS-D</title><g id="Layer_2" data-name="Layer 2"><g id="NSD_-_Product_-_Routine_Success" data-name="NSD - Product - Routine Success"><circle class="cls-1" cx="35.5" cy="35.5" r="35.5"/><path class="cls-2" d="M45.76,29H44.58v-.91a2.92,2.92,0,0,0-2.4-2.87h0c-.73-.13-1-1-1.19-1.73v0c-.14-.57-.58-2.28-.59-2.3a.53.53,0,0,0-.51-.39H29.48a.53.53,0,0,0-.52.39s-.44,1.73-.59,2.3v0c-.19.77-.46,1.6-1.19,1.73h0a3,3,0,0,0-2.43,2.87v14.3a2.93,2.93,0,0,0,2.36,2.85l.1,0c.73.13,1,1,1.19,1.74v0c.1.4.4,2.58.58,3.95a.53.53,0,0,0,.53.46H39.85a.52.52,0,0,0,.52-.46c.18-1.37.48-3.55.58-3.95v0c.19-.77.46-1.6,1.19-1.73l.14,0a2.94,2.94,0,0,0,2.29-2.85v-8.1h1.18a.53.53,0,0,0,.53-.53V29.55A.53.53,0,0,0,45.76,29Zm-6.32-7.17c.14.54.39,1.49.48,1.88v0a5.6,5.6,0,0,0,.54,1.44H28.85a4.94,4.94,0,0,0,.54-1.44v0h5.48a.53.53,0,1,0,0-1.06H29.67c.08-.3.16-.6.21-.82Zm-9.5,28.56c-.13-1-.42-3.13-.54-3.6v-.05a5.32,5.32,0,0,0-.54-1.46H40.48a5.34,5.34,0,0,0-.55,1.47v0c0,.18-.11.59-.18,1.09H32.88a.53.53,0,0,0,0,1h6.7c-.07.56-.15,1.1-.19,1.47Zm13.52-8a1.79,1.79,0,0,1-1.8,1.83h-14a1.84,1.84,0,0,1-1.85-1.83V28.11a1.85,1.85,0,0,1,1.85-1.86h14a1.83,1.83,0,0,1,1.8,1.86Zm1.77-9.16h-.65V30.08h.65Z"/><path class="cls-2" d="M45.46,36a.53.53,0,0,0-.53.53v4.23a.53.53,0,0,0,.53.53.52.52,0,0,0,.53-.53V36.54A.53.53,0,0,0,45.46,36Z"/><path class="cls-2" d="M35.78,27.67h-6.9a1.71,1.71,0,0,0-1.72,1.7.54.54,0,1,0,1.07,0,.66.66,0,0,1,.65-.65h6.9a.53.53,0,1,0,0-1Z"/><path class="cls-2" d="M64,5.76A11.21,11.21,0,1,0,75.17,17,11.19,11.19,0,0,0,64,5.76Zm5.6,5,2,2-9,9L57.74,17l2-2,2.8,2.81Z"/></g></g></svg>