<svg xmlns="http://www.w3.org/2000/svg" viewBox="0 0 75.95 71"><defs><style>.cls-1{fill:#414142;}.cls-2,.cls-3{fill:none;stroke-linecap:round;stroke-linejoin:round;}.cls-2{stroke:#fff;stroke-width:1.13px;}.cls-3{stroke:#de4344;stroke-width:3px;}.cls-4{fill:#fff;}</style></defs><title>IC-RS-A</title><g id="Layer_2" data-name="Layer 2"><g id="NSD_-_Product_-_Routine_Success" data-name="NSD - Product - Routine Success"><circle class="cls-1" cx="35.5" cy="35.5" r="35.5"/><rect class="cls-2" x="22.56" y="22.38" width="25.88" height="25.88"/><line class="cls-2" x1="35.5" y1="38.13" x2="35.5" y2="30.25"/><line class="cls-2" x1="41.12" y1="38.13" x2="41.12" y2="35.88"/><line class="cls-2" x1="29.87" y1="31.38" x2="29.87" y2="25.75"/><line class="cls-2" x1="29.87" y1="38.13" x2="29.87" y2="33.63"/><line class="cls-2" x1="41.12" y1="33.63" x2="41.12" y2="25.75"/><line class="cls-2" x1="35.5" y1="28" x2="35.5" y2="25.75"/><rect class="cls-2" x="39.44" y="33.63" width="3.38" height="2.25"/><rect class="cls-2" x="33.81" y="28" width="3.38" height="2.25"/><rect class="cls-2" x="28.19" y="31.38" width="3.38" height="2.25"/><circle class="cls-2" cx="41.12" cy="43.19" r="1.69"/><circle class="cls-2" cx="35.5" cy="43.19" r="1.69"/><circle class="cls-2" cx="29.87" cy="43.19" r="1.69"/><line class="cls-3" x1="59.24" y1="18.21" x2="19.4" y2="58.05"/><path class="cls-4" d="M64.75,5.76A11.21,11.21,0,1,0,76,17,11.2,11.2,0,0,0,64.75,5.76Zm5.6,5,2,2-9,9L58.53,17l2-2,2.8,2.81Z"/></g></g></svg>