<svg xmlns="http://www.w3.org/2000/svg" viewBox="0 0 75.67 71"><defs><style>.cls-1{fill:#414142;}.cls-2,.cls-3{fill:none;stroke-linecap:round;stroke-linejoin:round;}.cls-2{stroke:#fff;stroke-width:1.33px;}.cls-3{stroke:#de4344;stroke-width:3px;}.cls-4{fill:#fff;}</style></defs><title>IC-RS-C</title><g id="Layer_2" data-name="Layer 2"><g id="NSD_-_Product_-_Routine_Success" data-name="NSD - Product - Routine Success"><circle class="cls-1" cx="35.5" cy="35.5" r="35.5"/><path class="cls-2" d="M36.83,50H26.88a6.63,6.63,0,0,1-6.63-6.63V38.89c0-7.51,5.31-8.83,8-8.83h4c1.28,0,2.65.66,2.65,2v.66c0,1.32-1.33,2-2.65,2H29.53s-1.32,4.64-4,4.64"/><path class="cls-2" d="M33.51,42h8.62a2,2,0,0,1,0,4h-5.3"/><path class="cls-2" d="M33.51,46h3.32a2,2,0,0,1,0,4h-2"/><line class="cls-2" x1="50.75" y1="31.38" x2="34.84" y2="31.38"/><path class="cls-2" d="M26.88,30.06v-2a2,2,0,0,1,2-2H48.76a2,2,0,0,1,2,2V40a2,2,0,0,1-2,2H28.87a2,2,0,0,1-2-2V38.68"/><line class="cls-2" x1="48.1" y1="34.03" x2="44.12" y2="34.03"/><line class="cls-3" x1="60.09" y1="18.21" x2="20.25" y2="58.05"/><path class="cls-4" d="M64.47,5.76A11.21,11.21,0,1,0,75.67,17,11.2,11.2,0,0,0,64.47,5.76Zm5.6,5,2,2-9,9L58.25,17l2-2,2.8,2.81Z"/></g></g></svg>