<svg xmlns="http://www.w3.org/2000/svg" viewBox="0 0 49.58 70.93"><defs><style>.cls-1{fill:none;stroke:#fff;stroke-linecap:round;stroke-linejoin:round;stroke-width:2.36px;}</style></defs><title>ic-Receipt</title><g id="Layer_2" data-name="Layer 2"><g id="Home"><polygon class="cls-1" points="1.18 69.75 7.08 63.74 13.09 69.75 18.89 63.74 24.79 69.65 30.69 63.74 36.59 69.65 42.5 63.74 48.4 69.75 48.4 1.28 42.5 7.08 36.59 1.18 30.69 7.08 24.79 1.18 18.89 7.08 12.98 1.18 7.08 7.08 1.18 1.28 1.18 69.75"/><line class="cls-1" x1="10.11" y1="17.71" x2="33.93" y2="17.71"/><line class="cls-1" x1="10.11" y1="27.15" x2="22.02" y2="27.15"/><line class="cls-1" x1="10.11" y1="36.59" x2="22.02" y2="36.59"/><line class="cls-1" x1="10.11" y1="46.04" x2="19.04" y2="46.04"/><line class="cls-1" x1="35.41" y1="51.89" x2="35.41" y2="55.48"/><line class="cls-1" x1="35.41" y1="30.69" x2="35.41" y2="34.03"/><path class="cls-1" d="M31,47.42A4.47,4.47,0,1,0,35.41,43a4.47,4.47,0,1,1,4.47-4.47"/></g></g></svg>