<svg xmlns="http://www.w3.org/2000/svg" viewBox="0 0 52.51 74.69"><defs><style>.cls-1{fill:#414142;}.cls-2{fill:#e76c55;}.cls-3{fill:#f6d092;}.cls-4{fill:#4b8084;}.cls-5{fill:#df4545;}</style></defs><title>Icon-RS-Watch</title><g id="Layer_2" data-name="Layer 2"><g id="NSD_-_Product_-_Routine_Success" data-name="NSD - Product - Routine Success"><path class="cls-1" d="M42.86,50.6A3.83,3.83,0,0,1,39,54.52H9.11A3.92,3.92,0,0,1,5.16,50.6V20a4,4,0,0,1,3.95-4H39a3.92,3.92,0,0,1,3.86,4Z"/><path class="cls-2" d="M20.4,37.41a3.67,3.67,0,0,1,.5-.62,1.68,1.68,0,0,0,.5-1.2,1.7,1.7,0,0,0-2.89-1.2,3.74,3.74,0,0,1-.62.51h0a4,4,0,0,1-5-.5h0a3.94,3.94,0,0,1,0-5.58,1.68,1.68,0,0,0,0-2.39,1.12,1.12,0,0,0-.21-.17,14.48,14.48,0,0,0-2.91,10,3.91,3.91,0,0,1,1.43,5.17,14.25,14.25,0,0,0,2,3.09,2.78,2.78,0,0,1,.27-.21h0a4,4,0,0,1,2.17-.65,3.89,3.89,0,0,1,2.18.66h0a3.67,3.67,0,0,1,.62.5,1.69,1.69,0,0,0,2.39-2.39,4.12,4.12,0,0,1-.5-.62h0a3.83,3.83,0,0,1-.66-2.17,4,4,0,0,1,.65-2.17Z"/><path class="cls-3" d="M32.87,38.39a1.73,1.73,0,0,0-2.39,0,4,4,0,0,1-5.59,0,1.73,1.73,0,0,0-2.39,0,1.66,1.66,0,0,0-.5,1.19,1.68,1.68,0,0,0,.5,1.2,3.67,3.67,0,0,1,.5.62h0a4,4,0,0,1,0,4.35h0a4.12,4.12,0,0,1-.5.62h0a4,4,0,0,1-5.59,0,1.73,1.73,0,0,0-2-.27,14.48,14.48,0,0,0,9.4,3.44,4.06,4.06,0,0,1,.6-.78,3.93,3.93,0,0,1,5.11-.4,14.19,14.19,0,0,0,3-1.79,1.06,1.06,0,0,0-.17-.2,4,4,0,0,1,0-5.59A1.69,1.69,0,0,0,32.87,38.39Z"/><path class="cls-4" d="M38.77,35.45a3.83,3.83,0,0,1-1.91-1.06,3.94,3.94,0,0,1,0-5.58,1.51,1.51,0,0,0,.31-.45,14.7,14.7,0,0,0-1.57-2.42,1.66,1.66,0,0,0-1.13.48,4,4,0,0,1-5.59,0,1.73,1.73,0,0,0-2.39,0,1.69,1.69,0,0,0,0,2.39,4,4,0,0,1,0,5.58,1.7,1.7,0,0,0-.5,1.2,1.68,1.68,0,0,0,.5,1.2,1.73,1.73,0,0,0,2.39,0,3.95,3.95,0,0,1,5.59,0,3.67,3.67,0,0,1,.5.62h0a3.87,3.87,0,0,1,.65,2.17A3.82,3.82,0,0,1,35,41.75h0a4.12,4.12,0,0,1-.5.62,1.69,1.69,0,0,0,0,2.39,1.18,1.18,0,0,0,.31.24A14.39,14.39,0,0,0,38.77,35.45Z"/><path class="cls-5" d="M23.55,20.53a3.92,3.92,0,0,1-3.85,3A3.93,3.93,0,0,1,17,22.48a14.85,14.85,0,0,0-2.7,2,1.54,1.54,0,0,0,.25.32,3.67,3.67,0,0,1,.5.62h0a3.87,3.87,0,0,1,.65,2.17A3.82,3.82,0,0,1,15,29.78h0a4.12,4.12,0,0,1-.5.62,1.68,1.68,0,0,0,0,2.39,1.76,1.76,0,0,0,.3.24,1.7,1.7,0,0,0,2.09-.24,4,4,0,0,1,5.59,0,1.73,1.73,0,0,0,2.39,0,1.68,1.68,0,0,0,0-2.39,4,4,0,0,1,0-5.59,3.95,3.95,0,0,1,5.59,0,1.73,1.73,0,0,0,2.39,0,1.69,1.69,0,0,0,.49-1.12A14.48,14.48,0,0,0,23.55,20.53Z"/><path class="cls-1" d="M51.22,20H48.36V17.82a7.13,7.13,0,0,0-5.83-7h-.08c-1.78-.32-2.44-2.34-2.9-4.21l0-.06C39.18,5.16,38.1,1,38.09,1a1.3,1.3,0,0,0-1.25-1H11.59a1.3,1.3,0,0,0-1.25,1c0,.05-1.09,4.2-1.43,5.59l0,.06C8.43,8.48,7.78,10.5,6,10.82l-.1,0a7.14,7.14,0,0,0-5.9,7V52.63a7.13,7.13,0,0,0,5.73,6.94,1.17,1.17,0,0,0,.25.07C7.76,60,8.42,62,8.88,63.88l0,.07c.24,1,1,6.28,1.4,9.61a1.29,1.29,0,0,0,1.28,1.13H36.84a1.29,1.29,0,0,0,1.28-1.13c.43-3.33,1.16-8.64,1.4-9.61l0-.07C40,62,40.65,60,42.44,59.66a2,2,0,0,0,.35-.1,7.13,7.13,0,0,0,5.57-6.93V32.91h2.86a1.29,1.29,0,0,0,1.29-1.29V21.32A1.29,1.29,0,0,0,51.22,20ZM35.85,2.58c.34,1.32.93,3.63,1.17,4.59l0,.07a13.33,13.33,0,0,0,1.31,3.49H10.08a12.64,12.64,0,0,0,1.31-3.49l0-.07v0H24.75a1.29,1.29,0,1,0,0-2.57H12.07c.19-.73.37-1.45.52-2ZM12.72,72.11c-.32-2.39-1-7.62-1.31-8.78l0-.11a13.56,13.56,0,0,0-1.32-3.56H38.38A13.11,13.11,0,0,0,37,63.23l0,.08c-.1.44-.27,1.45-.45,2.65H19.89a1.29,1.29,0,1,0,0,2.57H36.2c-.19,1.35-.37,2.67-.49,3.58ZM45.64,52.63a4.36,4.36,0,0,1-4.39,4.46h-34a4.45,4.45,0,0,1-4.49-4.46V17.82a4.49,4.49,0,0,1,4.49-4.51h34a4.45,4.45,0,0,1,4.39,4.51Zm4.29-22.3H48.36V22.61h1.57Z"/><path class="cls-1" d="M50.51,37.06a1.28,1.28,0,0,0-1.29,1.28V48.65a1.29,1.29,0,0,0,2.57,0V38.34A1.28,1.28,0,0,0,50.51,37.06Z"/><path class="cls-1" d="M26.94,16.74H10.15A4.18,4.18,0,0,0,6,20.9a1.31,1.31,0,1,0,2.61,0,1.58,1.58,0,0,1,1.59-1.56H26.94a1.29,1.29,0,1,0,0-2.58Z"/></g></g></svg>