<svg xmlns="http://www.w3.org/2000/svg" viewBox="0 0 71 71"><defs><style>.cls-1{fill:#414142;}.cls-2{fill:#fff;}</style></defs><title>Icon-Alarm</title><g id="Layer_2" data-name="Layer 2"><g id="NSD_-_Product_-_Routine_Success" data-name="NSD - Product - Routine Success"><circle class="cls-1" cx="35.5" cy="35.5" r="35.5"/><path class="cls-2" d="M23.65,52.61a.77.77,0,0,0,0,1.1.77.77,0,0,0,1.1,0l1-1c-.44-.29-.86-.6-1.28-.93Z"/><path class="cls-2" d="M45.75,51.78c-.42.33-.84.64-1.28.93l1,1a.77.77,0,0,0,1.1,0,.77.77,0,0,0,0-1.1Z"/><path class="cls-2" d="M46.8,18.09a7,7,0,0,0-6.32,4A17.19,17.19,0,0,1,50.59,31a7,7,0,0,0-3.79-12.9Z"/><path class="cls-2" d="M30.42,21.87a7,7,0,1,0-10.59,8.71A17.2,17.2,0,0,1,30.42,21.87Z"/><path class="cls-2" d="M35.11,22.77A15.59,15.59,0,1,0,50.7,38.35,15.61,15.61,0,0,0,35.11,22.77Zm1.56,16.36a.78.78,0,0,1-.78.78H29.66a.78.78,0,1,1,0-1.56h5.45V29.78a.78.78,0,0,1,1.56,0Z"/></g></g></svg>