<svg xmlns="http://www.w3.org/2000/svg" viewBox="0 0 63.78 64.15"><defs><style>.cls-1{fill:#fff;}</style></defs><title>Icon-RS-Finger</title><g id="Layer_2" data-name="Layer 2"><g id="NSD_-_Product_-_Routine_Success" data-name="NSD - Product - Routine Success"><path class="cls-1" d="M5.09,9.27a6.17,6.17,0,0,0-5.09,6v29.8A6.11,6.11,0,0,0,4.91,51a.73.73,0,0,0,.21.06c1.52.27,2.08,2,2.48,3.62l0,.07c.21.83.84,5.37,1.21,8.22a1.11,1.11,0,0,0,1.09,1H31.53a1.11,1.11,0,0,0,1.1-1c.37-2.85,1-7.39,1.2-8.22,0-.14.06-.28.1-.43a7.2,7.2,0,0,1,.6-1.82L45.86,63.82a1.1,1.1,0,0,0,.78.33,1.11,1.11,0,0,0,.78-1.88L27,41.87a9.62,9.62,0,0,1-2.43-4l5.89,5.88a8.48,8.48,0,0,0,6,2.5,8.67,8.67,0,0,0,6.16-2.57l.48-.48a8.46,8.46,0,0,0,.07-12.11l-6.16-6.16a9.64,9.64,0,0,1,4.43,2.53L61.9,47.83a1.13,1.13,0,0,0,.78.32,1.1,1.1,0,0,0,.78-1.88L44.8,27.61a1.12,1.12,0,0,0,.14-.55V18.25a1.11,1.11,0,0,0-1.1-1.11H41.39V15.25a6.1,6.1,0,0,0-5-6h-.06c-1.53-.27-2.09-2-2.49-3.6l0-.06C33.54,4.42,32.61.86,32.6.83A1.09,1.09,0,0,0,31.53,0H9.92A1.11,1.11,0,0,0,8.85.83S7.92,4.42,7.63,5.6l0,.06C7.21,7.26,6.62,9,5.09,9.27ZM30.68,2.2l1,3.94v.05a11,11,0,0,0,1.13,3H8.63a11,11,0,0,0,1.12-3V6.12H21.19a1.1,1.1,0,0,0,0-2.2H10.33c.16-.62.32-1.24.44-1.72ZM10.89,61.72c-.27-2-.88-6.52-1.13-7.52v-.08a11.28,11.28,0,0,0-1.13-3H32.78a9,9,0,0,0-1,2.72c0,.14-.06.28-.09.4-.09.37-.23,1.24-.39,2.27H17a1.1,1.1,0,0,0,0,2.2H31c-.16,1.15-.31,2.28-.41,3.06ZM41.59,41.6l-.48.48A6.49,6.49,0,0,1,36.51,44a6.27,6.27,0,0,1-4.46-1.86l-9.91-9.88-.05,0a2.64,2.64,0,0,1-.77-1.66,3,3,0,0,1,1.08-2.16l5.47-5.47A3,3,0,0,1,30,21.86a2.64,2.64,0,0,1,1.73.78.47.47,0,0,0,.1.1l9.87,9.87A6.29,6.29,0,0,1,41.59,41.6ZM33.31,21.13l0,0A4.73,4.73,0,0,0,30,19.66a5.16,5.16,0,0,0-3.66,1.72l-5.47,5.47a5.11,5.11,0,0,0-1.73,3.79,4.76,4.76,0,0,0,1.49,3.21L22,35.22a11.85,11.85,0,0,0,3.5,8.2l5.45,5.44H6.17a3.8,3.8,0,0,1-3.84-3.81V15.25a3.84,3.84,0,0,1,3.84-3.86H35.31a3.81,3.81,0,0,1,3.76,3.86v8a11.64,11.64,0,0,0-4.55-.88Zm8.08,3.31V19.35h1.35v6.21A12,12,0,0,0,41.39,24.44Z"/><path class="cls-1" d="M23.06,14.33H8.69A3.57,3.57,0,0,0,5.1,17.89,1.11,1.11,0,0,0,6.21,19a1.13,1.13,0,0,0,1.12-1.13,1.36,1.36,0,0,1,1.36-1.34H23.06a1.1,1.1,0,1,0,0-2.2Z"/><path class="cls-1" d="M50.71,46l-5.28,5.28a1.1,1.1,0,0,0,0,1.56,1.11,1.11,0,0,0,1.56,0l5.28-5.28A1.1,1.1,0,1,0,50.71,46Z"/></g></g></svg>