<svg xmlns="http://www.w3.org/2000/svg" viewBox="0 0 132.74 71.04"><defs><style>.cls-1{fill:#414142;}.cls-2,.cls-3{fill:none;stroke-linecap:round;stroke-linejoin:round;}.cls-2{stroke:#fff;stroke-width:1.32px;}.cls-3{stroke:#de4344;stroke-width:3px;}</style></defs><title>Icon-RS-AlarmCal</title><g id="Layer_2" data-name="Layer 2"><g id="NSD_-_Product_-_Routine_Success" data-name="NSD - Product - Routine Success"><circle class="cls-1" cx="35.5" cy="35.5" r="35.5"/><path class="cls-2" d="M44.37,43.4V37.46a8.58,8.58,0,0,0-5.28-7.92,3.3,3.3,0,0,0-6.6,0,8.58,8.58,0,0,0-5.28,7.92V43.4A2.64,2.64,0,0,1,24.57,46H47A2.64,2.64,0,0,1,44.37,43.4Z"/><path class="cls-2" d="M38.43,46a2.64,2.64,0,0,1-5.28,0"/><path class="cls-2" d="M24.57,29.54a7.26,7.26,0,0,1,7.26-7.26"/><path class="cls-2" d="M20.61,29.54A11.22,11.22,0,0,1,31.83,18.32"/><path class="cls-2" d="M47,29.54a7.26,7.26,0,0,0-7.26-7.26"/><path class="cls-2" d="M51,29.54A11.22,11.22,0,0,0,39.75,18.32"/><line class="cls-3" x1="55.73" y1="15.52" x2="15.89" y2="55.36"/><circle class="cls-1" cx="97.24" cy="35.54" r="35.5"/><polyline class="cls-2" points="88 22 82.72 22 82.72 49.72 113.08 49.72 113.08 22 107.8 22"/><rect class="cls-2" x="88" y="19.36" width="3.96" height="5.28"/><rect class="cls-2" x="103.84" y="19.36" width="3.96" height="5.28"/><line class="cls-2" x1="91.96" y1="22" x2="103.84" y2="22"/><line class="cls-2" x1="82.72" y1="28.6" x2="113.08" y2="28.6"/><line class="cls-2" x1="90.64" y1="31.24" x2="90.64" y2="47.08"/><line class="cls-2" x1="97.24" y1="31.24" x2="97.24" y2="47.08"/><line class="cls-2" x1="103.84" y1="31.24" x2="103.84" y2="47.08"/><line class="cls-2" x1="85.36" y1="33.88" x2="110.44" y2="33.88"/><line class="cls-2" x1="85.36" y1="39.16" x2="110.44" y2="39.16"/><line class="cls-2" x1="85.36" y1="44.44" x2="110.44" y2="44.44"/><line class="cls-3" x1="117.22" y1="15.56" x2="77.38" y2="55.4"/></g></g></svg>