<svg xmlns="http://www.w3.org/2000/svg" viewBox="0 0 71 71"><defs><style>.cls-1,.cls-3{fill:#414142;}.cls-2{fill:#fff;}.cls-3{font-size:14px;font-family:Roboto-Bold, Roboto;font-weight:700;letter-spacing:-0.02em;}</style></defs><title>Icon-Head</title><g id="Layer_2" data-name="Layer 2"><g id="NSD_-_Product_-_Routine_Success" data-name="NSD - Product - Routine Success"><circle class="cls-1" cx="35.5" cy="35.5" r="35.5"/><path class="cls-2" d="M35.5,11.49A24,24,0,0,0,18.44,52.37h0A24,24,0,1,0,35.5,11.49ZM51.69,50.35a54.92,54.92,0,0,0-8.64-3.62L40.5,45.8V42.1c1-.62,2.77-2.21,3-5.87a3.05,3.05,0,0,0,1.26-2.74,3.22,3.22,0,0,0-1-2.59c.49-1.51,1.36-4.29.77-6.65C43.78,21.47,40,20.49,37,20.49c-2.68,0-6,.78-7.14,2.91a2.89,2.89,0,0,0-2.58,1.06c-1.27,1.68-.43,4.74,0,6.42a3.23,3.23,0,0,0-1.06,2.61,3.05,3.05,0,0,0,1.26,2.74c.21,3.66,2,5.25,3,5.87v3.7l-2.35.86a57.43,57.43,0,0,0-8.82,3.71,22,22,0,1,1,32.36,0Z"/><text class="cls-3" transform="translate(32.01 35.5)">?</text></g></g></svg>