<svg id="_01_-_iSocial_BP_OK_-_PICS" data-name="01 - iSocial BP OK - PICS" xmlns="http://www.w3.org/2000/svg" viewBox="0 0 98.73 37.16"><defs><style>.cls-1{fill:#7c7d7f;}</style></defs><title>IMG - LOGO CASP</title><path class="cls-1" d="M61,10.34A8.88,8.88,0,0,0,57.39,9c-.78-.18-1.56-.33-2.32-.57a1.23,1.23,0,0,1-.49-2A1.94,1.94,0,0,1,56,5.79,7.82,7.82,0,0,1,58.67,6c.81.25,1.65.45,2.53.69a.44.44,0,0,0,0-.18c0-.78,0-1.56,0-2.34A.38.38,0,0,0,61,3.83a12.35,12.35,0,0,0-1.33-.34,19.71,19.71,0,0,0-3.83-.29,6.24,6.24,0,0,0-3.16.85,3.32,3.32,0,0,0-1.55,2.2,5.21,5.21,0,0,0-.09,2.05,3.4,3.4,0,0,0,1.53,2.39A11,11,0,0,0,56,11.88c.66.17,1.31.37,2,.58a1.39,1.39,0,0,1,.38,2.21,2.22,2.22,0,0,1-1.39.58,7.67,7.67,0,0,1-3.46-.38,6.16,6.16,0,0,1-1.45-.73,7.38,7.38,0,0,1-1.77-2.59c-.31-.62-.56-1.28-.83-1.92S49,8.45,48.74,7.84s-.42-1.33-.64-2c-.07-.23-.17-.46-.25-.7-.17-.46-.36-.92-.5-1.39-.06-.2-.13-.29-.33-.29H43.1a.33.33,0,0,0-.26.13c-.23.57-.43,1.16-.64,1.73-.15.41-.3.82-.46,1.22s-.34.87-.5,1.31c-.23.61-.44,1.22-.67,1.83s-.5,1.23-.71,1.85a5.58,5.58,0,0,1-.94,1.77,5.38,5.38,0,0,1-3.58,1.91,5.29,5.29,0,0,1-3.25-.34,3.77,3.77,0,0,1-1.76-1.79,5.55,5.55,0,0,1-.45-1.79,5.85,5.85,0,0,1,.65-3.67A3.54,3.54,0,0,1,33.2,5.81a6.54,6.54,0,0,1,4.44.89c.17.11.35.19.58.32,0-.84,0-1.6,0-2.35A.55.55,0,0,0,37.78,4c-.19,0-.37-.18-.57-.23A15.47,15.47,0,0,0,35,3.27a9.25,9.25,0,0,0-3.59.18,11.23,11.23,0,0,0-1.86.69,6.18,6.18,0,0,0-2.5,2.39,6.69,6.69,0,0,0-.86,2.34,13.87,13.87,0,0,0-.09,2,6.93,6.93,0,0,0,1,3.7,6.66,6.66,0,0,0,4.91,3.12,13.73,13.73,0,0,0,4.52-.09,9.86,9.86,0,0,0,2.6-.83A7,7,0,0,0,42,14.3a15.19,15.19,0,0,0,.84-1.6c.22-.48.38-1,.57-1.47s.31-.8.46-1.21.35-.9.51-1.36.3-.92.46-1.37a4.07,4.07,0,0,1,.28-.54c.24.66.46,1.24.66,1.83s.37,1.15.58,1.71q.48,1.26,1,2.49a9.1,9.1,0,0,0,1.79,2.76,6.91,6.91,0,0,0,4.38,2.22,21.16,21.16,0,0,0,4,.06,7,7,0,0,0,2.59-.61,3.58,3.58,0,0,0,2.07-2.83A5.35,5.35,0,0,0,62,11.81,3.16,3.16,0,0,0,61,10.34Z"/><path class="cls-1" d="M63.41,17.59c1,0,1.91,0,2.86,0,.34,0,.43-.12.43-.44,0-1.32,0-2.64,0-3.95,0-.54,0-.54.55-.54a14.83,14.83,0,0,0,4.5-.37,4.73,4.73,0,0,0,1.7-.94,4.47,4.47,0,0,0,1.35-3.66c0-.2-.09-.4-.11-.61a3.41,3.41,0,0,0-.93-2,5,5,0,0,0-3.64-1.55c-2.21-.08-4.43,0-6.65,0-.43,0-.43,0-.44.44v6.62c0,2.23,0,4.45,0,6.68C63,17.49,63.11,17.6,63.41,17.59ZM67.08,6C67.7,6,68.33,6,69,6A2,2,0,0,1,70.84,7,1.77,1.77,0,0,1,71,8.49a2.29,2.29,0,0,1-.57,1.06,2.52,2.52,0,0,1-1.57.55c-.6,0-1.21,0-1.81,0-.27,0-.37-.12-.37-.37V8c0-.56,0-1.12,0-1.68C66.68,6.07,66.79,6,67.08,6Z"/><path class="cls-1" d="M47.06,14.79a2.09,2.09,0,0,0-4.18,0,2,2,0,0,0,2.07,2A2,2,0,0,0,47.06,14.79Z"/><polygon class="cls-1" points="12.21 22.07 13.89 22.07 13.89 26.42 14.83 26.42 14.83 22.07 16.52 22.07 16.52 21.27 12.21 21.27 12.21 22.07"/><path class="cls-1" d="M19.25,22.63a1.43,1.43,0,0,0-1.27.73h0a2.26,2.26,0,0,0,0-.31V21.27h-.92v5.15H18v-1.7a1.86,1.86,0,0,1,.05-.48,1,1,0,0,1,1-.77c.47,0,.59.31.59.76v2.19h.91V24C20.53,23.06,20.07,22.63,19.25,22.63Z"/><path class="cls-1" d="M24.71,26l-.36-.66a1.81,1.81,0,0,1-1.06.41,1.05,1.05,0,0,1-1.11-1h2.55s0-.24,0-.35a1.6,1.6,0,0,0-1.64-1.76,1.83,1.83,0,0,0-1.87,1.94,1.89,1.89,0,0,0,2,1.93A2.33,2.33,0,0,0,24.71,26Zm-1.62-2.63a.71.71,0,0,1,.73.77H22.21A.85.85,0,0,1,23.09,23.34Z"/><path class="cls-1" d="M31.74,25.67,31.25,25a2.21,2.21,0,0,1-1.49.65A1.74,1.74,0,0,1,28,23.81,1.68,1.68,0,0,1,29.75,22a2.29,2.29,0,0,1,1.41.54l.45-.69a2.67,2.67,0,0,0-1.9-.71,2.66,2.66,0,0,0,0,5.32A2.77,2.77,0,0,0,31.74,25.67Z"/><path class="cls-1" d="M34.22,22.63a1.94,1.94,0,1,0,2,1.94A1.94,1.94,0,0,0,34.22,22.63Zm0,3.09a1.15,1.15,0,1,1,1.1-1.15A1.1,1.1,0,0,1,34.22,25.72Z"/><path class="cls-1" d="M39.51,25.73h0s0,.12,0,.27v.42h.88v-3.7h-.92v1.7a1.11,1.11,0,0,1-1,1.24c-.45,0-.57-.3-.57-.75V22.72h-.92V25.1c0,1,.49,1.4,1.28,1.4A1.43,1.43,0,0,0,39.51,25.73Z"/><path class="cls-1" d="M42.29,22.72h-.88v3.7h.92v-1.7a1.57,1.57,0,0,1,.06-.49,1,1,0,0,1,1-.76c.48,0,.59.31.59.76v2.19h.91V24c0-1-.46-1.41-1.28-1.41a1.44,1.44,0,0,0-1.31.77h0s0-.11,0-.25Z"/><path class="cls-1" d="M49.11,25.9l-.36-.65a1.68,1.68,0,0,1-1.08.47,1.12,1.12,0,0,1-1.15-1.16,1.09,1.09,0,0,1,1.12-1.14,1.45,1.45,0,0,1,1,.39l.41-.63a1.89,1.89,0,0,0-1.42-.55,1.94,1.94,0,1,0,0,3.87A2.11,2.11,0,0,0,49.11,25.9Z"/><rect class="cls-1" x="49.8" y="22.72" width="0.92" height="3.7"/><rect class="cls-1" x="49.8" y="21.27" width="0.91" height="0.82"/><path class="cls-1" d="M51.68,21.27v4c0,1.06.63,1.19,1.14,1.19a2.33,2.33,0,0,0,.29,0v-.8H53c-.24,0-.37-.1-.37-.5V21.27Z"/><path class="cls-1" d="M59.34,24.57a2,2,0,1,0-2,1.93A1.94,1.94,0,0,0,59.34,24.57Zm-3.13,0a1.1,1.1,0,1,1,1.1,1.15A1.1,1.1,0,0,1,56.21,24.57Z"/><path class="cls-1" d="M60.27,22.61v.17h-.46v.73h.46v2.91h.92V23.51H62v-.73h-.79v-.15c0-.53.45-.6.71-.6a.86.86,0,0,1,.19,0v-.79a2.08,2.08,0,0,0-.31,0A1.33,1.33,0,0,0,60.27,22.61Z"/><path class="cls-1" d="M65.67,21.27l-1.81,5.15h1l.44-1.32h1.8l.44,1.32h1l-1.81-5.15Zm-.19,3.07L65.94,23c.1-.29.22-.8.22-.8h0s.11.51.2.8l.46,1.38Z"/><path class="cls-1" d="M71.45,24.42a1.11,1.11,0,0,1-1,1.24c-.46,0-.57-.3-.57-.75V22.72h-.93V25.1c0,1,.5,1.4,1.29,1.4a1.41,1.41,0,0,0,1.28-.77h0s0,.12,0,.27v.42h.88v-3.7h-.92Z"/><path class="cls-1" d="M75.37,25.63H75.2a.66.66,0,0,1-.73-.7V23.51h.84v-.73h-.84V21.71h-.9v1.07h-.5v.73h.48v1.55a1.35,1.35,0,0,0,1.53,1.39,1.79,1.79,0,0,0,.29,0Z"/><rect class="cls-1" x="76.12" y="21.27" width="0.91" height="0.82"/><rect class="cls-1" x="76.12" y="22.72" width="0.92" height="3.7"/><path class="cls-1" d="M78.8,23.75c0-.23.23-.33.47-.33a1.42,1.42,0,0,1,.9.31l.34-.68a1.76,1.76,0,0,0-1.24-.42c-.79,0-1.41.4-1.41,1.09,0,1.19,1.8,1.12,1.8,1.67,0,.21-.23.33-.49.33a1.51,1.51,0,0,1-1-.41l-.42.65a2.06,2.06,0,0,0,1.43.54c.88,0,1.41-.49,1.41-1.11C80.59,24.21,78.8,24.27,78.8,23.75Z"/><path class="cls-1" d="M85.77,22.63a1.47,1.47,0,0,0-1.26.76h0a1,1,0,0,0-1.08-.76,1.4,1.4,0,0,0-1.2.77h0a1.55,1.55,0,0,0,0-.25v-.43h-.89v3.7h.92V24.79a1.78,1.78,0,0,1,0-.47,1,1,0,0,1,.9-.85c.44,0,.5.34.5.74v2.21h.92V24.79a1.86,1.86,0,0,1,0-.48,1,1,0,0,1,.89-.84c.42,0,.5.32.5.74v2.21H87V24C87,23.07,86.54,22.63,85.77,22.63Z"/><path class="cls-1" d="M22.88,29.39a.63.63,0,0,1,.7-.56,1.72,1.72,0,0,1,1,.41l.37-.69a2,2,0,0,0-1.4-.5A1.44,1.44,0,0,0,22,29.41c0,1.43,2.21,1.29,2.21,2.12,0,.39-.32.57-.68.57a1.85,1.85,0,0,1-1.16-.49l-.47.64a2.3,2.3,0,0,0,1.62.63,1.4,1.4,0,0,0,1.54-1.37C25.08,30,22.88,30.22,22.88,29.39Z"/><path class="cls-1" d="M27.46,29.37a1.65,1.65,0,0,0-1.7,1.76,1.72,1.72,0,0,0,1.8,1.75,2.09,2.09,0,0,0,1.35-.48l-.32-.6a1.67,1.67,0,0,1-1,.37,1,1,0,0,1-1-.89h2.32s0-.22,0-.32A1.45,1.45,0,0,0,27.46,29.37Zm-.82,1.34a.79.79,0,0,1,.81-.7.65.65,0,0,1,.66.7Z"/><path class="cls-1" d="M30.65,30.26h0a1.5,1.5,0,0,0,0-.24v-.57h-.81v3.36h.84V31.47a1.86,1.86,0,0,1,.07-.54,1,1,0,0,1,.92-.71,1,1,0,0,1,.2,0v-.83h-.16A1.15,1.15,0,0,0,30.65,30.26Z"/><path class="cls-1" d="M34,31.53c-.07.19-.11.5-.12.5h0s0-.31-.12-.5l-.7-2.08h-.88l1.22,3.36h1l1.2-3.36H34.7Z"/><rect class="cls-1" x="36.25" y="29.45" width="0.84" height="3.36"/><rect class="cls-1" x="36.25" y="28.13" width="0.83" height="0.74"/><path class="cls-1" d="M39.86,32.17a1,1,0,0,1-1-1.05,1,1,0,0,1,1-1,1.33,1.33,0,0,1,.88.36l.37-.57a1.8,1.8,0,1,0-1.29,3,1.92,1.92,0,0,0,1.38-.54l-.32-.6A1.57,1.57,0,0,1,39.86,32.17Z"/><path class="cls-1" d="M43.46,29.37a1.65,1.65,0,0,0-1.7,1.76,1.72,1.72,0,0,0,1.8,1.75,2.09,2.09,0,0,0,1.35-.48l-.32-.6a1.67,1.67,0,0,1-1,.37,1,1,0,0,1-1-.89h2.32s0-.22,0-.32A1.45,1.45,0,0,0,43.46,29.37Zm-.82,1.34a.78.78,0,0,1,.8-.7.66.66,0,0,1,.67.7Z"/><path class="cls-1" d="M49.58,28.13H47.77v4.68h.85V31.19h1a1.45,1.45,0,0,0,1.49-1.54A1.44,1.44,0,0,0,49.58,28.13Zm-.16,2.32h-.8V28.86h.81a.8.8,0,0,1,0,1.59Z"/><path class="cls-1" d="M52.69,30.26h0a1.5,1.5,0,0,0,0-.24v-.57h-.81v3.36h.84V31.47a1.86,1.86,0,0,1,.07-.54,1,1,0,0,1,.92-.71.86.86,0,0,1,.19,0v-.83h-.15A1.15,1.15,0,0,0,52.69,30.26Z"/><path class="cls-1" d="M56.26,29.37a1.76,1.76,0,1,0,1.85,1.76A1.76,1.76,0,0,0,56.26,29.37Zm0,2.8a1,1,0,1,1,1-1A1,1,0,0,1,56.27,32.17Z"/><path class="cls-1" d="M60.35,31.53a4.5,4.5,0,0,0-.11.5h0a3.4,3.4,0,0,0-.12-.5l-.69-2.08h-.89l1.22,3.36h1l1.21-3.36h-.89Z"/><rect class="cls-1" x="62.6" y="28.13" width="0.83" height="0.74"/><rect class="cls-1" x="62.6" y="29.45" width="0.84" height="3.36"/><path class="cls-1" d="M66.82,29.6a1.7,1.7,0,0,0,0,.19h0a1.06,1.06,0,0,0-1-.42,1.57,1.57,0,0,0-1.52,1.76c0,1,.58,1.75,1.49,1.75a1.16,1.16,0,0,0,1.05-.57h0s0,.09,0,.22v.28h.79V28.13h-.84ZM66,32.18c-.5,0-.84-.42-.84-1.05s.38-1.05.84-1.05.84.52.84,1C66.85,31.86,66.44,32.18,66,32.18Z"/><path class="cls-1" d="M70.25,29.37a1.66,1.66,0,0,0-1.71,1.76,1.72,1.72,0,0,0,1.81,1.75,2.09,2.09,0,0,0,1.35-.48l-.32-.6a1.67,1.67,0,0,1-1,.37,1,1,0,0,1-1-.89h2.32s0-.22,0-.32A1.45,1.45,0,0,0,70.25,29.37Zm-.82,1.34a.78.78,0,0,1,.8-.7.66.66,0,0,1,.67.7Z"/><path class="cls-1" d="M73.43,30.26h0s0-.11,0-.24v-.57h-.8v3.36h.84V31.47a1.86,1.86,0,0,1,.07-.54,1,1,0,0,1,.91-.71.91.91,0,0,1,.2,0v-.83H74.5A1.16,1.16,0,0,0,73.43,30.26Z"/><path class="cls-1" d="M76.09,30.38c0-.21.21-.3.43-.3a1.27,1.27,0,0,1,.82.29l.31-.62a1.62,1.62,0,0,0-1.13-.38c-.72,0-1.28.36-1.28,1,0,1.09,1.63,1,1.63,1.52,0,.2-.2.3-.44.3a1.37,1.37,0,0,1-.91-.37l-.39.59a1.9,1.9,0,0,0,1.31.49c.79,0,1.28-.44,1.28-1C77.72,30.8,76.09,30.86,76.09,30.38Z"/></svg>