<svg xmlns="http://www.w3.org/2000/svg" xmlns:xlink="http://www.w3.org/1999/xlink" viewBox="0 0 134.05 35.19"><defs><style>.cls-1,.cls-10,.cls-13{fill:none;}.cls-2{isolation:isolate;}.cls-3{clip-path:url(#clip-path);}.cls-4{opacity:0.15;mix-blend-mode:multiply;}.cls-5{clip-path:url(#clip-path-2);}.cls-6{fill:#221f1f;}.cls-7{fill:#2d5884;}.cls-8{fill:#336496;}.cls-9{fill:#5090cc;}.cls-10{stroke:#5090cc;stroke-width:0.34px;}.cls-11{fill:#fff;}.cls-12{clip-path:url(#clip-path-4);}.cls-13{stroke:#7bb9e4;stroke-width:0.75px;}.cls-14{clip-path:url(#clip-path-6);}.cls-15{clip-path:url(#clip-path-8);}.cls-16{clip-path:url(#clip-path-10);}.cls-17{clip-path:url(#clip-path-12);}.cls-18{clip-path:url(#clip-path-14);}.cls-19{clip-path:url(#clip-path-16);}.cls-20{clip-path:url(#clip-path-18);}.cls-21{clip-path:url(#clip-path-20);}.cls-22{clip-path:url(#clip-path-22);}.cls-23{clip-path:url(#clip-path-24);}</style><clipPath id="clip-path"><rect class="cls-1" x="15.01" y="5.88" width="97.09" height="25.27"/></clipPath><clipPath id="clip-path-2"><rect class="cls-1" x="15.01" y="6.81" width="97.09" height="24.33"/></clipPath><clipPath id="clip-path-4"><path class="cls-1" d="M22.08,14.7l.45,0h.06a2.24,2.24,0,0,1,.46.05,1.7,1.7,0,0,1,.46.18,1.27,1.27,0,0,1,.38.36.83.83,0,0,1,.11.15.41.41,0,0,1,.06.17,1.07,1.07,0,0,1,0,.62,1.84,1.84,0,0,1-.37.55,2.34,2.34,0,0,1-.58.44l-.36.17Zm.14-4-.13,0-.13,0a1.84,1.84,0,0,0-.29.06l-2.87.63-2.88.68a.32.32,0,0,0-.24.39l3.44,15a.35.35,0,0,0,.15.21.48.48,0,0,0,.17.05h.08l5-1.18a.33.33,0,0,0,.24-.4L23.4,20.75a13.4,13.4,0,0,0,1.49-.45,8.61,8.61,0,0,0,1.72-.85A6.39,6.39,0,0,0,28,18.18,5,5,0,0,0,29,16.42l.09-.4a3.55,3.55,0,0,0,.08-.47c0-.15,0-.3,0-.46a2,2,0,0,0,0-.44,5,5,0,0,0-.89-2.24,4.6,4.6,0,0,0-1.64-1.34,6,6,0,0,0-2.09-.52l-.47,0h-.18a10.06,10.06,0,0,0-1.63.14"/></clipPath><clipPath id="clip-path-6"><path class="cls-1" d="M31.25,21.8a1.31,1.31,0,0,1-.37-.24,1,1,0,0,1-.24-.34,1,1,0,0,1-.09-.41,1,1,0,0,1,.09-.43,1.31,1.31,0,0,1,.24-.34,1.28,1.28,0,0,1,.37-.23,1.12,1.12,0,0,1,.88,0,1.08,1.08,0,0,1,.7,1,1,1,0,0,1-.09.41,1,1,0,0,1-.25.34,1.26,1.26,0,0,1-.36.24,1.08,1.08,0,0,1-.44.09,1.12,1.12,0,0,1-.44-.09m-1.82-5.93A5.81,5.81,0,0,0,27.65,17a5.68,5.68,0,0,0-1.21,1.69A5,5,0,0,0,26,20.81a4.87,4.87,0,0,0,.46,2.12,5.38,5.38,0,0,0,1.22,1.68,5.47,5.47,0,0,0,1.77,1.11,5.69,5.69,0,0,0,4.24,0,5.47,5.47,0,0,0,1.76-1.11,5.38,5.38,0,0,0,1.22-1.68,4.9,4.9,0,0,0,.46-2.12,5,5,0,0,0-.46-2.14A5.54,5.54,0,0,0,35.43,17a5.72,5.72,0,0,0-1.76-1.11,5.69,5.69,0,0,0-4.24,0"/></clipPath><clipPath id="clip-path-8"><path class="cls-1" d="M41.26,19.71l-.13-2.32a3.87,3.87,0,0,1,.48,0,2.64,2.64,0,0,1,.71.18,1.41,1.41,0,0,1,.49.39,1.16,1.16,0,0,1,.21.64.86.86,0,0,1-.06.47.73.73,0,0,1-.22.3,1.18,1.18,0,0,1-.39.19,2.43,2.43,0,0,1-.55.1l-.45,0h-.09m1.52-6.39a3.42,3.42,0,0,0-.63.09,4.94,4.94,0,0,0-.58.2c-.19.08-.37.15-.55.24l-.06,0V13.7a.32.32,0,0,0-.33-.32h0l-4.17.12a.33.33,0,0,0-.32.34l.33,13.77a.31.31,0,0,0,.1.23.32.32,0,0,0,.22.1h0l4.6-.12a.37.37,0,0,0,.24-.1.33.33,0,0,0,.08-.25l-.23-3.7.58.12a5.06,5.06,0,0,0,.68.05l.42,0a5.76,5.76,0,0,0,2.15-.54,4.18,4.18,0,0,0,1.5-1.21,4.8,4.8,0,0,0,.8-1.79,7.51,7.51,0,0,0,.14-2.21,8.31,8.31,0,0,0-.24-1.41A5.26,5.26,0,0,0,47,15.48a4.3,4.3,0,0,0-.88-1.07,4.1,4.1,0,0,0-1.27-.75,6.06,6.06,0,0,0-1-.29,4.4,4.4,0,0,0-.73-.06h-.32"/></clipPath><clipPath id="clip-path-10"><path class="cls-1" d="M52.44,6.52l-4.75.1a.33.33,0,0,0-.32.34l.09,4.5-1.65,0a.34.34,0,0,0-.32.34l.07,3.5a.34.34,0,0,0,.1.23.39.39,0,0,0,.23.09h0l1.65-.05.14,6.4a.33.33,0,0,0,.33.33h0l4.53-.06a.33.33,0,0,0,.33-.33l-.06-6.5,1.77,0a.34.34,0,0,0,.32-.32l.1-3.51a.34.34,0,0,0-.34-.34h0l-1.87.05,0-4.45a.29.29,0,0,0-.1-.23.33.33,0,0,0-.23-.1Z"/></clipPath><clipPath id="clip-path-12"><path class="cls-1" d="M58.55,13.77l-4.35.28a.34.34,0,0,0-.31.34L54.16,24a.33.33,0,0,0,.33.32h0l4.22,0a.34.34,0,0,0,.23-.1A.33.33,0,0,0,59,24l-.1-6.42a.77.77,0,0,1,.29,0,.47.47,0,0,1,.42.17.73.73,0,0,1,.19.53,2.45,2.45,0,0,1,0,.48c0,.18,0,.36-.07.54a.33.33,0,0,0,.32.36h0l4-.13a.37.37,0,0,0,.32-.36l0-.91c0-.32,0-.65,0-1a3.08,3.08,0,0,0-.89-2.38,3.44,3.44,0,0,0-2.4-.8,5,5,0,0,0-1.48.23,4.27,4.27,0,0,0-.78.34v-.51a.31.31,0,0,0-.11-.23.31.31,0,0,0-.22-.09Z"/></clipPath><clipPath id="clip-path-14"><path class="cls-1" d="M68.88,20.53a1.23,1.23,0,0,1-.38-.24,1.16,1.16,0,0,1-.24-.34,1,1,0,0,1,0-.84,1.16,1.16,0,0,1,.24-.34,1.36,1.36,0,0,1,.38-.24,1.22,1.22,0,0,1,.87,0,1.17,1.17,0,0,1,.62.59,1.07,1.07,0,0,1,.08.41,1,1,0,0,1-.09.41,1,1,0,0,1-.25.35,1.13,1.13,0,0,1-.36.24,1.06,1.06,0,0,1-.43.08,1.08,1.08,0,0,1-.44-.08M67.05,14.6a5.45,5.45,0,0,0-3,2.8,5.16,5.16,0,0,0,0,4.26,5.49,5.49,0,0,0,1.22,1.68,5.78,5.78,0,0,0,6,1.11,5.48,5.48,0,0,0,3-2.79,5.27,5.27,0,0,0,0-4.26,5.68,5.68,0,0,0-7.23-2.8"/></clipPath><clipPath id="clip-path-16"><path class="cls-1" d="M78.86,17.94h-.12l-.06-2.32.48,0a2.59,2.59,0,0,1,.7.21,1.24,1.24,0,0,1,.48.4,1.14,1.14,0,0,1,.2.65,1,1,0,0,1-.08.46.61.61,0,0,1-.23.29,1,1,0,0,1-.4.19,2.91,2.91,0,0,1-.55.08h-.42Zm1.8-6.35h-.21a2.59,2.59,0,0,0-.63.08,4,4,0,0,0-.59.17l-.55.23-.06,0v-.19a.32.32,0,0,0-.32-.32H74.1a.32.32,0,0,0-.32.32L73.7,25.7a.32.32,0,0,0,.09.23A.34.34,0,0,0,74,26l4.6,0h0a.34.34,0,0,0,.23-.1.34.34,0,0,0,.09-.24L78.83,22c.2.06.39.1.58.14a4.76,4.76,0,0,0,.86.07h.23a5.88,5.88,0,0,0,2.17-.48,4,4,0,0,0,1.53-1.17,4.78,4.78,0,0,0,.86-1.75,7.46,7.46,0,0,0,.2-2.21,7.25,7.25,0,0,0-.2-1.42,5.23,5.23,0,0,0-.5-1.3,4.45,4.45,0,0,0-.85-1.09A4.38,4.38,0,0,0,82.47,12a5.48,5.48,0,0,0-1-.31,3.31,3.31,0,0,0-.83-.1h0"/></clipPath><clipPath id="clip-path-18"><path class="cls-1" d="M88.43,6.76a3.06,3.06,0,0,0-1.09.47,2.9,2.9,0,0,0-.81.86,3.14,3.14,0,0,0-.4,1.21,2.84,2.84,0,0,0,.1,1.25,2.46,2.46,0,0,0,.57,1,3,3,0,0,0,.93.64,4.19,4.19,0,0,0,1.17.31,3.44,3.44,0,0,0,.46,0,4.34,4.34,0,0,0,.71-.06,3.66,3.66,0,0,0,1.14-.39,2.91,2.91,0,0,0,.91-.76,2.35,2.35,0,0,0,.48-1.18,3.55,3.55,0,0,0-.08-1.36,2.59,2.59,0,0,0-.59-1,3.06,3.06,0,0,0-1-.68,4.93,4.93,0,0,0-1.27-.33,3.71,3.71,0,0,0-.47,0,3.31,3.31,0,0,0-.77.09"/></clipPath><clipPath id="clip-path-20"><path class="cls-1" d="M85.4,13.25a.3.3,0,0,0-.13.26l-.07,8.78a.31.31,0,0,0,.31.33l4,.23h0a.32.32,0,0,0,.32-.29l1-7.79a.34.34,0,0,0-.25-.36l-4.93-1.22H85.6a.27.27,0,0,0-.2.07"/></clipPath><clipPath id="clip-path-22"><path class="cls-1" d="M94.85,14.33a5.78,5.78,0,0,0-3.61,2.52A5.75,5.75,0,0,0,90.4,19a5.21,5.21,0,0,0,.13,2.34,5.38,5.38,0,0,0,1,1.92,6.23,6.23,0,0,0,1.73,1.39,7.21,7.21,0,0,0,2.18.74,10.15,10.15,0,0,0,1.56.12h.3a6.24,6.24,0,0,0,1.87-.34.33.33,0,0,0,.23-.35L99,21.26a.43.43,0,0,0-.14-.23.33.33,0,0,0-.19-.06h-.07l-.43.07-.48,0h-.49l-.44,0a1.66,1.66,0,0,1-.49-.16,1.36,1.36,0,0,1-.39-.27,1.07,1.07,0,0,1-.22-.37.92.92,0,0,1,0-.47.88.88,0,0,1,.16-.38,1,1,0,0,1,.32-.27,1.44,1.44,0,0,1,.43-.13h.21A1.43,1.43,0,0,1,97,19a2.42,2.42,0,0,1,.76.25,3.21,3.21,0,0,1,.68.45.31.31,0,0,0,.22.09h0a.32.32,0,0,0,.23-.13l2-2.88a.35.35,0,0,0,0-.39,4.3,4.3,0,0,0-.76-.78,6.21,6.21,0,0,0-1-.62,5.67,5.67,0,0,0-1-.46,5.41,5.41,0,0,0-1-.27,5.81,5.81,0,0,0-1-.09,5.38,5.38,0,0,0-1.33.16"/></clipPath><clipPath id="clip-path-24"><path class="cls-1" d="M105.63,22.81l-.42-.07a3,3,0,0,1-.55-.16,1.27,1.27,0,0,1-.41-.24A.69.69,0,0,1,104,22a.85.85,0,0,1,0-.48,1,1,0,0,1,.27-.55,1.19,1.19,0,0,1,.51-.3,2.34,2.34,0,0,1,.53-.08h.15l.59.05-.33,2.16h-.12M104,16.28h-.09a6.38,6.38,0,0,0-1,.13,5.29,5.29,0,0,0-1.4.53,4.3,4.3,0,0,0-1.09.88A4.54,4.54,0,0,0,99.68,19a6.66,6.66,0,0,0-.46,1.41l0,.15,0,.1a1.59,1.59,0,0,0,0,.29,5.16,5.16,0,0,0,.42,2.9,4.7,4.7,0,0,0,2.08,2,7,7,0,0,0,.78.37,4.06,4.06,0,0,0,.84.25,6.9,6.9,0,0,0,1.2.14h.21a4.57,4.57,0,0,0,.52-.05.34.34,0,0,0,.26.32l4,.84h.08a.41.41,0,0,0,.18-.05.36.36,0,0,0,.13-.23l1.56-10a.33.33,0,0,0-.27-.38l-4.05-.69H107a.3.3,0,0,0-.18.06.33.33,0,0,0-.14.22l0,.23-.55-.25a5.66,5.66,0,0,0-1-.32l-.11,0a5.52,5.52,0,0,0-.81-.06H104"/></clipPath></defs><title>IMG - LOGO PopTropica</title><g class="cls-2"><g id="_01_-_iSocial_BP_OK_-_PICS" data-name="01 - iSocial BP OK - PICS"><g class="cls-3"><g class="cls-4"><g class="cls-5"><g class="cls-5"><path class="cls-6" d="M112.07,18.49a1.84,1.84,0,0,0,0-.29h0a1,1,0,0,0-.79-.79l-4.08-.7H107a1,1,0,0,0-.54.18h0a.69.69,0,0,0-.13.11,6.65,6.65,0,0,0-1.13-.34h0l-.1,0h0a5.38,5.38,0,0,0-.9-.08h-.24a6.77,6.77,0,0,0-1.1.15,5.64,5.64,0,0,0-1.2.4,1.62,1.62,0,0,0-.1-.18,4.68,4.68,0,0,0-.88-.9,7.82,7.82,0,0,0-1-.69h0a8.81,8.81,0,0,0-1.13-.5h0a6.1,6.1,0,0,0-1.15-.3h0a7.11,7.11,0,0,0-1.11-.09,6.39,6.39,0,0,0-1.45.17h0a6.63,6.63,0,0,0-2.25,1h0a6.64,6.64,0,0,0-1,.89l.09-.73a.53.53,0,0,0,0-.13,1,1,0,0,0-.1-.43h0a3.56,3.56,0,0,0,1.07-.89h0a2.78,2.78,0,0,0,.57-1.39v0c0-.24.11-1.08.17-1.73v0h0s0-.39,0-.57a3.86,3.86,0,0,0-.14-1.05h0a3.29,3.29,0,0,0-.74-1.3h0a3.54,3.54,0,0,0-1.18-.81h0A5.52,5.52,0,0,0,89.75,7a4.93,4.93,0,0,0-.55,0,3.82,3.82,0,0,0-.9.1h0A3.58,3.58,0,0,0,87,7.63h0a3.64,3.64,0,0,0-1,1h0a3.56,3.56,0,0,0-.49,1.46,15,15,0,0,0,.1,2.14,6.87,6.87,0,0,0,.18,1.13h0v.05l-.2,0a1,1,0,0,0-.59.2h0a1,1,0,0,0-.23.26,4.43,4.43,0,0,0-.61-.69,4.66,4.66,0,0,0-1.42-.9h0A5.72,5.72,0,0,0,81.65,12a4.6,4.6,0,0,0-1-.11h-.25a3.08,3.08,0,0,0-.75.09h0a6.46,6.46,0,0,0-.63.2h0a1,1,0,0,0-.7-.31H74.11a1,1,0,0,0-1,1l0,3a6.31,6.31,0,0,0-6.29-.91h0a6.39,6.39,0,0,0-2,1.24h0l-.1.1a3.31,3.31,0,0,0-.72-1h0a4.05,4.05,0,0,0-2.82-1,5.56,5.56,0,0,0-1.68.25h0l-.05,0a1.05,1.05,0,0,0-.2-.27l0,0a1,1,0,0,0-.65-.25h-.06l-2.9.19,0-1.71v0a1,1,0,0,0-1-1h0l-1.21,0,0-3.79a1,1,0,0,0-.29-.69h0a1,1,0,0,0-.68-.27h0l-4.76.1h0a1,1,0,0,0-1,1v0l.08,3.86-1,0a1,1,0,0,0-.95,1v0l0,1.13a6.22,6.22,0,0,0-.91-.26,5,5,0,0,0-.86-.08l-.38,0a3.9,3.9,0,0,0-.74.11h0a4.38,4.38,0,0,0-.64.22h0a1,1,0,0,0-.68-.28h0l-4.18.12a1,1,0,0,0-1,1v0l.06,2.35a6.86,6.86,0,0,0-1.62-.94h0a6.22,6.22,0,0,0-2.35-.45,6.36,6.36,0,0,0-1.74.24,3,3,0,0,0,0-.52h0a5.59,5.59,0,0,0-1-2.51h0a5.17,5.17,0,0,0-1.87-1.52h0a6.29,6.29,0,0,0-2.31-.58h0c-.16,0-.33,0-.5,0h-.19a10.31,10.31,0,0,0-1.74.15L22,11l-.13,0-.33.08c-1,.2-1.94.41-2.86.63h0l-2.88.67h0a1,1,0,0,0-.73.94.34.34,0,0,0,0,.1,2.49,2.49,0,0,0,0,.42c0,.33,0,.69,0,.87s0,.26,0,.36a.88.88,0,0,0,0,.23l3.43,15.07h0a.77.77,0,0,0,.35.51.79.79,0,0,0,.42.12h0a.47.47,0,0,0,.17,0h0l5.08-1.22a.8.8,0,0,0,.62-.78.19.19,0,0,0,0-.08c.18-1.63.18-1.7.18-1.72a1.64,1.64,0,0,0,0-.22h0l-.79-3.27a3,3,0,0,0,.56-.24l.18-.11a11,11,0,0,0,.7,2.5,5.19,5.19,0,0,0,1.33,1.85h0a6.3,6.3,0,0,0,1.91,1.2h0a6.2,6.2,0,0,0,6.5-1.21l0,0,0,.9c0,.07.1,1,.17,1.82h0a.88.88,0,0,0,.25.53.83.83,0,0,0,.55.22h0l4.6-.12a.77.77,0,0,0,.56-.25h0a.85.85,0,0,0,.21-.54h0c.08-.77.17-1.7.17-1.79v-.07l-.08-1.23.46,0,.45,0a6.28,6.28,0,0,0,2.33-.59,4.64,4.64,0,0,0,1.67-1.35l.09-.13a.81.81,0,0,0,.75.5l4.54-.06a.79.79,0,0,0,.79-.79h0c0-.07,0-.16,0-.25l.06-.6q0-.21,0-.36L53.52,25v0s0,.06.17,1.82h0a.8.8,0,0,0,.8.74l4.23,0a.79.79,0,0,0,.56-.23h0a.81.81,0,0,0,.23-.55c.06-.63.17-1.7.17-1.81v0l0-2.18a1.2,1.2,0,0,0,.35.08h.06l3.07-.1a5.28,5.28,0,0,0,.49,1.89A5.91,5.91,0,0,0,65,26.42a6.29,6.29,0,0,0,6.52,1.21,6.68,6.68,0,0,0,1.58-.92c0,.26.1,1.07.17,1.76a.87.87,0,0,0,.22.52h0a.8.8,0,0,0,.57.24h0l4.6,0A.83.83,0,0,0,79.2,29a.85.85,0,0,0,.23-.55c.17-1.74.17-1.79.17-1.81v0l0-1.25a5.12,5.12,0,0,0,.69,0h.28a6.44,6.44,0,0,0,2.34-.52,4.65,4.65,0,0,0,1.7-1.31h0c0,.37.09.95.14,1.47a.81.81,0,0,0,.76.77l4,.23h0a.82.82,0,0,0,.8-.71h0l0-.33a5.29,5.29,0,0,0,.85,1.33,6.41,6.41,0,0,0,1.87,1.5,7.24,7.24,0,0,0,2.32.79,9.9,9.9,0,0,0,1.64.13h.31a4,4,0,0,0,2.13-.48,1.54,1.54,0,0,0,.42-.38,5.58,5.58,0,0,0,1.5,1.13,9,9,0,0,0,.83.4,5.76,5.76,0,0,0,.92.28,8.08,8.08,0,0,0,1.29.14h.45a.8.8,0,0,0,.43.26h0l4.32.81h.15a.85.85,0,0,0,.45-.14l0,0a.8.8,0,0,0,.32-.53l1.42-9.5s0-.11,0-.22c0-.31,0-.86,0-1.33a6.62,6.62,0,0,0,0-.71"/></g></g></g><path class="cls-7" d="M36.77,30a.61.61,0,0,1-.42-.17.62.62,0,0,1-.2-.43h0a8.54,8.54,0,0,1-.1-.86c-.09-.89-.09-.93-.09-.94l0-1.32c-.1.11-.21.22-.32.32a6,6,0,0,1-4.08,1.59,6,6,0,0,1-2.22-.42h0a6.17,6.17,0,0,1-1.86-1.17,5.3,5.3,0,0,1-1.29-1.79,10.91,10.91,0,0,1-.73-2.76,2.21,2.21,0,0,1-.4.28,3.17,3.17,0,0,1-.69.27l.84,3.44a1.23,1.23,0,0,1,0,.19c0,.07-.12,1.21-.18,1.72,0,0,0,.05,0,.07a.63.63,0,0,1-.48.61l-5.08,1.22-.15,0a.68.68,0,0,1-.33-.1.65.65,0,0,1-.28-.39L15.28,14.34a1.64,1.64,0,0,1,0-.22c0-.09,0-.21,0-.35s0-.53,0-.86a4.19,4.19,0,0,1,0-.42.34.34,0,0,1,0-.09.78.78,0,0,1,.6-.77h0L18.69,11h0l2.87-.63.31-.07.26,0a9.94,9.94,0,0,1,1.71-.14H24l.49,0h0a6.37,6.37,0,0,1,2.25.57,5,5,0,0,1,1.81,1.47,5.39,5.39,0,0,1,1,2.44h0a4.55,4.55,0,0,1,0,.53v0a1.09,1.09,0,0,1,0,.18A6.29,6.29,0,0,1,31.55,15a6,6,0,0,1,2.28.44h0a6.17,6.17,0,0,1,1.88,1.18l-.07-2.76a.79.79,0,0,1,.77-.81l4.19-.13a.82.82,0,0,1,.65.32l.13-.05h0A4.7,4.7,0,0,1,42,13a3.59,3.59,0,0,1,.72-.11h.36a4.47,4.47,0,0,1,.82.07,5.53,5.53,0,0,1,1,.32l.08,0,0-1.4a.79.79,0,0,1,.77-.81L47,11,46.9,7a.81.81,0,0,1,.77-.82l4.76-.09a.83.83,0,0,1,.57.22.8.8,0,0,1,.24.56l0,4,1.4,0a.81.81,0,0,1,.58.24.79.79,0,0,1,.23.57l0,1.92,3.11-.21h0a.78.78,0,0,1,.53.21h0a.87.87,0,0,1,.22.37l.21-.08h0a5.54,5.54,0,0,1,1.62-.25,3.89,3.89,0,0,1,2.71.92h0a3,3,0,0,1,.78,1.17,4,4,0,0,1,.29-.29,6.25,6.25,0,0,1,1.92-1.21,6.21,6.21,0,0,1,4.59,0,6.4,6.4,0,0,1,1.82,1.13l0-3.37a.8.8,0,0,1,.79-.79h4.19a.8.8,0,0,1,.65.34l.13-.06a5.59,5.59,0,0,1,.63-.19h0a3.37,3.37,0,0,1,.71-.09h.23a4.26,4.26,0,0,1,1,.11,5.74,5.74,0,0,1,1,.34h0a4.41,4.41,0,0,1,1.36.87,4.7,4.7,0,0,1,.78.94.76.76,0,0,1,.29-.5h0a.79.79,0,0,1,.49-.17l.18,0,.31.07c0-.12-.1-.24-.14-.36a6.73,6.73,0,0,1-.18-1.1,14.63,14.63,0,0,1-.1-2.1,3.41,3.41,0,0,1,.46-1.4,3.46,3.46,0,0,1,.94-1,3.57,3.57,0,0,1,1.24-.55h0a4.14,4.14,0,0,1,.87-.1,3.15,3.15,0,0,1,.53,0,5.07,5.07,0,0,1,1.39.36h0a3.3,3.3,0,0,1,1.14.78h0A3,3,0,0,1,93,8.63a3.49,3.49,0,0,1,.13,1c0,.18,0,.54,0,.56v0c-.08.94-.14,1.54-.16,1.74a2.65,2.65,0,0,1-.54,1.31h0a3.12,3.12,0,0,1-1,.84l-.21.1a.78.78,0,0,1,.19.51.34.34,0,0,1,0,.1l-.17,1.33a6.34,6.34,0,0,1,1.38-1.31,6.56,6.56,0,0,1,2.21-1h0a6.15,6.15,0,0,1,1.43-.17,6.5,6.5,0,0,1,1.06.09h0a7,7,0,0,1,1.13.29,8.49,8.49,0,0,1,1.11.49,7.49,7.49,0,0,1,1,.67,4.92,4.92,0,0,1,.84.87,1,1,0,0,1,.15.32,5.05,5.05,0,0,1,1.34-.47,6.41,6.41,0,0,1,1.07-.15h.23a5.22,5.22,0,0,1,.88.07l.13,0a6.69,6.69,0,0,1,1.13.35l.08,0a.66.66,0,0,1,.18-.19h0A.77.77,0,0,1,107,16h.12l4.09.7a.81.81,0,0,1,.65.66h0a1.18,1.18,0,0,1,0,.25,6.41,6.41,0,0,1,0,.7c0,.46,0,1,0,1.31,0,.11,0,.17,0,.21l-1.42,9.5a.56.56,0,0,1-.25.41h0a.6.6,0,0,1-.34.11h-.11L105.38,29a.65.65,0,0,1-.39-.28l-.32,0h-.21a6.75,6.75,0,0,1-1.26-.14,4.67,4.67,0,0,1-.9-.27,8.34,8.34,0,0,1-.8-.38,5.51,5.51,0,0,1-1.62-1.27v0a1.29,1.29,0,0,1-.48.51,4,4,0,0,1-2,.44h-.31a10.71,10.71,0,0,1-1.61-.13,7.26,7.26,0,0,1-2.27-.77,6.54,6.54,0,0,1-1.82-1.46,5.58,5.58,0,0,1-1.07-1.94l-.13,1a.63.63,0,0,1-.62.55h0l-4-.22a.64.64,0,0,1-.59-.62c-.11-1.14-.17-1.75-.17-1.8v-.18a3.3,3.3,0,0,1-.3.43,4.4,4.4,0,0,1-1.64,1.25,6.22,6.22,0,0,1-2.27.5h-.25a5,5,0,0,1-.9-.08l0,1.49c0,.06-.11,1.16-.18,1.82a.58.58,0,0,1-.17.42.63.63,0,0,1-.44.19l-4.61,0a.6.6,0,0,1-.44-.18.64.64,0,0,1-.18-.43h0c0-.14,0-.4-.09-.85-.09-.89-.09-.94-.09-1v-.32A6.07,6.07,0,0,1,69.17,27a6,6,0,0,1-2.23-.42,5.89,5.89,0,0,1-1.86-1.18,5.69,5.69,0,0,1-1.29-1.77,5.2,5.2,0,0,1-.48-2l-3.24.11s0,0,0,0a1.06,1.06,0,0,1-.37-.09.7.7,0,0,1-.19-.15l0,2.53c0,.13-.14,1.54-.17,1.83a.61.61,0,0,1-.18.42l0,0a.62.62,0,0,1-.42.17l-4.22,0a.64.64,0,0,1-.63-.6h0c0-.14-.05-.4-.1-.87-.08-.9-.08-.92-.08-.93l-.19-6.51h-.2l0,4.4c0,.08-.12,1.31-.18,1.83a.6.6,0,0,1-.61.6L48,24.44a.63.63,0,0,1-.63-.59s0-.2,0-.2a4.93,4.93,0,0,1-.34.49,4.48,4.48,0,0,1-1.6,1.31,6.15,6.15,0,0,1-2.26.56l-.44,0a4.63,4.63,0,0,1-.65,0l.09,1.46v0c0,.09-.13,1.4-.17,1.8a.61.61,0,0,1-.17.42,0,0,0,0,1,0,0,.59.59,0,0,1-.42.19l-4.6.11Z"/><path class="cls-8" d="M52.44,6.24a.63.63,0,0,1,.43.17h0a.63.63,0,0,1,.19.44h0l0,4.15,1.57,0h0a.61.61,0,0,1,.44.19h0a.6.6,0,0,1,.18.44h0l-.06,2.1,3.31-.22h0a.62.62,0,0,1,.41.16h0a.65.65,0,0,1,.2.44h0v.05A3.91,3.91,0,0,1,59.6,14h0a4.85,4.85,0,0,1,1.56-.25h0a3.71,3.71,0,0,1,2.58.88h0a2.87,2.87,0,0,1,.75,1.11l.09.29a5.91,5.91,0,0,1,.48-.52h0a6,6,0,0,1,1.86-1.17,5.86,5.86,0,0,1,2.23-.43,6,6,0,0,1,4.08,1.6h0l.22.22,0-3.8a.61.61,0,0,1,.61-.61h4.19a.64.64,0,0,1,.57.38l.27-.11h0a6.32,6.32,0,0,1,.62-.18h0a3.09,3.09,0,0,1,.68-.09h.24a4,4,0,0,1,.9.11,4.77,4.77,0,0,1,1,.33h0a4.43,4.43,0,0,1,1.33.84,4.82,4.82,0,0,1,.9,1.16l.17.32V13.5a.59.59,0,0,1,.24-.47h0a.65.65,0,0,1,.38-.13l.14,0h0l.72.18a2.68,2.68,0,0,1-.34-.7h0A5.84,5.84,0,0,1,86,11.33a14.49,14.49,0,0,1-.1-2.06,3.13,3.13,0,0,1,.44-1.33h0a3.2,3.2,0,0,1,.88-1h0a3.28,3.28,0,0,1,1.18-.51,3.44,3.44,0,0,1,.84-.1,4.19,4.19,0,0,1,.5,0,4.7,4.7,0,0,1,1.35.36h0a3.24,3.24,0,0,1,1.09.74h0a2.82,2.82,0,0,1,.65,1.16h0a3.19,3.19,0,0,1,.13.94c0,.17,0,.54,0,.54s-.13,1.44-.17,1.78h0a2.38,2.38,0,0,1-.51,1.23h0a3,3,0,0,1-.95.79,4,4,0,0,1-.47.21.62.62,0,0,1,.36.56.25.25,0,0,1,0,.08h0l-.27,2.1c0-.08.08-.15.13-.22h0A6.15,6.15,0,0,1,92.63,15h0a6.42,6.42,0,0,1,2.15-1h0a5.88,5.88,0,0,1,1.39-.17,6.38,6.38,0,0,1,1,.09h0a6.73,6.73,0,0,1,1.09.28,7.52,7.52,0,0,1,1.09.48h0a7.57,7.57,0,0,1,1,.65,4.34,4.34,0,0,1,.82.84.63.63,0,0,1,.12.37.45.45,0,0,1,0,.16l.1-.06a5.34,5.34,0,0,1,1.48-.56,6.86,6.86,0,0,1,1-.14h.22a4.88,4.88,0,0,1,.85.07h0l.11,0h0a5.58,5.58,0,0,1,1.1.34l.23.1a.51.51,0,0,1,.21-.27h0a.55.55,0,0,1,.35-.12h.1l4.07.7a.63.63,0,0,1,.51.52h0a1.29,1.29,0,0,1,0,.23,6.52,6.52,0,0,1,0,.68c0,.48,0,1,0,1.3a1.54,1.54,0,0,1,0,.19l-1.41,9.51a.44.44,0,0,1-.19.29h0a.42.42,0,0,1-.24.07h-.1l-4.31-.82h0a.44.44,0,0,1-.33-.3l-.43,0h-.22a7.11,7.11,0,0,1-1.21-.13,5.13,5.13,0,0,1-.87-.26,7,7,0,0,1-.78-.38h0a5.11,5.11,0,0,1-1.78-1.51,1,1,0,0,1-.09.34,1.18,1.18,0,0,1-.41.43,3.69,3.69,0,0,1-2,.42h-.3a10.42,10.42,0,0,1-1.58-.13,7,7,0,0,1-2.21-.75,6,6,0,0,1-1.77-1.42,5.67,5.67,0,0,1-1.07-2,6.16,6.16,0,0,1-.19-1L90,24.37h0a.44.44,0,0,1-.44.39h0l-4-.22a.45.45,0,0,1-.42-.44h0s-.17-1.71-.17-1.79h0v-.92a4.28,4.28,0,0,1-.62,1.06,4.22,4.22,0,0,1-1.57,1.21,6.14,6.14,0,0,1-2.21.48h-.26a4.74,4.74,0,0,1-.86-.08h0L79.18,24l.06,1.7v0c0,.06-.17,1.8-.17,1.8h0a.44.44,0,0,1-.13.31.43.43,0,0,1-.31.14h0l-4.6,0h0a.4.4,0,0,1-.31-.13h0a.43.43,0,0,1-.13-.3h0s-.17-1.72-.17-1.81h0v-.75c-.09.09-.18.19-.28.28a5.69,5.69,0,0,1-1.8,1.14,5.89,5.89,0,0,1-4.32,0,5.73,5.73,0,0,1-1.81-1.14A5.52,5.52,0,0,1,64,23.5a5.16,5.16,0,0,1-.46-2.11l-3.42.12h0a.82.82,0,0,1-.3-.07.41.41,0,0,1-.21-.25v-.11a1.54,1.54,0,0,0,0-.19c0-.15,0-.35,0-.54,0-.35-.06-.69-.06-.74h0v-.05a.26.26,0,0,0-.07-.1h0L59.33,24h0c0,.11-.17,1.8-.17,1.8h0a.44.44,0,0,1-.13.31h0a.41.41,0,0,1-.31.14l-4.22,0h0a.45.45,0,0,1-.44-.43h0s-.17-1.75-.17-1.8h0l-.19-6.68h-.56l0,4.58h0c0,.07-.18,1.81-.18,1.81h0a.43.43,0,0,1-.43.43L48,24.26h0a.45.45,0,0,1-.45-.42s0-.23-.06-.51c0-.11,0-.22,0-.33a3.39,3.39,0,0,1-.57,1,4.25,4.25,0,0,1-1.54,1.26h0a6,6,0,0,1-2.19.54l-.43,0A5.09,5.09,0,0,1,42,25.8l-.16,0L42,27.46h0v0c0,.09-.17,1.78-.17,1.78v0a.42.42,0,0,1-.12.3h0a.48.48,0,0,1-.32.15h0l-4.59.11h0a.47.47,0,0,1-.3-.12.5.5,0,0,1-.14-.31h0s-.17-1.73-.17-1.8h0l0-1.8a6.57,6.57,0,0,1-.61.68,5.78,5.78,0,0,1-1.8,1.13,5.89,5.89,0,0,1-4.32,0h0a5.71,5.71,0,0,1-1.81-1.13h0a5,5,0,0,1-1.25-1.73,10.54,10.54,0,0,1-.76-3.09,2.39,2.39,0,0,1-.62.52,2.9,2.9,0,0,1-.82.3L25,26.11h0a.32.32,0,0,1,0,.14c0,.07-.18,1.72-.18,1.72s0,.05,0,.07a.45.45,0,0,1-.34.44h0l-5.09,1.22h-.11a.63.63,0,0,1-.22-.07.41.41,0,0,1-.2-.28h0L15.46,14.3a1.46,1.46,0,0,1,0-.2c0-.09,0-.21,0-.34s0-.58,0-.85a2.62,2.62,0,0,1,0-.42s0-.06,0-.09a.62.62,0,0,1,.47-.6h0c1-.24,1.93-.46,2.89-.68h0c1-.22,1.91-.43,2.87-.63l.3-.07.13,0,.13,0h0a9.6,9.6,0,0,1,1.68-.14H24l.49,0h0a6,6,0,0,1,2.19.55h0a4.87,4.87,0,0,1,1.74,1.42h0a5.34,5.34,0,0,1,1,2.37h0a3.74,3.74,0,0,1,0,.49v0c0,.15,0,.3,0,.44a6,6,0,0,1,4.35,0h0a6,6,0,0,1,1.86,1.17h0a3.83,3.83,0,0,1,.28.29l-.08-3.21h0a.61.61,0,0,1,.6-.62h0l4.18-.13h0a.63.63,0,0,1,.56.37l.27-.12h0a4.35,4.35,0,0,1,.61-.2h0a3.32,3.32,0,0,1,.68-.11h.35a4.22,4.22,0,0,1,.79.07h0a6,6,0,0,1,1,.3h0l.33.14,0-1.67h0a.61.61,0,0,1,.6-.62h0l1.35,0L47.08,7h0a.63.63,0,0,1,.6-.62h0l4.75-.09h0m.43.17h0m35.49.07h0m0,0h0M87.18,7h0m0,0h0M79.75,11.4h0m0,0h0M41.46,13.34h0m0,0h0m0,0h0m53.33.7h0m0,0h0m3.53.21h0m0,0h0M91,16.69h0M73.14,25.22h0m0,0h0m0,0h0M29.39,27.63h0m0,0h0m23-21.75h0L47.67,6h0a1,1,0,0,0-1,1V7l.08,3.87-1,0a1,1,0,0,0-.95,1h0l0,1.13a6.17,6.17,0,0,0-.91-.25,4.17,4.17,0,0,0-.86-.08h-.38a3.93,3.93,0,0,0-.74.12h0a4.38,4.38,0,0,0-.64.22h0a1,1,0,0,0-.68-.29h0l-4.18.12a1,1,0,0,0-1,1v0l.06,2.35a6.53,6.53,0,0,0-1.62-.94h0a6.22,6.22,0,0,0-2.35-.45,6,6,0,0,0-1.74.25,2.78,2.78,0,0,0,0-.52h0a5.63,5.63,0,0,0-1-2.52h0a5.17,5.17,0,0,0-1.87-1.52h0a6.71,6.71,0,0,0-2.31-.58h0l-.5,0h-.19a11.44,11.44,0,0,0-1.74.14l-.13,0-.13,0a1.94,1.94,0,0,0-.33.07l-2.86.63h0l-2.88.68h0a1,1,0,0,0-.73,1,.28.28,0,0,0,0,.09,2.49,2.49,0,0,0,0,.42c0,.34,0,.69,0,.88s0,.25,0,.35a1.07,1.07,0,0,0,0,.24l3.43,15.06h0a.78.78,0,0,0,.35.5.9.9,0,0,0,.42.13h0l.17,0h0l5.08-1.22a.81.81,0,0,0,.62-.79.25.25,0,0,0,0-.08c.18-1.62.18-1.69.18-1.71a1.79,1.79,0,0,0,0-.23h0l-.79-3.26a3.77,3.77,0,0,0,.56-.24l.18-.11a11.13,11.13,0,0,0,.7,2.5,5.28,5.28,0,0,0,1.33,1.85h0A6.3,6.3,0,0,0,29.24,28h0a6.26,6.26,0,0,0,6.5-1.21l0,0,0,.89c0,.07.1,1,.17,1.83h0a.85.85,0,0,0,.25.52.82.82,0,0,0,.55.22h0l4.6-.11a.81.81,0,0,0,.56-.25l0,0a.83.83,0,0,0,.21-.54h0c.08-.78.17-1.71.17-1.8v-.07l-.08-1.23.46,0a3.54,3.54,0,0,0,.45,0,6.28,6.28,0,0,0,2.33-.58,4.66,4.66,0,0,0,1.67-1.36l.09-.13a.8.8,0,0,0,.75.5l4.54-.06a.79.79,0,0,0,.79-.79h0l0-.24.06-.61c0-.14,0-.25,0-.35L53.52,24h0s0,.06.17,1.83h0a.81.81,0,0,0,.8.75l4.23,0a.8.8,0,0,0,.56-.24h0a.8.8,0,0,0,.23-.54c.06-.64.17-1.71.17-1.82h0l0-2.19a1,1,0,0,0,.35.08h.06l3.07-.11a5.55,5.55,0,0,0,.49,1.9,5.94,5.94,0,0,0,3.25,3,6.21,6.21,0,0,0,4.59,0,6.06,6.06,0,0,0,1.58-.92c0,.27.1,1.07.17,1.76a.84.84,0,0,0,.22.52v0a.83.83,0,0,0,.57.23h0l4.6,0a.82.82,0,0,0,.81-.79c.17-1.74.17-1.79.17-1.82v0l0-1.25a5.09,5.09,0,0,0,.69,0h.28A6.24,6.24,0,0,0,82.87,24a4.52,4.52,0,0,0,1.7-1.3h0c0,.37.09,1,.14,1.47a.81.81,0,0,0,.76.78l4,.22h0a.81.81,0,0,0,.8-.7h0l0-.33a5.67,5.67,0,0,0,.85,1.33,6.38,6.38,0,0,0,1.87,1.49,7.24,7.24,0,0,0,2.32.79,9.9,9.9,0,0,0,1.64.14h.31a4.13,4.13,0,0,0,2.13-.47,1.72,1.72,0,0,0,.42-.38,5.76,5.76,0,0,0,1.5,1.12,7,7,0,0,0,.83.4,4.77,4.77,0,0,0,.93.28,6.87,6.87,0,0,0,1.28.14h.45a.82.82,0,0,0,.43.27h0l4.32.82h.15a.77.77,0,0,0,.45-.14h0a.82.82,0,0,0,.32-.53l1.42-9.5s0-.12,0-.22c0-.32,0-.87,0-1.33a6.49,6.49,0,0,0,0-.71,1.68,1.68,0,0,0,0-.29h0a1,1,0,0,0-.79-.79l-4.08-.7H107a.88.88,0,0,0-.54.18h0a.74.74,0,0,0-.13.12,5.85,5.85,0,0,0-1.13-.34H105a5.37,5.37,0,0,0-.9-.07h-.24a6.77,6.77,0,0,0-1.1.15,6.26,6.26,0,0,0-1.2.4,1.62,1.62,0,0,0-.1-.18,5.34,5.34,0,0,0-.88-.9,6.9,6.9,0,0,0-1-.68h0a7.56,7.56,0,0,0-1.13-.49h0a6.92,6.92,0,0,0-1.15-.29h0a6.87,6.87,0,0,0-1.09-.09,6.41,6.41,0,0,0-1.46.17h0a6.74,6.74,0,0,0-2.26,1h0a6.58,6.58,0,0,0-1,.88l.09-.72a.62.62,0,0,0,0-.13,1.09,1.09,0,0,0-.1-.44h0a3.29,3.29,0,0,0,1.07-.89h0A2.78,2.78,0,0,0,93.07,12h0c0-.25.11-1.08.17-1.74v-.05h0s0-.38,0-.57a3.84,3.84,0,0,0-.14-1h0a3.23,3.23,0,0,0-.74-1.3h0a3.57,3.57,0,0,0-1.18-.82h0a5.15,5.15,0,0,0-1.45-.38,3.31,3.31,0,0,0-.55,0,4.43,4.43,0,0,0-.9.1h0A3.75,3.75,0,0,0,87,6.69l0,0a3.52,3.52,0,0,0-1,1h0a3.66,3.66,0,0,0-.49,1.47,15.2,15.2,0,0,0,.1,2.14,7.08,7.08,0,0,0,.18,1.13h0v0l-.19,0a1,1,0,0,0-.6.21h0a1,1,0,0,0-.23.26,4.87,4.87,0,0,0-.61-.68,4.5,4.5,0,0,0-1.42-.91h0a5.72,5.72,0,0,0-1.06-.35,4.6,4.6,0,0,0-1-.11h-.25a4.52,4.52,0,0,0-.75.09h0a6.29,6.29,0,0,0-.63.19h0a1,1,0,0,0-.7-.3H74.11a1,1,0,0,0-1,1l0,3A6.35,6.35,0,0,0,71.53,14a6.39,6.39,0,0,0-4.71,0h0a6.58,6.58,0,0,0-2,1.24h0l-.11.1a3.08,3.08,0,0,0-.72-1h0a4,4,0,0,0-2.82-1,5.57,5.57,0,0,0-1.68.26h0l-.05,0a1.05,1.05,0,0,0-.2-.27h0a.94.94,0,0,0-.65-.26h-.06l-2.9.19,0-1.7v0a1,1,0,0,0-.28-.7,1,1,0,0,0-.7-.29h0l-1.21,0,0-3.8a1,1,0,0,0-.29-.68l0,0a1,1,0,0,0-.67-.26"/><path class="cls-9" d="M86.8,13.33a2.89,2.89,0,0,0,.93.63,3.88,3.88,0,0,0,1.17.32,3.44,3.44,0,0,0,.46,0,4.34,4.34,0,0,0,.71-.06,3.66,3.66,0,0,0,1.14-.39,2.91,2.91,0,0,0,.91-.76,2.35,2.35,0,0,0,.48-1.18,8.62,8.62,0,0,0,.09-2.67c-.13-.4-.49.55-.76.26a3.06,3.06,0,0,0-1-.68,4.93,4.93,0,0,0-1.27-.33,3.71,3.71,0,0,0-.47,0,3.31,3.31,0,0,0-.77.09A3.06,3.06,0,0,0,87.34,9c-.32.22-.78-.87-1-.52a2.46,2.46,0,0,0-.38,1.7,14.08,14.08,0,0,0,.26,2.14,2.46,2.46,0,0,0,.57,1m3.81,2.88L85.68,15H85.6a.31.31,0,0,0-.21.07.32.32,0,0,0-.12.26l0,2.81A7.13,7.13,0,0,0,85.06,17a5.23,5.23,0,0,0-.5-1.3,4.45,4.45,0,0,0-.85-1.09,4.38,4.38,0,0,0-1.24-.79,4.76,4.76,0,0,0-1-.31,3.39,3.39,0,0,0-.84-.1h-.21a3.2,3.2,0,0,0-.63.07,5.76,5.76,0,0,0-.59.18l-.55.23-.06,0v-.19a.32.32,0,0,0-.32-.32H74.1a.32.32,0,0,0-.32.32l0,4.58a5.47,5.47,0,0,0-2.46-1.91,5.82,5.82,0,0,0-4.24,0,5.79,5.79,0,0,0-1.77,1.12,5.5,5.5,0,0,0-.84,1,2.87,2.87,0,0,0-.87-1.9,3.44,3.44,0,0,0-2.4-.8,5,5,0,0,0-1.48.23,4.27,4.27,0,0,0-.78.34v-.51a.3.3,0,0,0-.11-.23.31.31,0,0,0-.22-.09h0l-3.61.24L55,13.39a.3.3,0,0,0-.09-.24.35.35,0,0,0-.24-.1h0l-1.87,0,0-4.45a.29.29,0,0,0-.1-.23.33.33,0,0,0-.23-.1h0l-4.75.1a.33.33,0,0,0-.32.34l.09,4.5-1.65.05a.34.34,0,0,0-.32.34l0,2.17a3.82,3.82,0,0,0-.73-.36,6.38,6.38,0,0,0-1-.29,4.4,4.4,0,0,0-.73-.06h-.32a3.42,3.42,0,0,0-.63.09,4.94,4.94,0,0,0-.58.2,5.38,5.38,0,0,0-.55.24l-.06,0V15.5a.32.32,0,0,0-.33-.32h0l-4.17.12a.33.33,0,0,0-.32.34l.1,4.07a5.4,5.4,0,0,0-.79-.93,5.72,5.72,0,0,0-1.76-1.11,5.69,5.69,0,0,0-4.24,0l-.37.16h0a3.85,3.85,0,0,0,.08-.47c0-.15,0-.3,0-.46a2,2,0,0,0,0-.44,5.09,5.09,0,0,0-.89-2.25,4.68,4.68,0,0,0-1.64-1.33,6,6,0,0,0-2.09-.52l-.47,0a9.25,9.25,0,0,0-1.81.13l-.13,0-.13,0a1.84,1.84,0,0,0-.29.06l-2.87.63c-.95.22-2.26-1.11-3.23-.88-.17,0,0,1.78,0,2L19,29.35a.3.3,0,0,0,.15.2.34.34,0,0,0,.17.05h.08l5.08-1.21a.33.33,0,0,0,.24-.4l.16-1.67L23.4,22.55a5.57,5.57,0,0,0,1.49-.45,2.52,2.52,0,0,0,.78-.73,9.67,9.67,0,0,0,.77,3.36,4.85,4.85,0,0,0,1.22,1.68,5.47,5.47,0,0,0,1.77,1.11,5.69,5.69,0,0,0,4.24,0,5.47,5.47,0,0,0,1.76-1.11,5.29,5.29,0,0,0,.92-1.13l-.05,2.37.15,1.76a.33.33,0,0,0,.1.23.31.31,0,0,0,.22.09h0l4.6-.11a.34.34,0,0,0,.24-.11.3.3,0,0,0,.08-.24l.12-1.62-.35-2.08.58.12a5.06,5.06,0,0,0,.68,0l.42,0a5.76,5.76,0,0,0,2.15-.54A4.18,4.18,0,0,0,46.8,24a3.34,3.34,0,0,0,.68-1.5c0-.08.21,1.35.21,1.35a.33.33,0,0,0,.33.33h0l4.53-.06a.33.33,0,0,0,.33-.33L53,22l-.2-4.78,1.1,0,.09,6.9.15,1.7a.33.33,0,0,0,.33.32h0l4.22,0A.34.34,0,0,0,59,26a.33.33,0,0,0,.09-.23l.1-1.7-.2-4.72a.74.74,0,0,1,.29-.05c.22,0,.27.27.27.27s.11,1.48.14,1.57.23.23.41.24h0l3.53-.12v.06a4.87,4.87,0,0,0,.46,2.12,5.42,5.42,0,0,0,1.22,1.69,5.78,5.78,0,0,0,6,1.11,5.77,5.77,0,0,0,1.77-1.11,5.65,5.65,0,0,0,.65-.74l-.15,1.31.14,1.79a.29.29,0,0,0,.09.23.33.33,0,0,0,.23.1l4.6,0h0a.34.34,0,0,0,.23-.1.34.34,0,0,0,.09-.24l.16-1.7-.28-2c.2.06.39.1.58.14a4.76,4.76,0,0,0,.86.07h.23a5.88,5.88,0,0,0,2.17-.48,4,4,0,0,0,1.53-1.17,4.75,4.75,0,0,0,.86-1.76,6.45,6.45,0,0,0,.17-1l-.17,2.74.14,1.76a.32.32,0,0,0,.31.33l4,.23h0a.32.32,0,0,0,.32-.29l.8-6.35c0-.17.12-1.76,0-1.8M24,18a1.84,1.84,0,0,1-.37.55,2.6,2.6,0,0,1-.58.44l-.36.17-.63-2.66a3.4,3.4,0,0,1,.45,0h.06a2.31,2.31,0,0,1,.46.05,1.7,1.7,0,0,1,.46.18,1.27,1.27,0,0,1,.38.36.83.83,0,0,1,.11.15.41.41,0,0,1,.06.17A1.07,1.07,0,0,1,24,18m8.72,5a1,1,0,0,1-.25.34,1.26,1.26,0,0,1-.36.24,1.08,1.08,0,0,1-.44.08,1.11,1.11,0,0,1-.44-.08,1.31,1.31,0,0,1-.37-.24.88.88,0,0,1-.24-.34,1,1,0,0,1-.09-.41,1.05,1.05,0,0,1,.33-.77,1.57,1.57,0,0,1,.37-.24,1.32,1.32,0,0,1,.44-.08,1.12,1.12,0,0,1,.44.09,1.08,1.08,0,0,1,.7,1,1,1,0,0,1-.09.41M43,20.9a.73.73,0,0,1-.22.3,1.18,1.18,0,0,1-.39.19,3.15,3.15,0,0,1-.55.1l-.45,0h-.09l-.13-2.31a3.87,3.87,0,0,1,.48,0,2.32,2.32,0,0,1,.71.18,1.41,1.41,0,0,1,.49.39,1.16,1.16,0,0,1,.21.64.86.86,0,0,1-.06.47m4.54-2.34A5.94,5.94,0,0,0,47,17.43h.51l0,1.48c0-.12,0-.23-.08-.34m22.86,3.18a1,1,0,0,1-.25.35,1.13,1.13,0,0,1-.36.24,1.22,1.22,0,0,1-.87,0,1.23,1.23,0,0,1-.38-.24,1.16,1.16,0,0,1-.24-.34,1,1,0,0,1,0-.84,1.16,1.16,0,0,1,.24-.34,1.36,1.36,0,0,1,.38-.24,1.22,1.22,0,0,1,.87,0,1.27,1.27,0,0,1,.62.59,1.07,1.07,0,0,1,.08.41,1,1,0,0,1-.09.41m10.1-2.56a.61.61,0,0,1-.23.29,1,1,0,0,1-.4.19,3,3,0,0,1-.55.08h-.54l-.06-2.32.48,0a2,2,0,0,1,.7.21,1.16,1.16,0,0,1,.48.4,1.22,1.22,0,0,1,.2.65,1,1,0,0,1-.08.46m18.37,3.65a.33.33,0,0,0-.19-.06h-.07l-.43.07-.48,0h-.49l-.44,0a1.66,1.66,0,0,1-.49-.16,1.21,1.21,0,0,1-.39-.28,1,1,0,0,1-.22-.36,1,1,0,0,1,0-.47.88.88,0,0,1,.16-.38,1,1,0,0,1,.32-.27,1.44,1.44,0,0,1,.43-.13h.21l.29,0a2.74,2.74,0,0,1,.76.26,3.21,3.21,0,0,1,.68.45.31.31,0,0,0,.22.09h0a.32.32,0,0,0,.23-.13l2-2.88a.35.35,0,0,0,0-.39,4.3,4.3,0,0,0-.76-.78,6.21,6.21,0,0,0-1-.62,5.67,5.67,0,0,0-1-.46,5.41,5.41,0,0,0-1-.27,5.81,5.81,0,0,0-1-.09,5.9,5.9,0,0,0-1.33.15,6.12,6.12,0,0,0-2,.91,5.72,5.72,0,0,0-2.4,3.81,5.17,5.17,0,0,0,.13,2.33,5.34,5.34,0,0,0,1,1.93,6.23,6.23,0,0,0,1.73,1.39,7.21,7.21,0,0,0,2.18.74,10.05,10.05,0,0,0,1.56.12h.3a3.73,3.73,0,0,0,1.88-.4.9.9,0,0,0,.44-1l.09-.81L99,23.06a.43.43,0,0,0-.14-.23m12.69-5.53-4.45.92H107a.3.3,0,0,0-.18.06.33.33,0,0,0-.14.22l0,.23-.55-.25a5.66,5.66,0,0,0-1-.32l-.11,0a4.85,4.85,0,0,0-.93-.06h-.09a5.36,5.36,0,0,0-1,.13,5,5,0,0,0-1.4.53,4.3,4.3,0,0,0-1.09.88,4.54,4.54,0,0,0-.77,1.18,6,6,0,0,0-.45,1.41l0,.15,0,.1a1.5,1.5,0,0,0,0,.29,5.16,5.16,0,0,0,.42,2.9,4.7,4.7,0,0,0,2.08,2,7,7,0,0,0,.78.37,4.06,4.06,0,0,0,.84.25,6.9,6.9,0,0,0,1.2.14h.21a4.57,4.57,0,0,0,.52-.05.34.34,0,0,0,.26.32l4.31.81h.07a.28.28,0,0,0,.18-.06.3.3,0,0,0,.14-.22l1.42-9.5a9.42,9.42,0,0,0,0-2.45m-5.77,7.32h-.12l-.42-.07a3,3,0,0,1-.55-.16,1.27,1.27,0,0,1-.41-.24.69.69,0,0,1-.21-.32.85.85,0,0,1,0-.48,1,1,0,0,1,.27-.55,1.19,1.19,0,0,1,.51-.3,1.89,1.89,0,0,1,.53-.08h.15l.59.05Z"/><path class="cls-10" d="M86.8,13.33a2.89,2.89,0,0,0,.93.63,3.88,3.88,0,0,0,1.17.32,3.44,3.44,0,0,0,.46,0,4.34,4.34,0,0,0,.71-.06,3.66,3.66,0,0,0,1.14-.39,2.91,2.91,0,0,0,.91-.76,2.35,2.35,0,0,0,.48-1.18,8.62,8.62,0,0,0,.09-2.67c-.13-.4-.49.55-.76.26a3.06,3.06,0,0,0-1-.68,4.93,4.93,0,0,0-1.27-.33,3.71,3.71,0,0,0-.47,0,3.31,3.31,0,0,0-.77.09A3.06,3.06,0,0,0,87.34,9c-.32.22-.78-.87-1-.52a2.46,2.46,0,0,0-.38,1.7,14.08,14.08,0,0,0,.26,2.14A2.46,2.46,0,0,0,86.8,13.33Zm3.81,2.88L85.68,15H85.6a.31.31,0,0,0-.21.07.32.32,0,0,0-.12.26l0,2.81A7.13,7.13,0,0,0,85.06,17a5.23,5.23,0,0,0-.5-1.3,4.45,4.45,0,0,0-.85-1.09,4.38,4.38,0,0,0-1.24-.79,4.76,4.76,0,0,0-1-.31,3.39,3.39,0,0,0-.84-.1h-.21a3.2,3.2,0,0,0-.63.07,5.76,5.76,0,0,0-.59.18l-.55.23-.06,0v-.19a.32.32,0,0,0-.32-.32H74.1a.32.32,0,0,0-.32.32l0,4.58a5.47,5.47,0,0,0-2.46-1.91,5.82,5.82,0,0,0-4.24,0,5.79,5.79,0,0,0-1.77,1.12,5.5,5.5,0,0,0-.84,1,2.87,2.87,0,0,0-.87-1.9,3.44,3.44,0,0,0-2.4-.8,5,5,0,0,0-1.48.23,4.27,4.27,0,0,0-.78.34v-.51a.3.3,0,0,0-.11-.23.31.31,0,0,0-.22-.09h0l-3.61.24L55,13.39a.3.3,0,0,0-.09-.24.35.35,0,0,0-.24-.1h0l-1.87,0,0-4.45a.29.29,0,0,0-.1-.23.33.33,0,0,0-.23-.1h0l-4.75.1a.33.33,0,0,0-.32.34l.09,4.5-1.65.05a.34.34,0,0,0-.32.34l0,2.17a3.82,3.82,0,0,0-.73-.36,6.38,6.38,0,0,0-1-.29,4.4,4.4,0,0,0-.73-.06h-.32a3.42,3.42,0,0,0-.63.09,4.94,4.94,0,0,0-.58.2,5.38,5.38,0,0,0-.55.24l-.06,0V15.5a.32.32,0,0,0-.33-.32h0l-4.17.12a.33.33,0,0,0-.32.34l.1,4.07a5.4,5.4,0,0,0-.79-.93,5.72,5.72,0,0,0-1.76-1.11,5.69,5.69,0,0,0-4.24,0l-.37.16h0a3.85,3.85,0,0,0,.08-.47c0-.15,0-.3,0-.46a2,2,0,0,0,0-.44,5.09,5.09,0,0,0-.89-2.25,4.68,4.68,0,0,0-1.64-1.33,6,6,0,0,0-2.09-.52l-.47,0a9.25,9.25,0,0,0-1.81.13l-.13,0-.13,0a1.84,1.84,0,0,0-.29.06l-2.87.63c-.95.22-2.26-1.11-3.23-.88-.17,0,0,1.78,0,2L19,29.35a.3.3,0,0,0,.15.2.34.34,0,0,0,.17.05h.08l5.08-1.21a.33.33,0,0,0,.24-.4l.16-1.67L23.4,22.55a5.57,5.57,0,0,0,1.49-.45,2.52,2.52,0,0,0,.78-.73,9.67,9.67,0,0,0,.77,3.36,4.85,4.85,0,0,0,1.22,1.68,5.47,5.47,0,0,0,1.77,1.11,5.69,5.69,0,0,0,4.24,0,5.47,5.47,0,0,0,1.76-1.11,5.29,5.29,0,0,0,.92-1.13l-.05,2.37.15,1.76a.33.33,0,0,0,.1.23.31.31,0,0,0,.22.09h0l4.6-.11a.34.34,0,0,0,.24-.11.3.3,0,0,0,.08-.24l.12-1.62-.35-2.08.58.12a5.06,5.06,0,0,0,.68,0l.42,0a5.76,5.76,0,0,0,2.15-.54A4.18,4.18,0,0,0,46.8,24a3.34,3.34,0,0,0,.68-1.5c0-.08.21,1.35.21,1.35a.33.33,0,0,0,.33.33h0l4.53-.06a.33.33,0,0,0,.33-.33L53,22l-.2-4.78,1.1,0,.09,6.9.15,1.7a.33.33,0,0,0,.33.32h0l4.22,0A.34.34,0,0,0,59,26a.33.33,0,0,0,.09-.23l.1-1.7-.2-4.72a.74.74,0,0,1,.29-.05c.22,0,.27.27.27.27s.11,1.48.14,1.57.23.23.41.24h0l3.53-.12v.06a4.87,4.87,0,0,0,.46,2.12,5.42,5.42,0,0,0,1.22,1.69,5.78,5.78,0,0,0,6,1.11,5.77,5.77,0,0,0,1.77-1.11,5.65,5.65,0,0,0,.65-.74l-.15,1.31.14,1.79a.29.29,0,0,0,.09.23.33.33,0,0,0,.23.1l4.6,0h0a.34.34,0,0,0,.23-.1.34.34,0,0,0,.09-.24l.16-1.7-.28-2c.2.06.39.1.58.14a4.76,4.76,0,0,0,.86.07h.23a5.88,5.88,0,0,0,2.17-.48,4,4,0,0,0,1.53-1.17,4.75,4.75,0,0,0,.86-1.76,6.45,6.45,0,0,0,.17-1l-.17,2.74.14,1.76a.32.32,0,0,0,.31.33l4,.23h0a.32.32,0,0,0,.32-.29l.8-6.35C90.67,17.84,90.77,16.25,90.61,16.21ZM24,18a1.84,1.84,0,0,1-.37.55,2.6,2.6,0,0,1-.58.44l-.36.17-.63-2.66a3.4,3.4,0,0,1,.45,0h.06a2.31,2.31,0,0,1,.46.05,1.7,1.7,0,0,1,.46.18,1.27,1.27,0,0,1,.38.36.83.83,0,0,1,.11.15.41.41,0,0,1,.06.17A1.07,1.07,0,0,1,24,18Zm8.72,5a1,1,0,0,1-.25.34,1.26,1.26,0,0,1-.36.24,1.08,1.08,0,0,1-.44.08,1.11,1.11,0,0,1-.44-.08,1.31,1.31,0,0,1-.37-.24.88.88,0,0,1-.24-.34,1,1,0,0,1-.09-.41,1.05,1.05,0,0,1,.33-.77,1.57,1.57,0,0,1,.37-.24,1.32,1.32,0,0,1,.44-.08,1.12,1.12,0,0,1,.44.09,1.08,1.08,0,0,1,.7,1A1,1,0,0,1,32.74,23ZM43,20.9a.73.73,0,0,1-.22.3,1.18,1.18,0,0,1-.39.19,3.15,3.15,0,0,1-.55.1l-.45,0h-.09l-.13-2.31a3.87,3.87,0,0,1,.48,0,2.32,2.32,0,0,1,.71.18,1.41,1.41,0,0,1,.49.39,1.16,1.16,0,0,1,.21.64A.86.86,0,0,1,43,20.9Zm4.54-2.34A5.94,5.94,0,0,0,47,17.43h.51l0,1.48C47.55,18.78,47.53,18.67,47.5,18.56Zm22.86,3.18a1,1,0,0,1-.25.35,1.13,1.13,0,0,1-.36.24,1.22,1.22,0,0,1-.87,0,1.23,1.23,0,0,1-.38-.24,1.16,1.16,0,0,1-.24-.34,1,1,0,0,1,0-.84,1.16,1.16,0,0,1,.24-.34,1.36,1.36,0,0,1,.38-.24,1.22,1.22,0,0,1,.87,0,1.27,1.27,0,0,1,.62.59,1.07,1.07,0,0,1,.08.41A1,1,0,0,1,70.36,21.74Zm10.1-2.56a.61.61,0,0,1-.23.29,1,1,0,0,1-.4.19,3,3,0,0,1-.55.08h-.54l-.06-2.32.48,0a2,2,0,0,1,.7.21,1.16,1.16,0,0,1,.48.4,1.22,1.22,0,0,1,.2.65A1,1,0,0,1,80.46,19.18Zm18.37,3.65a.33.33,0,0,0-.19-.06h-.07l-.43.07-.48,0h-.49l-.44,0a1.66,1.66,0,0,1-.49-.16,1.21,1.21,0,0,1-.39-.28,1,1,0,0,1-.22-.36,1,1,0,0,1,0-.47.88.88,0,0,1,.16-.38,1,1,0,0,1,.32-.27,1.44,1.44,0,0,1,.43-.13h.21l.29,0a2.74,2.74,0,0,1,.76.26,3.21,3.21,0,0,1,.68.45.31.31,0,0,0,.22.09h0a.32.32,0,0,0,.23-.13l2-2.88a.35.35,0,0,0,0-.39,4.3,4.3,0,0,0-.76-.78,6.21,6.21,0,0,0-1-.62,5.67,5.67,0,0,0-1-.46,5.41,5.41,0,0,0-1-.27,5.81,5.81,0,0,0-1-.09,5.9,5.9,0,0,0-1.33.15,6.12,6.12,0,0,0-2,.91,5.72,5.72,0,0,0-2.4,3.81,5.17,5.17,0,0,0,.13,2.33,5.34,5.34,0,0,0,1,1.93,6.23,6.23,0,0,0,1.73,1.39,7.21,7.21,0,0,0,2.18.74,10.05,10.05,0,0,0,1.56.12h.3a3.73,3.73,0,0,0,1.88-.4.9.9,0,0,0,.44-1l.09-.81L99,23.06A.43.43,0,0,0,98.83,22.83Zm12.69-5.53-4.45.92H107a.3.3,0,0,0-.18.06.33.33,0,0,0-.14.22l0,.23-.55-.25a5.66,5.66,0,0,0-1-.32l-.11,0a4.85,4.85,0,0,0-.93-.06h-.09a5.36,5.36,0,0,0-1,.13,5,5,0,0,0-1.4.53,4.3,4.3,0,0,0-1.09.88,4.54,4.54,0,0,0-.77,1.18,6,6,0,0,0-.45,1.41l0,.15,0,.1a1.5,1.5,0,0,0,0,.29,5.16,5.16,0,0,0,.42,2.9,4.7,4.7,0,0,0,2.08,2,7,7,0,0,0,.78.37,4.06,4.06,0,0,0,.84.25,6.9,6.9,0,0,0,1.2.14h.21a4.57,4.57,0,0,0,.52-.05.34.34,0,0,0,.26.32l4.31.81h.07a.28.28,0,0,0,.18-.06.3.3,0,0,0,.14-.22l1.42-9.5A9.42,9.42,0,0,0,111.52,17.3Zm-5.77,7.32h-.12l-.42-.07a3,3,0,0,1-.55-.16,1.27,1.27,0,0,1-.41-.24.69.69,0,0,1-.21-.32.85.85,0,0,1,0-.48,1,1,0,0,1,.27-.55,1.19,1.19,0,0,1,.51-.3,1.89,1.89,0,0,1,.53-.08h.15l.59.05Z"/><path class="cls-11" d="M19.44,27.77a.48.48,0,0,1-.17-.05.35.35,0,0,1-.15-.21l-3.44-15a.32.32,0,0,1,.24-.39l2.88-.68,2.87-.63a1.84,1.84,0,0,1,.29-.06l.13,0,.13,0A9.25,9.25,0,0,1,24,10.53l.47,0a6,6,0,0,1,2.09.52,4.6,4.6,0,0,1,1.64,1.34,5,5,0,0,1,.89,2.24,2,2,0,0,1,0,.44c0,.16,0,.31,0,.46a3.55,3.55,0,0,1-.08.47l-.09.4A5,5,0,0,1,28,18.18a6.39,6.39,0,0,1-1.42,1.27,8.61,8.61,0,0,1-1.72.85,13.4,13.4,0,0,1-1.49.45l1.32,5.43a.32.32,0,0,1-.24.4l-5,1.18h-.08M22.08,14.7l.63,2.66.36-.17a2.6,2.6,0,0,0,.58-.44A1.84,1.84,0,0,0,24,16.2a1.07,1.07,0,0,0,0-.62.41.41,0,0,0-.06-.17.83.83,0,0,0-.11-.15,1.27,1.27,0,0,0-.38-.36,1.7,1.7,0,0,0-.46-.18,2.31,2.31,0,0,0-.46-.05h-.06l-.45,0"/></g><g class="cls-12"><rect class="cls-11" x="11.52" y="8.26" width="21.76" height="21.76" transform="translate(-6.97 21.44) rotate(-45)"/></g><g class="cls-3"><path class="cls-13" d="M19.44,27.77a.48.48,0,0,1-.17-.05.35.35,0,0,1-.15-.21l-3.44-15a.32.32,0,0,1,.24-.39l2.88-.68,2.87-.63a1.84,1.84,0,0,1,.29-.06l.13,0,.13,0A9.25,9.25,0,0,1,24,10.53l.47,0a6,6,0,0,1,2.09.52,4.49,4.49,0,0,1,1.63,1.34,4.9,4.9,0,0,1,.9,2.24,2,2,0,0,1,0,.44c0,.16,0,.31,0,.46a3.55,3.55,0,0,1-.08.47l-.09.4A5,5,0,0,1,28,18.18a6.39,6.39,0,0,1-1.42,1.27,8.61,8.61,0,0,1-1.72.85,13.4,13.4,0,0,1-1.49.45l1.32,5.43a.32.32,0,0,1-.24.4l-5,1.18ZM22.08,14.7l.63,2.66.36-.17a2.6,2.6,0,0,0,.58-.44A1.67,1.67,0,0,0,24,16.2a1.07,1.07,0,0,0,0-.62.41.41,0,0,0-.06-.17.83.83,0,0,0-.11-.15,1.27,1.27,0,0,0-.38-.36,1.7,1.7,0,0,0-.46-.18,2.31,2.31,0,0,0-.46-.05h-.06Z"/><path class="cls-11" d="M31.55,26.13a5.63,5.63,0,0,1-2.12-.41,5.47,5.47,0,0,1-1.77-1.11,5.38,5.38,0,0,1-1.22-1.68A4.87,4.87,0,0,1,26,20.81a5,5,0,0,1,.46-2.14A5.68,5.68,0,0,1,27.65,17a5.81,5.81,0,0,1,1.78-1.11,5.69,5.69,0,0,1,4.24,0A5.72,5.72,0,0,1,35.43,17a5.54,5.54,0,0,1,1.22,1.69,5,5,0,0,1,.46,2.14,4.9,4.9,0,0,1-.46,2.12,5.38,5.38,0,0,1-1.22,1.68,5.47,5.47,0,0,1-1.76,1.11,5.63,5.63,0,0,1-2.12.41m.14-6.41a1.12,1.12,0,0,0-.44.09,1.28,1.28,0,0,0-.37.23,1.31,1.31,0,0,0-.24.34,1,1,0,0,0-.09.43,1,1,0,0,0,.09.41,1,1,0,0,0,.24.34,1.31,1.31,0,0,0,.37.24,1.12,1.12,0,0,0,.44.09,1.08,1.08,0,0,0,.44-.09,1.13,1.13,0,0,0,.36-.24,1,1,0,0,0,.25-.34,1,1,0,0,0,.09-.41,1,1,0,0,0-.09-.42,1.13,1.13,0,0,0-.61-.58,1.12,1.12,0,0,0-.44-.09"/></g><g class="cls-14"><rect class="cls-11" x="23.84" y="13.09" width="15.41" height="15.41" transform="translate(-5.46 28.39) rotate(-45)"/></g><g class="cls-3"><path class="cls-13" d="M31.55,26.13a5.63,5.63,0,0,1-2.12-.41,5.47,5.47,0,0,1-1.77-1.11,5.38,5.38,0,0,1-1.22-1.68A4.87,4.87,0,0,1,26,20.81a5,5,0,0,1,.46-2.14A5.68,5.68,0,0,1,27.65,17a5.81,5.81,0,0,1,1.78-1.11,5.69,5.69,0,0,1,4.24,0A5.72,5.72,0,0,1,35.43,17a5.54,5.54,0,0,1,1.22,1.69,5,5,0,0,1,.46,2.14,4.9,4.9,0,0,1-.46,2.12,5.38,5.38,0,0,1-1.22,1.68,5.47,5.47,0,0,1-1.76,1.11A5.63,5.63,0,0,1,31.55,26.13Zm.14-6.41a1.12,1.12,0,0,0-.44.09,1.28,1.28,0,0,0-.37.23,1.11,1.11,0,0,0-.24.34,1,1,0,0,0-.09.43,1,1,0,0,0,.09.41.88.88,0,0,0,.24.34,1.31,1.31,0,0,0,.37.24,1.11,1.11,0,0,0,.44.08,1.08,1.08,0,0,0,.44-.08,1.13,1.13,0,0,0,.36-.24,1,1,0,0,0,.25-.34,1,1,0,0,0,.09-.41,1,1,0,0,0-.09-.42,1.13,1.13,0,0,0-.61-.58A1.12,1.12,0,0,0,31.69,19.72Z"/><path class="cls-11" d="M36.77,27.94a.32.32,0,0,1-.22-.1.31.31,0,0,1-.1-.23l-.33-13.77a.33.33,0,0,1,.32-.34l4.18-.12h0a.32.32,0,0,1,.33.32v.18l.06,0c.18-.09.36-.16.55-.24a4.94,4.94,0,0,1,.58-.2,3.42,3.42,0,0,1,.63-.09h.32a4.4,4.4,0,0,1,.73.06,6.06,6.06,0,0,1,1,.29,4.1,4.1,0,0,1,1.27.75A4.3,4.3,0,0,1,47,15.48a5.26,5.26,0,0,1,.55,1.28,8.31,8.31,0,0,1,.24,1.41,7.51,7.51,0,0,1-.14,2.21,4.8,4.8,0,0,1-.8,1.79,4.18,4.18,0,0,1-1.5,1.21,5.76,5.76,0,0,1-2.15.54l-.42,0a5.06,5.06,0,0,1-.68-.05l-.58-.12.23,3.7a.33.33,0,0,1-.08.25.37.37,0,0,1-.24.1l-4.6.12Zm4.49-8.23h.09l.45,0a2.43,2.43,0,0,0,.55-.1,1.18,1.18,0,0,0,.39-.19.73.73,0,0,0,.22-.3.86.86,0,0,0,.06-.47,1.16,1.16,0,0,0-.21-.64,1.41,1.41,0,0,0-.49-.39,2.64,2.64,0,0,0-.71-.18,3.87,3.87,0,0,0-.48,0Z"/></g><g class="cls-15"><rect class="cls-11" x="32.65" y="11.32" width="18.6" height="18.6" transform="translate(-2.29 35.71) rotate(-45)"/></g><g class="cls-3"><path class="cls-13" d="M36.78,27.94a.34.34,0,0,1-.33-.33l-.33-13.77a.34.34,0,0,1,.32-.34l4.18-.12h0a.32.32,0,0,1,.33.32v.18l.06,0c.18-.09.36-.16.55-.24a4.94,4.94,0,0,1,.58-.2,3.42,3.42,0,0,1,.63-.09h.32a4.4,4.4,0,0,1,.73.06,6.06,6.06,0,0,1,1,.29,4.1,4.1,0,0,1,1.27.75A4.3,4.3,0,0,1,47,15.48a5.26,5.26,0,0,1,.55,1.28,8.31,8.31,0,0,1,.24,1.41,7.51,7.51,0,0,1-.14,2.21,4.8,4.8,0,0,1-.8,1.79,4.18,4.18,0,0,1-1.5,1.21,5.76,5.76,0,0,1-2.15.54l-.42,0a5.06,5.06,0,0,1-.68-.05l-.58-.12.23,3.7a.3.3,0,0,1-.09.25.33.33,0,0,1-.23.1l-4.6.12Zm4.48-8.23h.09l.44,0a2.42,2.42,0,0,0,.56-.1,1.18,1.18,0,0,0,.39-.19.73.73,0,0,0,.22-.3.86.86,0,0,0,.06-.47,1.16,1.16,0,0,0-.21-.64,1.41,1.41,0,0,0-.49-.39,2.64,2.64,0,0,0-.71-.18,3.87,3.87,0,0,0-.48,0Z"/><path class="cls-11" d="M48,22.35a.33.33,0,0,1-.33-.33l-.14-6.4-1.65.05h0a.39.39,0,0,1-.23-.09.34.34,0,0,1-.1-.23l-.07-3.5a.34.34,0,0,1,.32-.34l1.65,0L47.37,7a.33.33,0,0,1,.32-.34l4.75-.1h0a.33.33,0,0,1,.23.1.29.29,0,0,1,.1.23l0,4.45,1.87-.05h0a.35.35,0,0,1,.24.1.3.3,0,0,1,.09.24l-.09,3.5a.35.35,0,0,1-.32.33l-1.77,0,.06,6.5a.33.33,0,0,1-.33.33L48,22.35Z"/></g><g class="cls-16"><rect class="cls-11" x="41.29" y="5.48" width="17.92" height="17.92" transform="translate(4.51 39.76) rotate(-45)"/></g><g class="cls-3"><path class="cls-13" d="M48,22.35a.33.33,0,0,1-.33-.33l-.14-6.4-1.65.05h0a.39.39,0,0,1-.23-.09.34.34,0,0,1-.1-.23l-.07-3.5a.34.34,0,0,1,.32-.34l1.65,0L47.37,7a.33.33,0,0,1,.32-.34l4.75-.1h0a.33.33,0,0,1,.23.1.29.29,0,0,1,.1.23l0,4.45,1.87-.05h0a.35.35,0,0,1,.24.1.3.3,0,0,1,.09.24l-.09,3.5a.35.35,0,0,1-.32.33l-1.77,0,.06,6.5a.33.33,0,0,1-.33.33L48,22.35Z"/><path class="cls-11" d="M54.49,24.35a.33.33,0,0,1-.33-.32l-.27-9.64a.34.34,0,0,1,.31-.34l4.35-.28h0a.31.31,0,0,1,.22.09.31.31,0,0,1,.11.23v.51a4.27,4.27,0,0,1,.78-.34A5,5,0,0,1,61.17,14a3.44,3.44,0,0,1,2.4.8,3.08,3.08,0,0,1,.89,2.38c0,.33,0,.66,0,1l0,.91a.37.37,0,0,1-.32.36l-4,.13h0a.33.33,0,0,1-.32-.36c0-.18,0-.36.07-.54a2.45,2.45,0,0,0,0-.48.73.73,0,0,0-.19-.53.47.47,0,0,0-.42-.17.74.74,0,0,0-.29,0L59,24a.33.33,0,0,1-.09.23.34.34,0,0,1-.23.1l-4.22,0Z"/></g><g class="cls-17"><rect class="cls-11" x="51.7" y="11.58" width="14.96" height="14.96" transform="translate(3.85 47.43) rotate(-45)"/></g><g class="cls-3"><path class="cls-13" d="M54.49,24.35a.33.33,0,0,1-.33-.32l-.27-9.64a.34.34,0,0,1,.31-.34l4.35-.28h0a.31.31,0,0,1,.22.09.3.3,0,0,1,.11.23v.51a4.27,4.27,0,0,1,.78-.34A5,5,0,0,1,61.17,14a3.44,3.44,0,0,1,2.4.8,3.08,3.08,0,0,1,.89,2.38c0,.33,0,.66,0,1l0,.91a.37.37,0,0,1-.32.36l-4,.13h0a.37.37,0,0,1-.24-.1.35.35,0,0,1-.08-.26c0-.18,0-.36.07-.54a2.45,2.45,0,0,0,0-.48.73.73,0,0,0-.19-.53.47.47,0,0,0-.42-.17.77.77,0,0,0-.29,0L59,24a.32.32,0,0,1-.09.23.34.34,0,0,1-.23.1l-4.22,0Z"/><path class="cls-11" d="M69.17,24.85a5.63,5.63,0,0,1-2.12-.4,5.48,5.48,0,0,1-3-2.79,5.16,5.16,0,0,1,0-4.26,5.54,5.54,0,0,1,1.22-1.69,5.79,5.79,0,0,1,1.77-1.12,5.82,5.82,0,0,1,4.24,0,5.79,5.79,0,0,1,1.77,1.12,5.63,5.63,0,0,1,1.22,1.69,5.27,5.27,0,0,1,0,4.26,5.48,5.48,0,0,1-3,2.79,5.63,5.63,0,0,1-2.12.4m.15-6.4a1.27,1.27,0,0,0-.44.08,1.36,1.36,0,0,0-.38.24,1.16,1.16,0,0,0-.24.34,1,1,0,0,0,0,.84,1.16,1.16,0,0,0,.24.34,1.23,1.23,0,0,0,.38.24,1.08,1.08,0,0,0,.44.08,1.06,1.06,0,0,0,.43-.08,1.13,1.13,0,0,0,.36-.24,1,1,0,0,0,.25-.35,1,1,0,0,0,.09-.41,1.07,1.07,0,0,0-.08-.41,1.27,1.27,0,0,0-.62-.59,1.26,1.26,0,0,0-.43-.08"/></g><g class="cls-18"><rect class="cls-11" x="61.46" y="11.81" width="15.42" height="15.42" transform="translate(6.46 54.63) rotate(-45)"/></g><g class="cls-3"><path class="cls-13" d="M69.17,24.85a5.63,5.63,0,0,1-2.12-.4,5.48,5.48,0,0,1-3-2.79,5.16,5.16,0,0,1,0-4.26,5.54,5.54,0,0,1,1.22-1.69,5.79,5.79,0,0,1,1.77-1.12,5.82,5.82,0,0,1,4.24,0,5.79,5.79,0,0,1,1.77,1.12,5.63,5.63,0,0,1,1.22,1.69,5.27,5.27,0,0,1,0,4.26,5.48,5.48,0,0,1-3,2.79A5.63,5.63,0,0,1,69.17,24.85Zm.15-6.4a1.27,1.27,0,0,0-.44.08,1.36,1.36,0,0,0-.38.24,1.16,1.16,0,0,0-.24.34,1,1,0,0,0,0,.84,1.16,1.16,0,0,0,.24.34,1.23,1.23,0,0,0,.38.24,1.08,1.08,0,0,0,.44.08,1.06,1.06,0,0,0,.43-.08,1.13,1.13,0,0,0,.36-.24,1,1,0,0,0,.25-.35,1,1,0,0,0,.09-.41,1.07,1.07,0,0,0-.08-.41,1.27,1.27,0,0,0-.62-.59A1.26,1.26,0,0,0,69.32,18.45Z"/><path class="cls-11" d="M78.63,26.05h0L74,26a.34.34,0,0,1-.23-.1.28.28,0,0,1-.09-.23l.08-13.78a.32.32,0,0,1,.32-.32h4.19a.32.32,0,0,1,.32.32v.19l.06,0,.55-.23a4,4,0,0,1,.59-.17,2.59,2.59,0,0,1,.63-.08h.21a3.39,3.39,0,0,1,.84.1,5.48,5.48,0,0,1,1,.31,4.38,4.38,0,0,1,1.24.79,4.45,4.45,0,0,1,.85,1.09,5.23,5.23,0,0,1,.5,1.3,7.25,7.25,0,0,1,.2,1.42,7.46,7.46,0,0,1-.2,2.21,4.78,4.78,0,0,1-.86,1.75,4,4,0,0,1-1.53,1.17,5.88,5.88,0,0,1-2.17.48h-.23a4.76,4.76,0,0,1-.86-.07c-.19,0-.38-.08-.58-.14L79,25.71a.34.34,0,0,1-.09.24.34.34,0,0,1-.23.1m.11-8.11h.54a3,3,0,0,0,.55-.08,1,1,0,0,0,.4-.19.61.61,0,0,0,.23-.29,1,1,0,0,0,.08-.46,1.22,1.22,0,0,0-.2-.65,1.24,1.24,0,0,0-.48-.4,2.59,2.59,0,0,0-.7-.21l-.48,0Z"/></g><g class="cls-19"><rect class="cls-11" x="70.28" y="9.61" width="18.43" height="18.43" transform="translate(9.98 61.73) rotate(-45)"/></g><g class="cls-3"><path class="cls-13" d="M78.63,26.05h0L74,26a.33.33,0,0,1-.23-.1.28.28,0,0,1-.09-.23l.08-13.78a.32.32,0,0,1,.32-.32h4.19a.32.32,0,0,1,.32.32v.19l.06,0,.55-.23a4,4,0,0,1,.59-.17,2.59,2.59,0,0,1,.63-.08h.21a3.39,3.39,0,0,1,.84.1,5.48,5.48,0,0,1,1,.31,4.38,4.38,0,0,1,1.24.79,4.45,4.45,0,0,1,.85,1.09,5.23,5.23,0,0,1,.5,1.3,7.25,7.25,0,0,1,.2,1.42,7.36,7.36,0,0,1-.2,2.2,4.75,4.75,0,0,1-.86,1.76,4,4,0,0,1-1.53,1.17,5.88,5.88,0,0,1-2.17.48h-.23a4.76,4.76,0,0,1-.86-.07c-.19,0-.38-.08-.58-.14L79,25.71a.34.34,0,0,1-.09.24A.34.34,0,0,1,78.63,26.05Zm.11-8.11h.54a3,3,0,0,0,.55-.08,1,1,0,0,0,.4-.19.61.61,0,0,0,.23-.29,1,1,0,0,0,.08-.46,1.22,1.22,0,0,0-.2-.65,1.24,1.24,0,0,0-.48-.4,2.49,2.49,0,0,0-.7-.21l-.48,0Z"/><path class="cls-11" d="M89.36,12.51a3.44,3.44,0,0,1-.46,0,4.19,4.19,0,0,1-1.17-.31,3.08,3.08,0,0,1-.93-.64,2.46,2.46,0,0,1-.57-1,2.84,2.84,0,0,1-.1-1.25,3.14,3.14,0,0,1,.4-1.21,2.9,2.9,0,0,1,.81-.86,3.06,3.06,0,0,1,1.09-.47,3.31,3.31,0,0,1,.77-.09,3.71,3.71,0,0,1,.47,0A4.93,4.93,0,0,1,90.94,7a3.06,3.06,0,0,1,1,.68,2.59,2.59,0,0,1,.59,1,3.55,3.55,0,0,1,.08,1.36,2.35,2.35,0,0,1-.48,1.18,2.91,2.91,0,0,1-.91.76,3.66,3.66,0,0,1-1.14.39,4.34,4.34,0,0,1-.71.06"/></g><g class="cls-20"><rect class="cls-11" x="84.97" y="5.2" width="8.79" height="8.79" transform="translate(19.39 66) rotate(-45)"/></g><g class="cls-3"><path class="cls-13" d="M89.36,12.51a3.44,3.44,0,0,1-.46,0,4.19,4.19,0,0,1-1.17-.31,3.08,3.08,0,0,1-.93-.64,2.46,2.46,0,0,1-.57-1,2.84,2.84,0,0,1-.1-1.25,3.14,3.14,0,0,1,.4-1.21,2.9,2.9,0,0,1,.81-.86,3.06,3.06,0,0,1,1.09-.47,3.31,3.31,0,0,1,.77-.09,3.71,3.71,0,0,1,.47,0A4.93,4.93,0,0,1,90.94,7a3.06,3.06,0,0,1,1,.68,2.59,2.59,0,0,1,.59,1,3.55,3.55,0,0,1,.08,1.36,2.35,2.35,0,0,1-.48,1.18,2.91,2.91,0,0,1-.91.76,3.66,3.66,0,0,1-1.14.39A4.34,4.34,0,0,1,89.36,12.51Z"/><path class="cls-11" d="M89.53,22.85h0l-4-.23a.31.31,0,0,1-.31-.33l.07-8.78a.32.32,0,0,1,.12-.26.31.31,0,0,1,.21-.07h.08l4.93,1.22a.34.34,0,0,1,.25.36l-1,7.79a.32.32,0,0,1-.32.29"/></g><g class="cls-21"><rect class="cls-11" x="82.61" y="12.59" width="10.86" height="10.86" transform="translate(13.05 67.53) rotate(-45)"/></g><g class="cls-3"><path class="cls-13" d="M89.53,22.85h0l-4-.23a.31.31,0,0,1-.31-.33l.07-8.78a.32.32,0,0,1,.12-.26.38.38,0,0,1,.21-.07h.08l4.93,1.22a.34.34,0,0,1,.25.36l-1,7.79A.34.34,0,0,1,89.53,22.85Z"/><path class="cls-11" d="M97.05,25.55a10.05,10.05,0,0,1-1.56-.12,7.21,7.21,0,0,1-2.18-.74,6.23,6.23,0,0,1-1.73-1.39,5.38,5.38,0,0,1-1-1.92A5.21,5.21,0,0,1,90.4,19a5.78,5.78,0,0,1,2.4-3.81,5.91,5.91,0,0,1,2-.9,5.38,5.38,0,0,1,1.33-.16,5.81,5.81,0,0,1,1,.09,5.41,5.41,0,0,1,1,.27,5.67,5.67,0,0,1,1,.46,6.21,6.21,0,0,1,1,.62,4.3,4.3,0,0,1,.76.78.35.35,0,0,1,0,.39l-2,2.88a.32.32,0,0,1-.23.13h0a.31.31,0,0,1-.22-.09,3.21,3.21,0,0,0-.68-.45A2.74,2.74,0,0,0,97,19l-.29,0h-.21a1.44,1.44,0,0,0-.43.13,1,1,0,0,0-.32.27.88.88,0,0,0-.16.38.92.92,0,0,0,0,.47,1.07,1.07,0,0,0,.22.37,1.36,1.36,0,0,0,.39.27,1.66,1.66,0,0,0,.49.16l.44,0h.49l.48,0,.43-.07h.07a.33.33,0,0,1,.19.06.43.43,0,0,1,.14.23l.48,3.6a.33.33,0,0,1-.23.35,6.24,6.24,0,0,1-1.87.34h-.3"/></g><g class="cls-22"><rect class="cls-11" x="87.83" y="12.02" width="15.68" height="15.68" transform="translate(13.98 73.47) rotate(-45)"/></g><g class="cls-3"><path class="cls-13" d="M97.05,25.55a10.05,10.05,0,0,1-1.56-.12,7.21,7.21,0,0,1-2.18-.74,6.23,6.23,0,0,1-1.73-1.39,5.38,5.38,0,0,1-1-1.92A5.21,5.21,0,0,1,90.4,19a5.78,5.78,0,0,1,2.4-3.81,5.91,5.91,0,0,1,2-.9,5.38,5.38,0,0,1,1.33-.16,5.81,5.81,0,0,1,1,.09,5.41,5.41,0,0,1,1,.27,5.67,5.67,0,0,1,1,.46,6.21,6.21,0,0,1,1,.62,4.3,4.3,0,0,1,.76.78.35.35,0,0,1,0,.39l-2,2.88a.32.32,0,0,1-.23.13h0a.31.31,0,0,1-.22-.09,3.21,3.21,0,0,0-.68-.45A2.74,2.74,0,0,0,97,19l-.29,0h-.21a1.44,1.44,0,0,0-.43.13,1,1,0,0,0-.32.27.88.88,0,0,0-.16.38.92.92,0,0,0,0,.47,1.07,1.07,0,0,0,.22.37,1.36,1.36,0,0,0,.39.27,1.66,1.66,0,0,0,.49.16l.44,0h.49l.48,0,.43-.07h.07a.33.33,0,0,1,.19.06.43.43,0,0,1,.14.23l.48,3.6a.33.33,0,0,1-.23.35,6.24,6.24,0,0,1-1.87.34Z"/><path class="cls-11" d="M109.52,27.75h-.08l-4-.84a.34.34,0,0,1-.26-.32,4.57,4.57,0,0,1-.52.05h-.21a6.9,6.9,0,0,1-1.2-.14,4.06,4.06,0,0,1-.84-.25,7,7,0,0,1-.78-.37,4.7,4.7,0,0,1-2.08-2,5.16,5.16,0,0,1-.42-2.9,1.59,1.59,0,0,1,0-.29l0-.1,0-.15A6.66,6.66,0,0,1,99.68,19a4.54,4.54,0,0,1,.77-1.18,4.3,4.3,0,0,1,1.09-.88,5.29,5.29,0,0,1,1.4-.53,6.38,6.38,0,0,1,1-.13H104a4.85,4.85,0,0,1,.93.06l.11,0a5.66,5.66,0,0,1,1,.32l.55.25,0-.23a.33.33,0,0,1,.14-.22.3.3,0,0,1,.18-.06h.07l4.05.69a.33.33,0,0,1,.27.38l-1.56,10a.32.32,0,0,1-.13.22.32.32,0,0,1-.18.06m-4.18-7.14a2.34,2.34,0,0,0-.53.08,1.19,1.19,0,0,0-.51.3,1,1,0,0,0-.27.55.85.85,0,0,0,0,.48.69.69,0,0,0,.21.32,1.27,1.27,0,0,0,.41.24,3,3,0,0,0,.55.16l.42.07h.12l.33-2.16-.59-.05h-.15"/></g><g class="cls-23"><rect class="cls-11" x="96.78" y="13.56" width="16.87" height="16.9" transform="translate(16.68 82.97) rotate(-46.36)"/></g><g class="cls-3"><path class="cls-13" d="M109.52,27.75h-.08l-4-.84a.34.34,0,0,1-.26-.32,4.57,4.57,0,0,1-.52.05h-.21a6.9,6.9,0,0,1-1.2-.14,4.06,4.06,0,0,1-.84-.25,7,7,0,0,1-.78-.37,4.7,4.7,0,0,1-2.08-2,5.16,5.16,0,0,1-.42-2.9,1.59,1.59,0,0,1,0-.29l0-.1,0-.15A6.13,6.13,0,0,1,99.68,19a4.54,4.54,0,0,1,.77-1.18,4.3,4.3,0,0,1,1.09-.88,5.29,5.29,0,0,1,1.4-.53,6.38,6.38,0,0,1,1-.13H104a4.85,4.85,0,0,1,.93.06l.11,0a5.66,5.66,0,0,1,1,.32l.55.25,0-.23a.3.3,0,0,1,.14-.22.3.3,0,0,1,.18-.06h.07l4.05.69a.33.33,0,0,1,.27.38l-1.56,10a.32.32,0,0,1-.13.22A.32.32,0,0,1,109.52,27.75Zm-4.18-7.14a2.34,2.34,0,0,0-.53.08,1.19,1.19,0,0,0-.51.3,1,1,0,0,0-.27.55.85.85,0,0,0,0,.48.69.69,0,0,0,.21.32,1.27,1.27,0,0,0,.41.24,3,3,0,0,0,.55.16l.42.07h.12l.33-2.15a5.11,5.11,0,0,0-.59-.06Z"/></g></g></g></svg>