<svg id="_01_-_iSocial_BP_OK" data-name="01 - iSocial BP OK" xmlns="http://www.w3.org/2000/svg" viewBox="0 0 290.55 140.79"><defs><style>.cls-1,.cls-2,.cls-4{fill:none;stroke-miterlimit:10;}.cls-1{stroke:#e3e3e3;}.cls-1,.cls-2{stroke-width:0.5px;}.cls-2,.cls-4{stroke:#e66b54;}.cls-10,.cls-11,.cls-12,.cls-3{font-size:6.5px;}.cls-3,.cls-6,.cls-7{fill:#7c7d7f;}.cls-10,.cls-11,.cls-12,.cls-3,.cls-7,.cls-8{font-family:ExpertSans-Light, Expert Sans;}.cls-14,.cls-3{letter-spacing:-0.01em;}.cls-5,.cls-8{fill:#e66b54;}.cls-7,.cls-8{font-size:5px;letter-spacing:-0.05em;}.cls-9{fill:#58595b;}.cls-10,.cls-11,.cls-12{fill:#fff;}.cls-10{letter-spacing:-0.01em;}.cls-11{letter-spacing:-0.01em;}.cls-12{letter-spacing:-0.13em;}.cls-13{letter-spacing:-0.03em;}</style></defs><title>IMG - GRAPH Autism Prevalence</title><line class="cls-1" x1="53.68" y1="44.44" x2="260.44" y2="44.44"/><line class="cls-2" x1="30.05" y1="89.06" x2="260.44" y2="89.06"/><line class="cls-1" x1="53.68" y1="66.89" x2="260.44" y2="66.89"/><text class="cls-3" transform="translate(29 46.23)">1 in 100</text><text class="cls-3" transform="translate(29 69.2)">1 in 200</text><polyline class="cls-4" points="30.05 88.16 88.82 87.27 147.38 80.13 182.51 71.21 200.98 62.29 217.2 59.61 230.26 48.9"/><rect class="cls-5" x="28.25" y="92.26" width="4.01" height="12.51"/><rect class="cls-6" x="34.11" y="92.26" width="4.01" height="12.51"/><rect class="cls-6" x="39.97" y="92.26" width="4.01" height="12.51"/><rect class="cls-6" x="45.82" y="92.26" width="4.01" height="12.51"/><rect class="cls-6" x="51.68" y="92.26" width="4.01" height="12.51"/><rect class="cls-6" x="57.53" y="92.26" width="4.01" height="12.51"/><rect class="cls-6" x="63.39" y="92.26" width="4.01" height="12.51"/><rect class="cls-6" x="69.24" y="92.26" width="4.01" height="12.51"/><rect class="cls-6" x="75.1" y="92.26" width="4.01" height="12.51"/><rect class="cls-6" x="80.96" y="92.26" width="4.01" height="12.51"/><rect class="cls-5" x="86.81" y="92.26" width="4.01" height="12.51"/><rect class="cls-6" x="92.67" y="92.26" width="4.01" height="12.51"/><rect class="cls-6" x="98.52" y="92.26" width="4.01" height="12.51"/><rect class="cls-6" x="104.38" y="92.26" width="4.01" height="12.51"/><rect class="cls-6" x="110.23" y="92.26" width="4.01" height="12.51"/><rect class="cls-6" x="116.09" y="92.26" width="4.01" height="12.51"/><rect class="cls-6" x="121.95" y="92.26" width="4.01" height="12.51"/><rect class="cls-6" x="127.8" y="92.26" width="4.01" height="12.51"/><rect class="cls-6" x="133.66" y="92.26" width="4.01" height="12.51"/><rect class="cls-6" x="139.51" y="92.26" width="4.01" height="12.51"/><rect class="cls-5" x="145.37" y="92.26" width="4.01" height="12.51"/><rect class="cls-6" x="151.22" y="92.26" width="4.01" height="12.51"/><rect class="cls-6" x="157.08" y="92.26" width="4.01" height="12.51"/><rect class="cls-6" x="162.94" y="92.26" width="4.01" height="12.51"/><rect class="cls-6" x="168.79" y="92.26" width="4.01" height="12.51"/><rect class="cls-6" x="174.65" y="92.26" width="4.01" height="12.51"/><rect class="cls-5" x="180.5" y="92.26" width="4.01" height="12.51"/><rect class="cls-6" x="186.36" y="92.26" width="4.01" height="12.51"/><rect class="cls-6" x="192.22" y="92.26" width="4.01" height="12.51"/><rect class="cls-5" x="198.07" y="92.26" width="4.01" height="12.51"/><rect class="cls-6" x="203.93" y="92.26" width="4.01" height="12.51"/><rect class="cls-6" x="209.78" y="92.26" width="4.01" height="12.51"/><rect class="cls-5" x="215.64" y="92.26" width="4.01" height="12.51"/><rect class="cls-6" x="221.49" y="92.26" width="4.01" height="12.51"/><rect class="cls-5" x="227.35" y="92.26" width="4.01" height="12.51"/><rect class="cls-6" x="233.21" y="92.26" width="4.01" height="12.51"/><rect class="cls-6" x="239.06" y="92.26" width="4.01" height="12.51"/><rect class="cls-5" x="244.92" y="92.26" width="4.01" height="12.51"/><rect class="cls-6" x="250.77" y="92.26" width="4.01" height="12.51"/><rect class="cls-5" x="256.63" y="92.26" width="4.01" height="12.51"/><text class="cls-7" transform="translate(25.66 113.64)">1975</text><text class="cls-7" transform="translate(29.02 84.18)">1 in 5000</text><text class="cls-7" transform="translate(142.18 113.64)">1995</text><text class="cls-7" transform="translate(177.31 113.64)">2001</text><text class="cls-7" transform="translate(194.88 113.64)">2004</text><text class="cls-7" transform="translate(83.62 113.64)">1985</text><text class="cls-8" transform="translate(28.27 120.9)">Study Publication Dates</text><text class="cls-7" transform="translate(153.24 127.31)">Cost to US in Research, Treatment, Long-term Care, etc.</text><text class="cls-7" transform="translate(28.18 127.48)">Source: Autism Speaks, 2014</text><text class="cls-7" transform="translate(224.16 113.64)">2009</text><text class="cls-7" transform="translate(241.73 113.64)">2012</text><text class="cls-7" transform="translate(253.44 113.64)">2014</text><text class="cls-7" transform="translate(212.45 113.64)">2007</text><circle cx="30.05" cy="88.16" r="0.9"/><circle cx="88.82" cy="87.27" r="0.9"/><circle cx="147.38" cy="80.13" r="0.9"/><circle cx="182.51" cy="71.21" r="0.9"/><circle cx="200.98" cy="62.29" r="0.9"/><circle cx="217.2" cy="59.61" r="0.9"/><text class="cls-7" transform="translate(71.18 83.78)">1 in 2500</text><text class="cls-7" transform="translate(131.92 77.36)">1 in 500</text><text class="cls-7" transform="translate(167.17 67.57)">1 in 250</text><text class="cls-7" transform="translate(185.56 58.71)">1 in 166</text><text class="cls-7" transform="translate(201.95 54.68)">1 in 150</text><text class="cls-7" transform="translate(215.53 43.09)">1 in 110</text><text class="cls-7" transform="translate(231.65 37.36)">1 in 88</text><text class="cls-7" transform="translate(244.21 22.21)">1 in 68</text><path class="cls-9" d="M224.2,73.71,215.49,71a.27.27,0,0,0-.39,0l-8.71,2.71a.28.28,0,0,0-.08.2V84.76a.28.28,0,0,0,.08.2.26.26,0,0,0,.19.08H224a.28.28,0,0,0,.27-.28V73.91A.28.28,0,0,0,224.2,73.71Z"/><text class="cls-10" transform="translate(208.24 78.87) scale(0.58)">$</text><text class="cls-11" transform="translate(210.3 81.03)">35b</text><path class="cls-9" d="M241.33,60.63l-9.72-2.72a.28.28,0,0,0-.38,0l-9.72,2.72a.27.27,0,0,0-.08.19V71.68a.27.27,0,0,0,.08.19.28.28,0,0,0,.2.08h19.42a.27.27,0,0,0,.28-.27V60.82A.27.27,0,0,0,241.33,60.63Z"/><text class="cls-10" transform="translate(223.37 65.78) scale(0.58)">$</text><text class="cls-12" transform="translate(225.42 67.95)">1<tspan class="cls-13" x="2.75" y="0">3</tspan><tspan class="cls-14" x="6.15" y="0">7b</tspan></text><polyline class="cls-4" points="230.26 48.9 246.92 38.26 259.54 21.31"/><circle cx="246.92" cy="38.26" r="0.9"/><circle cx="230.26" cy="48.9" r="0.9"/><circle cx="259.54" cy="21.31" r="0.9"/><path class="cls-9" d="M151.46,123.62l-3.52-1.1a.12.12,0,0,0-.16,0l-3.53,1.1a.11.11,0,0,0,0,.08v4.39a.1.1,0,0,0,.11.11h7a.11.11,0,0,0,.12-.11V123.7A.12.12,0,0,0,151.46,123.62Z"/></svg>