<svg id="_01_-_iSocial_BP_OK_-_PICS" data-name="01 - iSocial BP OK - PICS" xmlns="http://www.w3.org/2000/svg" viewBox="0 0 86.01 37.16"><defs><style>.cls-1{fill:#7c7d7f;}</style></defs><title>IMG - LOGO CEC</title><path class="cls-1" d="M20.84,6.29c0,2-1,3.59-2.22,3.59S16.4,8.27,16.4,6.29s1-3.59,2.22-3.59,2.22,1.61,2.22,3.59"/><polygon class="cls-1" points="16.4 14.95 20.63 14.95 20.63 11.36 12.39 11.36 19 33.36 20.69 33.36 20.69 31.69 16.4 14.95"/><path class="cls-1" d="M24.76,18.86a2.07,2.07,0,0,1-2.78.76,2.08,2.08,0,0,1,0-2.88A2.07,2.07,0,0,1,24.73,16a2.06,2.06,0,0,1,0,2.87"/><polygon class="cls-1" points="29.91 24.86 27.59 21.07 21.89 21.07 21.89 33.31 24.85 33.31 26.77 24.7 28.43 27.19 29.91 24.86"/><path class="cls-1" d="M38.15,11.32l-.56.66a2.16,2.16,0,0,0-.59-.34,2.18,2.18,0,0,0-3,2.06,2.6,2.6,0,0,0,0,.4,2.19,2.19,0,0,0,.88,1.44,2.17,2.17,0,0,0,2.39.09l.29-.2.54.64a3,3,0,0,1-2.62.64,3.09,3.09,0,0,1,0-6,3.06,3.06,0,0,1,2.6.64"/><path class="cls-1" d="M39.55,14.47A1.4,1.4,0,0,1,41,13a1.42,1.42,0,0,1,1.29,2,1.41,1.41,0,0,1-2.7-.57m2.28,2.14a2.35,2.35,0,0,0,.74-.48,2.29,2.29,0,0,0,0-3.33A2.34,2.34,0,0,0,41,12.16a2.31,2.31,0,0,0-2.33,2.31,2.34,2.34,0,0,0,3.2,2.14"/><path class="cls-1" d="M44.07,14.61V12.2H45v2.28a2.26,2.26,0,0,0,0,.27,1.17,1.17,0,0,0,2.08.75,1.35,1.35,0,0,0,.26-1V12.2h.91v4.51h-.91v-.22a1.18,1.18,0,0,1,.07-.41.78.78,0,0,1,0-.14,1.36,1.36,0,0,1-.44.53,1.78,1.78,0,0,1-1.39.28,1.94,1.94,0,0,1-1.53-2.14"/><path class="cls-1" d="M49.18,16.71V12.2h.92v.22a1.14,1.14,0,0,1-.08.4s0,.1-.05.15a1.3,1.3,0,0,1,.44-.54,1.8,1.8,0,0,1,1.4-.27,1.92,1.92,0,0,1,1.52,2.13v2.42h-.89V14.42a2.35,2.35,0,0,0,0-.27,1.17,1.17,0,0,0-1.68-1.06,1.26,1.26,0,0,0-.4.31c-.21.25-.25.45-.25,1v2.3Z"/><path class="cls-1" d="M58.1,12.83l-.65.61a1.45,1.45,0,0,0-.77-.39,1.3,1.3,0,0,0-.52,0,1.34,1.34,0,0,0-1.1,1.15,1.56,1.56,0,0,0,0,.57,1.35,1.35,0,0,0,1.14,1.12,1.41,1.41,0,0,0,1.26-.41l.07-.07.65.61a2.41,2.41,0,0,1-2.57.63A2.28,2.28,0,0,1,54.17,14a2.09,2.09,0,0,1,.33-.82,2.36,2.36,0,0,1,3.45-.5l.08.07Z"/><path class="cls-1" d="M58.79,12.2h.92v4.51h-.92Zm0-1.5h.93v1h-.93Z"/><rect class="cls-1" x="60.69" y="10.7" width="0.93" height="6.01"/><path class="cls-1" d="M64.56,14.1v-.57h.31a.34.34,0,0,0,0-.1,1.13,1.13,0,0,1,1.36-1,1.16,1.16,0,0,1,.58.3l.05.05-.47.4,0,0,0,0a.35.35,0,0,0-.2-.1.47.47,0,0,0-.61.43v0h1v.56h-1v2.62h-.66V14.1Z"/><path class="cls-1" d="M67,15.13a1,1,0,0,1,1-1,1,1,0,0,1,.91,1.42,1,1,0,0,1-1.89-.4m1.59,1.51a1.66,1.66,0,0,0,.53-.34,1.62,1.62,0,0,0,0-2.34A1.68,1.68,0,0,0,68,13.5a1.63,1.63,0,1,0,.61,3.14"/><path class="cls-1" d="M70.17,16.71V13.53h.65V14a.19.19,0,0,1,.06-.07,1.05,1.05,0,0,1,.88-.48h.13l-.1.64a1,1,0,0,0-.34.09c-.46.22-.64.55-.64,1.27v1.23Z"/><polygon class="cls-1" points="33.26 24.69 33.26 18.68 36.76 18.68 36.76 19.51 34.2 19.51 34.2 21.24 36.74 21.24 36.74 22.05 34.2 22.05 34.2 23.87 36.85 23.87 36.85 24.69 33.26 24.69"/><polygon class="cls-1" points="37.01 24.69 38.54 22.44 37.01 20.18 38.09 20.18 39.07 21.68 40.06 20.18 41.13 20.18 39.61 22.44 41.13 24.69 40.06 24.69 39.07 23.22 38.09 24.69 37.01 24.69"/><path class="cls-1" d="M45.11,20.81l-.65.62a1.39,1.39,0,0,0-.77-.4,1.3,1.3,0,0,0-.52,0,1.36,1.36,0,0,0-1.1,1.15,1.55,1.55,0,0,0,0,.57,1.37,1.37,0,0,0,1.14,1.13,1.42,1.42,0,0,0,1.26-.42l.06-.07.66.61a2.39,2.39,0,0,1-2.57.63A2.3,2.3,0,0,1,41.17,22a2.06,2.06,0,0,1,.34-.81,2.24,2.24,0,0,1,1.44-1,2.28,2.28,0,0,1,2,.48l.08.07Z"/><path class="cls-1" d="M50.08,22.82H47v-.77h2.2a.61.61,0,0,0,0-.11,1.43,1.43,0,0,0-1.6-.88,1.37,1.37,0,0,0-1.16,1.41,1.41,1.41,0,0,0,1.18,1.43,1.42,1.42,0,0,0,1.17-.32l.07-.06,0-.06.67.57a2.33,2.33,0,0,1-2.16.72A2.28,2.28,0,0,1,45.5,22a2.32,2.32,0,0,1,1-1.45,2.14,2.14,0,0,1,.84-.31,2.25,2.25,0,0,1,2.34,1,2.4,2.4,0,0,1,.36,1.61"/><path class="cls-1" d="M51.54,22.41a1.34,1.34,0,0,1,.6-1.19,1.41,1.41,0,0,1,2.18,1.49,1.38,1.38,0,0,1-1.14,1.12,1.46,1.46,0,0,1-.55,0,1.39,1.39,0,0,1-1.09-1.4m0,3.78v-1.9a1.13,1.13,0,0,0-.13-.56l0,.07.09.13a2,2,0,0,0,2.68.44,2.32,2.32,0,0,0,.06-3.9,2,2,0,0,0-2.74.41l-.07.1-.06.09a1,1,0,0,0,.09-.29.69.69,0,0,0,0-.25v-.35h-.92v6Z"/><polygon class="cls-1" points="55.3 20.98 55.3 20.18 55.94 20.18 55.94 18.68 56.86 18.68 56.86 20.18 58.07 20.18 58.07 20.97 56.84 20.97 56.84 24.69 55.93 24.69 55.93 20.98 55.3 20.98"/><path class="cls-1" d="M58.81,20.18h.91v4.51h-.91Zm0-1.5h.93v1h-.93Z"/><path class="cls-1" d="M61.37,22.45A1.4,1.4,0,0,1,62.77,21a1.43,1.43,0,0,1,1.29,2,1.37,1.37,0,0,1-1.29.87,1.4,1.4,0,0,1-1.4-1.44m2.27,2.14a2.35,2.35,0,0,0,.74-.48,2.29,2.29,0,0,0,0-3.33,2.4,2.4,0,0,0-1.61-.64,2.31,2.31,0,1,0,.87,4.45"/><path class="cls-1" d="M65.46,24.69V20.18h.91v.22a1.18,1.18,0,0,1-.07.41l0,.14a1.22,1.22,0,0,1,.44-.53,1.78,1.78,0,0,1,1.39-.28,1.94,1.94,0,0,1,1.53,2.14v2.41h-.89V22.4a2.17,2.17,0,0,0,0-.26A1.16,1.16,0,0,0,67,21.08a1,1,0,0,0-.4.31c-.21.25-.26.44-.26,1v2.3Z"/><path class="cls-1" d="M71.25,22.43a1.09,1.09,0,0,1,0-.26A1.38,1.38,0,0,1,72.42,21a1.46,1.46,0,0,1,.55,0,1.42,1.42,0,0,1,1.1,1.11,1.44,1.44,0,0,1-.6,1.49,1.46,1.46,0,0,1-1.35.15,1.37,1.37,0,0,1-.87-1.38m2.93-1.36-.08-.13a2,2,0,0,0-2.69-.44,2.33,2.33,0,0,0-.92,1.06,2.27,2.27,0,0,0,0,1.79,2.36,2.36,0,0,0,.86,1A2,2,0,0,0,74.09,24l.07-.1.07-.09a1.08,1.08,0,0,0-.13.54v.35H75V20.18h-.89v.4a1.22,1.22,0,0,0,.12.56Z"/><rect class="cls-1" x="75.89" y="18.68" width="0.93" height="6.01"/><path class="cls-1" d="M38.15,27.85l-.56.67a2,2,0,0,0-.59-.35,2.18,2.18,0,0,0-3,2.06,2.6,2.6,0,0,0,0,.4,2.19,2.19,0,0,0,.88,1.44,2.17,2.17,0,0,0,2.39.09l.29-.2.54.64a3,3,0,0,1-2.62.64,3.09,3.09,0,0,1,0-6,3.06,3.06,0,0,1,2.6.64"/><path class="cls-1" d="M38.81,33.24v-6h.9v1.59a1.31,1.31,0,0,1-.14.69,1.45,1.45,0,0,1,.24-.35,1.66,1.66,0,0,1,1.62-.47A1.94,1.94,0,0,1,43,30.86v2.38h-.89V31c0-1.05-.64-1.61-1.46-1.42a1.11,1.11,0,0,0-.64.4,1.42,1.42,0,0,0-.26,1v2.27Z"/><path class="cls-1" d="M43.93,28.73h.92v4.51h-.92Zm0-1.5h.93v1h-.93Z"/><rect class="cls-1" x="45.83" y="27.23" width="0.93" height="6.01"/><path class="cls-1" d="M48,31a.75.75,0,0,1,0-.26,1.37,1.37,0,0,1,1.13-1.13,1.27,1.27,0,0,1,.55,0,1.36,1.36,0,0,1,1.07,1.11,1.4,1.4,0,0,1-.58,1.48,1.37,1.37,0,0,1-1.33.16A1.39,1.39,0,0,1,48,31m2.94-1.36-.08-.13a2,2,0,0,0-2.69-.44,2.33,2.33,0,0,0-.92,1.06,2.27,2.27,0,0,0,0,1.79A2.41,2.41,0,0,0,48.08,33a2,2,0,0,0,2.74-.41l.07-.11.06-.09a1.26,1.26,0,0,0-.12.55v.35h.92v-6h-.91v1.9a1.25,1.25,0,0,0,.12.56Z"/><path class="cls-1" d="M52.71,33.24V28.73h.92v.71l.09-.11A1.52,1.52,0,0,1,55,28.65h.18l-.13.91a1.44,1.44,0,0,0-.49.14c-.65.3-.91.77-.91,1.79v1.75Z"/><path class="cls-1" d="M60,31.37H56.84V30.6H59a.76.76,0,0,0,0-.11,1.4,1.4,0,0,0-1.59-.88A1.36,1.36,0,0,0,56.25,31a1.39,1.39,0,0,0,1.18,1.42,1.43,1.43,0,0,0,1.17-.31l.06-.06.06-.06.66.57a2.33,2.33,0,0,1-2.15.72,2.31,2.31,0,0,1-.8-4.24,2.14,2.14,0,0,1,.84-.31,2.25,2.25,0,0,1,2.34,1A2.4,2.4,0,0,1,60,31.37"/><path class="cls-1" d="M60.72,33.24V28.73h.91V29a1.24,1.24,0,0,1-.08.41l0,.14a1.46,1.46,0,0,1,.44-.54,1.8,1.8,0,0,1,1.4-.27,1.92,1.92,0,0,1,1.52,2.13v2.42H64V31a2.44,2.44,0,0,0,0-.27,1.17,1.17,0,0,0-1.68-1.06,1.38,1.38,0,0,0-.4.31,1.35,1.35,0,0,0-.25,1v2.3Z"/><path class="cls-1" d="M28.43,27.19c-19.49,5-23.74-4.17-13-10.35-14,12.41,11.73,10.51,13,10.35"/></svg>