<svg id="_01_-_iSocial_BP_OK_-_PICS" data-name="01 - iSocial BP OK - PICS" xmlns="http://www.w3.org/2000/svg" viewBox="0 0 98.73 37.16"><defs><style>.cls-1{fill:#7c7d7f;}</style></defs><title>IMG - LOGO AASA</title><polygon class="cls-1" points="13.81 29.55 13.49 29.55 13.49 27.26 12.88 27.26 12.88 26.96 14.43 26.96 14.43 27.26 13.81 27.26 13.81 29.55"/><polygon class="cls-1" points="16.24 28 16.24 26.96 16.56 26.96 16.56 29.55 16.24 29.55 16.24 28.3 15.01 28.3 15.01 29.55 14.69 29.55 14.69 26.96 15.01 26.96 15.01 28 16.24 28"/><polygon class="cls-1" points="17.06 26.96 18.45 26.96 18.45 27.26 17.39 27.26 17.39 27.98 18.42 27.98 18.42 28.27 17.39 28.27 17.39 29.25 18.45 29.25 18.45 29.55 17.06 29.55 17.06 26.96"/><path class="cls-1" d="M21.06,27.45a.45.45,0,0,0-.42-.24.41.41,0,0,0-.43.36c0,.21.2.31.36.37l.18.08c.37.14.64.34.64.77a.8.8,0,0,1-.82.81.81.81,0,0,1-.8-.72l.33-.07a.49.49,0,1,0,1,0c0-.27-.22-.39-.44-.49l-.18-.07c-.3-.13-.56-.3-.56-.66a.7.7,0,0,1,.76-.66.73.73,0,0,1,.66.39Z"/><path class="cls-1" d="M23.66,27.45A1,1,0,1,0,23,29.31a1,1,0,0,0,.68-.27v.38a1.43,1.43,0,0,1-.67.18,1.35,1.35,0,1,1,0-2.69,1.22,1.22,0,0,1,.65.17Z"/><polygon class="cls-1" points="25.61 28 25.61 26.96 25.93 26.96 25.93 29.55 25.61 29.55 25.61 28.3 24.38 28.3 24.38 29.55 24.06 29.55 24.06 26.96 24.38 26.96 24.38 28 25.61 28"/><path class="cls-1" d="M29,28.25a1.36,1.36,0,1,1-1.36-1.34A1.36,1.36,0,0,1,29,28.25m-.33,0a1,1,0,1,0-2.06,0,1,1,0,1,0,2.06,0"/><path class="cls-1" d="M31.83,28.25a1.36,1.36,0,0,1-2.71,0,1.36,1.36,0,0,1,2.71,0m-.32,0a1,1,0,1,0-2.07,0,1,1,0,1,0,2.07,0"/><polygon class="cls-1" points="32.5 29.25 33.28 29.25 33.28 29.55 32.18 29.55 32.18 26.96 32.5 26.96 32.5 29.25"/><path class="cls-1" d="M35.7,27.45a.43.43,0,0,0-.41-.24.4.4,0,0,0-.43.36c0,.21.2.31.36.37l.18.08c.37.14.64.34.64.77a.81.81,0,0,1-1.62.09l.32-.07a.49.49,0,0,0,.5.49.49.49,0,0,0,.48-.51c0-.27-.22-.39-.44-.49l-.18-.07c-.3-.13-.56-.3-.56-.66a.7.7,0,0,1,.76-.66.74.74,0,0,1,.66.39Z"/><path class="cls-1" d="M36.71,27v1.53c0,.42.13.81.62.81s.63-.39.63-.81V27h.32V28.6a.95.95,0,1,1-1.89,0V27Z"/><path class="cls-1" d="M39.08,29.54h-.32V27h.37c.79,0,1,.28,1,.75s-.41.75-.9.75h-.19Zm0-1.37h.1c.33,0,.69-.06.69-.47s-.38-.45-.7-.45h-.09Z"/><polygon class="cls-1" points="40.49 26.96 41.88 26.96 41.88 27.26 40.81 27.26 40.81 27.98 41.85 27.98 41.85 28.27 40.81 28.27 40.81 29.25 41.88 29.25 41.88 29.55 40.49 29.55 40.49 26.96"/><path class="cls-1" d="M43.92,29.55h-.39l-.76-1.1h-.14v1.1h-.32V27h.39a1.31,1.31,0,0,1,.68.12.71.71,0,0,1,.34.62.7.7,0,0,1-.62.72Zm-1.29-1.37h.1c.33,0,.69-.06.69-.47s-.38-.46-.7-.46h-.09Z"/><rect class="cls-1" x="44.2" y="26.96" width="0.32" height="2.58"/><polygon class="cls-1" points="45.01 26.84 46.94 28.87 46.94 26.96 47.27 26.96 47.27 29.65 45.33 27.62 45.33 29.55 45.01 29.55 45.01 26.84"/><polygon class="cls-1" points="48.46 29.55 48.13 29.55 48.13 27.26 47.52 27.26 47.52 26.96 49.07 26.96 49.07 27.26 48.46 27.26 48.46 29.55"/><polygon class="cls-1" points="49.36 26.96 50.75 26.96 50.75 27.26 49.68 27.26 49.68 27.98 50.72 27.98 50.72 28.27 49.68 28.27 49.68 29.25 50.75 29.25 50.75 29.55 49.36 29.55 49.36 26.96"/><polygon class="cls-1" points="51.15 26.84 53.09 28.87 53.09 26.96 53.41 26.96 53.41 29.65 51.47 27.62 51.47 29.55 51.15 29.55 51.15 26.84"/><path class="cls-1" d="M53.88,27h.53a1.3,1.3,0,1,1,0,2.58h-.52Zm.32,2.29h.11c.66,0,1.23-.25,1.23-1s-.57-1-1.23-1H54.2Z"/><polygon class="cls-1" points="56.22 26.96 57.6 26.96 57.6 27.26 56.54 27.26 56.54 27.98 57.57 27.98 57.57 28.27 56.54 28.27 56.54 29.25 57.6 29.25 57.6 29.55 56.22 29.55 56.22 26.96"/><polygon class="cls-1" points="58.01 26.84 59.95 28.87 59.95 26.96 60.27 26.96 60.27 29.65 58.33 27.62 58.33 29.55 58.01 29.55 58.01 26.84"/><polygon class="cls-1" points="61.46 29.55 61.14 29.55 61.14 27.26 60.52 27.26 60.52 26.96 62.07 26.96 62.07 27.26 61.46 27.26 61.46 29.55"/><path class="cls-1" d="M63.51,27.45a.45.45,0,0,0-.42-.24.41.41,0,0,0-.43.36c0,.21.2.31.36.37l.19.08c.36.14.64.34.64.77a.82.82,0,0,1-1.63.09l.33-.07a.49.49,0,1,0,1,0c0-.27-.23-.39-.45-.49l-.18-.07c-.29-.13-.56-.3-.56-.66a.7.7,0,0,1,.76-.66.74.74,0,0,1,.67.39Z"/><path class="cls-1" d="M65.63,28.9l-.3.65H65l1.23-2.7,1.23,2.7h-.34l-.3-.65Zm.59-1.34-.46,1h.92Z"/><path class="cls-1" d="M68.85,27.45a.43.43,0,0,0-.41-.24.4.4,0,0,0-.43.36c0,.21.2.31.36.37l.18.08c.37.14.64.34.64.77a.81.81,0,0,1-1.62.09l.32-.07a.49.49,0,0,0,.5.49.49.49,0,0,0,.48-.51c0-.27-.22-.39-.45-.49l-.17-.07c-.3-.13-.57-.3-.57-.66a.71.71,0,0,1,.77-.66.74.74,0,0,1,.66.39Z"/><path class="cls-1" d="M70.73,27.45a.45.45,0,0,0-.42-.24.41.41,0,0,0-.43.36c0,.21.2.31.36.37l.19.08c.36.14.64.34.64.77a.82.82,0,0,1-1.63.09l.33-.07a.49.49,0,0,0,.5.49.48.48,0,0,0,.47-.51c0-.27-.22-.39-.44-.49l-.18-.07c-.29-.13-.56-.3-.56-.66a.7.7,0,0,1,.76-.66.75.75,0,0,1,.67.39Z"/><path class="cls-1" d="M74,28.25a1.36,1.36,0,0,1-2.71,0,1.36,1.36,0,0,1,2.71,0m-.32,0a1,1,0,1,0-2.06,0,1,1,0,1,0,2.06,0"/><path class="cls-1" d="M76.21,27.45a1.08,1.08,0,0,0-.68-.25,1.06,1.06,0,0,0,0,2.11,1,1,0,0,0,.69-.27v.38a1.47,1.47,0,0,1-.68.18,1.34,1.34,0,0,1-1.35-1.33,1.36,1.36,0,0,1,1.38-1.36,1.26,1.26,0,0,1,.65.17Z"/><rect class="cls-1" x="76.62" y="26.96" width="0.32" height="2.58"/><path class="cls-1" d="M77.82,28.9l-.29.65h-.35l1.24-2.7,1.23,2.7H79.3L79,28.9Zm.6-1.34-.46,1h.92Z"/><polygon class="cls-1" points="80.32 29.55 80 29.55 80 27.26 79.39 27.26 79.39 26.96 80.94 26.96 80.94 27.26 80.32 27.26 80.32 29.55"/><rect class="cls-1" x="81.21" y="26.96" width="0.32" height="2.58"/><path class="cls-1" d="M84.58,28.25a1.36,1.36,0,0,1-2.71,0,1.36,1.36,0,0,1,2.71,0m-.32,0a1,1,0,1,0-2.06,0,1,1,0,1,0,2.06,0"/><polygon class="cls-1" points="84.9 26.84 86.84 28.87 86.84 26.96 87.16 26.96 87.16 29.65 85.22 27.62 85.22 29.55 84.9 29.55 84.9 26.84"/><path class="cls-1" d="M27.61,15.35h0L24.73,8.79h-5l-3.38,7.69h0l-.93,2.11-.24.53-.06.15c1.33-.44,2.93-.94,4.76-1.45l.6-1.54.15-.39L22.12,12l1.65,4.09.27.65c1.21-.28,2.48-.56,3.82-.82ZM13,24.05h4.46l1.34-3.47c-1.57.29-3.14.6-4.69.94Zm17.25-2.64-.39-.89L29.21,19q-2,.24-4.05.54l.21.52,1.62,4h4.44Z"/><path class="cls-1" d="M10.76,21.61a162.22,162.22,0,0,1,23.86-3.83l.29-.64h0l.79-1.8c-15.25,1.92-24.93,6.27-24.93,6.27m75.39-1.07.17.39c1.8.41,2.77.68,2.77.68-1-.38-2-.73-2.94-1.07M51.74,15.62a3.8,3.8,0,0,1-.48-1.17c-3.47,0-6.79.08-9.92.32l-1,2.61c4.59-.25,9-.3,13.1-.22a4.39,4.39,0,0,1-1.69-1.54m15.08.11a4.06,4.06,0,0,1,1.68,2.36c4.5.47,8.4,1,11.55,1.59l-.49-1.2a108.84,108.84,0,0,0-12.74-2.75"/><path class="cls-1" d="M68,19.4a4.26,4.26,0,0,0,0-.63c0-.13,0-.26-.07-.38a3.62,3.62,0,0,0-2.23-2.55,10.07,10.07,0,0,0-2.55-.72l-5.2-.83c-1.06-.17-1.75-.62-1.75-1.43,0-1,1.11-1.8,2.82-1.8s3.57.21,3.83,2.2h4.59C67.14,9,62.48,8.41,59.34,8.41c-4.79,0-7.57,1.39-7.57,4.79a4,4,0,0,0,.53,2.08c.89,1.44,2.76,1.94,4.69,2.24l3.15.48.63.09a3.82,3.82,0,0,1,2.29.85,1.35,1.35,0,0,1,.29.9c0,1.33-1.32,1.91-3.27,1.91-1.79,0-3.89-.37-3.93-2.46H51.49a5.79,5.79,0,0,0,.21,1.51c1,3.36,5.1,3.73,8.38,3.73,4.12,0,6.32-1.08,7.3-2.67A4.7,4.7,0,0,0,68,19.4"/><path class="cls-1" d="M44.3,8.79h-5l-3.38,7.69h0L35,18.59l-.24.53-2.16,4.93h4.46l2-5.19.06-.15.94-2.43.15-.39L41.69,12l.82,2c1.31-.09,2.64-.15,4-.19Zm5.54,12.62-.39-.89-1.2-2.72c-1.4,0-2.79,0-4.18.09l.25.63.09.23.53,1.31,1.62,4H51Z"/><path class="cls-1" d="M70.72,19.12l-2.16,4.93H73l1.75-4.52c-1.26-.18-2.6-.35-4-.52Zm15.09,2.29-.39-.89-1.83-4.17-.44-1h0L80.27,8.79h-5L72.09,16c1.24.25,2.48.53,3.72.82l.21-.55.15-.39L77.66,12l1.66,4.09,1,2.41.09.23.53,1.31,1.62,4H87Z"/></svg>