<svg id="_01_-_iSocial_BP_OK_-_PICS" data-name="01 - iSocial BP OK - PICS" xmlns="http://www.w3.org/2000/svg" viewBox="0 0 267.46 135.62"><defs><style>.cls-1{font-size:6.5px;font-family:ExpertSans-Light, Expert Sans;letter-spacing:-0.01em;}.cls-1,.cls-9{fill:#7c7d7f;}.cls-2{fill:#f0f0f0;}.cls-3{fill:none;stroke:#e3e3e3;stroke-miterlimit:10;stroke-width:0.5px;}.cls-4{fill:#e66b54;}.cls-5{fill:#a6a8ab;fill-rule:evenodd;}.cls-6{letter-spacing:3.06em;}.cls-7{letter-spacing:2.02em;}.cls-8{letter-spacing:3.07em;}</style></defs><title>IMG - GRAPH Competitive Matrix</title><text class="cls-1" transform="translate(17.57 54.51)">iSocial<tspan x="0" y="12.8">PopTropica</tspan><tspan x="0" y="25.6">Second Life</tspan><tspan x="0" y="38.4">Minecraft</tspan><tspan x="0" y="51.2">Paper</tspan><tspan x="0" y="58.2">Curricula</tspan></text><rect class="cls-2" x="52.98" y="32.7" width="37.16" height="81.25"/><rect class="cls-2" x="91.93" y="32.7" width="37.16" height="81.25"/><rect class="cls-2" x="130.89" y="32.7" width="37.16" height="81.25"/><rect class="cls-2" x="169.84" y="32.7" width="37.16" height="81.25"/><rect class="cls-2" x="208.8" y="32.7" width="37.16" height="81.25"/><text class="cls-1" transform="translate(52.54 20.56)">3D VLEs</text><text class="cls-1" transform="translate(92.66 14.64)">Commercial <tspan x="0" y="7.8">Application</tspan></text><text class="cls-1" transform="translate(209.8 13.55)">Safe<tspan x="0" y="7.8">Environment</tspan></text><text class="cls-1" transform="translate(170.38 13.55)">Social Skill<tspan x="0" y="7.8">Curriculum</tspan></text><text class="cls-1" transform="translate(130.54 14.64)">Special Ed<tspan x="0" y="7.8">Focus</tspan></text><line class="cls-3" x1="16.53" y1="58.87" x2="244.95" y2="58.87"/><line class="cls-3" x1="16.53" y1="71.63" x2="244.95" y2="71.63"/><line class="cls-3" x1="16.53" y1="84.4" x2="244.95" y2="84.4"/><line class="cls-3" x1="16.53" y1="97.17" x2="244.95" y2="97.17"/><circle class="cls-4" cx="71.73" cy="53.03" r="3.55"/><circle class="cls-4" cx="127.4" cy="123.7" r="3.55"/><circle class="cls-4" cx="71.73" cy="78.18" r="3.55"/><circle class="cls-4" cx="110.01" cy="53.03" r="3.55"/><circle class="cls-4" cx="149.47" cy="53.03" r="3.55"/><circle class="cls-4" cx="188.07" cy="53.03" r="3.55"/><circle class="cls-4" cx="227.38" cy="53.03" r="3.55"/><circle class="cls-4" cx="110.01" cy="105.85" r="3.55"/><circle class="cls-4" cx="149.47" cy="105.85" r="3.55"/><circle class="cls-4" cx="188.07" cy="105.85" r="3.55"/><circle class="cls-4" cx="227.38" cy="105.85" r="3.55"/><circle class="cls-4" cx="227.38" cy="65.25" r="3.55"/><circle class="cls-4" cx="71.73" cy="90.62" r="3.55"/><path class="cls-5" d="M72.05,65.25l2.39-2.38a.23.23,0,1,0-.33-.33l-2.38,2.38-2.39-2.38a.22.22,0,0,0-.32,0,.22.22,0,0,0,0,.33l2.38,2.38L69,67.63A.22.22,0,0,0,69,68a.22.22,0,0,0,.32,0l2.39-2.38L74.11,68a.23.23,0,0,0,.17.07.21.21,0,0,0,.16-.07.24.24,0,0,0,0-.33Z"/><path class="cls-5" d="M72.05,106.18l2.39-2.39a.23.23,0,1,0-.33-.33l-2.38,2.39-2.39-2.39a.22.22,0,0,0-.32,0,.22.22,0,0,0,0,.33l2.38,2.39L69,108.56a.22.22,0,0,0,0,.33.22.22,0,0,0,.32,0l2.39-2.39,2.38,2.39a.28.28,0,0,0,.17.07.26.26,0,0,0,.16-.07.24.24,0,0,0,0-.33Z"/><path class="cls-5" d="M149.79,65.25l2.39-2.38a.23.23,0,0,0-.33-.33l-2.38,2.38-2.39-2.38a.23.23,0,0,0-.33.33l2.39,2.38-2.39,2.38a.24.24,0,0,0,.17.4.2.2,0,0,0,.16-.07l2.39-2.38L151.85,68A.21.21,0,0,0,152,68a.24.24,0,0,0,.17-.4Z"/><path class="cls-5" d="M188.4,65.25l2.39-2.38a.23.23,0,0,0-.33-.33l-2.39,2.38-2.38-2.38a.23.23,0,0,0-.33.33l2.39,2.38-2.39,2.38a.24.24,0,0,0,.17.4.23.23,0,0,0,.16-.07l2.38-2.38L190.46,68a.2.2,0,0,0,.16.07.24.24,0,0,0,.17-.4Z"/><path class="cls-5" d="M149.79,78.18l2.39-2.38a.23.23,0,0,0-.33-.33l-2.38,2.39-2.39-2.39a.23.23,0,0,0-.33.33l2.39,2.38-2.39,2.39a.24.24,0,0,0,0,.33.27.27,0,0,0,.17.06.23.23,0,0,0,.16-.06l2.39-2.39,2.38,2.39A.25.25,0,0,0,152,81a.27.27,0,0,0,.17-.06.24.24,0,0,0,0-.33Z"/><path class="cls-5" d="M188.4,78.18l2.39-2.38a.23.23,0,1,0-.33-.33l-2.39,2.39-2.38-2.39a.23.23,0,1,0-.33.33l2.39,2.38-2.39,2.39a.24.24,0,0,0,0,.33.27.27,0,0,0,.17.06.27.27,0,0,0,.16-.06l2.38-2.39,2.39,2.39a.23.23,0,0,0,.16.06.27.27,0,0,0,.17-.06.24.24,0,0,0,0-.33Z"/><path class="cls-5" d="M194,123.7l2.39-2.38A.23.23,0,0,0,196,121l-2.39,2.38L191.25,121a.23.23,0,1,0-.33.33l2.39,2.38-2.39,2.39a.22.22,0,0,0,0,.32.23.23,0,0,0,.17.07.21.21,0,0,0,.16-.07l2.38-2.38,2.39,2.38a.2.2,0,0,0,.16.07.23.23,0,0,0,.17-.07.22.22,0,0,0,0-.32Z"/><path class="cls-5" d="M227.7,78.18l2.39-2.38a.23.23,0,1,0-.33-.33l-2.38,2.39L225,75.47a.23.23,0,1,0-.33.33l2.39,2.38-2.39,2.39a.24.24,0,0,0,0,.33.27.27,0,0,0,.17.06.23.23,0,0,0,.16-.06l2.39-2.39,2.38,2.39a.27.27,0,0,0,.16.06.27.27,0,0,0,.17-.06.24.24,0,0,0,0-.33Z"/><path class="cls-5" d="M227.7,90.62l2.39-2.39a.23.23,0,1,0-.33-.33l-2.38,2.39L225,87.9a.23.23,0,1,0-.33.33l2.39,2.39L224.66,93a.24.24,0,0,0,0,.33.28.28,0,0,0,.17.07.24.24,0,0,0,.16-.07l2.39-2.39,2.38,2.39a.23.23,0,0,0,.33,0,.24.24,0,0,0,0-.33Z"/><text class="cls-1" transform="translate(134.09 125.84)">Full<tspan class="cls-6" x="9.46" y="0">	</tspan><tspan x="30.94" y="0">Partially</tspan><tspan class="cls-7" x="52.25" y="0">	</tspan><tspan x="67" y="0">None</tspan><tspan class="cls-8" x="81.46" y="0">	</tspan></text><path class="cls-9" d="M110,68.8a3.55,3.55,0,0,0,3.55-3.55h-7.09A3.54,3.54,0,0,0,110,68.8Z"/><path class="cls-9" d="M110,81.85a3.55,3.55,0,0,0,3.55-3.55h-7.09A3.54,3.54,0,0,0,110,81.85Z"/><path class="cls-9" d="M110,94.16a3.55,3.55,0,0,0,3.55-3.54h-7.09A3.54,3.54,0,0,0,110,94.16Z"/><path class="cls-9" d="M149.89,94.16a3.55,3.55,0,0,0,3.55-3.54h-7.1A3.55,3.55,0,0,0,149.89,94.16Z"/><path class="cls-9" d="M157,127.25a3.55,3.55,0,0,0,3.55-3.55h-7.09A3.55,3.55,0,0,0,157,127.25Z"/><path class="cls-9" d="M188,94.16a3.55,3.55,0,0,0,3.55-3.54h-7.1A3.55,3.55,0,0,0,188,94.16Z"/></svg>