<svg id="_01_-_iSocial_BP_OK" data-name="01 - iSocial BP OK" xmlns="http://www.w3.org/2000/svg" viewBox="0 0 213.55 44.73"><defs><style>.cls-1{fill:#f0b72b;}.cls-2{font-size:12.26px;font-family:JansonTextLT-Roman, JansonText LT;}</style></defs><title>IMG - LOGO Thompson Center</title><path d="M17.69,28.24c7.42,0,8.07-3.11,8.07-4v-14h-7L17.7,12.57l-1.07-2.41h-7v14c0,.94.64,4.08,8.06,4Z"/><path class="cls-1" d="M17.69,24c2.4,0,2.36-.84,2.38-1.06V21.61c0-.27-.19-.48-.53-.66V20h4.13v.93c-.34.18-.52.39-.52.67V22.8c0,.88.39,3.08-5.46,3.08s-5.43-2.2-5.45-3.08V21.61c0-.28-.18-.49-.52-.67V20h4.12V21c-.34.18-.52.39-.52.66V23c0,.22,0,1.06,2.37,1.06"/><path class="cls-1" d="M17.69,15.78l2-3.59h4v.93c-.34.19-.53.4-.53.67v2.85c0,.27.19.48.53.66v.94H19.9V17.3c.34-.19.52-.4.52-.67V14.46l-2.26,3.78h-.93L15,14.46v2.17c0,.27.19.48.53.67v.94H11.72V17.3c.34-.18.52-.39.52-.66V13.79c0-.27-.18-.48-.52-.67v-.93h4Z"/><text class="cls-2" transform="translate(34.82 19.05)">Thompson Center for Autism<tspan x="0" y="13.64">&amp; Neurodevelopment Disorders</tspan></text></svg>