<svg id="_01_-_iSocial_BP_OK_-_PICS" data-name="01 - iSocial BP OK - PICS" xmlns="http://www.w3.org/2000/svg" viewBox="0 0 92.1 37.16"><defs><style>.cls-1{fill:#7c7d7f;}</style></defs><title>IMG - LOGO American Speech Hearing</title><path class="cls-1" d="M27.5,30.6a.87.87,0,1,1,.87.89.86.86,0,0,1-.87-.89m.87,1.07a1.07,1.07,0,1,0-1.09-1.07,1.08,1.08,0,0,0,1.09,1.07m-.23-1h.22l.32.53h.21l-.35-.54a.32.32,0,0,0,.32-.34c0-.24-.15-.35-.44-.35H28v1.23h.19Zm0-.16v-.38h.25c.13,0,.27,0,.27.18s-.14.2-.3.2Z"/><path class="cls-1" d="M17.54,14.86c0-.61-.35-1-1.14-2.13a20,20,0,0,1-1.62-2.41,10.83,10.83,0,0,1-.18-3A4.22,4.22,0,0,0,14,5.16L13.94,5l-.28-.23A14.23,14.23,0,0,0,4.72,16.69h0c.31,0,.44.47.61,1.07a7,7,0,0,0,.23.69,5.46,5.46,0,0,0,.3-.79c.21-.64.35-1.06.66-1.06s.45.46.65,1.24a7.39,7.39,0,0,0,.33,1,10.72,10.72,0,0,0,.32-1.77c.19-1.37.26-1.77.58-1.77s.5.64.71,2.6A17.31,17.31,0,0,0,9.44,20a6.68,6.68,0,0,0,.2-1.89v-.22h0a.21.21,0,0,1,.21-.21.21.21,0,0,1,.22.21c0,.5,0,2.15-.38,2.55a.42.42,0,0,1-.27.12c-.4,0-.51-.64-.72-2.6-.07-.6-.16-1.43-.26-1.9-.06.3-.12.74-.17,1.09-.22,1.62-.34,2.23-.73,2.23S7,18.75,6.77,18c-.06-.26-.16-.61-.23-.81-.08.17-.17.45-.24.66-.22.67-.38,1.15-.72,1.15s-.48-.47-.65-1.07a3.66,3.66,0,0,0-.25-.71c0,.28,0,.57,0,.86a14.18,14.18,0,0,0,7,12.24s-.21-1.27-.32-2a2.3,2.3,0,0,1,.52-1.87c.63-.7,1.58-.66,2.4-1.09a2.59,2.59,0,0,0,1.39-1.75c.26-1-.91-1.35-.89-2.19,0-.49.67-.45.72-.86.08-.58-.69-.8-1.09-.92-.22-.06-.37-.23-.28-.4s1.2.14,1.76-.51c.41-.47-.1-1.94.15-2.21S17.53,16,17.54,14.86Z"/><path class="cls-1" d="M5.58,19c.34,0,.5-.48.72-1.15.07-.21.16-.49.24-.66.07.2.17.55.23.81.21.8.37,1.44.77,1.44s.51-.61.73-2.23c.05-.35.11-.79.17-1.09.1.47.19,1.3.26,1.9.21,2,.32,2.6.72,2.6a.42.42,0,0,0,.27-.12c.39-.4.39-2.05.38-2.55a.21.21,0,0,0-.22-.21.21.21,0,0,0-.21.21h0v.22A6.68,6.68,0,0,1,9.44,20a17.31,17.31,0,0,1-.31-2.09c-.21-2-.31-2.6-.71-2.6s-.39.4-.58,1.77a10.72,10.72,0,0,1-.32,1.77,7.39,7.39,0,0,1-.33-1c-.2-.78-.32-1.24-.65-1.24s-.45.42-.66,1.06a5.46,5.46,0,0,1-.3.79,5.07,5.07,0,0,1-.23-.69c-.17-.6-.3-1-.61-1.07h0l0,.48a4.52,4.52,0,0,1,.24.71c.17.6.31,1.07.65,1.07"/><path class="cls-1" d="M18.86,3.83a14.23,14.23,0,0,0-5.2,1c1,.84,2.27,1.69,2.74,2.85a9.59,9.59,0,0,1,.65,2.56A2.28,2.28,0,0,0,18.3,12c1.09.6,2.07.65,2.18,1.41.06.44-.71,1.42-.71,1.8s1.31,1.31,1.26,1.58-1.2.76-1.15,1.09,1.33.35,1.47.6c.39.65-.26,1-.21,1.31.11.76.68,1.69.21,2.5-.81,1.42-3.59.93-4.68,2.13A7.12,7.12,0,0,0,15,27.06c-.38,1.31-.68,3.41-.11,4.41.17.3,1.13.74,4.08.76a14.2,14.2,0,0,0-.09-28.4ZM32,18.26a.23.23,0,0,1-.22-.22c0-.05,0-.28-.19-.3a2.63,2.63,0,0,0-.25.84c-.12.57-.22,1-.56,1s-.43-.4-.72-2c-.07-.35-.15-.76-.22-1.07-.1.53-.22,1.44-.32,2.16s-.16,1.23-.23,1.68c-.11.67-.18.93-.43.93s-.3-.23-.41-1.15c-.07-.59-.14-1.37-.22-2.2s-.2-2.18-.31-3c-.06.67-.11,1.64-.16,2.47-.23,3.88-.33,4.25-.69,4.25s-.45-.45-.67-3.45c-.06-.71-.12-1.59-.2-2.19-.05.54-.09,1.3-.13,1.92-.14,2.55-.22,2.93-.57,2.93s-.45-.45-.73-2.36c-.09-.55-.2-1.31-.31-1.74-.06.32-.11.81-.15,1.18-.15,1.33-.24,2-.64,2s-.6-.65-.9-1.72c-.05-.18-.11-.39-.17-.56a5.67,5.67,0,0,0-.15.62.22.22,0,0,1-.25.18.22.22,0,0,1-.18-.25c.21-1.19.5-1.19.61-1.19s.33.27.56,1.09a8.15,8.15,0,0,0,.45,1.32,9.37,9.37,0,0,0,.23-1.5c.14-1.3.22-1.82.59-1.82s.45.44.74,2.36c.07.51.18,1.19.27,1.63.07-.54.13-1.44.17-2.15.14-2.55.21-2.93.56-2.93s.42.38.63,3.19c.06.85.14,1.93.24,2.57.1-.79.19-2.23.25-3.36.05-.9.1-1.74.16-2.38.09-.95.16-1.25.42-1.25s.34.19.5,1.45c.09.74.18,1.72.27,2.66.07.74.14,1.59.22,2.2.07-.45.14-1,.2-1.48.35-2.69.44-2.91.73-2.91s.41.4.66,1.8c.09.46.21,1.09.31,1.43a4.7,4.7,0,0,0,.12-.51c.13-.61.25-1.19.66-1.19a.68.68,0,0,1,.65.74A.22.22,0,0,1,32,18.26Z"/><path class="cls-1" d="M37.07,7.55h.24l.16.37c0,.07.08.2.16.37s.15.36.25.57l.3.67.29.65.25.53.15.3a.28.28,0,0,0,.23.14h.11s0,0,0,.05v.09s0,.06-.08.06H37.7l0,0s0,0,0,0v-.1a0,0,0,0,1,.05,0h.15c.19,0,.28-.06.28-.19a.69.69,0,0,0-.06-.24l-.22-.56H36.2l-.26.64a.49.49,0,0,0,0,.15c0,.13.09.2.26.2h.14a.05.05,0,0,1,.06.06v.09s0,.06,0,.06H35.1s0,0,0-.06v-.1s0,0,0,0h.12a.21.21,0,0,0,.12-.05.55.55,0,0,0,.12-.16c0-.07.1-.17.16-.3Zm0,.7-.73,1.68h1.44Z"/><path class="cls-1" d="M40.25,8.73h0l-.14,2.11a.48.48,0,0,0,0,.28.35.35,0,0,0,.24.06h.1s.06,0,.06.05v.08s0,0,0,0h-1s-.05,0-.05,0v-.08s0-.05,0-.05h.23a.09.09,0,0,0,.06,0,.23.23,0,0,0,0-.11s0-.13,0-.22,0-.24,0-.41L40,9a.4.4,0,0,0-.05-.28.29.29,0,0,0-.21-.07h-.11s0,0,0,0V8.48s0-.05.06-.05h.93a.09.09,0,0,1,.07,0,1.16,1.16,0,0,1,.06.15l.06.16.76,1.81.53-1.2.08-.17c0-.09.07-.18.11-.28l.12-.27.09-.18,0,0a.05.05,0,0,1,0,0h.9s.07,0,.07.05v.09s0,0,0,0h-.08c-.13,0-.21,0-.24.07a.35.35,0,0,0,0,.23l.15,1.93a.39.39,0,0,0,.08.26.41.41,0,0,0,.27.06s.07,0,.07.05v.09s0,0-.06,0H42.34s-.05,0-.05,0v-.09s0,0,0,0h.09c.17,0,.27,0,.31-.09a.48.48,0,0,0,0-.24V10.6L42.6,8.82h0l-.64,1.45a1.16,1.16,0,0,1-.06.16l-.09.22a1.8,1.8,0,0,0-.08.21.47.47,0,0,0-.05.14l-.09.23a.53.53,0,0,1-.06.13h-.14s0,0,0,0l-.07-.2-.07-.2Z"/><path class="cls-1" d="M44.86,10.42c0,.16,0,.3,0,.42a2.51,2.51,0,0,0,0,.3h.92a.58.58,0,0,0,.17-.05.23.23,0,0,0,.08-.11.72.72,0,0,0,0-.17v-.13a0,0,0,0,1,0,0h.1a0,0,0,0,1,0,0v.61s0,.06-.07.06H44q-.09,0-.09-.06a.28.28,0,0,1,0-.11s0,0,.08,0h.24a.12.12,0,0,0,.06-.08.39.39,0,0,0,0-.15c0-.07,0-.16,0-.27V9.13c0-.11,0-.2,0-.27a.49.49,0,0,0,0-.15.12.12,0,0,0-.07-.07.2.2,0,0,0-.11,0H44c-.06,0-.09,0-.09-.07s0-.09,0-.1,0,0,.08,0h2.19s0,0,0,0V9s0,.06,0,.06h-.08S46,9,46,9a.61.61,0,0,0,0-.24c0-.06-.08-.1-.18-.1h-.89a1.61,1.61,0,0,0,0,.26c0,.12,0,.23,0,.34v.48h.57a.62.62,0,0,0,.21,0,.32.32,0,0,0,.13-.06.24.24,0,0,0,0-.1.59.59,0,0,0,0-.13c0-.06,0-.1,0-.1H46s0,0,0,.06v.91a.05.05,0,0,1-.06.06h-.08a.05.05,0,0,1,0,0s0-.06,0-.12,0-.19-.1-.22a.85.85,0,0,0-.27,0h-.6Z"/><path class="cls-1" d="M48.77,11.36h-.05s0,0-.06-.08l-.32-.57-.22-.37L48,10.1a1.07,1.07,0,0,0-.14-.16h-.28v1a.39.39,0,0,0,0,.15.17.17,0,0,0,.06.08h.25a.07.07,0,0,1,.08.08s0,.07,0,.09,0,0-.07,0H46.67c-.05,0-.08,0-.08-.06a.22.22,0,0,1,0-.1s0,0,.07,0h.25a.17.17,0,0,0,.06-.08.39.39,0,0,0,0-.15V8.86a.39.39,0,0,0,0-.15.11.11,0,0,0-.06-.07.2.2,0,0,0-.11,0h-.14a.07.07,0,0,1-.08-.07.25.25,0,0,1,0-.1s0,0,.07,0H48.2a1.06,1.06,0,0,1,.31.05,1.13,1.13,0,0,1,.27.13.7.7,0,0,1,.2.22.73.73,0,0,1,.07.29.6.6,0,0,1-.2.48,1.12,1.12,0,0,1-.48.26l.24.35.23.35.21.3a1.31,1.31,0,0,0,.17.2.46.46,0,0,0,.1.1h.13s0,0,0,0a1.05,1.05,0,0,1,0,.12s0,0-.09,0ZM47.56,8.62c0,.1,0,.18,0,.24v.88h.28a1.55,1.55,0,0,0,.31-.07.58.58,0,0,0,.25-.19.49.49,0,0,0,.1-.34.46.46,0,0,0-.06-.25.36.36,0,0,0-.14-.16.64.64,0,0,0-.19-.08l-.2,0Z"/><path class="cls-1" d="M50.06,9.13a2.1,2.1,0,0,0,0-.27.28.28,0,0,0,0-.15A.12.12,0,0,0,50,8.64a.16.16,0,0,0-.1,0H49.7c-.05,0-.07,0-.07-.06V8.49s0-.06.07-.06H51a.07.07,0,0,1,0,.05v.08s0,0-.07,0H50.8a.18.18,0,0,0-.11,0,.12.12,0,0,0-.07.07,1,1,0,0,0,0,.15v2.06a1.57,1.57,0,0,0,0,.16.19.19,0,0,0,.07.08h.25a.06.06,0,0,1,.07.07v.06s0,0,0,0H49.7c-.05,0-.07,0-.07-.06v-.06s0-.05,0-.06H50a.19.19,0,0,0,.07-.08,1,1,0,0,0,0-.15,2.1,2.1,0,0,0,0-.27Z"/><path class="cls-1" d="M53.91,10.86s0,0,0,0l-.06.1a.78.78,0,0,1-.21.18,1.41,1.41,0,0,1-.35.19,1.38,1.38,0,0,1-.53.08,1.44,1.44,0,0,1-.64-.13,1.38,1.38,0,0,1-.47-.35,1.44,1.44,0,0,1-.28-.5,1.9,1.9,0,0,1-.09-.58,1.61,1.61,0,0,1,.12-.63,1.46,1.46,0,0,1,.35-.5,1.5,1.5,0,0,1,.55-.32,2.11,2.11,0,0,1,.73-.11h.3l.25,0a.6.6,0,0,1,.18,0l.09,0a.09.09,0,0,1,0,.07L54,9.3s0,0-.06,0h-.09s0,0,0,0,0,0,0,0a1.35,1.35,0,0,0-.18-.38.81.81,0,0,0-.22-.23.64.64,0,0,0-.24-.11l-.23,0a.89.89,0,0,0-.44.1.86.86,0,0,0-.3.27,1.18,1.18,0,0,0-.19.41,1.57,1.57,0,0,0-.07.49,1.5,1.5,0,0,0,.1.58,1.37,1.37,0,0,0,.24.43,1.1,1.1,0,0,0,.35.26.92.92,0,0,0,.39.09.75.75,0,0,0,.26,0,.73.73,0,0,0,.22-.09,1.18,1.18,0,0,0,.19-.11l.13-.12s0,0,0,0Z"/><path class="cls-1" d="M55.54,8.33h.22l.82,1.85c0,.07.07.15.12.24s.08.18.13.27l.13.24a1.06,1.06,0,0,0,.13.18l0,0,.09,0h.05s0,0,0,.05v.09s0,0,0,0H56s-.05,0-.05-.06v-.07s0-.05.05-.05h.24s.05,0,.06,0a.09.09,0,0,0,0-.07.44.44,0,0,0,0-.1.46.46,0,0,0,0-.09l-.16-.42H54.83l-.19.47a.2.2,0,0,0,0,.11.14.14,0,0,0,.05.12.28.28,0,0,0,.12,0h.1s.06,0,.06,0v.09s0,0-.05,0h-1s0,0,0,0v-.09s0-.05,0-.05H54l.11,0,.12-.12a1.21,1.21,0,0,0,.14-.22Zm0,.63-.57,1.24H56Z"/><path class="cls-1" d="M59.65,10l.09.11.09.11.11.12c.05,0,.1.1.16.16V9.12a2,2,0,0,0,0-.26.28.28,0,0,0,0-.15A.12.12,0,0,0,60,8.64a.18.18,0,0,0-.11,0h-.19a.06.06,0,0,1,0-.06c0-.05,0-.08,0-.1a.1.1,0,0,1,.07,0h1c.05,0,.07,0,.07.06a.22.22,0,0,1,0,.1s0,0-.06,0h-.15a.22.22,0,0,0-.12,0,.17.17,0,0,0-.06.08.63.63,0,0,0,0,.16,1.63,1.63,0,0,0,0,.24V11.3s0,0,0,0,0,0-.05,0h-.14a.09.09,0,0,1-.08,0l-2-2.4v2a.39.39,0,0,0,0,.15.14.14,0,0,0,.07.08l.11,0h.14s.07,0,.07.07a.22.22,0,0,1,0,.09s0,0-.06,0h-1a.08.08,0,0,1,0,0,.77.77,0,0,1,0-.1s0,0,.08,0h.13l.11,0a.19.19,0,0,0,.07-.08.28.28,0,0,0,0-.15,2.1,2.1,0,0,0,0-.27V9.12a2,2,0,0,0,0-.26.33.33,0,0,0,0-.15.11.11,0,0,0-.06-.07.22.22,0,0,0-.12,0h-.13c-.06,0-.09,0-.09-.07a.58.58,0,0,1,0-.1s0,0,0,0h.88a.1.1,0,0,1,.08,0,.86.86,0,0,1,.07.1l.18.22Z"/><path class="cls-1" d="M37.24,13.82a1.71,1.71,0,0,0-.08-.29.53.53,0,0,0-.13-.19.64.64,0,0,0-.22-.1,1.35,1.35,0,0,0-.31,0,.73.73,0,0,0-.3.06.72.72,0,0,0-.24.14.57.57,0,0,0-.16.22.67.67,0,0,0-.06.28.55.55,0,0,0,.19.42,2.63,2.63,0,0,0,.69.41,3.51,3.51,0,0,1,.48.25,2.36,2.36,0,0,1,.33.25,1.06,1.06,0,0,1,.18.27.81.81,0,0,1,0,.31.92.92,0,0,1-.1.44,1,1,0,0,1-.3.34,1.31,1.31,0,0,1-.46.22,2,2,0,0,1-.58.08H36l-.25,0-.25-.06a2.63,2.63,0,0,1-.3-.1v-.9s0,0,0,0h.11s0,0,.05.06a1.64,1.64,0,0,1,0,.18c0,.24.08.39.16.44a1.31,1.31,0,0,0,.36.16,1.27,1.27,0,0,0,.36.07.93.93,0,0,0,.34-.06.72.72,0,0,0,.26-.14.51.51,0,0,0,.17-.21.59.59,0,0,0-.14-.7,3.06,3.06,0,0,0-.7-.41L35.86,15a1.85,1.85,0,0,1-.33-.21,1.3,1.3,0,0,1-.26-.31.76.76,0,0,1-.1-.41.94.94,0,0,1,.1-.43,1.07,1.07,0,0,1,.3-.34,1.59,1.59,0,0,1,.45-.23,2.07,2.07,0,0,1,.57-.08h.22l.23,0,.22,0a1,1,0,0,1,.2.05V14s0,0-.07,0h-.08s0,0,0,0,0,0,0-.09Z"/><path class="cls-1" d="M38.94,15.54v.59c0,.11,0,.2,0,.27a.33.33,0,0,0,0,.15.16.16,0,0,0,.07.07l.11,0h.13c.06,0,.09,0,.09.07s0,.08,0,.1,0,0-.08,0H38a.07.07,0,0,1,0-.05.28.28,0,0,1,0-.11.1.1,0,0,1,.07,0h.13l.12,0a.12.12,0,0,0,.06-.08.38.38,0,0,0,0-.16c0-.07,0-.15,0-.25V14.59c0-.11,0-.2,0-.26a.57.57,0,0,0,0-.16.23.23,0,0,0-.07-.07l-.11,0h-.13c-.06,0-.08,0-.08-.07s0-.08,0-.09,0,0,.07,0H39.6A1,1,0,0,1,40,14a.71.71,0,0,1,.29.18.64.64,0,0,1,.18.25.67.67,0,0,1,.06.28.62.62,0,0,1-.06.26.91.91,0,0,1-.13.22.83.83,0,0,1-.22.2,1,1,0,0,1-.27.11,1,1,0,0,1-.29,0l-.28,0Zm0-.21h.45a.6.6,0,0,0,.31-.1A.6.6,0,0,0,40,14.7a.58.58,0,0,0-.1-.37.64.64,0,0,0-.27-.18,1.21,1.21,0,0,0-.34-.05h-.32Z"/><path class="cls-1" d="M41.55,15.89c0,.16,0,.3,0,.41a2.69,2.69,0,0,0,0,.31h.65l.27,0a.29.29,0,0,0,.17-.05.2.2,0,0,0,.08-.1.74.74,0,0,0,0-.18v-.13s0,0,0,0h.1s.05,0,.05,0v.62s0,.06-.07.06h-2.2q-.09,0-.09-.06a.25.25,0,0,1,0-.11s0,0,.08,0h.13l.11,0a.11.11,0,0,0,.06-.07.54.54,0,0,0,0-.15c0-.07,0-.16,0-.27V14.6c0-.11,0-.2,0-.27a.57.57,0,0,0,0-.16.23.23,0,0,0-.07-.07l-.11,0h-.13c-.06,0-.09,0-.09-.07a.25.25,0,0,1,0-.1s0,0,.08,0h2.19s0,0,0,0v.52s0,.07-.05.07h-.08s-.06,0-.06-.09a.59.59,0,0,0,0-.23c0-.07-.08-.1-.18-.1h-.89a1.51,1.51,0,0,0,0,.26c0,.11,0,.23,0,.34v.48h.57l.21,0a.32.32,0,0,0,.13-.07.19.19,0,0,0,0-.1.51.51,0,0,0,0-.13q0-.09,0-.09h.11s0,0,0,.06v.91a.05.05,0,0,1-.06.06h-.08s0,0,0,0a.8.8,0,0,1,0-.11c0-.12,0-.2-.1-.22a.64.64,0,0,0-.27,0h-.6Z"/><path class="cls-1" d="M44.32,15.89c0,.16,0,.3,0,.41a2.69,2.69,0,0,0,0,.31H45l.27,0a.29.29,0,0,0,.17-.05.2.2,0,0,0,.08-.1.74.74,0,0,0,0-.18v-.13s0,0,0,0h.1s0,0,0,0v.62s0,.06-.07.06h-2.2q-.09,0-.09-.06a.8.8,0,0,1,0-.11s0,0,.08,0h.13l.11,0a.11.11,0,0,0,.06-.07.54.54,0,0,0,0-.15c0-.07,0-.16,0-.27V14.6c0-.11,0-.2,0-.27a.35.35,0,0,0,0-.16.23.23,0,0,0-.07-.07l-.11,0h-.13c-.06,0-.09,0-.09-.07s0-.08,0-.1,0,0,.08,0h2.19s0,0,0,0v.52s0,.07,0,.07h-.08s-.06,0-.06-.09a.85.85,0,0,0,0-.23c0-.07-.09-.1-.19-.1h-.89a1.51,1.51,0,0,0,0,.26c0,.11,0,.23,0,.34v.48h.57l.21,0a.32.32,0,0,0,.13-.07.19.19,0,0,0,.05-.1.51.51,0,0,0,0-.13q0-.09,0-.09h.12s0,0,0,.06v.91s0,.06,0,.06h-.09s0,0,0,0a.8.8,0,0,1,0-.11c0-.12,0-.2-.1-.22a.62.62,0,0,0-.26,0h-.61Z"/><path class="cls-1" d="M48.63,16.33l0,0s0,0-.07.1a.93.93,0,0,1-.2.19,1.27,1.27,0,0,1-.35.18,1.4,1.4,0,0,1-.53.09,1.64,1.64,0,0,1-.65-.13,1.48,1.48,0,0,1-.46-.35,1.46,1.46,0,0,1-.28-.5,1.69,1.69,0,0,1-.1-.58,1.5,1.5,0,0,1,.13-.64,1.23,1.23,0,0,1,.35-.49,1.58,1.58,0,0,1,.55-.33,2.31,2.31,0,0,1,.72-.11l.3,0,.26,0,.18,0,.08,0a.05.05,0,0,1,0,.06l0,.79s0,.06,0,.06h-.09s0,0,0,0,0,0,0,0a1.28,1.28,0,0,0-.17-.37,1,1,0,0,0-.22-.24.86.86,0,0,0-.24-.11l-.24,0a1,1,0,0,0-.43.1,1,1,0,0,0-.31.28,1.64,1.64,0,0,0-.19.4,2,2,0,0,0-.06.49,1.78,1.78,0,0,0,.09.59,1.42,1.42,0,0,0,.25.42,1.07,1.07,0,0,0,.34.27.93.93,0,0,0,.4.09,1.17,1.17,0,0,0,.26,0l.22-.09.18-.12.14-.11s0,0,0,0Z"/><path class="cls-1" d="M49.94,15.14h1.53v-.81a1.57,1.57,0,0,0,0-.16.15.15,0,0,0-.07-.07l-.11,0h-.2s0,0,0-.06v-.09s0,0,.07,0h1.23c.06,0,.08,0,.08.06a.25.25,0,0,1,0,.11s0,0-.07,0h-.14l-.1,0a.23.23,0,0,0-.07.07,1.57,1.57,0,0,0,0,.16,1.86,1.86,0,0,0,0,.26v1.54a2.1,2.1,0,0,0,0,.27.33.33,0,0,0,0,.15.22.22,0,0,0,.06.07l.11,0h.14c.06,0,.08,0,.08.07a.25.25,0,0,1,0,.1s0,0-.07,0H51.06a.07.07,0,0,1,0-.05v-.11a.1.1,0,0,1,.07,0h.14l.11,0a.11.11,0,0,0,.06-.07.31.31,0,0,0,0-.15,1.94,1.94,0,0,0,0-.27v-.72H49.94v1l0,.15a.16.16,0,0,0,.07.07l.11,0h.14c.05,0,.08,0,.08.07a.25.25,0,0,1,0,.1.1.1,0,0,1-.07,0H49a.43.43,0,0,1,0-.05,1,1,0,0,1,0-.11.1.1,0,0,1,.07,0h.14l.11,0a.11.11,0,0,0,.06-.07.35.35,0,0,0,0-.16,1.86,1.86,0,0,0,0-.26V14.59a1.86,1.86,0,0,0,0-.26.35.35,0,0,0,0-.16.23.23,0,0,0-.07-.07l-.1,0h-.14c-.05,0-.08,0-.08-.07a.55.55,0,0,1,0-.09s0,0,.07,0h1.23a.1.1,0,0,1,.07,0s0,0,0,0a.25.25,0,0,1,0,.11s0,0-.07,0h-.14l-.11,0a.13.13,0,0,0-.06.07.35.35,0,0,0,0,.16,1.86,1.86,0,0,0,0,.26Z"/><path class="cls-1" d="M52.66,15.39s0-.05,0-.05h1.71s0,0,0,0v.28s0,0,0,0H52.7s0,0,0,0Z"/><path class="cls-1" d="M55.87,16.59h.18l.69,0,.41,0a.64.64,0,0,0,.21-.05.2.2,0,0,0,.09-.09.4.4,0,0,0,.07-.21,2.68,2.68,0,0,0,0-.34c0-.06,0-.09,0-.09h.11a0,0,0,0,1,0,0v1s0,0,0,0h-3s0,0,0,0v-.12s0-.05.07-.06h.1a.94.94,0,0,0,.26,0,.2.2,0,0,0,.15-.09.37.37,0,0,0,.07-.21c0-.09,0-.21,0-.37V14a2.87,2.87,0,0,0,0-.35.34.34,0,0,0-.07-.2.2.2,0,0,0-.15-.09,1,1,0,0,0-.27,0H54.7s0,0,0,0v-.14s0,0,0,0h1.72s.06,0,.06,0v.12a.05.05,0,0,1,0,0h-.08l-.29,0a.24.24,0,0,0-.15.1.45.45,0,0,0-.07.23c0,.1,0,.24,0,.42Z"/><path class="cls-1" d="M59.74,13.8H60l.82,1.84.11.25c0,.09.09.18.13.26l.14.25.13.18.05,0a.14.14,0,0,0,.09,0h0s.06,0,.06.05v.09s0,0-.06,0H60.22a.05.05,0,0,1-.06-.06V16.7a.05.05,0,0,1,.06-.06h.17l.07,0,.06,0a.06.06,0,0,0,0-.06.36.36,0,0,0,0-.1l0-.1-.16-.41H59l-.2.46a.52.52,0,0,0,0,.11.14.14,0,0,0,.06.13.27.27,0,0,0,.12,0h.1s0,0,0,.05v.09s0,0,0,0h-1a0,0,0,0,1,0,0v-.09s0-.05,0-.05h.08a.14.14,0,0,0,.1,0,.58.58,0,0,0,.13-.11.94.94,0,0,0,.13-.23Zm0,.63-.57,1.24h1.11Z"/><path class="cls-1" d="M63.84,15.46l.1.11.09.1.11.12.16.17V14.59a1.86,1.86,0,0,0,0-.26.35.35,0,0,0,0-.16l-.07-.07-.11,0h-.19s0,0,0-.06a.55.55,0,0,1,0-.09s0,0,.07,0h1c.06,0,.08,0,.08.06a.28.28,0,0,1,0,.11s0,0-.07,0h-.14a.21.21,0,0,0-.12,0,.1.1,0,0,0-.06.08s0,.09,0,.15v2.43a.08.08,0,0,1,0,0s0,0,0,0h-.14a.09.09,0,0,1-.08,0l-2-2.41v2a.54.54,0,0,0,0,.15.14.14,0,0,0,.06.07l.12,0h.13c.06,0,.08,0,.08.07a.25.25,0,0,1,0,.1.1.1,0,0,1-.07,0h-1a.1.1,0,0,1-.07,0,.05.05,0,0,1,0,0,1,1,0,0,1,0-.11s0,0,.08,0h.13l.11,0a.16.16,0,0,0,.07-.07.57.57,0,0,0,0-.15c0-.07,0-.16,0-.27V14.59c0-.11,0-.2,0-.26a.28.28,0,0,0,0-.15.17.17,0,0,0-.06-.08l-.12,0h-.13c-.06,0-.09,0-.09-.07a.25.25,0,0,1,0-.1s0,0,.05,0h.88s.05,0,.08,0l.07.09.18.23Z"/><path class="cls-1" d="M67.94,16.72a2.94,2.94,0,0,1-.69.16l-.47,0a2,2,0,0,1-.79-.14,1.48,1.48,0,0,1-.5-.37,1.26,1.26,0,0,1-.25-.47,1.86,1.86,0,0,1-.08-.5,1.8,1.8,0,0,1,.17-.76,1.44,1.44,0,0,1,.5-.57,2.15,2.15,0,0,1,.48-.22A2.59,2.59,0,0,1,67,13.8a3.44,3.44,0,0,1,.46,0,2.37,2.37,0,0,1,.46.11v.79s0,0,0,0h-.12s0,0,0-.1a.74.74,0,0,0-.08-.22.87.87,0,0,0-.17-.22,1,1,0,0,0-.26-.16.89.89,0,0,0-.34-.07,1,1,0,0,0-.43.11,1,1,0,0,0-.35.28,1.44,1.44,0,0,0-.24.42,1.55,1.55,0,0,0-.09.53,1.9,1.9,0,0,0,.07.46,1.35,1.35,0,0,0,.2.44,1.29,1.29,0,0,0,.36.34,1.13,1.13,0,0,0,.54.12,1.06,1.06,0,0,0,.27,0l.19-.05c0-.11,0-.19,0-.25a.86.86,0,0,0,0-.15v-.36a.27.27,0,0,0,0-.15.18.18,0,0,0-.09-.08l-.12,0H67s0,0,0,0v-.1s0-.05.07-.05h1.24s0,0,0,.05v.1s0,0,0,0h-.09l-.18,0a.14.14,0,0,0-.09.15Z"/><path class="cls-1" d="M71.48,14.09l-.12,0a.12.12,0,0,0-.06.08.35.35,0,0,0,0,.16,1.78,1.78,0,0,0,0,.25v1.12a1.23,1.23,0,0,1-.3.89,1.16,1.16,0,0,1-.85.3,1.54,1.54,0,0,1-.43-.06,1.06,1.06,0,0,1-.37-.18,1.09,1.09,0,0,1-.27-.33,1.24,1.24,0,0,1-.1-.5V14.33a1.3,1.3,0,0,0,0-.15.16.16,0,0,0-.07-.07l-.11,0h-.14s-.07,0-.07-.07V14s0-.06.07-.06h1.24l.06,0a.05.05,0,0,1,0,0V14s0,.05-.08.05h-.15a.16.16,0,0,0-.1,0,.13.13,0,0,0-.07.06,1.57,1.57,0,0,0,0,.16,1.94,1.94,0,0,0,0,.27v1.23a.91.91,0,0,0,.07.39.73.73,0,0,0,.17.27.8.8,0,0,0,.52.2.66.66,0,0,0,.44-.14,1,1,0,0,0,.23-.33,1.58,1.58,0,0,0,.09-.36c0-.12,0-.2,0-.25v-1a2.1,2.1,0,0,0,0-.27.49.49,0,0,0,0-.15.12.12,0,0,0-.07-.07.2.2,0,0,0-.11,0h-.14s-.07,0-.07-.06V14s0-.06.07-.06h1a.1.1,0,0,1,.07,0s0,0,0,0V14s0,.05-.08.05Z"/><path class="cls-1" d="M73.07,13.8h.22l.83,1.84.11.25a2.1,2.1,0,0,0,.13.26l.14.25a1.4,1.4,0,0,0,.13.18l.05,0a.12.12,0,0,0,.09,0h0s.06,0,.06.05v.09s0,0-.06,0H73.55s0,0,0-.06V16.7s0-.06,0-.06h.17l.08,0,.06,0a.08.08,0,0,0,0-.06.34.34,0,0,0,0-.1l0-.1-.16-.41H72.36l-.19.46a.52.52,0,0,0,0,.11.14.14,0,0,0,.06.13l.12,0h.09s.06,0,.06.05v.09s0,0,0,0h-1a0,0,0,0,1,0,0v-.09s0-.05,0-.05h.09a.16.16,0,0,0,.1,0,.4.4,0,0,0,.12-.11.92.92,0,0,0,.14-.23Zm0,.63-.57,1.24h1.11Z"/><path class="cls-1" d="M77.56,16.72a3,3,0,0,1-.7.16l-.46,0a2,2,0,0,1-.8-.14,1.44,1.44,0,0,1-.49-.37,1.15,1.15,0,0,1-.26-.47,1.86,1.86,0,0,1-.08-.5,1.8,1.8,0,0,1,.17-.76,1.44,1.44,0,0,1,.5-.57,2.38,2.38,0,0,1,.48-.22,2.59,2.59,0,0,1,.68-.08,3.71,3.71,0,0,1,.47,0,2.46,2.46,0,0,1,.45.11v.79s0,0,0,0h-.12s0,0,0-.1a.74.74,0,0,0-.08-.22.87.87,0,0,0-.17-.22,1,1,0,0,0-.26-.16.88.88,0,0,0-.33-.07,1,1,0,0,0-.44.11,1,1,0,0,0-.35.28,1.44,1.44,0,0,0-.24.42,1.55,1.55,0,0,0-.08.53,1.88,1.88,0,0,0,.06.46,1.35,1.35,0,0,0,.2.44,1.2,1.2,0,0,0,.37.34,1.07,1.07,0,0,0,.53.12,1.19,1.19,0,0,0,.28,0l.19-.05v-.25a.86.86,0,0,0,0-.15v-.36a.21.21,0,0,0,0-.15.18.18,0,0,0-.09-.08l-.12,0h-.19s0,0,0,0v-.1s0-.05.08-.05h1.23s.06,0,.06.05v.1s0,0,0,0h-.09l-.18,0c-.06,0-.08.07-.08.15Z"/><path class="cls-1" d="M79.12,15.89c0,.16,0,.3,0,.41a2.69,2.69,0,0,0,0,.31h.65l.27,0a.29.29,0,0,0,.17-.05.14.14,0,0,0,.07-.1.44.44,0,0,0,0-.18c0-.07,0-.11,0-.13s0,0,0,0h.1s0,0,0,0v.62s0,.06-.07.06H78.24s-.08,0-.08-.06a.25.25,0,0,1,0-.11.1.1,0,0,1,.07,0h.14l.11,0a.11.11,0,0,0,.06-.07.33.33,0,0,0,0-.15,2.1,2.1,0,0,0,0-.27v-1.8a1.57,1.57,0,0,0,0-.16.23.23,0,0,0-.07-.07l-.11,0h-.14s-.08,0-.08-.07a.25.25,0,0,1,0-.1.1.1,0,0,1,.07,0h2.2s0,0,0,0v.52s0,.07,0,.07h-.08s-.06,0-.06-.09a.59.59,0,0,0,0-.23c0-.07-.08-.1-.18-.1h-.89a1.51,1.51,0,0,0,0,.26c0,.11,0,.23,0,.34v.48h.56l.22,0a.32.32,0,0,0,.13-.07.31.31,0,0,0,0-.1.53.53,0,0,0,0-.13c0-.06,0-.09,0-.09h.11s0,0,0,.06v.91a.05.05,0,0,1-.06.06h-.08s0,0,0,0a.8.8,0,0,1,0-.11c0-.12,0-.2-.1-.22a.64.64,0,0,0-.27,0h-.6Z"/><path class="cls-1" d="M80.75,15.39s0-.05,0-.05h1.7s.05,0,.05,0v.28s0,0-.05,0h-1.7s0,0,0,0Z"/><path class="cls-1" d="M35,22.13s0,0,0,0h.37a.19.19,0,0,0,.1,0c.06,0,.08-.19.08-.47V19.67c0-.29,0-.5,0-.62a.44.44,0,0,0-.06-.24.23.23,0,0,0-.11,0l-.23,0h-.15s0,0,0,0v-.1s0,0,0,0H36.7s0,0,0,0v.11a.05.05,0,0,1,0,0h-.34c-.06,0-.11,0-.13,0l0,.06a.81.81,0,0,0,0,.11c0,.05,0,.1,0,.17a1.93,1.93,0,0,0,0,.26v.77h2v-.76a3.47,3.47,0,0,0,0-.38.43.43,0,0,0-.06-.2.22.22,0,0,0-.15-.08h-.34a.05.05,0,0,1,0,0v-.12s0,0,0,0h1.6s.07,0,.07,0v.12s0,.05-.07.05h-.29a.28.28,0,0,0-.15.08.53.53,0,0,0-.06.22c0,.11,0,.25,0,.43v2.1a1.61,1.61,0,0,0,0,.26.34.34,0,0,0,.06.15.26.26,0,0,0,.14.06l.23,0h.11s0,0,0,0v.11s0,.06,0,.06H37.55s0,0,0,0v-.11a0,0,0,0,1,0-.05H38a.2.2,0,0,0,.12-.08.8.8,0,0,0,0-.22c0-.1,0-.24,0-.42v-.88h-2v.81c0,.2,0,.35,0,.46a.42.42,0,0,0,.06.23.2.2,0,0,0,.15.09h.29s.07,0,.07.06v.1s0,.05,0,.05H35.07s0,0,0,0Z"/><path class="cls-1" d="M40.45,21.35c0,.16,0,.3,0,.42s0,.22,0,.3h.93a.5.5,0,0,0,.16,0,.18.18,0,0,0,.08-.11.72.72,0,0,0,0-.17V21.6s0,0,0,0h.09s.05,0,.05.05v.62s0,.05-.07.05h-2.2c-.06,0-.09,0-.09-.05a1.05,1.05,0,0,1,0-.12h.21l.11,0a.19.19,0,0,0,.07-.08,1,1,0,0,0,0-.15,2,2,0,0,0,0-.27V20.06a2.1,2.1,0,0,0,0-.27.31.31,0,0,0,0-.15.12.12,0,0,0-.07-.07.18.18,0,0,0-.11,0h-.13c-.06,0-.09,0-.09-.07a.58.58,0,0,1,0-.1l.08,0h2.2v.57s0,.06-.05.06h-.07s-.06,0-.06-.08a.86.86,0,0,0,0-.24.19.19,0,0,0-.19-.1h-.89c0,.06,0,.15,0,.26s0,.23,0,.34v.48H41a.72.72,0,0,0,.22,0,.34.34,0,0,0,.12-.06.21.21,0,0,0,.06-.1s0-.09,0-.13,0-.09,0-.09h.12a0,0,0,0,1,0,0v.91a.05.05,0,0,1-.06.06h-.09l0,0a.75.75,0,0,0,0-.12c0-.12,0-.19-.1-.22a.78.78,0,0,0-.26,0h-.61Z"/><path class="cls-1" d="M43.53,19.26h.22l.83,1.85.11.24c0,.09.08.18.13.27a1.88,1.88,0,0,0,.14.24.7.7,0,0,0,.13.18l0,0a.11.11,0,0,0,.08,0h.05s.06,0,.06.05v.09s0,0-.06,0H44a0,0,0,0,1,0-.05v-.08s0-.05,0-.05h.24l.07,0a.14.14,0,0,0,0-.07.38.38,0,0,0,0-.1.92.92,0,0,1,0-.09l-.17-.42H42.82l-.19.47a.36.36,0,0,0,0,.11.12.12,0,0,0,.06.12.3.3,0,0,0,.11,0h.1s.06,0,.06,0v.09s0,.05,0,.05h-1s0,0,0,0v-.09s0-.05,0-.05H42l.1,0a.68.68,0,0,0,.12-.12.84.84,0,0,0,.14-.22Zm0,.63-.57,1.24H44Z"/><path class="cls-1" d="M47.46,22.29h-.05s0,0-.06-.08q-.21-.35-.33-.57c-.08-.15-.16-.27-.21-.37s-.11-.17-.16-.23-.09-.11-.13-.16h-.29v.72a2.1,2.1,0,0,0,0,.27.28.28,0,0,0,0,.15.28.28,0,0,0,.06.08l.12,0h.13c.05,0,.08,0,.08.07a.2.2,0,0,1,0,.09s0,0-.07,0H45.35c-.05,0-.08,0-.08-.06a.22.22,0,0,1,0-.1s0,0,.07,0h.14l.11,0a.19.19,0,0,0,.07-.08,1,1,0,0,0,0-.15c0-.07,0-.16,0-.27V20.05c0-.1,0-.19,0-.26a1,1,0,0,0,0-.15.12.12,0,0,0-.07-.07.2.2,0,0,0-.11,0h-.14a.07.07,0,0,1-.08-.07.25.25,0,0,1,0-.1.1.1,0,0,1,.07,0h1.54a1,1,0,0,1,.3.05,1,1,0,0,1,.28.13.79.79,0,0,1,.19.22.68.68,0,0,1-.12.77,1.12,1.12,0,0,1-.48.26c.07.12.15.23.23.35s.16.24.24.35.14.21.21.3a1.37,1.37,0,0,0,.16.2.47.47,0,0,0,.11.1l.09,0h0s0,0,0,0,0,.11,0,.12,0,0-.08,0Zm-1.22-2.74a1.63,1.63,0,0,1,0,.24v.88h.29a1,1,0,0,0,.3-.07.58.58,0,0,0,.25-.19.49.49,0,0,0,.1-.34.58.58,0,0,0-.05-.25.46.46,0,0,0-.15-.16.54.54,0,0,0-.19-.08l-.2,0Z"/><path class="cls-1" d="M48.74,20.06v-.27a.46.46,0,0,0,0-.15.11.11,0,0,0-.06-.07.2.2,0,0,0-.11,0h-.14c-.06,0-.08,0-.08-.06v-.07s0-.06.08-.06h1.29a.08.08,0,0,1,0,.05v.08s0,.05-.08.05h-.14a.18.18,0,0,0-.11,0,.11.11,0,0,0-.06.07.46.46,0,0,0,0,.15v2.06a.53.53,0,0,0,0,.16.17.17,0,0,0,.06.08h.25a.07.07,0,0,1,.08.07v.06a.06.06,0,0,1,0,.05h-1.3c-.05,0-.07,0-.07-.06v-.06s0-.05,0-.06h.32A.28.28,0,0,0,48.7,22a.43.43,0,0,0,0-.15,2.1,2.1,0,0,0,0-.27Z"/><path class="cls-1" d="M52.25,20.92l.1.11a.87.87,0,0,0,.09.11l.11.12.16.16V20.05a2,2,0,0,0,0-.26.28.28,0,0,0,0-.15.12.12,0,0,0-.07-.07.2.2,0,0,0-.11,0H52.3a.06.06,0,0,1,0-.06c0-.05,0-.08,0-.1a.1.1,0,0,1,.07,0h1c.06,0,.08,0,.08.06a.31.31,0,0,1,0,.11s0,0-.07,0h-.14l-.12,0a.12.12,0,0,0-.06.08,1.57,1.57,0,0,0,0,.16v2.43s0,0,0,0,0,0,0,0h-.14a.09.09,0,0,1-.08,0l-2-2.4v2a.39.39,0,0,0,0,.15.12.12,0,0,0,.06.08l.12,0H51s.08,0,.08.07a.2.2,0,0,1,0,.09s0,0-.07,0H50a.08.08,0,0,1,0,0,.25.25,0,0,1,0-.11s0,0,.08,0h.13l.11,0a.19.19,0,0,0,.07-.08.43.43,0,0,0,0-.15c0-.06,0-.16,0-.27V20.05c0-.1,0-.19,0-.25a.35.35,0,0,0,0-.16.14.14,0,0,0-.06-.07.22.22,0,0,0-.12,0h-.13c-.06,0-.09,0-.09-.07s0-.09,0-.1,0,0,0,0h.88a.1.1,0,0,1,.08,0l.07.1.18.22Z"/><path class="cls-1" d="M56.36,22.19a4.74,4.74,0,0,1-.69.16l-.47,0a1.82,1.82,0,0,1-.79-.15,1.5,1.5,0,0,1-.5-.36,1.41,1.41,0,0,1-.26-.48,1.76,1.76,0,0,1-.07-.49,1.63,1.63,0,0,1,.17-.76,1.26,1.26,0,0,1,.5-.57,1.86,1.86,0,0,1,.47-.22,2.26,2.26,0,0,1,.69-.09,2.38,2.38,0,0,1,.46,0,1.74,1.74,0,0,1,.45.11v.79s0,.05,0,.05h-.09l0,0s0,0,0-.09a.55.55,0,0,0-.07-.23.88.88,0,0,0-.18-.21.68.68,0,0,0-.26-.16.72.72,0,0,0-.33-.07.91.91,0,0,0-.43.1,1.09,1.09,0,0,0-.36.28,1.76,1.76,0,0,0-.23.43,1.51,1.51,0,0,0-.09.53,1.56,1.56,0,0,0,.07.46,1.35,1.35,0,0,0,.2.44,1.15,1.15,0,0,0,.36.33,1,1,0,0,0,.53.13,1.09,1.09,0,0,0,.28,0l.19-.05c0-.1,0-.18,0-.24v-.52a.33.33,0,0,0,0-.15.28.28,0,0,0-.09-.07l-.12,0h-.19s0,0,0,0v-.1s0,0,.07,0h1.24s0,0,0,0V21s0,0,0,0h-.08a.48.48,0,0,0-.18,0q-.09,0-.09.15Z"/><path class="cls-1" d="M37.07,23.94h.24l.16.37c0,.08.08.2.16.37s.15.36.25.57.19.44.3.67.2.45.29.66.18.38.25.53a3.21,3.21,0,0,0,.15.29.26.26,0,0,0,.23.14.2.2,0,0,1,.11,0,.05.05,0,0,1,0,.05v.08s0,.06-.08.06H37.7l0,0a.07.07,0,0,1,0,0V27.6s0-.06.05-.06h.15c.19,0,.28-.06.28-.18a.69.69,0,0,0-.06-.24l-.22-.56H36.2l-.26.64a.49.49,0,0,0,0,.15c0,.13.09.19.26.19h.14s.06,0,.06.07v.09s0,.05,0,.05H35.1s0,0,0-.07V27.6s0-.06,0-.06h.12a.34.34,0,0,0,.12-.06.49.49,0,0,0,.12-.15c0-.07.1-.18.16-.31Zm0,.71-.73,1.67h1.44Z"/><path class="cls-1" d="M39.6,26.93a.11.11,0,0,1,.06,0,.38.38,0,0,1,0,.13.54.54,0,0,0,0,.22l.06.09a.85.85,0,0,0,.21.14,1,1,0,0,0,.19.08l.16,0h.09a.61.61,0,0,0,.28-.05.52.52,0,0,0,.19-.12A.48.48,0,0,0,41,27.3a.39.39,0,0,0,0-.18.45.45,0,0,0-.15-.32,1.46,1.46,0,0,0-.53-.29A3.09,3.09,0,0,1,40,26.3a1.23,1.23,0,0,1-.27-.22.69.69,0,0,1-.15-.24.75.75,0,0,1,0-.26.7.7,0,0,1,.09-.35.87.87,0,0,1,.24-.27,1.33,1.33,0,0,1,.38-.17,1.43,1.43,0,0,1,.48-.07h.14l.18,0,.2,0,.18.05v.63a.1.1,0,0,1,0,.07h-.15s0,0,0-.05,0-.07,0-.12,0-.09,0-.13a.41.41,0,0,0,0-.09.23.23,0,0,0-.09-.11L40.87,25a.53.53,0,0,0-.17,0l-.13,0a.57.57,0,0,0-.42.16.52.52,0,0,0-.16.37.4.4,0,0,0,0,.15.44.44,0,0,0,.1.15,1.15,1.15,0,0,0,.2.15,2.2,2.2,0,0,0,.34.16l.28.14a1.45,1.45,0,0,1,.29.19,1.18,1.18,0,0,1,.23.27.62.62,0,0,1,.09.34.66.66,0,0,1-.1.37.92.92,0,0,1-.26.26,1.28,1.28,0,0,1-.38.16,1.68,1.68,0,0,1-.45.05,2.28,2.28,0,0,1-.45,0,1.71,1.71,0,0,1-.44-.13V27c0-.06,0-.08.05-.08Z"/><path class="cls-1" d="M41.91,26.93,42,27a.23.23,0,0,1,0,.13.39.39,0,0,0,0,.22l.05.09a.85.85,0,0,0,.21.14,1.32,1.32,0,0,0,.19.08l.16,0h.09a.61.61,0,0,0,.28-.05.56.56,0,0,0,.2-.12.45.45,0,0,0,.11-.17.39.39,0,0,0,0-.18.49.49,0,0,0-.14-.32,1.66,1.66,0,0,0-.53-.29,3.27,3.27,0,0,1-.42-.21,1.23,1.23,0,0,1-.27-.22.69.69,0,0,1-.15-.24,1.09,1.09,0,0,1,0-.26.7.7,0,0,1,.09-.35.91.91,0,0,1,.25-.27,1.26,1.26,0,0,1,.37-.17,1.51,1.51,0,0,1,.48-.07h.14l.18,0,.2,0,.18.05v.63s0,.06,0,.07h-.15s0,0,0-.05a1,1,0,0,1,0-.12.51.51,0,0,0,0-.13.78.78,0,0,0,0-.09.26.26,0,0,0-.1-.11L43.17,25a.47.47,0,0,0-.16,0l-.14,0a.53.53,0,0,0-.41.16.49.49,0,0,0-.16.37.77.77,0,0,0,0,.15.44.44,0,0,0,.1.15,1,1,0,0,0,.21.15,1.7,1.7,0,0,0,.33.16l.29.14a1.81,1.81,0,0,1,.29.19,1.13,1.13,0,0,1,.22.27.55.55,0,0,1,.1.34.67.67,0,0,1-.11.37.81.81,0,0,1-.26.26,1.18,1.18,0,0,1-.38.16,1.61,1.61,0,0,1-.44.05,2.45,2.45,0,0,1-.46,0,1.71,1.71,0,0,1-.44-.13V27c0-.06,0-.08,0-.08Z"/><path class="cls-1" d="M45.57,27.84a1.54,1.54,0,0,1-.63-.12,1.41,1.41,0,0,1-.45-.34,1.37,1.37,0,0,1-.27-.49,1.79,1.79,0,0,1-.09-.57,1.6,1.6,0,0,1,.13-.67,1.43,1.43,0,0,1,.34-.5,1.45,1.45,0,0,1,.51-.31,1.59,1.59,0,0,1,.62-.11,1.48,1.48,0,0,1,.61.12,1.4,1.4,0,0,1,.75.81,1.87,1.87,0,0,1,.1.59,1.61,1.61,0,0,1-.12.63,1.34,1.34,0,0,1-.32.51,1.5,1.5,0,0,1-.51.33,1.78,1.78,0,0,1-.67.12m.08-.19a.76.76,0,0,0,.5-.15,1.25,1.25,0,0,0,.28-.37,1.69,1.69,0,0,0,.12-.44,3,3,0,0,0,0-.39,2.8,2.8,0,0,0,0-.48,1.91,1.91,0,0,0-.16-.44.94.94,0,0,0-.29-.33.69.69,0,0,0-.43-.13.81.81,0,0,0-.66.34,1.6,1.6,0,0,0-.26,1,2.81,2.81,0,0,0,.05.49,1.72,1.72,0,0,0,.16.45,1,1,0,0,0,.29.33.64.64,0,0,0,.42.13"/><path class="cls-1" d="M50.25,27.26s0,0,0,0a.44.44,0,0,1-.06.1.93.93,0,0,1-.2.19,1.21,1.21,0,0,1-.36.18,1.35,1.35,0,0,1-.52.09,1.45,1.45,0,0,1-.65-.13,1.48,1.48,0,0,1-.46-.35,1.68,1.68,0,0,1-.29-.5,2,2,0,0,1-.09-.58,1.69,1.69,0,0,1,.12-.64,1.46,1.46,0,0,1,.35-.49,1.68,1.68,0,0,1,.55-.33,2.38,2.38,0,0,1,.73-.11l.3,0,.26,0,.18,0,.08,0a.05.05,0,0,1,0,.06l0,.79s0,.06,0,.06h-.09a.05.05,0,0,1,0,0,.43.43,0,0,0,0,0,1.61,1.61,0,0,0-.17-.37,1,1,0,0,0-.22-.24.8.8,0,0,0-.25-.11l-.23,0a1,1,0,0,0-.43.1.84.84,0,0,0-.31.28,1.34,1.34,0,0,0-.19.4,2,2,0,0,0-.06.49,1.78,1.78,0,0,0,.09.59,1.23,1.23,0,0,0,.25.42,1,1,0,0,0,.34.27.92.92,0,0,0,.39.09,1.09,1.09,0,0,0,.26,0l.23-.09.18-.12.13-.11s0,0,0,0Z"/><path class="cls-1" d="M51,25.53v-.27a.53.53,0,0,0,0-.16s0-.05-.06-.07l-.11,0h-.14s-.08,0-.08-.06v-.07s0-.05.08-.05h1.23s.06,0,.06,0a.05.05,0,0,1,0,0V25s0,.05-.08.05h-.14l-.11,0-.06.07a.35.35,0,0,0,0,.16,2.1,2.1,0,0,0,0,.27v1.53a1.93,1.93,0,0,0,0,.26.35.35,0,0,0,0,.16.22.22,0,0,0,.06.07l.11,0h.14s.08,0,.08.06v.07a.08.08,0,0,1,0,.05h-1.3s-.07,0-.07-.06v-.07s0,0,0-.05h.2l.11,0a.14.14,0,0,0,.06-.07.33.33,0,0,0,0-.15,2.1,2.1,0,0,0,0-.27Z"/><path class="cls-1" d="M53.89,24.73h.22l.82,1.84c0,.07.08.16.12.25a2.1,2.1,0,0,0,.13.26c0,.09.09.17.13.25a1.41,1.41,0,0,0,.14.18l0,0a.11.11,0,0,0,.08,0h.05s.06,0,.06.05v.09s0,.05-.06.05H54.37s0,0,0-.06v-.07s0-.06,0-.06h.17l.07,0a.09.09,0,0,0,.06,0,.06.06,0,0,0,0-.06.36.36,0,0,0,0-.1l0-.1-.16-.41H53.18L53,27.3a.23.23,0,0,0,0,.11.14.14,0,0,0,.06.13.2.2,0,0,0,.11,0h.1s.06,0,.06.05v.09a0,0,0,0,1,0,.05h-1s0,0,0-.05v-.09s0-.05,0-.05h.08a.19.19,0,0,0,.11,0,.4.4,0,0,0,.12-.11,1.36,1.36,0,0,0,.14-.23Zm0,.63-.57,1.24h1.1Z"/><path class="cls-1" d="M57.06,27.06v.27a1.3,1.3,0,0,0,0,.15.16.16,0,0,0,.07.07l.12,0h.13c.06,0,.08,0,.08.07a.25.25,0,0,1,0,.1.1.1,0,0,1-.07,0H56.18c-.06,0-.08,0-.08-.06v-.11l.08,0h.14l.1,0a.16.16,0,0,0,.07-.07.31.31,0,0,0,0-.15,2.1,2.1,0,0,0,0-.27v-2h-.65a.21.21,0,0,0-.2.11,1.07,1.07,0,0,0-.06.27.49.49,0,0,1,0,.14.08.08,0,0,1-.07,0h-.08l0,0a.08.08,0,0,1,0,0v-.71l0,0h2.64c.07,0,.1,0,.1.05v.71a.06.06,0,0,1,0,0s0,0,0,0l-.12,0s0-.07,0-.16a.87.87,0,0,0,0-.21.23.23,0,0,0-.07-.11.19.19,0,0,0-.1,0h-.7Z"/><path class="cls-1" d="M58.84,25.53a2.1,2.1,0,0,0,0-.27.35.35,0,0,0,0-.16.23.23,0,0,0-.07-.07l-.1,0h-.15s-.07,0-.07-.06v-.07s0-.05.07-.05h1.3a.05.05,0,0,1,0,0V25s0,.05-.08.05h-.14l-.11,0a.13.13,0,0,0-.06.07.53.53,0,0,0,0,.16v2.06a.53.53,0,0,0,0,.16.11.11,0,0,0,.06.07l.11,0h.14c.05,0,.08,0,.08.06v.07a.08.08,0,0,1,0,.05h-1.3s-.07,0-.07-.06v-.07a.07.07,0,0,1,0-.05h.21l.1,0a.16.16,0,0,0,.07-.07s0-.09,0-.15a2.1,2.1,0,0,0,0-.27Z"/><path class="cls-1" d="M61.53,27.84a1.54,1.54,0,0,1-.63-.12,1.41,1.41,0,0,1-.45-.34,1.37,1.37,0,0,1-.27-.49,1.89,1.89,0,0,1,0-1.24,1.61,1.61,0,0,1,.35-.5,1.45,1.45,0,0,1,.51-.31,1.57,1.57,0,0,1,.61-.11,1.49,1.49,0,0,1,.62.12,1.39,1.39,0,0,1,.46.33,1.29,1.29,0,0,1,.29.48,1.87,1.87,0,0,1,.09.59,1.81,1.81,0,0,1-.11.63,1.36,1.36,0,0,1-.33.51,1.56,1.56,0,0,1-.5.33,1.81,1.81,0,0,1-.67.12m.08-.19a.74.74,0,0,0,.49-.15,1,1,0,0,0,.28-.37,1.39,1.39,0,0,0,.13-.44,3,3,0,0,0,0-.39,2.8,2.8,0,0,0,0-.48,1.91,1.91,0,0,0-.16-.44.94.94,0,0,0-.29-.33.72.72,0,0,0-.44-.13.8.8,0,0,0-.65.34,1.6,1.6,0,0,0-.26,1,2.81,2.81,0,0,0,.05.49,1.42,1.42,0,0,0,.16.45,1.12,1.12,0,0,0,.28.33.69.69,0,0,0,.43.13"/><path class="cls-1" d="M65.68,26.39a.44.44,0,0,1,.09.11.94.94,0,0,0,.1.1l.11.12.15.17V25.26a1.57,1.57,0,0,0,0-.16A.23.23,0,0,0,66,25l-.12,0h-.19s0,0,0-.06,0-.08,0-.09,0,0,.07,0h1s.08,0,.08.06a.25.25,0,0,1,0,.11s0,0-.07,0h-.14a.21.21,0,0,0-.12,0,.1.1,0,0,0-.06.08.33.33,0,0,0,0,.15c0,.07,0,.15,0,.25V27.7a.06.06,0,0,1,0,0,.05.05,0,0,1,0,0h-.15a.08.08,0,0,1-.07,0l-2-2.41v1.75c0,.11,0,.2,0,.27a.33.33,0,0,0,0,.15.16.16,0,0,0,.07.07l.11,0h.14c.05,0,.08,0,.08.07a.25.25,0,0,1,0,.1.1.1,0,0,1-.07,0h-1a.08.08,0,0,1-.06,0s0,0,0,0a.28.28,0,0,1,0-.11.1.1,0,0,1,.07,0h.14l.11,0a.16.16,0,0,0,.07-.07l0-.15V25.26a1.3,1.3,0,0,0,0-.15.19.19,0,0,0-.07-.08l-.11,0h-.14c-.05,0-.08,0-.08-.07a.25.25,0,0,1,0-.1s0,0,0,0h.88s.05,0,.07.05a.31.31,0,0,1,.07.09l.18.23Z"/></svg>