<svg id="_01_-_iSocial_BP_OK" data-name="01 - iSocial BP OK" xmlns="http://www.w3.org/2000/svg" viewBox="0 0 163.27 73.25"><defs><style>.cls-1{fill:#7c7d7f;}</style></defs><title>IMG - LOGO Unity</title><path class="cls-1" d="M35.13,49.41,24,38.23H41.58L50.39,53.5Zm10.7-13.63,8.81-15.26,4.09,15.26L54.64,51ZM35.13,22.15l15.26-4.09L41.58,33.32H24ZM57.46,10.73,37.7,16h0l-3.05,5.28H28.53L14.07,35.78,28.53,50.24l0,0h6.11l3,5.28,19.76,5.29,5.3-19.76v0l-3-5.28,3-5.28Z"/><path class="cls-1" d="M91,26.11H86.09V37c0,2.86-1.17,5.14-4.61,5.14s-4.4-2.32-4.4-5.29V26.11H72.22v12c0,3.53,1.12,8.55,7.73,8.59,3.63,0,5.45-1.73,6.14-3.3v2.88H91Z"/><path class="cls-1" d="M92.68,46.23h4.86V34.91c0-2.82,1.21-5.1,4.62-5.13s4.4,2.31,4.4,5.31V46.23h4.85V33.88c0-3.55-1.2-8.58-7.77-8.61a6.57,6.57,0,0,0-6.25,3.41c0-.95.06-1.87.06-2.57H92.68Z"/><path class="cls-1" d="M113.15,23.34H118V19.18h-4.85Zm0,22.89H118V26.11h-4.85Z"/><polygon class="cls-1" points="122.86 46.23 127.72 46.23 127.72 29.58 131.07 29.58 129.65 26.11 127.72 26.11 127.72 19.18 122.86 19.18 122.86 26.11 119.39 26.11 119.39 29.58 122.86 29.58 122.86 46.23"/><polygon class="cls-1" points="135.71 53.17 140.84 53.17 151.44 26.11 146.3 26.11 141.46 39.5 136.55 26.11 131.41 26.11 139 45.42 135.71 53.17"/></svg>