<svg id="_01_-_iSocial_BP_OK_-_PICS" data-name="01 - iSocial BP OK - PICS" xmlns="http://www.w3.org/2000/svg" viewBox="0 0 176.11 32.32"><defs><style>.cls-1{fill:#404041;}.cls-2{fill:#e66b55;}.cls-3{fill:#f5cf91;}.cls-4{fill:#4a8082;}.cls-5{fill:#d44;}</style></defs><title>IMG - LOGO Nascent</title><path class="cls-1" d="M45,5.57c.13,0,.2.08.2.23v11a.21.21,0,0,1-.08.17.31.31,0,0,1-.21.07H43.33a.58.58,0,0,1-.21,0,.38.38,0,0,1-.17-.15L38,9.94s-.08-.07-.11-.06a.08.08,0,0,0-.06.09v6.86a.21.21,0,0,1-.07.18s-.12,0-.24,0H35.91c-.2,0-.31-.08-.31-.26V5.87c0-.2.1-.3.28-.3h1.88a.56.56,0,0,1,.26,0,.82.82,0,0,1,.19.19l4.55,6.49c.06.09.11.13.15.13s.08-.06.08-.17V5.85a.24.24,0,0,1,.28-.28Z"/><path class="cls-1" d="M46.79,16.8a.42.42,0,0,1,0-.18L50.67,5.88a.55.55,0,0,1,.15-.24.45.45,0,0,1,.26-.07H53.4a.48.48,0,0,1,.29.09.47.47,0,0,1,.17.25l3.83,10.74a.44.44,0,0,1,0,.14.39.39,0,0,1,0,.2.19.19,0,0,1-.17.07H55.23a.28.28,0,0,1-.3-.21l-.8-2.26a.45.45,0,0,0-.07-.14.23.23,0,0,0-.13,0H50.15a.19.19,0,0,0-.2.15l-.83,2.29a.32.32,0,0,1-.32.2H47C46.86,17.06,46.79,17,46.79,16.8Zm6.5-4.44c.1,0,.16,0,.16-.13a.46.46,0,0,0,0-.14l-1.3-3.62c0-.06-.07-.09-.11-.09s-.06,0-.09.1l-1.32,3.61a.5.5,0,0,0,0,.14c0,.08.06.13.17.13Z"/><path class="cls-1" d="M64.87,7.58a3.11,3.11,0,0,0-1.36-.26,2.59,2.59,0,0,0-1.44.34,1,1,0,0,0-.49.9c0,.54.42.93,1.25,1.18l2.45.7a3.82,3.82,0,0,1,2,1.22,3.11,3.11,0,0,1,.68,2,3.19,3.19,0,0,1-.56,1.88,3.52,3.52,0,0,1-1.61,1.24,6.5,6.5,0,0,1-2.45.43,7.24,7.24,0,0,1-2.85-.54,3.83,3.83,0,0,1-1.86-1.46.41.41,0,0,1-.06-.2.38.38,0,0,1,.15-.26l1.2-.82a.48.48,0,0,1,.28-.1.27.27,0,0,1,.23.13,3.82,3.82,0,0,0,1.16,1,4.14,4.14,0,0,0,3.19,0,1,1,0,0,0,.59-1,.94.94,0,0,0-.3-.71,2.37,2.37,0,0,0-1-.52l-2.34-.66a4,4,0,0,1-2.06-1.25,3.13,3.13,0,0,1-.17-3.77,3.68,3.68,0,0,1,1.55-1.25,5.66,5.66,0,0,1,2.33-.45,6.15,6.15,0,0,1,2.38.44A3.9,3.9,0,0,1,67.48,7a.42.42,0,0,1,.09.22.22.22,0,0,1-.09.17l-1.3,1a.3.3,0,0,1-.14.06c-.05,0-.14,0-.25-.17A3.08,3.08,0,0,0,64.87,7.58Z"/><path class="cls-1" d="M76.68,5.87a4.46,4.46,0,0,1,1.63,1.22,3.75,3.75,0,0,1,.82,1.73,1,1,0,0,1,0,.25.16.16,0,0,1,0,.13.39.39,0,0,1-.14,0l-2.09.14a.26.26,0,0,1-.18,0,.77.77,0,0,1-.07-.19A2.48,2.48,0,0,0,76,7.8a1.86,1.86,0,0,0-1.36-.49q-2.48,0-2.48,4a5.66,5.66,0,0,0,.62,3,2.09,2.09,0,0,0,1.89.94,2.6,2.6,0,0,0,1.57-.46,3.26,3.26,0,0,0,1-1.52.19.19,0,0,1,.2-.11l.14,0,1.51.32q.22.07.18.39a4.25,4.25,0,0,1-.73,1.44A4.84,4.84,0,0,1,77,16.65a5,5,0,0,1-2.45.57,5.1,5.1,0,0,1-2.78-.75,4.82,4.82,0,0,1-1.82-2.11,7.35,7.35,0,0,1-.63-3.13,7.1,7.1,0,0,1,.63-3.09,4.64,4.64,0,0,1,1.82-2,5.34,5.34,0,0,1,2.78-.7A5.2,5.2,0,0,1,76.68,5.87Z"/><path class="cls-1" d="M81.15,5.57H89c.16,0,.23.09.23.26v1.4c0,.22-.11.32-.33.32H83.91c-.2,0-.29.09-.29.25v2.25c0,.17.07.26.23.26h3.28c.18,0,.27.08.27.25v1.49c0,.14-.09.21-.25.21H83.83c-.14,0-.21.07-.21.19v2.43a.25.25,0,0,0,0,.16s.07,0,.13,0h5.29c.19,0,.28.08.28.23v1.48c0,.18-.1.27-.31.27h-7.8A.4.4,0,0,1,81,17a.36.36,0,0,1-.07-.25V5.87Q80.91,5.57,81.15,5.57Z"/><path class="cls-1" d="M100.42,5.57c.14,0,.2.08.2.23v11a.21.21,0,0,1-.08.17.31.31,0,0,1-.21.07H98.76a.58.58,0,0,1-.21,0,.44.44,0,0,1-.17-.15L93.44,9.94s-.08-.07-.12-.06,0,0,0,.09v6.86a.25.25,0,0,1-.07.18.39.39,0,0,1-.24,0H91.35c-.21,0-.31-.08-.31-.26V5.87c0-.2.09-.3.28-.3h1.87a.56.56,0,0,1,.26,0,.67.67,0,0,1,.19.19l4.55,6.49c.06.09.12.13.16.13s.07-.06.07-.17V5.85a.25.25,0,0,1,.28-.28Z"/><path class="cls-1" d="M102.22,5.85a.28.28,0,0,1,.08-.2.34.34,0,0,1,.23-.08h8.89c.2,0,.31.09.31.28V7.29c0,.16-.1.23-.28.23h-2.9a.15.15,0,0,0-.17.16v9.09c0,.2-.09.29-.26.29H105.9c-.15,0-.23-.08-.23-.26V7.72a.21.21,0,0,0,0-.15.16.16,0,0,0-.13-.05h-3c-.19,0-.29-.07-.29-.23Z"/><path class="cls-1" d="M122.21,7.58a3.11,3.11,0,0,0-1.36-.26,2.59,2.59,0,0,0-1.44.34,1.06,1.06,0,0,0-.5.9c0,.54.42.93,1.26,1.18l2.45.7a3.82,3.82,0,0,1,2,1.22,3.11,3.11,0,0,1,.67,2,3.18,3.18,0,0,1-.55,1.88,3.57,3.57,0,0,1-1.61,1.24,6.54,6.54,0,0,1-2.45.43,7.17,7.17,0,0,1-2.85-.54A3.83,3.83,0,0,1,116,15.22.41.41,0,0,1,116,15a.38.38,0,0,1,.15-.26l1.19-.82a.53.53,0,0,1,.28-.1.28.28,0,0,1,.24.13A3.71,3.71,0,0,0,119,15a3.3,3.3,0,0,0,1.56.31,3.39,3.39,0,0,0,1.63-.33,1,1,0,0,0,.59-1,.94.94,0,0,0-.3-.71,2.44,2.44,0,0,0-1-.52l-2.34-.66a4,4,0,0,1-2.06-1.25,3,3,0,0,1-.73-2,3.1,3.1,0,0,1,.55-1.78,3.77,3.77,0,0,1,1.56-1.25,5.65,5.65,0,0,1,2.32-.45,6.17,6.17,0,0,1,2.39.44A4,4,0,0,1,124.82,7a.42.42,0,0,1,.09.22.22.22,0,0,1-.09.17l-1.31,1a.27.27,0,0,1-.14.06c-.05,0-.13,0-.24-.17A3.08,3.08,0,0,0,122.21,7.58Z"/><path class="cls-1" d="M126.44,5.85a.25.25,0,0,1,.09-.2.31.31,0,0,1,.22-.08h8.89c.21,0,.31.09.31.28V7.29c0,.16-.09.23-.28.23h-2.89c-.12,0-.17.06-.17.16v9.09c0,.2-.09.29-.27.29h-2.21c-.16,0-.23-.08-.23-.26V7.72a.27.27,0,0,0,0-.15.17.17,0,0,0-.13-.05h-3c-.2,0-.3-.07-.3-.23Z"/><path class="cls-1" d="M135.21,16.8a.42.42,0,0,1,0-.18L139.1,5.88a.66.66,0,0,1,.14-.24.45.45,0,0,1,.26-.07h2.32a.51.51,0,0,1,.3.09.53.53,0,0,1,.17.25l3.82,10.74a.44.44,0,0,1,0,.14.39.39,0,0,1,0,.2.19.19,0,0,1-.16.07h-2.28a.27.27,0,0,1-.29-.21l-.81-2.26a.3.3,0,0,0-.07-.14.23.23,0,0,0-.13,0h-3.78a.19.19,0,0,0-.2.15l-.82,2.29a.32.32,0,0,1-.33.2h-1.78C135.29,17.06,135.21,17,135.21,16.8Zm6.5-4.44c.11,0,.16,0,.16-.13a.46.46,0,0,0,0-.14l-1.3-3.62c0-.06-.07-.09-.11-.09s-.06,0-.09.1L139,12.09a.5.5,0,0,0,0,.14c0,.08.06.13.17.13Z"/><path class="cls-1" d="M149,16.49a4.83,4.83,0,0,1-1.81-2,7.09,7.09,0,0,1-.63-3.08,7.08,7.08,0,0,1,.66-3.14,4.85,4.85,0,0,1,1.88-2.07,5.23,5.23,0,0,1,2.79-.73,5.13,5.13,0,0,1,2.2.46,4.63,4.63,0,0,1,1.63,1.22,3.37,3.37,0,0,1,.78,1.6.75.75,0,0,1,0,.23c0,.12-.07.18-.2.19l-2,.31a.19.19,0,0,1-.17-.06.34.34,0,0,1-.08-.19,2.4,2.4,0,0,0-.73-1.33,2.12,2.12,0,0,0-1.49-.53,2,2,0,0,0-1.81.95,5.64,5.64,0,0,0-.62,3,5.65,5.65,0,0,0,.65,3.1,2.13,2.13,0,0,0,1.88.94,2.09,2.09,0,0,0,1.48-.5,2.34,2.34,0,0,0,.73-1.26l0-.45a.2.2,0,0,0,0-.09c0-.1-.06-.14-.17-.14h-1.88a.21.21,0,0,1-.18-.07.27.27,0,0,1-.06-.2V11.44q0-.21.24-.21h4.14a.48.48,0,0,1,.33.1.34.34,0,0,1,.12.27v5.22a.24.24,0,0,1-.06.17.26.26,0,0,1-.18.06H156a.43.43,0,0,1-.4-.24l-.45-1.12c0-.07-.08-.07-.16,0a4.48,4.48,0,0,1-1.29,1.08,4,4,0,0,1-2,.42A5,5,0,0,1,149,16.49Z"/><path class="cls-1" d="M158.87,5.57h7.81c.16,0,.23.09.23.26v1.4c0,.22-.11.32-.33.32h-4.94c-.19,0-.29.09-.29.25v2.25c0,.17.07.26.23.26h3.28c.18,0,.27.08.27.25v1.49c0,.14-.09.21-.25.21h-3.32c-.14,0-.21.07-.21.19v2.43a.25.25,0,0,0,0,.16s.07,0,.13,0h5.29c.19,0,.28.08.28.23v1.48c0,.18-.1.27-.31.27H159a.4.4,0,0,1-.27-.07.36.36,0,0,1-.07-.25V5.87Q158.63,5.57,158.87,5.57Z"/><path class="cls-1" d="M40.39,26.91c0,.07,0,.11-.12.11h-.68a.16.16,0,0,1-.15-.11L38.24,24a.24.24,0,0,0-.08-.09.3.3,0,0,0-.15,0H36.44c-.08,0-.12,0-.12.1v2.91a.17.17,0,0,1,0,.12.19.19,0,0,1-.13,0h-.6a.16.16,0,0,1-.11,0,.2.2,0,0,1,0-.09V20.22s0-.08,0-.1,0,0,.09,0h2.6a2.77,2.77,0,0,1,1.72.46,1.55,1.55,0,0,1,.61,1.33,1.74,1.74,0,0,1-.4,1.2,2.05,2.05,0,0,1-1,.62,0,0,0,0,0,0,0,.07.07,0,0,0,0,.06l1.31,3.05S40.39,26.88,40.39,26.91Zm-1.27-4a1.07,1.07,0,0,0,.42-.94,1.15,1.15,0,0,0-.37-.92,1.64,1.64,0,0,0-1.07-.31H36.45c-.08,0-.13,0-.13.11v2.24q0,.12.09.12h1.47A2.08,2.08,0,0,0,39.12,22.91Z"/><path class="cls-1" d="M42,20.12s0,0,.09,0h4.19a.09.09,0,0,1,.1.1v.48c0,.07,0,.11-.13.11H42.94s-.08,0-.09,0,0,0,0,.08v2.19c0,.07,0,.1.11.1h2.41a.1.1,0,0,1,.11.11v.49c0,.06,0,.08-.11.08H42.93a.1.1,0,0,0-.11.11v2.27a.12.12,0,0,0,0,.07l.08,0h3.42a.13.13,0,0,1,.08,0,.08.08,0,0,1,0,.07v.5c0,.07,0,.1-.11.1H42.06A.16.16,0,0,1,42,27a.22.22,0,0,1,0-.1V20.22S41.93,20.14,42,20.12Z"/><path class="cls-1" d="M50,20.68a1.71,1.71,0,0,0-1.1.31,1,1,0,0,0-.4.86c0,.48.33.84,1,1.06l1.36.45a2.52,2.52,0,0,1,1.19.72,1.84,1.84,0,0,1-.29,2.52,2.94,2.94,0,0,1-1.82.52,3.46,3.46,0,0,1-1.48-.3,2.56,2.56,0,0,1-1-.87.49.49,0,0,1,0-.1s0-.08.1-.13l.33-.23a.28.28,0,0,1,.13-.06.14.14,0,0,1,.11.06,2.63,2.63,0,0,0,.79.73,2.79,2.79,0,0,0,2.28-.07,1,1,0,0,0,.43-.87.91.91,0,0,0-.23-.62,2.12,2.12,0,0,0-.83-.48L49,23.7A2.14,2.14,0,0,1,47.94,23a1.65,1.65,0,0,1-.35-1,1.79,1.79,0,0,1,.29-1,1.92,1.92,0,0,1,.83-.67A3,3,0,0,1,50,20a3.12,3.12,0,0,1,1.24.24,2.67,2.67,0,0,1,.94.68.12.12,0,0,1,0,.1.08.08,0,0,1,0,.08l-.43.34-.05,0s-.06,0-.11-.08A2,2,0,0,0,50,20.68Z"/><path class="cls-1" d="M53.8,20.12a.12.12,0,0,1,.09,0h4.19a.09.09,0,0,1,.1.1v.48c0,.07,0,.11-.12.11H54.8s-.09,0-.1,0,0,0,0,.08v2.19c0,.07,0,.1.11.1H57.2a.1.1,0,0,1,.1.11v.49c0,.06,0,.08-.1.08H54.78a.1.1,0,0,0-.11.11v2.27a.12.12,0,0,0,0,.07.15.15,0,0,0,.08,0H58.2l.08,0a.12.12,0,0,1,0,.07v.5a.09.09,0,0,1-.1.1H53.91s-.09,0-.1,0a.13.13,0,0,1,0-.1V20.22A.22.22,0,0,1,53.8,20.12Z"/><path class="cls-1" d="M59.17,27a.13.13,0,0,1,0-.12l2.42-6.64a.19.19,0,0,1,.06-.1.21.21,0,0,1,.12,0h.73a.2.2,0,0,1,.22.14l2.39,6.63v.05A.1.1,0,0,1,65,27h-.66a.16.16,0,0,1-.15-.09l-.64-1.81,0-.06-.08,0H60.73a.12.12,0,0,0-.12.08L60,26.94a.13.13,0,0,1-.14.08h-.56A.08.08,0,0,1,59.17,27Zm4-2.65c.07,0,.09,0,.08-.12l-1.12-3.07c0-.06,0-.09-.07-.09s-.05,0-.07.09l-1.13,3.09,0,.06s0,0,.07,0Z"/><path class="cls-1" d="M71.39,26.91a.1.1,0,0,1-.11.11H70.6a.16.16,0,0,1-.15-.11L69.24,24a.16.16,0,0,0-.07-.09.3.3,0,0,0-.15,0H67.44c-.07,0-.11,0-.11.1v2.91a.17.17,0,0,1,0,.12.21.21,0,0,1-.13,0h-.61a.13.13,0,0,1-.1,0,.12.12,0,0,1,0-.09V20.22a.13.13,0,0,1,0-.1s0,0,.08,0h2.61a2.79,2.79,0,0,1,1.72.46,1.57,1.57,0,0,1,.61,1.33,1.79,1.79,0,0,1-.4,1.2,2.08,2.08,0,0,1-1,.62s0,0,0,0a0,0,0,0,0,0,.06l1.3,3.05A.15.15,0,0,1,71.39,26.91Zm-1.26-4a1.07,1.07,0,0,0,.41-.94,1.15,1.15,0,0,0-.36-.92,1.66,1.66,0,0,0-1.08-.31H67.46c-.09,0-.13,0-.13.11v2.24c0,.08,0,.12.08.12h1.48A2.1,2.1,0,0,0,70.13,22.91Z"/><path class="cls-1" d="M76.73,20.26a2.59,2.59,0,0,1,.92.7,1.92,1.92,0,0,1,.44.95V22a.05.05,0,0,1,0,.05s0,0,0,0l-.7.06h0l0,0s0,0,0-.07a1.75,1.75,0,0,0-.58-1,1.62,1.62,0,0,0-1.06-.36,1.72,1.72,0,0,0-1.5.72,3.72,3.72,0,0,0-.52,2.17,3.57,3.57,0,0,0,.52,2.12,1.77,1.77,0,0,0,1.54.72,1.83,1.83,0,0,0,1.11-.33,2.13,2.13,0,0,0,.71-1s0-.06.12,0l.55.13s.06.06,0,.13a2.42,2.42,0,0,1-.48.89,2.71,2.71,0,0,1-.88.67,2.63,2.63,0,0,1-1.21.27A2.89,2.89,0,0,1,74,26.69a2.8,2.8,0,0,1-1-1.24,4.6,4.6,0,0,1-.36-1.9,4.74,4.74,0,0,1,.35-1.9,2.75,2.75,0,0,1,1-1.23A2.85,2.85,0,0,1,75.56,20,2.77,2.77,0,0,1,76.73,20.26Z"/><path class="cls-1" d="M80.51,23.78l-.06,0a.14.14,0,0,0,0,.06v3a.16.16,0,0,1,0,.11.23.23,0,0,1-.13,0h-.6a.16.16,0,0,1-.11,0s0,0,0-.1V20.22c0-.09,0-.13.11-.13h.67c.08,0,.11,0,.11.12V23a.12.12,0,0,0,0,.09l.08,0H83.6c.06,0,.09,0,.09-.11V20.2a.1.1,0,0,1,.1-.11h.69a.12.12,0,0,1,.09,0,.22.22,0,0,1,0,.1v6.67a.12.12,0,0,1-.13.13h-.61a.17.17,0,0,1-.12,0,.12.12,0,0,1,0-.11v-3a.07.07,0,0,0-.08-.08Z"/><path class="cls-1" d="M91.92,20.37a1.23,1.23,0,0,1,.49,1,1.59,1.59,0,0,1-.4,1,3.41,3.41,0,0,1-1.24.85s-.07,0-.07.07a.12.12,0,0,0,0,.09l1.46,1.7s0,.05.07.05l0,0,0,0a5.56,5.56,0,0,0,.7-.85,4.1,4.1,0,0,0,.49-.87c0-.07.07-.09.15-.07l.38.13.07.07a.14.14,0,0,1,0,.09,4,4,0,0,1-.52.95,8.34,8.34,0,0,1-.82,1,.15.15,0,0,0,0,.08.05.05,0,0,0,0,0l0,0a2,2,0,0,0,.7.4,2.76,2.76,0,0,0,.86.18c.09,0,.14,0,.14.12v.4a.18.18,0,0,1,0,.13.17.17,0,0,1-.13,0,3.33,3.33,0,0,1-1.15-.22,3.84,3.84,0,0,1-1-.54l-.08,0a.16.16,0,0,0-.09,0,3.11,3.11,0,0,1-2.09.8,2.26,2.26,0,0,1-1.52-.49,1.68,1.68,0,0,1-.55-1.32,1.73,1.73,0,0,1,.33-1,3.65,3.65,0,0,1,1.1-.92c.06,0,.09-.07.09-.1s0-.07-.08-.13a2.05,2.05,0,0,1-.62-1.37,1.56,1.56,0,0,1,.25-.88,1.86,1.86,0,0,1,.71-.62,2.19,2.19,0,0,1,1-.22A2,2,0,0,1,91.92,20.37Zm-2,3.36a.41.41,0,0,0-.12,0,2.19,2.19,0,0,0-.75.62,1.4,1.4,0,0,0-.27.83,1.16,1.16,0,0,0,.38.88,1.43,1.43,0,0,0,1,.34,2.05,2.05,0,0,0,.78-.16,2.38,2.38,0,0,0,.68-.43.19.19,0,0,0,.07-.12.19.19,0,0,0,0-.1L90,23.82A.2.2,0,0,0,89.87,23.73Zm0-2.85a1.09,1.09,0,0,0-.32.79,1.31,1.31,0,0,0,.38.87l.26.28a.09.09,0,0,0,.08,0l.08,0a3.38,3.38,0,0,0,1-.68,1.1,1.1,0,0,0,.32-.75.75.75,0,0,0-.28-.64,1.08,1.08,0,0,0-.71-.22A1.11,1.11,0,0,0,89.84,20.88Z"/><path class="cls-1" d="M99.28,20.1A3.91,3.91,0,0,1,102,21a3.4,3.4,0,0,1,.87,2.54q0,3.5-3.72,3.5H97.81c-.08,0-.13-.05-.13-.15V20.21a.12.12,0,0,1,0-.09.13.13,0,0,1,.1,0Zm-.7.8v5.35a.19.19,0,0,0,0,.08l.09,0h.36a4.2,4.2,0,0,0,1.68-.28,1.78,1.78,0,0,0,.94-.89,3.63,3.63,0,0,0,.31-1.64,3.76,3.76,0,0,0-.29-1.62,1.7,1.7,0,0,0-.88-.85,4.41,4.41,0,0,0-1.58-.29h-.58C98.6,20.77,98.58,20.82,98.58,20.9Z"/><path class="cls-1" d="M104.45,20.12s0,0,.09,0h4.19c.06,0,.09,0,.09.1v.48c0,.07,0,.11-.12.11h-3.26s-.08,0-.09,0,0,0,0,.08v2.19a.09.09,0,0,0,.1.1h2.42a.1.1,0,0,1,.11.11v.49c0,.06,0,.08-.11.08h-2.42a.1.1,0,0,0-.1.11v2.27a.12.12,0,0,0,0,.07l.07,0h3.43l.08,0a.08.08,0,0,1,0,.07v.5c0,.07,0,.1-.11.1h-4.28a.16.16,0,0,1-.11,0s0,0,0-.1V20.22S104.43,20.14,104.45,20.12Z"/><path class="cls-1" d="M115.55,20.13a.1.1,0,0,1,0,.09l-2.36,6.66a.24.24,0,0,1-.08.11.23.23,0,0,1-.13,0h-.64c-.12,0-.19,0-.22-.13l-2.32-6.66a.43.43,0,0,1,0-.05q0-.09.12-.09h.64a.16.16,0,0,1,.16.11l1.94,5.66c0,.06,0,.09.07.09s0,0,.07-.1l2-5.66a.14.14,0,0,1,.14-.1h.55A.1.1,0,0,1,115.55,20.13Z"/><path class="cls-1" d="M116.92,20.12s0,0,.08,0h4.2c.06,0,.09,0,.09.1v.48c0,.07,0,.11-.12.11h-3.26a.13.13,0,0,0-.1,0,.13.13,0,0,0,0,.08v2.19c0,.07,0,.1.1.1h2.42c.07,0,.1,0,.1.11v.49c0,.06,0,.08-.1.08h-2.42c-.07,0-.1,0-.1.11v2.27a.12.12,0,0,0,0,.07l.07,0h3.43l.08,0s0,0,0,.07v.5c0,.07,0,.1-.1.1H117a.11.11,0,0,1-.13-.13V20.22A.13.13,0,0,1,116.92,20.12Z"/><path class="cls-1" d="M122.87,20.09h.67a.11.11,0,0,1,.12.12v6s0,.06,0,.07a.15.15,0,0,0,.08,0H127l.08,0a.08.08,0,0,1,0,.07v.5c0,.07,0,.1-.11.1h-4.09s-.09,0-.1,0a.13.13,0,0,1,0-.1V20.22C122.76,20.13,122.8,20.09,122.87,20.09Z"/><path class="cls-1" d="M128.82,26.7a2.64,2.64,0,0,1-1-1.2,4.81,4.81,0,0,1-.35-1.92,4.72,4.72,0,0,1,.36-1.93,2.72,2.72,0,0,1,1-1.23,3,3,0,0,1,1.59-.42,2.9,2.9,0,0,1,1.57.42,2.62,2.62,0,0,1,1,1.22,4.73,4.73,0,0,1,.36,1.94,4.62,4.62,0,0,1-.36,1.91,2.6,2.6,0,0,1-1,1.21,2.91,2.91,0,0,1-1.58.42A3,3,0,0,1,128.82,26.7Zm3.11-1a3.65,3.65,0,0,0,.5-2.15,3.81,3.81,0,0,0-.51-2.19,1.73,1.73,0,0,0-1.5-.71,1.75,1.75,0,0,0-1.53.72,3.79,3.79,0,0,0-.51,2.18,3.64,3.64,0,0,0,.51,2.15,1.77,1.77,0,0,0,1.54.7A1.71,1.71,0,0,0,131.93,25.73Z"/><path class="cls-1" d="M139.25,23.62a2.91,2.91,0,0,1-1.8.51h-1.59c-.05,0-.08,0-.08.08v2.67a.13.13,0,0,1-.14.14H135a.11.11,0,0,1-.12-.12V20.22a.13.13,0,0,1,0-.1s0,0,.08,0h2.36a3.15,3.15,0,0,1,1.86.5,1.73,1.73,0,0,1,.7,1.52A1.79,1.79,0,0,1,139.25,23.62Zm-.69-2.54a2.21,2.21,0,0,0-1.26-.31h-1.4a.11.11,0,0,0-.12.12v2.42c0,.05,0,.09,0,.11s0,0,.06,0h1.51a1.88,1.88,0,0,0,1.2-.34,1.2,1.2,0,0,0,.43-1A1.15,1.15,0,0,0,138.56,21.08Z"/><path class="cls-1" d="M141.33,26.88V20.22s0-.08,0-.1,0,0,.09,0h.89a.16.16,0,0,1,.11,0,.13.13,0,0,1,.05.07l2.08,5.36c0,.05,0,.08.06.08s.06,0,.08-.09l2.08-5.33a.13.13,0,0,1,.14-.12h.94c.07,0,.1,0,.1.12v6.67a.12.12,0,0,1-.14.14h-.61c-.1,0-.14,0-.14-.12V21.56s0,0,0,0,0,0,0,0L145,26.9a.19.19,0,0,1-.18.12h-.45a.2.2,0,0,1-.19-.11l-2-5.3s0,0,0,0,0,0,0,0V26.9a.12.12,0,0,1,0,.09.13.13,0,0,1-.1,0h-.5C141.37,27,141.33,27,141.33,26.88Z"/><path class="cls-1" d="M149.81,20.12a.12.12,0,0,1,.09,0h4.19a.09.09,0,0,1,.1.1v.48c0,.07,0,.11-.13.11H150.8q-.08,0-.09,0s0,0,0,.08v2.19c0,.07,0,.1.11.1h2.41a.1.1,0,0,1,.11.11v.49c0,.06,0,.08-.11.08h-2.41a.1.1,0,0,0-.11.11v2.27a.12.12,0,0,0,0,.07l.08,0h3.42a.13.13,0,0,1,.08,0,.08.08,0,0,1,0,.07v.5c0,.07,0,.1-.11.1h-4.28a.16.16,0,0,1-.11,0,.22.22,0,0,1,0-.1V20.22S149.79,20.14,149.81,20.12Z"/><path class="cls-1" d="M160.81,20.09a.11.11,0,0,1,.08,0,.13.13,0,0,1,0,.08v6.71c0,.07,0,.11-.12.11h-.58l-.08-.06-3.6-5.24c0-.05-.05-.06-.07-.06s0,0,0,.07V26.9c0,.08-.05.12-.13.12h-.53a.11.11,0,0,1-.12-.12V20.22a.13.13,0,0,1,0-.1s0,0,.09,0h.54l.11,0,.08.07,3.5,5.13s.06.06.09.06,0,0,0-.09V20.2c0-.07,0-.11.12-.11Z"/><path class="cls-1" d="M162.21,20.19c0-.06,0-.1.11-.1h5c.08,0,.12,0,.12.1v.49s0,.06,0,.07-.05,0-.09,0h-1.89a.13.13,0,0,0-.08,0s0,0,0,.08v6a.11.11,0,0,1-.12.12h-.67c-.07,0-.11,0-.11-.12v-6a.14.14,0,0,0,0-.09l-.07,0h-2s-.07,0-.08,0,0,0,0-.07Z"/><path class="cls-2" d="M12.16,18.33a3.35,3.35,0,0,1,.48-.59,1.6,1.6,0,0,0,.48-1.15,1.63,1.63,0,0,0-2.78-1.15,3.41,3.41,0,0,1-.59.49h0A3.79,3.79,0,0,1,5,15.44H5a3.79,3.79,0,0,1,0-5.36,1.59,1.59,0,0,0,.48-1.15A1.62,1.62,0,0,0,5,7.78a1.56,1.56,0,0,0-.2-.16A13.92,13.92,0,0,0,2,17.2a3.9,3.9,0,0,1,.69.54,3.78,3.78,0,0,1,.67,4.41,14.25,14.25,0,0,0,2,3,2.52,2.52,0,0,1,.25-.21h0a3.72,3.72,0,0,1,2.08-.63,3.77,3.77,0,0,1,2.09.63h0a3.87,3.87,0,0,1,.59.48,1.63,1.63,0,0,0,2.3-2.3,3.35,3.35,0,0,1-.48-.59h0a3.85,3.85,0,0,1-.62-2.09,3.79,3.79,0,0,1,.62-2.08Z"/><path class="cls-3" d="M24.13,19.27a1.67,1.67,0,0,0-2.3,0,3.79,3.79,0,0,1-5.36,0,1.67,1.67,0,0,0-2.3,0,1.62,1.62,0,0,0-.48,1.15,1.6,1.6,0,0,0,.48,1.15,3.94,3.94,0,0,1,.49.59h0a3.79,3.79,0,0,1,.62,2.08,3.85,3.85,0,0,1-.62,2.09h0a3.94,3.94,0,0,1-.49.59h0a3.79,3.79,0,0,1-5.36,0,1.67,1.67,0,0,0-1.94-.26,13.89,13.89,0,0,0,9,3.31,3.79,3.79,0,0,1,5.48-1.14,13.45,13.45,0,0,0,2.92-1.71,1.56,1.56,0,0,0-.16-.2,3.79,3.79,0,0,1,0-5.36A1.64,1.64,0,0,0,24.13,19.27Z"/><path class="cls-4" d="M29.79,16.45a3.7,3.7,0,0,1-1.83-1,3.79,3.79,0,0,1,0-5.36,1.59,1.59,0,0,0,.3-.43,13.76,13.76,0,0,0-1.51-2.32,1.6,1.6,0,0,0-1.09.45,3.79,3.79,0,0,1-5.36,0,1.67,1.67,0,0,0-2.3,0,1.64,1.64,0,0,0,0,2.3,3.79,3.79,0,0,1,0,5.36,1.62,1.62,0,0,0-.48,1.15A1.6,1.6,0,0,0,18,17.74a1.65,1.65,0,0,0,2.3,0A3.76,3.76,0,0,1,23,16.63a3.8,3.8,0,0,1,2.68,1.11,3.87,3.87,0,0,1,.48.59h0a3.79,3.79,0,0,1,.62,2.08,3.85,3.85,0,0,1-.62,2.09h0a3.87,3.87,0,0,1-.48.59,1.64,1.64,0,0,0,0,2.3,2.25,2.25,0,0,0,.3.24A13.89,13.89,0,0,0,29.79,16.45Z"/><path class="cls-5" d="M15.18,2.13a3.7,3.7,0,0,1-1,1.82,3.76,3.76,0,0,1-2.68,1.11A3.72,3.72,0,0,1,8.87,4,13.74,13.74,0,0,0,6.28,6a1.33,1.33,0,0,0,.23.3,4,4,0,0,1,.49.6H7A3.82,3.82,0,0,1,7,11H7a3.94,3.94,0,0,1-.49.59A1.62,1.62,0,0,0,6,12.76a1.6,1.6,0,0,0,.48,1.15,2.09,2.09,0,0,0,.29.23,1.62,1.62,0,0,0,2-.23,3.79,3.79,0,0,1,5.36,0,1.65,1.65,0,0,0,2.3,0A1.6,1.6,0,0,0,17,12.76a1.62,1.62,0,0,0-.48-1.15,3.79,3.79,0,0,1,5.36-5.36,1.65,1.65,0,0,0,2.3,0,1.62,1.62,0,0,0,.47-1.07A13.92,13.92,0,0,0,15.18,2.13Z"/><path class="cls-1" d="M169.09,5.62s0,0,.06,0h1.74s.05,0,.05,0v.29s0,0-.05,0h-.56s0,0,0,0V7.76s0,.06,0,.06h-.43s-.05,0-.05-.06V6s0,0,0,0h-.58s-.06,0-.06,0Zm2.17,2.18a.08.08,0,0,1,0,0V5.63s0-.06,0-.06H172l0,0,.46,1.26s0,0,0,0l.43-1.24a.08.08,0,0,1,.07-.07h.65s0,0,0,0V7.74s0,0,0,.06l-.06,0h-.39l-.05,0s0,0,0,0V6.25a0,0,0,0,0,0,0v0l-.53,1.52a.06.06,0,0,1-.06.05h-.25a.07.07,0,0,1-.07-.05l-.53-1.5s0,0,0,0,0,0,0,0V7.76a.43.43,0,0,1,0,0h-.36Z"/></svg>