<svg id="_01_-_iSocial_BP_OK_-_PICS" data-name="01 - iSocial BP OK - PICS" xmlns="http://www.w3.org/2000/svg" viewBox="0 0 134.05 28.99"><defs><style>.cls-1,.cls-3,.cls-7{fill:#cf1f36;}.cls-2{fill:#6ac3b1;}.cls-3{font-size:25.1px;letter-spacing:-0.14em;}.cls-3,.cls-7{font-family:Avenir-Heavy, Avenir;}.cls-4{letter-spacing:-0.02em;}.cls-5{letter-spacing:-0.06em;}.cls-6{letter-spacing:-0.02em;}.cls-7{font-size:6.69px;letter-spacing:-0.02em;}</style></defs><title>IMG - LOGO TeacherVision</title><path class="cls-1" d="M22.67,21.11a2.39,2.39,0,0,1-1.81-.52h-.13a2.29,2.29,0,0,1-1.79.52c-2.31,0-3.93-3.93-3.93-6.06,0-2.5,1.61-4.47,3.67-4.47a3.51,3.51,0,0,1,2,.45H21a3.57,3.57,0,0,1,2-.45c2.06,0,3.67,2,3.67,4.47C26.6,17.18,25,21.11,22.67,21.11Zm-1.86-1.48a.89.89,0,0,1,.69.25c.15.13.31.28,1.17.28,1.41,0,3-3.05,3-5.11s-1.19-3.51-2.72-3.51a2.7,2.7,0,0,0-1.63.39l-.1.06h-.78l-.11-.06a2.65,2.65,0,0,0-1.63-.39c-1.52,0-2.72,1.54-2.72,3.51s1.57,5.11,3,5.11c.86,0,1-.15,1.17-.28A.89.89,0,0,1,20.81,19.63Z"/><ellipse class="cls-2" cx="22.65" cy="8.57" rx="1.97" ry="0.62" transform="translate(0.57 18.53) rotate(-45)"/><path d="M21.6,14.36a.88.88,0,0,0-.79.42.87.87,0,0,0-.78-.42.76.76,0,0,0-.83.74A1.62,1.62,0,0,0,20,16.26a5.67,5.67,0,0,0,.79.47h.08c.06,0,1.57-.87,1.57-1.69A.74.74,0,0,0,21.6,14.36Z"/><path d="M20.57,10.73h-.05a.32.32,0,0,1-.26-.36,1.82,1.82,0,0,0-1.34-2,.31.31,0,0,1-.2-.39.31.31,0,0,1,.39-.2,2.43,2.43,0,0,1,1.76,2.72A.3.3,0,0,1,20.57,10.73Z"/><text class="cls-3" transform="translate(28.85 20.63) scale(0.58)">T<tspan class="cls-4" x="10.87" y="0">eache</tspan><tspan class="cls-5" x="77.02" y="0">r</tspan><tspan class="cls-6" x="85.25" y="0">Vision</tspan></text><text class="cls-7" transform="translate(117.34 13.62) scale(0.58)">®</text></svg>