<svg xmlns="http://www.w3.org/2000/svg" viewBox="0 0 379.91 102.05"><defs><style>.cls-1{fill:#0156a4;}</style></defs><title>LOGO-CASE</title><g id="NSD_-_Partners" data-name="NSD - Partners"><path class="cls-1" d="M96.16,64.67,95.5,36.55A4.26,4.26,0,0,0,92,32.6l-8-1.2a10.54,10.54,0,0,0-18.53-2.8L54.54,27c-1.9-.28-3.44,1.48-3.44,3.94V41.05L45.81,43s-2.42.89-1.34,4.19l6.47,21.65a4,4,0,0,0,1.47,2,2.81,2.81,0,0,0,2.19.82l38.14-3.28A3.72,3.72,0,0,0,96.16,64.67ZM74,27.46a7.32,7.32,0,0,1,6.15,3.36L69.31,29.18A7.27,7.27,0,0,1,74,27.46Zm2.27,36.95c-9.41,0-15.26-6.1-15.26-14,0-9,6.9-13.8,15-13.8,7.91,0,11.66,3.75,13.66,7.15l-3.5,2C85,44,82.56,40.1,76,40.1c-5.4,0-11,3.1-11,10.75C65.05,56.61,70,61,76.36,61c4.25,0,7.9-1.25,10.65-6l3.5,1.95C88.21,60.91,84.41,64.41,76.26,64.41Z"/><path class="cls-1" d="M110.57,64.41a23.51,23.51,0,0,0,13.05-3.95,14.31,14.31,0,0,0,.51,3.15h4.05a20.92,20.92,0,0,1-.45-4V45.1c0-6.7-6.81-8.45-12.76-8.45-9.1,0-12,3.75-13.45,5.6l3,2.1c1.3-1.5,3.75-4.4,10.7-4.4,4.15,0,8.41,1.35,8.41,4.9v1c-10.21,1.2-23.77,1.55-23.77,10.61C99.91,63.21,106.27,64.41,110.57,64.41Zm13.11-15.26V57c-2.61,1.4-7.66,4.1-13.31,4.1-2,0-6.6-.55-6.6-4.65C103.77,51.4,111.77,50.3,123.68,49.15Z"/><path class="cls-1" d="M146.88,61A14.43,14.43,0,0,1,135,55.46l-3,2.75c3.9,4.55,8.7,6.2,14.51,6.2,6.7,0,12.6-2.2,12.6-8.2,0-11.21-21.76-5.11-21.76-11.86,0-2.75,2.7-4.25,7.5-4.25,5.16,0,8.51,1.95,10.66,4.7l2.75-2.5c-1.35-1.9-4.55-5.65-13.36-5.65-5.5,0-11.6,2-11.6,8,0,10.8,21.76,4.5,21.76,11.91C155.09,59.61,151.19,61,146.88,61Z"/><path class="cls-1" d="M177.05,61c-6.81,0-10.76-4.7-11.16-9.61H191.6c.2-10.35-7.1-14.7-15.45-14.7-8.06,0-14.31,5.45-14.31,13.75,0,8,6,14,14.81,14s11.5-3.4,14.2-6.25l-3.15-2.3C186.05,57.91,183.8,61,177.05,61ZM176.5,40.1c6.2,0,9.9,3.5,10.7,7.8H166C167.19,43.1,170.54,40.1,176.5,40.1Z"/><path class="cls-1" d="M25.66,84.05c-1.95,0-2.95-1.1-2.95-2.58a2.58,2.58,0,0,1,2.88-2.84,2.66,2.66,0,0,1,2.68,1.5l.67-.31A3.47,3.47,0,0,0,25.58,78c-2.17,0-3.67,1.18-3.67,3.39,0,1.87,1.18,3.37,3.68,3.37A3.52,3.52,0,0,0,29,82.87l-.69-.34A2.82,2.82,0,0,1,25.66,84.05Z"/><path class="cls-1" d="M33.56,78c-2.19,0-3.77,1.27-3.77,3.42s1.91,3.34,3.77,3.34,3.78-1,3.78-3.34S35.75,78,33.56,78Zm0,6.07a2.72,2.72,0,1,1,0-5.42,2.72,2.72,0,1,1,0,5.42Z"/><path class="cls-1" d="M44.46,81.93c0,1.48-1,2.15-2.53,2.15s-2.54-.67-2.54-2.15V78.14h-.78v3.79c0,2.33,1.82,2.81,3.32,2.81s3.31-.48,3.31-2.81V78.14h-.78Z"/><path class="cls-1" d="M62,82.87l-.69-.34a2.83,2.83,0,0,1-2.7,1.52c-2,0-3-1.1-3-2.58a2.59,2.59,0,0,1,2.88-2.84,2.68,2.68,0,0,1,2.69,1.5l.67-.31A3.47,3.47,0,0,0,58.55,78c-2.17,0-3.67,1.18-3.67,3.39,0,1.87,1.18,3.37,3.68,3.37A3.53,3.53,0,0,0,62,82.87Z"/><rect class="cls-1" x="63.2" y="78.14" width="0.78" height="6.44"/><polygon class="cls-1" points="65.66 78.14 65.66 84.58 71.53 84.58 71.53 83.89 66.44 83.89 66.44 78.14 65.66 78.14"/><path class="cls-1" d="M82.87,81.4c0-2.15-1.58-3.42-3.77-3.42s-3.78,1.27-3.78,3.42,1.92,3.34,3.78,3.34S82.87,83.69,82.87,81.4Zm-6.75-.14a3,3,0,1,1,3,2.79A2.7,2.7,0,0,1,76.12,81.26Z"/><polygon class="cls-1" points="84.9 81.56 89.21 81.56 89.21 80.87 84.9 80.87 84.9 78.83 90.01 78.83 90.01 78.14 84.12 78.14 84.12 84.58 84.9 84.58 84.9 81.56"/><path class="cls-1" d="M96.35,78.14,93,84.58h.87l.84-1.67H98.9l.84,1.67h.88l-3.31-6.44ZM95.1,82.21l1.73-3.46,1.73,3.46Z"/><path class="cls-1" d="M104.79,78.14h-3.18v6.44h2.93c1.7,0,3.7-.65,3.7-3.28C108.24,79.19,106.79,78.14,104.79,78.14Zm-.12,5.75h-2.28V78.83h2.4c1.31,0,2.65.56,2.65,2.45A2.46,2.46,0,0,1,104.67,83.89Z"/><polygon class="cls-1" points="113.08 83.56 110.69 78.14 109.49 78.14 109.49 84.58 110.2 84.58 110.2 78.83 110.22 78.83 112.76 84.58 113.41 84.58 115.93 78.83 115.95 78.83 115.95 84.58 116.67 84.58 116.67 78.14 115.46 78.14 113.08 83.56"/><rect class="cls-1" x="118.35" y="78.14" width="0.78" height="6.44"/><polygon class="cls-1" points="127.49 78.14 126.71 78.14 126.71 83.44 121.92 78.14 120.81 78.14 120.81 84.58 121.56 84.58 121.56 78.83 126.71 84.58 127.49 84.58 127.49 78.14"/><polygon class="cls-1" points="53.63 78.14 52.86 78.14 52.86 83.44 48.06 78.14 46.95 78.14 46.95 84.58 47.7 84.58 47.7 78.83 52.86 84.58 53.63 84.58 53.63 78.14"/><rect class="cls-1" x="129.18" y="78.14" width="0.78" height="6.44"/><path class="cls-1" d="M134.63,84.05a3.16,3.16,0,0,1-2.93-1.31l-.6.51a4,4,0,0,0,3.44,1.49c2.19,0,3.23-.89,3.23-2,0-2.89-5.61-1-5.61-3,0-.82.91-1.16,2.2-1.16A3,3,0,0,1,137,79.76l.57-.46A3.83,3.83,0,0,0,134.38,78c-1.76,0-3,.56-3,1.93,0,2.61,5.62.89,5.62,2.85C137,83.77,135.62,84.05,134.63,84.05Z"/><polygon class="cls-1" points="142.25 84.58 142.25 78.83 145.36 78.83 145.36 78.14 138.36 78.14 138.36 78.83 141.47 78.83 141.47 84.58 142.25 84.58"/><path class="cls-1" d="M152.74,84.58l-2.12-2.87a1.89,1.89,0,0,0,2-1.77c0-1.58-1.51-1.8-2.54-1.8h-3.72v6.44h.78V81.73h2.53l2.08,2.85ZM147.17,81V78.83h2.76c1.13,0,2,.16,2,1.1s-.84,1.11-2,1.11Z"/><path class="cls-1" d="M156.89,78.14l-3.31,6.44h.86l.85-1.67h4.15l.84,1.67h.87l-3.3-6.44Zm-1.25,4.07,1.73-3.46,1.73,3.46Z"/><polygon class="cls-1" points="163.5 84.58 164.28 84.58 164.28 78.83 167.39 78.83 167.39 78.14 160.39 78.14 160.39 78.83 163.5 78.83 163.5 84.58"/><path class="cls-1" d="M171.44,78c-2.19,0-3.77,1.27-3.77,3.42s1.91,3.34,3.77,3.34,3.78-1,3.78-3.34S173.63,78,171.44,78Zm0,6.07a2.72,2.72,0,1,1,3-2.79A2.68,2.68,0,0,1,171.44,84.05Z"/><path class="cls-1" d="M182.72,79.94c0-1.58-1.5-1.8-2.53-1.8h-3.72v6.44h.78V81.73h2.53l2.08,2.85h1l-2.13-2.87A1.89,1.89,0,0,0,182.72,79.94ZM177.25,81V78.83H180c1.13,0,2,.16,2,1.1S181.14,81,180,81Z"/><path class="cls-1" d="M184.86,79.79c0-.82.91-1.16,2.21-1.16a3.06,3.06,0,0,1,2.64,1.13l.56-.46A3.81,3.81,0,0,0,187.08,78c-1.75,0-3,.56-3,1.93,0,2.61,5.62.89,5.62,2.85,0,1-1.35,1.29-2.35,1.29a3.12,3.12,0,0,1-2.92-1.31l-.6.51a4,4,0,0,0,3.43,1.49c2.19,0,3.24-.89,3.24-2C190.48,79.87,184.86,81.74,184.86,79.79Z"/><path class="cls-1" d="M62.27,90.64c-2.19,0-3.78,1.28-3.78,3.42s1.92,3.34,3.78,3.34S66,96.35,66,94.06,64.46,90.64,62.27,90.64Zm0,6.07a2.72,2.72,0,1,1,3-2.79A2.68,2.68,0,0,1,62.27,96.71Z"/><polygon class="cls-1" points="67.29 97.25 68.07 97.25 68.07 94.22 72.38 94.22 72.38 93.53 68.07 93.53 68.07 91.49 73.18 91.49 73.18 90.8 67.29 90.8 67.29 97.25"/><path class="cls-1" d="M77.9,92.45c0-.81.91-1.15,2.21-1.15a3.06,3.06,0,0,1,2.64,1.12l.57-.46a3.85,3.85,0,0,0-3.2-1.32c-1.75,0-3,.56-3,1.93,0,2.62,5.62.9,5.62,2.86,0,1-1.36,1.28-2.35,1.28a3.1,3.1,0,0,1-2.92-1.31l-.6.52a4,4,0,0,0,3.43,1.49c2.19,0,3.24-.9,3.24-2C83.52,92.54,77.9,94.4,77.9,92.45Z"/><path class="cls-1" d="M88.53,90.8H84.76v6.45h.78V94.5h3c1.31,0,2.49-.37,2.49-1.85S89.84,90.8,88.53,90.8Zm-.2,3H85.54V91.49h2.79c1.29,0,2,.28,2,1.16S89.62,93.81,88.33,93.81Z"/><polygon class="cls-1" points="92.91 94.24 97.06 94.24 97.06 93.55 92.91 93.55 92.91 91.49 97.88 91.49 97.88 90.8 92.13 90.8 92.13 97.25 97.98 97.25 97.98 96.55 92.91 96.55 92.91 94.24"/><path class="cls-1" d="M102.34,96.71c-2,0-3-1.1-3-2.58a2.58,2.58,0,0,1,2.88-2.83A2.66,2.66,0,0,1,105,92.8l.67-.31a3.47,3.47,0,0,0-3.37-1.85c-2.17,0-3.67,1.18-3.67,3.4,0,1.87,1.18,3.37,3.68,3.37a3.53,3.53,0,0,0,3.46-1.88L105,95.2A2.84,2.84,0,0,1,102.34,96.71Z"/><rect class="cls-1" x="106.91" y="90.8" width="0.78" height="6.44"/><path class="cls-1" d="M112,90.8l-3.31,6.45h.87l.84-1.68h4.16l.83,1.68h.88L113,90.8Zm-1.25,4.08,1.73-3.47,1.73,3.47Z"/><polygon class="cls-1" points="118.03 90.8 117.25 90.8 117.25 97.25 123.12 97.25 123.12 96.55 118.03 96.55 118.03 90.8"/><polygon class="cls-1" points="128.12 94.24 132.27 94.24 132.27 93.55 128.12 93.55 128.12 91.49 133.09 91.49 133.09 90.8 127.34 90.8 127.34 97.25 133.19 97.25 133.19 96.55 128.12 96.55 128.12 94.24"/><path class="cls-1" d="M137.42,90.8h-3.18v6.45h2.93c1.7,0,3.7-.66,3.7-3.28C140.87,91.86,139.42,90.8,137.42,90.8Zm-.12,5.75H135V91.49h2.4c1.31,0,2.65.56,2.65,2.45A2.46,2.46,0,0,1,137.3,96.55Z"/><path class="cls-1" d="M148,94.6c0,1.48-.94,2.15-2.53,2.15s-2.54-.67-2.54-2.15V90.8h-.78v3.8c0,2.33,1.82,2.81,3.32,2.81s3.31-.48,3.31-2.81V90.8H148Z"/><path class="cls-1" d="M153.8,96.71c-2,0-3-1.1-3-2.58a2.58,2.58,0,0,1,2.88-2.83,2.65,2.65,0,0,1,2.68,1.5l.67-.31a3.46,3.46,0,0,0-3.36-1.85c-2.17,0-3.67,1.18-3.67,3.4,0,1.87,1.18,3.37,3.68,3.37a3.52,3.52,0,0,0,3.45-1.88l-.69-.33A2.83,2.83,0,0,1,153.8,96.71Z"/><path class="cls-1" d="M161,90.8l-3.31,6.45h.87l.84-1.68h4.16l.83,1.68h.88l-3.31-6.45Zm-1.24,4.08,1.72-3.47,1.73,3.47Z"/><polygon class="cls-1" points="164.49 91.49 167.6 91.49 167.6 97.25 168.38 97.25 168.38 91.49 171.49 91.49 171.49 90.8 164.49 90.8 164.49 91.49"/><rect class="cls-1" x="172.51" y="90.8" width="0.78" height="6.44"/><path class="cls-1" d="M178.32,90.64c-2.19,0-3.78,1.28-3.78,3.42s1.92,3.34,3.78,3.34,3.78-1.05,3.78-3.34S180.51,90.64,178.32,90.64Zm0,6.07a2.72,2.72,0,1,1,3-2.79A2.68,2.68,0,0,1,178.32,96.71Z"/><polygon class="cls-1" points="189.25 96.1 184.45 90.8 183.34 90.8 183.34 97.25 184.09 97.25 184.09 91.49 189.25 97.25 190.03 97.25 190.03 90.8 189.25 90.8 189.25 96.1"/><polygon class="cls-1" points="23.22 68.5 26.59 65.51 26.49 65.02 22.26 63.71 22.37 64.26 26.04 65.38 23.11 67.94 23.22 68.5"/><polygon class="cls-1" points="22.07 62.3 22.13 62.81 25.99 62.34 25.93 61.83 22.07 62.3"/><path class="cls-1" d="M23,61.06c1.58-.09.3-3.72,1.48-3.79.6,0,.83.85.87,1.5a2.11,2.11,0,0,1-.66,2l.34.37a2.71,2.71,0,0,0,.74-2.31c-.09-1.43-.68-2.09-1.33-2-1.74.1-.37,3.72-1.55,3.79-.49,0-.73-.55-.79-1.4a2.08,2.08,0,0,1,.57-1.78L22.38,57a2.59,2.59,0,0,0-.65,2.14C21.81,60.3,22.2,61.11,23,61.06Z"/><polygon class="cls-1" points="25.57 55.38 21.68 55.24 21.67 55.75 25.56 55.89 25.57 55.38"/><path class="cls-1" d="M23.66,54.32c1.37.17,2.12-1,2.23-2.21a2.27,2.27,0,0,0-1.78-2.72c-1.28-.17-2.15.77-2.28,2.2A2.26,2.26,0,0,0,23.66,54.32ZM24,49.9a1.78,1.78,0,0,1,1.5,2.16c-.1,1-.68,1.88-1.86,1.73a1.79,1.79,0,0,1-1.39-2.15C22.34,50.42,23.12,49.78,24,49.9Z"/><polygon class="cls-1" points="26.25 48.32 22.87 47.35 26.98 45.04 27.09 44.55 23.32 43.47 23.2 43.96 26.31 44.85 22.52 47.01 22.36 47.71 26.14 48.79 26.25 48.32"/><path class="cls-1" d="M27.64,38.54a.38.38,0,0,0-.16-.47.31.31,0,0,0-.43.17.37.37,0,0,0,.16.46A.31.31,0,0,0,27.64,38.54Z"/><polygon class="cls-1" points="33.35 30.83 33 30.57 31.32 33.34 28.42 31.21 28.16 31.64 31.42 34.02 33.35 30.83"/><polygon class="cls-1" points="35.86 27.34 35.53 27.04 33.62 29.61 32.53 28.63 34.1 26.54 33.77 26.25 32.2 28.34 31.23 27.47 33.11 24.97 32.78 24.68 30.62 27.58 33.65 30.29 35.86 27.34"/><path class="cls-1" d="M39.19,23.64,35,22.16l-.4.44L36,27.14l.37-.4L36,25.57l1.75-1.92,1.07.39Zm-3.34,1.44-.77-2.41,2.22.81Z"/><path class="cls-1" d="M41,22a2.21,2.21,0,0,0,.41-3.21,1.75,1.75,0,0,0-2.82-.16l-1.46,1.32,2.52,3.28Zm-2.14-3a1.33,1.33,0,0,1,2.17.13,1.69,1.69,0,0,1-.25,2.49l-1,.95-2-2.57Z"/><polygon class="cls-1" points="46.16 17.78 45.92 17.41 43.42 19.28 42.62 18.02 44.66 16.49 44.42 16.12 42.38 17.65 41.66 16.53 44.1 14.7 43.86 14.32 41.03 16.45 43.28 19.95 46.16 17.78"/><path class="cls-1" d="M47.13,17.2l-.87-1.64,1.33-.81,1.94,1,.51-.3-2-1a1.26,1.26,0,0,0,.52-1.66c-.48-.91-1.33-.55-1.87-.22l-1.94,1.19,1.95,3.7Zm-1.74-3.31L46.83,13c.59-.36,1.07-.54,1.36,0s-.1.91-.69,1.27l-1.44.88Z"/><path class="cls-1" d="M53.29,12.42c.26.6-.41,1.13-.95,1.4a1.75,1.75,0,0,1-1.94,0l-.2.47a2.24,2.24,0,0,0,2.26,0c1.2-.59,1.54-1.4,1.27-2-.74-1.74-3.34.88-3.83-.29-.21-.49.2-.94.91-1.28a1.7,1.7,0,0,1,1.73,0l.19-.43a2.11,2.11,0,0,0-2.08.06c-1,.47-1.51,1.14-1.16,2C50.16,13.78,52.79,11.24,53.29,12.42Z"/><polygon class="cls-1" points="55.34 12.82 54.71 10.94 57.59 9.86 58.21 11.74 58.65 11.57 57.33 7.56 56.88 7.73 57.45 9.43 54.57 10.51 54.01 8.81 53.56 8.98 54.89 12.98 55.34 12.82"/><polygon class="cls-1" points="60.08 11.11 58.92 7.05 58.47 7.19 59.63 11.26 60.08 11.11"/><path class="cls-1" d="M61.51,10.68l-.39-1.76,1.76-.43c.76-.18,1.41-.59,1.19-1.54s-.95-1-1.72-.83l-2.21.54.92,4.13ZM60.7,7l1.63-.4c.76-.18,1.18-.1,1.31.47s-.22.83-1,1L61,8.48Z"/><path class="cls-1" d="M69.46,7.67a.34.34,0,0,0,.28-.38A.33.33,0,0,0,69.39,7a.34.34,0,0,0-.28.38A.33.33,0,0,0,69.46,7.67Z"/><polygon class="cls-1" points="78.51 8.52 75.45 8.44 75.46 6.92 77.96 6.98 77.96 6.53 75.46 6.46 75.47 5.11 78.46 5.19 78.47 4.74 75 4.64 74.98 8.88 78.51 8.97 78.51 8.52"/><polygon class="cls-1" points="79.3 9.04 81.03 7.4 82.41 9.42 83.03 9.5 81.36 7.08 83.28 5.27 82.65 5.2 81.08 6.69 79.82 4.84 79.19 4.77 80.74 7.01 78.67 8.96 79.3 9.04"/><path class="cls-1" d="M85.48,10.08a2,2,0,0,0,2.24-.81L87.34,9a1.61,1.61,0,0,1-1.75.66,1.71,1.71,0,0,1-1.51-2,1.55,1.55,0,0,1,2-1.49,1.69,1.69,0,0,1,1.45,1.28L88,7.29A2.19,2.19,0,0,0,86.13,5.7a1.94,1.94,0,0,0-2.51,1.77A2.17,2.17,0,0,0,85.48,10.08Z"/><polygon class="cls-1" points="91.77 11.22 88.8 10.33 89.15 8.87 91.57 9.59 91.67 9.15 89.25 8.43 89.56 7.13 92.46 7.99 92.56 7.55 89.2 6.55 88.24 10.63 91.66 11.65 91.77 11.22"/><polygon class="cls-1" points="95.64 13.26 95.78 12.83 92.89 11.66 94.04 8.12 93.6 7.94 92.3 11.91 95.64 13.26"/><polygon class="cls-1" points="99.59 14.71 96.77 13.32 98.15 9.88 97.71 9.67 96.17 13.53 99.43 15.12 99.59 14.71"/><polygon class="cls-1" points="103.25 17 100.57 15.35 101.23 14.03 103.43 15.38 103.63 14.98 101.43 13.63 102.03 12.46 104.66 14.07 104.85 13.68 101.81 11.81 99.95 15.49 103.05 17.39 103.25 17"/><polygon class="cls-1" points="103.95 18.03 105.89 14.93 106.53 19.97 106.93 20.27 109.09 16.79 108.7 16.5 106.92 19.36 106.3 14.69 105.75 14.28 103.58 17.75 103.95 18.03"/><path class="cls-1" d="M109.18,22.48a2,2,0,0,0,2.31.6l-.18-.47a1.63,1.63,0,0,1-1.83-.44,1.8,1.8,0,0,1-.33-2.56,1.48,1.48,0,0,1,2.43-.12,1.85,1.85,0,0,1,.64,1.91l.43.14a2.45,2.45,0,0,0-.81-2.38,1.87,1.87,0,0,0-3,.06A2.28,2.28,0,0,0,109.18,22.48Z"/><polygon class="cls-1" points="113.74 27.27 114.04 26.96 111.94 24.51 112.94 23.48 114.67 25.49 114.97 25.18 113.25 23.17 114.15 22.26 116.21 24.66 116.51 24.36 114.13 21.57 111.31 24.44 113.74 27.27"/></g></svg>