<svg xmlns="http://www.w3.org/2000/svg" xmlns:xlink="http://www.w3.org/1999/xlink" viewBox="0 0 379.91 102.05"><defs><style>.cls-1,.cls-11,.cls-14{fill:none;}.cls-2{isolation:isolate;}.cls-3{clip-path:url(#clip-path);}.cls-4{opacity:0.15;mix-blend-mode:multiply;}.cls-5{clip-path:url(#clip-path-2);}.cls-6{clip-path:url(#clip-path-3);}.cls-7{fill:#221f1f;}.cls-8{fill:#2d5985;}.cls-9{fill:#326497;}.cls-10{fill:#5091cd;}.cls-11{stroke:#5091cd;stroke-width:1.08px;}.cls-12{fill:#fff;}.cls-13{clip-path:url(#clip-path-4);}.cls-14{stroke:#7cb9e4;stroke-width:2.36px;}.cls-15{clip-path:url(#clip-path-6);}.cls-16{clip-path:url(#clip-path-8);}.cls-17{clip-path:url(#clip-path-10);}.cls-18{clip-path:url(#clip-path-12);}.cls-19{clip-path:url(#clip-path-14);}.cls-20{clip-path:url(#clip-path-16);}.cls-21{clip-path:url(#clip-path-18);}.cls-22{clip-path:url(#clip-path-20);}.cls-23{clip-path:url(#clip-path-22);}.cls-24{clip-path:url(#clip-path-24);}</style><clipPath id="clip-path"><rect class="cls-1" x="17.01" y="9.57" width="305.04" height="79.39"/></clipPath><clipPath id="clip-path-2"><rect class="cls-1" x="17.02" y="12.51" width="305.04" height="76.45"/></clipPath><clipPath id="clip-path-3"><rect class="cls-1" x="17.02" y="12.51" width="305.04" height="76.45"/></clipPath><clipPath id="clip-path-4"><path class="cls-1" d="M39.24,37.3a10.85,10.85,0,0,1,1.4-.1h.2a7.57,7.57,0,0,1,1.45.17,5.16,5.16,0,0,1,1.44.57,3.93,3.93,0,0,1,1.18,1.11,3,3,0,0,1,.37.49,1.47,1.47,0,0,1,.17.54A3.2,3.2,0,0,1,45.32,42a5.19,5.19,0,0,1-1.15,1.73,7.54,7.54,0,0,1-1.84,1.37c-.39.21-.76.39-1.11.55Zm.43-12.69-.41.07-.42.07A5.19,5.19,0,0,0,38,25q-4.51.93-9,2t-9,2.13a1,1,0,0,0-.77,1.24L29.94,77.54a1,1,0,0,0,.46.65,1,1,0,0,0,.78.13l15.59-3.71a1,1,0,0,0,.77-1.24L43.39,56.3a42.89,42.89,0,0,0,4.67-1.4,26,26,0,0,0,5.41-2.69,20.2,20.2,0,0,0,4.47-4,15.73,15.73,0,0,0,2.93-5.54c.11-.4.21-.82.31-1.27s.17-1,.23-1.45a14.21,14.21,0,0,0,.07-1.45,8.55,8.55,0,0,0-.11-1.4,15.68,15.68,0,0,0-2.83-7,14.05,14.05,0,0,0-5.13-4.18,18.23,18.23,0,0,0-6.58-1.66c-.49,0-1-.06-1.48-.07h-.56a30.77,30.77,0,0,0-5.12.43"/></clipPath><clipPath id="clip-path-6"><path class="cls-1" d="M68.05,59.6a3.9,3.9,0,0,1-1.17-.75,3.19,3.19,0,0,1-.77-1.07,3.12,3.12,0,0,1-.27-1.3,3.07,3.07,0,0,1,.28-1.32,3.26,3.26,0,0,1,.76-1.07,4,4,0,0,1,1.18-.75,3.63,3.63,0,0,1,3.89.75,3.38,3.38,0,0,1,.78,1.09,3,3,0,0,1,.29,1.3,2.84,2.84,0,0,1-.3,1.29,3.44,3.44,0,0,1-.78,1.1,3.69,3.69,0,0,1-2.5,1,3.59,3.59,0,0,1-1.39-.27M62.32,41a17.83,17.83,0,0,0-5.57,3.52,17,17,0,0,0-3.83,5.3,15.84,15.84,0,0,0-1.44,6.7,15.67,15.67,0,0,0,1.44,6.67,17.26,17.26,0,0,0,3.83,5.29,17.82,17.82,0,0,0,5.57,3.5,18.23,18.23,0,0,0,13.32,0,17.78,17.78,0,0,0,5.55-3.5A17.3,17.3,0,0,0,85,63.15a15.52,15.52,0,0,0,1.44-6.67A15.69,15.69,0,0,0,85,49.78a17.06,17.06,0,0,0-3.83-5.31A17.91,17.91,0,0,0,75.64,41,17.57,17.57,0,0,0,69,39.69,17.82,17.82,0,0,0,62.32,41"/></clipPath><clipPath id="clip-path-8"><path class="cls-1" d="M99.49,53l-.39-7.27c.48,0,1,0,1.49.09a7.11,7.11,0,0,1,2.22.58,4.19,4.19,0,0,1,1.55,1.21,3.67,3.67,0,0,1,.67,2,3.17,3.17,0,0,1-.18,1.48,2.55,2.55,0,0,1-.71.94,3.62,3.62,0,0,1-1.23.6,8.43,8.43,0,0,1-1.73.31c-.44,0-.88.05-1.4.05h-.29M104.26,33a9.79,9.79,0,0,0-2,.3,14.45,14.45,0,0,0-1.82.62c-.58.23-1.15.48-1.71.76l-.19.09,0-.58a1,1,0,0,0-1-1h0l-13.12.38a1,1,0,0,0-1,1.06l1,43.27a1.09,1.09,0,0,0,.32.73,1.06,1.06,0,0,0,.71.28h0l14.44-.36a1,1,0,0,0,1-1.09l-.73-11.65c.63.16,1.25.28,1.84.38a14.61,14.61,0,0,0,2.13.16c.43,0,.86,0,1.31-.06a18.4,18.4,0,0,0,6.76-1.68,13.05,13.05,0,0,0,4.7-3.82,14.78,14.78,0,0,0,2.52-5.6,23.77,23.77,0,0,0,.43-6.95,23,23,0,0,0-.75-4.44,16.9,16.9,0,0,0-1.7-4,14,14,0,0,0-2.78-3.34,12.73,12.73,0,0,0-4-2.36,17.23,17.23,0,0,0-3-.91,12.67,12.67,0,0,0-2.29-.21c-.29,0-.59,0-1,0"/></clipPath><clipPath id="clip-path-10"><path class="cls-1" d="M134.61,11.61l-14.91.3a1.05,1.05,0,0,0-1,1.06L119,27.13l-5.16.16a1,1,0,0,0-1,1.06l.21,11a1,1,0,0,0,1,1h0l5.18-.15.44,20.12a1,1,0,0,0,1,1h0L135,61.14a1,1,0,0,0,1-1l-.17-20.4,5.54-.15a1,1,0,0,0,1-1l.3-11a1.09,1.09,0,0,0-.3-.76,1.1,1.1,0,0,0-.75-.31h0l-5.87.16-.09-14a1,1,0,0,0-.31-.74,1.08,1.08,0,0,0-.73-.29Z"/></clipPath><clipPath id="clip-path-12"><path class="cls-1" d="M153.81,34.38l-13.66.89a1,1,0,0,0-1,1.06L140,66.61a1,1,0,0,0,1,1h0l13.26-.12a1,1,0,0,0,1-1.06l-.32-20.17a2.88,2.88,0,0,1,.9-.15,1.41,1.41,0,0,1,1.32.55,2.29,2.29,0,0,1,.61,1.67,9.29,9.29,0,0,1-.12,1.5q-.15.85-.24,1.68a1,1,0,0,0,1,1.15h0l12.63-.43a1.15,1.15,0,0,0,1-1.11l.12-2.87q.06-1.51.06-3.06c0-3.28-.94-5.8-2.81-7.49a10.78,10.78,0,0,0-7.52-2.51,15.58,15.58,0,0,0-4.66.71A14.57,14.57,0,0,0,154.94,37l0-1.58a1,1,0,0,0-.33-.74,1.08,1.08,0,0,0-.71-.27Z"/></clipPath><clipPath id="clip-path-14"><path class="cls-1" d="M186.27,55.61a4.09,4.09,0,0,1-1.18-.75,3.33,3.33,0,0,1-.77-1.08,3.11,3.11,0,0,1-.27-1.29,3.18,3.18,0,0,1,.27-1.32,3.23,3.23,0,0,1,.77-1.08,4,4,0,0,1,1.18-.75,3.5,3.5,0,0,1,1.38-.27,3.39,3.39,0,0,1,1.35.27,3.79,3.79,0,0,1,1.15.74,3.51,3.51,0,0,1,.79,1.1,3.13,3.13,0,0,1,0,2.59,3.63,3.63,0,0,1-.79,1.1,3.56,3.56,0,0,1-1.15.74,3.46,3.46,0,0,1-1.35.27,3.57,3.57,0,0,1-1.38-.27M180.52,37A18.08,18.08,0,0,0,175,40.48a17.15,17.15,0,0,0-3.82,5.3,15.76,15.76,0,0,0-1.44,6.71,15.57,15.57,0,0,0,1.44,6.66A17.14,17.14,0,0,0,175,64.44a18,18,0,0,0,24.44,0,17.18,17.18,0,0,0,3.83-5.29,15.65,15.65,0,0,0,1.44-6.66,15.85,15.85,0,0,0-1.44-6.71,17.11,17.11,0,0,0-3.83-5.3A18,18,0,0,0,180.52,37"/></clipPath><clipPath id="clip-path-16"><path class="cls-1" d="M217.63,47.48l-.38,0-.18-7.27c.49,0,1,.07,1.5.13a7.23,7.23,0,0,1,2.2.64,4.12,4.12,0,0,1,1.51,1.26,3.61,3.61,0,0,1,.62,2.05,3.13,3.13,0,0,1-.23,1.46,2.23,2.23,0,0,1-.74.91,3.52,3.52,0,0,1-1.25.58,8.28,8.28,0,0,1-1.73.25l-.81,0Zm5.65-19.94c-.17,0-.34,0-.66,0a9.34,9.34,0,0,0-2,.24,14.79,14.79,0,0,0-1.83.55c-.58.21-1.16.46-1.74.71l-.19.09v-.59a1,1,0,0,0-1-1H202.69a1,1,0,0,0-1,1l-.25,43.29a1,1,0,0,0,.29.73,1,1,0,0,0,.74.3l14.43.07h0a1,1,0,0,0,.73-.31,1,1,0,0,0,.29-.75l-.38-11.66c.62.17,1.23.32,1.83.43a15.35,15.35,0,0,0,2.7.23l.74,0a18.36,18.36,0,0,0,6.81-1.49,13,13,0,0,0,4.81-3.67,14.66,14.66,0,0,0,2.68-5.52,23.66,23.66,0,0,0,.65-6.94,23.06,23.06,0,0,0-.63-4.45,17,17,0,0,0-1.58-4.08,13.84,13.84,0,0,0-2.67-3.43,13,13,0,0,0-3.9-2.48,16.51,16.51,0,0,0-3-1,11.62,11.62,0,0,0-2.62-.29h0"/></clipPath><clipPath id="clip-path-18"><path class="cls-1" d="M247.69,12.34a9.5,9.5,0,0,0-3.42,1.49,8.88,8.88,0,0,0-2.53,2.71,9.7,9.7,0,0,0-1.27,3.81,9.13,9.13,0,0,0,.31,3.92,7.72,7.72,0,0,0,1.8,3.06,9.1,9.1,0,0,0,2.92,2,13,13,0,0,0,3.66,1,11.4,11.4,0,0,0,1.45.09,13.62,13.62,0,0,0,2.25-.2A12,12,0,0,0,256.43,29a9.12,9.12,0,0,0,2.87-2.4,7.38,7.38,0,0,0,1.51-3.69,10.68,10.68,0,0,0-.27-4.29,8.24,8.24,0,0,0-1.84-3.29,9.39,9.39,0,0,0-3.11-2.13,14.5,14.5,0,0,0-4-1.05,12.08,12.08,0,0,0-1.47-.09,10.84,10.84,0,0,0-2.43.27"/></clipPath><clipPath id="clip-path-20"><path class="cls-1" d="M238.16,32.75a1,1,0,0,0-.4.8l-.22,27.6a1,1,0,0,0,1,1.05l12.57.69h.06a1,1,0,0,0,1-.9l3.16-24.47a1,1,0,0,0-.78-1.14L239,32.56a1,1,0,0,0-.25,0,1,1,0,0,0-.63.22"/></clipPath><clipPath id="clip-path-22"><path class="cls-1" d="M267.88,36.12A18.74,18.74,0,0,0,261.43,39a18.26,18.26,0,0,0-4.9,5.08,17.86,17.86,0,0,0-2.63,6.9,16,16,0,0,0,.4,7.33,17,17,0,0,0,3.29,6A19.12,19.12,0,0,0,263,68.68,22,22,0,0,0,269.88,71a30.69,30.69,0,0,0,4.91.4l.93,0a19.62,19.62,0,0,0,5.89-1,1,1,0,0,0,.7-1.11L280.8,57.9a1,1,0,0,0-.43-.7,1,1,0,0,0-.6-.2.69.69,0,0,0-.2,0c-.42.08-.87.15-1.36.21s-1,.1-1.52.12H276l-.79,0a11.32,11.32,0,0,1-1.37-.14,5.56,5.56,0,0,1-1.56-.49,3.94,3.94,0,0,1-1.2-.87,3,3,0,0,1-.71-1.16,3.08,3.08,0,0,1-.08-1.47,2.51,2.51,0,0,1,.5-1.2,3.11,3.11,0,0,1,1-.82,3.77,3.77,0,0,1,1.36-.41,4.87,4.87,0,0,1,.66,0,7.12,7.12,0,0,1,.92.07,8.74,8.74,0,0,1,2.39.8,10.11,10.11,0,0,1,2.12,1.43,1.09,1.09,0,0,0,.69.26H280a1,1,0,0,0,.72-.43l6.43-9a1,1,0,0,0,0-1.22,13.2,13.2,0,0,0-2.39-2.46,21.69,21.69,0,0,0-6.25-3.4,19.46,19.46,0,0,0-3.29-.85,20,20,0,0,0-3.16-.26,18,18,0,0,0-4.15.48"/></clipPath><clipPath id="clip-path-24"><path class="cls-1" d="M301.75,62.78c-.45-.06-.89-.13-1.33-.22a9.5,9.5,0,0,1-1.74-.51,4.25,4.25,0,0,1-1.27-.74,2.48,2.48,0,0,1-.68-1,2.76,2.76,0,0,1,0-1.5,3.21,3.21,0,0,1,.85-1.74,3.92,3.92,0,0,1,1.61-.92,6.14,6.14,0,0,1,1.67-.26h.47a16.69,16.69,0,0,1,1.85.17l-1,6.78-.38,0m-5.07-20.53h-.28a17.89,17.89,0,0,0-3.12.42,16.05,16.05,0,0,0-4.4,1.66,13.5,13.5,0,0,0-3.42,2.77,14.91,14.91,0,0,0-2.41,3.68,20.44,20.44,0,0,0-1.44,4.44l-.09.48-.07.33a5.93,5.93,0,0,0-.11.91,16.34,16.34,0,0,0,1.32,9.1,14.73,14.73,0,0,0,6.54,6.37,22.73,22.73,0,0,0,2.44,1.17,14.22,14.22,0,0,0,2.65.8,20.8,20.8,0,0,0,3.76.41q.33,0,.66,0a12.81,12.81,0,0,0,1.64-.14,1,1,0,0,0,.83,1l12.53,2.64.24,0a1.19,1.19,0,0,0,.57-.18,1.15,1.15,0,0,0,.43-.7l4.89-31.36a1,1,0,0,0-.84-1.18L306.25,42.7h-.2a1,1,0,0,0-.59.2,1,1,0,0,0-.41.69l-.11.73c-.57-.28-1.15-.54-1.74-.79a17.5,17.5,0,0,0-3.26-1l-.35-.07a16.72,16.72,0,0,0-2.54-.2h-.37"/></clipPath></defs><title>LOGO-Poptropica</title><g class="cls-2"><g id="NSD_-_Partners" data-name="NSD - Partners"><g class="cls-3"><g class="cls-4"><g class="cls-5"><g class="cls-6"><path class="cls-7" d="M322,49.21a6.62,6.62,0,0,0-.14-.9h0a3.09,3.09,0,0,0-2.48-2.48l-12.82-2.19-.11,0H306a3,3,0,0,0-1.7.55h0l0,0a2.71,2.71,0,0,0-.41.35,20.32,20.32,0,0,0-3.52-1.06h0L300,43.4l-.08,0a18,18,0,0,0-2.85-.23h-.74a20.11,20.11,0,0,0-3.47.46,18.46,18.46,0,0,0-3.76,1.26,3.76,3.76,0,0,0-.32-.55A15.16,15.16,0,0,0,286,41.5a22.05,22.05,0,0,0-3.25-2.15h0a23.55,23.55,0,0,0-3.56-1.56h0a21.66,21.66,0,0,0-3.62-.93h0a21.64,21.64,0,0,0-3.46-.29,19.9,19.9,0,0,0-4.57.53l-.08,0a20.85,20.85,0,0,0-7.09,3.13h0A20.21,20.21,0,0,0,257.05,43l.3-2.28c0-.13,0-.27,0-.4a3.07,3.07,0,0,0-.32-1.37l.08,0a10.49,10.49,0,0,0,3.34-2.79l0,0a8.78,8.78,0,0,0,1.78-4.37v0c.09-.78.34-3.4.53-5.46v-.15h0c0-.13.11-1.22.11-1.8A11.88,11.88,0,0,0,262.5,21v0a10.24,10.24,0,0,0-2.31-4.08l0,0a11.33,11.33,0,0,0-3.73-2.57h0a16.72,16.72,0,0,0-4.55-1.2,13.94,13.94,0,0,0-1.72-.1,12.59,12.59,0,0,0-2.83.31l-.1,0a11.55,11.55,0,0,0-4.05,1.77l-.07,0a11.14,11.14,0,0,0-3.07,3.3v0a11.45,11.45,0,0,0-1.54,4.6,49.37,49.37,0,0,0,.32,6.73,20,20,0,0,0,.59,3.55v0l0,.14a3.18,3.18,0,0,0-.62-.06,3.11,3.11,0,0,0-1.87.64l0,0a3.12,3.12,0,0,0-.73.81,15.62,15.62,0,0,0-1.92-2.15,14.83,14.83,0,0,0-4.45-2.85l-.06,0a17.8,17.8,0,0,0-3.36-1.09,13.63,13.63,0,0,0-3.07-.35l-.78,0a11.1,11.1,0,0,0-2.34.28h-.07a16.41,16.41,0,0,0-2,.6h0l-.06,0a3,3,0,0,0-2.21-.95H202.7a3.09,3.09,0,0,0-3.07,3.05l-.06,9.39a20,20,0,0,0-5-2.87,20,20,0,0,0-14.81,0h0a20.05,20.05,0,0,0-6.17,3.89l0,0-.32.31A9.75,9.75,0,0,0,171,39.17h0l0,0h0a12.75,12.75,0,0,0-8.86-3,17.21,17.21,0,0,0-5.26.81h0l-.16,0a3,3,0,0,0-.63-.84l-.05-.05a3.08,3.08,0,0,0-2.06-.79h-.17l-9.14.59.14-5.36v-.07a3.07,3.07,0,0,0-3.07-3.08h-.06l-3.81.1-.07-11.91a3,3,0,0,0-.93-2.17h0l0,0a3.11,3.11,0,0,0-2.11-.85h0l-14.95.31h0a3.06,3.06,0,0,0-3,3.07V16l.24,12.15-3.14.09a3.08,3.08,0,0,0-3,3.08v.05l.07,3.55a18.42,18.42,0,0,0-2.86-.79,14.31,14.31,0,0,0-2.68-.26c-.3,0-.67,0-1.2.06a11.14,11.14,0,0,0-2.33.35h0a16,16,0,0,0-2,.69h0a3,3,0,0,0-2.14-.89h-.09l-13.13.38a3,3,0,0,0-3,3.07v.07L81.48,45a19.9,19.9,0,0,0-5.08-3h0A19.55,19.55,0,0,0,69,40.59a19.82,19.82,0,0,0-5.48.77,9.34,9.34,0,0,0-.14-1.63v0a17.64,17.64,0,0,0-3.21-7.91l0,0A16,16,0,0,0,54.28,27l0,0A20.33,20.33,0,0,0,47,25.16h0c-.52,0-1-.06-1.58-.07h-.61a33.51,33.51,0,0,0-5.45.46l-.43.08-.4.06c-.34.06-.69.14-1,.23-3.08.65-6.11,1.31-9,2h0c-2.82.64-5.77,1.33-9,2.12l-.06,0a3,3,0,0,0-2.29,3c0,.09,0,.19,0,.29,0,.34-.05.76-.06,1.32,0,1.05.07,2.18.12,2.75s.06.81.09,1.11.06.57.1.75L28.1,86.56v0a2.5,2.5,0,0,0,2.42,2h.06a2.24,2.24,0,0,0,.52-.06h0l16-3.82a2.53,2.53,0,0,0,1.94-2.46A1.69,1.69,0,0,0,49,82c.56-5.12.56-5.33.56-5.41a2.71,2.71,0,0,0-.08-.69v0L47,65.55a10.06,10.06,0,0,0,1.77-.75l.55-.34a34.45,34.45,0,0,0,2.2,7.85,16.67,16.67,0,0,0,4.18,5.81h0a19.56,19.56,0,0,0,6,3.78h0l0,0a19.71,19.71,0,0,0,14.39,0,19.12,19.12,0,0,0,6-3.78l.07-.07.07,2.8c0,.22.3,3.25.55,5.75v0a2.52,2.52,0,0,0,.78,1.65A2.56,2.56,0,0,0,85.4,89h.07l14.44-.36a2.54,2.54,0,0,0,1.77-.78l0,0a2.57,2.57,0,0,0,.66-1.7h0c.24-2.44.54-5.37.54-5.66v-.21l-.24-3.87c.47,0,1,.07,1.45.07s.89,0,1.42-.07a19.69,19.69,0,0,0,7.31-1.83,14.44,14.44,0,0,0,5.23-4.26l.31-.41a2.53,2.53,0,0,0,2.34,1.57L135,71.23a2.53,2.53,0,0,0,2.5-2.49h0a7.57,7.57,0,0,0,.09-.76l.19-1.9c0-.44.08-.81.11-1.13l.13,4.62v.05s0,.19.55,5.73v0a2.53,2.53,0,0,0,2.51,2.33l13.29-.13a2.51,2.51,0,0,0,1.76-.72l0,0a2.49,2.49,0,0,0,.71-1.7c.2-2,.54-5.36.54-5.71v-.05l-.11-6.86a3.67,3.67,0,0,0,1.12.25h.18l9.66-.32a16.7,16.7,0,0,0,1.53,5.95,18.63,18.63,0,0,0,4.16,5.74,19.5,19.5,0,0,0,25.44.9c.07.83.32,3.37.53,5.53a2.58,2.58,0,0,0,.69,1.64l0,0a2.54,2.54,0,0,0,1.78.74h0l14.44.07a2.53,2.53,0,0,0,2.54-2.48c.54-5.46.54-5.62.54-5.69v-.1l-.13-3.93A17.14,17.14,0,0,0,222,71h.88a19.86,19.86,0,0,0,7.34-1.61,14.46,14.46,0,0,0,5.36-4.11h0c.11,1.16.29,3,.46,4.61a2.53,2.53,0,0,0,2.38,2.44L251,73h.13a2.53,2.53,0,0,0,2.51-2.22v0l.13-1a18.42,18.42,0,0,0,2.66,4.18,20.49,20.49,0,0,0,5.87,4.7,23.49,23.49,0,0,0,7.32,2.49,32.38,32.38,0,0,0,5.16.41h1c2.28-.06,4.68-.23,6.68-1.49a5.12,5.12,0,0,0,1.32-1.2,18.24,18.24,0,0,0,4.72,3.54,23.84,23.84,0,0,0,2.6,1.25,16,16,0,0,0,2.91.87,22.21,22.21,0,0,0,4,.45h.71l.72,0a2.52,2.52,0,0,0,1.35.84l.08,0,13.56,2.56.12,0,.26,0h.1a2.58,2.58,0,0,0,1.43-.45l.06,0a2.57,2.57,0,0,0,1-1.67l4.45-29.84c0-.13,0-.36.06-.7.06-1,.12-2.7.12-4.18,0-.94,0-1.67-.07-2.23"/></g></g></g><path class="cls-8" d="M85.4,85.46a2,2,0,0,1-1.34-.53,2,2,0,0,1-.61-1.35h0c-.09-.45-.17-1.25-.31-2.72-.27-2.79-.28-2.9-.28-2.94l-.1-4.15a13.27,13.27,0,0,1-1,1A18.54,18.54,0,0,1,76,78.45a19.07,19.07,0,0,1-14,0l0,0a18.58,18.58,0,0,1-5.84-3.67,15.93,15.93,0,0,1-4-5.62,33.48,33.48,0,0,1-2.31-8.67,7.07,7.07,0,0,1-1.25.88,9.33,9.33,0,0,1-2.16.86L49,73a2.41,2.41,0,0,1,.07.58c0,.24-.39,3.81-.57,5.41a1.1,1.1,0,0,1,0,.25A2,2,0,0,1,47,81.17L31,85a1.65,1.65,0,0,1-.44.05,2,2,0,0,1-1-.29,2,2,0,0,1-.88-1.24L17.87,36.18c0-.15-.05-.37-.09-.69s-.06-.68-.09-1.1-.11-1.68-.11-2.71a11.32,11.32,0,0,1,.06-1.33,1.52,1.52,0,0,1,0-.29,2.47,2.47,0,0,1,1.87-2.42h0c3.27-.79,6.24-1.48,9-2.12h0c2.9-.67,5.95-1.33,9-2a5.92,5.92,0,0,1,1-.22l.81-.14a32.71,32.71,0,0,1,5.37-.45h.59c.51,0,1,0,1.56.07h0A19.66,19.66,0,0,1,54,24.58a15.32,15.32,0,0,1,5.67,4.61,17,17,0,0,1,3.11,7.67h0A9.66,9.66,0,0,1,63,38.52v.1c0,.18,0,.38,0,.57a19.3,19.3,0,0,1,6-1,18.83,18.83,0,0,1,7.17,1.38h0a19.53,19.53,0,0,1,5.89,3.68l-.21-8.65a2.52,2.52,0,0,1,2.43-2.57l13.14-.38a2.55,2.55,0,0,1,2.06,1l.39-.17h0a17.21,17.21,0,0,1,2-.67,10.83,10.83,0,0,1,2.26-.34c.46,0,.81-.05,1.13-.05a13.7,13.7,0,0,1,2.56.24,17.91,17.91,0,0,1,3.31,1l.25.09-.09-4.39a2.52,2.52,0,0,1,2.44-2.55l3.7-.11L117.21,13a2.52,2.52,0,0,1,2.44-2.56l14.94-.3a2.55,2.55,0,0,1,1.78.7,2.53,2.53,0,0,1,.77,1.77l.07,12.5,4.38-.11a2.51,2.51,0,0,1,2.56,2.52l-.17,6,9.76-.63h.13a2.5,2.5,0,0,1,1.69.65l0,0a2.58,2.58,0,0,1,.69,1.15c.22-.08.44-.16.66-.22h0a16.88,16.88,0,0,1,5.1-.79,12.24,12.24,0,0,1,8.51,2.89l0,0a9.28,9.28,0,0,1,2.47,3.68c.3-.34.59-.64.89-.92a19.71,19.71,0,0,1,6-3.8,19.39,19.39,0,0,1,20.15,3.56l.06-10.59a2.51,2.51,0,0,1,2.49-2.49h13.15a2.48,2.48,0,0,1,2,1.06l.42-.17a19.76,19.76,0,0,1,2-.6h.06a10.48,10.48,0,0,1,2.24-.27c.32,0,.52,0,.72,0a13.37,13.37,0,0,1,3,.33,17.62,17.62,0,0,1,3.25,1.06l.07,0a14.4,14.4,0,0,1,4.28,2.73,15.37,15.37,0,0,1,2.45,3,2.52,2.52,0,0,1,.92-1.57s0,0,0,0a2.5,2.5,0,0,1,1.53-.52,2.32,2.32,0,0,1,.59.07l1,.24a9.65,9.65,0,0,1-.46-1.16,21.43,21.43,0,0,1-.57-3.44,46.49,46.49,0,0,1-.31-6.6,10.73,10.73,0,0,1,1.47-4.39,10.46,10.46,0,0,1,2.94-3.16,11,11,0,0,1,3.9-1.7l.06,0a12.28,12.28,0,0,1,2.73-.3,14.92,14.92,0,0,1,1.65.1,16.54,16.54,0,0,1,4.39,1.15l0,0a10.76,10.76,0,0,1,3.56,2.45l0,0A9.6,9.6,0,0,1,262,18.21a11.17,11.17,0,0,1,.42,3.13c0,.57-.1,1.7-.1,1.74l0,.16c-.27,3-.45,4.83-.52,5.44A8.28,8.28,0,0,1,260,32.82a0,0,0,0,0,0,0,10,10,0,0,1-3.16,2.64l-.64.31a2.52,2.52,0,0,1,.58,1.59c0,.12,0,.23,0,.34l-.54,4.18a19.36,19.36,0,0,1,4.34-4.14,20.46,20.46,0,0,1,6.94-3.07h0a19.58,19.58,0,0,1,4.47-.51,20.31,20.31,0,0,1,3.36.28h0a20.59,20.59,0,0,1,3.55.91,23.81,23.81,0,0,1,3.5,1.54,21.89,21.89,0,0,1,3.18,2.1,14.33,14.33,0,0,1,2.66,2.74,2.43,2.43,0,0,1,.45,1A17.51,17.51,0,0,1,293,41.24a19.91,19.91,0,0,1,3.38-.44l.29,0h.42a17.27,17.27,0,0,1,2.78.22l.4.08a18.78,18.78,0,0,1,3.54,1.09l.26.11a2.28,2.28,0,0,1,.57-.59h0a2.54,2.54,0,0,1,1.4-.46h.11l.26,0,12.86,2.2a2.52,2.52,0,0,1,2,2v0a4.92,4.92,0,0,1,.13.8c0,.54.07,1.27.07,2.18,0,1.46-.07,3.17-.13,4.14,0,.33,0,.53-.05.66l-4.45,29.84a1.93,1.93,0,0,1-.79,1.3l0,0a2.06,2.06,0,0,1-1.08.34l-.34,0L301,82.2a2,2,0,0,1-1.22-.88,8.91,8.91,0,0,1-1,.06h-.67a22.11,22.11,0,0,1-4-.43,15.18,15.18,0,0,1-2.81-.85,22.6,22.6,0,0,1-2.53-1.22,16.65,16.65,0,0,1-5.08-4l0,.08a4.12,4.12,0,0,1-1.5,1.59c-1.88,1.19-4.19,1.35-6.39,1.41h-.95a31.25,31.25,0,0,1-5.07-.41,22.61,22.61,0,0,1-7.14-2.43,19.85,19.85,0,0,1-5.71-4.57,18,18,0,0,1-3.38-6.09l-.4,3.27a2,2,0,0,1-1.95,1.73h-.1l-12.58-.7a2,2,0,0,1-1.86-1.94c-.36-3.6-.54-5.5-.54-5.68v-.54a12.05,12.05,0,0,1-.93,1.33A14,14,0,0,1,230,65.89a19.38,19.38,0,0,1-7.14,1.57h0l-.78,0a15.56,15.56,0,0,1-2.83-.24l.15,4.7c0,.17-.34,3.64-.54,5.69a1.95,1.95,0,0,1-1.94,1.91l-14.47-.06A2,2,0,0,1,201,78.9a2,2,0,0,1-.56-1.36h0c-.09-.44-.17-1.24-.31-2.68-.27-2.79-.27-2.93-.27-3v-1a18.82,18.82,0,0,1-12.74,4.93,18.86,18.86,0,0,1-12.88-5,18.25,18.25,0,0,1-4-5.57,16.28,16.28,0,0,1-1.5-6.3l-10.21.35h-.12a2.88,2.88,0,0,1-1.15-.31,1.85,1.85,0,0,1-.6-.46l.13,8c0,.4-.46,4.85-.55,5.74a1.9,1.9,0,0,1-.54,1.32l-.07.06a1.9,1.9,0,0,1-1.34.54l-13.25.12a2,2,0,0,1-2-1.87h0c-.09-.44-.17-1.25-.32-2.74-.27-2.8-.27-2.88-.27-2.92L138,46.22l-.64,0,.12,13.85c0,.24-.38,4.1-.54,5.75A2,2,0,0,1,135,67.72l-14.24.19a2,2,0,0,1-2-1.86s-.09-.64-.09-.64A14.74,14.74,0,0,1,117.63,67a14,14,0,0,1-5,4.09,19.25,19.25,0,0,1-7.11,1.78q-.7.06-1.38.06a15.38,15.38,0,0,1-2.06-.14s.29,4.59.29,4.6v.11c0,.31-.42,4.42-.54,5.67a2,2,0,0,1-.51,1.32.23.23,0,0,1-.07.07,1.86,1.86,0,0,1-1.33.57l-14.46.36Z"/><path class="cls-9" d="M134.63,10.7a2,2,0,0,1,1.35.55h0a1.93,1.93,0,0,1,.59,1.36h0l.08,13.07,5-.13h0a1.9,1.9,0,0,1,1.37.57h0a2,2,0,0,1,.57,1.38v0l-.19,6.6,10.38-.67h.1a1.93,1.93,0,0,1,1.3.5h0a1.93,1.93,0,0,1,.62,1.39h0v.17c.41-.17.84-.34,1.31-.49h0a16.43,16.43,0,0,1,4.93-.76h0A11.74,11.74,0,0,1,170.19,37h0a9,9,0,0,1,2.35,3.5,8.75,8.75,0,0,1,.28.91,18,18,0,0,1,1.52-1.63h0a19,19,0,0,1,12.86-5,18.88,18.88,0,0,1,12.81,5h0c.23.22.45.46.67.69l.07-11.94a1.94,1.94,0,0,1,1.93-1.93h13.14a1.93,1.93,0,0,1,1.79,1.22c.29-.12.57-.25.87-.36h0a15.9,15.9,0,0,1,1.93-.58h0a9.5,9.5,0,0,1,2.14-.26h0l.71,0h0a12.28,12.28,0,0,1,2.83.32,17.78,17.78,0,0,1,3.17,1h0a13.65,13.65,0,0,1,4.15,2.65,14.34,14.34,0,0,1,2.85,3.65c.18.33.35.66.51,1l0-1.76a1.89,1.89,0,0,1,.74-1.5h0a1.9,1.9,0,0,1,1.18-.41,1.84,1.84,0,0,1,.47.06h0l2.27.56a8.19,8.19,0,0,1-1.08-2.2h0a22.36,22.36,0,0,1-.53-3.32,47.59,47.59,0,0,1-.32-6.47A10.3,10.3,0,0,1,241,16.07h0a9.8,9.8,0,0,1,2.78-3h0a10.35,10.35,0,0,1,3.73-1.63,12.24,12.24,0,0,1,4.21-.19,15.52,15.52,0,0,1,4.24,1.1h0a10,10,0,0,1,3.41,2.34h0a9.13,9.13,0,0,1,2.05,3.65h0a10.43,10.43,0,0,1,.4,3c0,.55-.11,1.69-.11,1.69s-.41,4.54-.54,5.58h0a7.6,7.6,0,0,1-1.58,3.87h0a9.32,9.32,0,0,1-3,2.49,10.88,10.88,0,0,1-1.48.65,1.94,1.94,0,0,1,1.12,1.76,2.09,2.09,0,0,1,0,.25h0l-.85,6.58c.13-.22.25-.46.39-.68h0a19.21,19.21,0,0,1,5.14-5.33h0a19.78,19.78,0,0,1,6.76-3h0a18.76,18.76,0,0,1,4.36-.51,20.61,20.61,0,0,1,3.3.28h0a19.72,19.72,0,0,1,3.43.89,21.24,21.24,0,0,1,3.42,1.5h0a22.94,22.94,0,0,1,3.09,2,14.12,14.12,0,0,1,2.56,2.63,2,2,0,0,1,.38,1.15,2.25,2.25,0,0,1-.08.52l.28-.18a16.56,16.56,0,0,1,4.66-1.77,19.64,19.64,0,0,1,3.27-.43h.69a17.43,17.43,0,0,1,2.69.22h0l.35.06h0a18.46,18.46,0,0,1,3.44,1.06l.72.32a2,2,0,0,1,.66-.86h0a2,2,0,0,1,1.1-.37h.32L319.16,44a2,2,0,0,1,1.58,1.63v0a3.92,3.92,0,0,1,.11.72c0,.58.07,1.33.07,2.13,0,1.52-.07,3.22-.12,4.1,0,.3,0,.5-.05.61L316.3,83.06a1.39,1.39,0,0,1-.58.94h0a1.44,1.44,0,0,1-.77.25h0l-.26,0L301.1,81.66h0a1.37,1.37,0,0,1-1-1,12.28,12.28,0,0,1-1.35.11h-.67a21.5,21.5,0,0,1-3.83-.43,14.1,14.1,0,0,1-2.71-.81A20.9,20.9,0,0,1,289,78.39h0a16,16,0,0,1-5.61-4.74,2.78,2.78,0,0,1-.29,1.07,3.49,3.49,0,0,1-1.29,1.36c-1.81,1.14-4.09,1.26-6.11,1.32h-.93a30.33,30.33,0,0,1-5-.4,22.21,22.21,0,0,1-7-2.36,19.69,19.69,0,0,1-5.55-4.45A17.14,17.14,0,0,1,254,64a14.1,14.1,0,0,1-.59-3l-.83,6.69h0a1.4,1.4,0,0,1-1.39,1.22h-.07l-12.58-.7a1.39,1.39,0,0,1-1.32-1.37h0s-.54-5.39-.54-5.66h0l0-2.91a14.28,14.28,0,0,1-2,3.36,13.45,13.45,0,0,1-4.94,3.78,19,19,0,0,1-6.95,1.52H222a15.43,15.43,0,0,1-2.7-.23h0c-.22,0-.44-.11-.66-.16l.18,5.34v.08c0,.17-.55,5.63-.55,5.63v0a1.36,1.36,0,0,1-.39,1,1.4,1.4,0,0,1-1,.42h0l-14.44-.07h0a1.39,1.39,0,0,1-1-.41h0a1.41,1.41,0,0,1-.4-.95h0s-.54-5.39-.54-5.67V69.46c-.28.31-.56.61-.87.9a18.25,18.25,0,0,1-12.44,4.86,18.44,18.44,0,0,1-6.81-1.29,18.18,18.18,0,0,1-5.68-3.57A17.56,17.56,0,0,1,170.8,65a16,16,0,0,1-1.46-6.64l-10.75.36h-.08a2.57,2.57,0,0,1-.94-.25,1.31,1.31,0,0,1-.68-.76l0-.15,0-.21q0-.24-.06-.6c-.05-.48-.1-1.09-.15-1.69-.09-1.11-.17-2.18-.18-2.33v0l-.05-.15a.69.69,0,0,0-.22-.3.29.29,0,0,0-.13-.05l.23,14.28v0c0,.35-.54,5.64-.54,5.64h0a1.41,1.41,0,0,1-.39,1h0a1.43,1.43,0,0,1-1,.41l-13.26.13h0a1.4,1.4,0,0,1-1.38-1.34h0s-.54-5.51-.55-5.66h0l-.59-21-1.76,0,.13,14.4h0c0,.23-.55,5.68-.55,5.68h0A1.4,1.4,0,0,1,135,67.16l-14.25.18h0a1.4,1.4,0,0,1-1.4-1.33s-.09-.73-.21-1.58L119,63.37a10.42,10.42,0,0,1-1.79,3.26,13.48,13.48,0,0,1-4.83,3.93h0a18.76,18.76,0,0,1-6.89,1.72c-.46,0-.9,0-1.34,0a14,14,0,0,1-2.18-.16l-.49-.1.33,5.3h0v.1c0,.29-.55,5.61-.55,5.61v0a1.43,1.43,0,0,1-.36,1h0a1.37,1.37,0,0,1-1,.45h0l-14.44.36h0A1.4,1.4,0,0,1,84,83.56h0s-.54-5.45-.54-5.66h0l-.14-5.65a15.9,15.9,0,0,1-1.9,2.12A18.3,18.3,0,0,1,69,79.21a18.42,18.42,0,0,1-6.8-1.28h0a18.18,18.18,0,0,1-5.69-3.56h0a15.83,15.83,0,0,1-3.91-5.42,32.34,32.34,0,0,1-2.38-9.7,7.72,7.72,0,0,1-2,1.63,10,10,0,0,1-2.58.94l2.76,11.35h0a2.28,2.28,0,0,1,0,.44c0,.24-.57,5.43-.57,5.43a1.6,1.6,0,0,1,0,.23,1.4,1.4,0,0,1-1.08,1.36h0l-16,3.82h0a1.15,1.15,0,0,1-.31,0h0a1.43,1.43,0,0,1-.72-.21,1.37,1.37,0,0,1-.62-.88h0L18.43,36.05a5.49,5.49,0,0,1-.09-.62c0-.29-.06-.66-.09-1.08-.06-.82-.1-1.81-.1-2.67a10.52,10.52,0,0,1,.06-1.34,2.4,2.4,0,0,1,0-.28,1.94,1.94,0,0,1,1.49-1.88h0c3-.73,6.07-1.45,9.07-2.13h0q4.51-1,9-2a6.77,6.77,0,0,1,.93-.21l.41-.07.42-.07h0a31.52,31.52,0,0,1,5.27-.45h.58c.51,0,1,0,1.53.07h0a19.12,19.12,0,0,1,6.9,1.74h0a14.88,14.88,0,0,1,5.47,4.45h0a16.5,16.5,0,0,1,3,7.44h0a9.34,9.34,0,0,1,.12,1.54v.1A12.81,12.81,0,0,1,62.31,40,18.76,18.76,0,0,1,76,40.13h0a18.69,18.69,0,0,1,5.82,3.68h0c.31.29.59.59.88.9l-.24-10.09v0a1.94,1.94,0,0,1,1.88-1.94h0l13.13-.39h.06a1.94,1.94,0,0,1,1.76,1.16c.28-.12.56-.26.84-.37h0a15.1,15.1,0,0,1,1.93-.65h0a10.55,10.55,0,0,1,2.14-.32h0c.46,0,.79-.05,1.1-.05a12.82,12.82,0,0,1,2.46.24h0a17.56,17.56,0,0,1,3.2.94h0c.35.13.69.28,1,.44l-.1-5.28v0a1.94,1.94,0,0,1,1.89-1.94h0l4.26-.13L117.78,13v0A1.94,1.94,0,0,1,119.67,11h0l14.93-.31h0m1.35.55h0m111.51.21h0m0,0h0m-3.73,1.63h0m0,0h0M220.43,26.92h0m0,0h0M100.11,33h0m0,0h0m0,0h0m167.56,2.2h0m0,0h0m11.1.66h0m0,0h0m-23,7.65h0m-56.12,26.8h0m0,0h0m0,0h0M62.19,77.92h0m0,0h0M134.63,9.57h0l-14.95.31h0a3.06,3.06,0,0,0-3,3.07V13l.24,12.15-3.14.09a3.08,3.08,0,0,0-3,3.08v.05l.07,3.55a20.38,20.38,0,0,0-2.86-.8,15.19,15.19,0,0,0-2.68-.25c-.3,0-.67,0-1.2.06a11.14,11.14,0,0,0-2.33.35h0a16,16,0,0,0-2,.69h0a3,3,0,0,0-2.14-.89h-.09l-13.13.39a3.05,3.05,0,0,0-3,3.07v.07L81.48,42a20.19,20.19,0,0,0-5.08-3h0A19.55,19.55,0,0,0,69,37.65a19.82,19.82,0,0,0-5.48.77,9.34,9.34,0,0,0-.14-1.63v0a17.64,17.64,0,0,0-3.21-7.91l0,0a16,16,0,0,0-5.86-4.76l0,0A20.33,20.33,0,0,0,47,22.22h0c-.52,0-1-.06-1.58-.07h-.61a33.51,33.51,0,0,0-5.45.46l-.43.08-.4.06c-.34.06-.69.14-1,.23-3.08.65-6.11,1.31-9,2h0c-2.81.64-5.77,1.33-9,2.12l-.06,0a3.05,3.05,0,0,0-2.29,3c0,.09,0,.19,0,.29A11.87,11.87,0,0,0,17,31.68c0,1,.07,2.18.11,2.75s.06.81.09,1.11.06.57.1.75L28.1,83.62v0a2.61,2.61,0,0,0,1.12,1.58,2.48,2.48,0,0,0,1.3.39h.06a2.24,2.24,0,0,0,.52-.06h0l16-3.82a2.53,2.53,0,0,0,1.94-2.46A1.69,1.69,0,0,0,49,79c.56-5.12.56-5.33.56-5.41a2.71,2.71,0,0,0-.08-.69.06.06,0,0,0,0,0L47,62.61a10.06,10.06,0,0,0,1.77-.75l.55-.34a34.45,34.45,0,0,0,2.2,7.85,16.67,16.67,0,0,0,4.18,5.81h0a19.35,19.35,0,0,0,6,3.77h0l0,0a19.71,19.71,0,0,0,14.39,0,19.12,19.12,0,0,0,6-3.78l.07-.07.07,2.8c0,.22.3,3.25.55,5.75v0a2.52,2.52,0,0,0,.78,1.65A2.56,2.56,0,0,0,85.4,86h.07l14.44-.36a2.52,2.52,0,0,0,1.77-.78l0,0a2.57,2.57,0,0,0,.66-1.7h0c.24-2.44.54-5.37.54-5.66v-.13s0-.06,0-.08l-.24-3.87c.47,0,1,.07,1.45.07s.89,0,1.42-.06a20.09,20.09,0,0,0,7.31-1.84,14.44,14.44,0,0,0,5.23-4.26l.31-.41a2.53,2.53,0,0,0,2.34,1.57L135,68.29a2.52,2.52,0,0,0,2.49-2.49h0a7.57,7.57,0,0,0,.09-.76l.19-1.9c0-.44.08-.81.11-1.13l.13,4.62v.05s0,.19.55,5.73v0a2.53,2.53,0,0,0,2.51,2.33l13.29-.13a2.51,2.51,0,0,0,1.76-.72l0,0a2.47,2.47,0,0,0,.71-1.7c.2-2,.54-5.36.54-5.71v0l-.11-6.86a3.67,3.67,0,0,0,1.12.25h.18l9.66-.32a16.81,16.81,0,0,0,1.53,5.94,18.56,18.56,0,0,0,4.16,5.75,19.16,19.16,0,0,0,6,3.8,19.49,19.49,0,0,0,19.4-2.9c.06.83.32,3.37.53,5.53a2.58,2.58,0,0,0,.69,1.64l0,0a2.54,2.54,0,0,0,1.78.74h0l14.44.07a2.54,2.54,0,0,0,1.82-.76,2.5,2.5,0,0,0,.72-1.72c.54-5.46.54-5.62.54-5.69v-.1l-.13-3.93A17.14,17.14,0,0,0,222,68h.06c.26,0,.54,0,.81,0h0a19.86,19.86,0,0,0,7.34-1.61,14.46,14.46,0,0,0,5.36-4.11h0c.11,1.16.29,3,.46,4.61a2.53,2.53,0,0,0,2.38,2.44L251,70h.13a2.53,2.53,0,0,0,2.51-2.22v0l.13-1a18.42,18.42,0,0,0,2.66,4.18,20.49,20.49,0,0,0,5.87,4.7,23.49,23.49,0,0,0,7.32,2.49,32.38,32.38,0,0,0,5.16.41h1c2.28-.06,4.68-.23,6.68-1.5a4.92,4.92,0,0,0,1.32-1.19,18.24,18.24,0,0,0,4.72,3.54,24.76,24.76,0,0,0,2.6,1.25,16,16,0,0,0,2.91.87,23.14,23.14,0,0,0,4,.45h.71l.72,0a2.52,2.52,0,0,0,1.35.84l.08,0,13.56,2.57h.12l.26,0h.1a2.56,2.56,0,0,0,1.43-.45l.06,0a2.57,2.57,0,0,0,1-1.67l4.45-29.84c0-.13,0-.36.06-.7.06-1,.12-2.7.12-4.18,0-.94,0-1.67-.07-2.23a6.62,6.62,0,0,0-.14-.9h0a3.09,3.09,0,0,0-2.48-2.48l-12.82-2.19-.11,0H306a3.14,3.14,0,0,0-1.7.56h0l0,0a2.71,2.71,0,0,0-.41.35,20.06,20.06,0,0,0-3.52-1.06h0l-.31-.06-.08,0a18,18,0,0,0-2.85-.23h-.74a20.11,20.11,0,0,0-3.47.46A18.46,18.46,0,0,0,289.08,42a3.08,3.08,0,0,0-.33-.55A14.8,14.8,0,0,0,286,38.56a22.05,22.05,0,0,0-3.25-2.15h0a23.55,23.55,0,0,0-3.56-1.56h0a21.42,21.42,0,0,0-3.62-.93h0A21.42,21.42,0,0,0,272,33.6a19.9,19.9,0,0,0-4.57.53h-.07a20.92,20.92,0,0,0-7.1,3.14h0a20.21,20.21,0,0,0-3.21,2.78l.3-2.28c0-.13,0-.27,0-.4a3,3,0,0,0-.32-1.37l.08,0a10.49,10.49,0,0,0,3.34-2.79l0,0a8.71,8.71,0,0,0,1.78-4.36.06.06,0,0,0,0,0c.09-.78.34-3.4.53-5.46v-.15h0c0-.12.11-1.21.11-1.79a11.88,11.88,0,0,0-.44-3.28,0,0,0,0,1,0,0A10.24,10.24,0,0,0,260.18,14l0,0a11.18,11.18,0,0,0-3.73-2.57h0a17.09,17.09,0,0,0-4.55-1.2,13.94,13.94,0,0,0-1.72-.1,12.59,12.59,0,0,0-2.83.31l-.1,0a11.6,11.6,0,0,0-4.06,1.77l-.06,0a11.14,11.14,0,0,0-3.07,3.3s0,0,0,0a11.45,11.45,0,0,0-1.54,4.6,49.46,49.46,0,0,0,.32,6.73,20,20,0,0,0,.59,3.55,0,0,0,0,0,0,0c0,.05,0,.1,0,.14a3.18,3.18,0,0,0-.62-.06,3.11,3.11,0,0,0-1.87.64s0,0,0,0a2.92,2.92,0,0,0-.72.81,16.38,16.38,0,0,0-1.93-2.15A14.83,14.83,0,0,0,229.8,27l-.06,0a18.59,18.59,0,0,0-3.36-1.1,14.23,14.23,0,0,0-3.07-.34l-.78,0a11.1,11.1,0,0,0-2.34.29h-.07a20.07,20.07,0,0,0-2,.61h0l-.06,0a3,3,0,0,0-2.21-.95H202.7a3.09,3.09,0,0,0-3.07,3L199.57,38a20,20,0,0,0-12.37-4.3,20,20,0,0,0-7.4,1.41l0,0A20.05,20.05,0,0,0,173.59,39a0,0,0,0,0,0,0l-.33.31A9.75,9.75,0,0,0,171,36.23l0,0a12.7,12.7,0,0,0-8.87-3,17.27,17.27,0,0,0-5.27.81h0l-.17.05a3,3,0,0,0-.63-.84l-.05,0a3.08,3.08,0,0,0-2.06-.79h-.17l-9.14.59.14-5.36v-.07a3.06,3.06,0,0,0-3.07-3.08h-.06l-3.81.1-.07-11.91a3.06,3.06,0,0,0-.92-2.17l-.05,0a3.16,3.16,0,0,0-2.1-.83"/><path class="cls-10" d="M242.58,33a8.94,8.94,0,0,0,2.92,2,13,13,0,0,0,3.66,1,11.36,11.36,0,0,0,1.44.09,13.64,13.64,0,0,0,2.26-.2,11.68,11.68,0,0,0,3.57-1.21,9.12,9.12,0,0,0,2.87-2.4,7.31,7.31,0,0,0,1.51-3.69c.19-1.59.94-6.13.26-8.39-.38-1.28-1.53,1.72-2.38.82a9.13,9.13,0,0,0-3.1-2.14,14.86,14.86,0,0,0-4-1,12.08,12.08,0,0,0-1.47-.09,10.84,10.84,0,0,0-2.43.27,9.49,9.49,0,0,0-3.42,1.48c-1,.7-2.44-2.74-3.1-1.64S239.81,20,240,23.2a44.75,44.75,0,0,0,.82,6.72,7.65,7.65,0,0,0,1.8,3.06m12,9.06L239,38.21a1,1,0,0,0-.25,0,1,1,0,0,0-.63.22,1,1,0,0,0-.4.81l-.07,8.85a23.5,23.5,0,0,0-.57-3.6,16.62,16.62,0,0,0-1.58-4.08A14,14,0,0,0,232.87,37a13.19,13.19,0,0,0-3.9-2.48,17.31,17.31,0,0,0-3-1,11.91,11.91,0,0,0-2.66-.29c-.17,0-.34,0-.66,0a9.34,9.34,0,0,0-2,.24c-.62.15-1.23.34-1.83.55s-1.16.46-1.74.72l-.19.08v-.58a1,1,0,0,0-1-1H202.69a1,1,0,0,0-1,1l-.08,14.38a17.21,17.21,0,0,0-2.18-2.48,18.12,18.12,0,0,0-5.55-3.51,17.65,17.65,0,0,0-6.65-1.28,17.84,17.84,0,0,0-6.68,1.28A18.29,18.29,0,0,0,175,46.13a17,17,0,0,0-2.65,3.2,9,9,0,0,0-2.72-6,10.8,10.8,0,0,0-7.53-2.51,15.28,15.28,0,0,0-4.66.72,13.12,13.12,0,0,0-2.46,1.06l0-1.58a1,1,0,0,0-1-1h-.06l-11.34.73.21-7.58a1,1,0,0,0-1.05-1.07h0l-5.87.15-.09-14a1,1,0,0,0-.31-.73,1,1,0,0,0-.72-.3h0l-14.91.31a1,1,0,0,0-1,1.06L119,32.79l-5.16.15a1,1,0,0,0-1,1.06l.13,6.82a13.28,13.28,0,0,0-2.3-1.13,16.4,16.4,0,0,0-3-.9,11.84,11.84,0,0,0-2.29-.22c-.29,0-.59,0-1,0a9.11,9.11,0,0,0-2,.29,16.24,16.24,0,0,0-1.82.62c-.57.23-1.15.48-1.71.76l-.19.09,0-.58a1,1,0,0,0-1-1h0l-13.12.39a1,1,0,0,0-1,1.06L83.65,53a17.48,17.48,0,0,0-2.46-2.9,18.12,18.12,0,0,0-5.55-3.51,18,18,0,0,0-13.32,0c-.4.16-.78.34-1.16.52,0,0,0,0,0,0,.1-.48.17-1,.23-1.45a14.27,14.27,0,0,0,.07-1.46,8.74,8.74,0,0,0-.11-1.4,15.78,15.78,0,0,0-2.83-7,14,14,0,0,0-5.14-4.18,18.27,18.27,0,0,0-6.57-1.66c-.49,0-1,0-1.48-.06a30.49,30.49,0,0,0-5.68.42l-.42.08-.41.07a6.86,6.86,0,0,0-.88.2c-3,.63-6,1.28-9,2s-7.11-3.49-10.15-2.76c-.55.13-.13,5.59,0,6.14L29.56,83.31A1,1,0,0,0,30,84a1.13,1.13,0,0,0,.53.16,1.15,1.15,0,0,0,.26,0l16-3.82A1,1,0,0,0,47.54,79L48,73.78,43.39,62a17.46,17.46,0,0,0,4.67-1.4,7.59,7.59,0,0,0,2.46-2.3,30.51,30.51,0,0,0,2.4,10.55,15.4,15.4,0,0,0,3.83,5.29,18,18,0,0,0,24.44,0,16.93,16.93,0,0,0,2.87-3.54L83.91,78l.46,5.53a1,1,0,0,0,1,1h0l14.44-.36a1.08,1.08,0,0,0,.74-.33,1.06,1.06,0,0,0,.27-.77l.37-5.08-1.1-6.56c.63.15,1.25.28,1.84.37a13.43,13.43,0,0,0,2.13.16c.43,0,.86,0,1.31,0a18.4,18.4,0,0,0,6.76-1.69,13.05,13.05,0,0,0,4.7-3.82A10.31,10.31,0,0,0,119,61.72c.06-.27.65,4.24.65,4.24a1,1,0,0,0,1,1h0L135,66.8a1,1,0,0,0,1-1l.46-5.39-.64-15,3.45-.09.28,21.66.49,5.35a1,1,0,0,0,1,1h0l13.26-.12a1.08,1.08,0,0,0,.74-.31,1.06,1.06,0,0,0,.29-.74l.31-5.33-.63-14.84a2.63,2.63,0,0,1,.9-.16c.7,0,.86.86.86.86s.35,4.65.43,4.94c.14.48.74.71,1.3.75h0L169.7,58c0,.06,0,.13,0,.19a15.57,15.57,0,0,0,1.44,6.66A17.14,17.14,0,0,0,175,70.09a17.59,17.59,0,0,0,5.57,3.5,18,18,0,0,0,18.87-3.5,17.6,17.6,0,0,0,2.06-2.33L201,71.89l.41,5.62a1.06,1.06,0,0,0,.3.73,1,1,0,0,0,.74.31l14.43.07h0a1,1,0,0,0,.73-.32,1,1,0,0,0,.29-.75l.49-5.36-.87-6.3a18.54,18.54,0,0,0,1.83.43,13.72,13.72,0,0,0,2.7.23h.74a18.56,18.56,0,0,0,6.81-1.49,13.13,13.13,0,0,0,4.81-3.68,14.59,14.59,0,0,0,2.68-5.52,21,21,0,0,0,.55-3.19l-.55,8.6.44,5.55a1,1,0,0,0,1,1l12.57.7h.06a1,1,0,0,0,1-.9l2.48-20c.07-.52.4-5.52-.11-5.65M45.32,47.66a5.09,5.09,0,0,1-1.15,1.73,7.84,7.84,0,0,1-1.84,1.38c-.39.2-.75.38-1.11.54l-2-8.36a10.85,10.85,0,0,1,1.4-.09h.2a7.57,7.57,0,0,1,1.45.16,5.16,5.16,0,0,1,1.44.57,3.85,3.85,0,0,1,1.18,1.12,2.33,2.33,0,0,1,.37.49,1.41,1.41,0,0,1,.17.53,3.2,3.2,0,0,1-.13,1.93m27.4,15.76a3.34,3.34,0,0,1-.78,1.1,3.64,3.64,0,0,1-2.5,1,3.59,3.59,0,0,1-1.39-.27,4.1,4.1,0,0,1-1.17-.75,3.16,3.16,0,0,1-.76-1.08,2.93,2.93,0,0,1-.28-1.29,3.11,3.11,0,0,1,.28-1.33,3.48,3.48,0,0,1,.76-1.07A4.09,4.09,0,0,1,68.06,59a3.57,3.57,0,0,1,1.38-.27A3.38,3.38,0,0,1,70.8,59a3.55,3.55,0,0,1,1.15.74,3.42,3.42,0,0,1,.78,1.1,2.92,2.92,0,0,1,.29,1.3,2.8,2.8,0,0,1-.3,1.28m32.13-6.63a2.44,2.44,0,0,1-.71.93,3.63,3.63,0,0,1-1.23.61,9.17,9.17,0,0,1-1.73.3c-.44,0-.88,0-1.4,0h-.29l-.4-7.27a12.83,12.83,0,0,1,1.5.09,6.85,6.85,0,0,1,2.22.58,4.06,4.06,0,0,1,1.55,1.2,3.79,3.79,0,0,1,.68,2,3.18,3.18,0,0,1-.19,1.48m14.24-7.37a17.5,17.5,0,0,0-1.43-3.53l1.59,0,.1,4.65c-.08-.36-.17-.71-.26-1.07m71.85,10a3.59,3.59,0,0,1-.79,1.09,3.67,3.67,0,0,1-1.15.74,3.46,3.46,0,0,1-1.35.27,3.57,3.57,0,0,1-1.38-.27,3.89,3.89,0,0,1-1.18-.75,3.19,3.19,0,0,1-.77-1.07,3.31,3.31,0,0,1,0-2.62,3.19,3.19,0,0,1,.77-1.07,3.83,3.83,0,0,1,1.18-.75,3.5,3.5,0,0,1,1.38-.27A3.39,3.39,0,0,1,189,55a3.61,3.61,0,0,1,1.15.74,3.4,3.4,0,0,1,.79,1.1,3,3,0,0,1,.28,1.3,3,3,0,0,1-.28,1.29m31.73-8a2.29,2.29,0,0,1-.74.91,3.51,3.51,0,0,1-1.25.57,8.28,8.28,0,0,1-1.73.25l-.81,0h-.51l-.38,0-.18-7.28c.49,0,1,.07,1.5.14a7,7,0,0,1,2.2.64,4,4,0,0,1,1.51,1.26,3.6,3.6,0,0,1,.62,2,3.2,3.2,0,0,1-.23,1.47m57.7,11.46a1.07,1.07,0,0,0-.6-.19l-.2,0c-.42.08-.87.16-1.36.21s-1,.1-1.52.12h-1.53a13.77,13.77,0,0,1-1.37-.14,5.58,5.58,0,0,1-1.56-.5,3.91,3.91,0,0,1-1.2-.86,3,3,0,0,1-.71-1.16,3.13,3.13,0,0,1-.08-1.48,2.57,2.57,0,0,1,.5-1.19,3.05,3.05,0,0,1,1-.83,4.08,4.08,0,0,1,1.35-.41c.22,0,.44,0,.66,0a5.72,5.72,0,0,1,.92.08,8.39,8.39,0,0,1,2.39.79,10.51,10.51,0,0,1,2.12,1.43,1,1,0,0,0,.69.26H280a1,1,0,0,0,.72-.42l6.43-9.05a1,1,0,0,0,0-1.22,13.51,13.51,0,0,0-2.39-2.46,22.06,22.06,0,0,0-3-1.95,21.2,21.2,0,0,0-3.28-1.44,18.56,18.56,0,0,0-3.29-.85,18.91,18.91,0,0,0-3.16-.27,18,18,0,0,0-4.15.48,19,19,0,0,0-6.45,2.85,18.09,18.09,0,0,0-4.9,5.07,17.86,17.86,0,0,0-2.63,6.9,16.05,16.05,0,0,0,.4,7.34,17,17,0,0,0,3.29,6A19.12,19.12,0,0,0,263,74.33a21.77,21.77,0,0,0,6.85,2.32,29.61,29.61,0,0,0,4.92.4h.92c2-.05,4.23-.19,5.92-1.27A2.74,2.74,0,0,0,283,72.68l.3-2.56-2.5-6.56a1,1,0,0,0-.43-.71m39.87-17.38-14,2.88h-.2a1.13,1.13,0,0,0-.59.2,1,1,0,0,0-.41.69l-.11.73q-.85-.42-1.74-.78a16.78,16.78,0,0,0-3.26-1l-.35-.07a14.94,14.94,0,0,0-2.91-.2h-.28a17,17,0,0,0-3.12.41,15.64,15.64,0,0,0-4.4,1.67,13.68,13.68,0,0,0-3.42,2.76,15,15,0,0,0-2.41,3.69,19.57,19.57,0,0,0-1.43,4.44l-.1.47-.07.33a6.09,6.09,0,0,0-.11.91,16.32,16.32,0,0,0,1.32,9.1,14.73,14.73,0,0,0,6.54,6.37,22.73,22.73,0,0,0,2.44,1.17,14.22,14.22,0,0,0,2.65.8,20.8,20.8,0,0,0,3.76.41h.66a12.81,12.81,0,0,0,1.64-.15,1,1,0,0,0,.83,1l13.53,2.57a1,1,0,0,0,.24,0,1,1,0,0,0,.56-.18,1,1,0,0,0,.43-.69l4.45-29.85c.09-.56.4-7.59-.15-7.69m-18.11,23-.38,0c-.45-.06-.89-.14-1.33-.23a10.34,10.34,0,0,1-1.74-.5,4.49,4.49,0,0,1-1.27-.75,2.48,2.48,0,0,1-.68-1,2.72,2.72,0,0,1,0-1.49,3.14,3.14,0,0,1,.85-1.74,3.81,3.81,0,0,1,1.61-.92,6.55,6.55,0,0,1,1.67-.27h.47a16.79,16.79,0,0,1,1.85.16Z"/><path class="cls-11" d="M242.58,33a8.94,8.94,0,0,0,2.92,2,13,13,0,0,0,3.66,1,11.36,11.36,0,0,0,1.44.09,13.64,13.64,0,0,0,2.26-.2,11.68,11.68,0,0,0,3.57-1.21,9.12,9.12,0,0,0,2.87-2.4,7.31,7.31,0,0,0,1.51-3.69c.19-1.59.94-6.13.26-8.39-.38-1.28-1.53,1.72-2.38.82a9.13,9.13,0,0,0-3.1-2.14,14.86,14.86,0,0,0-4-1,12.08,12.08,0,0,0-1.47-.09,10.84,10.84,0,0,0-2.43.27,9.49,9.49,0,0,0-3.42,1.48c-1,.7-2.44-2.74-3.1-1.64S239.81,20,240,23.2a44.75,44.75,0,0,0,.82,6.72A7.65,7.65,0,0,0,242.58,33Zm12,9.06L239,38.21a1,1,0,0,0-.25,0,1,1,0,0,0-.63.22,1,1,0,0,0-.4.81l-.07,8.85a23.5,23.5,0,0,0-.57-3.6,16.62,16.62,0,0,0-1.58-4.08A14,14,0,0,0,232.87,37a13.19,13.19,0,0,0-3.9-2.48,17.31,17.31,0,0,0-3-1,11.91,11.91,0,0,0-2.66-.29c-.17,0-.34,0-.66,0a9.34,9.34,0,0,0-2,.24c-.62.15-1.23.34-1.83.55s-1.16.46-1.74.72l-.19.08v-.58a1,1,0,0,0-1-1H202.69a1,1,0,0,0-1,1l-.08,14.38a17.21,17.21,0,0,0-2.18-2.48,18.12,18.12,0,0,0-5.55-3.51,17.65,17.65,0,0,0-6.65-1.28,17.84,17.84,0,0,0-6.68,1.28A18.29,18.29,0,0,0,175,46.13a17,17,0,0,0-2.65,3.2,9,9,0,0,0-2.72-6,10.8,10.8,0,0,0-7.53-2.51,15.28,15.28,0,0,0-4.66.72,13.12,13.12,0,0,0-2.46,1.06l0-1.58a1,1,0,0,0-1-1h-.06l-11.34.73.21-7.58a1,1,0,0,0-1.05-1.07h0l-5.87.15-.09-14a1,1,0,0,0-.31-.73,1,1,0,0,0-.72-.3h0l-14.91.31a1,1,0,0,0-1,1.06L119,32.79l-5.16.15a1,1,0,0,0-1,1.06l.13,6.82a13.28,13.28,0,0,0-2.3-1.13,16.4,16.4,0,0,0-3-.9,11.84,11.84,0,0,0-2.29-.22c-.29,0-.59,0-1,0a9.11,9.11,0,0,0-2,.29,16.24,16.24,0,0,0-1.82.62c-.57.23-1.15.48-1.71.76l-.19.09,0-.58a1,1,0,0,0-1-1h0l-13.12.39a1,1,0,0,0-1,1.06L83.65,53a17.48,17.48,0,0,0-2.46-2.9,18.12,18.12,0,0,0-5.55-3.51,18,18,0,0,0-13.32,0c-.4.16-.78.34-1.16.52,0,0,0,0,0,0,.1-.48.17-1,.23-1.45a14.27,14.27,0,0,0,.07-1.46,8.74,8.74,0,0,0-.11-1.4,15.78,15.78,0,0,0-2.83-7,14,14,0,0,0-5.14-4.18,18.27,18.27,0,0,0-6.57-1.66c-.49,0-1,0-1.48-.06a30.49,30.49,0,0,0-5.68.42l-.42.08-.41.07a6.86,6.86,0,0,0-.88.2c-3,.63-6,1.28-9,2s-7.11-3.49-10.15-2.76c-.55.13-.13,5.59,0,6.14L29.56,83.31A1,1,0,0,0,30,84a1.13,1.13,0,0,0,.53.16,1.15,1.15,0,0,0,.26,0l16-3.82A1,1,0,0,0,47.54,79L48,73.78,43.39,62a17.46,17.46,0,0,0,4.67-1.4,7.59,7.59,0,0,0,2.46-2.3,30.51,30.51,0,0,0,2.4,10.55,15.4,15.4,0,0,0,3.83,5.29,18,18,0,0,0,24.44,0,16.93,16.93,0,0,0,2.87-3.54L83.91,78l.46,5.53a1,1,0,0,0,1,1h0l14.44-.36a1.08,1.08,0,0,0,.74-.33,1.06,1.06,0,0,0,.27-.77l.37-5.08-1.1-6.56c.63.15,1.25.28,1.84.37a13.43,13.43,0,0,0,2.13.16c.43,0,.86,0,1.31,0a18.4,18.4,0,0,0,6.76-1.69,13.05,13.05,0,0,0,4.7-3.82A10.31,10.31,0,0,0,119,61.72c.06-.27.65,4.24.65,4.24a1,1,0,0,0,1,1h0L135,66.8a1,1,0,0,0,1-1l.46-5.39-.64-15,3.45-.09.28,21.66.49,5.35a1,1,0,0,0,1,1h0l13.26-.12a1.08,1.08,0,0,0,.74-.31,1.06,1.06,0,0,0,.29-.74l.31-5.33-.63-14.84a2.63,2.63,0,0,1,.9-.16c.7,0,.86.86.86.86s.35,4.65.43,4.94c.14.48.74.71,1.3.75h0L169.7,58c0,.06,0,.13,0,.19a15.57,15.57,0,0,0,1.44,6.66A17.14,17.14,0,0,0,175,70.09a17.59,17.59,0,0,0,5.57,3.5,18,18,0,0,0,18.87-3.5,17.6,17.6,0,0,0,2.06-2.33L201,71.89l.41,5.62a1.06,1.06,0,0,0,.3.73,1,1,0,0,0,.74.31l14.43.07h0a1,1,0,0,0,.73-.32,1,1,0,0,0,.29-.75l.49-5.36-.87-6.3a18.54,18.54,0,0,0,1.83.43,13.72,13.72,0,0,0,2.7.23h.74a18.56,18.56,0,0,0,6.81-1.49,13.13,13.13,0,0,0,4.81-3.68,14.59,14.59,0,0,0,2.68-5.52,21,21,0,0,0,.55-3.19l-.55,8.6.44,5.55a1,1,0,0,0,1,1l12.57.7h.06a1,1,0,0,0,1-.9l2.48-20C254.73,47.17,255.06,42.17,254.55,42ZM45.32,47.66a5.09,5.09,0,0,1-1.15,1.73,7.84,7.84,0,0,1-1.84,1.38c-.39.2-.75.38-1.11.54l-2-8.36a10.85,10.85,0,0,1,1.4-.09h.2a7.57,7.57,0,0,1,1.45.16,5.16,5.16,0,0,1,1.44.57,3.85,3.85,0,0,1,1.18,1.12,2.33,2.33,0,0,1,.37.49,1.41,1.41,0,0,1,.17.53A3.2,3.2,0,0,1,45.32,47.66Zm27.4,15.76a3.34,3.34,0,0,1-.78,1.1,3.64,3.64,0,0,1-2.5,1,3.59,3.59,0,0,1-1.39-.27,4.1,4.1,0,0,1-1.17-.75,3.16,3.16,0,0,1-.76-1.08,2.93,2.93,0,0,1-.28-1.29,3.11,3.11,0,0,1,.28-1.33,3.48,3.48,0,0,1,.76-1.07A4.09,4.09,0,0,1,68.06,59a3.57,3.57,0,0,1,1.38-.27A3.38,3.38,0,0,1,70.8,59a3.55,3.55,0,0,1,1.15.74,3.42,3.42,0,0,1,.78,1.1,2.92,2.92,0,0,1,.29,1.3A2.8,2.8,0,0,1,72.72,63.42Zm32.13-6.63a2.44,2.44,0,0,1-.71.93,3.63,3.63,0,0,1-1.23.61,9.17,9.17,0,0,1-1.73.3c-.44,0-.88,0-1.4,0h-.29l-.4-7.27a12.83,12.83,0,0,1,1.5.09,6.85,6.85,0,0,1,2.22.58,4.06,4.06,0,0,1,1.55,1.2,3.79,3.79,0,0,1,.68,2A3.18,3.18,0,0,1,104.85,56.79Zm14.24-7.37a17.5,17.5,0,0,0-1.43-3.53l1.59,0,.1,4.65C119.27,50.13,119.18,49.78,119.09,49.42Zm71.85,10a3.59,3.59,0,0,1-.79,1.09,3.67,3.67,0,0,1-1.15.74,3.46,3.46,0,0,1-1.35.27,3.57,3.57,0,0,1-1.38-.27,3.89,3.89,0,0,1-1.18-.75,3.19,3.19,0,0,1-.77-1.07,3.31,3.31,0,0,1,0-2.62,3.19,3.19,0,0,1,.77-1.07,3.83,3.83,0,0,1,1.18-.75,3.5,3.5,0,0,1,1.38-.27A3.39,3.39,0,0,1,189,55a3.61,3.61,0,0,1,1.15.74,3.4,3.4,0,0,1,.79,1.1,3,3,0,0,1,.28,1.3A3,3,0,0,1,190.94,59.43Zm31.73-8a2.29,2.29,0,0,1-.74.91,3.51,3.51,0,0,1-1.25.57,8.28,8.28,0,0,1-1.73.25l-.81,0h-.51l-.38,0-.18-7.28c.49,0,1,.07,1.5.14a7,7,0,0,1,2.2.64,4,4,0,0,1,1.51,1.26,3.6,3.6,0,0,1,.62,2A3.2,3.2,0,0,1,222.67,51.39Zm57.7,11.46a1.07,1.07,0,0,0-.6-.19l-.2,0c-.42.08-.87.16-1.36.21s-1,.1-1.52.12h-1.53a13.77,13.77,0,0,1-1.37-.14,5.58,5.58,0,0,1-1.56-.5,3.91,3.91,0,0,1-1.2-.86,3,3,0,0,1-.71-1.16,3.13,3.13,0,0,1-.08-1.48,2.57,2.57,0,0,1,.5-1.19,3.05,3.05,0,0,1,1-.83,4.08,4.08,0,0,1,1.35-.41c.22,0,.44,0,.66,0a5.72,5.72,0,0,1,.92.08,8.39,8.39,0,0,1,2.39.79,10.51,10.51,0,0,1,2.12,1.43,1,1,0,0,0,.69.26H280a1,1,0,0,0,.72-.42l6.43-9.05a1,1,0,0,0,0-1.22,13.51,13.51,0,0,0-2.39-2.46,22.06,22.06,0,0,0-3-1.95,21.2,21.2,0,0,0-3.28-1.44,18.56,18.56,0,0,0-3.29-.85,18.91,18.91,0,0,0-3.16-.27,18,18,0,0,0-4.15.48,19,19,0,0,0-6.45,2.85,18.09,18.09,0,0,0-4.9,5.07,17.86,17.86,0,0,0-2.63,6.9,16.05,16.05,0,0,0,.4,7.34,17,17,0,0,0,3.29,6A19.12,19.12,0,0,0,263,74.33a21.77,21.77,0,0,0,6.85,2.32,29.61,29.61,0,0,0,4.92.4h.92c2-.05,4.23-.19,5.92-1.27A2.74,2.74,0,0,0,283,72.68l.3-2.56-2.5-6.56A1,1,0,0,0,280.37,62.85Zm39.87-17.38-14,2.88h-.2a1.13,1.13,0,0,0-.59.2,1,1,0,0,0-.41.69l-.11.73q-.85-.42-1.74-.78a16.78,16.78,0,0,0-3.26-1l-.35-.07a14.94,14.94,0,0,0-2.91-.2h-.28a17,17,0,0,0-3.12.41,15.64,15.64,0,0,0-4.4,1.67,13.68,13.68,0,0,0-3.42,2.76,15,15,0,0,0-2.41,3.69,19.57,19.57,0,0,0-1.43,4.44l-.1.47-.07.33a6.09,6.09,0,0,0-.11.91,16.32,16.32,0,0,0,1.32,9.1,14.73,14.73,0,0,0,6.54,6.37,22.73,22.73,0,0,0,2.44,1.17,14.22,14.22,0,0,0,2.65.8,20.8,20.8,0,0,0,3.76.41h.66a12.81,12.81,0,0,0,1.64-.15,1,1,0,0,0,.83,1l13.53,2.57a1,1,0,0,0,.24,0,1,1,0,0,0,.56-.18,1,1,0,0,0,.43-.69l4.45-29.85C320.48,52.6,320.79,45.57,320.24,45.47Zm-18.11,23-.38,0c-.45-.06-.89-.14-1.33-.23a10.34,10.34,0,0,1-1.74-.5,4.49,4.49,0,0,1-1.27-.75,2.48,2.48,0,0,1-.68-1,2.72,2.72,0,0,1,0-1.49,3.14,3.14,0,0,1,.85-1.74,3.81,3.81,0,0,1,1.61-.92,6.55,6.55,0,0,1,1.67-.27h.47a16.79,16.79,0,0,1,1.85.16Z"/><path class="cls-12" d="M30.93,78.35a1.06,1.06,0,0,1-.53-.16,1,1,0,0,1-.46-.65L19.11,30.3a1,1,0,0,1,.77-1.24q4.55-1.1,9.05-2.13t9-2a5.43,5.43,0,0,1,.88-.21l.41-.07.42-.07a31.39,31.39,0,0,1,5.68-.43c.49,0,1,0,1.48.07a18.07,18.07,0,0,1,6.57,1.66,14,14,0,0,1,5.14,4.18,15.68,15.68,0,0,1,2.83,7,8.64,8.64,0,0,1,.11,1.4A14.21,14.21,0,0,1,61.41,40c-.06.5-.13,1-.23,1.45s-.2.87-.31,1.27a15.64,15.64,0,0,1-2.93,5.54,20.2,20.2,0,0,1-4.47,4,26.25,26.25,0,0,1-5.41,2.69,42.89,42.89,0,0,1-4.67,1.4l4.15,17.07a1,1,0,0,1-.77,1.24L31.18,78.32a1.07,1.07,0,0,1-.25,0m8.31-41,2,8.36c.36-.16.72-.34,1.11-.55a7.54,7.54,0,0,0,1.84-1.37A5.19,5.19,0,0,0,45.32,42a3.2,3.2,0,0,0,.13-1.93,1.47,1.47,0,0,0-.17-.54,3,3,0,0,0-.37-.49,3.93,3.93,0,0,0-1.18-1.11,5.16,5.16,0,0,0-1.44-.57,7.57,7.57,0,0,0-1.45-.17h-.2a13,13,0,0,0-1.4.1"/></g><g class="cls-13"><rect class="cls-12" x="6.05" y="17.06" width="68.38" height="68.38" transform="translate(-24.45 43.46) rotate(-45)"/></g><g class="cls-3"><path class="cls-14" d="M30.93,78.35a1.1,1.1,0,0,1-.53-.16,1,1,0,0,1-.46-.65L19.11,30.3a1,1,0,0,1,.77-1.24q4.55-1.1,9.05-2.13t9-2a5.32,5.32,0,0,1,.89-.21l.4-.07.42-.07a31.39,31.39,0,0,1,5.68-.43c.49,0,1,0,1.48.07a18.07,18.07,0,0,1,6.57,1.66,14,14,0,0,1,5.14,4.18,15.68,15.68,0,0,1,2.83,7,8.64,8.64,0,0,1,.11,1.4A14.08,14.08,0,0,1,61.41,40c-.06.5-.13,1-.23,1.45s-.2.87-.31,1.27a15.64,15.64,0,0,1-2.93,5.54,20.69,20.69,0,0,1-4.47,4,26.25,26.25,0,0,1-5.41,2.69,42.89,42.89,0,0,1-4.67,1.4l4.15,17.07a1,1,0,0,1-.77,1.24L31.18,78.32A1.07,1.07,0,0,1,30.93,78.35Zm8.31-41,2,8.36c.35-.16.72-.34,1.11-.55a7.54,7.54,0,0,0,1.84-1.37A5.19,5.19,0,0,0,45.32,42a3.2,3.2,0,0,0,.13-1.93,1.47,1.47,0,0,0-.17-.54,3,3,0,0,0-.37-.49,3.93,3.93,0,0,0-1.18-1.11,5.16,5.16,0,0,0-1.44-.57,7.67,7.67,0,0,0-1.45-.17h-.2A13,13,0,0,0,39.24,37.3Z"/><path class="cls-12" d="M69,73.2a18.09,18.09,0,0,1-6.67-1.26,17.82,17.82,0,0,1-5.57-3.5,17.26,17.26,0,0,1-3.83-5.29,15.67,15.67,0,0,1-1.44-6.67,15.84,15.84,0,0,1,1.44-6.7,17,17,0,0,1,3.83-5.3A17.92,17.92,0,0,1,69,39.69,17.57,17.57,0,0,1,75.64,41a17.91,17.91,0,0,1,5.55,3.5A17.06,17.06,0,0,1,85,49.78a15.69,15.69,0,0,1,1.44,6.7A15.52,15.52,0,0,1,85,63.15a17.3,17.3,0,0,1-3.83,5.29,17.71,17.71,0,0,1-5.56,3.5A17.94,17.94,0,0,1,69,73.2m.45-20.13a3.57,3.57,0,0,0-1.38.27,4,4,0,0,0-1.18.75,3.26,3.26,0,0,0-.76,1.07,3.07,3.07,0,0,0-.28,1.32,3,3,0,0,0,.28,1.3,3,3,0,0,0,.76,1.07,3.9,3.9,0,0,0,1.17.75,3.59,3.59,0,0,0,1.39.27,3.59,3.59,0,0,0,3.28-2.1,2.84,2.84,0,0,0,.3-1.29,3,3,0,0,0-.29-1.3A3.38,3.38,0,0,0,72,54.09a3.58,3.58,0,0,0-1.15-.75,3.51,3.51,0,0,0-1.36-.27"/></g><g class="cls-15"><rect class="cls-12" x="44.76" y="32.23" width="48.43" height="48.42" transform="translate(-19.71 65.3) rotate(-45)"/></g><g class="cls-3"><path class="cls-14" d="M69,73.2a18.09,18.09,0,0,1-6.67-1.26,17.82,17.82,0,0,1-5.57-3.5,17.26,17.26,0,0,1-3.83-5.29,15.67,15.67,0,0,1-1.44-6.67,15.84,15.84,0,0,1,1.44-6.7,17,17,0,0,1,3.83-5.3A18,18,0,0,1,75.64,41a17.91,17.91,0,0,1,5.55,3.5A17.06,17.06,0,0,1,85,49.78a15.69,15.69,0,0,1,1.44,6.7A15.52,15.52,0,0,1,85,63.15a17.3,17.3,0,0,1-3.83,5.29,17.71,17.71,0,0,1-5.56,3.5A17.9,17.9,0,0,1,69,73.2Zm.45-20.13a3.57,3.57,0,0,0-1.38.27,4,4,0,0,0-1.18.75,3.26,3.26,0,0,0-.76,1.07,3.07,3.07,0,0,0-.28,1.32,3.12,3.12,0,0,0,.27,1.3,3.19,3.19,0,0,0,.77,1.07,3.9,3.9,0,0,0,1.17.75,3.59,3.59,0,0,0,1.39.27,3.69,3.69,0,0,0,2.5-1,3.63,3.63,0,0,0,.79-1.1,3,3,0,0,0,0-2.59A3.38,3.38,0,0,0,72,54.09a3.58,3.58,0,0,0-1.15-.75A3.51,3.51,0,0,0,69.44,53.07Z"/><path class="cls-12" d="M85.4,78.88a1,1,0,0,1-1-1l-1-43.27a1,1,0,0,1,1-1.06l13.12-.38h0a1,1,0,0,1,1,1l0,.58.19-.09c.56-.28,1.14-.53,1.71-.76a14.45,14.45,0,0,1,1.82-.62,9.79,9.79,0,0,1,2-.3c.44,0,.74,0,1,0a12.67,12.67,0,0,1,2.29.21,17.23,17.23,0,0,1,3,.91,12.73,12.73,0,0,1,4,2.36,14,14,0,0,1,2.78,3.34,17.07,17.07,0,0,1,1.7,4,23.05,23.05,0,0,1,.75,4.43,23.79,23.79,0,0,1-.43,7,14.71,14.71,0,0,1-2.52,5.6,13.05,13.05,0,0,1-4.7,3.82,18.4,18.4,0,0,1-6.76,1.68c-.45,0-.88.06-1.31.06a14.72,14.72,0,0,1-2.13-.16c-.59-.1-1.21-.22-1.84-.38l.73,11.65a1,1,0,0,1-1,1.09l-14.44.36ZM99.49,53h.29c.52,0,1,0,1.4-.05a8.43,8.43,0,0,0,1.73-.31,3.62,3.62,0,0,0,1.23-.6,2.35,2.35,0,0,0,.7-.94,3,3,0,0,0,.2-1.48,3.76,3.76,0,0,0-.68-2,4.19,4.19,0,0,0-1.55-1.21,7.11,7.11,0,0,0-2.22-.58q-.77-.08-1.5-.09Z"/></g><g class="cls-16"><rect class="cls-12" x="72.45" y="26.67" width="58.45" height="58.45" transform="translate(-9.75 88.27) rotate(-45)"/></g><g class="cls-3"><path class="cls-14" d="M85.4,78.88a1,1,0,0,1-1-1l-1-43.27a1,1,0,0,1,1-1.06l13.12-.38h0a1,1,0,0,1,1,1l0,.58.19-.09c.56-.28,1.14-.53,1.71-.76a14.45,14.45,0,0,1,1.82-.62,9.79,9.79,0,0,1,2-.3c.44,0,.74,0,1,0a12.67,12.67,0,0,1,2.29.21,17.23,17.23,0,0,1,3,.91,12.9,12.9,0,0,1,4,2.35,14.22,14.22,0,0,1,2.78,3.35,16.9,16.9,0,0,1,1.7,4,23.05,23.05,0,0,1,.75,4.43,23.45,23.45,0,0,1-.43,7,14.71,14.71,0,0,1-2.52,5.6,13.05,13.05,0,0,1-4.7,3.82,18.4,18.4,0,0,1-6.76,1.68c-.45,0-.88.06-1.31.06a14.72,14.72,0,0,1-2.13-.16c-.59-.1-1.21-.22-1.84-.38l.73,11.65a1,1,0,0,1-1,1.09l-14.44.36ZM99.49,53h.29c.52,0,1,0,1.39-.05a8.41,8.41,0,0,0,1.74-.31,3.46,3.46,0,0,0,1.23-.61,2.36,2.36,0,0,0,.71-.93,3.29,3.29,0,0,0,.19-1.48,3.76,3.76,0,0,0-.68-2,4.19,4.19,0,0,0-1.55-1.21,7.11,7.11,0,0,0-2.22-.58q-.77-.08-1.5-.09Z"/><path class="cls-12" d="M120.73,61.32a1,1,0,0,1-1-1l-.44-20.12-5.18.15h0a1,1,0,0,1-1-1l-.21-11a1,1,0,0,1,1-1.06l5.16-.16L118.68,13a1.05,1.05,0,0,1,1-1.06l14.91-.3h0a1,1,0,0,1,1,1l.09,14,5.87-.16h0a1.1,1.1,0,0,1,.75.31,1.07,1.07,0,0,1,.3.76l-.3,11a1,1,0,0,1-1,1l-5.55.15L136,60.1a1,1,0,0,1-1,1l-14.24.18Z"/></g><g class="cls-17"><rect class="cls-12" x="99.59" y="8.32" width="56.29" height="56.29" transform="translate(11.63 101) rotate(-45)"/></g><g class="cls-3"><path class="cls-14" d="M120.73,61.32a1,1,0,0,1-1-1l-.44-20.12-5.18.15h0a1,1,0,0,1-1-1l-.21-11a1,1,0,0,1,1-1.06l5.16-.16L118.68,13a1.05,1.05,0,0,1,1-1.06l14.91-.3h0a1,1,0,0,1,1,1l.09,14,5.87-.16h0a1.1,1.1,0,0,1,.75.31,1.07,1.07,0,0,1,.3.76l-.3,11a1,1,0,0,1-1,1l-5.55.15L136,60.1a1,1,0,0,1-1,1l-14.24.18Z"/><path class="cls-12" d="M141.06,67.62a1,1,0,0,1-1-1l-.86-30.29a1,1,0,0,1,1-1.06l13.66-.89h.06a1.08,1.08,0,0,1,.71.27,1.06,1.06,0,0,1,.33.74l0,1.58a13.79,13.79,0,0,1,2.46-1,15.28,15.28,0,0,1,4.66-.73,10.78,10.78,0,0,1,7.52,2.52c1.87,1.69,2.81,4.21,2.81,7.49q0,1.54-.06,3.06l-.12,2.87a1.15,1.15,0,0,1-1,1.11l-12.63.43h0a1,1,0,0,1-.75-.33,1.05,1.05,0,0,1-.27-.82q.09-.83.24-1.68a9.29,9.29,0,0,0,.12-1.5,2.29,2.29,0,0,0-.61-1.67,1.41,1.41,0,0,0-1.32-.55,2.88,2.88,0,0,0-.9.15l.32,20.17a1,1,0,0,1-1,1.06l-13.26.12Z"/></g><g class="cls-18"><rect class="cls-12" x="132.28" y="27.5" width="47" height="47" transform="translate(9.57 125.09) rotate(-45)"/></g><g class="cls-3"><path class="cls-14" d="M141.06,67.62a1,1,0,0,1-1-1l-.86-30.29a1,1,0,0,1,1-1.06l13.66-.89h.06a1.08,1.08,0,0,1,.71.27,1,1,0,0,1,.33.74l0,1.58a13.79,13.79,0,0,1,2.46-1,15.28,15.28,0,0,1,4.66-.73,10.78,10.78,0,0,1,7.52,2.52c1.87,1.69,2.81,4.21,2.81,7.49q0,1.54-.06,3.06l-.12,2.87a1.15,1.15,0,0,1-1,1.11l-12.63.43h0a1,1,0,0,1-.75-.33,1.05,1.05,0,0,1-.27-.82q.09-.83.24-1.68a9.29,9.29,0,0,0,.12-1.5,2.34,2.34,0,0,0-.6-1.67,1.46,1.46,0,0,0-1.33-.55,2.88,2.88,0,0,0-.9.15l.32,20.17a1.08,1.08,0,0,1-.29.75,1.07,1.07,0,0,1-.74.3l-13.26.13Z"/><path class="cls-12" d="M187.2,69.2A18,18,0,0,1,175,64.44a17.14,17.14,0,0,1-3.83-5.29,15.57,15.57,0,0,1-1.44-6.66,15.76,15.76,0,0,1,1.44-6.71,17.15,17.15,0,0,1,3.82-5.3A18.08,18.08,0,0,1,180.52,37a17.84,17.84,0,0,1,6.68-1.28,17.95,17.95,0,0,1,12.2,4.79,17.11,17.11,0,0,1,3.83,5.3,15.85,15.85,0,0,1,1.44,6.71,15.65,15.65,0,0,1-1.44,6.66,17.18,17.18,0,0,1-3.83,5.29,18.1,18.1,0,0,1-5.55,3.5,17.75,17.75,0,0,1-6.65,1.26m.45-20.13a3.5,3.5,0,0,0-1.38.27,4,4,0,0,0-1.18.75,3.23,3.23,0,0,0-.77,1.08,3.18,3.18,0,0,0-.27,1.32,3.11,3.11,0,0,0,.27,1.29,3.33,3.33,0,0,0,.77,1.08,4.09,4.09,0,0,0,1.18.75,3.57,3.57,0,0,0,1.38.27,3.46,3.46,0,0,0,1.35-.27,3.56,3.56,0,0,0,1.15-.74,3.63,3.63,0,0,0,.79-1.1,3.13,3.13,0,0,0,0-2.59,3.51,3.51,0,0,0-.79-1.1,3.61,3.61,0,0,0-1.15-.74,3.39,3.39,0,0,0-1.35-.27"/></g><g class="cls-19"><rect class="cls-12" x="162.96" y="28.23" width="48.43" height="48.43" transform="translate(17.74 147.72) rotate(-45)"/></g><g class="cls-3"><path class="cls-14" d="M187.2,69.2A18,18,0,0,1,175,64.44a17.14,17.14,0,0,1-3.83-5.29,15.57,15.57,0,0,1-1.44-6.66,15.76,15.76,0,0,1,1.44-6.71,17,17,0,0,1,3.83-5.3,18,18,0,0,1,12.24-4.79,17.9,17.9,0,0,1,12.19,4.79,17,17,0,0,1,3.84,5.3,15.85,15.85,0,0,1,1.44,6.71,15.65,15.65,0,0,1-1.44,6.66,17,17,0,0,1-3.84,5.29A17.81,17.81,0,0,1,187.2,69.2Zm.45-20.13a3.5,3.5,0,0,0-1.38.27,4,4,0,0,0-1.18.75,3.23,3.23,0,0,0-.77,1.08,3.18,3.18,0,0,0-.27,1.32,3.11,3.11,0,0,0,.27,1.29,3.33,3.33,0,0,0,.77,1.08,4.09,4.09,0,0,0,1.18.75,3.61,3.61,0,0,0,2.74,0,3.67,3.67,0,0,0,1.93-1.84,3.13,3.13,0,0,0,0-2.59,3.51,3.51,0,0,0-.79-1.1,3.68,3.68,0,0,0-1.14-.74A3.47,3.47,0,0,0,187.65,49.07Z"/><path class="cls-12" d="M216.89,73h0l-14.44-.07a1,1,0,0,1-1-1l.26-43.29a1,1,0,0,1,1-1h13.14a1,1,0,0,1,1,1v.59l.19-.09c.58-.25,1.16-.5,1.74-.71a14.79,14.79,0,0,1,1.83-.55,9.34,9.34,0,0,1,2-.24c.32,0,.49,0,.66,0a11.35,11.35,0,0,1,2.66.29,16.51,16.51,0,0,1,3,1,13,13,0,0,1,3.9,2.48,13.84,13.84,0,0,1,2.67,3.43,16.46,16.46,0,0,1,1.58,4.08,23.06,23.06,0,0,1,.63,4.45,23.66,23.66,0,0,1-.65,6.94,14.66,14.66,0,0,1-2.68,5.52,13,13,0,0,1-4.81,3.67,18.36,18.36,0,0,1-6.81,1.49l-.74,0a15.43,15.43,0,0,1-2.7-.23c-.6-.11-1.21-.26-1.83-.43l.38,11.66a1,1,0,0,1-.29.75,1,1,0,0,1-.73.31m.36-25.5.38,0h.51l.81,0a8.28,8.28,0,0,0,1.73-.25,3.52,3.52,0,0,0,1.25-.58,2.23,2.23,0,0,0,.74-.91,3.13,3.13,0,0,0,.23-1.46,3.64,3.64,0,0,0-.62-2.05A4.12,4.12,0,0,0,220.77,41a7.52,7.52,0,0,0-2.2-.64c-.5-.06-1-.11-1.5-.13Z"/></g><g class="cls-20"><rect class="cls-12" x="190.68" y="21.3" width="57.9" height="57.9" transform="translate(28.8 170.02) rotate(-45)"/></g><g class="cls-3"><path class="cls-14" d="M216.89,73h0l-14.43-.07a1,1,0,0,1-1-1l.26-43.29a1,1,0,0,1,1-1h13.14a1,1,0,0,1,1,1v.59l.19-.09c.58-.25,1.16-.5,1.74-.71a16.79,16.79,0,0,1,1.83-.56,10,10,0,0,1,2-.23c.32,0,.49,0,.66,0a11.35,11.35,0,0,1,2.66.29,16.51,16.51,0,0,1,3,1,13,13,0,0,1,3.9,2.48,13.84,13.84,0,0,1,2.67,3.43,16.46,16.46,0,0,1,1.58,4.08,23.06,23.06,0,0,1,.63,4.45,23.66,23.66,0,0,1-.65,6.94,14.66,14.66,0,0,1-2.68,5.52,13.11,13.11,0,0,1-4.81,3.67,18.36,18.36,0,0,1-6.81,1.49l-.74,0a15.43,15.43,0,0,1-2.7-.23c-.6-.11-1.21-.26-1.83-.43l.38,11.66a1,1,0,0,1-.29.75A1,1,0,0,1,216.89,73Zm.36-25.5.38,0h.51l.81,0a8.28,8.28,0,0,0,1.73-.25,3.52,3.52,0,0,0,1.25-.58,2.23,2.23,0,0,0,.74-.91,3.13,3.13,0,0,0,.23-1.46,3.64,3.64,0,0,0-.62-2.05A4.12,4.12,0,0,0,220.77,41a7.52,7.52,0,0,0-2.2-.64c-.5-.06-1-.11-1.5-.13Z"/><path class="cls-12" d="M250.6,30.42a11.36,11.36,0,0,1-1.44-.09,13,13,0,0,1-3.66-1,9.1,9.1,0,0,1-2.92-2,7.65,7.65,0,0,1-1.8-3.06,9.13,9.13,0,0,1-.31-3.92,9.7,9.7,0,0,1,1.27-3.81,8.88,8.88,0,0,1,2.53-2.71,9.5,9.5,0,0,1,3.42-1.49,10.84,10.84,0,0,1,2.43-.27,12.08,12.08,0,0,1,1.47.09,14.86,14.86,0,0,1,4,1.05,9.39,9.39,0,0,1,3.11,2.13,8.24,8.24,0,0,1,1.84,3.29,10.68,10.68,0,0,1,.27,4.29,7.38,7.38,0,0,1-1.51,3.69,9.12,9.12,0,0,1-2.87,2.4,12,12,0,0,1-3.57,1.21,13.64,13.64,0,0,1-2.26.2"/></g><g class="cls-21"><rect class="cls-12" x="236.84" y="7.44" width="27.61" height="27.61" transform="translate(58.39 183.45) rotate(-45)"/></g><g class="cls-3"><path class="cls-14" d="M250.6,30.42a11.36,11.36,0,0,1-1.44-.09,13,13,0,0,1-3.66-1,9.1,9.1,0,0,1-2.92-2,7.65,7.65,0,0,1-1.8-3.06,9.13,9.13,0,0,1-.31-3.92,9.7,9.7,0,0,1,1.27-3.81,8.88,8.88,0,0,1,2.53-2.71,9.68,9.68,0,0,1,3.42-1.49,10.84,10.84,0,0,1,2.43-.27,12.08,12.08,0,0,1,1.47.09,14.86,14.86,0,0,1,4,1.05,9.25,9.25,0,0,1,3.1,2.13,8.14,8.14,0,0,1,1.85,3.29,10.68,10.68,0,0,1,.27,4.29,7.38,7.38,0,0,1-1.51,3.69,9.12,9.12,0,0,1-2.87,2.4,12,12,0,0,1-3.57,1.21A13.64,13.64,0,0,1,250.6,30.42Z"/><path class="cls-12" d="M251.15,62.9h-.06l-12.57-.7a1,1,0,0,1-1-1.05l.22-27.6a1.08,1.08,0,0,1,.4-.81,1,1,0,0,1,.63-.21,1,1,0,0,1,.25,0l15.51,3.82a1,1,0,0,1,.78,1.14L252.18,62a1,1,0,0,1-1,.91"/></g><g class="cls-22"><rect class="cls-12" x="229.41" y="30.66" width="34.11" height="34.11" transform="translate(38.45 188.25) rotate(-45)"/></g><g class="cls-3"><path class="cls-14" d="M251.15,62.9h-.06l-12.57-.7a1,1,0,0,1-1-1.05l.22-27.6a1,1,0,0,1,.4-.8,1,1,0,0,1,.63-.22,1,1,0,0,1,.25,0l15.51,3.82a1,1,0,0,1,.78,1.14L252.18,62A1,1,0,0,1,251.15,62.9Z"/><path class="cls-12" d="M274.8,71.4a30.72,30.72,0,0,1-4.92-.4A22,22,0,0,1,263,68.68a19.12,19.12,0,0,1-5.44-4.37,17,17,0,0,1-3.29-6,16,16,0,0,1-.4-7.33,17.86,17.86,0,0,1,2.63-6.9,18.26,18.26,0,0,1,4.9-5.08,18.74,18.74,0,0,1,6.45-2.84,18,18,0,0,1,4.15-.48,20,20,0,0,1,3.16.26,19.46,19.46,0,0,1,3.29.85,21.69,21.69,0,0,1,6.25,3.4,13.2,13.2,0,0,1,2.39,2.46,1,1,0,0,1,0,1.22l-6.43,9.05a1,1,0,0,1-.72.42h-.12a1.09,1.09,0,0,1-.69-.26,9.74,9.74,0,0,0-2.12-1.43,8.74,8.74,0,0,0-2.39-.8,7.12,7.12,0,0,0-.92-.07,4.87,4.87,0,0,0-.66,0,3.86,3.86,0,0,0-1.35.41,3.15,3.15,0,0,0-1,.82,2.51,2.51,0,0,0-.5,1.2,3.08,3.08,0,0,0,.08,1.47,3,3,0,0,0,.71,1.16,3.94,3.94,0,0,0,1.2.87,5.56,5.56,0,0,0,1.56.49,11.32,11.32,0,0,0,1.37.14l.79,0h.74c.52,0,1-.07,1.52-.12s.94-.13,1.36-.21a.69.69,0,0,1,.2,0,1,1,0,0,1,.6.2,1,1,0,0,1,.43.7l1.51,11.32a1,1,0,0,1-.7,1.11,19.62,19.62,0,0,1-5.89,1l-.92,0"/></g><g class="cls-23"><rect class="cls-12" x="245.8" y="28.88" width="49.27" height="49.27" transform="translate(41.37 206.9) rotate(-45)"/></g><g class="cls-3"><path class="cls-14" d="M274.8,71.4a30.72,30.72,0,0,1-4.92-.4A22,22,0,0,1,263,68.68a19.12,19.12,0,0,1-5.44-4.37,17,17,0,0,1-3.29-6,16,16,0,0,1-.4-7.33,17.86,17.86,0,0,1,2.63-6.9,18.26,18.26,0,0,1,4.9-5.08,18.74,18.74,0,0,1,6.45-2.84,18,18,0,0,1,4.15-.48,20,20,0,0,1,3.16.26,19.46,19.46,0,0,1,3.29.85,21.25,21.25,0,0,1,3.28,1.45,20.58,20.58,0,0,1,3,1.95,13.2,13.2,0,0,1,2.39,2.46,1,1,0,0,1,0,1.22l-6.43,9.05a1,1,0,0,1-.72.42h-.12a1.09,1.09,0,0,1-.69-.26,9.74,9.74,0,0,0-2.12-1.43,8.74,8.74,0,0,0-2.39-.8,7.12,7.12,0,0,0-.92-.07,4.87,4.87,0,0,0-.66,0,3.86,3.86,0,0,0-1.35.41,3.15,3.15,0,0,0-1,.82,2.51,2.51,0,0,0-.5,1.2,3.09,3.09,0,0,0,.08,1.47,3,3,0,0,0,.71,1.16,3.94,3.94,0,0,0,1.2.87,5.56,5.56,0,0,0,1.56.49,11.32,11.32,0,0,0,1.37.14l.79,0h.74c.52,0,1-.07,1.52-.12s.94-.13,1.36-.21a.69.69,0,0,1,.2,0,1,1,0,0,1,.6.2,1,1,0,0,1,.43.7l1.51,11.32a1,1,0,0,1-.7,1.11,19.62,19.62,0,0,1-5.89,1Z"/><path class="cls-12" d="M314,78.31l-.24,0-12.53-2.64a1,1,0,0,1-.83-1,12.81,12.81,0,0,1-1.64.14c-.22,0-.44,0-.66,0a20.8,20.8,0,0,1-3.76-.41,14.22,14.22,0,0,1-2.65-.8,22.73,22.73,0,0,1-2.44-1.17,14.78,14.78,0,0,1-6.54-6.37,16.43,16.43,0,0,1-1.33-9.1,7.86,7.86,0,0,1,.12-.91l.07-.33.09-.48a20.18,20.18,0,0,1,1.44-4.43,14.78,14.78,0,0,1,2.41-3.69,13.71,13.71,0,0,1,3.42-2.77,16.05,16.05,0,0,1,4.4-1.66,17.89,17.89,0,0,1,3.12-.42h.28a16.69,16.69,0,0,1,2.91.2l.35.07a17.5,17.5,0,0,1,3.26,1c.59.25,1.17.51,1.74.79l.11-.73a1,1,0,0,1,.41-.69,1,1,0,0,1,.59-.2h.2L319,44.89a1,1,0,0,1,.84,1.18L315,77.43a1.11,1.11,0,0,1-.43.7,1.16,1.16,0,0,1-.57.18M300.83,55.87a6.14,6.14,0,0,0-1.67.26,3.92,3.92,0,0,0-1.61.92,3.21,3.21,0,0,0-.85,1.74,2.76,2.76,0,0,0,0,1.5,2.48,2.48,0,0,0,.68,1,4.25,4.25,0,0,0,1.27.74,9.5,9.5,0,0,0,1.74.51c.44.09.88.16,1.33.23l.38,0,1-6.78a16.69,16.69,0,0,0-1.85-.17h-.47"/></g><g class="cls-24"><rect class="cls-12" x="273.93" y="33.71" width="53.01" height="53.11" transform="translate(49.49 236.11) rotate(-46.36)"/></g><g class="cls-3"><path class="cls-14" d="M314,78.31l-.24,0-12.53-2.64a1,1,0,0,1-.83-1,12.81,12.81,0,0,1-1.64.14c-.22,0-.43,0-.66,0a20.8,20.8,0,0,1-3.76-.41,14.22,14.22,0,0,1-2.65-.8,22.73,22.73,0,0,1-2.44-1.17,14.73,14.73,0,0,1-6.54-6.37,16.43,16.43,0,0,1-1.33-9.1,7.86,7.86,0,0,1,.12-.91l.07-.33.1-.48a19.65,19.65,0,0,1,1.43-4.43,14.51,14.51,0,0,1,2.41-3.69,13.5,13.5,0,0,1,3.42-2.77,15.81,15.81,0,0,1,4.4-1.66,17.89,17.89,0,0,1,3.12-.42h.28a16.69,16.69,0,0,1,2.91.2l.35.07a17.5,17.5,0,0,1,3.26,1c.59.25,1.17.51,1.74.79l.11-.73a1,1,0,0,1,.41-.69,1,1,0,0,1,.59-.2h.2L319,44.89a1,1,0,0,1,.84,1.18l-4.9,31.36a1.05,1.05,0,0,1-.42.7A1.16,1.16,0,0,1,314,78.31ZM300.83,55.87a6.14,6.14,0,0,0-1.67.26,3.92,3.92,0,0,0-1.61.92,3.21,3.21,0,0,0-.85,1.74,2.76,2.76,0,0,0,0,1.5,2.48,2.48,0,0,0,.68,1,4.25,4.25,0,0,0,1.27.74,9.5,9.5,0,0,0,1.74.51c.44.09.88.16,1.33.23l.38,0,1-6.78a16.69,16.69,0,0,0-1.85-.17Z"/></g></g></g></svg>