<svg xmlns="http://www.w3.org/2000/svg" viewBox="0 0 130.36 76.53"><defs><style>.cls-1{fill:#bdbec0;}.cls-2{fill:#fff;}.cls-3{fill:#1b4997;}.cls-4{fill:#be202e;}.cls-5{fill:#231f20;}</style></defs><title>Logo-w2b</title><g id="Layer_2" data-name="Layer 2"><g id="NSD_-_Product_-_Routine_Success" data-name="NSD - Product - Routine Success"><polygon class="cls-1" points="66.03 30.66 86.05 23.46 72.16 17.42 51 23.91 66.03 30.66"/><polygon class="cls-2" points="62.13 19.21 62.17 19.23 62.17 8.7 66.03 10.43 66.03 30.66 61.48 28.62 58.62 17.58 58.57 17.56 55.38 25.88 51 23.91 51.04 3.61 54.95 5.45 54.95 15.98 54.99 16.01 58.51 7.05 58.81 7.19 62.13 19.21"/><path class="cls-3" d="M66,10.43l7.66-2.79c4.29-1.56,6.38-.55,6.38,2.47a7,7,0,0,1-3.8,6.31v0c2.52-.48,4.12.56,4.12,3.29,0,4-2.73,6.67-6.59,8.08L66,30.67Z"/><path class="cls-4" d="M69.48,5.74c2.45-.89,3.77-1.06,5.18-.4l4.07,1.94c-1-.54-2.6-.53-5,.36L66,10.43,62.17,8.7l.48-.9c.75-1.36,1.31-2.93-.87-4.08a4.55,4.55,0,0,0-3.25-.23,16.56,16.56,0,0,0-3.59,2L51,3.61a10.32,10.32,0,0,1,4.05-2.53A13,13,0,0,1,65,.88a4.62,4.62,0,0,1,3.18,4.83v.36l0,0Z"/><path class="cls-5" d="M54.94,5.45V16L55,16l3.52-9,.31.14,3.31,12,0,0V8.7l.48-.9c.75-1.36,1.31-2.93-.87-4.08a4.55,4.55,0,0,0-3.25-.23,16.56,16.56,0,0,0-3.59,2"/><polygon class="cls-5" points="55.38 25.88 60.34 24.25 58.62 17.58 58.57 17.56 55.38 25.88"/><polygon class="cls-2" points="0 37.12 1.25 37.12 4.15 45.57 6.93 37.09 7.87 37.09 10.65 45.57 13.55 37.12 14.76 37.12 11.13 47.34 10.16 47.34 7.38 39.1 4.58 47.34 3.62 47.34 0 37.12"/><polygon class="cls-2" points="19.73 37.12 20.87 37.12 20.87 41.63 26.73 41.63 26.73 37.12 27.87 37.12 27.87 47.27 26.73 47.27 26.73 42.7 20.87 42.7 20.87 47.27 19.73 47.27 19.73 37.12"/><rect class="cls-2" x="33.74" y="37.12" width="1.15" height="10.15"/><polygon class="cls-2" points="43.44 38.18 40.03 38.18 40.03 37.12 48.01 37.12 48.01 38.18 44.6 38.18 44.6 47.27 43.44 47.27 43.44 38.18"/><polygon class="cls-2" points="53.05 37.12 60.38 37.12 60.38 38.16 54.19 38.16 54.19 41.63 59.73 41.63 59.73 42.67 54.19 42.67 54.19 46.22 60.45 46.22 60.45 47.27 53.05 47.27 53.05 37.12"/><path class="cls-2" d="M65.92,37.12h4.33a3.72,3.72,0,0,1,2.65.9,2.24,2.24,0,0,1,.65,1.62v0A2.45,2.45,0,0,1,71.94,42a2.55,2.55,0,0,1,2.17,2.45v0c0,1.74-1.46,2.77-3.68,2.77H65.92Zm4.14,4.52c1.37,0,2.33-.62,2.33-1.81v0c0-1-.8-1.65-2.25-1.65H67.06v3.49Zm.4,4.6c1.54,0,2.5-.69,2.5-1.82v0c0-1.11-.93-1.74-2.7-1.74h-3.2v3.58Z"/><path class="cls-2" d="M78.57,42.22v0a5.18,5.18,0,1,1,10.35,0v0a5.18,5.18,0,1,1-10.35,0m9.16,0v0a4,4,0,0,0-4-4.19,4,4,0,0,0-4,4.16v0a4,4,0,0,0,4,4.19,4,4,0,0,0,4-4.16"/><path class="cls-2" d="M97.4,37.05h1.07l4.63,10.22h-1.23l-1.19-2.69H95.15L94,47.27H92.78Zm2.83,6.5-2.31-5.17L95.6,43.55Z"/><path class="cls-2" d="M108,37.12h4.36a4,4,0,0,1,2.88,1,2.8,2.8,0,0,1,.79,2v0a3,3,0,0,1-2.76,3l3.12,4.15H115l-2.94-4h-2.9v4H108Zm4.26,5.17c1.52,0,2.61-.78,2.61-2.08v0c0-1.25-1-2-2.6-2h-3.13v4.11Z"/><path class="cls-2" d="M121.38,37.12h3.52a5.05,5.05,0,0,1,5.39,5v0a5.08,5.08,0,0,1-5.39,5.08h-3.52Zm3.52,9.09a3.93,3.93,0,0,0,4.2-4v0a4,4,0,0,0-4.2-4h-2.38v8Z"/><path class="cls-4" d="M1.49,63.77l3.69-3.24c1.55-1.39,2.11-2.18,2.11-3.19a1.93,1.93,0,0,0-2-1.94,3.24,3.24,0,0,0-2.73,1.74l-.84-.61a4,4,0,0,1,3.65-2.16,2.92,2.92,0,0,1,3.15,2.87v0c0,1.47-.78,2.39-2.57,3.94L3.2,63.62H8.58v1H1.49Z"/><path class="cls-2" d="M13.52,54.51h4.32a3.77,3.77,0,0,1,2.66.9A2.26,2.26,0,0,1,21.15,57v0a2.45,2.45,0,0,1-1.61,2.35,2.55,2.55,0,0,1,2.17,2.45v0c0,1.74-1.46,2.77-3.68,2.77H13.52ZM17.65,59C19,59,20,58.41,20,57.22v0c0-1-.8-1.65-2.25-1.65H14.65V59Zm.41,4.6c1.54,0,2.49-.68,2.49-1.81v0c0-1.1-.92-1.74-2.69-1.74H14.65v3.58Z"/><path class="cls-2" d="M25.57,59.61v0a5.18,5.18,0,1,1,10.35,0v0a5.18,5.18,0,1,1-10.35,0m9.16,0v0a4,4,0,0,0-4-4.19,4,4,0,0,0-4,4.16v0a4,4,0,0,0,4,4.18,4,4,0,0,0,4-4.16"/><path class="cls-2" d="M43.53,54.44H44.6l4.62,10.22H48L46.8,62H41.28l-1.2,2.68H38.9ZM46.35,61l-2.3-5.18L41.73,61Z"/><path class="cls-2" d="M53.25,54.51h4.37a4,4,0,0,1,2.88,1,2.8,2.8,0,0,1,.78,2v0a3,3,0,0,1-2.75,2.95l3.11,4.15h-1.4L57.3,60.72H54.4v3.94H53.25Zm4.26,5.18c1.53,0,2.61-.79,2.61-2.09v0c0-1.25-.95-2-2.59-2H54.4v4.12Z"/><path class="cls-2" d="M65.93,54.51h3.52a5.07,5.07,0,0,1,5.4,5.05v0a5.09,5.09,0,0,1-5.4,5.07H65.93Zm3.52,9.09a3.93,3.93,0,0,0,4.21-4v0a4,4,0,0,0-4.21-4H67.08v8Z"/><path class="cls-2" d="M79.12,54.51h4.37a4,4,0,0,1,2.88,1,2.76,2.76,0,0,1,.78,2v0a3,3,0,0,1-2.75,2.95l3.12,4.15H86.11l-2.94-3.94h-2.9v3.94H79.12Zm4.27,5.18c1.52,0,2.61-.79,2.61-2.09v0c0-1.25-1-2-2.6-2H80.27v4.12Z"/><path class="cls-2" d="M91.18,59.61v0a5.18,5.18,0,1,1,10.35,0v0a5.18,5.18,0,1,1-10.35,0m9.16,0v0a4,4,0,0,0-4-4.19,4,4,0,0,0-4,4.16v0a4,4,0,0,0,4,4.18,4,4,0,0,0,4-4.16"/><path class="cls-2" d="M105.53,59.61v0a5.18,5.18,0,1,1,10.35,0v0a5.18,5.18,0,1,1-10.35,0m9.16,0v0a4,4,0,0,0-4-4.19,4,4,0,0,0-4,4.16v0a4,4,0,0,0,4,4.18,4,4,0,0,0,4-4.16"/><polygon class="cls-2" points="120.33 54.51 121.49 54.51 125.19 60.05 128.88 54.51 130.04 54.51 130.04 64.66 128.9 64.66 128.9 56.44 125.2 61.88 125.14 61.88 121.45 56.45 121.45 64.66 120.33 64.66 120.33 54.51"/><path class="cls-2" d="M72.32,16.23a3.35,3.35,0,0,0,2.52-3.15c0-1.51-.93-1.87-2.21-1.4l-1.39.5v4.44Z"/><path class="cls-2" d="M72.69,24.47a3.33,3.33,0,0,0,2.47-3.22c0-1.5-.81-2.11-2.24-1.59l-1.68.61V25Z"/><path class="cls-2" d="M1.59,76.45V72.53H3.45a1.42,1.42,0,0,1,.48.08,1,1,0,0,1,.37.2,1,1,0,0,1,.26,1.06,1,1,0,0,1-.17.27.83.83,0,0,1-.23.19.94.94,0,0,1-.28.1.87.87,0,0,1,.32.11,1.09,1.09,0,0,1,.26.22.92.92,0,0,1,.17.29,1,1,0,0,1,.07.34,1,1,0,0,1-.09.43,1,1,0,0,1-.23.34,1.17,1.17,0,0,1-.38.21,1.6,1.6,0,0,1-.51.08Zm1.77-2.22a.73.73,0,0,0,.54-.18.61.61,0,0,0,.18-.45.64.64,0,0,0-.18-.45A.73.73,0,0,0,3.36,73H2.11v1.26Zm0,1.79A.85.85,0,0,0,4,75.84a.65.65,0,0,0,.2-.5.75.75,0,0,0,0-.26A.51.51,0,0,0,4,74.87a.7.7,0,0,0-.24-.15.85.85,0,0,0-.33,0H2.11V76Z"/><path class="cls-2" d="M8.76,76.45,7.7,74.89H6.87v1.56H6.35V72.53H8a1.51,1.51,0,0,1,.53.09,1.27,1.27,0,0,1,.41.23,1.31,1.31,0,0,1,.27.38,1.21,1.21,0,0,1,.09.48,1.13,1.13,0,0,1-.08.47,1,1,0,0,1-.24.35,1,1,0,0,1-.35.22,1.12,1.12,0,0,1-.4.1l1.12,1.6Zm-.8-2a.84.84,0,0,0,.6-.21.75.75,0,0,0,0-1.08A.89.89,0,0,0,8,73H6.87v1.49Z"/><rect class="cls-2" x="10.97" y="72.53" width="0.52" height="3.92"/><polygon class="cls-2" points="16.24 76.45 13.81 73.33 13.81 76.45 13.29 76.45 13.29 72.53 13.82 72.53 16.22 75.59 16.22 72.53 16.74 72.53 16.74 76.45 16.24 76.45"/><path class="cls-2" d="M20.51,76.53a2.31,2.31,0,0,1-.83-.15A2.2,2.2,0,0,1,19,76a1.94,1.94,0,0,1-.46-.64,2.14,2.14,0,0,1,0-1.67A1.8,1.8,0,0,1,19,73a1.88,1.88,0,0,1,.68-.41,2.31,2.31,0,0,1,.83-.15,2.12,2.12,0,0,1,.95.2,2.49,2.49,0,0,1,.67.53l-.42.24a1.44,1.44,0,0,0-.51-.39,1.58,1.58,0,0,0-.69-.15,1.69,1.69,0,0,0-.64.12,1.56,1.56,0,0,0-.5.33,1.43,1.43,0,0,0-.34.5,1.69,1.69,0,0,0-.12.64,1.62,1.62,0,0,0,.12.64,1.39,1.39,0,0,0,.34.51,1.56,1.56,0,0,0,.5.33,1.69,1.69,0,0,0,.64.12,1.42,1.42,0,0,0,.36,0,1.6,1.6,0,0,0,.31-.1,2.1,2.1,0,0,0,.26-.13c.07-.06.14-.1.19-.15v-.8H20.2v-.43h1.95v1.41a2.37,2.37,0,0,1-.71.49,2.34,2.34,0,0,1-.93.19"/><rect class="cls-2" x="23.82" y="72.53" width="0.52" height="3.92"/><polygon class="cls-2" points="29.08 76.45 26.66 73.33 26.66 76.45 26.14 76.45 26.14 72.53 26.67 72.53 29.07 75.59 29.07 72.53 29.58 72.53 29.58 76.45 29.08 76.45"/><path class="cls-2" d="M33.36,76.53A2.26,2.26,0,0,1,31.84,76a2.06,2.06,0,0,1-.45-.64,2,2,0,0,1,.45-2.3,2,2,0,0,1,.68-.41,2.32,2.32,0,0,1,.84-.15,2.07,2.07,0,0,1,.94.2,2.35,2.35,0,0,1,.67.53l-.41.24a1.44,1.44,0,0,0-.51-.39,1.58,1.58,0,0,0-.69-.15,1.69,1.69,0,0,0-.64.12,1.72,1.72,0,0,0-.51.33,1.56,1.56,0,0,0-.33.5,1.53,1.53,0,0,0-.13.64,1.47,1.47,0,0,0,.13.64,1.5,1.5,0,0,0,.33.51,1.72,1.72,0,0,0,.51.33,1.69,1.69,0,0,0,.64.12,1.34,1.34,0,0,0,.35,0A1.41,1.41,0,0,0,34,76a1.26,1.26,0,0,0,.26-.13,1.81,1.81,0,0,0,.19-.15v-.8H33.05v-.43H35v1.41a2.14,2.14,0,0,1-.71.49,2.26,2.26,0,0,1-.92.19"/><polygon class="cls-2" points="40.13 76.45 40.13 72.97 38.82 72.97 38.82 72.53 41.97 72.53 41.97 72.97 40.65 72.97 40.65 76.45 40.13 76.45"/><polygon class="cls-2" points="43.49 76.45 43.49 72.53 46.22 72.53 46.22 72.97 44.01 72.97 44.01 74.23 46.17 74.23 46.17 74.67 44.01 74.67 44.01 76.02 46.22 76.02 46.22 76.45 43.49 76.45"/><path class="cls-2" d="M49.84,76.52a2.32,2.32,0,0,1-.84-.15,1.88,1.88,0,0,1-.68-.41,2,2,0,0,1-.45-.64,2.09,2.09,0,0,1,0-1.65,2,2,0,0,1,.45-.64,1.88,1.88,0,0,1,.68-.41,2.32,2.32,0,0,1,.84-.15,2.1,2.1,0,0,1,.51.06,2,2,0,0,1,.43.16,1.48,1.48,0,0,1,.35.25,1.64,1.64,0,0,1,.29.3l-.44.23a1.49,1.49,0,0,0-1.14-.57,1.69,1.69,0,0,0-.64.12,1.56,1.56,0,0,0-.5.33,1.43,1.43,0,0,0-.34.5,1.71,1.71,0,0,0-.12.65,1.61,1.61,0,0,0,.12.63,1.39,1.39,0,0,0,.34.51,1.56,1.56,0,0,0,.5.33,1.69,1.69,0,0,0,.64.12,1.46,1.46,0,0,0,.66-.16,1.49,1.49,0,0,0,.48-.41l.44.23a2.28,2.28,0,0,1-.64.55,1.84,1.84,0,0,1-.94.22"/><polygon class="cls-2" points="55.87 76.45 55.87 74.65 53.43 74.65 53.43 76.45 52.91 76.45 52.91 72.53 53.43 72.53 53.43 74.22 55.87 74.22 55.87 72.53 56.38 72.53 56.38 76.45 55.87 76.45"/><polygon class="cls-2" points="61.13 76.45 58.7 73.33 58.7 76.45 58.19 76.45 58.19 72.53 58.72 72.53 61.11 75.59 61.11 72.53 61.63 72.53 61.63 76.45 61.13 76.45"/><path class="cls-2" d="M65.33,76.52a2.24,2.24,0,0,1-.84-.15,1.85,1.85,0,0,1-.65-.43,1.87,1.87,0,0,1-.42-.64,2.24,2.24,0,0,1,0-1.61,1.87,1.87,0,0,1,.42-.64,1.85,1.85,0,0,1,.65-.43,2.43,2.43,0,0,1,1.68,0,1.85,1.85,0,0,1,.65.43,1.76,1.76,0,0,1,.43.64,2.24,2.24,0,0,1,0,1.61,1.76,1.76,0,0,1-.43.64,1.85,1.85,0,0,1-.65.43,2.24,2.24,0,0,1-.84.15m0-.43A1.45,1.45,0,0,0,66,76a1.25,1.25,0,0,0,.48-.33,1.51,1.51,0,0,0,.31-.5,1.89,1.89,0,0,0,0-1.27,1.51,1.51,0,0,0-.31-.5A1.27,1.27,0,0,0,66,73a1.71,1.71,0,0,0-1.26,0,1.39,1.39,0,0,0-.49.34,1.48,1.48,0,0,0-.3.5,1.89,1.89,0,0,0,0,1.27,1.48,1.48,0,0,0,.3.5,1.37,1.37,0,0,0,.49.33,1.45,1.45,0,0,0,.63.13"/><polygon class="cls-2" points="69.04 76.45 69.04 72.53 69.56 72.53 69.56 76.02 71.49 76.02 71.49 76.45 69.04 76.45"/><path class="cls-2" d="M74.73,76.52a2.28,2.28,0,0,1-.84-.15,1.94,1.94,0,0,1-.65-.43,1.87,1.87,0,0,1-.42-.64,2.24,2.24,0,0,1,0-1.61,1.87,1.87,0,0,1,.42-.64,1.94,1.94,0,0,1,.65-.43,2.28,2.28,0,0,1,.84-.15,2.34,2.34,0,0,1,.85.15,1.94,1.94,0,0,1,.65.43,1.87,1.87,0,0,1,.42.64,2.24,2.24,0,0,1,0,1.61,1.87,1.87,0,0,1-.42.64,1.94,1.94,0,0,1-.65.43,2.34,2.34,0,0,1-.85.15m0-.43a1.39,1.39,0,0,0,.63-.13,1.25,1.25,0,0,0,.48-.33,1.36,1.36,0,0,0,.31-.5,1.69,1.69,0,0,0,.11-.64,1.67,1.67,0,0,0-.11-.63,1.36,1.36,0,0,0-.31-.5,1.27,1.27,0,0,0-.48-.34,1.54,1.54,0,0,0-.63-.12,1.61,1.61,0,0,0-.63.12,1.27,1.27,0,0,0-.48.34,1.36,1.36,0,0,0-.31.5,1.89,1.89,0,0,0,0,1.27,1.36,1.36,0,0,0,.31.5,1.25,1.25,0,0,0,.48.33,1.45,1.45,0,0,0,.63.13"/><path class="cls-2" d="M80.41,76.53a2.27,2.27,0,0,1-.83-.15A2.2,2.2,0,0,1,78.9,76a1.94,1.94,0,0,1-.46-.64,2.14,2.14,0,0,1,0-1.67A1.8,1.8,0,0,1,78.9,73a1.88,1.88,0,0,1,.68-.41,2.27,2.27,0,0,1,.83-.15,2.12,2.12,0,0,1,1,.2,2.49,2.49,0,0,1,.67.53l-.42.24a1.44,1.44,0,0,0-.51-.39,1.58,1.58,0,0,0-.69-.15,1.69,1.69,0,0,0-.64.12,1.56,1.56,0,0,0-.5.33,1.43,1.43,0,0,0-.34.5,1.69,1.69,0,0,0-.12.64,1.62,1.62,0,0,0,.12.64,1.39,1.39,0,0,0,.34.51,1.56,1.56,0,0,0,.5.33,1.69,1.69,0,0,0,.64.12,1.47,1.47,0,0,0,.36,0,1.6,1.6,0,0,0,.31-.1,2.1,2.1,0,0,0,.26-.13c.07-.06.14-.1.19-.15v-.8H80.1v-.43h2v1.41a2.37,2.37,0,0,1-.71.49,2.34,2.34,0,0,1-.93.19"/><polygon class="cls-2" points="84.87 76.45 84.87 74.79 83.23 72.53 83.84 72.53 85.13 74.35 86.42 72.53 87.02 72.53 85.39 74.79 85.39 76.45 84.87 76.45"/><polygon class="cls-2" points="91.86 76.45 91.86 72.97 90.55 72.97 90.55 72.53 93.7 72.53 93.7 72.97 92.38 72.97 92.38 76.45 91.86 76.45"/><path class="cls-2" d="M97,76.52a2.24,2.24,0,0,1-.84-.15,1.85,1.85,0,0,1-.65-.43A1.76,1.76,0,0,1,95,75.3a2.24,2.24,0,0,1,0-1.61,1.76,1.76,0,0,1,.43-.64,1.85,1.85,0,0,1,.65-.43,2.43,2.43,0,0,1,1.68,0,1.85,1.85,0,0,1,.65.43,2.06,2.06,0,0,1,.43.64,2.38,2.38,0,0,1,0,1.61,2.06,2.06,0,0,1-.43.64,1.85,1.85,0,0,1-.65.43,2.24,2.24,0,0,1-.84.15m0-.43a1.45,1.45,0,0,0,.63-.13,1.25,1.25,0,0,0,.48-.33,1.51,1.51,0,0,0,.31-.5,1.89,1.89,0,0,0,0-1.27,1.51,1.51,0,0,0-.31-.5,1.27,1.27,0,0,0-.48-.34,1.71,1.71,0,0,0-1.26,0,1.39,1.39,0,0,0-.49.34,1.48,1.48,0,0,0-.3.5,1.89,1.89,0,0,0,0,1.27,1.48,1.48,0,0,0,.3.5,1.37,1.37,0,0,0,.49.33,1.45,1.45,0,0,0,.63.13"/><polygon class="cls-2" points="106.65 76.45 106.65 73.23 105.23 76.45 105.02 76.45 103.61 73.23 103.61 76.45 103.09 76.45 103.09 72.53 103.84 72.53 105.13 75.48 106.43 72.53 107.17 72.53 107.17 76.45 106.65 76.45"/><path class="cls-2" d="M111.94,76.45l-.37-.87H109.5l-.37.87h-.59l1.67-3.92h.65l1.67,3.92ZM110.54,73l-.89,2.11h1.77Z"/><path class="cls-2" d="M116.31,76.45l-1.06-1.56h-.83v1.56h-.51V72.53h1.67a1.46,1.46,0,0,1,.52.09,1.09,1.09,0,0,1,.41.23,1.17,1.17,0,0,1,.28.38,1.21,1.21,0,0,1,.09.48,1.32,1.32,0,0,1-.08.47,1,1,0,0,1-.24.35,1.15,1.15,0,0,1-.35.22,1.17,1.17,0,0,1-.41.1l1.13,1.6Zm-.79-2a.84.84,0,0,0,.6-.21.75.75,0,0,0,0-1.08.89.89,0,0,0-.6-.2h-1.1v1.49Z"/><polygon class="cls-2" points="121.04 76.45 119.47 74.69 119.05 75.13 119.05 76.45 118.53 76.45 118.53 72.53 119.05 72.53 119.05 74.56 120.89 72.53 121.54 72.53 119.8 74.39 121.69 76.45 121.04 76.45"/><polygon class="cls-2" points="123.11 76.45 123.11 72.53 125.84 72.53 125.84 72.97 123.63 72.97 123.63 74.23 125.79 74.23 125.79 74.67 123.63 74.67 123.63 76.02 125.84 76.02 125.84 76.45 123.11 76.45"/><polygon class="cls-2" points="128.52 76.45 128.52 72.97 127.2 72.97 127.2 72.53 130.36 72.53 130.36 72.97 129.04 72.97 129.04 76.45 128.52 76.45"/></g></g></svg>