<svg xmlns="http://www.w3.org/2000/svg" viewBox="0 0 72.62 25.94"><defs><style>.cls-1{fill:#414142;}</style></defs><title>Logo-Ford</title><g id="Layer_2" data-name="Layer 2"><g id="NSD_-_Product_-_iSocial" data-name="NSD - Product - iSocial"><path class="cls-1" d="M51.24,16c0,.07.09.13.18.16s0,0,0,.1a8,8,0,0,1-.75,1.24,4.89,4.89,0,0,1-1,1c-.56.46-1.34,1-2,.62a1,1,0,0,1-.4-.87,4.57,4.57,0,0,1,1.16-2.76c.91-1.12,1.92-1.7,2.58-1.38s.47,1.11.16,1.74a.17.17,0,0,0,0,.12m7.34-7.08c.05-.09,0-.15-.12-.15H56.55c-.14,0-.22,0-.28.15-.22.42-2.9,4.43-3.4,5.21-.08.12-.18.1-.2,0a1.66,1.66,0,0,0-1.07-1.25,2.76,2.76,0,0,0-1.44-.17,5.1,5.1,0,0,0-2.36,1.11c-1,.79-1.93,1.81-3.09,2.57-.63.41-1.49.77-2.07.23a1.75,1.75,0,0,1,.33-2.4c.09-.08.19,0,.17.07a1.08,1.08,0,0,0,.31,1,1.13,1.13,0,0,0,1.27.13,1.64,1.64,0,0,0,.89-1.28,1.45,1.45,0,0,0-1.34-1.66,2.67,2.67,0,0,0-1.93.7,4.1,4.1,0,0,0-.76.83c-.06.1-.16.11-.16,0,0-1.09-.42-1.71-1.32-1.73a3.36,3.36,0,0,0-2,.83,18.37,18.37,0,0,0-1.8,1.83c-.07.08-.13.08-.16-.08a3.66,3.66,0,0,0-.53-1.92.46.46,0,0,0-.58-.14,4.83,4.83,0,0,0-.67.41.39.39,0,0,0-.12.43A5.11,5.11,0,0,1,34,16.91,3.72,3.72,0,0,1,31.92,19a1.39,1.39,0,0,1-1.62-.44,2.8,2.8,0,0,1,.48-3.1,6,6,0,0,1,2.73-1.92c.12-.05.15-.13.11-.23s-.14-.39-.18-.5-.35-.28-.67-.25a5.9,5.9,0,0,0-2.06.69,7,7,0,0,0-3,3.66,3.81,3.81,0,0,1-.53,1A10.52,10.52,0,0,1,26,19.11a.22.22,0,0,0-.05.26,2.61,2.61,0,0,0,.48.62.27.27,0,0,0,.26,0,6.25,6.25,0,0,0,1.22-1.08c.09-.11.18-.06.23.1a2.65,2.65,0,0,0,1.72,1.83c1.57.54,3.21-.23,4.45-1.57a17.66,17.66,0,0,0,1.36-1.78,16.7,16.7,0,0,1,2.72-3c.44-.33,1-.59,1.22-.42s.27.45-.06,1.07c-1.22,2.23-3,4.85-3.35,5.48-.06.11,0,.2.11.2.64,0,1.27,0,1.85,0a.23.23,0,0,0,.19-.12c.94-1.47,1.82-2.86,2.76-4.31.06-.08.11,0,.11,0a2.42,2.42,0,0,0,.3,1.1,1.63,1.63,0,0,0,1.42.79,2.63,2.63,0,0,0,1.16-.24,3.82,3.82,0,0,0,1-.51c.14-.1.16.07.16.09a2.76,2.76,0,0,0,1.21,3.12c1.38.68,2.9-.28,3.78-1.14.08-.09.18-.08.18.1a1.6,1.6,0,0,0,.45,1c.73.74,2.21.44,3.7-.71a18.43,18.43,0,0,0,2.85-2.87.13.13,0,0,0,0-.18c-.13-.15-.33-.31-.47-.44a.16.16,0,0,0-.2,0,24.51,24.51,0,0,1-3,2.71c-.41.29-1,.51-1.34.12-.12-.15-.1-.36,0-.64.35-.87,5.9-9.32,6.19-9.82"/><path class="cls-1" d="M32.46,9.91c0,.12.08.15.13.14a1.35,1.35,0,0,0,.78-.56c.17-.25.24-.6.08-.74a.44.44,0,0,0-.57.07,1.29,1.29,0,0,0-.42,1.09M18.32,20.78a3.86,3.86,0,0,1-4.1-3.47,4.46,4.46,0,0,1,.92-3.22,4.61,4.61,0,0,1,2.54-1.64,1,1,0,0,1,.83.17.45.45,0,0,1-.07.74,4.29,4.29,0,0,0-1.88,1.74,2.13,2.13,0,0,0,.1,2.2c.84,1.25,3.15,1.29,5.31-.72a16.36,16.36,0,0,0,1.49-1.51A33.89,33.89,0,0,0,26,11.84s0-.05,0-.06a.06.06,0,0,0-.06,0,3.76,3.76,0,0,0-2.29.81.47.47,0,0,1-.64-.07.51.51,0,0,1,.2-.68,8.49,8.49,0,0,1,3.68-1.16.18.18,0,0,0,.16-.09c.53-.68.93-1.29,1.49-2a14.76,14.76,0,0,1,1.85-1.8,8,8,0,0,1,1.78-1.17c.13-.07,0-.15-.06-.15-2.83-.54-5.77-1.22-8.58-.18-1.94.72-2.8,2.27-2.39,3.3.29.73,1.26.85,2.16.41a4.89,4.89,0,0,0,1.93-1.72c.27-.42.85-.12.54.61-.82,1.94-2.39,3.47-4.31,3.53A2.5,2.5,0,0,1,18.79,8.8C18.79,5.89,22,4,25.45,3.68c4.11-.34,8,.75,12.08,1.25a26.26,26.26,0,0,0,9.26-.34.48.48,0,0,1,.61.53c0,.55-.45,1.07-1.49,1.63a7.52,7.52,0,0,1-3.69.85c-3.11,0-6-1.18-9-1.83,0,.13,0,.28-.07.37A14.29,14.29,0,0,0,29,10.35s0,.08.05.08c.87,0,1.65-.07,2.47-.14.14,0,.14,0,.13-.15a2.05,2.05,0,0,1,.63-1.76,1.29,1.29,0,0,1,1.67-.19,1.29,1.29,0,0,1,.19,1.65,2,2,0,0,1-1.2,1s-.1,0-.09.11.64.48.69.57a.29.29,0,0,1-.07.32.41.41,0,0,1-.3.14.62.62,0,0,1-.3-.11,2.87,2.87,0,0,1-.85-.69c-.08-.09-.12-.1-.32-.09-.88.06-2.25.19-3.18.3-.23,0-.26.08-.31.15a38.85,38.85,0,0,1-4.81,6.86,6.71,6.71,0,0,1-5.06,2.4"/><path class="cls-1" d="M36.31,1.08C17,1.08,1.28,6.43,1.28,13S17,24.86,36.31,24.86s35-5.35,35-11.89S55.66,1.08,36.31,1.08m0,24.86C16.26,25.94,0,20.13,0,13S16.26,0,36.31,0,72.62,5.8,72.62,13s-16.26,13-36.31,13"/></g></g></svg>