<svg xmlns="http://www.w3.org/2000/svg" viewBox="0 0 379.91 102.05"><defs><style>.cls-1{fill:#939598;}.cls-2{fill:#050606;}</style></defs><title>LOGO-ArtLogic</title><g id="NSD_-_Partners" data-name="NSD - Partners"><path id="path0" class="cls-1" d="M38.85,30.06a7.76,7.76,0,0,0-.67,1c-.09.12-.58,1-.7,1-.31,0-1.1,1.57-1.32,1.88-.34.48-.66,1-1,1.45s-.68,1-1,1.52a5,5,0,0,1-.83,1.23c-.31.22-.45.76-.68,1.07a8.52,8.52,0,0,0-.77,1c-.33.65-.86,1.18-1.2,1.82s-.9,1.24-1.3,1.89-.62,1-1,1.5a22.73,22.73,0,0,0-2,3c-.11.21-.26.25-.42.43a9.1,9.1,0,0,0-.56,1,3,3,0,0,1-.47.66,8.28,8.28,0,0,0-.63.83c0,.47-.75,1.26-1,1.6s-.37.65-.63.94c-.11.13-.36.4-.36.59s-.44.23-.44.49-.46.74-.61,1-.43.48-.55.75a10.76,10.76,0,0,1-1.14,1.78c-.38.55-.73,1.14-1.14,1.66s-.58,1.17-.95,1.56a6,6,0,0,0-1.85,3.46c0,.19-.13.45,0,.61.25.32,1,.3,1.33.33,1.52.12,3,.12,4.56.13,11.17.1,22.35,0,33.53,0h9c.65,0,.82-.83.89-1.38a2.64,2.64,0,0,0,0-.93c-.06-.22-.33-.36-.43-.6a19.81,19.81,0,0,0-1.27-2c-.35-.6-.85-1.19-1.26-1.79s-1-1.47-1.51-2.14-.83-1.24-1.2-1.84a5.46,5.46,0,0,0-.32-.64c-.11-.11-.57-.77-.68-.77s-.84-1.3-1-1.49a3.11,3.11,0,0,1-.56-.83c-.08-.26-.2-.2-.33-.37S56.2,51,56,50.85a16.72,16.72,0,0,1-1.82-2.66c-.3-.49-.65-.91-1-1.37a14.36,14.36,0,0,0-.83-1.4c-.79-.84-1.33-1.89-2.06-2.83-.32-.4-.52-1-.84-1.38-.1-.1-.61-.77-.65-.77-.34,0-.31-1-.65-1s-.86-1.31-1-1.5c-.29-.44-.64-.84-.93-1.29a3.88,3.88,0,0,1-.35-.63c-.1-.25-.35-.29-.45-.57s-.35-.39-.48-.68-.57-.74-.73-1.17c-.08-.24-.32-.31-.43-.55-.2-.42-.6-.72-.79-1.15-.12-.24-.25-.26-.38-.48s-.53-.62-.53-.74c0-1.41-2.58-1.31-3.28-.6m57.37.08A24,24,0,0,1,95,32.25a15.88,15.88,0,0,0-1.4,2.45c-.27.49-.62.93-.9,1.41s-.45.82-.67,1.23a6.17,6.17,0,0,1-.74,1.36,4.12,4.12,0,0,0-.61,1c-.19.36-.45.65-.65,1-.5.81-.92,1.71-1.39,2.55-.77,1.4-1.6,2.73-2.38,4.15s-1.69,2.86-2.47,4.3c-.37.67-.84,1.28-1.16,2a8,8,0,0,1-.5.74c-.3.52-.55,1.07-.88,1.57-.84,1.22-1.43,2.66-2.19,3.93-.16.28-.43.51-.6.82s-.51.89-.75,1.34a7,7,0,0,1-.55,1.09c-.14.16-.53,1.07-.68,1.07s-.48.89-.61,1.05a1.65,1.65,0,0,0-.39.93s2.7,0,2.87,0H81.9a39.1,39.1,0,0,1,2.32-4.21c.16-.25,1-2.32,1.32-2.32s.81-1.45.87-1.74h10c2.81,0,5.62,0,8.43,0,.36,0,1.55-.14,1.82.22a35.73,35.73,0,0,1,2.12,3.84c.35.63.63,1.3,1,1.91s.63,1.73,1.21,2.16c.18.13.68.07.89.08l2.05,0a27.39,27.39,0,0,0,3.51-.1c.29,0-.36-.89-.49-1.11A20,20,0,0,0,115.77,63a5.66,5.66,0,0,1-.46-.88c-.17-.32-.62-.78-.62-1.17,0-.19-.46-.71-.56-.92-.22-.48-.55-.93-.8-1.4-3.11-5.9-6.53-11.5-9.72-17.38-1.19-2.18-2.32-4.22-3.53-6.38-.61-1.08-1.2-2.15-1.8-3.23-.43-.76-1.13-2.94-2.06-1.5m156.47-.2a20.76,20.76,0,0,0-2.39.58,7.58,7.58,0,0,0-2.16.81c-.36.24-.85.23-1.2.49a3.51,3.51,0,0,1-.59.38,9.92,9.92,0,0,0-1.72,1.15A24.65,24.65,0,0,0,241,36.76c-.35.41-.65.87-1,1.27s-.39.61-.6.88a6.79,6.79,0,0,0-.69,1.24,23.19,23.19,0,0,0-1.46,4.45,21.82,21.82,0,0,0-.33,5,14.64,14.64,0,0,0,.88,4.83c.31.73.52,1.43.82,2.13a13.27,13.27,0,0,0,.77,1.44c.11.19.22.38.32.57s.34.34.47.53A13.56,13.56,0,0,0,241,60.3c.46.52.95,1,1.44,1.5.92.91,2.06,1.55,3,2.37a18.31,18.31,0,0,0,2,1.14,8.75,8.75,0,0,0,2.4.88c.36.09.53.29.85.39a5.58,5.58,0,0,0,1.28.19,34.43,34.43,0,0,0,8-.12c1.25-.19,2.37-.88,3.58-1.18.36-.09.6-.38,1-.5s.7-.59.94-.59c.48,0,1.39-.83,1.79-1.15a20.05,20.05,0,0,0,4.91-5.52,9.73,9.73,0,0,0,.88-1.77c.22-.63.43-1.32.68-2a6.54,6.54,0,0,0,.45-1.6c.06-.4,0-.81.11-1.21,0-.23.18-.35.2-.6a25.54,25.54,0,0,0,.06-3c0-.41,0-.82-.06-1.23,0-.25-.16-.34-.2-.56-.14-.72-.14-1.46-.31-2.19a2.86,2.86,0,0,0-.21-.58c-.16-.36-.18-1.37-.52-1.58s-.41-1-.56-1.31-.38-.64-.55-1A14.07,14.07,0,0,0,271,37.44a18,18,0,0,0-2.92-3.13,12.94,12.94,0,0,0-3.18-2.23c-.57-.26-1.14-.71-1.74-.93-1-.35-1.95-.6-3-.86a13.67,13.67,0,0,0-3.27-.37,34,34,0,0,0-4.28,0m41,0c-.37,0-.65.34-1,.34a5,5,0,0,0-1.15.19,16.14,16.14,0,0,0-2.31.88,17.16,17.16,0,0,0-4.38,2.75,29.86,29.86,0,0,0-2.27,2.23c-.36.38-.6.88-.95,1.23-1.26,1.25-1.72,3.14-2.44,4.68a6,6,0,0,0-.47,1.78c-.05.41-.25.68-.29,1.09-.12,1.23-.11,2.47-.11,3.7a20.53,20.53,0,0,0,.12,3.33c.08.52.33,1.06.44,1.6a8.69,8.69,0,0,0,.84,2.37,20.32,20.32,0,0,1,1.06,2,15,15,0,0,0,1.64,2.27,20.79,20.79,0,0,0,1.93,2.05c.42.39,1.41,1.5,2,1.5.14,0,.74.56.92.64a5,5,0,0,1,1.08.62,3.3,3.3,0,0,0,1,.42,9.12,9.12,0,0,0,1.14.5,19.51,19.51,0,0,0,3,.66c1.45.11,2.9.13,4.35.1a15.55,15.55,0,0,0,3.41-.27c.26-.06.35-.22.57-.3a12.93,12.93,0,0,0,2.65-1,24.18,24.18,0,0,0,4.28-3.17,7.57,7.57,0,0,0,1.45-1.65,5.13,5.13,0,0,1,.62-.85c.17-.23.22-.52.4-.72A5.93,5.93,0,0,0,312,57.3a9.2,9.2,0,0,0,.61-1.66c.11-.56.35-1.07.43-1.64a24.18,24.18,0,0,0,.24-2.7c.06-1.25.05-2.5.05-3.75h-15v5.37h8.79a9.29,9.29,0,0,1-4.11,6.51,17.9,17.9,0,0,1-2.88,1.67,9.43,9.43,0,0,1-2.17.4c-.2,0-.26.19-.48.22a6.13,6.13,0,0,1-1.21,0,12.58,12.58,0,0,1-4.06-1,13.9,13.9,0,0,1-4-2.53,11.86,11.86,0,0,1-4.11-7.13,29.14,29.14,0,0,1-.1-4.28,15,15,0,0,1,.15-1.63c.08-.41.31-.61.42-1a11.89,11.89,0,0,1,3.42-5.37A15,15,0,0,1,290,37.26a5.1,5.1,0,0,1,2.1-1c.17,0,.59-.32.8-.37a4,4,0,0,0,1.4-.42c.26-.2,1-.12,1.27-.14a21.52,21.52,0,0,1,3.85.08,9.64,9.64,0,0,1,1.64.49,11,11,0,0,1,2.61,1.31,21.1,21.1,0,0,1,2.14,1.74A13.3,13.3,0,0,1,307,40.16c.19.25.5.78.86.81s1.05-.8,1.33-1.09c.52-.53,1.06-1.05,1.61-1.55.31-.28.88-.62,1-1s-.39-.83-.63-1.08a32.31,32.31,0,0,0-5.55-4.43,7.26,7.26,0,0,0-1.8-.81c-.73-.18-1.38-.54-2.13-.66a18.11,18.11,0,0,0-1.84-.33,38.53,38.53,0,0,0-6.17,0m52,0c-.39,0-.71.34-1.06.34a5,5,0,0,0-1.13.19,14.32,14.32,0,0,0-2.52.91,5.27,5.27,0,0,0-1,.38,5.68,5.68,0,0,1-1,.73,15.4,15.4,0,0,0-2.29,1.67,17.33,17.33,0,0,0-5.69,8,14.54,14.54,0,0,0-.53,1.7A7.32,7.32,0,0,1,330,46c-.33.53-.13,1.8-.13,2.38a6.33,6.33,0,0,0,.14,2.42,11.64,11.64,0,0,1,.46,2.71,11.61,11.61,0,0,0,.77,2.31,21.2,21.2,0,0,0,3.28,5,11.65,11.65,0,0,0,3.53,3c.55.25,1,.79,1.54,1a18.1,18.1,0,0,1,2.18,1,13.17,13.17,0,0,0,2.57.83,31.12,31.12,0,0,0,4,.21,26.85,26.85,0,0,0,4-.17,16.91,16.91,0,0,0,2.64-.63,7.17,7.17,0,0,0,.94-.4c.28-.13.92-.17,1.1-.41.39-.51,1.36-.71,1.91-1.08a4.61,4.61,0,0,1,.67-.45c.28-.15.41-.43.67-.54a4.83,4.83,0,0,0,1.28-1.06,24.85,24.85,0,0,0,1.89-1.95c1-1.13-.66-2.22-1.43-3a12.47,12.47,0,0,0-1.86-1.7c-.07,0-.23-.16-.32-.08a.14.14,0,0,0,0,.11c0,.27-.13.19-.29.36-.33.34-.56.82-.9,1.19s-.64.68-1,1a8.78,8.78,0,0,1-2,1.53A13.81,13.81,0,0,1,351,61.39a19.08,19.08,0,0,1-2.09.37,17.67,17.67,0,0,1-1.86-.28,12.63,12.63,0,0,1-4.45-1.39c-.29-.13-.43-.36-.71-.5a7.86,7.86,0,0,1-1.17-.81A18.17,18.17,0,0,1,339,57.12a11.41,11.41,0,0,1-2.5-4.25,10.65,10.65,0,0,1-.68-3.48,18.18,18.18,0,0,1,.09-3.69,15.64,15.64,0,0,1,.6-1.83,21.52,21.52,0,0,1,.94-2,11.64,11.64,0,0,1,2.88-3.45,13,13,0,0,1,14.55-1.67,15.32,15.32,0,0,1,3.67,2.94,3.81,3.81,0,0,1,.71.9c.12.23.86-.48.93-.54.78-.7,1.52-1.45,2.25-2.19.19-.19,1.15-.9,1-1.2a12.67,12.67,0,0,0-2.76-2.71,14,14,0,0,0-3.28-2.2c-.33-.15-.62-.3-.93-.47s-1-.22-1.47-.47a18,18,0,0,0-2.23-.68,10.5,10.5,0,0,0-3.07-.17,34.7,34.7,0,0,0-3.95,0M121.36,48.33V66.27h5.81V51.9a6.66,6.66,0,0,1,1.67.05c.68.17,1.35,1.35,1.81,1.85,1.44,1.54,2.9,3.06,4.3,4.62s2.61,2.94,3.93,4.39c.69.75,1.39,1.48,2.08,2.23.17.19.85,1.23,1.12,1.23h3.44c.38,0,4-.16,4-.14a7,7,0,0,0-1.35-1.58c-.62-.71-1.22-1.44-1.85-2.15-1.27-1.42-2.48-2.87-3.75-4.29-2-2.25-4.07-4.49-6-6.84a19.06,19.06,0,0,0,4.38-1.8A8.77,8.77,0,0,0,144.42,46c.15-.34.4-.53.52-.88a3.11,3.11,0,0,1,.42-1.07,2.58,2.58,0,0,0,.24-1.32,16.62,16.62,0,0,0-.09-4.05,13.59,13.59,0,0,0-.48-1.4A7.46,7.46,0,0,0,143.59,35a9.25,9.25,0,0,0-1.71-1.6,6.55,6.55,0,0,0-2.31-1.3c-.34-.06-.52-.28-.84-.38a12,12,0,0,1-1.34-.35,6.15,6.15,0,0,0-1.76-.38,7.06,7.06,0,0,1-1.79-.3,2.56,2.56,0,0,0-.83-.11c-3.87-.22-7.77-.13-11.65-.17V48.33m28.16-15.22v2.68h10.3V66.27h5.8V35.79h10.31V30.42H149.52v2.69m61.09,15.24V66.27h24.82c0-1.77-.05-3.53-.08-5.3l-19.08-.07V30.42h-5.66V48.35m108.11,0V66.27h5.8V30.42h-5.8V48.35m-60.1-12.89c.19.28,1,.32,1.29.39s.63.38.8.38a4.87,4.87,0,0,1,1.86.87,12.24,12.24,0,0,1,4,3.93A11.64,11.64,0,0,1,268,43.79a15.69,15.69,0,0,0,.42,1.53,2,2,0,0,1,.19.45,22.08,22.08,0,0,1,.07,3.9c-.19,5.22-4.6,10.59-9.8,11.61a15.55,15.55,0,0,0-2.3.39c-1,.34-1.72-.15-2.6-.2A10.08,10.08,0,0,1,249.59,60a12.45,12.45,0,0,1-2.34-1.67,10.15,10.15,0,0,1-2.06-2.13A14.47,14.47,0,0,1,244,54.29c-.4-1-.63-2-1-3a9.34,9.34,0,0,1-.27-3.17c0-.6,0-1.22.07-1.82a14.89,14.89,0,0,1,.47-1.83,11.39,11.39,0,0,1,3-5.09,17.32,17.32,0,0,1,2.3-2,11,11,0,0,1,2.24-1.2,10.24,10.24,0,0,1,4-.89c.79,0,1.57,0,2.35,0,.24,0,1.23-.07,1.39.17m-126.08.61c.21.34,1.53.29,1.91.35a2.67,2.67,0,0,1,.94.31,16.23,16.23,0,0,1,2.86,1.35c.42.34,1.09.7,1.27,1.23a8,8,0,0,1,.53,1.66,3.19,3.19,0,0,1-.85,2.48c-.07.1-.21.62-.4.62s-.5.33-.66.46a8.7,8.7,0,0,1-1.72.94,11.71,11.71,0,0,1-3,1,45.21,45.21,0,0,1-6.26.26V35.75l2.32.1,1.58.07c.2,0,1.33-.05,1.47.15M97,40.87a5.85,5.85,0,0,0,.78,1.38,8.39,8.39,0,0,1,.84,1.34c.2.45.42.78.65,1.2a9.1,9.1,0,0,0,1,1.86,6.13,6.13,0,0,1,.58,1.08c.36.64.74,1.27,1.08,1.93.53,1,1.15,2,1.69,3H89.6c.12-.23.35-1.12.54-1.19.37-.15.74-1.13.92-1.45.39-.67.84-1.33,1.18-2,.09-.2.78-1.59,1-1.59a18.24,18.24,0,0,0,.91-1.6A6.28,6.28,0,0,1,95,43.23a3.24,3.24,0,0,0,.43-.85c.16-.28.39-.53.56-.81s.63-1.68,1-.7M42.2,42.71c.66.9,1.37,1.75,2,2.65.45.63,1.28,1.33,1.45,2.1.26,1.14-3.76.94-4.49.74-.53-.14-.6-.68-.63-1.16-.08-1.29,0-2.6,0-3.89,0-.29-.11-1.74.33-1.85S42,42.45,42.2,42.71m8.6,12.35c.59.59.87,1.41,1.42,2a14.49,14.49,0,0,1,1.24,1.72c.14.2.67.74.32,1-.67.44-2,.25-2.77.26-2.79,0-5.58,0-8.37,0H41.18c-.38,0-.48-.21-.66-.57a6.07,6.07,0,0,1,0-4.24c.16-.34.24-.56.61-.56H50c.41,0,.44.08.76.4"/><path id="path1" class="cls-2" d="M188,33.79c-.13.13-.17,1.65-.17,6v5.77l-6,0-6,0,0,2.5,0,2.51h12l0,5.91,0,5.91,2.5,0,2.51,0V50.6h12V48.14c0-2.1,0-2.46-.23-2.54s-2.84-.08-6-.08h-5.79V39.65c0-5.21,0-5.87-.24-5.94a20,20,0,0,0-4.67.08"/></g></svg>