<svg xmlns="http://www.w3.org/2000/svg" viewBox="0 0 379.91 102.05"><defs><style>.cls-1{fill:#f1b82c;}.cls-2{fill:#010101;}.cls-3{fill:#fff;}</style></defs><title>LOGO-UnivMO</title><g id="NSD_-_Partners" data-name="NSD - Partners"><rect class="cls-1" x="19.82" y="18.94" width="344.3" height="65.59"/><path class="cls-2" d="M50.64,72.94C43.33,72.94,38,71.62,34.89,69a7.47,7.47,0,0,1-2.95-5.68V30.52h16.6l2.34,5.28,2.34-5.28H69.81V63.33A7.44,7.44,0,0,1,66.87,69c-3.14,2.61-8.44,3.93-15.76,3.93Z"/><path class="cls-3" d="M70,30.3h-17l-.12.26-2.07,4.69L48.8,30.56l-.12-.26h-17v33a7.69,7.69,0,0,0,3,5.85c3.17,2.64,8.52,4,15.89,4h.47c7.37,0,12.72-1.34,15.9-4a7.69,7.69,0,0,0,3-5.85v-33Zm-.45.44V63.33c0,2.16-1.48,9.39-18.48,9.39h-.47c-17,0-18.47-7.23-18.47-9.39V30.74H48.39l2.49,5.61,2.48-5.61Z"/><path class="cls-1" d="M50.87,62.91c5.57,0,5.47-2,5.51-2.46V57.34c0-.63-.43-1.12-1.21-1.54V53.61h9.58v2.17c-.79.42-1.22.91-1.22,1.54V60.1c0,2,.92,7.15-12.66,7.15S38.24,62.14,38.21,60.1V57.32c0-.63-.43-1.12-1.22-1.54V53.61h9.58V55.8c-.79.42-1.21.91-1.21,1.54v3.11c0,.49-.07,2.46,5.51,2.46"/><path class="cls-1" d="M50.87,43.79l4.63-8.33h9.24v2.17c-.79.42-1.22.92-1.22,1.55v6.61c0,.63.43,1.12,1.22,1.55v2.17H56V47.32c.78-.42,1.21-.91,1.21-1.54v-5L52,49.51H49.79l-5.26-8.77v5c0,.63.43,1.12,1.22,1.54v2.19H37V47.34c.78-.43,1.22-.92,1.22-1.55V39.18c0-.63-.44-1.13-1.22-1.55V35.46h9.24Z"/><path class="cls-2" d="M88.14,52.84c0,3.76,1.57,7,6.27,7,3.28,0,6.11-1.82,6.11-8.48V45.84c0-3.89-.82-3.89-3.7-3.89-.22,0-.22-.17-.22-.42s.08-.42.22-.42c.48,0,2.3.11,4.12.11.86,0,3.24-.11,3.63-.11s.4.06.4.48c0,.11,0,.36-.25.36-2.69,0-3.25,0-3.25,3.31v6.63c0,7.56-4.82,9.58-8.07,9.58-6.27,0-8-4.2-8-7.28V47.78c0-2,0-2.67-.06-4,0-1.65-.5-1.88-2.94-1.88-.31,0-.31-.22-.31-.47s.06-.37.25-.37,2.67.11,4.43.11,4.23-.11,4.45-.11.25.2.25.37,0,.47-.3.47c-2.44,0-2.92.23-2.94,1.88,0,1.28-.06,2-.06,4Z"/><path class="cls-2" d="M109.72,58.47c0,1.6.06,1.93,1.29,1.93.76,0,.81,0,.81.37,0,.16,0,.36-.28.36s-.5-.06-2.46-.06c-2.63,0-3.36.06-3.78.06-.22,0-.22-.17-.22-.31,0-.36,0-.42,1.06-.42a1.05,1.05,0,0,0,1.15-.67,29.16,29.16,0,0,0,.16-4V51.86c0-1-.25-1.54-1.65-1.68-.22,0-.25-.14-.25-.33s.09-.37.22-.4a12.22,12.22,0,0,0,3.92-1.37c.06,0,.09.09.09.31s-.06.79-.06,2c1.46-1,2.89-1.94,4.4-1.94.95,0,3.69.2,3.69,4.21V59.4c0,.47.09,1,1.83,1,.27,0,.27.17.27.37s0,.36-.39.36c-.84,0-1.34-.06-2.82-.06-2.27,0-2.72.06-3,.06s-.19-.2-.19-.33a.36.36,0,0,1,.39-.4c1.35,0,1.6-.11,1.6-1v-5c0-2.61-.23-4.34-3.14-4.34a4.19,4.19,0,0,0-2.69,1.28Z"/><path class="cls-2" d="M122.82,42.71a1.46,1.46,0,1,1,1.46,1.48,1.49,1.49,0,0,1-1.46-1.48m2.61,15.76c0,1.6,0,1.93,1.29,1.93.61,0,.67,0,.67.37,0,.16,0,.36-.28.36s-.51-.06-2.33-.06c-2.63,0-3.36.06-3.78.06-.22,0-.22-.17-.22-.31,0-.36,0-.42,1.06-.42a1.05,1.05,0,0,0,1.15-.67,28.54,28.54,0,0,0,.17-4V51.86c0-1-.25-1.54-1.65-1.68-.23,0-.25-.14-.25-.33s.08-.37.22-.4a12.51,12.51,0,0,0,3.92-1.37c.11,0,.17.14.17.31a25.24,25.24,0,0,0-.14,4Z"/><path class="cls-2" d="M138.28,50.49c0-.81-1.46-.81-1.88-.81-.17,0-.25-.17-.25-.39a.35.35,0,0,1,.36-.34c.76,0,1.63.06,2.41.06s1.65-.06,2.47-.06c.19,0,.25.2.25.34s0,.28-.28.3c-1.62.26-1.71.37-2.6,2.55-1,2.41-2.67,5.94-3.17,7.11-.78,1.88-1,2.22-1.26,2.22s-.5-.59-1.06-1.79c-1-2.1-3.31-8.94-3.7-9.5a1,1,0,0,0-1-.45c-.75,0-.87-.08-.87-.47A.29.29,0,0,1,128,49c.9,0,1.76.06,2.66.06.56,0,2.77-.06,3.33-.06.2,0,.23.25.23.39s-.12.34-.28.34c-.84,0-1.63.08-1.63.67,0,.93,2.27,6.58,2.86,7.81,2.63-5.85,3.08-6.91,3.08-7.67"/><path class="cls-2" d="M148.55,52.68c.56,0,1-.17,1-.93A2.37,2.37,0,0,0,147,49.09c-2,0-2.86,1.68-3.13,3.59Zm-4.81.84a9.45,9.45,0,0,0-.11,1.59,4.72,4.72,0,0,0,4.59,4.62,3.63,3.63,0,0,0,3.27-1.68c.17-.22.28-.47.42-.47a.59.59,0,0,1,.45.33,5.12,5.12,0,0,1-4.81,3.56c-4,0-6.11-2.47-6.11-6.39s2.72-6.72,5.6-6.72a4.69,4.69,0,0,1,5,4.85c0,.28-.11.31-.33.31Z"/><path class="cls-2" d="M156,51.86c0-1-.25-1.54-1.65-1.68-.22,0-.25-.14-.25-.33s.08-.37.22-.4a12.51,12.51,0,0,0,3.92-1.37c.06,0,.11.17.11.28,0,.34-.14,1-.14,2.55.93-1,2.44-2.43,3.92-2.43A1.59,1.59,0,0,1,163.89,50a1.37,1.37,0,0,1-1.37,1.4c-1.14,0-1.31-1.06-2.15-1.06a3.14,3.14,0,0,0-1.93,1.2,1.19,1.19,0,0,0-.2.82v6.35c0,1,0,1.65,1.4,1.65,1,0,1.15,0,1.15.34s-.12.39-.42.39c-1,0-1.91-.05-3.2-.05-2.24,0-2.71.05-3.24.05-.2,0-.25-.17-.25-.36s.33-.37.86-.37c1.21,0,1.43-.22,1.43-1.42Z"/><path class="cls-2" d="M173.44,57.66c0,1.37-.73,3.81-4.56,3.81-.51,0-2.13-.23-3.22-.23a.17.17,0,0,1-.14-.14c0-.28-.65-2.74-.65-3s.39-.17.51-.17c.67,0,.84,2.83,3.52,2.83a2.38,2.38,0,0,0,2.55-2.49c0-2.94-6.27-2-6.27-6,0-2.29,1.9-3.81,4.26-3.81a21.6,21.6,0,0,1,3,.26c.36.08.42.61.42.78.06,1.15.31,1.88.31,2.24,0,.17-.17.23-.31.23s-.42,0-.56-.4-.92-2.38-2.91-2.38a2,2,0,0,0-2.24,2.1,2.14,2.14,0,0,0,1.31,1.88c2.94,1.4,5,1.32,5,4.48"/><path class="cls-2" d="M176.88,42.71a1.46,1.46,0,1,1,1.46,1.48,1.49,1.49,0,0,1-1.46-1.48m2.61,15.76c0,1.6,0,1.93,1.28,1.93.62,0,.68,0,.68.37,0,.16,0,.36-.28.36s-.51-.06-2.33-.06c-2.63,0-3.36.06-3.78.06-.22,0-.22-.17-.22-.31,0-.36,0-.42,1.06-.42a1.05,1.05,0,0,0,1.15-.67,28.54,28.54,0,0,0,.17-4V51.86c0-1-.25-1.54-1.65-1.68-.23,0-.26-.14-.26-.33s.09-.37.23-.4a12.51,12.51,0,0,0,3.92-1.37c.11,0,.17.14.17.31a25.24,25.24,0,0,0-.14,4Z"/><path class="cls-2" d="M186.26,56.15c0,3,.25,4,2.46,4a4.57,4.57,0,0,0,1.91-.65c.11,0,.3.29.3.45s-1.17,1.49-3.72,1.49C184,61.47,184,58.7,184,58V50.63c0-.22-.08-.36-.28-.36h-1.4c-.08,0-.17-.09-.17-.25a.5.5,0,0,1,.17-.4c2.61-2,3.14-3.44,3.7-3.44a.32.32,0,0,1,.33.36c0,.51-.08,1-.08,2.58h4.31c.2,0,.28.19.28.59s-.17.7-.75.7c-.2,0-1.52-.14-3.84-.14Z"/><path class="cls-2" d="M203.17,50.63c0-.92-1.32-1-2.16-1-.25,0-.27-.14-.27-.37s.11-.36.25-.36c.89,0,1.82.06,2.71.06s1.74-.06,2.61-.06c.19,0,.19.25.19.36s-.08.34-.47.37a1.67,1.67,0,0,0-1.77,1.23c-1,2.32-4.87,10.45-5.48,12-2.16,5.41-3.09,5.77-4,5.77a1.58,1.58,0,1,1,.06-3.16c.7,0,1.06.47,1.4.47.5,0,1.82-2.68,1.82-4a13.92,13.92,0,0,0-1-3.14c-1.77-4.53-2.3-7-2.89-8.54-.25-.64-1.65-.64-2-.64-.2,0-.26-.2-.26-.39a.3.3,0,0,1,.31-.34c.34,0,2.1.06,3.11.06s1.93-.06,2.77-.06c.28,0,.34.17.34.36s-.09.37-.28.37-1.37,0-1.37.61c0,1.35,1,4.12,2.77,8.8,1.29-2.66,3.61-7.59,3.61-8.46"/><path class="cls-2" d="M220.69,49.2c-2.91,0-3.83,3-3.83,5.77,0,2.38.56,5.77,3.83,5.77s3.87-3.39,3.87-5.77c0-2.74-.93-5.77-3.87-5.77m0,12.27A6.26,6.26,0,0,1,214.2,55a6.51,6.51,0,0,1,13,0,6.14,6.14,0,0,1-6.53,6.5"/><path class="cls-2" d="M233.6,58.75c0,1,0,1.65,1.4,1.65,1,0,1.15,0,1.15.34s-.12.39-.42.39c-1,0-1.91-.06-3.2-.06-2.23,0-2.71.06-3,.06s-.26-.17-.26-.36.06-.37.59-.37c1.21,0,1.43-.22,1.43-1.43V51.16c0-.33,0-.89-.53-.89h-1.54c-.2,0-.34,0-.34-.37,0-.22.2-.33.87-.47,1.09-.25,1.37-.31,1.45-1.57.29-4.26,1.55-6.61,4.85-7.48a8.5,8.5,0,0,1,1.71-.22c.73,0,1.76.28,1.76,1.2a1.25,1.25,0,0,1-1.31,1.38,2.5,2.5,0,0,1-1.54-.65,2.59,2.59,0,0,0-1.24-.64c-1.59,0-1.87,2.32-1.87,4.06v3.61h3.47c.2,0,.28.19.28.59s-.17.7-.76.7c-.19,0-2.35-.14-3-.14Z"/><path class="cls-2" d="M268.34,41.42c.09-.22.17-.31.34-.31s2.18.11,2.83.11c.47,0,2.85-.11,3.05-.11s.3.23.3.48-.11.36-.33.36c-2.52,0-2.83.2-2.83,1.49,0,1.81.31,7.7.59,15.54a1.38,1.38,0,0,0,1.54,1.31c1.57,0,1.59.17,1.59.36,0,.43-.14.48-.3.48s-.56-.05-4.46-.05c-3.63,0-3.8.05-4,.05s-.3-.19-.3-.45.05-.39,1.34-.39c1.85,0,1.87-.45,1.87-1.57,0-1.68-.42-10.72-.64-16h0C266.8,48,264.22,54,262.38,58.53c-1.07,2.57-1.07,2.88-1.43,2.88s-.42-.25-1-2.18-5.18-14.4-5.29-14.4c-.48,2.05-2.32,11.35-2.32,14.15,0,.86.47,1.31,1.39,1.31.7,0,1.52.06,1.52.22,0,.54,0,.62-.31.62s-.51-.05-3.39-.05c-2.55,0-2.74.05-2.91.05s-.31,0-.31-.48c0-.27.14-.36,1.49-.36,1,0,1.17-.36,1.48-2,.76-4,1.43-8.09,2.29-12.12a11.76,11.76,0,0,0,.37-2.63,2.88,2.88,0,0,0-.73-1.4,9.38,9.38,0,0,0-2.41-.23c-.33,0-.33-.22-.33-.42s.05-.42.3-.42c.54,0,2.94.11,3.25.11.73,0,1.91-.11,2.27-.11s.39.31.67,1.32c.59,2.1,4.65,13.44,5.16,14.47,2.09-4.95,4.22-10.08,6.21-15.48"/><path class="cls-2" d="M278.19,42.71a1.46,1.46,0,1,1,1.46,1.48,1.49,1.49,0,0,1-1.46-1.48m2.61,15.76c0,1.6.05,1.93,1.28,1.93.62,0,.68,0,.68.37,0,.16,0,.36-.28.36s-.51-.06-2.33-.06c-2.63,0-3.36.06-3.78.06-.22,0-.22-.17-.22-.31,0-.36,0-.42,1.06-.42a1.05,1.05,0,0,0,1.15-.67,28.54,28.54,0,0,0,.17-4V51.86c0-1-.25-1.54-1.65-1.68-.23,0-.26-.14-.26-.33s.09-.37.23-.4a12.51,12.51,0,0,0,3.92-1.37c.11,0,.16.14.16.31a27.16,27.16,0,0,0-.13,4Z"/><path class="cls-2" d="M292.89,57.66c0,1.37-.73,3.81-4.56,3.81-.51,0-2.13-.23-3.22-.23a.17.17,0,0,1-.14-.14c0-.28-.65-2.74-.65-3s.39-.17.51-.17c.67,0,.84,2.83,3.52,2.83a2.38,2.38,0,0,0,2.55-2.49c0-2.94-6.27-2-6.27-6,0-2.29,1.9-3.81,4.26-3.81a21.42,21.42,0,0,1,3,.26c.36.08.42.61.42.78.06,1.15.31,1.88.31,2.24,0,.17-.17.23-.31.23s-.42,0-.56-.4-.92-2.38-2.91-2.38a2,2,0,0,0-2.24,2.1,2.14,2.14,0,0,0,1.31,1.88c2.94,1.4,5,1.32,5,4.48"/><path class="cls-2" d="M303.25,57.66c0,1.37-.73,3.81-4.57,3.81-.5,0-2.12-.23-3.22-.23a.18.18,0,0,1-.14-.14c0-.28-.64-2.74-.64-3s.39-.17.5-.17c.68,0,.85,2.83,3.53,2.83a2.38,2.38,0,0,0,2.55-2.49c0-2.94-6.27-2-6.27-6,0-2.29,1.9-3.81,4.25-3.81a21.63,21.63,0,0,1,3,.26c.36.08.42.61.42.78.05,1.15.31,1.88.31,2.24,0,.17-.17.23-.31.23s-.42,0-.56-.4-.93-2.38-2.91-2.38A2,2,0,0,0,297,51.3a2.14,2.14,0,0,0,1.31,1.88c2.94,1.4,5,1.32,5,4.48"/><path class="cls-2" d="M311.79,49.2c-2.92,0-3.84,3-3.84,5.77,0,2.38.56,5.77,3.84,5.77s3.86-3.39,3.86-5.77c0-2.74-.92-5.77-3.86-5.77m0,12.27a6.27,6.27,0,0,1-6.5-6.5,6.51,6.51,0,0,1,13,0,6.14,6.14,0,0,1-6.52,6.5"/><path class="cls-2" d="M321.81,52.4c0-2.47-.28-2.64-1.74-2.64-.22,0-.62,0-.62-.28s0-.56.31-.56.73.09,1.66.09,2-.09,2.43-.09c.17,0,.23,0,.23.4v7.56c0,2.1.67,3.3,2.74,3.3,1,0,2.77-.62,2.77-1.48V51.44c0-1.51-.28-1.68-1.73-1.68-.51,0-.9,0-.9-.28s0-.56.19-.56c.4,0,.73.09,2.44.09.7,0,1.43-.09,2.13-.09a.35.35,0,0,1,.39.4c0,.11-.25,2.26-.25,4.25v5.26c0,.45,0,1,.7,1,.39,0,1-.11,1.2-.11s.17,0,.17.53c0,.17,0,.22-.92.36a27.33,27.33,0,0,0-3.22.73.37.37,0,0,1-.34-.39c0-.34.06-.78.08-1.06a7.8,7.8,0,0,1-4.17,1.54c-2.77,0-3.55-1.8-3.55-4.71Z"/><path class="cls-2" d="M337.09,51.86c0-1-.25-1.54-1.65-1.68-.22,0-.25-.14-.25-.33s.08-.37.22-.4a12.37,12.37,0,0,0,3.92-1.37c.06,0,.12.17.12.28,0,.34-.15,1-.15,2.55.93-1,2.44-2.43,3.92-2.43A1.6,1.6,0,0,1,345,50a1.38,1.38,0,0,1-1.38,1.4c-1.14,0-1.31-1.06-2.15-1.06a3.14,3.14,0,0,0-1.93,1.2,1.19,1.19,0,0,0-.2.82v6.35c0,1,0,1.65,1.4,1.65,1,0,1.15,0,1.15.34s-.11.39-.42.39c-1,0-1.9-.05-3.19-.05-2.24,0-2.72.05-3.25.05-.2,0-.25-.17-.25-.36s.33-.37.86-.37c1.21,0,1.43-.22,1.43-1.42Z"/><path class="cls-2" d="M347.65,42.71a1.46,1.46,0,1,1,1.45,1.48,1.48,1.48,0,0,1-1.45-1.48m2.6,15.76c0,1.6.06,1.93,1.29,1.93.61,0,.67,0,.67.37,0,.16,0,.36-.28.36s-.5-.06-2.32-.06c-2.64,0-3.36.06-3.78.06-.23,0-.23-.17-.23-.31,0-.36,0-.42,1.07-.42a1,1,0,0,0,1.14-.67,27,27,0,0,0,.17-4V51.86c0-1-.25-1.54-1.65-1.68-.22,0-.25-.14-.25-.33s.08-.37.22-.4a12.37,12.37,0,0,0,3.92-1.37c.11,0,.17.14.17.31a25.24,25.24,0,0,0-.14,4Z"/></g></svg>