<svg xmlns="http://www.w3.org/2000/svg" viewBox="0 0 168.19 72.33"><defs><style>.cls-1{fill:#414142;}.cls-2{fill:#f6d092;}</style></defs><title>Logo-ISO</title><g id="Layer_2" data-name="Layer 2"><g id="NSD_-_Product_-_iSocial_Adv" data-name="NSD - Product - iSocial Adv"><path class="cls-1" d="M119.9,69.22C112,71.11,99.74,72.33,86,72.33s-26-1.22-33.93-3.11h0a32.09,32.09,0,0,1-9.18-22.11c0-.35,0-.7,0-1.06v0c5.87.91,22.95,1.56,43.1,1.56s37.24-.66,43.1-1.57h0c0,.35,0,.68,0,1a32.09,32.09,0,0,1-9.18,22.11Z"/><path class="cls-1" d="M167.71,59.69a18,18,0,0,0-1.83-4.48A18.53,18.53,0,0,0,163,51.36a13.68,13.68,0,0,0-4.37-3l-2.4,1.37,2.44-1.46-11-16.39-.45-.67-.66-.15-20.35-4.52a43.66,43.66,0,0,0-80.56.63L26.3,31l-.42.09-.4.4L12.37,44.9l-.15-.11A14.65,14.65,0,0,0,7.34,47.4,20,20,0,0,0,3.78,51,19.65,19.65,0,0,0,1.22,55.4,14.73,14.73,0,0,0,0,60.8l4.4,3.35a14.45,14.45,0,0,0,4.88-2.6,19.92,19.92,0,0,0,3.55-3.62,19.91,19.91,0,0,0,2.55-4.39,15.09,15.09,0,0,0,1.2-4.83h0L27.47,33.78l17.17-3.93a40.14,40.14,0,0,0-1.76,10.62h0c0,1.19,19.3,2.15,43.11,2.15s43.11-1,43.11-2.15h0a40.39,40.39,0,0,0-1.82-10.82l17.61,4.64,8.9,16.87,0,0a13.89,13.89,0,0,0,.38,5.23A18.55,18.55,0,0,0,156,60.85a18.19,18.19,0,0,0,2.92,3.85,13.68,13.68,0,0,0,4.37,3L168.08,65A13.63,13.63,0,0,0,167.71,59.69ZM105.87,37.76c-12.79.59-25.45.59-38.25,0a5.55,5.55,0,0,1-5.34-5.83c.21-2.76.32-4.14.53-6.9A5.54,5.54,0,0,1,68.68,20a304.72,304.72,0,0,0,36.14,0A5.54,5.54,0,0,1,110.69,25c.21,2.76.32,4.14.53,6.9A5.55,5.55,0,0,1,105.87,37.76Z"/><circle class="cls-2" cx="75.67" cy="31.66" r="3.56"/><circle class="cls-2" cx="96.89" cy="31.66" r="3.56"/><path class="cls-2" d="M66.71,31.21a1.72,1.72,0,0,1-.87-.23,1.78,1.78,0,0,1-.67-2.43,12.11,12.11,0,0,1,10.5-6.12,1.78,1.78,0,1,1,0,3.56,8.57,8.57,0,0,0-7.41,4.32A1.78,1.78,0,0,1,66.71,31.21Z"/><path class="cls-2" d="M105.86,31.21a1.76,1.76,0,0,1-1.55-.9A8.57,8.57,0,0,0,96.89,26a1.78,1.78,0,0,1,0-3.56,12.11,12.11,0,0,1,10.51,6.12,1.78,1.78,0,0,1-.67,2.43A1.72,1.72,0,0,1,105.86,31.21Z"/></g></g></svg>