<svg xmlns="http://www.w3.org/2000/svg" viewBox="0 0 170.02 11.26"><defs><style>.cls-1{fill:#414142;}</style></defs><title>Logo-JPMorgan</title><g id="Layer_2" data-name="Layer 2"><g id="NSD_-_Product_-_iSocial" data-name="NSD - Product - iSocial"><path class="cls-1" d="M3.12.24H8V.59H7.75a2.48,2.48,0,0,0-1,.13.68.68,0,0,0-.32.48,10.55,10.55,0,0,0-.08,1.67v3.6a14.83,14.83,0,0,1-.1,2,3.11,3.11,0,0,1-.59,1.37,3.18,3.18,0,0,1-1.28,1,4.56,4.56,0,0,1-1.87.35,3.17,3.17,0,0,1-1.84-.44A1.24,1.24,0,0,1,0,9.77a.91.91,0,0,1,.23-.62A.77.77,0,0,1,.8,8.9a.78.78,0,0,1,.57.23.72.72,0,0,1,.24.55.88.88,0,0,1-.1.4.94.94,0,0,0-.08.28.43.43,0,0,0,.29.39,1.76,1.76,0,0,0,.73.14,2.09,2.09,0,0,0,1.49-.57A2.22,2.22,0,0,0,4.67,9,18,18,0,0,0,4.8,6.46V2.86a10.2,10.2,0,0,0-.08-1.62A.72.72,0,0,0,4.41.73a2.51,2.51,0,0,0-1-.14H3.12Z"/><path class="cls-1" d="M12.34,5.43h.75a5,5,0,0,0,1.48-.18,1.72,1.72,0,0,0,.93-.77A2.62,2.62,0,0,0,15.88,3a2.55,2.55,0,0,0-.65-1.93A2.92,2.92,0,0,0,13.15.5a8,8,0,0,0-.81,0Zm0,.38V8a13.66,13.66,0,0,0,.06,1.64.81.81,0,0,0,.31.58,1.83,1.83,0,0,0,1,.18H14v.36H9.17v-.36h.28a1.82,1.82,0,0,0,1-.17.79.79,0,0,0,.33-.53,11.4,11.4,0,0,0,.07-1.69V2.87a10.76,10.76,0,0,0-.07-1.63.72.72,0,0,0-.31-.51A2.6,2.6,0,0,0,9.37.59h-.2V.24L10.5.18C11.56.14,12.39.12,13,.12a9.59,9.59,0,0,1,2.53.26A3,3,0,0,1,17,1.29a2.39,2.39,0,0,1,.56,1.65,3.07,3.07,0,0,1-.38,1.53,2.51,2.51,0,0,1-1.11,1,6.53,6.53,0,0,1-2.54.34Z"/><path class="cls-1" d="M26.35,9,30.19.24h3.26V.59h-.39a2.48,2.48,0,0,0-1,.13.68.68,0,0,0-.32.48,9,9,0,0,0-.09,1.67V8.05a13.46,13.46,0,0,0,.06,1.63.9.9,0,0,0,.32.58,1.81,1.81,0,0,0,1,.18h.47v.36H28.37v-.36h.38a1.9,1.9,0,0,0,.94-.17A.79.79,0,0,0,30,9.74a10.87,10.87,0,0,0,.08-1.69V1.33L25.94,10.8h-.38l-4.2-9.47V7.52a13.28,13.28,0,0,0,.07,1.73,1.4,1.4,0,0,0,.49.8,1.89,1.89,0,0,0,1.14.39v.36H19.25v-.36a1.82,1.82,0,0,0,1.11-.37,1.29,1.29,0,0,0,.52-.81A11.23,11.23,0,0,0,21,7.47V2.87a10.36,10.36,0,0,0-.08-1.63.72.72,0,0,0-.31-.51A2.53,2.53,0,0,0,19.54.59h-.29V.24h3.22Z"/><path class="cls-1" d="M35.44,6.71a4.65,4.65,0,0,0,.77,2.94,2.78,2.78,0,0,0,2.33,1,2.6,2.6,0,0,0,2.16-1,4.57,4.57,0,0,0,.8-2.93,4.72,4.72,0,0,0-.78-2.9,2.72,2.72,0,0,0-2.27-1,2.69,2.69,0,0,0-2.24,1,4.59,4.59,0,0,0-.77,2.91m-1.39,0a3.87,3.87,0,0,1,1.26-3,4.49,4.49,0,0,1,3.13-1.14,4.63,4.63,0,0,1,3.17,1.13,3.91,3.91,0,0,1,1.27,3.07,4,4,0,0,1-1.22,3.05,4.92,4.92,0,0,1-6.37,0,4,4,0,0,1-1.24-3.09"/><path class="cls-1" d="M160.11,6.71a4.65,4.65,0,0,0,.78,2.94,2.76,2.76,0,0,0,2.33,1,2.61,2.61,0,0,0,2.16-1,4.63,4.63,0,0,0,.79-2.93,4.66,4.66,0,0,0-.78-2.9,2.71,2.71,0,0,0-2.27-1,2.66,2.66,0,0,0-2.23,1,4.59,4.59,0,0,0-.78,2.91m-1.38,0a3.86,3.86,0,0,1,1.25-3,4.51,4.51,0,0,1,3.14-1.14,4.6,4.6,0,0,1,3.16,1.13,3.88,3.88,0,0,1,1.27,3.07,4,4,0,0,1-1.22,3.05,4.91,4.91,0,0,1-6.36,0,4,4,0,0,1-1.24-3.09"/><path class="cls-1" d="M46.4,6.59l.92,0a3.81,3.81,0,0,0,.82-.13,1.45,1.45,0,0,0,.56-.32A1.35,1.35,0,0,0,49,5.57a2.51,2.51,0,0,0,.12-.83,2.1,2.1,0,0,0-.42-1.37c-.28-.35-.89-.52-1.84-.52l-.5,0Zm6.1,4.19H50.33a9.88,9.88,0,0,1-1.77-2.12c-.25-.36-.52-.71-.79-1A4.87,4.87,0,0,0,47.21,7a.91.91,0,0,0-.49-.11H46.4V8.68a10.34,10.34,0,0,0,.05,1.25.62.62,0,0,0,.24.43,1.3,1.3,0,0,0,.74.15h.4v.27h-3.9v-.27h.27a1.47,1.47,0,0,0,.72-.13.62.62,0,0,0,.26-.42,10.33,10.33,0,0,0,0-1.29v-4a10.1,10.1,0,0,0,0-1.25A.55.55,0,0,0,44.93,3a2,2,0,0,0-.81-.1H44V2.66l1.16-.06c.77,0,1.38-.05,1.84-.05a6.5,6.5,0,0,1,1.88.22A2.52,2.52,0,0,1,50,3.48a1.7,1.7,0,0,1,.44,1.17A1.83,1.83,0,0,1,49.9,6a2.93,2.93,0,0,1-1.71.7,6.42,6.42,0,0,1,1.64,1.76,8.17,8.17,0,0,0,1.44,1.62,2.23,2.23,0,0,0,1.23.41Z"/><path class="cls-1" d="M58.13,7.31h3.51v.28a1.73,1.73,0,0,0-.79.12.61.61,0,0,0-.28.39,8.54,8.54,0,0,0-.06,1.33v.86l-.26,0a3.57,3.57,0,0,0-1.21.28,5.47,5.47,0,0,1-1.88.38,3.93,3.93,0,0,1-4-4,4.66,4.66,0,0,1,1.1-3.06,3.74,3.74,0,0,1,3-1.31,3.45,3.45,0,0,1,2.7,1.2,2.86,2.86,0,0,0,.26-.92h.27V5.51h-.27a3.2,3.2,0,0,0-1-2,2.65,2.65,0,0,0-1.89-.73,2.72,2.72,0,0,0-2,.85,4.18,4.18,0,0,0-.85,3,4.5,4.5,0,0,0,.82,3.06,2.62,2.62,0,0,0,2,.9,2.47,2.47,0,0,0,1.13-.25,1.47,1.47,0,0,0,.69-.62,2,2,0,0,0,.19-.93A2.74,2.74,0,0,0,59.25,8,.52.52,0,0,0,59,7.67a1.92,1.92,0,0,0-.66-.08h-.19Z"/><path class="cls-1" d="M67.4,7.49,66,4.05,64.57,7.49Zm.13.3H64.45l-.22.51a5.26,5.26,0,0,0-.46,1.46.65.65,0,0,0,.25.56,1.06,1.06,0,0,0,.64.19v.27H62.21v-.27a1.32,1.32,0,0,0,.81-.39,4.39,4.39,0,0,0,.64-1.25c0-.06.12-.29.29-.69l2.37-5.63h.24L69.27,9l.37.85a1,1,0,0,0,.34.45,1.23,1.23,0,0,0,.63.21v.27H67.42v-.27a2.36,2.36,0,0,0,.8-.09.35.35,0,0,0,.2-.35,3.78,3.78,0,0,0-.27-.78Z"/><path class="cls-1" d="M78.93,11,73.17,3.35V9a4.08,4.08,0,0,0,.07.92.8.8,0,0,0,.39.41,2.05,2.05,0,0,0,1,.19v.27h-3v-.27a2.09,2.09,0,0,0,.88-.22.67.67,0,0,0,.36-.37A4.49,4.49,0,0,0,72.87,9V4.68a5.74,5.74,0,0,0-.08-1.25.57.57,0,0,0-.28-.4,2.47,2.47,0,0,0-.85-.09V2.66h2.43L78.89,9V4.16a1.75,1.75,0,0,0-.11-.76.79.79,0,0,0-.45-.34,2.49,2.49,0,0,0-.82-.12V2.66h2.94v.28a2.05,2.05,0,0,0-.81.19.75.75,0,0,0-.37.38,2.46,2.46,0,0,0-.08.74V11Z"/><path class="cls-1" d="M94.29,6.86h.35v3.72h-.35a3,3,0,0,0-.51-1.12A4.54,4.54,0,0,1,90.24,11a5,5,0,0,1-3.72-1.44,5.16,5.16,0,0,1-1.45-3.83,6.64,6.64,0,0,1,.67-2.95,4.49,4.49,0,0,1,1.86-2A5.28,5.28,0,0,1,90.21.08a4.71,4.71,0,0,1,2.14.49,4.3,4.3,0,0,1,1.43,1.07A4,4,0,0,0,94.19.28h.35l.1,4h-.35a4.58,4.58,0,0,0-1.43-3A3.81,3.81,0,0,0,90.44.46a3.05,3.05,0,0,0-2.62,1.35,6.51,6.51,0,0,0-1,3.86A5.52,5.52,0,0,0,87.9,9.31a3.35,3.35,0,0,0,2.65,1.27,4,4,0,0,0,1.73-.42,3,3,0,0,0,1.39-1.39,5.33,5.33,0,0,0,.62-1.91"/><path class="cls-1" d="M103.2,6.68H99v2A10.43,10.43,0,0,0,99,9.9a.65.65,0,0,0,.25.44,1.31,1.31,0,0,0,.75.15h.21v.27H96.54v-.27h.21a1.41,1.41,0,0,0,.73-.14.61.61,0,0,0,.26-.41,10.33,10.33,0,0,0,.05-1.29v-4a10.1,10.1,0,0,0-.05-1.25A.57.57,0,0,0,97.49,3a1.89,1.89,0,0,0-.8-.11h-.15V2.64h3.68v.27h-.15a1.86,1.86,0,0,0-.79.11.47.47,0,0,0-.25.36A6.58,6.58,0,0,0,99,4.66V6.27h4.24V4.66a7.89,7.89,0,0,0-.06-1.25.55.55,0,0,0-.23-.39,1.89,1.89,0,0,0-.8-.11h-.21V2.64h3.68v.27h-.12a1.81,1.81,0,0,0-.78.11.47.47,0,0,0-.25.36,8,8,0,0,0-.06,1.28v4a11.14,11.14,0,0,0,0,1.25.64.64,0,0,0,.24.44,1.32,1.32,0,0,0,.74.15h.19v.27H101.9v-.27h.28a1.33,1.33,0,0,0,.71-.14.58.58,0,0,0,.25-.41,8.24,8.24,0,0,0,.06-1.3Z"/><path class="cls-1" d="M111.57,7.47,110.16,4l-1.42,3.44Zm.12.3h-3.07l-.22.51a5.17,5.17,0,0,0-.46,1.46.65.65,0,0,0,.25.56,1.06,1.06,0,0,0,.64.19v.27h-2.45v-.27a1.35,1.35,0,0,0,.81-.39,4.39,4.39,0,0,0,.64-1.25c0-.06.12-.29.29-.69l2.37-5.63h.24L113.44,9l.37.85a1,1,0,0,0,.34.45,1.23,1.23,0,0,0,.63.21v.27h-3.19v-.27a2.25,2.25,0,0,0,.79-.09.34.34,0,0,0,.21-.34,3.32,3.32,0,0,0-.28-.79Z"/><path class="cls-1" d="M115.82,10.68V8.06h.3c.33,1.7,1.14,2.55,2.41,2.55a1.76,1.76,0,0,0,1.33-.49A1.51,1.51,0,0,0,120.32,9a1.38,1.38,0,0,0-.41-1,5,5,0,0,0-1.5-.87,9.78,9.78,0,0,1-1.47-.74,2.32,2.32,0,0,1-.78-.81,2.29,2.29,0,0,1-.28-1.08,1.89,1.89,0,0,1,.61-1.44A2.1,2.1,0,0,1,118,2.49a2.83,2.83,0,0,1,1,.17,2.43,2.43,0,0,1,.94.69,1.26,1.26,0,0,0,.31-.71h.26V4.77h-.26a2.75,2.75,0,0,0-.81-1.45,1.92,1.92,0,0,0-1.35-.53,1.36,1.36,0,0,0-1.07.39,1.25,1.25,0,0,0-.34.85,1.19,1.19,0,0,0,.43.94,6,6,0,0,0,1.52.89,14.29,14.29,0,0,1,1.52.75,2.16,2.16,0,0,1,.77.79,2.32,2.32,0,0,1,.29,1.16,2.21,2.21,0,0,1-.7,1.7,2.62,2.62,0,0,1-1.86.65,2.85,2.85,0,0,1-2.23-1,2,2,0,0,0-.29.79Z"/><path class="cls-1" d="M129.18,8.23h.28l-.18,2.53h-6.69v-.28h.17a1.2,1.2,0,0,0,.77-.16.66.66,0,0,0,.22-.41,7.93,7.93,0,0,0,0-1.26v-4a8.21,8.21,0,0,0,0-1.23.58.58,0,0,0-.23-.41,1.72,1.72,0,0,0-.78-.11V2.64h5.78l.19,2h-.27a3.18,3.18,0,0,0-.47-1.2,1.13,1.13,0,0,0-.66-.45,5.84,5.84,0,0,0-1.22-.09H125v3.4h.86a2.52,2.52,0,0,0,.82-.1.53.53,0,0,0,.31-.31,2.86,2.86,0,0,0,.07-.8h.28V7.87H127a2.35,2.35,0,0,0-.11-.91.54.54,0,0,0-.33-.3,2.93,2.93,0,0,0-.73-.07H125V8.52a4,4,0,0,0,.19,1.69c.12.17.45.25,1,.25h.6a3.46,3.46,0,0,0,1-.14,1.71,1.71,0,0,0,.78-.67,3.84,3.84,0,0,0,.59-1.42"/><path class="cls-1" d="M137.19,3.92c1.09-.63,1.63-1.32,1.63-2a1.53,1.53,0,0,0-.36-1.06,1.25,1.25,0,0,0-1-.41,1.24,1.24,0,0,0-.95.39,1.36,1.36,0,0,0-.35,1,4.19,4.19,0,0,0,1,2.16m-.81,1a4.22,4.22,0,0,0-1.32,1.22,2.48,2.48,0,0,0-.47,1.35,2.76,2.76,0,0,0,.81,1.89,2.42,2.42,0,0,0,1.83.9,2.76,2.76,0,0,0,2.1-1.13q-1.71-2.61-3-4.23m3.5-.77h3.5v.38a2.67,2.67,0,0,0-1.15.64,5,5,0,0,0-1,1.71,7.52,7.52,0,0,1-.8,1.52A6.72,6.72,0,0,0,141.78,10a1.87,1.87,0,0,0,1.06.33A1.29,1.29,0,0,0,144,9.57h.38a1.9,1.9,0,0,1-.73,1.08,2.18,2.18,0,0,1-1.29.41,3.45,3.45,0,0,1-2.8-1.6,4.1,4.1,0,0,1-3,1.6,3.24,3.24,0,0,1-2.66-1.44A2.79,2.79,0,0,1,133.43,8,2.69,2.69,0,0,1,134,6.32a10,10,0,0,1,2.15-1.75,4.21,4.21,0,0,1-1-2.4,2.13,2.13,0,0,1,.65-1.51A2.22,2.22,0,0,1,137.47,0a2.73,2.73,0,0,1,1.59.5,1.52,1.52,0,0,1,.71,1.3c0,.83-.79,1.64-2.35,2.43,1,1.3,1.89,2.57,2.74,3.79a6,6,0,0,0,.74-1.35,3.48,3.48,0,0,0,.27-1.08q0-.93-1.29-1.08Z"/><path class="cls-1" d="M156.38,6.83h.36v3.71h-.36a2.79,2.79,0,0,0-.51-1.12A4.48,4.48,0,0,1,152.34,11a5,5,0,0,1-3.73-1.45,5.18,5.18,0,0,1-1.44-3.83,6.73,6.73,0,0,1,.66-2.94,4.55,4.55,0,0,1,1.86-2,5.24,5.24,0,0,1,2.62-.67,4.64,4.64,0,0,1,2.13.48,4.09,4.09,0,0,1,1.43,1.08,3.88,3.88,0,0,0,.42-1.37h.35l.1,4h-.36a4.5,4.5,0,0,0-1.42-3,3.83,3.83,0,0,0-2.42-.84,3.08,3.08,0,0,0-2.63,1.35,6.48,6.48,0,0,0-1,3.85A5.54,5.54,0,0,0,150,9.27a3.3,3.3,0,0,0,2.64,1.27,4.2,4.2,0,0,0,1.74-.41,3,3,0,0,0,1.39-1.4,5.07,5.07,0,0,0,.61-1.9"/><path class="cls-1" d="M168.23,10.11a.86.86,0,0,1,.27-.63.85.85,0,0,1,.62-.26.89.89,0,0,1,.9.89.9.9,0,0,1-.9.9.83.83,0,0,1-.63-.27.91.91,0,0,1-.26-.63"/></g></g></svg>