<svg xmlns="http://www.w3.org/2000/svg" viewBox="0 0 91.38 19.42"><defs><style>.cls-1{fill:#414142;}</style></defs><title>Logo-Microsoft</title><g id="Layer_2" data-name="Layer 2"><g id="NSD_-_Product_-_iSocial" data-name="NSD - Product - iSocial"><path class="cls-1" d="M91.38,8.78V7.17h-2V4.68h-.06l-1.86.58-.05.06V7.17h-3v-1A1.56,1.56,0,0,1,84.77,5a1,1,0,0,1,.87-.41,1.67,1.67,0,0,1,.87.23h.11V3.18h-.05A2.89,2.89,0,0,0,85.46,3a3.47,3.47,0,0,0-1.56.41,2.68,2.68,0,0,0-1.1,1A3.32,3.32,0,0,0,82.45,6V7.17H81.06V8.78h1.39v6.76h2V8.78h3v4.28c0,1.79.81,2.66,2.49,2.66a3.69,3.69,0,0,0,.81-.06,6.74,6.74,0,0,0,.64-.23h.06V13.81l-.12.06a2.84,2.84,0,0,1-.41.17,1.07,1.07,0,0,1-.4.06,1.15,1.15,0,0,1-.81-.29,1.75,1.75,0,0,1-.29-1.1V8.78ZM78.22,13.41a3.13,3.13,0,0,0,.57-2.08,3.07,3.07,0,0,0-.57-2,2,2,0,0,0-1.63-.69,2.08,2.08,0,0,0-1.68.69,3.35,3.35,0,0,0-.64,2.08,3.08,3.08,0,0,0,.64,2,2.08,2.08,0,0,0,1.68.69A2,2,0,0,0,78.22,13.41ZM76.65,7a3.82,3.82,0,0,1,3.07,1.16,4.16,4.16,0,0,1,1.1,3.12,4.35,4.35,0,0,1-1.15,3.23,4.73,4.73,0,0,1-6.27.06,4.24,4.24,0,0,1-1.16-3.12A4.66,4.66,0,0,1,73.4,8.15,4.66,4.66,0,0,1,76.65,7Zm-7.42,3.64A2.72,2.72,0,0,1,68.07,10a.74.74,0,0,1-.29-.64.7.7,0,0,1,.35-.58,1.14,1.14,0,0,1,.81-.23,6.14,6.14,0,0,1,1,.12,6.06,6.06,0,0,1,.87.4l.06.06V7.34h0A5.81,5.81,0,0,0,70,7.05,5.71,5.71,0,0,0,69,7a3.52,3.52,0,0,0-2.27.7,2.16,2.16,0,0,0-.92,1.84,2.86,2.86,0,0,0,.17,1,2.15,2.15,0,0,0,.64.76,3.73,3.73,0,0,0,1.22.69c.4.17.75.35,1,.46a1.12,1.12,0,0,1,.47.41.86.86,0,0,1,.11.46c0,.52-.4.81-1.27.81A3.88,3.88,0,0,1,67,14a4.94,4.94,0,0,1-1.1-.57l-.11-.06v1.9h.06a3.23,3.23,0,0,0,1,.35,8.7,8.7,0,0,0,1.1.12,3.79,3.79,0,0,0,2.44-.7,2.35,2.35,0,0,0,.92-1.9,2.41,2.41,0,0,0-.46-1.45A4.29,4.29,0,0,0,69.23,10.63Zm-7,2.78a3.45,3.45,0,0,0,.52-2.08,3,3,0,0,0-.58-2,2,2,0,0,0-1.62-.69,2.14,2.14,0,0,0-1.68.69,3.29,3.29,0,0,0-.64,2.08,3,3,0,0,0,.64,2,2.14,2.14,0,0,0,1.68.69A2.08,2.08,0,0,0,62.27,13.41ZM60.71,7a4,4,0,0,1,3.07,1.16,4.46,4.46,0,0,1,1.1,3.12,4.39,4.39,0,0,1-1.22,3.23,4.71,4.71,0,0,1-6.26.06,4.24,4.24,0,0,1-1.16-3.12A4.66,4.66,0,0,1,57.4,8.15,4.69,4.69,0,0,1,60.71,7Zm-5.4.06A1.77,1.77,0,0,0,54,7.51a2.56,2.56,0,0,0-.76,1.1h-.05V7.17h-2v8.37h2V11.27a2.84,2.84,0,0,1,.52-1.79A1.44,1.44,0,0,1,55,8.78a2.4,2.4,0,0,1,.58.12,2,2,0,0,1,.47.17l0,.06v-2h0A1.54,1.54,0,0,0,55.31,7.05Zm-6.49.06A3.29,3.29,0,0,0,47.72,7a4.74,4.74,0,0,0-2.38.58,3.45,3.45,0,0,0-1.56,1.62,5.23,5.23,0,0,0-.53,2.37,4.26,4.26,0,0,0,.53,2.13,3.58,3.58,0,0,0,1.45,1.51,4.4,4.4,0,0,0,2.14.52,5.07,5.07,0,0,0,2.38-.52l0-.06V13.35l-.11.06a3,3,0,0,1-.93.52,3.43,3.43,0,0,1-1,.17,2.54,2.54,0,0,1-1.85-.69,3.12,3.12,0,0,1-.64-2,2.92,2.92,0,0,1,.7-2,2.36,2.36,0,0,1,1.85-.75,3.24,3.24,0,0,1,1.86.64l.11.05V7.4h0A3,3,0,0,0,48.82,7.11ZM40.93,3.64a1.18,1.18,0,0,0-.86.35.94.94,0,0,0-.35.81,1.1,1.1,0,0,0,.35.8,1.37,1.37,0,0,0,.86.29,1.39,1.39,0,0,0,.82-.29,1.13,1.13,0,0,0,.34-.8A1,1,0,0,0,41.75,4,1.19,1.19,0,0,0,40.93,3.64Zm-1,11.9h2V7.17h-2ZM35.25,3.87H38V15.54H36V8.15c0-.52,0-1.27.05-2.14h0a4.8,4.8,0,0,1-.29.92l-3.48,8.61H31L27.48,7.05c-.06-.23-.17-.58-.29-1h-.06a2.92,2.92,0,0,1,.06.75c.06.64.06,1.16.06,1.62v7.16H25.34V3.87h2.9l2.9,7.34a6.88,6.88,0,0,1,.52,1.5h.06l.52-1.5Z"/><rect class="cls-1" width="9.28" height="9.25"/><rect class="cls-1" x="10.26" width="9.22" height="9.25"/><rect class="cls-1" y="10.17" width="9.28" height="9.25"/><rect class="cls-1" x="10.26" y="10.17" width="9.22" height="9.25"/></g></g></svg>