<svg xmlns="http://www.w3.org/2000/svg" viewBox="0 0 83.91 14.33"><defs><style>.cls-1{fill:#414142;}</style></defs><title>Logo-DXC</title><g id="Layer_2" data-name="Layer 2"><g id="NSD_-_Product_-_iSocial" data-name="NSD - Product - iSocial"><path class="cls-1" d="M25.93,9.81h1.95a2.65,2.65,0,1,0,0-5.3H25.93Zm1.89-4.22a1.51,1.51,0,0,1,1.53,1.57,1.51,1.51,0,0,1-1.53,1.57h-.64V5.59Zm6.31,4.22h1.46L33.88,7.14l1.7-2.63H34.15l-1,1.74L32,4.51H30.58l1.71,2.63L30.57,9.81H32L33.07,8Zm4.13.09a2.34,2.34,0,0,0,2.52-2.07H39.52a1.21,1.21,0,0,1-1.23,1,1.46,1.46,0,0,1-1.44-1.63,1.46,1.46,0,0,1,1.44-1.63,1.21,1.21,0,0,1,1.23,1h1.26a2.34,2.34,0,0,0-2.52-2.07,2.61,2.61,0,0,0-2.68,2.74A2.61,2.61,0,0,0,38.26,9.9m2.94-.79a.75.75,0,0,0,.76.76.76.76,0,0,0,.77-.76A.77.77,0,0,0,42,8.34a.76.76,0,0,0-.76.77M42.82,6V7h.6V8.49c0,1,.5,1.38,1.4,1.38a4.32,4.32,0,0,0,.75-.06v-1a3,3,0,0,1-.48.05c-.31,0-.47-.1-.47-.49V7h.86V6h-.86V4.88h-1.2V6Zm7,2.65H48.65a.76.76,0,0,1-.72.39.78.78,0,0,1-.84-.82h2.76a3.91,3.91,0,0,0,0-.45,1.82,1.82,0,0,0-2-1.87,1.9,1.9,0,0,0-2,2,1.9,1.9,0,0,0,2,2,1.75,1.75,0,0,0,1.85-1.26M47.91,6.76a.76.76,0,0,1,.8.73H47.09a.77.77,0,0,1,.82-.73m6.37.71a1.83,1.83,0,0,0-2-1.57,2,2,0,0,0-2.07,2,2,2,0,0,0,2.07,2,1.82,1.82,0,0,0,2-1.57H53.07a.74.74,0,0,1-.73.56.91.91,0,0,1-.87-1,.91.91,0,0,1,.87-1,.74.74,0,0,1,.73.55Zm.54,2.34H56v-2c0-.54.25-.88.73-.88s.68.32.68.77v2.1h1.2V7.62c0-1.07-.47-1.71-1.44-1.71A1.24,1.24,0,0,0,56,6.56V4.29h-1.2Zm4.56,0h1.2v-2c0-.54.25-.88.74-.88s.68.32.68.77v2.1h1.2V7.62c0-1.07-.48-1.71-1.44-1.71a1.26,1.26,0,0,0-1.19.65V6H59.38Zm6.48.1a2,2,0,1,0-2.11-2,2,2,0,0,0,2.11,2m0-1a.9.9,0,0,1-.9-1,.9.9,0,1,1,1.8,0,.9.9,0,0,1-.9,1m2.69.94h1.2V4.29h-1.2Zm3.88.1a2,2,0,1,0-2.1-2,2,2,0,0,0,2.1,2m0-1a.9.9,0,0,1-.89-1,.91.91,0,0,1,.89-1,.92.92,0,0,1,.91,1,.91.91,0,0,1-.91,1m6.73,1V6H78v.56a1.38,1.38,0,0,0-1.2-.65,1.85,1.85,0,0,0-1.84,2,1.81,1.81,0,0,0,1.86,1.93A1.4,1.4,0,0,0,78,9.26v.65a.77.77,0,0,1-.86.85c-.51,0-.79-.24-.84-.58H75.07c.06.84.73,1.44,2,1.44s2.09-.63,2.09-1.74M77,8.87a.92.92,0,0,1-.9-1,.91.91,0,1,1,1.82,0,.92.92,0,0,1-.92,1m5.15,1.5a1.53,1.53,0,0,1-1.62,1.18,2.55,2.55,0,0,1-.52,0v-1l.4,0c.3,0,.49-.12.64-.49l.1-.24L79.55,6h1.3l1,2.35L82.68,6h1.23ZM13.86,7.16a4.6,4.6,0,0,0,4.63,4.63h2V2.53h-2a4.6,4.6,0,0,0-4.63,4.63m-3.6-1.5L13.52,0H7Zm0,3L7,14.33h6.54ZM6.64,7.16A4.6,4.6,0,0,0,2,2.53H0v9.26H2A4.6,4.6,0,0,0,6.64,7.16"/></g></g></svg>