<svg xmlns="http://www.w3.org/2000/svg" viewBox="0 0 353.24 46.95"><defs><style>.cls-1{fill:#cf2036;}.cls-2{fill:#6bc3b1;}.cls-3{fill:#010101;}</style></defs><title>Logo-LOGO-Teachervision</title><g id="Layer_2" data-name="Layer 2"><g id="NSD_-_Partners" data-name="NSD - Partners"><path class="cls-1" d="M25.69,47c-3.42,0-4.81-.64-6.05-1.75l0,0h-.43C18,46.31,16.61,47,13.2,47,5.44,47,0,33.76,0,26.62c0-8.4,5.4-15,12.31-15A11.81,11.81,0,0,1,19,13.14h1a12,12,0,0,1,6.66-1.5c6.9,0,12.3,6.58,12.3,15C38.88,33.76,33.44,47,25.69,47Zm-6.25-5a3,3,0,0,1,2.32.85c.5.44,1.06.94,3.93.94,4.72,0,10-10.21,10-17.13,0-6.6-4-11.77-9.1-11.77a8.93,8.93,0,0,0-5.47,1.3l-.36.2H18.14l-.35-.19a8.88,8.88,0,0,0-5.48-1.31c-5.11,0-9.1,5.17-9.1,11.77,0,6.92,5.26,17.13,10,17.13,2.86,0,3.42-.5,3.91-.94A3,3,0,0,1,19.44,42Z"/><ellipse class="cls-2" cx="25.63" cy="4.91" rx="6.61" ry="2.09" transform="translate(4.04 19.56) rotate(-45)"/><path class="cls-3" d="M22.1,24.3a3,3,0,0,0-2.66,1.4,2.91,2.91,0,0,0-2.59-1.38A2.56,2.56,0,0,0,14,26.8c0,1.23.91,2.56,2.64,3.86a17.13,17.13,0,0,0,2.63,1.6.28.28,0,0,0,.13,0,.26.26,0,0,0,.15,0c.22-.12,5.25-2.92,5.25-5.66A2.47,2.47,0,0,0,22.1,24.3Z"/><path class="cls-3" d="M18.65,12.13h-.18a1,1,0,0,1-.85-1.2,6.15,6.15,0,0,0-4.49-6.81,1,1,0,1,1,.63-2,8.17,8.17,0,0,1,5.91,9.14A1,1,0,0,1,18.65,12.13Z"/><path class="cls-1" d="M57.39,16.2H46.74V10.61H74.22V16.2H63.57V45.34H57.39Z"/><path class="cls-1" d="M75.69,35.63a5.93,5.93,0,0,0,2.06,4.12A6.46,6.46,0,0,0,82,41.22a7.07,7.07,0,0,0,3.7-.9A10.43,10.43,0,0,0,88.35,38l4.22,3.19A12,12,0,0,1,88,44.85a13.56,13.56,0,0,1-5.34,1.08,14.12,14.12,0,0,1-5-.88,12,12,0,0,1-4.07-2.5,11.8,11.8,0,0,1-2.72-3.9,13.28,13.28,0,0,1,0-10.16,11.8,11.8,0,0,1,2.72-3.9,12,12,0,0,1,4.07-2.5,14.12,14.12,0,0,1,5-.88,11.34,11.34,0,0,1,4.49.86,9.67,9.67,0,0,1,3.48,2.47,11.34,11.34,0,0,1,2.25,4A17,17,0,0,1,93.64,34v1.62Zm12.07-4.42a5.59,5.59,0,0,0-1.62-4.09,6.07,6.07,0,0,0-4.37-1.5,5.73,5.73,0,0,0-4.19,1.52,6.81,6.81,0,0,0-1.89,4.07Z"/><path class="cls-1" d="M112.83,42.11h-.15A7.52,7.52,0,0,1,109.44,45a10.1,10.1,0,0,1-4.32.91,11.22,11.22,0,0,1-3.16-.44,8.45,8.45,0,0,1-2.75-1.32A7,7,0,0,1,97.27,42a6.25,6.25,0,0,1-.73-3.09,7.07,7.07,0,0,1,.69-3.26,6.55,6.55,0,0,1,1.84-2.26,9,9,0,0,1,2.67-1.45,18.3,18.3,0,0,1,3.16-.81,28.34,28.34,0,0,1,3.31-.34c1.12-.05,2.16-.07,3.15-.07h1.47V30a3.83,3.83,0,0,0-1.52-3.31,6.43,6.43,0,0,0-3.88-1.11,9.06,9.06,0,0,0-6.28,2.45L98.06,25a11.45,11.45,0,0,1,4.59-2.89,16.82,16.82,0,0,1,5.42-.88,13.87,13.87,0,0,1,4.22.56,9.34,9.34,0,0,1,2.84,1.45,6.53,6.53,0,0,1,1.74,2,9.53,9.53,0,0,1,.89,2.33,13.55,13.55,0,0,1,.32,2.29c0,.73,0,1.38,0,1.93V45.34h-5.3Zm-.35-7.31h-1.22c-.82,0-1.74,0-2.75.09a14.34,14.34,0,0,0-2.87.47,6.7,6.7,0,0,0-2.28,1.08,2.36,2.36,0,0,0-.93,2,2.52,2.52,0,0,0,.36,1.39,3.38,3.38,0,0,0,1,1,4.13,4.13,0,0,0,1.32.57,6.86,6.86,0,0,0,1.48.17A6.12,6.12,0,0,0,111,40.07a5.34,5.34,0,0,0,1.44-4Z"/><path class="cls-1" d="M139.52,28.86a9.65,9.65,0,0,0-2.16-1.72,4.71,4.71,0,0,0-2.31-.64,6.84,6.84,0,0,0-2.89.59A7.12,7.12,0,0,0,130,28.66a6.78,6.78,0,0,0-1.37,2.26,7.71,7.71,0,0,0,0,5.3A6.78,6.78,0,0,0,130,38.48a7.12,7.12,0,0,0,2.19,1.57,6.84,6.84,0,0,0,2.89.58,5.74,5.74,0,0,0,2.55-.56,5.48,5.48,0,0,0,2-1.64l3.93,4.22a9.51,9.51,0,0,1-2,1.52,14.14,14.14,0,0,1-4.58,1.59,11.53,11.53,0,0,1-1.87.17,14.07,14.07,0,0,1-5-.88,12,12,0,0,1-4.07-2.5,11.82,11.82,0,0,1-2.73-3.9,12.48,12.48,0,0,1-1-5.08,12.48,12.48,0,0,1,1-5.08,11.82,11.82,0,0,1,2.73-3.9,12,12,0,0,1,4.07-2.5,14.07,14.07,0,0,1,5-.88,12.63,12.63,0,0,1,4.54.86,10.38,10.38,0,0,1,4,2.72Z"/><path class="cls-1" d="M151.93,25.08h.1a6.78,6.78,0,0,1,2.42-2.67,7.75,7.75,0,0,1,4.49-1.2,9.26,9.26,0,0,1,4,.78,7.52,7.52,0,0,1,2.67,2.06A7.82,7.82,0,0,1,167.09,27a13.71,13.71,0,0,1,.44,3.48V45.34h-5.89V33.42c0-.65,0-1.38-.1-2.18A7.68,7.68,0,0,0,161,29a4.21,4.21,0,0,0-1.3-1.76,3.7,3.7,0,0,0-2.41-.72,5.54,5.54,0,0,0-2.47.5,4.63,4.63,0,0,0-1.67,1.32,5.37,5.37,0,0,0-1,1.91,8.86,8.86,0,0,0-.29,2.26V45.34H146V8.25h5.89Z"/><path class="cls-1" d="M177.88,35.63a6,6,0,0,0,2.06,4.12,6.46,6.46,0,0,0,4.27,1.47,7,7,0,0,0,3.7-.9A10.26,10.26,0,0,0,190.54,38l4.22,3.19a12,12,0,0,1-4.61,3.63,13.6,13.6,0,0,1-5.35,1.08,14.12,14.12,0,0,1-5-.88,11.68,11.68,0,0,1-6.79-6.4,13.28,13.28,0,0,1,0-10.16,11.68,11.68,0,0,1,6.79-6.4,14.12,14.12,0,0,1,5-.88,11.34,11.34,0,0,1,4.49.86,9.58,9.58,0,0,1,3.48,2.47,11.35,11.35,0,0,1,2.26,4,17,17,0,0,1,.81,5.47v1.62ZM190,31.21a5.52,5.52,0,0,0-1.62-4.09,6.07,6.07,0,0,0-4.37-1.5,5.73,5.73,0,0,0-4.19,1.52,6.81,6.81,0,0,0-1.89,4.07Z"/><path class="cls-1" d="M200.3,21.8h5.89v3.72h.1a7.43,7.43,0,0,1,2.79-3.19,7.75,7.75,0,0,1,4.17-1.12,6.23,6.23,0,0,1,1.06.09c.34.07.69.15,1.05.25v5.69c-.49-.13-1-.24-1.45-.32a8.33,8.33,0,0,0-1.39-.12,6.26,6.26,0,0,0-3.31.76,6.06,6.06,0,0,0-1.92,1.74,5.94,5.94,0,0,0-.88,2,7.27,7.27,0,0,0-.22,1.48v12.6H200.3Z"/><path class="cls-1" d="M212.91,10.61H220l9.47,26.25,9.76-26.25h6.68l-14,34.73h-5.35Z"/><path class="cls-1" d="M247.35,13.8a3.4,3.4,0,0,1,1.05-2.48,3.66,3.66,0,0,1,2.68-1.05,3.87,3.87,0,0,1,2.72,1,3.25,3.25,0,0,1,1.1,2.53,3.25,3.25,0,0,1-1.1,2.52,3.84,3.84,0,0,1-2.72,1,3.66,3.66,0,0,1-2.68-1A3.41,3.41,0,0,1,247.35,13.8Zm.83,8h5.89V45.34h-5.89Z"/><path class="cls-1" d="M272.37,28.32a5.38,5.38,0,0,0-4.61-2.4,4.94,4.94,0,0,0-2.31.58,2,2,0,0,0-1.13,1.92,1.65,1.65,0,0,0,.94,1.57,10.11,10.11,0,0,0,2.35.83c.95.23,2,.47,3.07.71a12.18,12.18,0,0,1,3.06,1.13,6.68,6.68,0,0,1,2.36,2.09,6.21,6.21,0,0,1,.93,3.63,6.51,6.51,0,0,1-.91,3.55,7.1,7.1,0,0,1-2.35,2.34,10.66,10.66,0,0,1-3.26,1.27,17.31,17.31,0,0,1-3.63.39,15.7,15.7,0,0,1-5.06-.78,9.51,9.51,0,0,1-4.12-2.85l3.93-3.68a11.17,11.17,0,0,0,2.42,2.09,5.9,5.9,0,0,0,3.17.81,6.22,6.22,0,0,0,1.32-.15,4.3,4.3,0,0,0,1.28-.49,3.19,3.19,0,0,0,1-.86,2.22,2.22,0,0,0-.57-3,8.28,8.28,0,0,0-2.35-1c-.95-.25-2-.48-3.07-.69a11.93,11.93,0,0,1-3.07-1,6.46,6.46,0,0,1-2.35-2,5.88,5.88,0,0,1-.93-3.53,6.88,6.88,0,0,1,.81-3.41A7.17,7.17,0,0,1,261.38,23a9.16,9.16,0,0,1,3-1.37,13.74,13.74,0,0,1,3.49-.44,14,14,0,0,1,4.66.81,7.57,7.57,0,0,1,3.72,2.77Z"/><path class="cls-1" d="M279.83,13.8a3.4,3.4,0,0,1,1.05-2.48,3.64,3.64,0,0,1,2.68-1.05,3.91,3.91,0,0,1,2.72,1,3.29,3.29,0,0,1,1.1,2.53,3.28,3.28,0,0,1-1.1,2.52,3.87,3.87,0,0,1-2.72,1,3.64,3.64,0,0,1-2.68-1A3.41,3.41,0,0,1,279.83,13.8Zm.83,8h5.89V45.34h-5.89Z"/><path class="cls-1" d="M291.11,33.57a12.49,12.49,0,0,1,1-5.08,11.8,11.8,0,0,1,2.72-3.9,12,12,0,0,1,4.07-2.5,14.67,14.67,0,0,1,10,0,12,12,0,0,1,4.07,2.5,11.8,11.8,0,0,1,2.72,3.9,13.28,13.28,0,0,1,0,10.16,11.8,11.8,0,0,1-2.72,3.9,12,12,0,0,1-4.07,2.5,14.67,14.67,0,0,1-10,0,12,12,0,0,1-4.07-2.5,11.8,11.8,0,0,1-2.72-3.9A12.49,12.49,0,0,1,291.11,33.57Zm5.89,0a7.66,7.66,0,0,0,.46,2.65,6.65,6.65,0,0,0,1.38,2.26,6.66,6.66,0,0,0,5.08,2.15,6.88,6.88,0,0,0,2.89-.58A7,7,0,0,0,309,38.48a6.65,6.65,0,0,0,1.38-2.26,7.86,7.86,0,0,0,0-5.3A6.65,6.65,0,0,0,309,28.66a7,7,0,0,0-2.18-1.57,7.4,7.4,0,0,0-5.79,0,7,7,0,0,0-2.18,1.57,6.65,6.65,0,0,0-1.38,2.26A7.66,7.66,0,0,0,297,33.57Z"/><path class="cls-1" d="M321.18,21.8h5.6v3.77h.1a8.14,8.14,0,0,1,2.55-3.06,7.5,7.5,0,0,1,4.66-1.3,9.29,9.29,0,0,1,4,.78,7.45,7.45,0,0,1,4.14,5,13.28,13.28,0,0,1,.44,3.48V45.34h-5.88V33.42c0-.65,0-1.38-.1-2.18a8,8,0,0,0-.52-2.26,4.21,4.21,0,0,0-1.3-1.76,3.69,3.69,0,0,0-2.4-.72A5.59,5.59,0,0,0,330,27a4.63,4.63,0,0,0-1.67,1.32,5.19,5.19,0,0,0-.95,1.91,8.44,8.44,0,0,0-.3,2.26V45.34h-5.89Z"/><path class="cls-1" d="M343.5,17.19a4.63,4.63,0,0,1,.39-1.89,4.81,4.81,0,0,1,1-1.54,5.05,5.05,0,0,1,1.55-1,4.77,4.77,0,0,1,3.78,0,5,5,0,0,1,2.59,2.59,4.77,4.77,0,0,1,0,3.78,5.05,5.05,0,0,1-1.05,1.55,4.81,4.81,0,0,1-1.54,1,4.77,4.77,0,0,1-3.78,0,4.83,4.83,0,0,1-2.59-2.59A4.63,4.63,0,0,1,343.5,17.19Zm1.26,0a3.74,3.74,0,0,0,.28,1.47,3.9,3.9,0,0,0,.76,1.2,3.74,3.74,0,0,0,1.15.81,3.62,3.62,0,0,0,2.84,0,3.58,3.58,0,0,0,1.14-.81A3.85,3.85,0,0,0,352,17.19a3.81,3.81,0,0,0-.28-1.47,3.74,3.74,0,0,0-.77-1.2,3.52,3.52,0,0,0-4-.8,3.55,3.55,0,0,0-1.15.8,3.9,3.9,0,0,0-.76,1.2A3.81,3.81,0,0,0,344.76,17.19Zm1.74-2.6h1.63a6,6,0,0,1,.86.06,2.6,2.6,0,0,1,.73.23,1.29,1.29,0,0,1,.52.46,1.35,1.35,0,0,1,.2.75,1.71,1.71,0,0,1-.11.62,1.58,1.58,0,0,1-.27.48,1.53,1.53,0,0,1-.36.32.89.89,0,0,1-.42.15l1.31,2h-1.37l-1.17-2h-.3v2H346.5Zm1.24,2.12h.61l.27,0a.76.76,0,0,0,.26-.06.49.49,0,0,0,.21-.16.5.5,0,0,0,.09-.31.48.48,0,0,0-.09-.31.42.42,0,0,0-.21-.16.77.77,0,0,0-.26-.07h-.88Z"/></g></g></svg>