<svg xmlns="http://www.w3.org/2000/svg" viewBox="0 0 207.54 39.53"><defs><style>.cls-1{opacity:0.95;}.cls-2{fill:#f1b82c;}.cls-3{fill:#010101;}.cls-4{fill:#fff;}</style></defs><title>Logo-UnivMO2</title><g id="Layer_2" data-name="Layer 2"><g id="NSD_-_Product_-_iSocial" data-name="NSD - Product - iSocial"><g class="cls-1"><rect class="cls-2" width="207.54" height="39.53"/><path class="cls-3" d="M18.58,32.55c-4.41,0-7.6-.8-9.49-2.37a4.47,4.47,0,0,1-1.78-3.42V7h10l1.41,3.18L20.13,7h10V26.76a4.51,4.51,0,0,1-1.78,3.42c-1.89,1.57-5.08,2.37-9.49,2.37Z"/><path class="cls-4" d="M30.27,6.85H20.05L20,7,18.72,9.83,17.47,7l-.07-.16H7.18V26.76A4.6,4.6,0,0,0,9,30.28c1.92,1.6,5.14,2.41,9.58,2.41h.29c4.44,0,7.66-.81,9.58-2.41a4.6,4.6,0,0,0,1.82-3.52V6.85ZM30,7.12V26.76c0,1.3-.89,5.66-11.13,5.66h-.29c-10.24,0-11.14-4.36-11.14-5.66V7.12h9.79l1.49,3.38,1.5-3.38Z"/><path class="cls-2" d="M18.72,26.51c3.36,0,3.3-1.19,3.32-1.48V23.15c0-.38-.26-.68-.73-.93V20.9h5.77v1.31c-.47.25-.73.55-.73.93v1.67c0,1.23.56,4.32-7.63,4.32S11.11,26,11.08,24.81V23.14c0-.38-.25-.68-.73-.93V20.9h5.78v1.32c-.48.25-.73.55-.73.93V25c0,.29,0,1.48,3.32,1.48"/><path class="cls-2" d="M18.72,15l2.79-5h5.57v1.31c-.48.25-.74.55-.74.93v4c0,.38.26.67.74.93v1.31H21.8V17.11c.48-.26.74-.55.74-.93v-3l-3.17,5.29h-1.3L14.9,13.14v3c0,.38.26.67.73.93v1.32H10.36V17.12c.47-.26.73-.55.73-.93v-4c0-.38-.26-.68-.73-.93V10h5.57Z"/><path class="cls-3" d="M41.18,20.44c0,2.26,1,4.23,3.79,4.23,2,0,3.68-1.09,3.68-5.11V16.22c0-2.35-.49-2.35-2.23-2.35-.14,0-.14-.1-.14-.25s0-.25.14-.25c.28,0,1.38.06,2.48.06.52,0,2-.06,2.19-.06s.24,0,.24.28c0,.07,0,.22-.15.22-1.62,0-2,0-2,2v4c0,4.56-2.9,5.78-4.86,5.78-3.78,0-4.85-2.53-4.85-4.39V17.38c0-1.19,0-1.6,0-2.38,0-1-.3-1.13-1.77-1.13-.19,0-.19-.13-.19-.28s0-.22.15-.22,1.61.06,2.67.06,2.55-.06,2.69-.06.15.11.15.22,0,.28-.19.28c-1.47,0-1.75.14-1.77,1.13,0,.78,0,1.19,0,2.38Z"/><path class="cls-3" d="M54.2,23.83c0,1,0,1.17.77,1.17.46,0,.49,0,.49.22s0,.21-.17.21-.3,0-1.48,0c-1.59,0-2,0-2.28,0s-.14-.1-.14-.18,0-.25.65-.25a.63.63,0,0,0,.69-.41,18.46,18.46,0,0,0,.1-2.43V19.85c0-.59-.15-.93-1-1-.13,0-.15-.09-.15-.21s0-.22.14-.23a7.52,7.52,0,0,0,2.36-.83s0,.05,0,.19,0,.47,0,1.21a5.07,5.07,0,0,1,2.65-1.16c.57,0,2.22.11,2.22,2.53v4.05c0,.28,0,.61,1.1.61.17,0,.17.1.17.22s0,.21-.24.21c-.5,0-.81,0-1.7,0-1.37,0-1.64,0-1.77,0s-.12-.11-.12-.2a.21.21,0,0,1,.23-.23c.81,0,1-.07,1-.63v-3c0-1.57-.14-2.62-1.89-2.62a2.47,2.47,0,0,0-1.62.78Z"/><path class="cls-3" d="M62.09,14.33a.88.88,0,1,1,.88.89.9.9,0,0,1-.88-.89m1.57,9.5c0,1,0,1.17.78,1.17.37,0,.4,0,.4.22s0,.21-.16.21-.31,0-1.41,0c-1.58,0-2,0-2.27,0s-.14-.1-.14-.18,0-.25.64-.25a.63.63,0,0,0,.69-.41,16.2,16.2,0,0,0,.11-2.43V19.85c0-.59-.16-.93-1-1-.14,0-.15-.09-.15-.21s.05-.22.13-.23a7.68,7.68,0,0,0,2.37-.83c.06,0,.1.08.1.19a14.1,14.1,0,0,0-.09,2.43Z"/><path class="cls-3" d="M71.41,19c0-.49-.88-.49-1.13-.49-.1,0-.15-.1-.15-.23a.21.21,0,0,1,.22-.21c.45,0,1,0,1.45,0s1,0,1.48,0c.12,0,.15.12.15.21s0,.16-.16.18c-1,.15-1,.22-1.57,1.54s-1.61,3.57-1.91,4.28c-.47,1.13-.63,1.34-.76,1.34s-.31-.36-.64-1.08c-.59-1.27-2-5.39-2.23-5.73a.59.59,0,0,0-.59-.27c-.46,0-.52,0-.52-.28a.18.18,0,0,1,.18-.19c.54,0,1.06,0,1.61,0l2,0c.12,0,.14.16.14.24s-.07.2-.17.2c-.51,0-1,0-1,.41a32.19,32.19,0,0,0,1.72,4.71c1.59-3.53,1.86-4.17,1.86-4.63"/><path class="cls-3" d="M77.6,20.34c.34,0,.58-.1.58-.56a1.43,1.43,0,0,0-1.49-1.6c-1.21,0-1.72,1-1.89,2.16Zm-2.9.5a6.24,6.24,0,0,0-.07,1,2.85,2.85,0,0,0,2.77,2.78,2.2,2.2,0,0,0,2-1c.11-.14.17-.29.26-.29a.35.35,0,0,1,.27.2A3.09,3.09,0,0,1,77,25.64c-2.42,0-3.69-1.49-3.69-3.85s1.64-4.05,3.38-4.05a2.82,2.82,0,0,1,3,2.92c0,.17-.07.18-.2.18Z"/><path class="cls-3" d="M82.07,19.85c0-.59-.15-.93-1-1-.14,0-.15-.09-.15-.21s0-.22.13-.23a7.37,7.37,0,0,0,2.36-.83s.07.1.07.17-.08.62-.08,1.53a3.77,3.77,0,0,1,2.36-1.46,1,1,0,0,1,1.08.94.83.83,0,0,1-.83.84c-.69,0-.79-.64-1.3-.64a1.92,1.92,0,0,0-1.16.73.7.7,0,0,0-.12.49V24c0,.62,0,1,.84,1,.63,0,.7,0,.7.2s-.07.23-.26.23c-.6,0-1.14,0-1.92,0-1.35,0-1.64,0-2,0-.12,0-.15-.1-.15-.21s.2-.22.52-.22c.73,0,.86-.14.86-.87Z"/><path class="cls-3" d="M92.6,23.34c0,.83-.43,2.3-2.75,2.3-.3,0-1.28-.14-1.94-.14a.11.11,0,0,1-.08-.08c0-.17-.39-1.66-.39-1.83s.24-.1.3-.1c.41,0,.51,1.71,2.13,1.71a1.44,1.44,0,0,0,1.54-1.5c0-1.78-3.78-1.2-3.78-3.6a2.36,2.36,0,0,1,2.56-2.29A12.86,12.86,0,0,1,92,18c.22.05.26.37.26.47,0,.69.18,1.13.18,1.35s-.1.14-.18.14a.3.3,0,0,1-.34-.24,2,2,0,0,0-1.76-1.44,1.22,1.22,0,0,0-1.35,1.27,1.29,1.29,0,0,0,.8,1.13c1.77.84,3,.79,3,2.7"/><path class="cls-3" d="M94.68,14.33a.88.88,0,1,1,.88.89.9.9,0,0,1-.88-.89m1.57,9.5c0,1,0,1.17.77,1.17.38,0,.41,0,.41.22s0,.21-.17.21-.3,0-1.4,0c-1.59,0-2,0-2.28,0s-.13-.1-.13-.18,0-.25.64-.25a.63.63,0,0,0,.69-.41,16.76,16.76,0,0,0,.1-2.43V19.85c0-.59-.15-.93-1-1-.14,0-.16-.09-.16-.21s0-.22.14-.23a7.52,7.52,0,0,0,2.36-.83c.07,0,.1.08.1.19a15.84,15.84,0,0,0-.08,2.43Z"/><path class="cls-3" d="M100.33,22.43c0,1.79.15,2.43,1.49,2.43a2.7,2.7,0,0,0,1.14-.39c.07,0,.19.17.19.27a2.57,2.57,0,0,1-2.24.9,1.84,1.84,0,0,1-2-2.1V19.11c0-.14,0-.22-.16-.22H98s-.1-.05-.1-.16a.3.3,0,0,1,.1-.23c1.57-1.18,1.89-2.08,2.23-2.08a.2.2,0,0,1,.2.22c0,.3,0,.59,0,1.55h2.6c.12,0,.17.12.17.36s-.1.42-.46.42c-.11,0-.91-.08-2.31-.08Z"/><path class="cls-3" d="M110.53,19.11c0-.56-.8-.58-1.3-.58-.16,0-.17-.08-.17-.22s.06-.22.15-.22c.54,0,1.1,0,1.64,0s1,0,1.57,0c.11,0,.11.15.11.22s0,.2-.28.22a1,1,0,0,0-1.07.74c-.6,1.4-2.93,6.3-3.3,7.24C106.57,29.77,106,30,105.46,30a1,1,0,0,1-.94-1,1,1,0,0,1,1-.92c.42,0,.64.29.84.29s1.1-1.62,1.1-2.41a8.34,8.34,0,0,0-.59-1.89c-1.07-2.74-1.39-4.21-1.74-5.15-.15-.39-1-.39-1.22-.39s-.15-.12-.15-.24a.18.18,0,0,1,.19-.2c.2,0,1.26,0,1.87,0s1.16,0,1.67,0c.17,0,.2.1.2.22s0,.22-.17.22-.82,0-.82.37c0,.81.57,2.48,1.67,5.3a35.1,35.1,0,0,0,2.18-5.09"/><path class="cls-3" d="M121.09,18.24c-1.76,0-2.31,1.83-2.31,3.48,0,1.44.33,3.48,2.31,3.48s2.33-2,2.33-3.48c0-1.65-.56-3.48-2.33-3.48m0,7.4a3.78,3.78,0,0,1-3.92-3.92,3.93,3.93,0,0,1,7.85,0,3.7,3.7,0,0,1-3.93,3.92"/><path class="cls-3" d="M128.87,24c0,.62,0,1,.84,1,.63,0,.69,0,.69.2s-.06.23-.25.23c-.61,0-1.15,0-1.92,0-1.35,0-1.64,0-1.79,0s-.16-.1-.16-.21,0-.22.36-.22c.72,0,.86-.14.86-.87v-4.7c0-.21,0-.54-.32-.54h-.93c-.12,0-.2,0-.2-.22s.12-.21.52-.29c.66-.15.83-.19.88-.95.17-2.56.93-4,2.92-4.5a4.92,4.92,0,0,1,1-.14c.44,0,1.06.17,1.06.73a.76.76,0,0,1-.79.83,1.58,1.58,0,0,1-.93-.39,1.55,1.55,0,0,0-.74-.39c-1,0-1.13,1.4-1.13,2.45v2.17H131c.12,0,.17.12.17.36s-.1.42-.46.42c-.11,0-1.41-.08-1.8-.08Z"/><path class="cls-3" d="M149.81,13.55c.05-.13.1-.18.2-.18s1.32.06,1.71.06l1.84-.06c.17,0,.18.13.18.28s-.07.22-.2.22c-1.52,0-1.7.12-1.7.9,0,1.09.18,4.64.35,9.36a.84.84,0,0,0,.93.8c.94,0,1,.1,1,.22s-.08.28-.19.28-.33,0-2.68,0c-2.19,0-2.29,0-2.43,0s-.19-.11-.19-.27,0-.23.81-.23c1.12,0,1.14-.27,1.14-.95,0-1-.26-6.46-.39-9.62h0c-1.23,3.16-2.78,6.79-3.89,9.5-.65,1.56-.65,1.74-.87,1.74s-.25-.15-.6-1.31-3.13-8.68-3.19-8.68a69.18,69.18,0,0,0-1.4,8.52c0,.53.28.8.84.8s.91,0,.91.13c0,.32,0,.37-.19.37s-.3,0-2,0c-1.53,0-1.65,0-1.75,0s-.19,0-.19-.28.09-.22.9-.22c.59,0,.71-.22.89-1.18.46-2.43.86-4.88,1.38-7.31a7.48,7.48,0,0,0,.23-1.59,1.8,1.8,0,0,0-.44-.84,5.47,5.47,0,0,0-1.46-.14c-.2,0-.2-.13-.2-.25s0-.25.19-.25l2,.06c.43,0,1.14-.06,1.36-.06s.24.18.41.79c.35,1.27,2.8,8.1,3.1,8.73,1.27-3,2.55-6.08,3.75-9.34"/><path class="cls-3" d="M155.75,14.33a.88.88,0,1,1,.88.89.9.9,0,0,1-.88-.89m1.57,9.5c0,1,0,1.17.77,1.17.37,0,.41,0,.41.22s0,.21-.17.21-.3,0-1.4,0c-1.59,0-2,0-2.28,0s-.13-.1-.13-.18,0-.25.64-.25a.63.63,0,0,0,.69-.41,16.76,16.76,0,0,0,.1-2.43V19.85c0-.59-.15-.93-1-1-.13,0-.15-.09-.15-.21s0-.22.14-.23a7.52,7.52,0,0,0,2.36-.83c.07,0,.1.08.1.19a15.84,15.84,0,0,0-.08,2.43Z"/><path class="cls-3" d="M164.61,23.34c0,.83-.44,2.3-2.75,2.3-.31,0-1.29-.14-1.94-.14a.11.11,0,0,1-.09-.08c0-.17-.39-1.66-.39-1.83s.24-.1.31-.1c.4,0,.5,1.71,2.12,1.71a1.44,1.44,0,0,0,1.54-1.5c0-1.78-3.78-1.2-3.78-3.6a2.37,2.37,0,0,1,2.56-2.29A13.24,13.24,0,0,1,164,18c.22.05.25.37.25.47,0,.69.19,1.13.19,1.35s-.1.14-.19.14-.25,0-.34-.24a2,2,0,0,0-1.75-1.44,1.22,1.22,0,0,0-1.35,1.27,1.29,1.29,0,0,0,.79,1.13c1.77.84,3,.79,3,2.7"/><path class="cls-3" d="M170.85,23.34c0,.83-.44,2.3-2.75,2.3-.3,0-1.28-.14-1.94-.14a.11.11,0,0,1-.08-.08c0-.17-.39-1.66-.39-1.83s.23-.1.3-.1c.41,0,.51,1.71,2.13,1.71a1.43,1.43,0,0,0,1.53-1.5c0-1.78-3.78-1.2-3.78-3.6a2.37,2.37,0,0,1,2.57-2.29,13,13,0,0,1,1.82.15c.22.05.25.37.25.47,0,.69.19,1.13.19,1.35s-.1.14-.19.14-.25,0-.33-.24a2,2,0,0,0-1.76-1.44,1.22,1.22,0,0,0-1.35,1.27,1.29,1.29,0,0,0,.79,1.13c1.78.84,3,.79,3,2.7"/><path class="cls-3" d="M176,18.24c-1.76,0-2.31,1.83-2.31,3.48,0,1.44.33,3.48,2.31,3.48s2.33-2,2.33-3.48c0-1.65-.56-3.48-2.33-3.48m0,7.4a3.78,3.78,0,0,1-3.92-3.92,3.93,3.93,0,0,1,7.85,0A3.7,3.7,0,0,1,176,25.64"/><path class="cls-3" d="M182,20.17c0-1.49-.17-1.59-1-1.59-.13,0-.37,0-.37-.17s0-.33.19-.33.44.05,1,.05,1.24-.05,1.47-.05.14,0,.14.23v4.56c0,1.26.4,2,1.65,2,.61,0,1.67-.37,1.67-.89V19.59c0-.91-.17-1-1-1-.31,0-.55,0-.55-.17s0-.33.12-.33.44.05,1.47.05c.42,0,.86-.05,1.28-.05.16,0,.24.06.24.23s-.15,1.37-.15,2.57v3.17c0,.27,0,.62.42.62.24,0,.61-.06.73-.06s.1,0,.1.32c0,.1,0,.13-.56.22a14,14,0,0,0-1.94.44.22.22,0,0,1-.2-.24,6.16,6.16,0,0,1,0-.64,4.76,4.76,0,0,1-2.52.93c-1.67,0-2.14-1.08-2.14-2.84Z"/><path class="cls-3" d="M191.25,19.85c0-.59-.15-.93-1-1-.14,0-.15-.09-.15-.21s0-.22.13-.23a7.52,7.52,0,0,0,2.36-.83s.07.1.07.17-.08.62-.08,1.53A3.74,3.74,0,0,1,195,17.81a1,1,0,0,1,1.08.94.83.83,0,0,1-.83.84c-.69,0-.79-.64-1.3-.64a1.92,1.92,0,0,0-1.16.73.7.7,0,0,0-.12.49V24c0,.62,0,1,.84,1,.63,0,.7,0,.7.2s-.07.23-.26.23c-.6,0-1.14,0-1.92,0-1.35,0-1.64,0-2,0-.12,0-.15-.1-.15-.21s.2-.22.52-.22c.73,0,.86-.14.86-.87Z"/><path class="cls-3" d="M197.61,14.33a.88.88,0,1,1,.88.89.9.9,0,0,1-.88-.89m1.57,9.5c0,1,0,1.17.78,1.17.37,0,.41,0,.41.22s0,.21-.17.21-.31,0-1.4,0c-1.59,0-2,0-2.28,0s-.14-.1-.14-.18,0-.25.64-.25a.65.65,0,0,0,.7-.41,18.46,18.46,0,0,0,.1-2.43V19.85c0-.59-.15-.93-1-1-.13,0-.15-.09-.15-.21s.05-.22.13-.23a7.53,7.53,0,0,0,2.37-.83c.06,0,.1.08.1.19a14.1,14.1,0,0,0-.09,2.43Z"/></g></g></g></svg>