<svg xmlns="http://www.w3.org/2000/svg" viewBox="0 0 208.88 38.46"><defs><style>.cls-1{fill:#fff;}</style></defs><title>Logo-SiliconPrairieNews</title><g id="Layer_2" data-name="Layer 2"><g id="NSD_-_Product_-_Routine_Success" data-name="NSD - Product - Routine Success"><path class="cls-1" d="M.36,37.57,1,36.23a4.53,4.53,0,0,0,2.54.8C4.57,37,5,36.68,5,36.2,5,34.76.52,35.75.52,32.89c0-1.31,1.05-2.4,3.24-2.4a5.21,5.21,0,0,1,2.68.69l-.55,1.35a4.37,4.37,0,0,0-2.14-.61c-1,0-1.46.4-1.46.89,0,1.41,4.48.43,4.48,3.26,0,1.29-1.07,2.39-3.27,2.39A5.49,5.49,0,0,1,.36,37.57Z"/><path class="cls-1" d="M8.91,30.63h1.78v7.7H8.91Z"/><path class="cls-1" d="M13.45,30.63h1.78v6.25H19.1v1.45H13.45Z"/><path class="cls-1" d="M21,30.63h1.78v7.7H21Z"/><path class="cls-1" d="M25.08,34.48a4,4,0,0,1,4.18-4,4,4,0,0,1,3.17,1.37l-1.15,1a2.47,2.47,0,0,0-1.93-.9,2.47,2.47,0,1,0,0,4.93A2.44,2.44,0,0,0,31.28,36l1.15,1a3.94,3.94,0,0,1-3.18,1.38A4,4,0,0,1,25.08,34.48Z"/><path class="cls-1" d="M34,34.48a4,4,0,0,1,4.21-4,4,4,0,1,1,0,8A4,4,0,0,1,34,34.48Zm6.62,0a2.41,2.41,0,1,0-2.41,2.46A2.35,2.35,0,0,0,40.57,34.48Z"/><path class="cls-1" d="M51.7,30.63v7.7H50.24L46.4,33.65v4.68H44.64v-7.7h1.47l3.83,4.67V30.63Z"/><path class="cls-1" d="M61.13,33.42c0,1.72-1.29,2.78-3.35,2.78H56.23v2.13H54.45v-7.7h3.33C59.84,30.63,61.13,31.69,61.13,33.42Zm-1.81,0c0-.85-.55-1.34-1.64-1.34H56.23v2.67h1.45C58.77,34.75,59.32,34.26,59.32,33.42Z"/><path class="cls-1" d="M68.33,38.33l-1.48-2.15H65.21v2.15H63.42v-7.7h3.34c2.06,0,3.34,1.06,3.34,2.79a2.5,2.5,0,0,1-1.58,2.43l1.73,2.48Zm-1.67-6.25H65.21v2.68h1.45c1.09,0,1.64-.5,1.64-1.34S67.75,32.08,66.66,32.08Z"/><path class="cls-1" d="M77.52,36.68H73.94l-.68,1.65H71.43l3.44-7.7h1.76l3.44,7.7H78.2ZM77,35.32l-1.23-2.94-1.22,2.94Z"/><path class="cls-1" d="M81.81,30.63h1.78v7.7H81.81Z"/><path class="cls-1" d="M91.26,38.33l-1.49-2.15H88.13v2.15H86.35v-7.7h3.33c2.06,0,3.35,1.06,3.35,2.79a2.5,2.5,0,0,1-1.59,2.43l1.73,2.48Zm-1.68-6.25H88.13v2.68h1.45c1.09,0,1.64-.5,1.64-1.34S90.67,32.08,89.58,32.08Z"/><path class="cls-1" d="M95.36,30.63h1.78v7.7H95.36Z"/><path class="cls-1" d="M105.85,36.9v1.43h-6v-7.7h5.82v1.43h-4v1.67h3.58v1.38h-3.58V36.9Z"/><path class="cls-1" d="M115.26,30.63v7.7h-1.47L110,33.65v4.68h-1.76v-7.7h1.48l3.83,4.67V30.63Z"/><path class="cls-1" d="M124,36.9v1.43h-6v-7.7h5.82v1.43h-4v1.67h3.57v1.38h-3.57V36.9Z"/><path class="cls-1" d="M138,30.63l-2.52,7.7h-1.91l-1.7-5.22-1.75,5.22h-1.9l-2.53-7.7h1.85L129.24,36l1.81-5.41h1.65l1.76,5.45,1.8-5.45Z"/><path class="cls-1" d="M139.44,37.57l.61-1.34a4.56,4.56,0,0,0,2.54.8c1.06,0,1.49-.35,1.49-.83,0-1.44-4.48-.45-4.48-3.31,0-1.31,1.05-2.4,3.24-2.4a5.21,5.21,0,0,1,2.68.69L145,32.53a4.34,4.34,0,0,0-2.14-.61c-1.05,0-1.46.4-1.46.89,0,1.41,4.48.43,4.48,3.26,0,1.29-1.07,2.39-3.27,2.39A5.51,5.51,0,0,1,139.44,37.57Z"/><path class="cls-1" d="M147.4,37.34a1.07,1.07,0,0,1,2.13,0,1.07,1.07,0,1,1-2.13,0Z"/><path class="cls-1" d="M151.21,34.48a4.24,4.24,0,0,1,7.35-2.62l-1.14,1a2.5,2.5,0,0,0-1.94-.9,2.47,2.47,0,0,0,0,4.93,2.48,2.48,0,0,0,1.94-.91l1.14,1a3.92,3.92,0,0,1-3.18,1.38A4,4,0,0,1,151.21,34.48Z"/><path class="cls-1" d="M160.08,34.48a4.22,4.22,0,1,1,4.21,4A4,4,0,0,1,160.08,34.48Zm6.62,0a2.41,2.41,0,1,0-2.41,2.46A2.35,2.35,0,0,0,166.7,34.48Z"/><path class="cls-1" d="M177.78,38.33V33.71l-2.27,3.8h-.8l-2.26-3.7v4.52h-1.67v-7.7h1.48l2.88,4.78L178,30.63h1.46l0,7.7Z"/><polygon class="cls-1" points="6.63 0 9.38 0 2.73 15.89 0 15.89 6.63 0"/><path class="cls-1" d="M12,12.25a1.85,1.85,0,0,0,.45,1.13,3.28,3.28,0,0,0,2.28.6,3.77,3.77,0,0,0,1.56-.27.84.84,0,0,0,.11-1.54,19.31,19.31,0,0,0-3.46-.9,7.59,7.59,0,0,1-3-1.21A2.46,2.46,0,0,1,9,8,3.43,3.43,0,0,1,10.41,5.3a5.92,5.92,0,0,1,3.88-1.14A7.69,7.69,0,0,1,18.15,5,3.56,3.56,0,0,1,19.87,8H16.56a1.57,1.57,0,0,0-.36-.91,2.41,2.41,0,0,0-1.86-.61,2.94,2.94,0,0,0-1.54.31.85.85,0,0,0-.46.71.76.76,0,0,0,.49.74A23.09,23.09,0,0,0,16.28,9a6.69,6.69,0,0,1,3,1.26,2.75,2.75,0,0,1,1,2.15,3.31,3.31,0,0,1-1.39,2.76,7.09,7.09,0,0,1-4.33,1.08,7,7,0,0,1-4.41-1.14,3.55,3.55,0,0,1-1.43-2.89Z"/><path class="cls-1" d="M26.05,3.13H22.7V.38h3.35ZM22.7,4.49h3.35v11.4H22.7Z"/><rect class="cls-1" x="29.32" y="0.47" width="3.3" height="15.42"/><path class="cls-1" d="M39.24,3.13H35.89V.38h3.35ZM35.89,4.49h3.35v11.4H35.89Z"/><path class="cls-1" d="M50,8.58a2.49,2.49,0,0,0-.47-1.15,2.11,2.11,0,0,0-1.74-.69A2.27,2.27,0,0,0,45.5,8.23a5.82,5.82,0,0,0-.32,2.11,5.31,5.31,0,0,0,.32,2,2.21,2.21,0,0,0,2.24,1.42,2.08,2.08,0,0,0,1.65-.56A2.65,2.65,0,0,0,50,11.75h3.37a4.74,4.74,0,0,1-1.09,2.57,5.55,5.55,0,0,1-4.61,2,5.69,5.69,0,0,1-4.49-1.64,6.15,6.15,0,0,1-1.44-4.23,6.25,6.25,0,0,1,1.59-4.56A5.85,5.85,0,0,1,47.7,4.21a7.14,7.14,0,0,1,3.89,1,4.34,4.34,0,0,1,1.8,3.4Z"/><path class="cls-1" d="M66.19,14.49a6.21,6.21,0,0,1-4.86,1.79,6.21,6.21,0,0,1-4.86-1.79,6.16,6.16,0,0,1-1.6-4.29,6.26,6.26,0,0,1,1.6-4.27,6.15,6.15,0,0,1,4.86-1.81,6.15,6.15,0,0,1,4.86,1.81,6.21,6.21,0,0,1,1.6,4.27,6.16,6.16,0,0,1-1.6,4.29m-2.64-1.64a4.06,4.06,0,0,0,.77-2.65,4,4,0,0,0-.77-2.63,3.14,3.14,0,0,0-4.46,0,4,4,0,0,0-.79,2.63,4,4,0,0,0,.79,2.65,3.14,3.14,0,0,0,4.46,0"/><path class="cls-1" d="M80.35,5.14a3.6,3.6,0,0,1,1.24,3.07v7.68H78.2V9a3,3,0,0,0-.26-1.38,1.93,1.93,0,0,0-1.84-.88A2.32,2.32,0,0,0,73.8,8a4.13,4.13,0,0,0-.32,1.74v6.17h-3.3V4.51h3.2V6.17a4.88,4.88,0,0,1,1.2-1.26,4.38,4.38,0,0,1,2.57-.7,5.21,5.21,0,0,1,3.2.93"/><path class="cls-1" d="M86.42,20.26H85V4.79h1.43v2h0a3.86,3.86,0,0,1,.8-1,4.53,4.53,0,0,1,1.07-.71,6.62,6.62,0,0,1,1.2-.43,5.07,5.07,0,0,1,1.21-.15,6.41,6.41,0,0,1,2.54.45A4.65,4.65,0,0,1,95,6.17,4.89,4.89,0,0,1,96,8a8.39,8.39,0,0,1,.31,2.29A7.58,7.58,0,0,1,96,12.55a5.13,5.13,0,0,1-1,1.87,4.83,4.83,0,0,1-1.71,1.29,5.69,5.69,0,0,1-2.43.48,6.37,6.37,0,0,1-2.51-.52,4.31,4.31,0,0,1-1.88-1.56Zm0-9.88a5.55,5.55,0,0,0,.28,1.79,4.52,4.52,0,0,0,.82,1.48,4,4,0,0,0,1.31,1,3.9,3.9,0,0,0,1.74.37,4.37,4.37,0,0,0,1.91-.39,3.72,3.72,0,0,0,1.35-1.09A4.6,4.6,0,0,0,94.59,12a6.91,6.91,0,0,0,.19-2,4.9,4.9,0,0,0-.33-1.86,3.78,3.78,0,0,0-2.21-2.2,4.51,4.51,0,0,0-1.67-.29A4.22,4.22,0,0,0,88.79,6a3.71,3.71,0,0,0-1.3,1,4.32,4.32,0,0,0-.8,1.5,6.26,6.26,0,0,0-.27,1.87"/><path class="cls-1" d="M100.83,15.89H99.41V4.79h1.42V6.87h0A3.71,3.71,0,0,1,102.41,5a5.07,5.07,0,0,1,2.48-.53v1.4a4.34,4.34,0,0,0-2,.34,3.17,3.17,0,0,0-1.25,1A3.76,3.76,0,0,0,101,8.68a8.43,8.43,0,0,0-.18,1.77v5.44Z"/><path class="cls-1" d="M112.9,9.42l1-.13a3.61,3.61,0,0,0,.91-.24.68.68,0,0,0,.44-.5,2.56,2.56,0,0,0,.08-.65,2.07,2.07,0,0,0-.7-1.62,3.49,3.49,0,0,0-2.36-.63,7.06,7.06,0,0,0-1.35.12,3.07,3.07,0,0,0-1.08.4,2.33,2.33,0,0,0-.76.77,3.2,3.2,0,0,0-.4,1.21h-1.45a3.81,3.81,0,0,1,.5-1.68,3.63,3.63,0,0,1,1.11-1.13,4.72,4.72,0,0,1,1.57-.65,8.74,8.74,0,0,1,1.88-.2,8.17,8.17,0,0,1,1.75.18,4.55,4.55,0,0,1,1.42.58,2.78,2.78,0,0,1,1,1.06,3.54,3.54,0,0,1,.35,1.63v6c0,.5.1.82.29.95s.6.11,1.2-.09v1l-.48.12a2.39,2.39,0,0,1-.63.09,2.67,2.67,0,0,1-.64-.07,1,1,0,0,1-.57-.2,1.57,1.57,0,0,1-.35-.38,1.64,1.64,0,0,1-.17-.5,2.59,2.59,0,0,1-.05-.56,6.39,6.39,0,0,1-2.07,1.37,6.69,6.69,0,0,1-2.52.47,6.16,6.16,0,0,1-1.55-.2,3.62,3.62,0,0,1-1.32-.6,3,3,0,0,1-.9-1,2.83,2.83,0,0,1-.33-1.41q0-2.82,4.29-3.34Zm2.39.64a7.42,7.42,0,0,1-1.83.45c-.61.07-1.23.13-1.85.17a5.63,5.63,0,0,0-2.55.67,1.84,1.84,0,0,0-.91,1.69,1.7,1.7,0,0,0,.22.89,1.87,1.87,0,0,0,.6.62,2.25,2.25,0,0,0,.85.36,4.07,4.07,0,0,0,1,.12,7,7,0,0,0,1.66-.19,4.49,4.49,0,0,0,1.43-.59,3,3,0,0,0,1-1,2.6,2.6,0,0,0,.38-1.44V10.06Z"/><path class="cls-1" d="M120.59.47h1.57v1.9h-1.57Zm.07,4.32h1.42v11.1h-1.42Z"/><path class="cls-1" d="M127.21,15.89h-1.42V4.79h1.42V6.87h.05A3.81,3.81,0,0,1,128.79,5a5.07,5.07,0,0,1,2.48-.53v1.4a4.36,4.36,0,0,0-2,.34,3.24,3.24,0,0,0-1.25,1,3.76,3.76,0,0,0-.64,1.47,8.43,8.43,0,0,0-.18,1.77v5.44Z"/><path class="cls-1" d="M133.77.47h1.56v1.9h-1.56Zm.07,4.32h1.42v11.1h-1.42Z"/><path class="cls-1" d="M139.77,10.64a5.55,5.55,0,0,0,.26,1.7,4.16,4.16,0,0,0,.78,1.4,3.78,3.78,0,0,0,1.29.94,4.76,4.76,0,0,0,4.21-.31,3.23,3.23,0,0,0,1.33-1.89h1.59a7.08,7.08,0,0,1-.69,1.47,4.8,4.8,0,0,1-1.07,1.18,4.85,4.85,0,0,1-1.52.78,6.66,6.66,0,0,1-2,.28,6.48,6.48,0,0,1-2.54-.45,4.72,4.72,0,0,1-1.76-1.23,5,5,0,0,1-1-1.84,7.37,7.37,0,0,1-.34-2.29,6.45,6.45,0,0,1,.4-2.29,5.66,5.66,0,0,1,1.11-1.87A5.08,5.08,0,0,1,141.53,5a6,6,0,0,1,2.37-.46,5.17,5.17,0,0,1,4,1.58,6.49,6.49,0,0,1,1.42,4.57Zm8-1.07A4.55,4.55,0,0,0,147.55,8a3.71,3.71,0,0,0-.73-1.25A3.61,3.61,0,0,0,145.59,6a4.23,4.23,0,0,0-1.68-.31,4.16,4.16,0,0,0-1.68.32,3.73,3.73,0,0,0-1.23.86,4.06,4.06,0,0,0-.82,1.24,5.37,5.37,0,0,0-.41,1.5Z"/><path class="cls-1" d="M162.12,5.14a3.58,3.58,0,0,1,1.24,3.07v7.68H160V9a2.86,2.86,0,0,0-.27-1.38,1.91,1.91,0,0,0-1.84-.88A2.31,2.31,0,0,0,155.58,8a4.13,4.13,0,0,0-.32,1.74v6.17H152V4.51h3.2V6.17a5.07,5.07,0,0,1,1.21-1.26,4.38,4.38,0,0,1,2.57-.7,5.16,5.16,0,0,1,3.19.93"/><path class="cls-1" d="M174.67,4.72a5.1,5.1,0,0,1,2.19,1.68,5.37,5.37,0,0,1,1,2.36A12.7,12.7,0,0,1,178,11h-9.2a2.66,2.66,0,0,0,1.32,2.41,3.58,3.58,0,0,0,1.82.43,3,3,0,0,0,1.83-.52,2.57,2.57,0,0,0,.69-.79h3.37a3.59,3.59,0,0,1-1.23,2.06,6.49,6.49,0,0,1-4.75,1.67,7.33,7.33,0,0,1-4.45-1.41,5.25,5.25,0,0,1-1.93-4.56,5.84,5.84,0,0,1,1.74-4.55,6.49,6.49,0,0,1,4.52-1.58,7.78,7.78,0,0,1,3,.54m-4.94,2.57a3,3,0,0,0-.88,1.77h5.69a2.38,2.38,0,0,0-.88-1.8,3.1,3.1,0,0,0-2-.62,2.8,2.8,0,0,0-2,.65"/><polygon class="cls-1" points="185.6 4.49 188.95 4.49 190.88 12.7 192.85 4.49 196.29 4.49 192.63 15.89 189.23 15.89 187.25 7.58 185.24 15.89 181.81 15.89 178.26 4.49 181.81 4.49 183.78 12.67 185.6 4.49"/><path class="cls-1" d="M200.68,12.25a1.91,1.91,0,0,0,.45,1.13,3.28,3.28,0,0,0,2.28.6,3.74,3.74,0,0,0,1.56-.27.84.84,0,0,0,.58-.78.83.83,0,0,0-.47-.76,19.36,19.36,0,0,0-3.45-.9,7.58,7.58,0,0,1-3-1.21A2.46,2.46,0,0,1,197.71,8a3.43,3.43,0,0,1,1.37-2.71A5.92,5.92,0,0,1,203,4.16a7.69,7.69,0,0,1,3.86.86A3.56,3.56,0,0,1,208.54,8h-3.31a1.57,1.57,0,0,0-.36-.91A2.41,2.41,0,0,0,203,6.44a2.94,2.94,0,0,0-1.54.31.87.87,0,0,0-.46.71.76.76,0,0,0,.49.74A23.09,23.09,0,0,0,205,9a6.69,6.69,0,0,1,3,1.26,2.75,2.75,0,0,1,1,2.15,3.3,3.3,0,0,1-1.4,2.76,9.14,9.14,0,0,1-8.73-.06,3.55,3.55,0,0,1-1.43-2.89Z"/></g></g></svg>