<svg xmlns="http://www.w3.org/2000/svg" viewBox="0 0 224.55 102.05"><defs><style>.cls-1{fill:#414142;}.cls-2{fill:#fff;}</style></defs><title>LOGO-PANDA</title><g id="NSD_-_Partners" data-name="NSD - Partners"><path class="cls-1" d="M74.05,84.16a14.16,14.16,0,0,1-3,.41,13.6,13.6,0,0,1-4.74-.75V80.75a15.56,15.56,0,0,1,1.48-1.32,12.29,12.29,0,0,1,2.51-1.59,1.19,1.19,0,0,0-.56-1.34h0a7.92,7.92,0,0,1-4.41-6.8l-.25-8.24h0a.47.47,0,1,0-.93,0h0L64,69.7a7.92,7.92,0,0,1-4.41,6.8h0A1.17,1.17,0,0,0,59,77.84a12.85,12.85,0,0,1,2.51,1.59A15.56,15.56,0,0,1,63,80.75v3.06a13.3,13.3,0,0,1-9-.09l.62.41a10,10,0,0,0,4.78,1.55,9.41,9.41,0,0,0,4.77-1.11l.55-.3.54.3A9.37,9.37,0,0,0,69.9,85.7a9.58,9.58,0,0,0,2.41-.41,11.14,11.14,0,0,0,2.32-1.05,9,9,0,0,0,.76-.5A10.92,10.92,0,0,1,74.05,84.16Z"/><path class="cls-2" d="M21.55,38.22l2.59,1.53c-.31.62-.61,1.24-.89,1.85h4.12c8-13.23,21.46-23.4,37.33-23.4S94,28.37,102,41.6h4.06c-.28-.61-.58-1.22-.9-1.85l2.66-1.58A7.72,7.72,0,0,0,109,27.79l-7.62-10.37a6.86,6.86,0,0,0-4.72-2.79,6.62,6.62,0,0,0-5.15,1.58l-3.41,3.92a48.35,48.35,0,0,0-4.91-2.95,19.52,19.52,0,0,0-2.58-1.45l-.23-.09,3.52-1.7-1.3-.26a129.48,129.48,0,0,0-13.12-1.46l-.29,0,3.15-2.34H71a37.58,37.58,0,0,0-11.92,2.51l-.27.11L63.5,5.75l-1.44.64A47.7,47.7,0,0,0,55.72,9.7a21.71,21.71,0,0,0-5,5.43c-1.2.44-2.37.93-3.48,1.46-.74-.14-1.65-.28-2.73-.41a12.35,12.35,0,0,0-5.22.37l-1,.31-.61-.7a6.66,6.66,0,0,0-5.1-1.53,6.86,6.86,0,0,0-4.72,2.79L20.31,27.79A7.75,7.75,0,0,0,21.55,38.22ZM39.42,17.41a12.22,12.22,0,0,1,4.12,1.2c-.75.46-1.53,1-2.34,1.51l-2.4-2.76Z"/><path class="cls-2" d="M22.19,71.4V83.72H10V44.94H27q7.13,0,10.93,3.61a12.75,12.75,0,0,1,3.81,9.7,13.21,13.21,0,0,1-1.7,6.65,12,12,0,0,1-5,4.74,17,17,0,0,1-8,1.76Zm7.23-13.15q0-3.55-3.78-3.56H22.19v7.12h3.45Q29.42,61.81,29.42,58.25Z"/><path class="cls-2" d="M127.15,83.72H115l-12.88-19.5v19.5H90V44.94h12.16L115,64.77V44.94h12.16Z"/><path class="cls-2" d="M166.48,74.19a17.65,17.65,0,0,1-7,7,21.52,21.52,0,0,1-10.65,2.55H132.63V44.94h16.16a22.15,22.15,0,0,1,10.65,2.46,17.34,17.34,0,0,1,7,6.85,20,20,0,0,1,2.46,10A20.21,20.21,0,0,1,166.48,74.19Zm-12.27-3.56a8.32,8.32,0,0,0,2.41-6.41,8.33,8.33,0,0,0-2.41-6.41,9.18,9.18,0,0,0-6.52-2.25h-2.9V72.88h2.9A9.18,9.18,0,0,0,154.21,70.63Z"/><path class="cls-2" d="M193.82,77.86H180.89L179,83.72H166.21l14.18-38.78h14l14.13,38.78H195.73Zm-3-9.15-3.51-10.79-3.5,10.79Z"/><path class="cls-2" d="M74.05,84.16a14.16,14.16,0,0,1-3,.41,13.6,13.6,0,0,1-4.74-.75V80.75a15.56,15.56,0,0,1,1.48-1.32,12.29,12.29,0,0,1,2.51-1.59,1.19,1.19,0,0,0-.56-1.34h0a7.92,7.92,0,0,1-4.41-6.8l-.25-8.24h0a.47.47,0,1,0-.93,0h0L64,69.7a7.92,7.92,0,0,1-4.41,6.8h0A1.17,1.17,0,0,0,59,77.84a12.85,12.85,0,0,1,2.51,1.59A15.56,15.56,0,0,1,63,80.75v3.06a13.3,13.3,0,0,1-9-.09l.62.41a10,10,0,0,0,4.78,1.55,9.41,9.41,0,0,0,4.77-1.11l.55-.3.54.3A9.37,9.37,0,0,0,69.9,85.7a9.58,9.58,0,0,0,2.41-.41,11.14,11.14,0,0,0,2.32-1.05,9,9,0,0,0,.76-.5A10.92,10.92,0,0,1,74.05,84.16Z"/><path class="cls-2" d="M84.15,63.67,84,63.41a7.4,7.4,0,0,0,2-3.82C87.33,54,83,47.3,77.1,45.73c-3.25-.86-6.16-.39-8.18,1.32a6.7,6.7,0,0,0-.82.85,1.26,1.26,0,0,0,0,1.67l6.56,7.08a43.58,43.58,0,0,1,6.43,8.75c2.5,4.58,4.55,11,.13,15.84-.23.25-.47.49-.7.72l-.46.43-.2.2-.67.57-.07.06a1.26,1.26,0,0,0,1.23,2.16c.61-.21,1.22-.44,1.81-.68a1.15,1.15,0,0,0,.35-.22L83,84.1q.3-.27.6-.57c.24-.24.47-.49.72-.75a14.63,14.63,0,0,0,1-1.31C87.4,78.14,88.88,72.34,84.15,63.67Zm-2.78-7.32a2.19,2.19,0,0,0,.38-1.24,2.24,2.24,0,1,0-4.48,0,2.19,2.19,0,0,0,.5,1.4,3,3,0,1,1,3.6-.16Z"/><path class="cls-2" d="M43.8,81.39a13,13,0,0,0,1,1.31l.72.75q.3.3.6.57l.41.38a1.65,1.65,0,0,0,.36.22c.59.24,1.2.46,1.81.68a1.23,1.23,0,0,0,.42.07,1.26,1.26,0,0,0,.8-2.23s-.06,0-.06-.06l-.67-.57-.2-.2c-.19-.17-.33-.3-.46-.44s-.47-.46-.7-.71c-4.42-4.8-2.37-11.26.13-15.84a43.15,43.15,0,0,1,6.43-8.75L61,49.48a1.25,1.25,0,0,0,0-1.66,6.7,6.7,0,0,0-.82-.85c-2-1.71-4.93-2.18-8.18-1.32C46.15,47.22,41.8,54,43.09,59.51a7.35,7.35,0,0,0,2,3.81l-.15.27C40.25,72.26,41.73,78.06,43.8,81.39ZM46.67,54a3,3,0,1,1,4.69,2.45,2.22,2.22,0,0,0,.5-1.4,2.24,2.24,0,1,0-4.48,0,2.19,2.19,0,0,0,.38,1.24A3,3,0,0,1,46.67,54Z"/><path class="cls-2" d="M10,92.64v1.84H9.21V89.73h1.62a1.71,1.71,0,0,1,1.23.39,1.39,1.39,0,0,1,.42,1.07,1.34,1.34,0,0,1-.43,1.06,1.74,1.74,0,0,1-1.22.39Zm1.72-1.45a.83.83,0,0,0-.23-.62,1,1,0,0,0-.72-.21H10V92h.77C11.38,92,11.7,91.74,11.7,91.19Z"/><path class="cls-2" d="M16.57,90.77v3.71H15.8v-.81a1.22,1.22,0,0,1-.49.64,1.51,1.51,0,0,1-.82.23,1.36,1.36,0,0,1-1-.42,1.69,1.69,0,0,1-.39-1.19V90.77h.77v2.08a1.09,1.09,0,0,0,.26.77.88.88,0,0,0,.7.28.94.94,0,0,0,.73-.3,1.19,1.19,0,0,0,.28-.86v-2Z"/><path class="cls-2" d="M20.49,91a1.64,1.64,0,0,1,.59.66,2.45,2.45,0,0,1,0,2,1.52,1.52,0,0,1-.59.66,1.71,1.71,0,0,1-.87.23,1.45,1.45,0,0,1-.86-.25,1.32,1.32,0,0,1-.5-.66v2.63h-.77V90.77h.77v.86a1.36,1.36,0,0,1,.5-.66,1.52,1.52,0,0,1,.86-.24A1.71,1.71,0,0,1,20.49,91Zm-1.68.6a1.13,1.13,0,0,0-.41.43,1.34,1.34,0,0,0-.15.64,1.33,1.33,0,0,0,.15.65,1.06,1.06,0,0,0,.41.43,1.11,1.11,0,0,0,.58.15,1.08,1.08,0,0,0,.82-.33,1.26,1.26,0,0,0,.31-.9,1.28,1.28,0,0,0-.31-.89,1.08,1.08,0,0,0-.82-.33A1.11,1.11,0,0,0,18.81,91.55Z"/><path class="cls-2" d="M22.07,89.37a.5.5,0,0,1,.35-.13.53.53,0,0,1,.36.13.45.45,0,0,1,.14.33.4.4,0,0,1-.14.31.52.52,0,0,1-.36.12.5.5,0,0,1-.35-.12.4.4,0,0,1-.14-.31A.45.45,0,0,1,22.07,89.37Zm.74,1.4v3.71H22V90.77Z"/><path class="cls-2" d="M24.5,89.5v5h-.76v-5Z"/><path class="cls-2" d="M26.2,89.5v5h-.77v-5Z"/><path class="cls-2" d="M29.48,91a1.36,1.36,0,0,1,.5.66v-.86h.77v3.71H30v-.86a1.32,1.32,0,0,1-.5.66,1.45,1.45,0,0,1-.86.25,1.69,1.69,0,0,1-.87-.23,1.52,1.52,0,0,1-.59-.66,2.45,2.45,0,0,1,0-2,1.64,1.64,0,0,1,.59-.66,1.68,1.68,0,0,1,.87-.22A1.52,1.52,0,0,1,29.48,91ZM28,91.73a1.49,1.49,0,0,0,0,1.79,1.08,1.08,0,0,0,.82.33,1.11,1.11,0,0,0,.58-.15,1.06,1.06,0,0,0,.41-.43,1.45,1.45,0,0,0,.14-.65,1.47,1.47,0,0,0-.14-.64,1.13,1.13,0,0,0-.41-.43,1.11,1.11,0,0,0-.58-.15A1.08,1.08,0,0,0,28,91.73Z"/><path class="cls-2" d="M33,90.92a1.53,1.53,0,0,1,.81-.21v.84h-.23a1.26,1.26,0,0,0-.81.24,1,1,0,0,0-.31.81v1.88h-.77V90.77h.77v.73A1.58,1.58,0,0,1,33,90.92Z"/><path class="cls-2" d="M34.8,90.77l1.11,2.73,1-2.73h.85l-2.24,5.48H34.7l.8-1.85-1.56-3.63Z"/><path class="cls-2" d="M42.71,93.45h-2l-.36,1h-.82l1.75-4.68h.88l1.74,4.68h-.82Zm-.22-.59-.78-2.22-.79,2.22Z"/><path class="cls-2" d="M46.73,91.06a1.34,1.34,0,0,1,.48.89h-.72a.87.87,0,0,0-.26-.49.84.84,0,0,0-.56-.18.61.61,0,0,0-.45.14.44.44,0,0,0-.16.37.38.38,0,0,0,.11.28.92.92,0,0,0,.29.17,4.75,4.75,0,0,0,.49.14,4,4,0,0,1,.67.19,1,1,0,0,1,.45.32.91.91,0,0,1,.18.6.9.9,0,0,1-.35.75,1.46,1.46,0,0,1-.95.29,1.84,1.84,0,0,1-1.12-.32,1.34,1.34,0,0,1-.52-.91h.75a.7.7,0,0,0,.27.5A1,1,0,0,0,46,94a.59.59,0,0,0,.43-.14.47.47,0,0,0,.16-.37.41.41,0,0,0-.12-.31,1.09,1.09,0,0,0-.3-.18l-.5-.13a4.18,4.18,0,0,1-.66-.19,1,1,0,0,1-.43-.3.87.87,0,0,1-.18-.58.93.93,0,0,1,.36-.76,1.45,1.45,0,0,1,1-.29A1.56,1.56,0,0,1,46.73,91.06Z"/><path class="cls-2" d="M50.29,91.06a1.42,1.42,0,0,1,.48.89H50a.81.81,0,0,0-.26-.49.84.84,0,0,0-.56-.18.64.64,0,0,0-.45.14.47.47,0,0,0-.16.37.35.35,0,0,0,.12.28.74.74,0,0,0,.29.17,4.43,4.43,0,0,0,.48.14,4.19,4.19,0,0,1,.68.19,1.07,1.07,0,0,1,.44.32.86.86,0,0,1,.19.6.93.93,0,0,1-.35.75,1.5,1.5,0,0,1-1,.29,1.86,1.86,0,0,1-1.12-.32,1.33,1.33,0,0,1-.51-.91h.74a.78.78,0,0,0,.27.5,1,1,0,0,0,.62.18.61.61,0,0,0,.44-.14.51.51,0,0,0,.16-.37.39.39,0,0,0-.13-.31,1.09,1.09,0,0,0-.3-.18l-.5-.13a4,4,0,0,1-.65-.19.94.94,0,0,1-.43-.3.87.87,0,0,1-.18-.58.92.92,0,0,1,.35-.76,1.47,1.47,0,0,1,1-.29A1.57,1.57,0,0,1,50.29,91.06Z"/><path class="cls-2" d="M55,92.78H52.14a1.2,1.2,0,0,0,.32.85,1.16,1.16,0,0,0,1.38.08.79.79,0,0,0,.33-.52H55a1.55,1.55,0,0,1-.31.69,1.61,1.61,0,0,1-.61.48,2.07,2.07,0,0,1-.84.17,2,2,0,0,1-1-.23,1.65,1.65,0,0,1-.65-.66,2.35,2.35,0,0,1,0-2,1.79,1.79,0,0,1,.65-.66,2,2,0,0,1,1-.22,1.93,1.93,0,0,1,1,.22,1.63,1.63,0,0,1,.63.62,1.84,1.84,0,0,1,.21.88A2.92,2.92,0,0,1,55,92.78Zm-.87-1a.94.94,0,0,0-.38-.36,1.17,1.17,0,0,0-.52-.12,1.1,1.1,0,0,0-.76.27,1.17,1.17,0,0,0-.33.82h2.11A1.15,1.15,0,0,0,54.13,91.82Z"/><path class="cls-2" d="M58,91.06a1.42,1.42,0,0,1,.48.89h-.73a.8.8,0,0,0-.25-.49.86.86,0,0,0-.57-.18.6.6,0,0,0-.44.14.44.44,0,0,0-.16.37.38.38,0,0,0,.11.28.82.82,0,0,0,.29.17,4.75,4.75,0,0,0,.49.14,4.34,4.34,0,0,1,.67.19,1.1,1.1,0,0,1,.45.32.91.91,0,0,1,.18.6.93.93,0,0,1-.35.75,1.48,1.48,0,0,1-1,.29,1.82,1.82,0,0,1-1.12-.32,1.34,1.34,0,0,1-.52-.91h.75a.7.7,0,0,0,.27.5,1,1,0,0,0,.62.18.6.6,0,0,0,.43-.14.47.47,0,0,0,.16-.37.41.41,0,0,0-.12-.31,1,1,0,0,0-.31-.18l-.49-.13a4.18,4.18,0,0,1-.66-.19,1,1,0,0,1-.43-.3.87.87,0,0,1-.18-.58A1,1,0,0,1,56,91a1.49,1.49,0,0,1,1-.29A1.57,1.57,0,0,1,58,91.06Z"/><path class="cls-2" d="M61.59,91.06a1.42,1.42,0,0,1,.48.89h-.73a.81.81,0,0,0-.26-.49.84.84,0,0,0-.56-.18.62.62,0,0,0-.45.14.47.47,0,0,0-.16.37.35.35,0,0,0,.12.28.78.78,0,0,0,.28.17c.12,0,.28.09.49.14a4.51,4.51,0,0,1,.68.19,1.07,1.07,0,0,1,.44.32.86.86,0,0,1,.19.6.91.91,0,0,1-.36.75,1.46,1.46,0,0,1-1,.29,1.86,1.86,0,0,1-1.12-.32,1.34,1.34,0,0,1-.52-.91h.75a.7.7,0,0,0,.27.5,1,1,0,0,0,.62.18.63.63,0,0,0,.44-.14.5.5,0,0,0,.15-.37.41.41,0,0,0-.12-.31A1.09,1.09,0,0,0,61,93l-.5-.13a4.18,4.18,0,0,1-.66-.19,1.05,1.05,0,0,1-.43-.3.87.87,0,0,1-.17-.58.92.92,0,0,1,.35-.76,1.45,1.45,0,0,1,1-.29A1.61,1.61,0,0,1,61.59,91.06Z"/><path class="cls-2" d="M68.57,91.13A1.69,1.69,0,0,1,69,92.32v2.16h-.77V92.4a1.09,1.09,0,0,0-.24-.75.83.83,0,0,0-.66-.26.93.93,0,0,0-.72.28,1.18,1.18,0,0,0-.27.84v2h-.76V92.4a1.09,1.09,0,0,0-.25-.75.83.83,0,0,0-.66-.26.94.94,0,0,0-.72.28,1.18,1.18,0,0,0-.27.84v2h-.77V90.77h.77v.78a1.19,1.19,0,0,1,.47-.62,1.35,1.35,0,0,1,.78-.22,1.4,1.4,0,0,1,.8.23,1.3,1.3,0,0,1,.5.66,1.34,1.34,0,0,1,.52-.65,1.51,1.51,0,0,1,1.86.18Z"/><path class="cls-2" d="M73.28,92.78H70.42a1.2,1.2,0,0,0,.32.85,1.16,1.16,0,0,0,1.38.08.79.79,0,0,0,.33-.52h.82a1.55,1.55,0,0,1-.31.69,1.61,1.61,0,0,1-.61.48,2.07,2.07,0,0,1-.84.17,2,2,0,0,1-1-.23,1.65,1.65,0,0,1-.65-.66,2.35,2.35,0,0,1,0-2,1.79,1.79,0,0,1,.65-.66,2,2,0,0,1,1-.22,1.93,1.93,0,0,1,.95.22,1.63,1.63,0,0,1,.63.62,1.84,1.84,0,0,1,.21.88A1.62,1.62,0,0,1,73.28,92.78Zm-.87-1a.94.94,0,0,0-.38-.36,1.17,1.17,0,0,0-.52-.12,1.1,1.1,0,0,0-.76.27,1.17,1.17,0,0,0-.33.82h2.11A1.15,1.15,0,0,0,72.41,91.82Z"/><path class="cls-2" d="M77.16,91.13a1.69,1.69,0,0,1,.39,1.19v2.16h-.77V92.4a1.09,1.09,0,0,0-.26-.77.91.91,0,0,0-.7-.27,1,1,0,0,0-.73.29,1.23,1.23,0,0,0-.28.86v2H74V90.77h.77v.82a1.26,1.26,0,0,1,.5-.65,1.45,1.45,0,0,1,.81-.23A1.36,1.36,0,0,1,77.16,91.13Z"/><path class="cls-2" d="M80.31,93.82v.66h-.47a1.26,1.26,0,0,1-.9-.28,1.24,1.24,0,0,1-.31-1V91.43H78.1v-.66h.53v-.92h.78v.92h.89v.66h-.89v1.83a.65.65,0,0,0,.11.44.59.59,0,0,0,.42.12Z"/><path class="cls-2" d="M83.7,90.15a.74.74,0,0,0-.18.56v.06h.81v.66h-.81v3h-.78v-3h-.5v-.66h.5v-.12a1.3,1.3,0,0,1,.4-1,1.63,1.63,0,0,1,1.19-.3V90A.84.84,0,0,0,83.7,90.15Z"/><path class="cls-2" d="M87.62,91a1.7,1.7,0,0,1,.67.66,2.27,2.27,0,0,1,0,2,1.58,1.58,0,0,1-.67.66,2.16,2.16,0,0,1-1.94,0,1.64,1.64,0,0,1-.67-.66,2.19,2.19,0,0,1,0-2,1.77,1.77,0,0,1,.67-.66,2.25,2.25,0,0,1,1.94,0Zm-1.52.58a1,1,0,0,0-.4.41,1.45,1.45,0,0,0-.15.68,1.41,1.41,0,0,0,.15.69,1,1,0,0,0,.4.41,1.15,1.15,0,0,0,1.1,0,1.05,1.05,0,0,0,.4-.41,1.41,1.41,0,0,0,.15-.69,1.45,1.45,0,0,0-.15-.68,1.05,1.05,0,0,0-.4-.41,1.15,1.15,0,0,0-1.1,0Z"/><path class="cls-2" d="M90.58,90.92a1.53,1.53,0,0,1,.81-.21v.84h-.23a1.26,1.26,0,0,0-.81.24,1,1,0,0,0-.31.81v1.88h-.76V90.77H90v.73A1.58,1.58,0,0,1,90.58,90.92Z"/><path class="cls-2" d="M97.38,94.48h-.77L94.3,91v3.51h-.76V89.74h.76l2.31,3.52V89.74h.77Z"/><path class="cls-2" d="M101.73,92.78H98.88a1.2,1.2,0,0,0,.31.85,1.07,1.07,0,0,0,.74.27,1.08,1.08,0,0,0,.65-.19.82.82,0,0,0,.32-.52h.82a1.54,1.54,0,0,1-.3.69,1.65,1.65,0,0,1-.62.48,2.07,2.07,0,0,1-.84.17A1.94,1.94,0,0,1,99,94.3a1.59,1.59,0,0,1-.65-.66,2.27,2.27,0,0,1,0-2A1.72,1.72,0,0,1,99,91a2.16,2.16,0,0,1,1.9,0,1.57,1.57,0,0,1,.63.62,1.74,1.74,0,0,1,.22.88A1.55,1.55,0,0,1,101.73,92.78Zm-.87-1a.88.88,0,0,0-.38-.36,1.14,1.14,0,0,0-.52-.12,1.08,1.08,0,0,0-.75.27,1.13,1.13,0,0,0-.33.82H101A1.15,1.15,0,0,0,100.86,91.82Z"/><path class="cls-2" d="M105.92,90.77v3.71h-.77v-.81a1.19,1.19,0,0,1-.5.64,1.45,1.45,0,0,1-.81.23,1.36,1.36,0,0,1-1-.42,1.69,1.69,0,0,1-.39-1.19V90.77h.77v2.08a1,1,0,0,0,.26.77.88.88,0,0,0,.7.28,1,1,0,0,0,.73-.3,1.23,1.23,0,0,0,.28-.86v-2Z"/><path class="cls-2" d="M108.15,90.92a1.53,1.53,0,0,1,.81-.21v.84h-.23a1.26,1.26,0,0,0-.81.24,1,1,0,0,0-.31.81v1.88h-.77V90.77h.77v.73A1.5,1.5,0,0,1,108.15,90.92Z"/><path class="cls-2" d="M112.2,91a1.77,1.77,0,0,1,.67.66,2.27,2.27,0,0,1,0,2,1.64,1.64,0,0,1-.67.66,2.1,2.1,0,0,1-1,.23,2,2,0,0,1-1-.23,1.58,1.58,0,0,1-.67-.66,2.19,2.19,0,0,1,0-2,1.7,1.7,0,0,1,.67-.66,2,2,0,0,1,1-.22A2.1,2.1,0,0,1,112.2,91Zm-1.52.58a.93.93,0,0,0-.4.41,1.45,1.45,0,0,0-.15.68,1.41,1.41,0,0,0,.15.69.93.93,0,0,0,.4.41,1.13,1.13,0,0,0,1.09,0,.93.93,0,0,0,.4-.41,1.41,1.41,0,0,0,.15-.69,1.45,1.45,0,0,0-.15-.68.93.93,0,0,0-.4-.41,1.13,1.13,0,0,0-1.09,0Z"/><path class="cls-2" d="M114.62,89.5v5h-.77v-5Z"/><path class="cls-2" d="M118.21,91a1.73,1.73,0,0,1,.68.66,2.27,2.27,0,0,1,0,2,1.6,1.6,0,0,1-.68.66,2.14,2.14,0,0,1-1.93,0,1.58,1.58,0,0,1-.67-.66,2.19,2.19,0,0,1,0-2,1.7,1.7,0,0,1,.67-.66,2.23,2.23,0,0,1,1.93,0Zm-1.51.58a.93.93,0,0,0-.4.41,1.45,1.45,0,0,0-.15.68,1.41,1.41,0,0,0,.15.69.93.93,0,0,0,.4.41,1.13,1.13,0,0,0,1.09,0,.93.93,0,0,0,.4-.41,1.41,1.41,0,0,0,.15-.69,1.45,1.45,0,0,0-.15-.68.93.93,0,0,0-.4-.41,1.13,1.13,0,0,0-1.09,0Z"/><path class="cls-2" d="M122.22,91a1.38,1.38,0,0,1,.51.66v-.86h.76v3.75a1.92,1.92,0,0,1-.21.92,1.48,1.48,0,0,1-.61.63,1.87,1.87,0,0,1-.94.23,2,2,0,0,1-1.26-.37,1.66,1.66,0,0,1-.61-1h.76a.92.92,0,0,0,.37.51,1.15,1.15,0,0,0,.69.19,1,1,0,0,0,1-1.11v-.9a1.34,1.34,0,0,1-.51.66,1.43,1.43,0,0,1-.86.25,1.71,1.71,0,0,1-.87-.23,1.52,1.52,0,0,1-.59-.66,2.45,2.45,0,0,1,0-2,1.64,1.64,0,0,1,.59-.66,1.71,1.71,0,0,1,.87-.22A1.5,1.5,0,0,1,122.22,91Zm-1.44.76a1.45,1.45,0,0,0,0,1.79,1,1,0,0,0,.81.33,1.11,1.11,0,0,0,.58-.15,1.06,1.06,0,0,0,.41-.43,1.33,1.33,0,0,0,.15-.65,1.34,1.34,0,0,0-.15-.64,1.13,1.13,0,0,0-.41-.43,1.11,1.11,0,0,0-.58-.15A1,1,0,0,0,120.78,91.73Z"/><path class="cls-2" d="M124.44,89.37a.56.56,0,0,1,.72,0,.45.45,0,0,1,.14.33.4.4,0,0,1-.14.31.6.6,0,0,1-.72,0,.39.39,0,0,1-.13-.31A.44.44,0,0,1,124.44,89.37Zm.74,1.4v3.71h-.76V90.77Z"/><path class="cls-2" d="M129,91.11a1.61,1.61,0,0,1,.59,1h-.82a.86.86,0,0,0-.32-.55,1,1,0,0,0-.65-.2,1,1,0,0,0-.74.32,1.25,1.25,0,0,0-.3.91,1.3,1.3,0,0,0,.3.93,1,1,0,0,0,.74.31,1,1,0,0,0,.65-.2.86.86,0,0,0,.32-.55h.82a1.68,1.68,0,0,1-.59,1,1.84,1.84,0,0,1-1.19.38,2,2,0,0,1-1-.23,1.59,1.59,0,0,1-.65-.66,2.27,2.27,0,0,1,0-2,1.72,1.72,0,0,1,.65-.66,2,2,0,0,1,1-.22A1.79,1.79,0,0,1,129,91.11Z"/><path class="cls-2" d="M132.63,91a1.38,1.38,0,0,1,.51.66v-.86h.76v3.71h-.76v-.86a1.34,1.34,0,0,1-.51.66,1.45,1.45,0,0,1-.86.25,1.71,1.71,0,0,1-.87-.23,1.52,1.52,0,0,1-.59-.66,2.45,2.45,0,0,1,0-2,1.64,1.64,0,0,1,.59-.66,1.71,1.71,0,0,1,.87-.22A1.52,1.52,0,0,1,132.63,91Zm-1.44.76a1.45,1.45,0,0,0,0,1.79,1,1,0,0,0,.81.33,1.11,1.11,0,0,0,.58-.15,1.06,1.06,0,0,0,.41-.43,1.33,1.33,0,0,0,.15-.65A1.34,1.34,0,0,0,133,92a1.13,1.13,0,0,0-.41-.43,1.11,1.11,0,0,0-.58-.15A1,1,0,0,0,131.19,91.73Z"/><path class="cls-2" d="M135.59,89.5v5h-.76v-5Z"/><path class="cls-2" d="M141.88,93.36a2.06,2.06,0,0,1-.85.83,2.94,2.94,0,0,1-1.34.29H138.1V89.73h1.59A2.94,2.94,0,0,1,141,90a2,2,0,0,1,.85.83,2.49,2.49,0,0,1,.3,1.25A2.55,2.55,0,0,1,141.88,93.36Zm-.94,0a1.66,1.66,0,0,0,.46-1.24,1.7,1.7,0,0,0-.46-1.25,1.84,1.84,0,0,0-1.31-.44h-.76v3.38h.76A1.8,1.8,0,0,0,140.94,93.34Z"/><path class="cls-2" d="M143,89.37a.52.52,0,0,1,.35-.13.57.57,0,0,1,.37.13.44.44,0,0,1,.13.33.39.39,0,0,1-.13.31.57.57,0,0,1-.37.12A.51.51,0,0,1,143,90a.4.4,0,0,1-.14-.31A.45.45,0,0,1,143,89.37Zm.74,1.4v3.71H143V90.77Z"/><path class="cls-2" d="M146.91,91.06a1.39,1.39,0,0,1,.49.89h-.73a.81.81,0,0,0-.26-.49.84.84,0,0,0-.56-.18.61.61,0,0,0-.45.14.44.44,0,0,0-.16.37.35.35,0,0,0,.12.28.78.78,0,0,0,.28.17c.12,0,.28.09.49.14a4.51,4.51,0,0,1,.68.19,1.07,1.07,0,0,1,.44.32,1,1,0,0,1-.17,1.35,1.46,1.46,0,0,1-1,.29,1.84,1.84,0,0,1-1.12-.32,1.34,1.34,0,0,1-.52-.91h.75a.7.7,0,0,0,.27.5,1,1,0,0,0,.62.18.59.59,0,0,0,.43-.14.47.47,0,0,0,.16-.37.41.41,0,0,0-.12-.31,1.09,1.09,0,0,0-.3-.18l-.5-.13a4.18,4.18,0,0,1-.66-.19,1,1,0,0,1-.43-.3.87.87,0,0,1-.18-.58.93.93,0,0,1,.36-.76,1.45,1.45,0,0,1,1-.29A1.56,1.56,0,0,1,146.91,91.06Z"/><path class="cls-2" d="M150.87,91a1.7,1.7,0,0,1,.67.66,2.19,2.19,0,0,1,0,2,1.58,1.58,0,0,1-.67.66,2.16,2.16,0,0,1-1.94,0,1.64,1.64,0,0,1-.67-.66,2.27,2.27,0,0,1,0-2,1.77,1.77,0,0,1,.67-.66,2.25,2.25,0,0,1,1.94,0Zm-1.51.58a1,1,0,0,0-.41.41,1.45,1.45,0,0,0-.15.68,1.41,1.41,0,0,0,.15.69,1,1,0,0,0,.41.41,1.09,1.09,0,0,0,.54.14,1.15,1.15,0,0,0,.55-.14,1,1,0,0,0,.4-.41,1.41,1.41,0,0,0,.15-.69,1.45,1.45,0,0,0-.15-.68,1,1,0,0,0-.4-.41,1.15,1.15,0,0,0-.55-.14A1.09,1.09,0,0,0,149.36,91.53Z"/><path class="cls-2" d="M153.83,90.92a1.58,1.58,0,0,1,.81-.21v.84h-.23a1.28,1.28,0,0,0-.81.24,1,1,0,0,0-.31.81v1.88h-.76V90.77h.76v.73A1.58,1.58,0,0,1,153.83,90.92Z"/><path class="cls-2" d="M157.56,91a1.3,1.3,0,0,1,.5.66V89.5h.78v5h-.78v-.86a1.26,1.26,0,0,1-.5.66,1.43,1.43,0,0,1-.86.25,1.65,1.65,0,0,1-.86-.23,1.48,1.48,0,0,1-.6-.66,2.45,2.45,0,0,1,0-2,1.6,1.6,0,0,1,.6-.66,1.64,1.64,0,0,1,.86-.22A1.5,1.5,0,0,1,157.56,91Zm-1.44.76a1.45,1.45,0,0,0,0,1.79,1,1,0,0,0,.82.33,1.17,1.17,0,0,0,.58-.15,1,1,0,0,0,.4-.43,1.33,1.33,0,0,0,.15-.65,1.34,1.34,0,0,0-.15-.64,1.11,1.11,0,0,0-.4-.43,1.17,1.17,0,0,0-.58-.15A1,1,0,0,0,156.12,91.73Z"/><path class="cls-2" d="M163.18,92.78h-2.86a1.2,1.2,0,0,0,.32.85,1.16,1.16,0,0,0,1.38.08.79.79,0,0,0,.33-.52h.82a1.55,1.55,0,0,1-.31.69,1.61,1.61,0,0,1-.61.48,2.07,2.07,0,0,1-.84.17,2,2,0,0,1-1-.23,1.65,1.65,0,0,1-.65-.66,2.35,2.35,0,0,1,0-2,1.79,1.79,0,0,1,.65-.66,2,2,0,0,1,1-.22,1.93,1.93,0,0,1,1,.22,1.63,1.63,0,0,1,.63.62,1.85,1.85,0,0,1,.22.88A1.55,1.55,0,0,1,163.18,92.78Zm-.87-1a.94.94,0,0,0-.38-.36,1.14,1.14,0,0,0-.52-.12,1.12,1.12,0,0,0-.76.27,1.17,1.17,0,0,0-.33.82h2.11A1.15,1.15,0,0,0,162.31,91.82Z"/><path class="cls-2" d="M165.25,90.92a1.53,1.53,0,0,1,.81-.21v.84h-.23a1.26,1.26,0,0,0-.81.24,1,1,0,0,0-.31.81v1.88H164V90.77h.76v.73A1.58,1.58,0,0,1,165.25,90.92Z"/><path class="cls-2" d="M168.9,91.06a1.42,1.42,0,0,1,.48.89h-.73a.81.81,0,0,0-.26-.49.84.84,0,0,0-.56-.18.64.64,0,0,0-.45.14.47.47,0,0,0-.16.37.35.35,0,0,0,.12.28.82.82,0,0,0,.29.17,4.43,4.43,0,0,0,.48.14,4.19,4.19,0,0,1,.68.19,1.07,1.07,0,0,1,.44.32.86.86,0,0,1,.19.6.93.93,0,0,1-.35.75,1.5,1.5,0,0,1-1,.29,1.86,1.86,0,0,1-1.12-.32,1.37,1.37,0,0,1-.51-.91h.74a.78.78,0,0,0,.27.5,1,1,0,0,0,.62.18.61.61,0,0,0,.44-.14.51.51,0,0,0,.16-.37.39.39,0,0,0-.13-.31,1.09,1.09,0,0,0-.3-.18l-.5-.13a4,4,0,0,1-.65-.19.94.94,0,0,1-.43-.3.87.87,0,0,1-.18-.58,1,1,0,0,1,.35-.76,1.47,1.47,0,0,1,1-.29A1.57,1.57,0,0,1,168.9,91.06Z"/><path class="cls-2" d="M174.11,91a1.38,1.38,0,0,1,.51.66v-.86h.76v3.71h-.76v-.86a1.34,1.34,0,0,1-.51.66,1.43,1.43,0,0,1-.86.25,1.65,1.65,0,0,1-.86-.23,1.48,1.48,0,0,1-.6-.66,2.45,2.45,0,0,1,0-2,1.6,1.6,0,0,1,.6-.66,1.64,1.64,0,0,1,.86-.22A1.5,1.5,0,0,1,174.11,91Zm-1.44.76a1.45,1.45,0,0,0,0,1.79,1.06,1.06,0,0,0,.82.33,1.17,1.17,0,0,0,.58-.15,1,1,0,0,0,.4-.43,1.33,1.33,0,0,0,.15-.65,1.34,1.34,0,0,0-.15-.64,1.11,1.11,0,0,0-.4-.43,1.17,1.17,0,0,0-.58-.15A1.06,1.06,0,0,0,172.67,91.73Z"/><path class="cls-2" d="M179.42,91.13a1.69,1.69,0,0,1,.39,1.19v2.16H179V92.4a1.08,1.08,0,0,0-.25-.77.94.94,0,0,0-.7-.27,1,1,0,0,0-.74.29,1.23,1.23,0,0,0-.27.86v2h-.77V90.77h.77v.82a1.2,1.2,0,0,1,.49-.65,1.5,1.5,0,0,1,.81-.23A1.36,1.36,0,0,1,179.42,91.13Z"/><path class="cls-2" d="M183.05,91a1.3,1.3,0,0,1,.5.66V89.5h.78v5h-.78v-.86a1.26,1.26,0,0,1-.5.66,1.41,1.41,0,0,1-.86.25,1.65,1.65,0,0,1-.86-.23,1.54,1.54,0,0,1-.6-.66,2.56,2.56,0,0,1,0-2,1.67,1.67,0,0,1,.6-.66,1.64,1.64,0,0,1,.86-.22A1.48,1.48,0,0,1,183.05,91Zm-1.44.76a1.45,1.45,0,0,0,0,1.79,1.06,1.06,0,0,0,.82.33,1.14,1.14,0,0,0,.58-.15,1,1,0,0,0,.4-.43,1.33,1.33,0,0,0,.15-.65,1.34,1.34,0,0,0-.15-.64,1.11,1.11,0,0,0-.4-.43,1.14,1.14,0,0,0-.58-.15A1.06,1.06,0,0,0,181.61,91.73Z"/><path class="cls-2" d="M189.66,93.45h-2l-.36,1h-.82l1.75-4.68h.88l1.74,4.68H190Zm-.22-.59-.78-2.22-.79,2.22Z"/><path class="cls-2" d="M194.84,90.77v3.71h-.78v-.81a1.17,1.17,0,0,1-.49.64,1.45,1.45,0,0,1-.81.23,1.36,1.36,0,0,1-1-.42,1.69,1.69,0,0,1-.39-1.19V90.77h.77v2.08a1.08,1.08,0,0,0,.25.77.9.9,0,0,0,.7.28,1,1,0,0,0,.74-.3,1.23,1.23,0,0,0,.27-.86v-2Z"/><path class="cls-2" d="M197.62,93.82v.66h-.47a1,1,0,0,1-1.2-1.24V91.43h-.53v-.66H196v-.92h.77v.92h.9v.66h-.9v1.83a.64.64,0,0,0,.12.44.57.57,0,0,0,.41.12Z"/><path class="cls-2" d="M198.37,89.37a.56.56,0,0,1,.72,0,.45.45,0,0,1,.14.33.4.4,0,0,1-.14.31.6.6,0,0,1-.72,0,.39.39,0,0,1-.13-.31A.44.44,0,0,1,198.37,89.37Zm.74,1.4v3.71h-.77V90.77Z"/><path class="cls-2" d="M202.31,91.06a1.42,1.42,0,0,1,.48.89h-.73a.81.81,0,0,0-.26-.49.84.84,0,0,0-.56-.18.64.64,0,0,0-.45.14.47.47,0,0,0-.16.37.35.35,0,0,0,.12.28.74.74,0,0,0,.29.17,4.43,4.43,0,0,0,.48.14,4.19,4.19,0,0,1,.68.19,1.07,1.07,0,0,1,.44.32.86.86,0,0,1,.19.6.93.93,0,0,1-.35.75,1.5,1.5,0,0,1-1,.29,1.86,1.86,0,0,1-1.12-.32,1.37,1.37,0,0,1-.51-.91h.74a.78.78,0,0,0,.27.5,1,1,0,0,0,.62.18.61.61,0,0,0,.44-.14.51.51,0,0,0,.16-.37.39.39,0,0,0-.13-.31,1.09,1.09,0,0,0-.3-.18l-.5-.13a4,4,0,0,1-.65-.19.94.94,0,0,1-.43-.3.87.87,0,0,1-.18-.58.92.92,0,0,1,.35-.76,1.47,1.47,0,0,1,1-.29A1.57,1.57,0,0,1,202.31,91.06Z"/><path class="cls-2" d="M209.29,91.13a1.69,1.69,0,0,1,.39,1.19v2.16h-.76V92.4a1.09,1.09,0,0,0-.25-.75.83.83,0,0,0-.66-.26.94.94,0,0,0-.72.28,1.18,1.18,0,0,0-.27.84v2h-.76V92.4a1,1,0,0,0-.25-.75.83.83,0,0,0-.66-.26.94.94,0,0,0-.72.28,1.18,1.18,0,0,0-.27.84v2h-.76V90.77h.76v.78a1.21,1.21,0,0,1,.48-.62,1.32,1.32,0,0,1,.77-.22,1.4,1.4,0,0,1,.8.23,1.25,1.25,0,0,1,.5.66,1.34,1.34,0,0,1,.52-.65,1.43,1.43,0,0,1,.81-.24A1.36,1.36,0,0,1,209.29,91.13Z"/></g></svg>