<svg xmlns="http://www.w3.org/2000/svg" viewBox="0 0 47.71 55.66"><defs><style>.cls-1{fill:#414142;}</style></defs><title>Logo-EY</title><g id="Layer_2" data-name="Layer 2"><g id="NSD_-_Product_-_iSocial" data-name="NSD - Product - iSocial"><polygon class="cls-1" points="38.3 0 0 13.77 38.3 7.11 38.3 0"/><polygon class="cls-1" points="6.14 31.21 13.13 31.21 13.13 27.15 6.14 27.15 6.14 23.96 13.87 23.96 11.31 19.51 0.34 19.51 0.34 38.84 15.8 38.84 15.8 34.4 6.14 34.4 6.14 31.21"/><polygon class="cls-1" points="26.1 19.51 22.82 25.82 19.54 19.51 13.13 19.51 19.88 31.21 19.88 38.84 25.66 38.84 25.66 31.21 32.43 19.51 26.1 19.51"/><path class="cls-1" d="M4,46.76a1.11,1.11,0,0,0-.7-1,1.07,1.07,0,0,0,.54-.93c0-.78-.54-1.23-1.46-1.23h-2v4.71h2A1.45,1.45,0,0,0,4,46.76m-1.64.7H1.21V46.12H2.33c.47,0,.71.23.71.67a.63.63,0,0,1-.71.67m0-2.1H1.21v-1H2.27c.42,0,.62.17.62.51s-.09.5-.57.5"/><path class="cls-1" d="M5.86,48.33A1,1,0,0,0,6.69,48v.28h.85V44.82H6.69v1.9c0,.55-.22.83-.64.83s-.63-.26-.63-.83v-1.9H4.57v1.94c0,.59.17,1.57,1.29,1.57"/><path class="cls-1" d="M17.52,46.36c0-.55.22-.83.65-.83s.62.26.62.84v1.89h.85V46.32c0-1-.44-1.57-1.26-1.57a1.14,1.14,0,0,0-.86.36v-.29h-.85v3.44h.85Z"/><polygon class="cls-1" points="9.15 44.82 8.75 44.82 8.3 44.82 8.3 44.97 8.3 45.27 8.3 45.58 8.3 45.94 8.3 46.28 8.3 46.54 8.3 46.75 8.3 48.26 8.67 48.26 9.15 48.26 9.15 46.64 9.15 44.82"/><polygon class="cls-1" points="9.9 48.26 10.75 48.26 10.75 43.39 9.9 43.82 9.9 48.26"/><path class="cls-1" d="M32,44.75a1.15,1.15,0,0,0-.76.32V43.48l-.85.42v4.36h.85V48a1.05,1.05,0,0,0,.78.33c.84,0,1.33-.66,1.33-1.82S32.8,44.75,32,44.75m-.16.78c.31,0,.64.25.64,1s-.2,1.06-.62,1.06a.82.82,0,0,1-.62-.32V45.88a.7.7,0,0,1,.6-.35"/><path class="cls-1" d="M22.32,45.06a1.07,1.07,0,0,0-.76-.31c-.83,0-1.35.67-1.35,1.75s.5,1.83,1.33,1.83a1.07,1.07,0,0,0,.78-.33v.08c0,.38,0,.89-1.1.91h0l.3.67h0a1.51,1.51,0,0,0,1.67-1.72V44.82h-.85Zm0,.8v1.35a.7.7,0,0,1-.6.34c-.3,0-.64-.19-.64-1.07s.34-1,.63-1a.72.72,0,0,1,.61.34"/><path class="cls-1" d="M13.45,45.06a1,1,0,0,0-.76-.31c-.83,0-1.35.67-1.35,1.76s.5,1.82,1.33,1.82a1,1,0,0,0,.78-.33v.26h.85V43.39l-.85.43Zm-.59,2.49c-.3,0-.65-.18-.65-1.06s.34-1,.64-1a.73.73,0,0,1,.6.33v1.35a.68.68,0,0,1-.59.34"/><path class="cls-1" d="M25.81,45.67a1.58,1.58,0,0,1,.87-.24c.41,0,.62.17.62.49v.23a1.9,1.9,0,0,0-.73-.16c-.63,0-1.37.3-1.37,1.13a1.17,1.17,0,0,0,1.27,1.21A1.15,1.15,0,0,0,27.3,48v.28h.85V45.94c0-.75-.52-1.19-1.39-1.19a2.51,2.51,0,0,0-1.29.33Zm.24,1.45c0-.31.22-.49.58-.49a1.26,1.26,0,0,1,.67.17v.47a.8.8,0,0,1-.67.36c-.36,0-.58-.19-.58-.51"/><path class="cls-1" d="M36.05,47.26a1,1,0,0,1-.68.29.72.72,0,0,1-.76-.75h2.1a2.09,2.09,0,0,0,0-.26c0-1.09-.56-1.79-1.44-1.79a1.62,1.62,0,0,0-1.54,1.79,1.61,1.61,0,0,0,1.63,1.79,1.57,1.57,0,0,0,1.21-.54Zm-1.43-1.08a.67.67,0,0,1,.64-.71c.44,0,.62.36.64.71Z"/><path class="cls-1" d="M44.24,47.26a1,1,0,0,1-.68.29.72.72,0,0,1-.76-.75h2.11c0-.07,0-.17,0-.26,0-1.09-.57-1.79-1.45-1.79a1.62,1.62,0,0,0-1.54,1.79,1.61,1.61,0,0,0,1.63,1.79,1.58,1.58,0,0,0,1.21-.54Zm-1.43-1.08a.67.67,0,0,1,.64-.71.66.66,0,0,1,.65.71Z"/><path class="cls-1" d="M40.76,45.62h.78v-.8h-.78v-1.3l-.85.42v.88h-.52v.8h.52v1.66a.94.94,0,0,0,.92,1,1.43,1.43,0,0,0,.71-.16l.1-.8a1,1,0,0,1-.51.16c-.25,0-.37-.16-.37-.46Z"/><path class="cls-1" d="M39.22,47.37a1.09,1.09,0,0,1-.52.16c-.25,0-.37-.16-.37-.46V45.62h.73v-.8h-.73v-1.3l-.84.42v.88H37v.8h.53v1.66a.94.94,0,0,0,.91,1,1.5,1.5,0,0,0,.72-.16Z"/><path class="cls-1" d="M47.71,45a1.07,1.07,0,0,0-.64-.21.91.91,0,0,0-.76.37v-.3h-.85v3.44h.85V46.4c0-.55.2-.8.61-.8a1.07,1.07,0,0,1,.57.18Z"/><polygon class="cls-1" points="9.15 43.48 8.72 43.48 8.3 43.48 8.3 43.63 8.3 43.88 8.3 44.05 8.3 44.33 8.67 44.33 9.15 44.33 9.15 43.96 9.15 43.48"/><polygon class="cls-1" points="15.06 48.26 15.53 48.26 15.91 48.26 15.91 46.55 15.91 44.82 15.51 44.82 15.06 44.82 15.06 45.16 15.06 45.58 15.06 45.91 15.06 46.29 15.06 46.59 15.06 46.99 15.06 48.26"/><polygon class="cls-1" points="15.91 43.48 15.53 43.48 15.06 43.48 15.06 43.68 15.06 43.96 15.06 44.14 15.06 44.33 15.48 44.33 15.91 44.33 15.91 43.93 15.91 43.48"/><path class="cls-1" d="M39.23,51.07a1,1,0,0,0-.76-.32c-.84,0-1.35.68-1.35,1.76s.5,1.83,1.33,1.83a1.09,1.09,0,0,0,.78-.34v.26h.85V49.4l-.85.42Zm-.6,2.48c-.3,0-.65-.18-.65-1.06s.35-1,.64-1a.72.72,0,0,1,.61.34v1.35a.71.71,0,0,1-.6.33"/><path class="cls-1" d="M10.61,51a1.07,1.07,0,0,0-.64-.21.94.94,0,0,0-.76.37v-.29H8.36v3.43h.85V52.4c0-.54.2-.8.61-.8a1,1,0,0,1,.57.19Z"/><path class="cls-1" d="M3.4,52.09c-.08.32-.15.65-.19.87,0-.27-.14-.64-.2-.87l-.36-1.26H1.93l-.36,1.26c-.06.24-.16.61-.2.86-.05-.26-.13-.64-.18-.84L.88,50.83H0l1,3.41v0h.74l.37-1.4c.07-.21.16-.63.2-.77,0,.19.12.49.18.75l.38,1.42h.73l1-3.43H3.71Z"/><path class="cls-1" d="M6.28,50.75a1.81,1.81,0,0,0,0,3.59,1.81,1.81,0,0,0,0-3.59m0,2.79c-.43,0-.7-.39-.7-1s.27-1,.7-1,.69.39.69,1-.27,1-.69,1"/><path class="cls-1" d="M35.27,51a1.07,1.07,0,0,0-.64-.21,1,1,0,0,0-.76.37v-.29H33v3.43h.85V52.4c0-.54.2-.8.62-.8a1,1,0,0,1,.56.19Z"/><path class="cls-1" d="M28.06,52.09c-.08.32-.15.65-.19.87-.05-.27-.14-.64-.2-.87l-.36-1.26h-.72l-.36,1.26c-.06.24-.15.61-.2.86-.05-.26-.13-.64-.18-.84l-.31-1.28h-.88l1,3.41v0h.74l.38-1.4c.06-.21.15-.63.19-.77,0,.19.12.49.18.75l.39,1.42h.73l1-3.43h-.84Z"/><path class="cls-1" d="M30.93,50.75a1.81,1.81,0,1,0,1.56,1.8,1.64,1.64,0,0,0-1.56-1.8m0,2.79c-.42,0-.7-.39-.7-1s.28-1,.7-1,.7.39.7,1-.28,1-.7,1"/><path class="cls-1" d="M13.83,50.83h-1l-.68.88c-.09.11-.21.28-.32.43V49.4l-.84.43v4.43h.84v-1l.45-.56L13,54.26H14l-1-2.3Z"/><path class="cls-1" d="M17,52.36c0-.54.22-.83.65-.83s.62.27.62.84v1.89h.85V52.32c0-1-.44-1.57-1.26-1.57a1.1,1.1,0,0,0-.86.37v-.29H16.1v3.43H17Z"/><path class="cls-1" d="M21.75,51.07a1.07,1.07,0,0,0-.76-.32c-.84,0-1.35.67-1.35,1.76s.49,1.82,1.33,1.82a1.07,1.07,0,0,0,.78-.33v.08c0,.38,0,.89-1.1.91h0l.3.66h0a1.51,1.51,0,0,0,1.67-1.72V50.83h-.85Zm0,.79v1.35a.72.72,0,0,1-.6.34c-.3,0-.65-.18-.65-1.06s.35-1,.64-1a.73.73,0,0,1,.61.33"/><polygon class="cls-1" points="14.49 54.26 14.94 54.26 15.34 54.26 15.34 52.5 15.34 50.83 15.01 50.83 14.49 50.83 14.49 51.13 14.49 51.33 14.49 51.79 14.49 52.16 14.49 52.53 14.49 52.88 14.49 54.26"/><polygon class="cls-1" points="15.34 49.49 14.88 49.49 14.49 49.49 14.49 49.77 14.49 50.01 14.49 50.15 14.49 50.33 14.94 50.33 15.34 50.33 15.34 50.01 15.34 49.49"/><polygon class="cls-1" points="35.67 54.26 36.52 54.26 36.52 49.4 35.67 49.83 35.67 54.26"/></g></g></svg>