<svg xmlns="http://www.w3.org/2000/svg" viewBox="0 0 50.82 22.4"><defs><style>.cls-1{fill:#414142;fill-rule:evenodd;}</style></defs><title>Logo-SAP</title><g id="Layer_2" data-name="Layer 2"><g id="NSD_-_Product_-_iSocial" data-name="NSD - Product - iSocial"><path class="cls-1" d="M41,.37h-7V16.94L28,.37h-6l-5.2,13.86c-.56-3.5-4.17-4.7-7-5.61C7.85,8,5.85,7.13,5.87,6.15c0-.8,1.07-1.55,3.16-1.44a11.33,11.33,0,0,1,5.1,1.38l2.42-4.22A18.85,18.85,0,0,0,8.66,0h0a9.55,9.55,0,0,0-7,2.55A5.88,5.88,0,0,0,0,6.61a5.46,5.46,0,0,0,2.4,4.87,16.37,16.37,0,0,0,4.74,2.17c1.93.6,3.51,1.11,3.49,2.23A1.65,1.65,0,0,1,10.17,17a3.09,3.09,0,0,1-2.24.7A9.67,9.67,0,0,1,2.15,16L0,20.3a16.14,16.14,0,0,0,7.89,2.1h.36a9.5,9.5,0,0,0,6-2l.26-.22L13.81,22h6.33L21.2,18.8a11.56,11.56,0,0,0,3.72.59,11.67,11.67,0,0,0,3.64-.56l1,3.2H39.91V15.34h2.25c5.44,0,8.66-2.77,8.66-7.42C50.82,2.75,47.7.37,41,.37M24.92,14.55a6.32,6.32,0,0,1-2.23-.39l2.21-7h0l2.17,7a6.57,6.57,0,0,1-2.19.37m16.52-4H39.91V4.93h1.53c2.05,0,3.68.68,3.68,2.77s-1.63,2.85-3.68,2.85"/></g></g></svg>