<svg xmlns="http://www.w3.org/2000/svg" viewBox="0 0 256.77 62"><defs><style>.cls-1{fill:#e76c55;}.cls-2{fill:#f6d092;}.cls-3{fill:#4b8084;}.cls-4{fill:#df4545;}.cls-5{fill:#fff;}</style></defs><title>LOGO - NSD Small</title><g id="NSD"><path class="cls-1" d="M40.62,32.82a4.5,4.5,0,0,1,.6-.72,2,2,0,0,0,0-2.82,2,2,0,0,0-2.82,0,5.1,5.1,0,0,1-.73.59h0a4.64,4.64,0,0,1-5.84-.59h0a4.65,4.65,0,0,1,0-6.57,2,2,0,0,0,0-2.82,2.43,2.43,0,0,0-.25-.2,17.07,17.07,0,0,0-3.42,11.74,4.91,4.91,0,0,1,.85.67,4.63,4.63,0,0,1,.82,5.4,17.22,17.22,0,0,0,2.41,3.65,4,4,0,0,1,.32-.26h0a4.67,4.67,0,0,1,5.11,0h0a4.56,4.56,0,0,1,.73.6,2,2,0,0,0,2.82-2.82,4.56,4.56,0,0,1-.6-.73h0a4.67,4.67,0,0,1,0-5.11Z"/><path class="cls-2" d="M55.3,34a2,2,0,0,0-2.82,0,4.65,4.65,0,0,1-6.57,0,2,2,0,0,0-2.82,0,2,2,0,0,0,0,2.82,4.56,4.56,0,0,1,.6.73h0a4.67,4.67,0,0,1,0,5.11h0a4.16,4.16,0,0,1-.6.73h0a4.65,4.65,0,0,1-6.57,0,2,2,0,0,0-2.37-.31A17,17,0,0,0,45.2,47.1a4.81,4.81,0,0,1,.71-.92,4.65,4.65,0,0,1,6-.48,17.25,17.25,0,0,0,3.58-2.09,2.43,2.43,0,0,0-.2-.25,4.65,4.65,0,0,1,0-6.57A2,2,0,0,0,55.3,34Z"/><path class="cls-3" d="M62.24,30.52A4.64,4.64,0,0,1,60,22.71a1.88,1.88,0,0,0,.37-.53,17.13,17.13,0,0,0-1.85-2.85,2,2,0,0,0-1.33.56,4.65,4.65,0,0,1-6.57,0,2,2,0,0,0-2.82,0,2,2,0,0,0,0,2.82A4.6,4.6,0,0,1,49.15,26a4.65,4.65,0,0,1-1.36,3.29,2,2,0,0,0,0,2.82,2,2,0,0,0,2.82,0,4.65,4.65,0,0,1,6.57,0,5,5,0,0,1,.59.72h0a4.62,4.62,0,0,1,0,5.11h0a5.1,5.1,0,0,1-.59.73,2,2,0,0,0,.37,3.1A17,17,0,0,0,62.24,30.52Z"/><path class="cls-4" d="M44.33,13a4.65,4.65,0,0,1-4.52,3.59,4.65,4.65,0,0,1-3.22-1.3,17.52,17.52,0,0,0-3.17,2.38,1.69,1.69,0,0,0,.29.37,5.1,5.1,0,0,1,.59.73h0a4.61,4.61,0,0,1,0,5.1h0a5.1,5.1,0,0,1-.59.73,1.94,1.94,0,0,0-.59,1.4,2,2,0,0,0,.58,1.41,2.33,2.33,0,0,0,.36.28,2,2,0,0,0,2.46-.28,4.65,4.65,0,0,1,6.57,0,2,2,0,0,0,2.82,0,2,2,0,0,0,0-2.81A4.65,4.65,0,1,1,52.48,18a2,2,0,0,0,2.82,0,2,2,0,0,0,.57-1.31A17,17,0,0,0,44.33,13Z"/><path class="cls-5" d="M80.85,21.9c.16,0,.24.09.24.28v13.5a.27.27,0,0,1-.1.22.37.37,0,0,1-.26.08H78.82a.91.91,0,0,1-.27,0,.68.68,0,0,1-.21-.19l-6-8.51c-.05-.06-.1-.09-.15-.08a.12.12,0,0,0-.06.12V35.7a.27.27,0,0,1-.09.22.52.52,0,0,1-.29.06h-2c-.25,0-.38-.1-.38-.32V22.26a.32.32,0,0,1,.35-.36H72a.82.82,0,0,1,.32,0,.88.88,0,0,1,.23.24l5.58,8c.08.1.14.15.19.15s.1-.07.1-.21V22.24a.3.3,0,0,1,.34-.34Z"/><path class="cls-5" d="M82.67,35.66a.47.47,0,0,1,0-.23l4.73-13.15a.7.7,0,0,1,.18-.3.52.52,0,0,1,.31-.08h2.85a.61.61,0,0,1,.36.11.63.63,0,0,1,.21.3L96,35.47a.75.75,0,0,1,0,.17.46.46,0,0,1-.06.25.24.24,0,0,1-.2.09H93a.34.34,0,0,1-.36-.26l-1-2.77a.45.45,0,0,0-.09-.17.22.22,0,0,0-.16,0H86.79a.24.24,0,0,0-.25.19l-1,2.81a.41.41,0,0,1-.4.24H83C82.77,36,82.67,35.88,82.67,35.66Zm8-5.45c.13,0,.19-.05.19-.15a.39.39,0,0,0,0-.17l-1.59-4.44c0-.08-.08-.12-.13-.12s-.08.05-.12.14l-1.61,4.42a.49.49,0,0,0,0,.17q0,.15.21.15Z"/><path class="cls-5" d="M104.83,24.36a3.71,3.71,0,0,0-1.66-.32,3.07,3.07,0,0,0-1.76.42,1.28,1.28,0,0,0-.61,1.1c0,.66.51,1.14,1.54,1.44l3,.86a4.7,4.7,0,0,1,2.51,1.5,3.8,3.8,0,0,1,.83,2.47,4,4,0,0,1-.68,2.3,4.4,4.4,0,0,1-2,1.51,7.71,7.71,0,0,1-3,.53,8.86,8.86,0,0,1-3.49-.65,4.8,4.8,0,0,1-2.28-1.8.49.49,0,0,1-.08-.24.52.52,0,0,1,.19-.33l1.47-1a.62.62,0,0,1,.34-.11.33.33,0,0,1,.28.15,4.78,4.78,0,0,0,1.43,1.29,4.15,4.15,0,0,0,1.91.38,4.24,4.24,0,0,0,2-.4,1.3,1.3,0,0,0,.72-1.2,1.19,1.19,0,0,0-.36-.87,3,3,0,0,0-1.22-.63L101.07,30a5,5,0,0,1-2.53-1.53A3.75,3.75,0,0,1,97.65,26a3.7,3.7,0,0,1,.67-2.18,4.52,4.52,0,0,1,1.91-1.53,6.71,6.71,0,0,1,2.85-.56,7.67,7.67,0,0,1,2.92.54,4.7,4.7,0,0,1,2,1.45.45.45,0,0,1,.12.27.26.26,0,0,1-.12.2l-1.59,1.18a.4.4,0,0,1-.17.08c-.07,0-.17-.07-.31-.21A3.47,3.47,0,0,0,104.83,24.36Z"/><path class="cls-5" d="M118.93,22.26a5.52,5.52,0,0,1,2,1.5,4.47,4.47,0,0,1,1,2.12,1,1,0,0,1,0,.31.18.18,0,0,1-.06.15.47.47,0,0,1-.17.06l-2.56.17c-.12,0-.19,0-.22-.06a.67.67,0,0,1-.09-.23,3.09,3.09,0,0,0-.83-1.65,2.33,2.33,0,0,0-1.67-.61q-3,0-3,4.86a6.89,6.89,0,0,0,.76,3.69,2.59,2.59,0,0,0,2.32,1.15,3.17,3.17,0,0,0,1.92-.57,3.84,3.84,0,0,0,1.28-1.86.25.25,0,0,1,.25-.13l.17,0,1.86.4c.18.06.25.22.21.47a5,5,0,0,1-.88,1.77,6,6,0,0,1-5,2.35,6.14,6.14,0,0,1-3.4-.92,6,6,0,0,1-2.24-2.58,9.11,9.11,0,0,1-.77-3.84,8.7,8.7,0,0,1,.77-3.78,5.69,5.69,0,0,1,2.24-2.48,6.56,6.56,0,0,1,3.4-.86A6.33,6.33,0,0,1,118.93,22.26Z"/><path class="cls-5" d="M124.42,21.9H134c.19,0,.29.11.29.32l0,1.71a.35.35,0,0,1-.4.4h-6c-.25,0-.37.1-.37.3v2.75c0,.22.1.33.29.33h4q.33,0,.33.3v1.82c0,.18-.1.27-.31.27H127.7c-.18,0-.27.07-.27.23v3a.31.31,0,0,0,0,.19.23.23,0,0,0,.16,0h6.5c.22,0,.34.1.34.29v1.8c0,.23-.13.34-.38.34h-9.57a.45.45,0,0,1-.32-.09.39.39,0,0,1-.1-.3V22.26C124.11,22,124.21,21.9,124.42,21.9Z"/><path class="cls-5" d="M148,21.9c.17,0,.25.09.25.28v13.5a.28.28,0,0,1-.11.22.34.34,0,0,1-.25.08H146a.88.88,0,0,1-.26,0,.52.52,0,0,1-.21-.19l-6.06-8.51c-.05-.06-.1-.09-.14-.08a.11.11,0,0,0-.07.12V35.7a.29.29,0,0,1-.08.22.56.56,0,0,1-.3.06h-2c-.26,0-.38-.1-.38-.32V22.26c0-.24.11-.36.34-.36h2.3a.82.82,0,0,1,.32,0,1.07,1.07,0,0,1,.23.24l5.58,8c.08.1.14.15.19.15s.09-.07.09-.21V22.24a.31.31,0,0,1,.35-.34Z"/><path class="cls-5" d="M149.86,22.24A.33.33,0,0,1,150,22a.4.4,0,0,1,.27-.09h10.9c.25,0,.38.11.38.34V24c0,.19-.11.29-.34.29h-3.55c-.14,0-.21.06-.21.19V35.62c0,.24-.11.36-.32.36h-2.72c-.19,0-.28-.1-.28-.32V24.54a.29.29,0,0,0-.05-.19.18.18,0,0,0-.16-.06h-3.66c-.24,0-.36-.1-.36-.29Z"/><path class="cls-5" d="M174.35,24.36a3.71,3.71,0,0,0-1.66-.32,3.07,3.07,0,0,0-1.76.42,1.28,1.28,0,0,0-.61,1.1c0,.66.51,1.14,1.54,1.44l3,.86a4.7,4.7,0,0,1,2.51,1.5,3.8,3.8,0,0,1,.83,2.47,3.89,3.89,0,0,1-.69,2.3,4.32,4.32,0,0,1-2,1.51,7.71,7.71,0,0,1-3,.53,8.86,8.86,0,0,1-3.49-.65,4.8,4.8,0,0,1-2.28-1.8.49.49,0,0,1-.08-.24.52.52,0,0,1,.19-.33l1.47-1a.62.62,0,0,1,.34-.11.33.33,0,0,1,.28.15,4.78,4.78,0,0,0,1.43,1.29,4.15,4.15,0,0,0,1.91.38,4.24,4.24,0,0,0,2-.4,1.3,1.3,0,0,0,.72-1.2,1.19,1.19,0,0,0-.36-.87,3,3,0,0,0-1.22-.63L170.59,30a5,5,0,0,1-2.53-1.53,3.75,3.75,0,0,1-.89-2.44,3.7,3.7,0,0,1,.67-2.18,4.52,4.52,0,0,1,1.91-1.53,6.71,6.71,0,0,1,2.85-.56,7.67,7.67,0,0,1,2.92.54,4.7,4.7,0,0,1,2,1.45.45.45,0,0,1,.12.27.26.26,0,0,1-.12.2L176,25.35a.4.4,0,0,1-.17.08c-.07,0-.17-.07-.31-.21A3.47,3.47,0,0,0,174.35,24.36Z"/><path class="cls-5" d="M179.17,22.24a.33.33,0,0,1,.1-.25.41.41,0,0,1,.28-.09h10.89c.26,0,.38.11.38.34V24c0,.19-.11.29-.34.29h-3.55c-.14,0-.21.06-.21.19V35.62c0,.24-.11.36-.32.36h-2.72c-.19,0-.28-.1-.28-.32V24.54a.29.29,0,0,0-.05-.19.18.18,0,0,0-.16-.06h-3.66c-.24,0-.36-.1-.36-.29Z"/><path class="cls-5" d="M189.91,35.66a.47.47,0,0,1,0-.23l4.73-13.15a.7.7,0,0,1,.18-.3.52.52,0,0,1,.31-.08H198a.61.61,0,0,1,.36.11.63.63,0,0,1,.21.3l4.69,13.16a.75.75,0,0,1,0,.17.46.46,0,0,1-.06.25.24.24,0,0,1-.2.09h-2.79a.34.34,0,0,1-.36-.26l-1-2.77a.45.45,0,0,0-.09-.17.22.22,0,0,0-.16,0H194a.24.24,0,0,0-.25.19l-1,2.81a.41.41,0,0,1-.4.24H190.2C190,36,189.91,35.88,189.91,35.66Zm8-5.45c.13,0,.19-.05.19-.15a.39.39,0,0,0,0-.17l-1.59-4.44c0-.08-.08-.12-.13-.12s-.08.05-.12.14l-1.61,4.42a.49.49,0,0,0,0,.17q0,.15.21.15Z"/><path class="cls-5" d="M206.84,35.28a5.84,5.84,0,0,1-2.22-2.51,8.78,8.78,0,0,1-.77-3.77,8.67,8.67,0,0,1,.81-3.86A6,6,0,0,1,207,22.6a6.55,6.55,0,0,1,3.42-.89,6.31,6.31,0,0,1,2.7.57,5.64,5.64,0,0,1,2,1.49,4.17,4.17,0,0,1,.95,2,.81.81,0,0,1,0,.29c0,.14-.08.21-.24.22l-2.51.38a.29.29,0,0,1-.21-.06.55.55,0,0,1-.09-.24,2.9,2.9,0,0,0-.9-1.63A2.57,2.57,0,0,0,210.3,24a2.5,2.5,0,0,0-2.22,1.16,6.85,6.85,0,0,0-.76,3.68,6.91,6.91,0,0,0,.8,3.8,2.91,2.91,0,0,0,4.12.54,2.92,2.92,0,0,0,.89-1.55l0-.55a.27.27,0,0,0,0-.11c0-.11-.07-.17-.21-.17h-2.3a.32.32,0,0,1-.23-.08.33.33,0,0,1-.07-.24V29.09c0-.17.1-.26.3-.26l5.07,0a.63.63,0,0,1,.41.12.42.42,0,0,1,.14.33v6.4a.29.29,0,0,1-.08.21A.28.28,0,0,1,216,36h-.6a.55.55,0,0,1-.5-.3l-.55-1.37c0-.09-.1-.08-.19,0a5.31,5.31,0,0,1-1.58,1.33,5,5,0,0,1-2.4.51A6.14,6.14,0,0,1,206.84,35.28Z"/><path class="cls-5" d="M218.54,21.9h9.57c.19,0,.28.11.28.32l0,1.71a.35.35,0,0,1-.4.4h-6.05q-.36,0-.36.3v2.75c0,.22.09.33.28.33h4c.21,0,.32.1.32.3v1.82q0,.27-.3.27h-4.07c-.17,0-.26.07-.26.23v3a.26.26,0,0,0,.05.19.22.22,0,0,0,.16,0h6.49c.23,0,.34.1.34.29v1.8c0,.23-.13.34-.38.34h-9.57a.45.45,0,0,1-.32-.09.43.43,0,0,1-.09-.3V22.26Q218.24,21.9,218.54,21.9Z"/><path class="cls-5" d="M233,22s0-.06.07-.06h2.13c.05,0,.07,0,.07.06v.35a.05.05,0,0,1-.06.06h-.7s0,0,0,0v2.18c0,.05,0,.07-.06.07h-.53s-.06,0-.06-.07V22.41s0,0,0,0H233c-.05,0-.07,0-.07-.06Zm2.65,2.67a.14.14,0,0,1,0-.06V22s0-.07.06-.07h.83a0,0,0,0,1,0,.05l.56,1.54c0,.05,0,.05.05,0l.54-1.51c0-.06,0-.09.08-.09h.8s.05,0,.05.06v2.6a.14.14,0,0,1,0,.07l-.07,0H238l-.06,0a.08.08,0,0,1,0-.06V22.73s0,0,0,0a0,0,0,0,0,0,0l-.65,1.86a.08.08,0,0,1-.08.06h-.3a.08.08,0,0,1-.09-.06l-.64-1.83s0,0,0,0,0,0,0,0v1.82a.06.06,0,0,1,0,.05s0,0,0,0h-.38Z"/></g></svg>