<svg xmlns="http://www.w3.org/2000/svg" xmlns:xlink="http://www.w3.org/1999/xlink" viewBox="0 0 377.64 132.33"><defs><style>.cls-1{fill:#414142;}.cls-2,.cls-3,.cls-4,.cls-5{opacity:0.85;}.cls-2{fill:url(#linear-gradient);}.cls-3{fill:#eb972a;}.cls-4{fill:url(#linear-gradient-2);}.cls-5{fill:url(#linear-gradient-3);}</style><linearGradient id="linear-gradient" x1="56.89" y1="44.11" x2="113.77" y2="44.11" gradientUnits="userSpaceOnUse"><stop offset="0" stop-color="#eb972a"/><stop offset="1" stop-color="#d4442a"/></linearGradient><linearGradient id="linear-gradient-2" x1="56.89" y1="88.22" x2="113.77" y2="88.22" xlink:href="#linear-gradient"/><linearGradient id="linear-gradient-3" y1="88.22" x2="56.89" y2="88.22" gradientUnits="userSpaceOnUse"><stop offset="0" stop-color="#eb972a"/><stop offset="1" stop-color="#eb972a"/></linearGradient></defs><title>LOGO-SandboxCo</title><g id="Layer_2" data-name="Layer 2"><g id="NSD_-_Partners" data-name="NSD - Partners"><path class="cls-1" d="M132.3,73.46v2c0,2,2.6,3.21,5.47,3.21,3.14,0,5.42-1.47,5.42-4.18,0-3.18-3.21-4.23-6.58-5.55-3.61-1.35-7.29-2.9-7.29-7.75,0-5.15,4.15-7.36,8.76-7.36,4.11,0,8.29,1.55,8.29,4.53V61.6h-3.6V59.7c0-1.59-2.44-2.44-4.69-2.44-2.68,0-4.81,1.24-4.81,3.76,0,2.91,2.75,3.88,5.82,5,4,1.51,8,3.06,8,8.14,0,5.23-4.26,7.94-9.34,7.94-4.27,0-9-1.9-9-5.81V73.46Z"/><path class="cls-1" d="M160.82,69.62h1.25v-.73c0-3.1-1.79-4.19-4.19-4.19a10.43,10.43,0,0,0-5.62,1.9l-1.51-2.67a12.59,12.59,0,0,1,7.44-2.33c5,0,7.63,2.6,7.63,7.56v8.76a.76.76,0,0,0,.86.85h2v2.91h-3.91c-1.75,0-2.44-.85-2.44-2.13v-.28a4.85,4.85,0,0,1,.15-1.27h-.08a7.12,7.12,0,0,1-6.47,4.14c-3.25,0-6.51-1.9-6.51-5.93C149.39,70.05,157.57,69.62,160.82,69.62Zm-4.1,9.62c3.33,0,5.38-3.41,5.38-6.36v-.81h-1c-1.78,0-7.94.07-7.94,3.83A3.31,3.31,0,0,0,156.72,79.24Z"/><path class="cls-1" d="M170.51,78.77h3.06V65.83a.76.76,0,0,0-.85-.86h-2.4v-2.9h4.42c1.7,0,2.48.73,2.48,2.17v1a5.38,5.38,0,0,1-.12,1.13h.08a8.23,8.23,0,0,1,7.63-4.77c4.5,0,6.51,2.52,6.51,7.52v9.65h3.1v2.91h-6.86V70c0-2.75-.54-4.92-3.68-4.92-3.95,0-6.55,3.61-6.55,7.52v6.2h3.1v2.91h-9.92Z"/><path class="cls-1" d="M204.92,61.6A6.63,6.63,0,0,1,211,64.9h.08a8.61,8.61,0,0,1-.12-1.48v-6.2h-3.26v-2.9h7v23.6a.76.76,0,0,0,.85.85h2v2.91H213.6c-1.74,0-2.44-.85-2.44-2.13v-.28a3.88,3.88,0,0,1,.12-1h-.08a7,7,0,0,1-6.63,3.91C199.3,82.14,196,78,196,71.87,196,65.63,199.65,61.6,204.92,61.6Zm.47,17.29c2.9,0,5.66-2.1,5.66-7,0-3.6-1.83-7-5.55-7-3.14,0-5.65,2.51-5.65,7C199.85,76.14,202.13,78.89,205.39,78.89Z"/><path class="cls-1" d="M221.08,57.22h-3.29v-2.9h7.05v9.06a10.7,10.7,0,0,1-.12,1.63h.08a7.07,7.07,0,0,1,6.32-3.41c5.31,0,8.64,4.19,8.64,10.27,0,6.24-3.76,10.27-8.95,10.27a6.84,6.84,0,0,1-6.2-3.56h-.08a10.08,10.08,0,0,1,.12,1.55v1.55h-3.57Zm9.22,21.67c3.07,0,5.62-2.52,5.62-7,0-4.26-2.28-7-5.54-7-2.9,0-5.66,2-5.66,7C224.72,75.44,226.54,78.89,230.3,78.89Z"/><path class="cls-1" d="M252.55,61.6A10.27,10.27,0,1,1,242,71.83C242,65.9,246.69,61.6,252.55,61.6Zm0,17.29a7,7,0,0,0,0-14,7,7,0,0,0,0,14Z"/><path class="cls-1" d="M264.67,78.77h2.95l4.69-7.21L268,65h-3.18v-2.9h5.5l3.49,5.69c.35.59.66,1.28.66,1.28h.08a13.64,13.64,0,0,1,.7-1.28l3.56-5.69H284V65h-3l-4.38,6.55,4.85,7.25h2.63v2.91h-5l-3.95-6.36a10.74,10.74,0,0,1-.7-1.24h-.08a10.46,10.46,0,0,1-.69,1.28l-3.88,6.32h-5.12Z"/><path class="cls-1" d="M300,67v-.08a6.08,6.08,0,0,1-3.8-6c0-4.53,3.76-7,8.76-7a17,17,0,0,1,3.41.43l-1,3.06a12.35,12.35,0,0,0-2.06-.23c-2.94,0-5.23,1.51-5.23,4.18,0,1.78.82,4.38,5.08,4.38H311v-3.8h3.76v3.8h3.61v3.18h-3.61v3.72c0,6.08-3.8,9.57-9.8,9.57s-9.92-3.52-9.92-8.1A7.28,7.28,0,0,1,300,67Zm5,11.7c3.64,0,6-1.93,6-6.28V68.85h-6c-3.92,0-6,1.86-6,4.88C299,76.56,301.22,78.69,305,78.69Z"/><path class="cls-1" d="M343,53.85c3.3,0,10.43,1.2,10.43,5.43v3.33h-3.61V60.48c0-2.41-4.14-3.3-6.66-3.3-5.85,0-10.16,4.31-10.16,10.51,0,6.47,4.42,11.08,10.39,11.08,1.94,0,6.82-.7,6.82-3.22V73.42h3.61v3.34c0,4-6.86,5.38-10.66,5.38A13.92,13.92,0,0,1,329,67.84,13.7,13.7,0,0,1,343,53.85Z"/><path class="cls-1" d="M367.06,61.6a10.27,10.27,0,1,1-10.58,10.23C356.48,65.9,361.2,61.6,367.06,61.6Zm0,17.29a7,7,0,0,0,0-14,7,7,0,0,0,0,14Z"/><polygon class="cls-2" points="56.89 0 56.89 43.63 113.77 88.22 113.77 44.11 56.89 0"/><polygon class="cls-3" points="56.89 0 56.89 43.63 0 88.22 0 44.11 56.89 0"/><polygon class="cls-4" points="113.77 44.11 113.77 87.73 56.89 132.32 56.89 88.22 113.77 44.11"/><polygon class="cls-5" points="0 44.11 0 87.73 56.89 132.32 56.89 88.22 0 44.11"/></g></g></svg>