<svg xmlns="http://www.w3.org/2000/svg" viewBox="0 0 29.02 29.03"><defs><style>.cls-1{fill:#e76c55;}.cls-2{fill:#f6d092;}.cls-3{fill:#4b8084;}.cls-4{fill:#df4545;}</style></defs><title>LOGO - NSD Mark</title><g id="Layer_2" data-name="Layer 2"><g id="Nav_-_Top" data-name="Nav - Top"><path class="cls-1" d="M10.64,16.9a4.31,4.31,0,0,1,.51-.62,1.7,1.7,0,0,0-2.4-2.4,4.23,4.23,0,0,1-.61.51h0A4,4,0,0,1,6,15a3.9,3.9,0,0,1-2.79-1.16h0a3.94,3.94,0,0,1,0-5.58,1.71,1.71,0,0,0,0-2.4L3,5.73a14.52,14.52,0,0,0-2.91,10,3.92,3.92,0,0,1,.72.57,3.92,3.92,0,0,1,.7,4.59A14.49,14.49,0,0,0,3.52,24c.09-.07.17-.15.27-.22h0a3.95,3.95,0,0,1,4.34,0h0a3.83,3.83,0,0,1,.62.51,1.7,1.7,0,1,0,2.4-2.4,4.31,4.31,0,0,1-.51-.62h0a3.95,3.95,0,0,1,0-4.34Z"/><path class="cls-2" d="M23.12,17.87a1.74,1.74,0,0,0-2.4,0,3.94,3.94,0,0,1-5.58,0,1.74,1.74,0,0,0-2.4,0,1.71,1.71,0,0,0,0,2.4,4.31,4.31,0,0,1,.51.62h0a3.95,3.95,0,0,1,0,4.34h0a4.31,4.31,0,0,1-.51.62h0a3.94,3.94,0,0,1-5.58,0,1.74,1.74,0,0,0-2-.27A14.49,14.49,0,0,0,14.54,29a3.46,3.46,0,0,1,.6-.78,3.9,3.9,0,0,1,2.79-1.16,4,4,0,0,1,2.31.75,14.46,14.46,0,0,0,3.05-1.78l-.17-.21a4,4,0,0,1,0-5.58A1.7,1.7,0,0,0,23.12,17.87Z"/><path class="cls-3" d="M29,14.94A3.94,3.94,0,0,1,27.11,8.3a1.9,1.9,0,0,0,.31-.45,14.51,14.51,0,0,0-1.57-2.42,1.69,1.69,0,0,0-1.14.47,3.94,3.94,0,0,1-5.58,0,1.74,1.74,0,0,0-2.4,0,1.7,1.7,0,0,0,0,2.4,3.94,3.94,0,0,1,0,5.58,1.71,1.71,0,0,0,0,2.4,1.74,1.74,0,0,0,2.4,0,3.94,3.94,0,0,1,5.58,0,4.31,4.31,0,0,1,.51.62h0a3.95,3.95,0,0,1,0,4.34h0a4.31,4.31,0,0,1-.51.62,1.7,1.7,0,0,0,0,2.4,1.78,1.78,0,0,0,.32.24A14.43,14.43,0,0,0,29,14.94Z"/><path class="cls-4" d="M13.79,0a3.87,3.87,0,0,1-1,1.89A3.89,3.89,0,0,1,10,3.07,3.91,3.91,0,0,1,7.22,2a14.08,14.08,0,0,0-2.7,2,2.43,2.43,0,0,0,.24.32,4.31,4.31,0,0,1,.51.62h0a3.95,3.95,0,0,1,0,4.34h0a4.31,4.31,0,0,1-.51.62,1.71,1.71,0,0,0,0,2.4,1.66,1.66,0,0,0,.31.23,1.7,1.7,0,0,0,2.09-.23,3.94,3.94,0,0,1,5.58,0,1.74,1.74,0,0,0,2.4,0,1.71,1.71,0,0,0,0-2.4,4,4,0,0,1,0-5.58,3.94,3.94,0,0,1,5.58,0,1.74,1.74,0,0,0,2.4,0,1.69,1.69,0,0,0,.49-1.12A14.46,14.46,0,0,0,13.79,0Z"/></g></g></svg>