<svg xmlns="http://www.w3.org/2000/svg" viewBox="0 0 379.91 102.05"><defs><style>.cls-1{fill:#cf2036;}.cls-2{fill:#6bc3b1;}.cls-3{fill:#010101;}</style></defs><title>LOGO-TeacherVision</title><g id="NSD_-_Partners" data-name="NSD - Partners"><path class="cls-1" d="M41.26,70.66c-3.42,0-4.81-.64-6-1.75t0,0h-.43c-1.17,1.13-2.56,1.77-6,1.77-7.76,0-13.2-13.19-13.2-20.33,0-8.4,5.41-15,12.31-15a11.87,11.87,0,0,1,6.65,1.5h1a12,12,0,0,1,6.66-1.5c6.9,0,12.31,6.58,12.31,15C54.46,57.47,49,70.66,41.26,70.66Zm-6.25-5a3,3,0,0,1,2.33.84c.49.45,1,.94,3.92.94,4.73,0,10-10.2,10-17.12,0-6.6-4-11.78-9.1-11.78a8.94,8.94,0,0,0-5.47,1.31l-.36.2h-2.6l-.36-.2a8.92,8.92,0,0,0-5.48-1.31c-5.1,0-9.1,5.18-9.1,11.78,0,6.92,5.26,17.12,10,17.12,2.86,0,3.42-.49,3.92-.93A3,3,0,0,1,35,65.67Z"/><ellipse class="cls-2" cx="41.21" cy="28.61" rx="6.61" ry="2.09" transform="translate(-8.16 37.52) rotate(-45)"/><path class="cls-3" d="M37.67,48A3,3,0,0,0,35,49.41,2.9,2.9,0,0,0,32.42,48a2.56,2.56,0,0,0-2.81,2.48c0,1.22.92,2.56,2.65,3.86A17.3,17.3,0,0,0,34.88,56,.31.31,0,0,0,35,56a.33.33,0,0,0,.15,0c.22-.12,5.26-2.92,5.26-5.66A2.49,2.49,0,0,0,37.67,48Z"/><path class="cls-3" d="M34.22,35.84H34a1,1,0,0,1-.85-1.2,6.14,6.14,0,0,0-4.49-6.81,1,1,0,1,1,.63-2A8.16,8.16,0,0,1,35.24,35,1,1,0,0,1,34.22,35.84Z"/><path class="cls-1" d="M73,39.91H62.32V34.32H89.79v5.59H79.14V69.05H73Z"/><path class="cls-1" d="M91.26,59.34a6,6,0,0,0,2.06,4.12,6.46,6.46,0,0,0,4.27,1.47,7,7,0,0,0,3.7-.91,10,10,0,0,0,2.63-2.28l4.22,3.19a12,12,0,0,1-4.61,3.63,13.6,13.6,0,0,1-5.35,1.08,14.12,14.12,0,0,1-5-.88,11.68,11.68,0,0,1-6.79-6.4,13.28,13.28,0,0,1,0-10.16,11.68,11.68,0,0,1,6.79-6.4,14.13,14.13,0,0,1,5-.89,11.52,11.52,0,0,1,4.49.86,9.73,9.73,0,0,1,3.48,2.48,11.35,11.35,0,0,1,2.26,4,17,17,0,0,1,.81,5.47v1.62Zm12.07-4.42a5.5,5.5,0,0,0-1.62-4.09,6.07,6.07,0,0,0-4.37-1.5,5.73,5.73,0,0,0-4.19,1.52,6.78,6.78,0,0,0-1.89,4.07Z"/><path class="cls-1" d="M128.4,65.81h-.15A7.49,7.49,0,0,1,125,68.73a10,10,0,0,1-4.31.91,11.66,11.66,0,0,1-3.17-.44,8.62,8.62,0,0,1-2.74-1.33,6.62,6.62,0,0,1-1.94-2.2,6.31,6.31,0,0,1-.74-3.09,7.12,7.12,0,0,1,.69-3.27,6.63,6.63,0,0,1,1.84-2.25,9.26,9.26,0,0,1,2.67-1.45,18.41,18.41,0,0,1,3.17-.81,27.9,27.9,0,0,1,3.31-.34c1.11-.05,2.16-.08,3.14-.08h1.47v-.63a3.85,3.85,0,0,0-1.52-3.32,6.5,6.5,0,0,0-3.88-1.1,9.13,9.13,0,0,0-3.48.66,8.9,8.9,0,0,0-2.8,1.79l-3.09-3.09a11.45,11.45,0,0,1,4.59-2.89,16.87,16.87,0,0,1,5.42-.89,13.54,13.54,0,0,1,4.22.57,9.52,9.52,0,0,1,2.85,1.45,6.31,6.31,0,0,1,1.74,2,9.49,9.49,0,0,1,.88,2.33,12.62,12.62,0,0,1,.32,2.28c0,.74,0,1.39,0,1.94V69.05h-5.3Zm-.34-7.31h-1.23c-.82,0-1.73,0-2.75.1a14.46,14.46,0,0,0-2.87.47,6.35,6.35,0,0,0-2.28,1.08,2.34,2.34,0,0,0-.93,2,2.45,2.45,0,0,0,.37,1.4,3.22,3.22,0,0,0,.95,1,4,4,0,0,0,1.33.56,7.24,7.24,0,0,0,6-1.27,5.36,5.36,0,0,0,1.45-4Z"/><path class="cls-1" d="M155.09,52.57a9.65,9.65,0,0,0-2.16-1.72,4.69,4.69,0,0,0-2.31-.64,6.72,6.72,0,0,0-5.07,2.16,6.65,6.65,0,0,0-1.38,2.26,7.86,7.86,0,0,0,0,5.3,6.51,6.51,0,0,0,1.38,2.25,6.72,6.72,0,0,0,5.07,2.16,5.88,5.88,0,0,0,2.55-.56,5.62,5.62,0,0,0,2-1.65l3.92,4.22a9.05,9.05,0,0,1-2,1.52,13.59,13.59,0,0,1-2.33,1,14.12,14.12,0,0,1-2.26.57,12.66,12.66,0,0,1-1.87.17,14.11,14.11,0,0,1-5-.88,12,12,0,0,1-4.07-2.5,11.82,11.82,0,0,1-2.73-3.9,13.4,13.4,0,0,1,0-10.16,11.82,11.82,0,0,1,2.73-3.9,12,12,0,0,1,4.07-2.5,14.11,14.11,0,0,1,5-.89,12.85,12.85,0,0,1,4.54.86,10.4,10.4,0,0,1,4,2.73Z"/><path class="cls-1" d="M167.5,48.79h.1A6.89,6.89,0,0,1,170,46.12a7.73,7.73,0,0,1,4.49-1.21,9.21,9.21,0,0,1,4,.79,7.54,7.54,0,0,1,2.68,2.06,7.69,7.69,0,0,1,1.47,2.94,13.85,13.85,0,0,1,.44,3.49V69.05h-5.89V57.13c0-.65,0-1.38-.09-2.18a7.94,7.94,0,0,0-.52-2.26,4.3,4.3,0,0,0-1.3-1.77,3.75,3.75,0,0,0-2.4-.71,5.74,5.74,0,0,0-2.48.49A4.76,4.76,0,0,0,168.75,52a5.29,5.29,0,0,0-1,1.91,8.8,8.8,0,0,0-.29,2.26V69.05h-5.89V32h5.89Z"/><path class="cls-1" d="M193.45,59.34a6,6,0,0,0,2.06,4.12,6.46,6.46,0,0,0,4.27,1.47,7,7,0,0,0,3.71-.91,10.15,10.15,0,0,0,2.62-2.28l4.22,3.19a11.94,11.94,0,0,1-4.61,3.63,13.57,13.57,0,0,1-5.35,1.08,14.07,14.07,0,0,1-5-.88,12.09,12.09,0,0,1-4.08-2.5,11.94,11.94,0,0,1-2.72-3.9,13.4,13.4,0,0,1,0-10.16,11.94,11.94,0,0,1,2.72-3.9,12.09,12.09,0,0,1,4.08-2.5,14.07,14.07,0,0,1,5-.89,11.48,11.48,0,0,1,4.49.86,9.64,9.64,0,0,1,3.48,2.48,11.35,11.35,0,0,1,2.26,4,17,17,0,0,1,.81,5.47v1.62Zm12.07-4.42a5.5,5.5,0,0,0-1.62-4.09,6,6,0,0,0-4.36-1.5,5.74,5.74,0,0,0-4.2,1.52,6.78,6.78,0,0,0-1.89,4.07Z"/><path class="cls-1" d="M215.87,45.5h5.89v3.73h.1a7.38,7.38,0,0,1,2.8-3.19,7.75,7.75,0,0,1,4.17-1.13,6.12,6.12,0,0,1,1,.1c.34.07.7.15,1.05.25V51c-.49-.13-1-.24-1.44-.32a8.45,8.45,0,0,0-1.4-.12,6.29,6.29,0,0,0-3.31.76A6.17,6.17,0,0,0,222.86,53a5.86,5.86,0,0,0-.88,2,7.29,7.29,0,0,0-.22,1.47V69.05h-5.89Z"/><path class="cls-1" d="M228.48,34.32h7.12l9.46,26.25,9.77-26.25h6.67l-14,34.73h-5.35Z"/><path class="cls-1" d="M262.92,37.51A3.37,3.37,0,0,1,264,35,3.62,3.62,0,0,1,266.65,34a3.88,3.88,0,0,1,2.72,1,3.43,3.43,0,0,1,0,5.05,3.88,3.88,0,0,1-2.72,1A3.59,3.59,0,0,1,264,40,3.36,3.36,0,0,1,262.92,37.51Zm.84,8h5.88V69.05h-5.88Z"/><path class="cls-1" d="M287.94,52a5.39,5.39,0,0,0-4.61-2.41,5,5,0,0,0-2.3.59,2,2,0,0,0-1.13,1.92,1.65,1.65,0,0,0,.93,1.57,10.59,10.59,0,0,0,2.35.83c.95.23,2,.47,3.07.71a12.11,12.11,0,0,1,3.07,1.13,6.8,6.8,0,0,1,2.35,2.08,6.27,6.27,0,0,1,.93,3.64,6.59,6.59,0,0,1-.9,3.55A7.1,7.1,0,0,1,289.34,68a10.33,10.33,0,0,1-3.26,1.28,17.23,17.23,0,0,1-3.63.39,15.75,15.75,0,0,1-5.06-.78A9.74,9.74,0,0,1,273.27,66l3.93-3.68a11,11,0,0,0,2.43,2.09,5.84,5.84,0,0,0,3.16.81,6.23,6.23,0,0,0,1.33-.15,4.35,4.35,0,0,0,1.27-.49,3.19,3.19,0,0,0,1-.86,2,2,0,0,0,.37-1.2,2,2,0,0,0-.94-1.82,8.16,8.16,0,0,0-2.35-1c-.95-.25-2-.48-3.07-.69a12,12,0,0,1-3.06-1,6.5,6.5,0,0,1-2.36-2,5.9,5.9,0,0,1-.93-3.53,6.85,6.85,0,0,1,.81-3.41A7.17,7.17,0,0,1,277,46.73,9.22,9.22,0,0,1,280,45.36a13.62,13.62,0,0,1,3.48-.45,14,14,0,0,1,4.66.81,7.62,7.62,0,0,1,3.73,2.78Z"/><path class="cls-1" d="M295.4,37.51A3.4,3.4,0,0,1,296.45,35,3.66,3.66,0,0,1,299.13,34a3.9,3.9,0,0,1,2.72,1,3.45,3.45,0,0,1,0,5.05,3.9,3.9,0,0,1-2.72,1A3.62,3.62,0,0,1,296.45,40,3.39,3.39,0,0,1,295.4,37.51Zm.83,8h5.89V69.05h-5.89Z"/><path class="cls-1" d="M306.68,57.28a12.45,12.45,0,0,1,1-5.08,11.68,11.68,0,0,1,6.79-6.4,14.52,14.52,0,0,1,10,0,12,12,0,0,1,4.07,2.5,11.82,11.82,0,0,1,2.73,3.9,13.4,13.4,0,0,1,0,10.16,11.82,11.82,0,0,1-2.73,3.9,12,12,0,0,1-4.07,2.5,14.67,14.67,0,0,1-10,0,11.68,11.68,0,0,1-6.79-6.4A12.52,12.52,0,0,1,306.68,57.28Zm5.89,0a7.71,7.71,0,0,0,.47,2.65,6.49,6.49,0,0,0,1.37,2.25,6.66,6.66,0,0,0,2.18,1.57,7,7,0,0,0,8-1.57,6.64,6.64,0,0,0,1.37-2.25,7.71,7.71,0,0,0,0-5.3,6.78,6.78,0,0,0-1.37-2.26,7,7,0,0,0-2.19-1.57,6.95,6.95,0,0,0-8,1.57A6.62,6.62,0,0,0,313,54.63,7.66,7.66,0,0,0,312.57,57.28Z"/><path class="cls-1" d="M336.76,45.5h5.59v3.78h.1A8.17,8.17,0,0,1,345,46.21a7.58,7.58,0,0,1,4.66-1.3,9.29,9.29,0,0,1,4,.79,7.5,7.5,0,0,1,2.67,2.06,7.69,7.69,0,0,1,1.47,2.94,13.41,13.41,0,0,1,.45,3.49V69.05h-5.89V57.13c0-.65,0-1.38-.1-2.18a8.28,8.28,0,0,0-.51-2.26,4.39,4.39,0,0,0-1.3-1.77,3.78,3.78,0,0,0-2.41-.71,5.74,5.74,0,0,0-2.48.49A4.72,4.72,0,0,0,343.9,52a5,5,0,0,0-1,1.91,8.39,8.39,0,0,0-.3,2.26V69.05h-5.88Z"/><path class="cls-1" d="M359.07,40.9a4.63,4.63,0,0,1,.39-1.89,5,5,0,0,1,1-1.55,5.15,5.15,0,0,1,1.55-1,4.77,4.77,0,0,1,3.78,0,5.15,5.15,0,0,1,1.55,1,4.86,4.86,0,0,1,1,1.55,4.77,4.77,0,0,1,0,3.78,4.81,4.81,0,0,1-1,1.54,5,5,0,0,1-1.55,1.05,4.77,4.77,0,0,1-3.78,0,4.92,4.92,0,0,1-2.59-2.59A4.63,4.63,0,0,1,359.07,40.9Zm1.26,0a3.81,3.81,0,0,0,.28,1.47,3.74,3.74,0,0,0,.77,1.2,3.53,3.53,0,0,0,5.12,0,3.74,3.74,0,0,0,.77-1.2,4,4,0,0,0,0-2.94,3.74,3.74,0,0,0-.77-1.2,3.53,3.53,0,0,0-5.12,0,3.74,3.74,0,0,0-.77,1.2A3.81,3.81,0,0,0,360.33,40.9Zm1.74-2.6h1.64a5.87,5.87,0,0,1,.85.06,2.24,2.24,0,0,1,.73.23,1.29,1.29,0,0,1,.52.46,1.3,1.3,0,0,1,.2.75,1.75,1.75,0,0,1-.11.62,1.58,1.58,0,0,1-.27.48,1.36,1.36,0,0,1-.36.32,1.14,1.14,0,0,1-.41.15l1.31,2h-1.38l-1.16-2h-.3v2h-1.26Zm1.24,2.12h.62l.26,0a1.18,1.18,0,0,0,.27-.06.56.56,0,0,0,.21-.17.51.51,0,0,0,.08-.3.52.52,0,0,0-.08-.31.46.46,0,0,0-.21-.16.83.83,0,0,0-.27-.07h-.88Z"/></g></svg>