<svg xmlns="http://www.w3.org/2000/svg" viewBox="0 0 72.88 63.77"><defs><style>.cls-1,.cls-2{fill:none;stroke:#414142;stroke-linejoin:round;stroke-width:3.04px;}.cls-2{stroke-linecap:round;}.cls-3{fill:#414142;}.cls-4{fill:#e76c55;}.cls-5{fill:#f6d092;}.cls-6{fill:#4b8084;}.cls-7{fill:#df4545;}</style></defs><title>Logo-iSocialMark</title><g id="Layer_2" data-name="Layer 2"><g id="NSD_-_Product_-_iSocial" data-name="NSD - Product - iSocial"><rect class="cls-1" x="1.52" y="1.52" width="69.85" height="51.62" rx="3.04"/><line class="cls-2" x1="21.26" y1="62.25" x2="51.62" y2="62.25"/><line class="cls-1" x1="31.89" y1="53.14" x2="31.89" y2="62.25"/><line class="cls-1" x1="41" y1="53.14" x2="41" y2="62.25"/><rect class="cls-3" x="9.18" y="7.18" width="54.53" height="40.3" rx="2.37"/><path class="cls-4" d="M32.58,29.62a3.67,3.67,0,0,1,.5-.62,1.69,1.69,0,0,0-2.39-2.4,4.31,4.31,0,0,1-.62.51h0a3.94,3.94,0,0,1-5-.51h0a3.94,3.94,0,0,1,0-5.58,1.69,1.69,0,0,0,0-2.4c-.06-.06-.14-.11-.21-.17a14.52,14.52,0,0,0-2.91,10,4,4,0,0,1,.73.57,4,4,0,0,1,.7,4.59,14.07,14.07,0,0,0,2,3.1c.09-.07.17-.15.27-.22h0a4,4,0,0,1,4.35,0h0a4.31,4.31,0,0,1,.62.51,1.69,1.69,0,1,0,2.39-2.4,3.67,3.67,0,0,1-.5-.62h0a3.95,3.95,0,0,1,0-4.34Z"/><path class="cls-5" d="M45.05,30.59a1.73,1.73,0,0,0-2.39,0,3.95,3.95,0,0,1-5.59,0,1.73,1.73,0,0,0-2.39,0,1.69,1.69,0,0,0,0,2.4,3.67,3.67,0,0,1,.5.62h0a3.95,3.95,0,0,1,0,4.34h0a3.67,3.67,0,0,1-.5.62h0a3.95,3.95,0,0,1-5.59,0,1.74,1.74,0,0,0-2-.27,14.49,14.49,0,0,0,9.4,3.45,3.77,3.77,0,0,1,.6-.78,3.92,3.92,0,0,1,2.79-1.16,4,4,0,0,1,2.32.75,14.14,14.14,0,0,0,3-1.78,1.57,1.57,0,0,0-.17-.21,4,4,0,0,1,0-5.58A1.7,1.7,0,0,0,45.05,30.59Z"/><path class="cls-6" d="M51,27.66a4,4,0,0,1-3.07-3.85A3.94,3.94,0,0,1,49,21a1.9,1.9,0,0,0,.31-.45,13.91,13.91,0,0,0-1.57-2.42,1.65,1.65,0,0,0-1.13.47,3.95,3.95,0,0,1-5.59,0,1.73,1.73,0,0,0-2.39,0,1.7,1.7,0,0,0,0,2.4,4,4,0,0,1,0,5.58,1.69,1.69,0,0,0,0,2.4,1.73,1.73,0,0,0,2.39,0,3.95,3.95,0,0,1,5.59,0,4.24,4.24,0,0,1,.5.62h0a3.95,3.95,0,0,1,0,4.34h0a4.24,4.24,0,0,1-.5.62,1.7,1.7,0,0,0,0,2.4,1.43,1.43,0,0,0,.31.24A14.43,14.43,0,0,0,51,27.66Z"/><path class="cls-7" d="M35.73,12.74a3.95,3.95,0,0,1-6.58,1.95,14.4,14.4,0,0,0-2.7,2,1.85,1.85,0,0,0,.25.32,4.24,4.24,0,0,1,.5.62h0a3.95,3.95,0,0,1,0,4.34h0a4.24,4.24,0,0,1-.5.62,1.69,1.69,0,0,0,0,2.4,1.33,1.33,0,0,0,.3.23A1.7,1.7,0,0,0,29.09,25a3.95,3.95,0,0,1,5.59,0,1.73,1.73,0,0,0,2.39,0,1.69,1.69,0,0,0,0-2.4A3.95,3.95,0,1,1,42.66,17a1.73,1.73,0,0,0,2.39,0,1.69,1.69,0,0,0,.49-1.12A14.43,14.43,0,0,0,35.73,12.74Z"/></g></g></svg>