<svg xmlns="http://www.w3.org/2000/svg" viewBox="0 0 175.46 55.6"><defs><style>.cls-1{fill:#036db7;}</style></defs><title>Logo-TMC</title><g id="Layer_2" data-name="Layer 2"><g id="NSD_-_Partners" data-name="NSD - Partners"><path class="cls-1" d="M79.64,0l.22,13.41H77.41C76,7,72.9,2.53,67,2.53V32c0,2.75,1.28,3.63,5.85,3.63V37.8H52.13V35.61c4.68,0,5.95-.88,5.95-3.63V2.53c-5.89,0-9,4.45-10.41,10.88H45.23L45.44,0h34.2"/><path class="cls-1" d="M74,37.8V36.21c2.06,0,3.81-1,3.81-3.74V14.38c0-2-1.29-2.35-3.58-2.39V10.4H85.49L91,29h.08L96.58,10.4H108V12c-2.84,0-3.77.64-3.77,2.63v19c0,2,.93,2.63,3.77,2.63V37.8H94.48V36.21c2.56,0,3.5-.64,3.5-2.63V13.34H97.9L90.47,37.8H87.13L80,13.34h-.08V32.47c0,2.74,1.75,3.7,4.09,3.74V37.8H74"/><path class="cls-1" d="M127.22,22.16h-1.4c-1.81-5.07-3.76-7.71-7.81-7.71-4.32,0-6.2,4.07-6.2,11.07,0,7.28,2.37,11.07,7.11,11.07s7.25-3,7.53-8.39H128c0,6.25-3.45,10-9.83,10-8.23,0-12.76-5.86-12.76-12.71S111,12.8,117.63,12.8a13.92,13.92,0,0,1,6.83,2.11l1.36-1.46h1.4v8.71"/><rect class="cls-1" y="40.97" width="174.98" height="2.32"/><path class="cls-1" d="M7.32,49.26C7,47.54,6.43,46.5,4.57,46.5v7.57c0,.65.22.9,1.27.9v.46H2V55c1,0,1.27-.25,1.27-.9V46.5c-1.87,0-2.47,1-2.75,2.76H.07L.15,46h7.5l.07,3.22h-.4"/><path class="cls-1" d="M11,50.38c.38,0,.91,0,1.51,0,1.19,0,2.1-.4,2.1-1.83A1.85,1.85,0,0,0,12.5,46.5c-1.14,0-1.49.23-1.49.79v3.09m5.61,3.09c0,1.12-.36,2-1.57,2-1,0-1.5-.9-1.5-2.15,0-2.19-.63-2.49-2-2.49H11v3.2c0,.65.22.9,1.3.9v.46H8.43V55c1,0,1.23-.25,1.23-.9V47.4c0-.65-.22-.9-1.23-.9V46H13.2c2.18,0,2.85,1.42,2.85,2.35,0,1.72-1.61,2.39-3.16,2.39v0c2.55.43,1.75,3.76,2.87,3.76.35,0,.49-.64.49-1.09Z"/><path class="cls-1" d="M21,46.5c-1,0-1.26.25-1.26.9v5.48c0,1.46.7,2.25,2.15,2.25a2.41,2.41,0,0,0,2.65-2.7V47.81c0-.73-.13-1.31-1.41-1.31V46H26.3v.46c-1.16,0-1.29.58-1.29,1.31v4.73a3,3,0,0,1-3.29,3.06c-2,0-3.34-.85-3.34-2.76V47.4c0-.65-.22-.9-1.27-.9V46H21v.46"/><path class="cls-1" d="M37.21,46v.46c-1,0-1.18.25-1.18.9v6.67c0,.65.23.9,1.3.9v.46H33.5V55c1,0,1.19-.25,1.19-.9V46.56h0l-2.81,8.87h-.46l-2.71-8.82h0v6.77c0,1.18.22,1.59,1.32,1.59v.46H26.81V55c1.07,0,1.29-.41,1.29-1.59v-6c0-.65-.22-.9-1.29-.9V46h3.1l2.15,7h0l2.2-7h2.92"/><path class="cls-1" d="M43.06,51.72l-1.4-3.59-1.32,3.59h2.72m-5.55,3.71V55c1.07,0,1.34-.62,1.63-1.45L41.81,46h.47l2.89,7.69c.4,1,.7,1.3,1.47,1.3v.46H43V55c1,0,1-.11,1-.51a9.6,9.6,0,0,0-.74-2.17H40.16a14.59,14.59,0,0,0-.61,2c0,.52.27.71,1.4.71v.46Z"/><path class="cls-1" d="M49.24,46l4.75,7h0V47.4c0-.65-.22-.9-1.3-.9V46h3v.46c-.92,0-1.14.25-1.14.9v8.11h-.52l-5.18-7.59h0v6.15c0,.65.22.9,1.39.9v.46H47V55c1.08,0,1.31-.25,1.31-.9v-7A1.36,1.36,0,0,0,47,46.5V46h2.29"/><path class="cls-1" d="M70.24,46v.46c-.95,0-1.18.25-1.18.9v6.67c0,.65.23.9,1.3.9v.46H66.53V55c1,0,1.19-.25,1.19-.9V46.56h0l-2.81,8.87h-.46l-2.71-8.82h0v6.77c0,1.18.22,1.59,1.32,1.59v.46H59.84V55c1.07,0,1.29-.41,1.29-1.59v-6c0-.65-.22-.9-1.29-.9V46h3.1l2.15,7h0l2.2-7h2.92"/><path class="cls-1" d="M78.79,55.43H71.08V55c1,0,1.23-.25,1.23-.9V47.4c0-.65-.23-.9-1.23-.9V46h7.47l.08,3.36h-.41c-.64-2.08-1.38-2.9-3.13-2.9-.78,0-1.44.22-1.44.9v2.9c1.39,0,2-.17,2.19-1.65l.37,0V52.4h-.37c-.21-1.47-.8-1.61-2.19-1.64v3.61c0,.43.28.6,1.08.6,1.77,0,3.14-.41,3.73-3h.4l-.07,3.51"/><path class="cls-1" d="M82.58,54c0,.8.2,1,1.38,1C86.57,55,87,53.3,87,50.75c0-3.29-1-4.25-3.08-4.25-1.18,0-1.38.19-1.38,1V54M80,46h4.27a4.39,4.39,0,0,1,4.3,4.69,4.36,4.36,0,0,1-4.19,4.7H80V55c1,0,1.24-.25,1.24-.9V47.4c0-.65-.23-.9-1.24-.9Z"/><path class="cls-1" d="M93.36,46v.46c-1,0-1.27.25-1.27.9v6.67c0,.65.23.9,1.27.9v.46H89.48V55c1,0,1.27-.25,1.27-.9V47.4c0-.65-.23-.9-1.27-.9V46h3.88"/><path class="cls-1" d="M101.67,46.12v3.22h-.35c-.41-1.51-1-3-2.72-3-1.9,0-2.77,1.43-2.77,4.39,0,3.28,1.58,4.4,2.73,4.4,2.1,0,2.86-1.43,3-3.25H102c-.12,2.24-1.15,3.72-3.63,3.72-2.26,0-4-2.34-4-4.87s1.76-4.86,4.17-4.86a6.36,6.36,0,0,1,2.34.77c.24,0,.47-.27.55-.52h.31"/><path class="cls-1" d="M108,51.72l-1.4-3.59-1.32,3.59H108m-5.56,3.71V55c1.07,0,1.35-.62,1.64-1.45L106.78,46h.47l2.89,7.69c.4,1,.7,1.3,1.47,1.3v.46h-3.67V55c1,0,1-.11,1-.51a9.6,9.6,0,0,0-.74-2.17h-3.11a13.26,13.26,0,0,0-.61,2c0,.52.26.71,1.4.71v.46Z"/><path class="cls-1" d="M118.67,55.43h-6.91V55c1,0,1.19-.25,1.19-.9V47.4c0-.65-.23-.9-1.16-.9V46h3.77v.46c-1,0-1.27.25-1.27.9v6.67c0,.65.29.9,1,.9,1.13,0,2.5-.41,3.08-3h.41l-.08,3.51"/><path class="cls-1" d="M130.32,46.12v3.22H130c-.41-1.51-1-3-2.72-3-1.9,0-2.77,1.43-2.77,4.39,0,3.28,1.58,4.4,2.73,4.4,2.1,0,2.86-1.43,3-3.25h.37c-.12,2.24-1.15,3.72-3.63,3.72-2.26,0-4-2.34-4-4.87s1.76-4.86,4.17-4.86a6.52,6.52,0,0,1,2.35.77c.23,0,.46-.27.54-.52h.31"/><path class="cls-1" d="M139.37,55.43h-7.7V55c1,0,1.22-.25,1.22-.9V47.4c0-.65-.22-.9-1.22-.9V46h7.47l.07,3.36h-.41c-.63-2.08-1.37-2.9-3.12-2.9-.78,0-1.44.22-1.44.9v2.9c1.38,0,2-.17,2.19-1.65l.37,0V52.4h-.37c-.21-1.47-.81-1.61-2.19-1.64v3.61c0,.43.28.6,1.08.6,1.77,0,3.14-.41,3.72-3h.41l-.08,3.51"/><path class="cls-1" d="M142.85,46l4.75,7h0V47.4c0-.65-.23-.9-1.31-.9V46h3v.46c-.92,0-1.15.25-1.15.9v8.11h-.51l-5.19-7.59h0v6.15c0,.65.22.9,1.38.9v.46H140.6V55c1.08,0,1.3-.25,1.3-.9v-7a1.35,1.35,0,0,0-1.33-.56V46h2.28"/><path class="cls-1" d="M157.26,49.26c-.28-1.72-.89-2.76-2.75-2.76v7.57c0,.65.23.9,1.27.9v.46H151.9V55c1,0,1.27-.25,1.27-.9V46.5c-1.86,0-2.47,1-2.75,2.76H150l.08-3.22h7.5l.08,3.22h-.41"/><path class="cls-1" d="M166.07,55.43h-7.71V55c1,0,1.23-.25,1.23-.9V47.4c0-.65-.22-.9-1.23-.9V46h7.47l.08,3.36h-.41c-.63-2.08-1.37-2.9-3.13-2.9-.77,0-1.43.22-1.43.9v2.9c1.38,0,2-.17,2.19-1.65l.37,0V52.4h-.37c-.21-1.47-.81-1.61-2.19-1.64v3.61c0,.43.27.6,1.08.6,1.77,0,3.14-.41,3.72-3h.41l-.08,3.51"/><path class="cls-1" d="M169.86,50.38c.38,0,.91,0,1.51,0,1.19,0,2.1-.4,2.1-1.83a1.86,1.86,0,0,0-2.12-2.08c-1.14,0-1.49.23-1.49.79v3.09m5.6,3.09c0,1.12-.35,2-1.57,2-1,0-1.49-.9-1.49-2.15,0-2.19-.63-2.49-2-2.49h-.51v3.2c0,.65.22.9,1.3.9v.46h-3.88V55c1,0,1.23-.25,1.23-.9V47.4c0-.65-.23-.9-1.23-.9V46H172c2.18,0,2.86,1.42,2.86,2.35,0,1.72-1.61,2.39-3.16,2.39v0c2.55.43,1.74,3.76,2.87,3.76.35,0,.48-.64.48-1.09Z"/></g></g></svg>