<svg xmlns="http://www.w3.org/2000/svg" viewBox="0 0 144.13 71.17"><defs><style>.cls-1{fill:#fff;}</style></defs><title>Logo-1MC</title><g id="Layer_2" data-name="Layer 2"><g id="NSD_-_Product_-_Routine_Success" data-name="NSD - Product - Routine Success"><rect class="cls-1" x="0.07" y="44.81" width="135.69" height="1.69"/><path class="cls-1" d="M20.69,28A3.1,3.1,0,0,0,23.14,27V10.36a3.06,3.06,0,0,0-2.45-1.1c-2,0-3.34,1.41-3.34,3.71V24.35c0,2.3,1.38,3.68,3.34,3.68"/><path class="cls-1" d="M49.76,13V24.35c0,2.3,1.38,3.67,3.33,3.67A3.12,3.12,0,0,0,55.55,27V10.35a3.1,3.1,0,0,0-2.46-1.09c-2,0-3.33,1.41-3.33,3.71"/><path class="cls-1" d="M55.55,33.53V32.18a9.07,9.07,0,0,1-2.46.33c-4.44,0-8.31-2.91-8.31-8.12V12.9c0-5.21,3.87-8.12,8.31-8.12a9.48,9.48,0,0,1,2.46.32V0H39.18V5.1a9.4,9.4,0,0,0-2.45-.32c-4.45,0-8.31,2.91-8.31,8.12V24.39c0,5.21,3.86,8.12,8.31,8.12a9.4,9.4,0,0,0,2.45-.32v1.34c0,3.79,2.06,6.87,4.61,6.87H59.06a1.36,1.36,0,0,1,0-.2c-2-.72-3.53-3.43-3.53-6.67M39.18,27A3.1,3.1,0,0,1,36.73,28c-2,0-3.33-1.38-3.33-3.68V13c0-2.3,1.37-3.71,3.33-3.71a3.06,3.06,0,0,1,2.45,1.1Z"/><path class="cls-1" d="M82.2,13V24.35c0,2.3,1.38,3.67,3.33,3.67A3.1,3.1,0,0,0,88,27V10.35a3.09,3.09,0,0,0-2.46-1.09c-2,0-3.33,1.41-3.33,3.71"/><path class="cls-1" d="M88,33.53V32.18a9,9,0,0,1-2.46.33c-4.44,0-8.3-2.91-8.3-8.12V12.9c0-5.21,3.86-8.12,8.3-8.12A9.42,9.42,0,0,1,88,5.1V0H71.68V5.1a9.48,9.48,0,0,0-2.46-.32c-4.44,0-8.31,2.91-8.31,8.12V24.39c0,5.21,3.87,8.12,8.31,8.12a9.07,9.07,0,0,0,2.46-.33v1.35c0,3.79,2.06,6.87,4.6,6.87H91.74a.49.49,0,0,1,0-.12c-2.14-.6-3.76-3.39-3.76-6.75M71.68,27A3.1,3.1,0,0,1,69.22,28c-2,0-3.33-1.37-3.33-3.67V13c0-2.3,1.38-3.71,3.33-3.71a3.09,3.09,0,0,1,2.46,1.09Z"/><path class="cls-1" d="M122,0H104.34V5.1a9.48,9.48,0,0,0-2.46-.32c-.34,0-.67,0-1,0l-.1,0a9.22,9.22,0,0,0-1.58.32h0a8.16,8.16,0,0,0-1.77.74A8.38,8.38,0,0,0,95.9,7l-.12.12c-.17.18-.34.37-.5.57a1.58,1.58,0,0,0-.12.15,7.38,7.38,0,0,0-.5.74l0,0a7,7,0,0,0-.43.87,1.18,1.18,0,0,0-.07.2q-.14.35-.24.72c0,.1-.05.21-.08.31s-.1.48-.14.73c0,.1,0,.21,0,.31a9.84,9.84,0,0,0-.07,1.1V24.39c0,5.21,3.87,8.12,8.31,8.12a9.07,9.07,0,0,0,2.46-.33v1.4a8.81,8.81,0,0,0,1.36,4.82l0,0c.1.14.2.28.31.41l0,0a3.52,3.52,0,0,0,.31.35l.08.08a3.73,3.73,0,0,0,.3.26.94.94,0,0,0,.12.09,2.83,2.83,0,0,0,.28.2,1.29,1.29,0,0,0,.16.09l.26.14.21.08a1.57,1.57,0,0,0,.23.09,2.3,2.3,0,0,0,.28.06l.17,0a2.49,2.49,0,0,0,.47,0h24.78c2.54,0,4.6-3.08,4.6-6.87V0ZM104.34,27A3.1,3.1,0,0,1,101.88,28c-1.95,0-3.33-1.37-3.33-3.67V13c0-2.3,1.38-3.71,3.33-3.71a3.09,3.09,0,0,1,2.46,1.09Z"/><path class="cls-1" d="M23.15,32.22h0v0a9.85,9.85,0,0,1-2.45.32,8.16,8.16,0,0,1-7.23-3.85,8.3,8.3,0,0,1-1.09-4.27V12.9c0-5.21,3.87-8.12,8.32-8.12a9.4,9.4,0,0,1,2.45.32V.23H14.63a2.2,2.2,0,0,0-1.16.2C5.27,6.41,1.2,7.26.9,7.4l0,3.71a17.45,17.45,0,0,1,5.34-.49v9.83h0V32.12S6.43,38.63,0,40.34H28.83s-5-.86-5.68-8.12"/><polygon class="cls-1" points="2.48 52.36 0.34 54.25 0.34 53.24 2.48 51.4 3.32 51.4 3.32 56.79 3.32 63.19 2.48 63.19 2.48 57.53 2.48 52.36"/><polygon class="cls-1" points="18.64 63.19 18.64 56.32 17.49 58.6 16.39 60.79 14.83 60.79 13.87 58.89 12.56 56.32 12.56 63.19 10.26 63.19 10.26 58.85 10.26 51.4 12.53 51.4 14.07 54.6 15.61 57.77 17.19 54.48 18.67 51.4 20.94 51.4 20.94 57.97 20.94 63.19 18.64 63.19"/><polygon class="cls-1" points="25.83 63.19 25.83 57.88 25.83 51.4 28.13 51.4 28.13 57.36 28.13 63.19 25.83 63.19"/><polygon class="cls-1" points="33.01 63.19 33.01 58.41 33.01 51.4 35.31 51.4 35.31 56.09 35.31 61.13 40.66 61.13 40.66 63.19 33.01 63.19"/><polygon class="cls-1" points="44.65 63.19 44.65 56.88 44.65 51.4 46.95 51.4 46.95 56.92 46.95 61.13 52.3 61.13 52.3 63.19 44.65 63.19"/><polygon class="cls-1" points="55.88 63.19 55.88 57.23 55.88 51.4 58.18 51.4 58.18 56.57 58.18 63.19 55.88 63.19"/><path class="cls-1" d="M69.94,62a4.3,4.3,0,0,1-3.18,1.29A4.34,4.34,0,0,1,63.56,62c-1.19-1.2-1.16-2.67-1.16-4.71s0-3.5,1.16-4.7a4.34,4.34,0,0,1,3.2-1.29,4.3,4.3,0,0,1,3.18,1.29c1.19,1.2,1.17,2.67,1.17,4.7s0,3.51-1.17,4.71m-1.71-8a1.9,1.9,0,0,0-1.47-.62,1.94,1.94,0,0,0-1.49.62c-.45.5-.57,1.05-.57,3.31s.12,2.82.57,3.32a1.94,1.94,0,0,0,1.49.62,1.9,1.9,0,0,0,1.47-.62c.45-.5.58-1,.58-3.32s-.13-2.81-.58-3.31"/><polygon class="cls-1" points="81.48 63.19 76.81 55.95 76.81 57.45 76.81 63.19 74.51 63.19 74.51 57.01 74.51 51.4 76.56 51.4 81.23 58.62 81.23 56.22 81.23 51.4 83.53 51.4 83.53 56.57 83.53 63.19 81.48 63.19"/><path class="cls-1" d="M93.83,63.29a4.13,4.13,0,0,1-3-1.21c-1.07-1.08-1.09-2.14-1.09-4.78s0-3.71,1.09-4.79a4.13,4.13,0,0,1,3-1.21,3.93,3.93,0,0,1,4,3.45h-.91A3.15,3.15,0,0,0,91.6,53c-.85.84-.91,1.77-.91,4.29s.06,3.44.91,4.28A3.18,3.18,0,0,0,97,59.85h.88a4,4,0,0,1-4,3.44"/><path class="cls-1" d="M106.74,63.29a3.82,3.82,0,0,1-4-3.92v-8h.89v7.85a3.15,3.15,0,1,0,6.29,0V51.4h.89v8a3.82,3.82,0,0,1-4,3.92"/><path class="cls-1" d="M120.54,58.19h-3.43v5h-.89V51.4h4.32a3.4,3.4,0,1,1,0,6.79m-.1-6h-3.33v5.2h3.33a2.6,2.6,0,1,0,0-5.2"/><path class="cls-1" d="M131.57,63.29a5,5,0,0,1-3.93-1.56l.63-.63a4.15,4.15,0,0,0,3.35,1.39c1.87,0,3-.89,3-2.43a2,2,0,0,0-.65-1.65,2.83,2.83,0,0,0-1.7-.63l-1.38-.22a4,4,0,0,1-2.1-.86,2.69,2.69,0,0,1-.93-2.17c0-2,1.39-3.23,3.66-3.23a4.64,4.64,0,0,1,3.39,1.28l-.58.58a3.74,3.74,0,0,0-2.86-1.1c-1.72,0-2.73.93-2.73,2.44a1.91,1.91,0,0,0,.61,1.54,4,4,0,0,0,1.76.73l1.27.19a3.6,3.6,0,0,1,2.1.78,2.89,2.89,0,0,1,1,2.29c0,2-1.51,3.26-4,3.26"/><path class="cls-1" d="M141.41,57.13a2.73,2.73,0,1,1-2.73,2.73,2.73,2.73,0,0,1,2.73-2.73m0,.48a2.25,2.25,0,1,0,2.25,2.25,2.25,2.25,0,0,0-2.25-2.25m-.07,2.45h-.51v1.37h-.47V58.29h1.19c.74,0,1.11.28,1.11.89a.81.81,0,0,1-.81.86l.9,1.39h-.59Zm.13-.39c.49,0,.71-.15.71-.49s-.22-.5-.71-.5h-.64v1Z"/><path class="cls-1" d="M45.94,70.07h0a1,1,0,0,1-.28.8A1.27,1.27,0,0,1,44,70.82a1.37,1.37,0,0,1-.32-1v-1a1.42,1.42,0,0,1,.32-1,1.08,1.08,0,0,1,.84-.34,1.21,1.21,0,0,1,.84.27,1.06,1.06,0,0,1,.29.81v0h-.47a.77.77,0,0,0-.16-.55.63.63,0,0,0-.49-.18.56.56,0,0,0-.49.24,1.13,1.13,0,0,0-.18.69v1a1.19,1.19,0,0,0,.18.7.6.6,0,0,0,.51.24.58.58,0,0,0,.47-.18.77.77,0,0,0,.16-.55Z"/><path class="cls-1" d="M48,70.23H47l-.25.89h-.51l1-3.49h.47l1,3.49h-.5Zm-.93-.38h.83l-.41-1.42h0Z"/><polygon class="cls-1" points="50.88 69.57 49.66 69.57 49.66 71.12 49.17 71.12 49.17 67.63 51.09 67.63 51.09 68 49.66 68 49.66 69.19 50.88 69.19 50.88 69.57"/><polygon class="cls-1" points="53.25 69.57 52.03 69.57 52.03 71.12 51.54 71.12 51.54 67.63 53.46 67.63 53.46 68 52.03 68 52.03 69.19 53.25 69.19 53.25 69.57"/><polygon class="cls-1" points="55.58 69.5 54.39 69.5 54.39 70.75 55.79 70.75 55.79 71.12 53.91 71.12 53.91 67.63 55.78 67.63 55.78 68 54.39 68 54.39 69.13 55.58 69.13 55.58 69.5"/><rect class="cls-1" x="56.32" y="67.63" width="0.49" height="3.49"/><polygon class="cls-1" points="59.86 71.12 59.37 71.12 58.02 68.54 58.01 68.55 58.01 71.12 57.52 71.12 57.52 67.63 58.01 67.63 59.36 70.19 59.37 70.19 59.37 67.63 59.86 67.63 59.86 71.12"/><path class="cls-1" d="M62.11,70.23h-1l-.25.89h-.5l1-3.49h.47l1,3.49h-.5Zm-.93-.38H62l-.41-1.42h0Z"/><polygon class="cls-1" points="65.05 68 64.13 68 64.13 71.12 63.64 71.12 63.64 68 62.72 68 62.72 67.63 65.05 67.63 65.05 68"/><polygon class="cls-1" points="67.14 69.5 65.95 69.5 65.95 70.75 67.35 70.75 67.35 71.12 65.47 71.12 65.47 67.63 67.34 67.63 67.34 68 65.95 68 65.95 69.13 67.14 69.13 67.14 69.5"/><path class="cls-1" d="M67.84,71.12V67.63h1a1.16,1.16,0,0,1,.92.42,1.6,1.6,0,0,1,.36,1.08v.49a1.6,1.6,0,0,1-.36,1.08,1.16,1.16,0,0,1-.92.42ZM68.32,68v2.75h.51a.66.66,0,0,0,.57-.32,1.36,1.36,0,0,0,.22-.81v-.5a1.33,1.33,0,0,0-.22-.8.66.66,0,0,0-.57-.32Z"/><path class="cls-1" d="M71.77,71.12V67.63h1a1.23,1.23,0,0,1,.78.23.86.86,0,0,1,.28.71.8.8,0,0,1-.12.43.72.72,0,0,1-.34.28.67.67,0,0,1,.47.29,1,1,0,0,1,.16.56.94.94,0,0,1-.27.73,1.1,1.1,0,0,1-.77.26Zm.49-2h.55a.5.5,0,0,0,.37-.15.72.72,0,0,0,0-.84.58.58,0,0,0-.43-.15h-.48Zm0,.35v1.26h.67a.51.51,0,0,0,.41-.16.65.65,0,0,0,.14-.46.68.68,0,0,0-.14-.46.52.52,0,0,0-.39-.18h-.69Z"/><polygon class="cls-1" points="75.35 69.33 75.37 69.33 76.1 67.63 76.64 67.63 75.6 69.86 75.6 71.12 75.11 71.12 75.11 69.83 74.08 67.63 74.62 67.63 75.35 69.33"/><polygon class="cls-1" points="80.22 68 79.29 68 79.29 71.12 78.8 71.12 78.8 68 77.88 68 77.88 67.63 80.22 67.63 80.22 68"/><polygon class="cls-1" points="82.97 71.12 82.49 71.12 82.49 69.58 81.12 69.58 81.12 71.12 80.63 71.12 80.63 67.63 81.12 67.63 81.12 69.21 82.49 69.21 82.49 67.63 82.97 67.63 82.97 71.12"/><polygon class="cls-1" points="85.31 69.5 84.13 69.5 84.13 70.75 85.52 70.75 85.52 71.12 83.64 71.12 83.64 67.63 85.51 67.63 85.51 68 84.13 68 84.13 69.13 85.31 69.13 85.31 69.5"/><polygon class="cls-1" points="87.81 69.55 87.57 69.55 87.57 71.12 87.09 71.12 87.09 67.63 87.57 67.63 87.57 69.16 87.78 69.16 88.75 67.63 89.34 67.63 88.19 69.27 89.43 71.12 88.81 71.12 87.81 69.55"/><path class="cls-1" d="M91.34,70.23h-1l-.26.89h-.5l1-3.49h.47l1,3.49h-.51Zm-.93-.38h.82l-.4-1.42h0Z"/><path class="cls-1" d="M94.74,67.63v2.31a1.22,1.22,0,0,1-.33.9,1.22,1.22,0,0,1-1.67,0,1.21,1.21,0,0,1-.32-.9V67.63h.48v2.31a1,1,0,0,0,.19.63.59.59,0,0,0,.48.23.61.61,0,0,0,.49-.23.93.93,0,0,0,.19-.63V67.63Z"/><polygon class="cls-1" points="97.07 69.57 95.85 69.57 95.85 71.12 95.36 71.12 95.36 67.63 97.28 67.63 97.28 68 95.85 68 95.85 69.19 97.07 69.19 97.07 69.57"/><polygon class="cls-1" points="99.44 69.57 98.22 69.57 98.22 71.12 97.73 71.12 97.73 67.63 99.65 67.63 99.65 68 98.22 68 98.22 69.19 99.44 69.19 99.44 69.57"/><polygon class="cls-1" points="101.56 70.47 101.57 70.47 102.41 67.63 103.03 67.63 103.03 71.12 102.55 71.12 102.55 68.6 102.53 68.6 101.73 71.12 101.4 71.12 100.58 68.56 100.57 68.56 100.57 71.12 100.09 71.12 100.09 67.63 100.72 67.63 101.56 70.47"/><path class="cls-1" d="M105.27,70.23h-1l-.26.89h-.5l1-3.49H105l1,3.49h-.5Zm-.93-.38h.82l-.4-1.42h0Z"/><polygon class="cls-1" points="108.77 71.12 108.28 71.12 106.93 68.54 106.91 68.55 106.91 71.12 106.42 71.12 106.42 67.63 106.91 67.63 108.26 70.19 108.28 70.19 108.28 67.63 108.77 67.63 108.77 71.12"/><polygon class="cls-1" points="112.22 69.57 111 69.57 111 71.12 110.51 71.12 110.51 67.63 112.43 67.63 112.43 68 111 68 111 69.19 112.22 69.19 112.22 69.57"/><path class="cls-1" d="M115.23,69.85a1.3,1.3,0,0,1-.34,1,1.18,1.18,0,0,1-.89.35,1.17,1.17,0,0,1-.89-.35,1.34,1.34,0,0,1-.33-1V68.9a1.34,1.34,0,0,1,.33-1,1.12,1.12,0,0,1,.88-.35,1.15,1.15,0,0,1,.9.35,1.3,1.3,0,0,1,.34,1Zm-.48-1a1,1,0,0,0-.2-.69A.68.68,0,0,0,114,68a.66.66,0,0,0-.54.24,1.09,1.09,0,0,0-.18.69v1a1.08,1.08,0,0,0,.19.7.63.63,0,0,0,.54.24.66.66,0,0,0,.55-.24,1.06,1.06,0,0,0,.2-.7Z"/><path class="cls-1" d="M118.08,67.63v2.31a1.25,1.25,0,0,1-.32.9,1.15,1.15,0,0,1-.85.33,1.1,1.1,0,0,1-.83-.33,1.25,1.25,0,0,1-.32-.9V67.63h.49v2.31a1,1,0,0,0,.18.63.59.59,0,0,0,.48.23.63.63,0,0,0,.5-.23,1,1,0,0,0,.18-.63V67.63Z"/><polygon class="cls-1" points="121.05 71.12 120.56 71.12 119.21 68.54 119.19 68.55 119.19 71.12 118.71 71.12 118.71 67.63 119.19 67.63 120.54 70.19 120.56 70.19 120.56 67.63 121.05 67.63 121.05 71.12"/><path class="cls-1" d="M121.71,71.12V67.63h1a1.16,1.16,0,0,1,.92.42,1.6,1.6,0,0,1,.36,1.08v.49a1.6,1.6,0,0,1-.36,1.08,1.16,1.16,0,0,1-.92.42ZM122.2,68v2.75h.51a.67.67,0,0,0,.57-.32,1.43,1.43,0,0,0,.22-.81v-.5a1.4,1.4,0,0,0-.22-.8.67.67,0,0,0-.57-.32Z"/><path class="cls-1" d="M126.06,70.23h-1l-.25.89h-.51l1-3.49h.47l1,3.49h-.51Zm-.93-.38H126l-.41-1.42h0Z"/><polygon class="cls-1" points="129 68 128.07 68 128.07 71.12 127.58 71.12 127.58 68 126.67 68 126.67 67.63 129 67.63 129 68"/><rect class="cls-1" x="129.46" y="67.63" width="0.49" height="3.49"/><path class="cls-1" d="M133,69.85a1.35,1.35,0,0,1-.34,1,1.19,1.19,0,0,1-.9.35,1.16,1.16,0,0,1-.88-.35,1.34,1.34,0,0,1-.33-1V68.9a1.34,1.34,0,0,1,.33-1,1.12,1.12,0,0,1,.88-.35,1.15,1.15,0,0,1,.9.35,1.35,1.35,0,0,1,.34,1Zm-.49-1a1,1,0,0,0-.19-.69.68.68,0,0,0-.56-.24.66.66,0,0,0-.54.24,1.09,1.09,0,0,0-.19.69v1a1.14,1.14,0,0,0,.19.7.66.66,0,0,0,.54.24.68.68,0,0,0,.56-.24,1.06,1.06,0,0,0,.19-.7Z"/><polygon class="cls-1" points="135.92 71.12 135.43 71.12 134.08 68.54 134.06 68.55 134.06 71.12 133.58 71.12 133.58 67.63 134.06 67.63 135.41 70.19 135.43 70.19 135.43 67.63 135.92 67.63 135.92 71.12"/></g></g></svg>