<svg xmlns="http://www.w3.org/2000/svg" viewBox="0 0 379.91 102.05"><defs><style>.cls-1{fill:#010101;}.cls-2{fill:#f1b82c;}.cls-3{font-size:23.07px;fill:#fff;font-family:JansonTextLT-Roman, JansonText LT;}</style></defs><title>LOGO-Thompson</title><g id="NSD_-_Partners" data-name="NSD - Partners"><path class="cls-1" d="M23.18,62.46c14,.06,15.18-5.85,15.18-7.61V28.44H25.21l-2,4.54-2-4.54H8V54.85c0,1.76,1.21,7.67,15.18,7.61Z"/><path class="cls-2" d="M23.19,54.51c4.52,0,4.44-1.59,4.46-2V50c0-.52-.34-.91-1-1.25V47h7.76v1.76c-.63.34-1,.74-1,1.25v2.26c0,1.64.74,5.79-10.26,5.79S13,53.88,12.92,52.24V50c0-.51-.34-.91-1-1.25V47H19.7v1.78c-.64.34-1,.73-1,1.25v2.52c0,.4,0,2,4.47,2"/><path class="cls-2" d="M23.19,39l3.75-6.75h7.49V34c-.64.34-1,.74-1,1.26v5.36c0,.51.35.91,1,1.25v1.76H27.34V41.87c.63-.34,1-.74,1-1.25V36.54l-4.26,7.11H22.31l-4.26-7.11v4.08c0,.51.35.91,1,1.25v1.78H12V41.89c.63-.34,1-.74,1-1.25V35.28c0-.52-.35-.92-1-1.26V32.26h7.49Z"/><text class="cls-3" transform="translate(55.41 45.18)">Thompson Center for Autism<tspan x="0" y="25.67">&amp; Neurodevelopment Disorders</tspan></text></g></svg>