<svg xmlns="http://www.w3.org/2000/svg" viewBox="0 0 379.91 102.05"><defs><style>.cls-1{fill:#fff;}</style></defs><title>LOGO-UnivSCarolina</title><g id="NSD_-_Partners" data-name="NSD - Partners"><path class="cls-1" d="M43.54,35.18c.11.11.18.1.18.1,8.47-.34,13.33,2.89,13.74,4.21l3.38-.06,1-2.29a.71.71,0,0,0,0-.55C60.84,35.46,52.32,33,42,33c-11,0-17.93,2.16-19.4,3.25a.76.76,0,0,0-.36.53,1.88,1.88,0,0,0,.21.56l.29.65c.1.19.23.18.45,0,0,0,.2-.07.24-.2a.61.61,0,0,0-.08-.35c-.22-.45.07-.51.08-.52l.63-.28c.3-.09.34.07.44.31,0,0,.11.33.19.38s.66-.19,2.16-.56a.92.92,0,0,0,.35-.11c.15-.05,0-.56,0-.56-.05-.25-.17-.5.37-.59l.94-.18c.43-.12.47.11.53.36a1.82,1.82,0,0,0,.12.54c.13.2.35-.12,3.2-.43,0,0,.42,0,.5-.15a.92.92,0,0,0,0-.49c0-.34-.17-.6.49-.64l1.24-.11c.94-.15.78.16.82.5,0,0,0,.38.1.44s.36.07.36.07c1.6-.17,2.5-.16,4.2-.23a.52.52,0,0,0,.32-.1.24.24,0,0,0,.06-.21c0-.19,0-.49.09-.63s.36-.08.58-.08h1.43c.22,0,.67-.1.79.06s.06.71.06.71a.23.23,0,0,0,.07.16"/><path class="cls-1" d="M42.1,21.42c-8.28,0-13.38,2.66-16.64,5.86a.44.44,0,0,0-.09.14c-.06.16-.07.4.27.29,7.09-3,14.84-1.11,17.31,1.69.08.13,0,.16-.1.17a53.86,53.86,0,0,0-9.19.52,61.89,61.89,0,0,0-6.59,1.2,22.79,22.79,0,0,0-6.49,2.62,1.07,1.07,0,0,0-.59.62c-.13.4-.12.4-.21.67-.15.52-.23.85-.26,1s.29.21.47,0a10.41,10.41,0,0,1,2.89-2,30.1,30.1,0,0,1,6.77-2,71.32,71.32,0,0,1,12.14-1.11,64.57,64.57,0,0,1,12.45,1.16,35.12,35.12,0,0,1,8.25,2.56,8.35,8.35,0,0,1,1.92,1.3c.45.46.48.06.47-.06a7.33,7.33,0,0,0-.85-2c-2.34-4.3-8.59-12.66-21.93-12.66"/><path class="cls-1" d="M18,76.8c0,1.93,8,5.87,24.53,5.87,16,0,24.53-3.94,24.53-5.87l-.08-3c0,.07,0-.19,0-.12,0-.54-.87-.64-3.47-.67l-.06-1.64c0,.17-.54.52-.88.72-2.12,1.22-10.19,3-20.3,3-11.69,0-19.89-2.43-21.18-3.76l0,2.52c3.85,2.75,15.72,5.22,27.69,4a2,2,0,0,1,.84,0c.1,0,.43.32-.22.55-6.95,2.3-24.1,1.79-31.36-3.73l0,2.07"/><path class="cls-1" d="M42.57,82.8c-16.42,0-24.66-3.85-24.66-6h0l0-2.06a.11.11,0,0,1,.06-.12.17.17,0,0,1,.14,0c7.11,5.4,24,6.11,31.24,3.71.22-.08.31-.16.31-.21s-.06-.09-.09-.1A1.06,1.06,0,0,0,49,78l-.27,0C37.2,79.24,25.06,77,21,74a.12.12,0,0,1,0-.1l0-2.52a.13.13,0,0,1,.08-.12.13.13,0,0,1,.13,0c1.3,1.34,9.46,3.72,21.09,3.72,9.79,0,18-1.75,20.23-3a2.54,2.54,0,0,0,.83-.62.13.13,0,0,1,.13-.12.13.13,0,0,1,.12.12l.05,1.52c2.52,0,3.38.15,3.47.72a.85.85,0,0,1,0,.17v0l.08,3c0,2-8.7,6-24.65,6M18,76.8h.12c0,1.64,7.26,5.75,24.41,5.75,16.1,0,24.4-4,24.4-5.75l-.08-2.93v-.06a.11.11,0,0,1,0-.08c0-.43-1-.52-3.35-.55a.12.12,0,0,1-.12-.12l0-1.29a4.74,4.74,0,0,1-.71.48c-2.22,1.28-10.52,3-20.36,3-11.19,0-19.22-2.22-21.05-3.61l0,2.19c4.09,2.86,16.09,5.1,27.55,3.88l.27,0a1.39,1.39,0,0,1,.62.05.39.39,0,0,1,.26.33c0,.19-.16.34-.48.46C42.18,81,25.42,80.29,18.14,75l0,1.81Z"/><path class="cls-1" d="M47.69,38.51h0"/><path class="cls-1" d="M52.37,37.52H47.85c-.23,0-.32.11-.33.33v.5c0,.24.1.35.34.35h1.4c.13,0,.17,0,.17.07s-.2.26-.29.32l-.69.45a.46.46,0,0,0-.18.43l0,32.41c.07.57,1,.62,2,.62.83,0,1.81,0,1.91-.61,0,0,0-30.84,0-33.51,0-.12.06-.15.08-.16a.67.67,0,0,1,.17,0c.21,0,.32-.11.32-.31v-.55a.31.31,0,0,0-.31-.31"/><path class="cls-1" d="M44.94,60.06l.11-.21h.3v-.2H39.07v.2h.33l.09.2.38.78a.45.45,0,0,0,.15.11.89.89,0,0,0,.3.05h1.56a.49.49,0,0,1,.37.1c0,.07.1.26-.13.42l-1.86,1.22A.6.6,0,0,0,40,63a.55.55,0,0,0,0,.23v6.09l-.54.2s-.16,1.22,0,1.34a43.4,43.4,0,0,0,5.47,0c.18-.11,0-1.37,0-1.37l-.54-.18V61.11Z"/><path class="cls-1" d="M42.27,71.05a17.27,17.27,0,0,1-2.87-.12c-.21-.13-.16-.87-.08-1.45a.12.12,0,0,1,.08-.1l.45-.18v-6a.69.69,0,0,1,0-.28.75.75,0,0,1,.29-.3l1.86-1.22a.18.18,0,0,0,.11-.15.15.15,0,0,0,0-.08c0-.05-.18-.05-.27-.06h-.12c-.09,0-.22,0-1.44,0a1.29,1.29,0,0,1-.35-.06.8.8,0,0,1-.19-.14l0,0L39.32,60h-.25a.12.12,0,0,1-.13-.12v-.21a.13.13,0,0,1,.13-.12h6.28a.12.12,0,0,1,.12.12v.21a.18.18,0,0,1,0,.09.14.14,0,0,1-.09,0h-.23l-.57,1.17V69.2l.45.15a.15.15,0,0,1,.09.1c.11.89.08,1.39-.08,1.49a17.54,17.54,0,0,1-2.74.11m-2.73-.33a26.51,26.51,0,0,0,2.73.08c1.48,0,2.41,0,2.6-.07a4.62,4.62,0,0,0,0-1.17l-.47-.16a.11.11,0,0,1-.08-.11V61.11a.13.13,0,0,1,0-.06l.62-1.26,0,0H39.5l0,0,.45,1a.33.33,0,0,0,.1.06.68.68,0,0,0,.26,0h1.55a.6.6,0,0,1,.46.15.36.36,0,0,1,.07.28.45.45,0,0,1-.22.32l-1.86,1.22a.47.47,0,0,0-.19.18.51.51,0,0,0,0,.17v6.11a.12.12,0,0,1-.08.11l-.46.18a3.58,3.58,0,0,0,0,1.14"/><path class="cls-1" d="M61.14,39.29H56.62a.29.29,0,0,0-.33.33v.51c0,.24.1.34.34.34H58c.12,0,.16,0,.16.07s-.2.26-.29.32l-.69.45a.45.45,0,0,0-.18.44L57,71c.06.57,1,.63,2,.62s1.81,0,1.92-.6c0,0,0-27.66,0-30.32,0-.12.06-.15.08-.16a.67.67,0,0,1,.17,0c.21,0,.32-.11.32-.32v-.55a.29.29,0,0,0-.31-.3"/><path class="cls-1" d="M36.42,37.52H31.9c-.22,0-.32.11-.33.33v.5c0,.24.1.35.34.35h1.41c.12,0,.16,0,.16.07s-.2.26-.29.32l-.69.45a.46.46,0,0,0-.18.43l0,32.41c.07.57,1,.62,2,.62.83,0,1.81,0,1.91-.6,0,0,0-30.85,0-33.51,0-.13,0-.16.07-.17a.67.67,0,0,1,.17,0,.28.28,0,0,0,.32-.31v-.55a.31.31,0,0,0-.31-.31"/><path class="cls-1" d="M27.62,39.37H23.09a.3.3,0,0,0-.32.34v.5c0,.24.1.34.34.34h1.41c.12,0,.16.05.16.07s-.2.26-.29.32l-.69.45c-.1,0-.19.18-.18.43l0,29.22c.06.56,1,.62,2,.62s1.82-.06,1.92-.61c0,0,0-27.65,0-30.32,0-.12.05-.15.07-.16a.67.67,0,0,1,.17,0c.21,0,.32-.11.32-.32v-.54a.31.31,0,0,0-.31-.31"/><rect class="cls-1" x="85.73" y="14.78" width="0.8" height="72.5"/><path class="cls-1" d="M116.52,30.8h-.62c-.18-1.29-.43-1.58-1.29-1.58h-1.47v5.36c0,1.14.15,1.32,1.43,1.32v.61h-5.06V35.9c1.28,0,1.44-.18,1.44-1.32V29.22h-1.56c-.61,0-1,.25-1.21,1.58h-.61l.25-2.61h.56a.37.37,0,0,0,.21.17,1.54,1.54,0,0,0,.44,0h5.87c.61,0,.69,0,.82-.21h.56Z"/><path class="cls-1" d="M126.86,31.94V30.3c0-1-.21-1.26-1.1-1.29V28.4h4.43V29c-1,0-1.14.26-1.14,1.12v4.48c0,.91.1,1.28,1.14,1.29v.61h-4.43V35.9c.85,0,1.1-.25,1.1-1.27V32.75H123v1.92c0,.8.09,1.2,1.13,1.23v.61h-4.47V35.9c.9,0,1.14-.2,1.14-1.27V30.27c0-1.05-.28-1.26-1.14-1.26V28.4h4.47V29c-.87,0-1.13.17-1.13,1.24v1.69Z"/><path class="cls-1" d="M141.11,28.4l.12,1.94h-.61c-.12-.88-.32-1.13-1-1.13h-2.56v2.84h1.68c.93,0,1.18-.19,1.18-1h.61v2.73H140c0-.73-.21-.93-1.16-.93h-1.7V35c0,.69.08.74.78.74h1.52c1.13,0,1.43-.49,1.63-1.35h.61l-.17,2.16h-8V35.9c1.19,0,1.4-.27,1.4-1.2V30.21c0-1.1-.38-1.2-1.31-1.2V28.4Z"/><path class="cls-1" d="M159.87,28.4V29c-1.09,0-1.31.2-1.31,1.24v2.88c0,2.61-1.62,3.59-3.85,3.59-2.38,0-3.93-1-3.93-3V30.28c0-.89-.18-1.27-1.09-1.27V28.4h4.45V29c-.94,0-1.17.28-1.17,1.15v3.47c0,1.21.66,2,2.26,2s2.4-.93,2.4-2.58V30.27c0-1-.25-1.26-1.3-1.26V28.4Z"/><path class="cls-1" d="M173,28.4V29c-.94,0-1.17.26-1.17,1.18V36.6h-1l-5.91-6.23v4.3c0,.87.13,1.23,1.24,1.23v.61h-3.36V35.9c.92,0,1.19-.2,1.19-1.29V29.35a1.49,1.49,0,0,0-1.09-.34V28.4h3.07l5,5.27v-3.5c0-.79-.14-1.16-1.2-1.16V28.4Z"/><path class="cls-1" d="M176,36.51V35.9c.92,0,1.12-.34,1.12-1.17V30.27c0-.92-.18-1.26-1.12-1.26V28.4h4.5V29c-1,0-1.19.34-1.19,1.26v4.38c0,.81.08,1.25,1.19,1.25v.61Z"/><path class="cls-1" d="M192.85,29c-.95,0-1.19.19-1.76,1.47l-2.83,6.24h-.95l-2.74-6.08c-.68-1.51-.82-1.63-1.7-1.63V28.4h4.92V29c-1,0-1.33.19-1.33.53a2.28,2.28,0,0,0,.25.79l1.73,3.8,1.5-3.36a3.91,3.91,0,0,0,.46-1.27c0-.34-.34-.51-1.15-.49V28.4h3.6Z"/><path class="cls-1" d="M202.06,28.4l.12,1.94h-.61c-.12-.88-.32-1.13-1-1.13h-2.55v2.84h1.68c.93,0,1.17-.19,1.17-1h.62v2.73h-.62c0-.73-.21-.93-1.16-.93h-1.69V35c0,.69.07.74.78.74h1.51c1.14,0,1.44-.49,1.63-1.35h.62l-.17,2.16h-8V35.9c1.19,0,1.4-.27,1.4-1.2V30.21c0-1.1-.38-1.2-1.31-1.2V28.4Z"/><path class="cls-1" d="M216.57,36.63H215a3.21,3.21,0,0,1-2.47-.78c-.84-.85-1.61-2.23-2.24-2.78h-.69v1.75c0,1,.38,1.08,1.4,1.08v.61H206V35.9c1.1,0,1.36-.2,1.36-1.15V30.2c0-1-.24-1.19-1.36-1.19V28.4c.8,0,1.33-.09,2.38-.14.82,0,1.63-.07,2.07-.07,2.09,0,4,.35,4,2.36,0,1-.64,1.72-1.86,2.13.83.65,1.31,1.79,2.15,2.62a2.39,2.39,0,0,0,1.82.72Zm-7-4.2c1.89,0,2.57-.56,2.57-1.9,0-1-.67-1.71-1.93-1.71h-.64Z"/><path class="cls-1" d="M218.91,34.05a2.44,2.44,0,0,0,2.31,2,1.2,1.2,0,0,0,1.34-1.16c0-1.72-4.14-1.89-4.14-4.42,0-.93.63-2.26,2.77-2.26a17.79,17.79,0,0,1,2,.26.26.26,0,0,0,.28-.17h.43l.22,2.33h-.61a2.31,2.31,0,0,0-2.2-1.73c-.68,0-1.15.34-1.15.82,0,1.36,4.36,1.74,4.36,4.54,0,1.48-1.24,2.48-3.05,2.48a15,15,0,0,1-2.1-.28c-.21,0-.31.11-.33.19h-.42l-.35-2.58Z"/><path class="cls-1" d="M227.74,36.51V35.9c.93,0,1.13-.34,1.13-1.17V30.27c0-.92-.19-1.26-1.13-1.26V28.4h4.5V29c-1,0-1.18.34-1.18,1.26v4.38c0,.81.07,1.25,1.18,1.25v.61Z"/><path class="cls-1" d="M243.94,30.8h-.61c-.19-1.29-.44-1.58-1.29-1.58h-1.48v5.36c0,1.14.16,1.32,1.44,1.32v.61h-5.06V35.9c1.28,0,1.43-.18,1.43-1.32V29.22h-1.55c-.61,0-1,.25-1.21,1.58H235l.25-2.61h.56a.44.44,0,0,0,.21.17,1.54,1.54,0,0,0,.44,0h5.87c.62,0,.69,0,.82-.21h.57Z"/><path class="cls-1" d="M255.77,29c-.88,0-1.11.19-1.81,1.27L252,33.23v1.43c0,.94.13,1.24,1.3,1.24v.61h-4.79V35.9c1.15,0,1.3-.31,1.3-1.25V33.3l-2.4-3.24c-.62-.85-.87-1-1.61-1V28.4h4.69V29c-.64,0-.89.08-.89.33a.88.88,0,0,0,.21.43l1.83,2.48L253,30.19a1.75,1.75,0,0,0,.35-.76c0-.3-.23-.42-.87-.42V28.4h3.3Z"/><path class="cls-1" d="M111.88,49.53c1,0,1.6.86,1.6,2.19a4.37,4.37,0,0,1-4,4.21c-1,0-1.62-.88-1.62-2.13a4.42,4.42,0,0,1,4-4.27m-1.49,5.78c.57,0,1.39-1.48,1.39-3.32,0-1-.39-1.85-.82-1.85-.61,0-1.39,1.51-1.39,3.3,0,1.08.35,1.87.82,1.87"/><path class="cls-1" d="M117.11,55.26a5.13,5.13,0,0,1-1.47,3,3.1,3.1,0,0,1-2.34,1c-.9,0-1.55-.37-1.55-.91a.83.83,0,0,1,.85-.74c.91,0,.88,1.11,1.58,1.11.54,0,.88-.62,1-1.62l1.11-6.72h-1.11l.07-.35a2.56,2.56,0,0,0,1.17-.33c.32-2.09,1.54-3.92,3.58-3.92.89,0,1.4.32,1.4.85a.79.79,0,0,1-.81.78c-.83,0-1.14-1-1.65-1-.36,0-.47.55-.68,1.84l-.24,1.48h1.07l-.15.68h-1Z"/><path class="cls-1" d="M137.24,47.66v.61c-.94,0-1.17.26-1.17,1.17v6.42h-1l-5.91-6.23v4.3c0,.86.13,1.23,1.24,1.23v.61H127v-.61c.91,0,1.18-.2,1.18-1.29V48.61a1.46,1.46,0,0,0-1.09-.34v-.61h3.08l4.95,5.26V49.43c0-.8-.14-1.16-1.2-1.16v-.61Z"/><path class="cls-1" d="M144.29,56c-3.66,0-4.79-2.4-4.79-4.22,0-2.19,1.56-4.31,5.13-4.31s4.72,2.4,4.72,4.17S148.26,56,144.29,56m-.06-7.91c-1.17,0-2.41.84-2.41,3.09,0,2.47,1.18,4.19,2.89,4.19,1.29,0,2.32-1,2.32-3.1,0-2.47-1.14-4.18-2.8-4.18"/><path class="cls-1" d="M162.28,55.89h-1.61a3.15,3.15,0,0,1-2.46-.79c-.85-.84-1.62-2.23-2.25-2.77h-.69v1.74c0,1,.38,1.08,1.4,1.08v.62h-4.94v-.62c1.09,0,1.35-.19,1.35-1.14V49.46c0-1-.23-1.19-1.35-1.19v-.61c.79,0,1.33-.1,2.37-.15.82,0,1.63-.06,2.07-.06,2.09,0,4,.35,4,2.36,0,1-.64,1.72-1.87,2.13.83.65,1.32,1.78,2.15,2.62a2.35,2.35,0,0,0,1.83.71Zm-7-4.2c1.89,0,2.57-.56,2.57-1.91,0-1-.66-1.71-1.93-1.71h-.64Z"/><path class="cls-1" d="M172.6,50.06H172c-.19-1.3-.43-1.58-1.3-1.58h-1.47v5.36c0,1.13.15,1.31,1.43,1.31v.62h-5.06v-.62c1.28,0,1.44-.18,1.44-1.31V48.48h-1.56c-.61,0-1,.24-1.21,1.58h-.61l.25-2.61h.56a.37.37,0,0,0,.21.17,2,2,0,0,0,.44,0H171c.61,0,.69,0,.82-.21h.56Z"/><path class="cls-1" d="M182.69,51.19V49.56c0-1-.21-1.26-1.1-1.29v-.61H186v.61c-.95,0-1.13.26-1.13,1.12v4.48c0,.91.1,1.27,1.13,1.29v.61h-4.42v-.61c.85,0,1.1-.25,1.1-1.27V52h-3.92v1.93c0,.8.09,1.2,1.14,1.23v.61h-4.48v-.61c.9,0,1.15-.2,1.15-1.27V49.52c0-1-.29-1.25-1.15-1.25v-.61h4.48v.61c-.88,0-1.14.17-1.14,1.24v1.68Z"/><path class="cls-1" d="M203.36,53.21a10.84,10.84,0,0,1-.79,2.6l0,.09a1.61,1.61,0,0,0-.38-.08,1.76,1.76,0,0,0-.42,0,7.75,7.75,0,0,0-1.13.1,12,12,0,0,1-1.27.09,4.81,4.81,0,0,1-3.69-1.4,4.07,4.07,0,0,1-1.07-2.72A4.12,4.12,0,0,1,196,48.67a5.58,5.58,0,0,1,3.7-1.22,11.56,11.56,0,0,1,2.49.39.23.23,0,0,0,.24-.18h.48l.12,2.72h-.62a2.77,2.77,0,0,0-.92-1.59,2.59,2.59,0,0,0-1.68-.59c-1.74,0-2.93,1.42-2.93,3.45s1.24,3.57,3.07,3.57a3,3,0,0,0,2.79-2Z"/><path class="cls-1" d="M214.89,55.77h-4.73v-.62c.89,0,1.2-.1,1.2-.44a3.48,3.48,0,0,0-.27-1l-.31-.77h-2.86l-.24.69a6.06,6.06,0,0,0-.29,1c0,.36.44.48,1.15.48v.62h-3.35v-.62c1,0,1.08-.22,1.55-1.57l2-5.84-.12-.29H211l2.37,6.17c.47,1.21.76,1.5,1.51,1.53Zm-5.6-6.69-1.09,3.09h2.29Z"/><path class="cls-1" d="M227.82,55.89h-1.6a3.16,3.16,0,0,1-2.47-.79c-.85-.84-1.61-2.23-2.24-2.77h-.69v1.74c0,1,.38,1.08,1.39,1.08v.62h-4.94v-.62c1.09,0,1.36-.19,1.36-1.14V49.46c0-1-.24-1.19-1.36-1.19v-.61c.8,0,1.33-.1,2.38-.15.82,0,1.63-.06,2.07-.06,2.09,0,4,.35,4,2.36,0,1-.64,1.72-1.87,2.13.84.65,1.32,1.78,2.16,2.62a2.34,2.34,0,0,0,1.82.71Zm-7-4.2c1.89,0,2.57-.56,2.57-1.91,0-1-.67-1.71-1.93-1.71h-.64Z"/><path class="cls-1" d="M234,56c-3.67,0-4.8-2.4-4.8-4.22,0-2.19,1.56-4.31,5.14-4.31s4.72,2.4,4.72,4.17S237.92,56,234,56m-.07-7.91c-1.17,0-2.41.84-2.41,3.09,0,2.47,1.19,4.19,2.89,4.19,1.3,0,2.33-1,2.33-3.1,0-2.47-1.15-4.18-2.81-4.18"/><path class="cls-1" d="M246.47,47.66v.61c-1.11,0-1.33.21-1.33,1.24V54c0,.8.09.93,1,.93h1c.79,0,1.07,0,2.16-1.55h.62l-1,2.36h-7.21v-.61c1.14,0,1.28-.34,1.28-1.27V49.51c0-.94-.14-1.24-1.28-1.24v-.61Z"/><path class="cls-1" d="M252.42,55.77v-.61c.92,0,1.12-.34,1.12-1.18V49.52c0-.91-.18-1.25-1.12-1.25v-.61h4.5v.61c-1.05,0-1.19.34-1.19,1.25V53.9c0,.81.08,1.26,1.19,1.26v.61Z"/><path class="cls-1" d="M270.46,47.66v.61c-.94,0-1.17.26-1.17,1.17v6.42h-1l-5.91-6.23v4.3c0,.86.13,1.23,1.24,1.23v.61h-3.35v-.61c.91,0,1.19-.2,1.19-1.29V48.61a1.47,1.47,0,0,0-1.1-.34v-.61h3.08l5,5.26V49.43c0-.8-.15-1.16-1.21-1.16v-.61Z"/><path class="cls-1" d="M281.45,55.77h-4.73v-.62c.88,0,1.2-.1,1.2-.44a3.63,3.63,0,0,0-.28-1l-.3-.77h-2.87l-.23.69a5.13,5.13,0,0,0-.29,1c0,.36.43.48,1.15.48v.62h-3.35v-.62c1,0,1.08-.22,1.55-1.57l2-5.84-.12-.29h2.35l2.37,6.17c.47,1.21.76,1.5,1.52,1.53Zm-5.61-6.69-1.08,3.09H277Z"/><path class="cls-1" d="M112.55,73.58c-.07.33-.1.56.06.56s.72-.5,1-.87v.49a3.92,3.92,0,0,1-2.13,1.43c-.39,0-.59-.33-.59-.89a4,4,0,0,1,.1-.94h0c-.94,1-1.79,1.83-2.23,1.83s-1-.42-1-1.45a4.86,4.86,0,0,1,1.62-3.47,5.06,5.06,0,0,1,4.19-1.48Zm-.8-3.89a2.2,2.2,0,0,0-1.71.69,3.8,3.8,0,0,0-.93,2.41c0,.61.24,1,.61,1s.81-.46,1.42-1.09Z"/><path class="cls-1" d="M117.28,73.82c-.06.27.07.48.27.48a2.73,2.73,0,0,0,1.14-.88l.27.28a4,4,0,0,1-2.51,1.49c-.56,0-.94-.43-.78-1.27l.88-4.3h-.73l.06-.33A5.72,5.72,0,0,0,118.57,67H119a10.38,10.38,0,0,0-.68,2h1.17l-.13.69h-1.18Z"/><path class="cls-1" d="M135.87,72.47a11.31,11.31,0,0,1-.8,2.59l0,.1a1.61,1.61,0,0,0-.38-.08,1.8,1.8,0,0,0-.42,0,9.49,9.49,0,0,0-1.13.09,12,12,0,0,1-1.26.09,4.83,4.83,0,0,1-3.7-1.39,4.13,4.13,0,0,1,.37-5.91,5.59,5.59,0,0,1,3.7-1.23,11.17,11.17,0,0,1,2.49.4c.12,0,.19-.06.24-.19h.48l.12,2.73h-.61a2.77,2.77,0,0,0-.93-1.59,2.57,2.57,0,0,0-1.68-.59c-1.74,0-2.92,1.42-2.92,3.44s1.24,3.58,3.06,3.58a3,3,0,0,0,2.79-2Z"/><path class="cls-1" d="M146.1,70.45V68.82c0-1-.21-1.27-1.1-1.29v-.62h4.42v.62c-.95,0-1.13.26-1.13,1.12v4.47c0,.91.1,1.28,1.13,1.29V75H145v-.62c.85,0,1.1-.24,1.1-1.26v-1.9h-3.91v1.94c0,.79.09,1.2,1.13,1.22V75h-4.47v-.62c.9,0,1.15-.19,1.15-1.26V68.78c0-1-.29-1.25-1.15-1.25v-.62h4.47v.62c-.87,0-1.13.17-1.13,1.23v1.69Z"/><path class="cls-1" d="M161.23,75H156.5v-.62c.88,0,1.2-.1,1.2-.44a3.3,3.3,0,0,0-.28-1l-.3-.77h-2.87l-.23.7a5.79,5.79,0,0,0-.29,1c0,.35.43.48,1.15.48V75h-3.35v-.62c1,0,1.08-.22,1.55-1.58l2-5.84L155,66.7h2.34l2.38,6.17c.47,1.22.75,1.5,1.51,1.54Zm-5.61-6.7-1.08,3.1h2.28Z"/><path class="cls-1" d="M164.67,69.14c0-1.39,0-1.55-1.16-1.62v-.61l2.57-.14,1.8-.07c2.2,0,3.65.89,3.65,2.53,0,1.11-.76,2.56-3.25,2.56a9.36,9.36,0,0,1-1.42-.14v1.73c0,.77.24,1,1.48,1V75h-4.83v-.62c.93,0,1.16-.26,1.16-1.26ZM166.86,71a2.53,2.53,0,0,0,.61.06,1.68,1.68,0,0,0,1.74-1.9c0-1.15-.62-1.84-1.62-1.84a2.75,2.75,0,0,0-.73.09Z"/><path class="cls-1" d="M181.69,66.91l.12,2h-.62c-.12-.89-.31-1.14-.95-1.14h-2.55v2.84h1.68c.93,0,1.17-.19,1.17-1h.62V72.3h-.62c0-.73-.21-.93-1.16-.93h-1.69v2.1c0,.7.07.75.78.75H180c1.14,0,1.44-.5,1.63-1.36h.61L182.05,75h-8v-.62c1.18,0,1.39-.27,1.39-1.2V68.72c0-1.1-.38-1.19-1.3-1.19v-.62Z"/><path class="cls-1" d="M190.23,66.91v.62c-1.11,0-1.33.2-1.33,1.23v4.53c0,.8.09.93,1,.93h1c.79,0,1.07,0,2.16-1.56h.62l-1,2.37h-7.21v-.62c1.14,0,1.28-.34,1.28-1.26V68.76c0-.94-.14-1.23-1.28-1.23v-.62Z"/><path class="cls-1" d="M208.6,70.45V68.82c0-1-.21-1.27-1.1-1.29v-.62h4.42v.62c-.95,0-1.13.26-1.13,1.12v4.47c0,.91.1,1.28,1.13,1.29V75H207.5v-.62c.85,0,1.1-.24,1.1-1.26v-1.9h-3.91v1.94c0,.79.08,1.2,1.13,1.22V75h-4.48v-.62c.91,0,1.16-.19,1.16-1.26V68.78c0-1-.29-1.25-1.16-1.25v-.62h4.48v.62c-.87,0-1.13.17-1.13,1.23v1.69Z"/><path class="cls-1" d="M215.44,75v-.62c.92,0,1.12-.34,1.12-1.17V68.78c0-.92-.18-1.25-1.12-1.25v-.62h4.5v.62c-1.05,0-1.19.33-1.19,1.25v4.38c0,.81.08,1.25,1.19,1.25V75Z"/><path class="cls-1" d="M227.79,66.91v.62c-1.11,0-1.33.2-1.33,1.23v4.53c0,.8.09.93,1,.93h1c.79,0,1.07,0,2.16-1.56h.61l-1,2.37H223v-.62c1.13,0,1.28-.34,1.28-1.26V68.76c0-.94-.15-1.23-1.28-1.23v-.62Z"/><path class="cls-1" d="M237.52,66.91v.62c-1.11,0-1.33.2-1.33,1.23v4.53c0,.8.09.93,1,.93h1c.8,0,1.07,0,2.17-1.56h.61l-1,2.37h-7.21v-.62c1.13,0,1.28-.34,1.28-1.26V68.76c0-.94-.15-1.23-1.28-1.23v-.62Z"/></g></svg>