<svg xmlns="http://www.w3.org/2000/svg" viewBox="0 0 379.91 102.05"><defs><style>.cls-1{fill:#7bc4c7;}</style></defs><title>LOGO-FamilyEducation</title><g id="NSD_-_Partners" data-name="NSD - Partners"><path class="cls-1" d="M18.68,58.09h2.87V46.41H18.46V40.9h3.09V40c0-7.45,6.52-8.42,10.05-8.42a19,19,0,0,1,2.68.18v6a9.4,9.4,0,0,0-1.85-.13c-1.1,0-3.26,0-3.26,2.2v1.1h4.67v5.51H29.17V58.09h3.35V63.6H18.68Z"/><path class="cls-1" d="M47,49.5h1.37v-.67c0-1.85-1.5-2.51-3.22-2.51a13.14,13.14,0,0,0-6.25,2.16l-2.65-5.15a17.09,17.09,0,0,1,9.61-3c6.61,0,10.13,3.31,10.13,9.26v7.49a.88.88,0,0,0,1,1h1.68V63.6H52c-2.2,0-3-1.28-3-2.38v-.14a2.79,2.79,0,0,1,.09-.7H49a7.49,7.49,0,0,1-6.7,3.75c-4,0-7.44-2.43-7.44-7C34.86,50.46,43.45,49.5,47,49.5Zm-2.42,9.12c1.94,0,3.88-2.34,3.88-4.32v-.53h-.71c-2.51,0-5.2.79-5.2,2.82A1.93,1.93,0,0,0,44.55,58.62Z"/><path class="cls-1" d="M60.19,58.09h2.87V47.34a.85.85,0,0,0-1-.93H60V40.9h7.19c2.07,0,3.17,1,3.17,2.56v.75a5.15,5.15,0,0,1,0,.53h.08a8.55,8.55,0,0,1,7.19-4.37,5.86,5.86,0,0,1,5.9,4.28h.09A8.27,8.27,0,0,1,91,40.37c3.88,0,7.14,2.25,7.14,8.51v9.21H101V63.6H90.56V50.16c0-1.68-.31-2.87-1.77-2.87-3.3,0-4.36,3.13-4.36,6.92v3.88h2.86V63.6H76.81V50.16c0-1.68-.31-2.87-1.77-2.87-3.48,0-4.36,3.7-4.36,7.36v3.44h2.87V63.6H60.19Z"/><path class="cls-1" d="M102.67,58.09h2.87V46.41h-3.09V40.9h10.71V58.09H116V63.6H102.67Zm3-26h7.44V38h-7.44Z"/><path class="cls-1" d="M118.84,37.6h-3.08V32.09h10.71V54.78c0,2.16.4,2.91,2.11,2.91.49,0,.93,0,.93,0v6a19.63,19.63,0,0,1-2.29.14c-4.06,0-8.38-1-8.38-8.6Z"/><path class="cls-1" d="M135.37,66.73c1.59,0,3.13-.44,3.74-1.86l.09-.22-7.49-18.24h-2.55V40.9h12.47v5.51h-2.21l2.78,8.42a13.64,13.64,0,0,1,.53,3h.17a18.11,18.11,0,0,1,.71-3l2.69-8.42h-2.07V40.9H156v5.51h-2.33l-7.32,19.17a10.53,10.53,0,0,1-10.57,7.27,12.25,12.25,0,0,1-6.48-1.76l2.33-5.42A6.33,6.33,0,0,0,135.37,66.73Z"/><path class="cls-1" d="M168.15,40.77c6.35,0,9.65,4.67,9.65,10.44,0,.58-.13,1.63-.13,1.63h-16.3c.26,4.94,3.74,7.58,7.71,7.58a10.83,10.83,0,0,0,6.65-2.51L177.5,61a13.65,13.65,0,0,1-8.68,3.09A11.36,11.36,0,0,1,157,52.45C157,45.35,161.81,40.77,168.15,40.77Zm5.25,9.34c-.13-3.92-2.51-6-5.33-6-3.27,0-5.91,2.21-6.53,6Z"/><path class="cls-1" d="M190.45,40.77a7.55,7.55,0,0,1,6.88,3.75h.08a10.32,10.32,0,0,1-.13-1.68V35.79h-3.7v-3.3h8V59.32a.86.86,0,0,0,1,1h2.24V63.6h-4.45c-2,0-2.77-1-2.77-2.43v-.31a4.7,4.7,0,0,1,.13-1.19h-.09a8,8,0,0,1-7.54,4.46c-6,0-9.73-4.76-9.73-11.68C180.32,45.35,184.46,40.77,190.45,40.77ZM191,60.42c3.31,0,6.43-2.38,6.43-7.93,0-4.1-2.07-8-6.3-8-3.57,0-6.43,2.86-6.43,7.93C184.68,57.29,187.28,60.42,191,60.42Z"/><path class="cls-1" d="M208.74,44.6H205V41.3h8V54.7c0,3.08.62,5.55,4.19,5.55,4.45,0,7.23-4.28,7.23-8.68v-7h-3.75V41.3h8V59.37a.88.88,0,0,0,1,1H232V63.6h-4.63c-1.94,0-2.82-.88-2.82-2.47v-1a9.39,9.39,0,0,1,.09-1.32h-.09a9.12,9.12,0,0,1-8.51,5.29c-4.8,0-7.31-2.65-7.31-8.55Z"/><path class="cls-1" d="M244,40.77c3.31,0,8.73,1.23,8.73,5.07v2.73H249V47c0-1.72-2.82-2.56-4.8-2.56-4.5,0-7.58,3.17-7.58,7.93a7.58,7.58,0,0,0,7.84,8,11.3,11.3,0,0,0,7.14-2.86l1.63,3.13a13.62,13.62,0,0,1-8.95,3.44c-6.43,0-12-4.46-12-11.64A11.47,11.47,0,0,1,244,40.77Z"/><path class="cls-1" d="M268.09,49.89h1.41v-.84c0-3.52-2-4.76-4.75-4.76a11.84,11.84,0,0,0-6.39,2.16l-1.72-3a14.33,14.33,0,0,1,8.46-2.64c5.68,0,8.68,2.95,8.68,8.59v10a.86.86,0,0,0,1,1H277V63.6h-4.45c-2,0-2.78-1-2.78-2.43v-.31a5.28,5.28,0,0,1,.18-1.45h-.09a8.11,8.11,0,0,1-7.36,4.72c-3.7,0-7.41-2.16-7.41-6.75C255.09,50.38,264.39,49.89,268.09,49.89Zm-4.67,10.93c3.79,0,6.13-3.88,6.13-7.23v-.92h-1.1c-2,0-9,.09-9,4.36A3.77,3.77,0,0,0,263.42,60.82Z"/><path class="cls-1" d="M279.68,44.6h-3.74V41.3h3.83V35.17H284V41.3h5.33v3.3H284V55.05c0,4.54,3.08,5.11,4.76,5.11.61,0,1,0,1,0v3.56a11.85,11.85,0,0,1-1.54.09c-2.82,0-8.51-.88-8.51-8.33Z"/><path class="cls-1" d="M291.93,60.29h3.48V44.6h-3.7V41.3h8v19h3.52V63.6H291.93Zm3.4-27.8h4.49v4.36h-4.49Z"/><path class="cls-1" d="M316.35,40.77c6.65,0,12,4.89,12,11.63a12,12,0,0,1-24.06,0C304.32,45.66,309.69,40.77,316.35,40.77Zm0,19.65a7.72,7.72,0,0,0,7.66-8,7.67,7.67,0,1,0-15.33,0A7.7,7.7,0,0,0,316.35,60.42Z"/><path class="cls-1" d="M329.3,60.29h3.48V45.57a.86.86,0,0,0-1-1h-2.73V41.3h5c1.94,0,2.82.84,2.82,2.47v1.14a6.41,6.41,0,0,1-.13,1.28h.09a9.38,9.38,0,0,1,8.68-5.42c5.11,0,7.4,2.86,7.4,8.55v11h3.53V63.6h-7.8V50.29c0-3.13-.62-5.6-4.19-5.6-4.49,0-7.44,4.1-7.44,8.55v7h3.52V63.6H329.3Z"/><path class="cls-1" d="M359.69,38.13a5,5,0,1,1-4.84,5A4.91,4.91,0,0,1,359.69,38.13Zm0,9a4.06,4.06,0,1,0-3.84-4A3.91,3.91,0,0,0,359.69,47.15ZM358,40.51h2a1.51,1.51,0,0,1,1.63,1.57,1.36,1.36,0,0,1-.94,1.36v0a1.36,1.36,0,0,1,.17.29l1,1.89h-1.06l-.95-2H359v2h-1ZM359.81,43a.8.8,0,0,0,.84-.87.77.77,0,0,0-.84-.83H359V43Z"/></g></svg>