<svg xmlns="http://www.w3.org/2000/svg" viewBox="0 0 196.37 54.25"><defs><style>.cls-1{fill:#006db6;}.cls-2{fill:#ffcf42;}</style></defs><title>Logo-UMKCMed</title><g id="Layer_2" data-name="Layer 2"><g id="NSD_-_Partners" data-name="NSD - Partners"><path class="cls-1" d="M139.24,24.21c0-1.39-.5-2.35-2.06-2.35A2,2,0,0,0,135,24c0,3.72,6.25,1.5,6.25,6.33,0,3.06-2.25,3.93-4.12,3.93-3.09,0-4-1.6-4-4.41h1.63c0,1.48.11,3.07,2.48,3.07a2.22,2.22,0,0,0,2.3-2.33c0-3.74-6.24-1.57-6.24-6.43,0-1.22.52-3.65,3.87-3.65,2.54,0,3.65,1.24,3.71,3.69Z"/><path class="cls-1" d="M147.61,27.1c0-1-.39-2.06-1.58-2.06-1,0-1.94.49-1.94,4.12,0,1.27,0,3.89,1.89,3.89,1.33,0,1.63-1.41,1.63-2.49h1.55c0,1.56-.78,3.71-3.26,3.71s-3.44-1.67-3.44-5.1c0-2.46.48-5.35,3.53-5.35a3,3,0,0,1,3.17,3.28Z"/><path class="cls-1" d="M150.83,20.78h1.55v4.43h0a2.88,2.88,0,0,1,2.39-1.39c2.57,0,2.56,2,2.56,3.15v7h-1.56V27.16c0-.76-.06-2-1.46-2a1.93,1.93,0,0,0-2,2V34h-1.55Z"/><path class="cls-1" d="M162.55,23.82c2.87,0,3.58,2.43,3.58,5.22s-.73,5.23-3.58,5.23S159,31.84,159,29,159.68,23.82,162.55,23.82ZM164.5,29c0-2.14-.3-4-2-4s-1.9,1.86-1.9,4,.31,4,1.9,4S164.5,31.19,164.5,29Z"/><path class="cls-1" d="M170.83,23.82c2.87,0,3.57,2.43,3.57,5.22s-.72,5.23-3.57,5.23-3.58-2.43-3.58-5.23S168,23.82,170.83,23.82ZM172.77,29c0-2.14-.29-4-2-4s-1.91,1.86-1.91,4,.32,4,1.91,4S172.77,31.19,172.77,29Z"/><path class="cls-1" d="M176.11,20.78h1.55V34h-1.55Z"/><path class="cls-1" d="M187.44,23.82c2.87,0,3.58,2.43,3.58,5.22s-.73,5.23-3.58,5.23-3.57-2.43-3.57-5.23S184.57,23.82,187.44,23.82ZM189.39,29c0-2.14-.3-4-2-4s-1.9,1.86-1.9,4,.31,4,1.9,4S189.39,31.19,189.39,29Z"/><path class="cls-1" d="M193.09,25.3h-1.45V24.08h1.45V22.91c0-1.5.65-2.28,2.15-2.28h1.13V22h-.73c-.66,0-1,.26-1,.94v1.17h1.71V25.3h-1.71V34h-1.55Z"/><path class="cls-1" d="M133.66,40.52h2.74L139.05,51h0l2.65-10.49h2.74V53.75h-1.63V42.19h0l-2.93,11.56h-1.63l-2.92-11.56h0V53.75h-1.63Z"/><path class="cls-1" d="M148,49c0,1.54,0,3.81,1.91,3.81,1.48,0,1.68-1.53,1.68-2.29h1.56A3.35,3.35,0,0,1,149.77,54c-2.44,0-3.44-1.67-3.44-5.1,0-2.46.48-5.35,3.54-5.35s3.31,2.63,3.31,4.78V49Zm3.59-1.22v-.54c0-1.11-.33-2.43-1.72-2.43-1.63,0-1.82,2-1.82,2.59v.38Z"/><path class="cls-1" d="M161.48,53.75H160V52.52h0A2.25,2.25,0,0,1,157.81,54c-2.35,0-3.24-2.12-3.24-5.23,0-2.07.31-5.22,3.13-5.22A2.39,2.39,0,0,1,159.89,45h0V40.52h1.56ZM158,52.67c1.71,0,2-1.61,2-3.89,0-1.92-.31-3.89-2-3.89-1.42,0-1.81,1.52-1.81,3.89S156.59,52.67,158,52.67Z"/><path class="cls-1" d="M163.66,40.52h1.56V42.3h-1.56Zm0,3.3h1.56v9.93h-1.56Z"/><path class="cls-1" d="M172.12,46.84c0-1-.38-2.06-1.57-2.06-1,0-1.94.48-1.94,4.11,0,1.28,0,3.89,1.89,3.89,1.33,0,1.62-1.4,1.62-2.48h1.56c0,1.56-.78,3.71-3.26,3.71S167,52.34,167,48.91c0-2.46.49-5.35,3.54-5.35a3,3,0,0,1,3.17,3.28Z"/><path class="cls-1" d="M175.44,40.52H177V42.3h-1.56Zm0,3.3H177v9.93h-1.56Z"/><path class="cls-1" d="M179.18,43.82h1.48V45h0a2.66,2.66,0,0,1,2.41-1.43c2.61,0,2.61,2,2.61,3.15v7h-1.56V46.89c0-.76,0-2-1.46-2a1.93,1.93,0,0,0-2,2v6.86h-1.56Z"/><path class="cls-1" d="M189.11,49c0,1.54,0,3.81,1.91,3.81,1.48,0,1.68-1.53,1.68-2.29h1.56A3.35,3.35,0,0,1,190.92,54c-2.44,0-3.44-1.67-3.44-5.1,0-2.46.48-5.35,3.54-5.35s3.31,2.63,3.31,4.78V49Zm3.59-1.22v-.54c0-1.11-.33-2.43-1.72-2.43-1.63,0-1.82,2-1.82,2.59v.38Z"/><path class="cls-1" d="M33.2,22.36c.51,0,.77-.09.77-.38s-.3-.38-.89-.38c-1.66,0-4.33.12-4.84.12,0,0-2.71-.12-4.88-.12-.59,0-.89.08-.89.38s.26.38.72.38a8.72,8.72,0,0,1,1.53.12c1.4.3,1.74,1,1.82,2.42s.09,2.55.09,9v5.3c0,4.37-.13,8.19-2.46,10.52A8.3,8.3,0,0,1,18.32,52,7.85,7.85,0,0,1,13,50.26C10.94,48.56,9.71,46,9.71,39.83V33.89c0-6.44,0-7.63.09-9s.42-2.2,1.56-2.42a6.84,6.84,0,0,1,1.24-.12c.42,0,.67-.09.67-.38s-.29-.38-.93-.38c-1.53,0-4.2.12-5.21.12-1.28,0-3.95-.12-6.2-.12C.3,21.6,0,21.68,0,22s.26.38.72.38a9.27,9.27,0,0,1,1.66.12c1.39.3,1.73,1,1.82,2.42s.08,2.55.08,9v6.19c0,6.15,1.61,9.29,3.78,11.24,3.09,2.79,7.16,2.93,9.41,2.93a12.64,12.64,0,0,0,8.82-3.06c3.56-3,4-8,4-12.76V33.89c0-6.44,0-7.63.08-9s.43-2.2,1.57-2.42A6.81,6.81,0,0,1,33.2,22.36Z"/><path class="cls-1" d="M122.8,45.77c-.33,0-.42.16-.55.84a7.08,7.08,0,0,1-1.44,2.8c-1.7,2-4,2.37-7.76,2.37-5.68,0-13.36-5-13.36-15.09,0-4.12.81-8.14,3.9-11,1.87-1.7,4.28-2.63,8-2.63,3.91,0,7.21,1.14,8.61,2.63a6.1,6.1,0,0,1,1.66,3.9c0,.59.08.93.42.93s.47-.34.51-1c.09-.85,0-3.18.13-4.58s.21-2,.21-2.34-.17-.46-.63-.5c-1.28-.13-2.64-.51-4.25-.72a41.09,41.09,0,0,0-6.15-.43c-6.31,0-10.34,1.7-13.4,4.5a16,16,0,0,0-5,11.61A16,16,0,0,0,99,49.62c3.86,3.35,8.74,4.63,14.55,4.63a24.48,24.48,0,0,0,7.63-1,1.5,1.5,0,0,0,1.1-1.23,40.76,40.76,0,0,0,.93-5.64C123.18,46.06,123.1,45.77,122.8,45.77Z"/><path class="cls-1" d="M99.66,52.89A7.36,7.36,0,0,1,97,52.25c-2.29-.89-4.2-2.79-6.06-4.58C89.31,46.1,81,37.16,79.48,35.16c1.44-1.53,7.84-7.88,9.16-9.16a13.5,13.5,0,0,1,4.58-3.18,8.41,8.41,0,0,1,2.45-.46c.43,0,.64-.09.64-.39s-.3-.38-.72-.38c-1.32,0-3.65.13-5,.13-1.15,0-3.48-.13-4.37-.13-.47,0-.68.09-.68.38s.17.34.55.43.6.38.6.84c0,.73-.94,1.79-2.12,3.19s-7.42,7.76-8.87,9.33h-.21V29.94c0-1.44,0-2.4,0-3.13a4.28,4.28,0,0,0-1.66-2.9c-2.79-2.47-12.08-5.09-19.76-9.62a9.32,9.32,0,0,1-4.46-5.18c-1,4.89,2.12,8.44,8,10.9.54.23,11.41,5.06,11.68,5.21s1.39.65,1.4,1.63c0,.63-.2,15.41-.27,22.74h0c0,.26,0,.52,0,.77h0c0,.53,0,1,0,1.43,0,.13,0,.25,0,.36h0c0,.41,0,.75,0,1a9.7,9.7,0,0,1-1.31-.1,2.06,2.06,0,0,1-1.5-.9h0l-.32-2.38-2-15.89-1-8.49L61.08,24,50.63,45.89,39.05,22c-.55-1.1-.8-1.31-1.14-1.31s-.6.38-.73,1.1L33,49.41c-.21,1.44-.55,3.1-1.74,3.35a5.34,5.34,0,0,1-1.27.13c-.43,0-.68.08-.68.29,0,.38.34.47.76.47,1.36,0,3.39-.13,4.2-.13s2.67.13,4.45.13c.64,0,1-.09,1-.47,0-.21-.3-.29-.64-.29a8.89,8.89,0,0,1-1.78-.21c-.72-.17-1.27-.56-1.27-1.36a15.94,15.94,0,0,1,.13-2l2.2-16.87h.17C40,35.63,42.57,41,43,41.87c.52,1.18,3.86,7.67,4.88,9.62.68,1.27,1.1,2.12,1.49,2.12s.59-.38,1.56-2.37L60.13,32h.16l2.47,18.11.08.34c0,.21.11.81.28,1.59-.07.57-.72.84-1.57,1a16.27,16.27,0,0,1-2.22.16c-.42,0-.79.07-.79.23s.48.37,1.27.37c2.21,0,4.59-.1,5.53-.1s3.37.09,5,.1h7.47c.39,0,.67-.1.67-.34s-.17-.28-.46-.28A15.1,15.1,0,0,1,76.34,53c-.84-.13-1-.83-1-1.74,0-.51,0-1.06,0-1.7h0l.18-12.07h.21l.47.64c.89,1.23,9.25,11,11.11,12.68s3,2.55,5.26,2.75a27.84,27.84,0,0,0,2.93.09h3.68c.81,0,1-.13,1-.42S100,52.89,99.66,52.89Z"/><path class="cls-2" d="M50.32,8.57s2.78,3.85,20.25,10.6a7.66,7.66,0,0,1,4.91,4.64s1-5.66-2.41-8.27S48.37,6.66,49.67,0C48.55,3.26,48.54,6.67,50.32,8.57Z"/></g></g></svg>