<svg xmlns="http://www.w3.org/2000/svg" xmlns:xlink="http://www.w3.org/1999/xlink" viewBox="0 0 379.91 102.05"><defs><style>.cls-1{fill:#fff;}.cls-2,.cls-3,.cls-4,.cls-5{opacity:0.85;}.cls-2{fill:url(#linear-gradient);}.cls-3{fill:#eb972a;}.cls-4{fill:url(#linear-gradient-2);}.cls-5{fill:url(#linear-gradient-3);}</style><linearGradient id="linear-gradient" x1="61.09" y1="37.52" x2="97.15" y2="37.52" gradientUnits="userSpaceOnUse"><stop offset="0" stop-color="#eb972a"/><stop offset="1" stop-color="#d4442a"/></linearGradient><linearGradient id="linear-gradient-2" x1="61.09" y1="65.49" x2="97.15" y2="65.49" xlink:href="#linear-gradient"/><linearGradient id="linear-gradient-3" x1="25.03" y1="65.49" x2="61.09" y2="65.49" gradientUnits="userSpaceOnUse"><stop offset="0" stop-color="#eb972a"/><stop offset="1" stop-color="#eb972a"/></linearGradient></defs><title>LOGO-SandboxCo</title><g id="NSD_-_Partners" data-name="NSD - Partners"><path class="cls-1" d="M108.9,56.13v1.28c0,1.28,1.65,2,3.47,2,2,0,3.43-.93,3.43-2.65,0-2-2-2.68-4.17-3.52S107,51.44,107,48.37c0-3.27,2.63-4.67,5.55-4.67,2.61,0,5.26,1,5.26,2.88v2h-2.29V47.41c0-1-1.54-1.55-3-1.55-1.69,0-3,.79-3,2.39,0,1.84,1.74,2.45,3.68,3.19,2.55,1,5.09,1.94,5.09,5.16s-2.71,5-5.92,5c-2.71,0-5.73-1.21-5.73-3.69V56.13Z"/><path class="cls-1" d="M127,53.7h.79v-.47a2.36,2.36,0,0,0-2.66-2.65,6.64,6.64,0,0,0-3.56,1.2l-1-1.69a8,8,0,0,1,4.72-1.47c3.17,0,4.84,1.64,4.84,4.79V59a.48.48,0,0,0,.54.54h1.25v1.84h-2.48c-1.1,0-1.54-.54-1.54-1.35v-.17A3.28,3.28,0,0,1,128,59h0a4.51,4.51,0,0,1-4.1,2.63c-2.06,0-4.13-1.21-4.13-3.76C119.73,54,124.92,53.7,127,53.7Zm-2.6,6.09c2.11,0,3.41-2.16,3.41-4v-.52h-.61c-1.13,0-5,0-5,2.43A2.09,2.09,0,0,0,124.38,59.79Z"/><path class="cls-1" d="M133.12,59.5h1.94V51.29a.48.48,0,0,0-.54-.54H133V48.91h2.8c1.08,0,1.57.47,1.57,1.38v.64a3.71,3.71,0,0,1-.07.71h0a5.2,5.2,0,0,1,4.84-3c2.85,0,4.12,1.59,4.12,4.76V59.5h2v1.84h-4.35V53.92c0-1.74-.34-3.12-2.33-3.12-2.51,0-4.15,2.29-4.15,4.77V59.5h2v1.84h-6.29Z"/><path class="cls-1" d="M154.94,48.62a4.21,4.21,0,0,1,3.83,2.08h0a5.82,5.82,0,0,1-.07-.93V45.84h-2.07V44h4.45V59a.48.48,0,0,0,.54.54h1.25v1.84h-2.48c-1.11,0-1.55-.54-1.55-1.35v-.17a2.41,2.41,0,0,1,.08-.67h-.05a4.44,4.44,0,0,1-4.2,2.49c-3.34,0-5.43-2.66-5.43-6.51S151.6,48.62,154.94,48.62Zm.29,11c1.84,0,3.59-1.32,3.59-4.42,0-2.28-1.16-4.45-3.51-4.45-2,0-3.59,1.6-3.59,4.43S153.17,59.57,155.23,59.57Z"/><path class="cls-1" d="M165.18,45.84h-2.09V44h4.47v5.75a7.27,7.27,0,0,1-.07,1h0a4.48,4.48,0,0,1,4-2.16c3.37,0,5.48,2.65,5.48,6.51s-2.38,6.51-5.67,6.51a4.33,4.33,0,0,1-3.93-2.26h0a7,7,0,0,1,.07,1v1h-2.26ZM171,59.57c1.94,0,3.56-1.59,3.56-4.42s-1.45-4.45-3.51-4.45c-1.85,0-3.59,1.31-3.59,4.48C167.49,57.39,168.64,59.57,171,59.57Z"/><path class="cls-1" d="M185.13,48.62a6.51,6.51,0,1,1-6.71,6.48A6.47,6.47,0,0,1,185.13,48.62Zm0,11a4.45,4.45,0,1,0-4.28-4.47A4.3,4.3,0,0,0,185.13,59.57Z"/><path class="cls-1" d="M192.82,59.5h1.86l3-4.57-2.75-4.18h-2V48.91h3.49l2.21,3.61c.22.37.42.81.42.81h.05a7.26,7.26,0,0,1,.44-.81l2.26-3.61h3.29v1.84h-1.89l-2.78,4.15,3.07,4.6h1.68v1.84H202l-2.51-4a6.41,6.41,0,0,1-.44-.78h0a6.45,6.45,0,0,1-.44.81l-2.46,4h-3.24Z"/><path class="cls-1" d="M215.22,52V52a3.85,3.85,0,0,1-2.41-3.81c0-2.87,2.39-4.47,5.56-4.47a10.86,10.86,0,0,1,2.16.27l-.62,1.94a8,8,0,0,0-1.3-.14c-1.87,0-3.32.95-3.32,2.65,0,1.13.52,2.78,3.22,2.78h3.69V48.79h2.38V51.2h2.29v2h-2.29v2.36c0,3.86-2.41,6.07-6.21,6.07s-6.29-2.24-6.29-5.14A4.61,4.61,0,0,1,215.22,52Zm3.15,7.42c2.3,0,3.83-1.23,3.83-4V53.21h-3.81c-2.48,0-3.83,1.18-3.83,3.1S216,59.45,218.37,59.45Z"/><path class="cls-1" d="M242.44,43.7c2.09,0,6.61.76,6.61,3.44v2.11h-2.29V47.9c0-1.52-2.63-2.08-4.22-2.08a6.3,6.3,0,0,0-6.44,6.65c0,4.11,2.8,7,6.59,7,1.22,0,4.32-.44,4.32-2V56.11h2.28v2.11c0,2.56-4.34,3.42-6.75,3.42a8.83,8.83,0,0,1-9-9.07A8.69,8.69,0,0,1,242.44,43.7Z"/><path class="cls-1" d="M257.72,48.62A6.51,6.51,0,1,1,251,55.1,6.48,6.48,0,0,1,257.72,48.62Zm0,11a4.45,4.45,0,0,0,0-8.89,4.45,4.45,0,0,0,0,8.89Z"/><polygon class="cls-2" points="61.09 9.56 61.09 37.22 97.16 65.49 97.16 37.52 61.09 9.56"/><polygon class="cls-3" points="61.09 9.56 61.09 37.22 25.03 65.49 25.03 37.52 61.09 9.56"/><polygon class="cls-4" points="97.16 37.52 97.16 65.18 61.09 93.45 61.09 65.49 97.16 37.52"/><polygon class="cls-5" points="25.03 37.52 25.03 65.18 61.09 93.45 61.09 65.49 25.03 37.52"/></g></svg>