<svg xmlns="http://www.w3.org/2000/svg" viewBox="0 0 809.4 102.05"><defs><style>.cls-1{fill:#f1b82c;}.cls-2{fill:#010101;}.cls-3,.cls-4{fill:#fff;}.cls-4{font-size:23.07px;font-family:JansonTextLT-Roman, JansonText LT;}.cls-5{fill:none;stroke:#fff;stroke-linecap:round;stroke-miterlimit:10;stroke-width:2px;}</style></defs><title>LOGO-UnivMO copy</title><g id="NSD_-_Partners" data-name="NSD - Partners"><rect class="cls-1" x="22.58" y="18.94" width="344.3" height="65.59"/><path class="cls-2" d="M53.41,72.94c-7.32,0-12.62-1.32-15.75-3.93a7.47,7.47,0,0,1-2.95-5.68V30.52H51.3l2.34,5.28L56,30.52h16.6V63.33a7.47,7.47,0,0,1-3,5.68c-3.13,2.61-8.43,3.93-15.75,3.93Z"/><path class="cls-3" d="M72.8,30.3h-17l-.12.26-2.08,4.69-2.07-4.69-.12-.26h-17v33a7.67,7.67,0,0,0,3,5.85c3.18,2.64,8.53,4,15.9,4h.47c7.37,0,12.72-1.34,15.89-4a7.66,7.66,0,0,0,3-5.85v-33Zm-.44.44V63.33c0,2.16-1.49,9.39-18.48,9.39h-.47c-17,0-18.48-7.23-18.48-9.39V30.74H51.16l2.48,5.61,2.49-5.61Z"/><path class="cls-1" d="M53.63,62.91c5.58,0,5.48-2,5.52-2.46V57.34c0-.63-.43-1.12-1.22-1.54V53.61h9.58v2.17c-.78.42-1.21.91-1.21,1.54V60.1c0,2,.92,7.15-12.67,7.15S41,62.14,41,60.1V57.32c0-.63-.43-1.12-1.21-1.54V53.61h9.58V55.8c-.79.42-1.22.91-1.22,1.54v3.11c0,.49-.06,2.46,5.51,2.46"/><path class="cls-1" d="M53.63,43.79l4.63-8.33H67.5v2.17c-.79.42-1.21.92-1.21,1.55v6.61c0,.63.42,1.12,1.21,1.55v2.17H58.75V47.32c.79-.42,1.22-.91,1.22-1.54v-5l-5.26,8.77H52.55L47.3,40.74v5c0,.63.43,1.12,1.21,1.54v2.19H39.77V47.34c.78-.43,1.21-.92,1.21-1.55V39.18c0-.63-.43-1.13-1.21-1.55V35.46H49Z"/><path class="cls-2" d="M90.91,52.84c0,3.76,1.56,7,6.27,7,3.27,0,6.1-1.82,6.1-8.48V45.84c0-3.89-.81-3.89-3.7-3.89-.22,0-.22-.17-.22-.42s.09-.42.22-.42c.48,0,2.3.11,4.12.11.87,0,3.25-.11,3.64-.11s.39.06.39.48c0,.11,0,.36-.25.36-2.69,0-3.25,0-3.25,3.31v6.63c0,7.56-4.81,9.58-8.06,9.58-6.27,0-8-4.2-8-7.28V47.78c0-2,0-2.67,0-4,0-1.65-.51-1.88-2.94-1.88-.31,0-.31-.22-.31-.47s.06-.37.25-.37,2.66.11,4.43.11,4.22-.11,4.45-.11.25.2.25.37,0,.47-.31.47c-2.43,0-2.91.23-2.94,1.88,0,1.28,0,2,0,4Z"/><path class="cls-2" d="M112.49,58.47c0,1.6.06,1.93,1.29,1.93.75,0,.81,0,.81.37,0,.16,0,.36-.28.36s-.51-.06-2.47-.06c-2.63,0-3.35.06-3.78.06-.22,0-.22-.17-.22-.31,0-.36,0-.42,1.07-.42a1,1,0,0,0,1.14-.67,27,27,0,0,0,.17-4V51.86c0-1-.25-1.54-1.65-1.68-.22,0-.25-.14-.25-.33s.08-.37.22-.4a12.37,12.37,0,0,0,3.92-1.37c.06,0,.09.09.09.31s-.06.79-.06,2c1.45-1,2.88-1.94,4.4-1.94,1,0,3.69.2,3.69,4.21V59.4c0,.47.08,1,1.82,1,.28,0,.28.17.28.37s0,.36-.39.36c-.84,0-1.34-.06-2.83-.06-2.27,0-2.72.06-2.94.06s-.2-.2-.2-.33a.37.37,0,0,1,.4-.4c1.34,0,1.59-.11,1.59-1v-5c0-2.61-.22-4.34-3.13-4.34a4.17,4.17,0,0,0-2.69,1.28Z"/><path class="cls-2" d="M125.59,42.71a1.46,1.46,0,1,1,1.46,1.48,1.49,1.49,0,0,1-1.46-1.48m2.6,15.76c0,1.6.06,1.93,1.29,1.93.62,0,.67,0,.67.37,0,.16,0,.36-.27.36s-.51-.06-2.33-.06c-2.63,0-3.36.06-3.78.06-.22,0-.22-.17-.22-.31,0-.36,0-.42,1.06-.42a1.05,1.05,0,0,0,1.15-.67,28.54,28.54,0,0,0,.17-4V51.86c0-1-.25-1.54-1.66-1.68-.22,0-.25-.14-.25-.33s.09-.37.23-.4a12.51,12.51,0,0,0,3.92-1.37c.11,0,.16.14.16.31a25.24,25.24,0,0,0-.14,4Z"/><path class="cls-2" d="M141,50.49c0-.81-1.45-.81-1.87-.81-.17,0-.25-.17-.25-.39a.35.35,0,0,1,.36-.34c.76,0,1.63.06,2.41.06s1.65-.06,2.46-.06c.2,0,.25.2.25.34s0,.28-.28.3c-1.62.26-1.7.37-2.6,2.55-1,2.41-2.66,5.94-3.16,7.11-.79,1.88-1,2.22-1.26,2.22s-.51-.59-1.07-1.79c-1-2.1-3.3-8.94-3.69-9.5a1,1,0,0,0-1-.45c-.76,0-.87-.08-.87-.47a.29.29,0,0,1,.31-.31c.89,0,1.76.06,2.66.06.56,0,2.77-.06,3.33-.06.19,0,.22.25.22.39s-.11.34-.28.34c-.84,0-1.62.08-1.62.67,0,.93,2.27,6.58,2.85,7.81,2.64-5.85,3.08-6.91,3.08-7.67"/><path class="cls-2" d="M151.32,52.68c.56,0,1-.17,1-.93a2.37,2.37,0,0,0-2.46-2.66c-2,0-2.86,1.68-3.14,3.59Zm-4.82.84a10.62,10.62,0,0,0-.11,1.59A4.72,4.72,0,0,0,151,59.73a3.66,3.66,0,0,0,3.28-1.68c.17-.22.28-.47.42-.47a.59.59,0,0,1,.45.33,5.12,5.12,0,0,1-4.82,3.56c-4,0-6.1-2.47-6.1-6.39s2.71-6.72,5.6-6.72a4.69,4.69,0,0,1,5,4.85c0,.28-.11.31-.34.31Z"/><path class="cls-2" d="M158.74,51.86c0-1-.26-1.54-1.66-1.68-.22,0-.25-.14-.25-.33s.09-.37.23-.4A12.51,12.51,0,0,0,161,48.08c.05,0,.11.17.11.28,0,.34-.14,1-.14,2.55.92-1,2.43-2.43,3.92-2.43A1.59,1.59,0,0,1,166.66,50a1.38,1.38,0,0,1-1.37,1.4c-1.15,0-1.32-1.06-2.16-1.06a3.16,3.16,0,0,0-1.93,1.2,1.19,1.19,0,0,0-.2.82v6.35c0,1,0,1.65,1.4,1.65,1,0,1.15,0,1.15.34s-.11.39-.42.39c-1,0-1.9-.05-3.19-.05-2.24,0-2.71.05-3.25.05-.19,0-.25-.17-.25-.36s.34-.37.87-.37c1.2,0,1.43-.22,1.43-1.42Z"/><path class="cls-2" d="M176.21,57.66c0,1.37-.73,3.81-4.57,3.81-.5,0-2.12-.23-3.22-.23a.18.18,0,0,1-.14-.14c0-.28-.64-2.74-.64-3s.39-.17.5-.17c.67,0,.84,2.83,3.53,2.83a2.38,2.38,0,0,0,2.55-2.49c0-2.94-6.27-2-6.27-6,0-2.29,1.9-3.81,4.25-3.81a21.81,21.81,0,0,1,3,.26c.36.08.42.61.42.78,0,1.15.3,1.88.3,2.24,0,.17-.16.23-.3.23s-.42,0-.56-.4-.93-2.38-2.92-2.38a2,2,0,0,0-2.24,2.1,2.13,2.13,0,0,0,1.32,1.88c2.94,1.4,5,1.32,5,4.48"/><path class="cls-2" d="M179.65,42.71a1.46,1.46,0,1,1,1.46,1.48,1.49,1.49,0,0,1-1.46-1.48m2.6,15.76c0,1.6.06,1.93,1.29,1.93.62,0,.67,0,.67.37,0,.16,0,.36-.28.36s-.5-.06-2.32-.06c-2.63,0-3.36.06-3.78.06-.23,0-.23-.17-.23-.31,0-.36,0-.42,1.07-.42a1.05,1.05,0,0,0,1.15-.67,29.16,29.16,0,0,0,.16-4V51.86c0-1-.25-1.54-1.65-1.68-.22,0-.25-.14-.25-.33s.09-.37.23-.4a12.21,12.21,0,0,0,3.91-1.37c.12,0,.17.14.17.31a25.24,25.24,0,0,0-.14,4Z"/><path class="cls-2" d="M189,56.15c0,3,.25,4,2.46,4a4.57,4.57,0,0,0,1.9-.65c.12,0,.31.29.31.45s-1.17,1.49-3.72,1.49c-3.22,0-3.22-2.77-3.22-3.48V50.63c0-.22-.09-.36-.28-.36h-1.4c-.09,0-.17-.09-.17-.25a.5.5,0,0,1,.17-.4c2.6-2,3.13-3.44,3.69-3.44a.33.33,0,0,1,.34.36c0,.51-.08,1-.08,2.58h4.31c.19,0,.28.19.28.59s-.17.7-.76.7c-.19,0-1.51-.14-3.83-.14Z"/><path class="cls-2" d="M205.94,50.63c0-.92-1.32-1-2.16-1-.25,0-.28-.14-.28-.37s.11-.36.25-.36c.9,0,1.82.06,2.72.06s1.74-.06,2.6-.06c.2,0,.2.25.2.36s-.08.34-.48.37A1.67,1.67,0,0,0,207,50.91c-1,2.32-4.87,10.45-5.49,12-2.16,5.41-3.08,5.77-4,5.77a1.58,1.58,0,1,1,.05-3.16c.7,0,1.07.47,1.4.47.5,0,1.82-2.68,1.82-4a13.43,13.43,0,0,0-1-3.14c-1.76-4.53-2.29-7-2.88-8.54-.25-.64-1.65-.64-2-.64-.19,0-.25-.2-.25-.39A.3.3,0,0,1,195,49c.33,0,2.1.06,3.11.06S200,49,200.87,49c.28,0,.33.17.33.36s-.08.37-.28.37-1.37,0-1.37.61c0,1.35.95,4.12,2.77,8.8,1.29-2.66,3.62-7.59,3.62-8.46"/><path class="cls-2" d="M223.46,49.2c-2.91,0-3.84,3-3.84,5.77,0,2.38.56,5.77,3.84,5.77s3.86-3.39,3.86-5.77c0-2.74-.92-5.77-3.86-5.77m0,12.27A6.27,6.27,0,0,1,217,55a6.51,6.51,0,0,1,13,0,6.14,6.14,0,0,1-6.52,6.5"/><path class="cls-2" d="M236.36,58.75c0,1,0,1.65,1.4,1.65,1,0,1.15,0,1.15.34s-.11.39-.42.39c-1,0-1.9-.06-3.19-.06-2.24,0-2.72.06-3,.06s-.25-.17-.25-.36.06-.37.59-.37c1.2,0,1.43-.22,1.43-1.43V51.16c0-.33,0-.89-.54-.89H232c-.19,0-.33,0-.33-.37,0-.22.19-.33.87-.47,1.09-.25,1.37-.31,1.45-1.57.28-4.26,1.54-6.61,4.85-7.48a8.41,8.41,0,0,1,1.7-.22c.73,0,1.77.28,1.77,1.2A1.26,1.26,0,0,1,241,42.74a2.52,2.52,0,0,1-1.54-.65,2.56,2.56,0,0,0-1.23-.64c-1.6,0-1.88,2.32-1.88,4.06v3.61h3.48c.19,0,.28.19.28.59s-.17.7-.76.7c-.2,0-2.35-.14-3-.14Z"/><path class="cls-2" d="M271.11,41.42c.08-.22.16-.31.33-.31s2.19.11,2.83.11c.48,0,2.86-.11,3.05-.11s.31.23.31.48-.11.36-.34.36c-2.51,0-2.82.2-2.82,1.49,0,1.81.31,7.7.59,15.54a1.37,1.37,0,0,0,1.53,1.31c1.57,0,1.6.17,1.6.36,0,.43-.14.48-.31.48s-.56-.05-4.45-.05c-3.64,0-3.81.05-4,.05s-.31-.19-.31-.45.06-.39,1.35-.39c1.84,0,1.87-.45,1.87-1.57,0-1.68-.42-10.72-.64-16h-.06C269.57,48,267,54,265.14,58.53c-1.06,2.57-1.06,2.88-1.42,2.88s-.42-.25-1-2.18-5.18-14.4-5.29-14.4c-.48,2.05-2.33,11.35-2.33,14.15,0,.86.48,1.31,1.4,1.31.7,0,1.51.06,1.51.22,0,.54,0,.62-.31.62s-.5-.05-3.38-.05c-2.55,0-2.75.05-2.92.05s-.3,0-.3-.48c0-.27.14-.36,1.48-.36,1,0,1.18-.36,1.49-2,.75-4,1.42-8.09,2.29-12.12a12.4,12.4,0,0,0,.37-2.63,3,3,0,0,0-.73-1.4,9.44,9.44,0,0,0-2.41-.23c-.34,0-.34-.22-.34-.42s.06-.42.31-.42c.53,0,2.94.11,3.25.11.73,0,1.9-.11,2.27-.11s.39.31.67,1.32c.59,2.1,4.65,13.44,5.15,14.47,2.1-4.95,4.23-10.08,6.22-15.48"/><path class="cls-2" d="M281,42.71a1.46,1.46,0,1,1,1.45,1.48A1.48,1.48,0,0,1,281,42.71m2.6,15.76c0,1.6.06,1.93,1.29,1.93.61,0,.67,0,.67.37,0,.16,0,.36-.28.36s-.5-.06-2.32-.06c-2.63,0-3.36.06-3.78.06-.23,0-.23-.17-.23-.31,0-.36,0-.42,1.07-.42.73,0,1-.28,1.14-.67a27,27,0,0,0,.17-4V51.86c0-1-.25-1.54-1.65-1.68-.22,0-.25-.14-.25-.33s.08-.37.22-.4a12.22,12.22,0,0,0,3.92-1.37c.12,0,.17.14.17.31a25.24,25.24,0,0,0-.14,4Z"/><path class="cls-2" d="M295.66,57.66c0,1.37-.73,3.81-4.57,3.81-.5,0-2.12-.23-3.22-.23a.18.18,0,0,1-.14-.14c0-.28-.64-2.74-.64-3s.39-.17.5-.17c.67,0,.84,2.83,3.53,2.83a2.38,2.38,0,0,0,2.55-2.49c0-2.94-6.27-2-6.27-6,0-2.29,1.9-3.81,4.25-3.81a21.81,21.81,0,0,1,3,.26c.36.08.42.61.42.78,0,1.15.3,1.88.3,2.24,0,.17-.16.23-.3.23s-.42,0-.56-.4-.93-2.38-2.92-2.38a2,2,0,0,0-2.24,2.1,2.13,2.13,0,0,0,1.32,1.88c2.94,1.4,5,1.32,5,4.48"/><path class="cls-2" d="M306,57.66c0,1.37-.72,3.81-4.56,3.81-.5,0-2.13-.23-3.22-.23a.18.18,0,0,1-.14-.14c0-.28-.64-2.74-.64-3s.39-.17.5-.17c.67,0,.84,2.83,3.53,2.83A2.38,2.38,0,0,0,304,58.25c0-2.94-6.28-2-6.28-6,0-2.29,1.91-3.81,4.26-3.81a21.42,21.42,0,0,1,3,.26c.37.08.42.61.42.78.06,1.15.31,1.88.31,2.24,0,.17-.17.23-.31.23s-.42,0-.56-.4S304,49.2,302,49.2a2,2,0,0,0-2.24,2.1,2.13,2.13,0,0,0,1.32,1.88C304,54.58,306,54.5,306,57.66"/><path class="cls-2" d="M314.55,49.2c-2.91,0-3.83,3-3.83,5.77,0,2.38.56,5.77,3.83,5.77s3.87-3.39,3.87-5.77c0-2.74-.93-5.77-3.87-5.77m0,12.27a6.26,6.26,0,0,1-6.49-6.5,6.51,6.51,0,0,1,13,0,6.14,6.14,0,0,1-6.53,6.5"/><path class="cls-2" d="M324.57,52.4c0-2.47-.28-2.64-1.73-2.64-.23,0-.62,0-.62-.28s0-.56.31-.56.73.09,1.65.09,2.05-.09,2.44-.09c.17,0,.22,0,.22.4v7.56c0,2.1.67,3.3,2.75,3.3,1,0,2.77-.62,2.77-1.48V51.44c0-1.51-.28-1.68-1.74-1.68-.5,0-.9,0-.9-.28s0-.56.2-.56c.39,0,.73.09,2.44.09.7,0,1.43-.09,2.13-.09a.35.35,0,0,1,.39.4c0,.11-.26,2.26-.26,4.25v5.26c0,.45,0,1,.71,1,.39,0,1-.11,1.2-.11s.17,0,.17.53c0,.17,0,.22-.93.36a27.33,27.33,0,0,0-3.22.73.37.37,0,0,1-.33-.39c0-.34,0-.78.08-1.06a7.83,7.83,0,0,1-4.17,1.54c-2.77,0-3.56-1.8-3.56-4.71Z"/><path class="cls-2" d="M339.86,51.86c0-1-.25-1.54-1.65-1.68-.23,0-.25-.14-.25-.33s.08-.37.22-.4a12.51,12.51,0,0,0,3.92-1.37c.06,0,.11.17.11.28,0,.34-.14,1-.14,2.55.92-1,2.44-2.43,3.92-2.43A1.59,1.59,0,0,1,347.78,50a1.38,1.38,0,0,1-1.37,1.4c-1.15,0-1.31-1.06-2.16-1.06a3.16,3.16,0,0,0-1.93,1.2,1.24,1.24,0,0,0-.19.82v6.35c0,1,0,1.65,1.4,1.65,1,0,1.14,0,1.14.34s-.11.39-.42.39c-1,0-1.9-.05-3.19-.05-2.24,0-2.71.05-3.24.05-.2,0-.26-.17-.26-.36s.34-.37.87-.37c1.21,0,1.43-.22,1.43-1.42Z"/><path class="cls-2" d="M350.41,42.71a1.46,1.46,0,1,1,1.46,1.48,1.49,1.49,0,0,1-1.46-1.48M353,58.47c0,1.6.05,1.93,1.28,1.93.62,0,.68,0,.68.37,0,.16,0,.36-.28.36s-.51-.06-2.33-.06c-2.63,0-3.36.06-3.78.06-.22,0-.22-.17-.22-.31,0-.36,0-.42,1.06-.42a1.05,1.05,0,0,0,1.15-.67,28.54,28.54,0,0,0,.17-4V51.86c0-1-.25-1.54-1.65-1.68-.23,0-.26-.14-.26-.33s.09-.37.23-.4A12.51,12.51,0,0,0,353,48.08c.11,0,.17.14.17.31a25.24,25.24,0,0,0-.14,4Z"/><path class="cls-2" d="M441.83,64.22c14,.06,15.18-5.85,15.18-7.61V30.2H443.86l-2,4.54-2-4.54H426.68V56.61c0,1.76,1.21,7.67,15.18,7.61Z"/><path class="cls-1" d="M441.84,56.27c4.52,0,4.44-1.59,4.46-2V51.76c0-.51-.34-.91-1-1.25V48.73h7.76v1.76c-.63.34-1,.74-1,1.25V54c0,1.64.74,5.79-10.26,5.79S431.6,55.64,431.57,54V51.74c0-.51-.34-.91-1-1.25V48.73h7.76v1.78c-.63.34-1,.74-1,1.25v2.52c0,.4-.05,2,4.47,2"/><path class="cls-1" d="M441.84,40.77,445.59,34h7.49v1.76c-.64.34-1,.74-1,1.26V42.4c0,.51.35.91,1,1.25v1.76H446V43.63c.63-.34,1-.73,1-1.25V38.3l-4.26,7.11H441L436.7,38.3v4.08c0,.52.35.91,1,1.25v1.78H430.6V43.65c.63-.34,1-.74,1-1.25V37c0-.52-.35-.92-1-1.26V34h7.49Z"/><text class="cls-4" transform="translate(474.06 46.94)">Thompson Center for Autism<tspan x="0" y="25.67">&amp; Neurodevelopment Disorders</tspan></text><line class="cls-5" x1="404.24" x2="404.24" y2="102.05"/></g></svg>