<svg xmlns="http://www.w3.org/2000/svg" viewBox="0 0 497.74 146.85"><defs><style>.cls-1{fill:#1c305d;}.cls-2{fill:#66aee0;}</style></defs><title>Water</title><g id="Layer_2" data-name="Layer 2"><g id="Home"><path class="cls-1" d="M433.88,93.15a.73.73,0,0,1-.93.12c-2-1.33-4-2.77-6.2-2.75A9,9,0,0,0,419.68,94c-2.43,2.86-3.63,7-3.63,12.61v18.88c0,.51-.21.73-.66.73h-4.28c-.51,0-.72-.22-.72-.67V86.57c0-.52.21-.73.72-.73h4.22c.51,0,.72.21.72.66v4.59c.06.06.12.06.12,0a12.72,12.72,0,0,1,10.49-6c3.65-.14,7,1.22,10.16,4.09a.6.6,0,0,1,.06,1Z"/><path class="cls-1" d="M370.63,95a15.68,15.68,0,0,0,11,26.74,14.87,14.87,0,0,0,11-4.61,15.41,15.41,0,0,0,4.64-11.06A15.5,15.5,0,0,0,370.63,95m25.94,25.87a21.36,21.36,0,0,1-29.93,0,20.79,20.79,0,0,1,0-29.62,21.16,21.16,0,0,1,29.93,0,20.56,20.56,0,0,1,0,29.62"/><path class="cls-1" d="M470,96.39c-2.73-3.93-6.69-5.87-11.94-5.87s-8.55,2.62-10.39,7.67a23,23,0,0,0-1.11,11.31c1,7.45,4.91,12,11.36,12,5.48,0,9.47-2,12.08-6.12v-19Zm5.66,30.5c0,13-6.66,20-18.31,20-6.05,0-10.91-3.16-15.08-6.84-.2-.18-.15-.37-.09-.75a21.38,21.38,0,0,1,1.47-1.71c0-.05,1.65-1.52,1.74-1.52a.67.67,0,0,1,.87.08c3.89,3.48,7.37,5.52,11,5.52,8.48,0,12.75-4.62,12.75-13.9v-5.21A17.71,17.71,0,0,1,457.5,127c-5.83,0-10.35-2.15-13.66-6.56-2.89-3.86-4.31-8.62-4.31-14.45a23.43,23.43,0,0,1,4.14-14A15.93,15.93,0,0,1,457.42,85,19.53,19.53,0,0,1,470,89.31V86.57c0-.52.21-.73.72-.73h4.23c.5,0,.71.21.71.66v40.39Z"/><path class="cls-1" d="M353.17,122a4.47,4.47,0,1,1-4.47-4.47,4.47,4.47,0,0,1,4.47,4.47"/><path class="cls-2" d="M227.91,106.32c-5.06.53-10.71,1.23-13.76,2.42-3.47,1.35-5.08,3.46-4.94,6.17.19,3.68,3.82,6,7.87,6.19a13.62,13.62,0,0,0,10.83-3.9Zm6.41,19c0,.54-.23.77-.73.77h-4.86c-.54,0-.82-.23-.82-.73v-2A17,17,0,0,1,217,126.87c-5.55,0-9.49-1.72-12-5.5a13.86,13.86,0,0,1-2.12-7c0-5.51,3.5-9.39,10.44-11.47a82.06,82.06,0,0,1,14.62-2.32c.2-2.36-.71-9.9-9-9.9-3.57,0-7.09,1.34-10.72,3.84a.62.62,0,0,1-1-.18l-2.52-3.57a.73.73,0,0,1,.19-1,21.4,21.4,0,0,1,14-4.75,16.8,16.8,0,0,1,9.69,2.68c3.81,2.62,5.71,6.82,5.71,12.65Z"/><path class="cls-2" d="M272,121.05c.41.37.36.73,0,1.1a16.39,16.39,0,0,1-11.27,4.71c-8.54,0-12.75-4.48-12.75-13.53V91.52h-5c-.54,0-.77-.23-.77-.73V86.57c0-.54.23-.77.77-.77h5V77.88c0-.55.22-.77.72-.77h4.86c.5,0,.73.22.73.72v8h13.49a.64.64,0,0,1,.73.73v4.22c0,.54-.23.77-.73.77H254.26v21.39c0,5.63,2.16,8.47,6.58,8.47a10,10,0,0,0,7.11-3.3.74.74,0,0,1,1.08,0Z"/><path class="cls-2" d="M294.2,90.49a12.06,12.06,0,0,0-8.59,3.36,13.75,13.75,0,0,0-4.18,8.45s25.18,0,25.18,0A12.25,12.25,0,0,0,294.2,90.49m19.09,16.83a.6.6,0,0,1-.68.69H281.43a13,13,0,0,0,4.18,9,14.83,14.83,0,0,0,10.48,3.8,17.53,17.53,0,0,0,10.29-3.19c.46-.32.82-.36,1.05,0l3.26,3.38c.37.37.38.74,0,1-4.22,3.39-9.37,4.84-15,4.84a20.59,20.59,0,0,1-15.24-6.1c-4-4-5.92-9.14-5.92-15.33a20.72,20.72,0,0,1,5.83-14.88c3.57-3.7,8.25-5.56,14-5.56A18,18,0,0,1,308,90.79c3.73,3.95,5.47,9,5.33,15Z"/><path class="cls-2" d="M346.12,93.66a.75.75,0,0,1-1,.14c-1.65-1.2-3.58-2.65-5.7-2.63a8.58,8.58,0,0,0-6.81,3.29c-2.31,2.77-3.47,6.78-3.47,12.17v18.66c0,.54-.23.77-.73.77h-4.86c-.54,0-.77-.23-.77-.73V86.57c0-.54.23-.77.77-.77h4.81c.55,0,.77.23.77.73v4.08c.05,0,.14,0,.14,0A12.44,12.44,0,0,1,339.33,85c3.63-.12,6.95,1.32,10.14,4.19a.65.65,0,0,1,0,1Z"/><path class="cls-2" d="M195.41,110.44a15.94,15.94,0,0,1-4.4,11.43,15.39,15.39,0,0,1-11.72,5c-6.1,0-10.48-2.38-13.21-7.11a12.66,12.66,0,0,1-3.53,3.81,14.82,14.82,0,0,1-9.39,3.3,15.81,15.81,0,0,1-12-4.94,16,16,0,0,1-4.3-11.48V86.57c0-.55.22-.77.72-.77h4.86c.5,0,.73.22.73.73v23c0,5.91,4.14,11.3,9.86,11.3a8.78,8.78,0,0,0,7.63-3.71A14.28,14.28,0,0,0,163,108.6v-22c0-.55.23-.77.73-.77h4.86c.5,0,.73.22.73.73v22a14.41,14.41,0,0,0,2.31,8.55,8.63,8.63,0,0,0,7.54,3.71c6.17,0,9.91-5.39,9.91-11.26v-23c0-.55.23-.77.77-.77h4.81c.55,0,.78.22.78.73Z"/><path class="cls-2" d="M169.68,14.28a27.44,27.44,0,0,0-12.35,3c-6.39,3.21-11.86,6.42-16.69,9.26-6.86,4-12.82,7.53-19.27,9.78-15.18-4.66-25.2-10.67-36.75-17.61C77.48,14.46,69.4,9.6,59.24,4.61A43.44,43.44,0,0,0,40,0,40.19,40.19,0,0,0,11.77,68.61,39.57,39.57,0,0,0,40,80.43a42.83,42.83,0,0,0,19.26-4.7c9.95-5,18-9.59,25.05-13.67,11.8-6.81,22-12.7,37.14-18,8,2.65,13.61,6.09,20,10,4.44,2.72,9.47,5.81,15.86,9A27.83,27.83,0,0,0,169.65,66,25.83,25.83,0,0,0,195.4,40.18a25.84,25.84,0,0,0-25.72-25.9m0,12.29a13.58,13.58,0,0,1,0,27.16A15.61,15.61,0,0,1,162.77,52a169.54,169.54,0,0,1-14.84-8.4c-2-1.23-4-2.44-6-3.61q2.44-1.41,4.92-2.88c4.89-2.86,9.95-5.83,16-8.86a15.26,15.26,0,0,1,6.85-1.72m-89,29.14C73.32,59.94,65.73,64.31,56,69.17A35.56,35.56,0,0,1,40,73.1a32.31,32.31,0,0,1-23-9.65A32.87,32.87,0,0,1,40,7.33,36,36,0,0,1,56,11.2C65.89,16.05,73.49,20.62,80.84,25c9.66,5.8,18.29,11,29.7,15.34C99.21,45,90.45,50.05,80.65,55.71"/><polygon class="cls-1" points="484.86 54.34 484.86 55.76 480.85 55.76 480.85 66.26 479.22 66.26 479.22 55.76 475.21 55.76 475.21 54.34 484.86 54.34"/><path class="cls-1" d="M486.31,54.34h2.3L492,64.41l3.4-10.07h2.3V66.26h-1.55v-7c0-.25,0-.65,0-1.21s0-1.17,0-1.81l-3.4,10.05h-1.6l-3.44-10.05v.36c0,.3,0,.74,0,1.34s0,1,0,1.32v7h-1.53Z"/></g></g></svg>